<?xml version="1.0" encoding="UTF-8" standalone="no"?>
<svg xmlns:ffdec="https://www.free-decompiler.com/flash" xmlns:xlink="http://www.w3.org/1999/xlink" ffdec:objectType="morphshape" height="90.6px" width="183.8px" xmlns="http://www.w3.org/2000/svg">
  <g transform="matrix(1.0, 0.0, 0.0, 1.0, 94.15, 50.2)">
    <path d="M-91.95 4.9 L-91.9 5.05 Q-87.95 11.45 -79.95 17.5 -74.8 21.45 -68.65 24.75 -62.15 28.3 -54.55 31.15 -26.4 41.5 11.4 40.3 40.7 39.45 60.7 27.8 68.35 23.25 74.0 17.5 83.05 8.25 86.75 -4.2 88.85 -11.15 89.65 -17.65 87.8 -19.5 84.25 -21.15 74.55 -25.75 69.25 -32.45 63.9 -39.25 57.25 -42.2 48.05 -46.35 38.45 -42.4 28.65 -38.35 19.2 -44.0 14.6 -46.75 9.4 -45.8 -0.15 -44.15 -9.65 -42.55 -20.35 -40.7 -28.9 -47.2 -36.0 -52.55 -42.65 -48.35 -50.8 -43.3 -53.8 -33.15 -56.75 -23.0 -67.3 -19.0 -76.35 -15.65 -81.3 -5.65 -88.65 1.0 -91.95 4.9" fill="#76d8f8" fill-rule="evenodd" stroke="none">
      <animate attributeName="fill" dur="2.0s" repeatCount="indefinite" values="#76d8f8;#76d8f9"/>
      <animate attributeName="fill-opacity" dur="2.0s" repeatCount="indefinite" values="1.0;1.0"/>
      <animate attributeName="d" dur="2.0s" repeatCount="indefinite" values="M-91.95 4.9 L-91.9 5.05 Q-87.95 11.45 -79.95 17.5 -74.8 21.45 -68.65 24.75 -62.15 28.3 -54.55 31.15 -26.4 41.5 11.4 40.3 40.7 39.45 60.7 27.8 68.35 23.25 74.0 17.5 83.05 8.25 86.75 -4.2 88.85 -11.15 89.65 -17.65 87.8 -19.5 84.25 -21.15 74.55 -25.75 69.25 -32.45 63.9 -39.25 57.25 -42.2 48.05 -46.35 38.45 -42.4 28.65 -38.35 19.2 -44.0 14.6 -46.75 9.4 -45.8 -0.15 -44.15 -9.65 -42.55 -20.35 -40.7 -28.9 -47.2 -36.0 -52.55 -42.65 -48.35 -50.8 -43.3 -53.8 -33.15 -56.75 -23.0 -67.3 -19.0 -76.35 -15.65 -81.3 -5.65 -88.65 1.0 -91.95 4.9;M-93.85 0.4 L-91.9 5.05 Q-87.95 11.45 -79.95 17.5 -74.8 21.45 -68.65 24.75 -62.15 28.3 -54.55 31.15 -26.4 41.5 11.4 40.3 40.7 39.45 60.7 27.8 68.35 23.25 74.0 17.5 83.05 8.25 86.75 -4.2 88.85 -11.15 89.65 -17.65 82.15 -14.9 77.85 -22.75 73.5 -30.65 67.4 -34.55 61.25 -38.45 51.55 -37.7 41.8 -37.0 30.95 -42.85 20.1 -48.75 14.05 -43.5 8.0 -38.25 1.25 -40.55 -5.5 -42.85 -18.7 -44.2 -31.9 -45.6 -34.65 -38.9 -37.45 -32.2 -44.5 -32.35 -51.55 -32.55 -60.15 -29.95 -68.8 -27.35 -70.7 -18.95 -72.65 -10.6 -84.65 -6.2 -95.75 -4.15 -93.85 0.4"/>
    </path>
    <path d="M-91.95 4.9 Q-88.65 1.0 -81.3 -5.65 -76.35 -15.65 -67.3 -19.0 -56.75 -23.0 -53.8 -33.15 -50.8 -43.3 -42.65 -48.35 -36.0 -52.55 -28.9 -47.2 -20.35 -40.7 -9.65 -42.55 -0.15 -44.15 9.4 -45.8 14.6 -46.75 19.2 -44.0 28.65 -38.35 38.45 -42.4 48.05 -46.35 57.25 -42.2 63.9 -39.25 69.25 -32.45 74.55 -25.75 84.25 -21.15 87.8 -19.5 89.65 -17.65 88.85 -11.15 86.75 -4.2 83.05 8.25 74.0 17.5 68.35 23.25 60.7 27.8 40.7 39.45 11.4 40.3 -26.4 41.5 -54.55 31.15 -62.15 28.3 -68.65 24.75 -74.8 21.45 -79.95 17.5 -87.95 11.45 -91.9 5.05 L-91.95 4.9 Z" fill="none" stroke="#000000" stroke-linecap="round" stroke-linejoin="round" stroke-opacity="0.0" stroke-width="0.0">
      <animate attributeName="stroke" dur="2.0s" repeatCount="indefinite" values="#000000;#000001"/>
      <animate attributeName="stroke-width" dur="2.0s" repeatCount="indefinite" values="0.0;0.0"/>
      <animate attributeName="fill-opacity" dur="2.0s" repeatCount="indefinite" values="0.0;0.0"/>
      <animate attributeName="d" dur="2.0s" repeatCount="indefinite" values="M-91.95 4.9 Q-88.65 1.0 -81.3 -5.65 -76.35 -15.65 -67.3 -19.0 -56.75 -23.0 -53.8 -33.15 -50.8 -43.3 -42.65 -48.35 -36.0 -52.55 -28.9 -47.2 -20.35 -40.7 -9.65 -42.55 -0.15 -44.15 9.4 -45.8 14.6 -46.75 19.2 -44.0 28.65 -38.35 38.45 -42.4 48.05 -46.35 57.25 -42.2 63.9 -39.25 69.25 -32.45 74.55 -25.75 84.25 -21.15 87.8 -19.5 89.65 -17.65 88.85 -11.15 86.75 -4.2 83.05 8.25 74.0 17.5 68.35 23.25 60.7 27.8 40.7 39.45 11.4 40.3 -26.4 41.5 -54.55 31.15 -62.15 28.3 -68.65 24.75 -74.8 21.45 -79.95 17.5 -87.95 11.45 -91.9 5.05 L-91.95 4.9 Z;M-93.85 0.4 Q-95.75 -4.15 -84.65 -6.2 -72.65 -10.6 -70.7 -18.95 -68.8 -27.35 -60.15 -29.95 -51.55 -32.55 -44.5 -32.35 -37.45 -32.2 -34.65 -38.9 -31.9 -45.6 -18.7 -44.2 -5.5 -42.85 1.25 -40.55 8.0 -38.25 14.05 -43.5 20.1 -48.75 30.95 -42.85 41.8 -37.0 51.55 -37.7 61.25 -38.45 67.4 -34.55 73.5 -30.65 77.85 -22.75 82.15 -14.9 89.65 -17.65 88.85 -11.15 86.75 -4.2 83.05 8.25 74.0 17.5 68.35 23.25 60.7 27.8 40.7 39.45 11.4 40.3 -26.4 41.5 -54.55 31.15 -62.15 28.3 -68.65 24.75 -74.8 21.45 -79.95 17.5 -87.95 11.45 -91.9 5.05 L-93.85 0.4 Z"/>
    </path>
  </g>
</svg>
