<?xml version="1.0" encoding="UTF-8" standalone="no"?>
<svg xmlns:ffdec="https://www.free-decompiler.com/flash" xmlns:xlink="http://www.w3.org/1999/xlink" ffdec:objectType="morphshape" height="74.2px" width="18.3px" xmlns="http://www.w3.org/2000/svg">
  <g transform="matrix(1.0, 0.0, 0.0, 1.0, 9.15, 46.0)">
    <path d="M-8.85 19.5 Q-8.45 21.15 -7.55 22.6 -6.15 24.8 -3.95 26.2 -2.2 27.35 -0.25 28.05 0.85 28.45 1.2 27.65 2.0 27.65 2.75 27.1 3.25 26.75 3.8 26.6 4.85 26.3 5.35 25.45 6.35 24.0 5.9 22.25 5.45 20.3 4.15 18.75 2.65 16.95 2.8 14.75 L2.85 14.55 Q3.0 12.6 4.4 11.25 6.0 9.6 7.0 7.6 L8.7 4.05 Q9.6 2.0 8.7 0.05 7.8 -1.95 6.35 -3.75 L5.65 -4.5 Q3.3 -6.6 2.1 -9.45 1.4 -11.0 1.95 -12.65 L4.3 -15.75 Q5.45 -17.2 5.9 -18.95 6.85 -22.75 4.75 -25.95 L4.3 -26.65 Q3.8 -27.65 2.95 -28.2 L2.95 -28.15 2.65 -28.1 Q2.3 -27.9 2.35 -27.45 2.7 -25.7 1.8 -24.1 L0.8 -22.75 -0.65 -21.25 Q-3.55 -18.7 -5.15 -15.2 -5.8 -13.85 -5.7 -12.35 -6.0 -11.7 -5.75 -10.85 -5.35 -9.55 -4.25 -8.6 -1.8 -6.55 -0.5 -3.7 -0.25 -3.05 -0.4 -2.3 -0.95 0.2 -2.5 2.35 -4.25 4.7 -5.8 7.2 -7.85 10.55 -8.8 14.35 -9.45 16.95 -8.85 19.5" fill="url(#gradient0)" fill-rule="evenodd" stroke="none">
      <animate attributeName="d" dur="2.0s" repeatCount="indefinite" values="M-8.85 19.5 Q-8.45 21.15 -7.55 22.6 -6.15 24.8 -3.95 26.2 -2.2 27.35 -0.25 28.05 0.85 28.45 1.2 27.65 2.0 27.65 2.75 27.1 3.25 26.75 3.8 26.6 4.85 26.3 5.35 25.45 6.35 24.0 5.9 22.25 5.45 20.3 4.15 18.75 2.65 16.95 2.8 14.75 L2.85 14.55 Q3.0 12.6 4.4 11.25 6.0 9.6 7.0 7.6 L8.7 4.05 Q9.6 2.0 8.7 0.05 7.8 -1.95 6.35 -3.75 L5.65 -4.5 Q3.3 -6.6 2.1 -9.45 1.4 -11.0 1.95 -12.65 L4.3 -15.75 Q5.45 -17.2 5.9 -18.95 6.85 -22.75 4.75 -25.95 L4.3 -26.65 Q3.8 -27.65 2.95 -28.2 L2.95 -28.15 2.65 -28.1 Q2.3 -27.9 2.35 -27.45 2.7 -25.7 1.8 -24.1 L0.8 -22.75 -0.65 -21.25 Q-3.55 -18.7 -5.15 -15.2 -5.8 -13.85 -5.7 -12.35 -6.0 -11.7 -5.75 -10.85 -5.35 -9.55 -4.25 -8.6 -1.8 -6.55 -0.5 -3.7 -0.25 -3.05 -0.4 -2.3 -0.95 0.2 -2.5 2.35 -4.25 4.7 -5.8 7.2 -7.85 10.55 -8.8 14.35 -9.45 16.95 -8.85 19.5;M-8.85 16.8 Q-8.45 18.95 -7.55 20.85 -6.15 23.75 -3.95 25.6 -2.2 27.1 -0.25 28.05 0.85 28.55 1.2 27.5 2.0 27.5 2.75 26.8 3.25 26.3 3.8 26.15 4.85 25.7 5.35 24.6 6.35 22.7 5.9 20.4 5.45 17.8 4.15 15.8 2.65 13.4 2.8 10.55 L2.85 10.25 Q3.0 7.7 4.4 5.9 6.0 3.75 7.0 1.1 L8.7 -3.55 Q9.6 -6.25 8.7 -8.8 7.8 -11.45 6.35 -13.8 L5.65 -14.8 Q3.3 -17.6 2.1 -21.35 1.4 -23.4 1.95 -25.55 L4.3 -29.6 Q5.45 -31.55 5.9 -33.85 6.85 -38.85 4.75 -43.05 L4.3 -43.95 Q3.8 -45.3 2.95 -46.0 L2.95 -45.95 2.65 -45.9 Q2.3 -45.65 2.35 -45.0 2.7 -42.75 1.8 -40.6 L0.8 -38.85 -0.65 -36.85 Q-3.55 -33.5 -5.15 -28.9 -5.8 -27.15 -5.7 -25.15 -6.0 -24.3 -5.75 -23.15 -5.35 -21.45 -4.25 -20.2 -1.8 -17.55 -0.5 -13.75 -0.25 -12.9 -0.4 -11.9 -0.95 -8.65 -2.5 -5.8 -4.15 -2.6 -5.8 0.6 -7.85 5.0 -8.8 10.0 -9.45 13.4 -8.85 16.8"/>
    </path>
    <path d="M-8.85 19.5 Q-9.45 16.95 -8.8 14.35 -7.85 10.55 -5.8 7.2 -4.25 4.7 -2.5 2.35 -0.95 0.2 -0.4 -2.3 -0.25 -3.05 -0.5 -3.7 -1.8 -6.55 -4.25 -8.6 -5.35 -9.55 -5.75 -10.85 -6.0 -11.7 -5.7 -12.35 -5.8 -13.85 -5.15 -15.2 -3.55 -18.7 -0.65 -21.25 L0.8 -22.75 1.8 -24.1 Q2.7 -25.7 2.35 -27.45 2.3 -27.9 2.65 -28.1 L2.95 -28.15 2.95 -28.2 Q3.8 -27.65 4.3 -26.65 L4.75 -25.95 Q6.85 -22.75 5.9 -18.95 5.45 -17.2 4.3 -15.75 L1.95 -12.65 Q1.4 -11.0 2.1 -9.45 3.3 -6.6 5.65 -4.5 L6.35 -3.75 Q7.8 -1.95 8.7 0.05 9.6 2.0 8.7 4.05 L7.0 7.6 Q6.0 9.6 4.4 11.25 3.0 12.6 2.85 14.55 L2.8 14.75 Q2.65 16.95 4.15 18.75 5.45 20.3 5.9 22.25 6.35 24.0 5.35 25.45 4.85 26.3 3.8 26.6 3.25 26.75 2.75 27.1 2.0 27.65 1.2 27.65 0.85 28.45 -0.25 28.05 -2.2 27.35 -3.95 26.2 -6.15 24.8 -7.55 22.6 -8.45 21.15 -8.85 19.5 Z" fill="none" stroke="#000000" stroke-linecap="round" stroke-linejoin="round" stroke-opacity="0.0" stroke-width="0.0">
      <animate attributeName="stroke" dur="2.0s" repeatCount="indefinite" values="#000000;#000001"/>
      <animate attributeName="stroke-width" dur="2.0s" repeatCount="indefinite" values="0.0;0.0"/>
      <animate attributeName="fill-opacity" dur="2.0s" repeatCount="indefinite" values="0.0;0.0"/>
      <animate attributeName="d" dur="2.0s" repeatCount="indefinite" values="M-8.85 19.5 Q-9.45 16.95 -8.8 14.35 -7.85 10.55 -5.8 7.2 -4.25 4.7 -2.5 2.35 -0.95 0.2 -0.4 -2.3 -0.25 -3.05 -0.5 -3.7 -1.8 -6.55 -4.25 -8.6 -5.35 -9.55 -5.75 -10.85 -6.0 -11.7 -5.7 -12.35 -5.8 -13.85 -5.15 -15.2 -3.55 -18.7 -0.65 -21.25 L0.8 -22.75 1.8 -24.1 Q2.7 -25.7 2.35 -27.45 2.3 -27.9 2.65 -28.1 L2.95 -28.15 2.95 -28.2 Q3.8 -27.65 4.3 -26.65 L4.75 -25.95 Q6.85 -22.75 5.9 -18.95 5.45 -17.2 4.3 -15.75 L1.95 -12.65 Q1.4 -11.0 2.1 -9.45 3.3 -6.6 5.65 -4.5 L6.35 -3.75 Q7.8 -1.95 8.7 0.05 9.6 2.0 8.7 4.05 L7.0 7.6 Q6.0 9.6 4.4 11.25 3.0 12.6 2.85 14.55 L2.8 14.75 Q2.65 16.95 4.15 18.75 5.45 20.3 5.9 22.25 6.35 24.0 5.35 25.45 4.85 26.3 3.8 26.6 3.25 26.75 2.75 27.1 2.0 27.65 1.2 27.65 0.85 28.45 -0.25 28.05 -2.2 27.35 -3.95 26.2 -6.15 24.8 -7.55 22.6 -8.45 21.15 -8.85 19.5 Z;M-8.85 16.8 Q-9.45 13.4 -8.8 10.0 -7.85 5.0 -5.8 0.6 -4.15 -2.6 -2.5 -5.8 -0.95 -8.65 -0.4 -11.9 -0.25 -12.9 -0.5 -13.75 -1.8 -17.55 -4.25 -20.2 -5.35 -21.45 -5.75 -23.15 -6.0 -24.3 -5.7 -25.15 -5.8 -27.15 -5.15 -28.9 -3.55 -33.5 -0.65 -36.85 L0.8 -38.85 1.8 -40.6 Q2.7 -42.75 2.35 -45.0 2.3 -45.65 2.65 -45.9 L2.95 -45.95 2.95 -46.0 Q3.8 -45.3 4.3 -43.95 L4.75 -43.05 Q6.85 -38.85 5.9 -33.85 5.45 -31.55 4.3 -29.6 L1.95 -25.55 Q1.4 -23.4 2.1 -21.35 3.3 -17.6 5.65 -14.8 L6.35 -13.8 Q7.8 -11.45 8.7 -8.8 9.6 -6.25 8.7 -3.55 L7.0 1.1 Q6.0 3.75 4.4 5.9 3.0 7.7 2.85 10.25 L2.8 10.55 Q2.65 13.4 4.15 15.8 5.45 17.8 5.9 20.4 6.35 22.7 5.35 24.6 4.85 25.7 3.8 26.15 3.25 26.3 2.75 26.8 2.0 27.5 1.2 27.5 0.85 28.55 -0.25 28.05 -2.2 27.1 -3.95 25.6 -6.15 23.75 -7.55 20.85 -8.45 18.95 -8.85 16.8 Z"/>
    </path>
  </g>
  <defs>
    <linearGradient gradientTransform="matrix(0.0057, -0.0216, 0.0332, 0.0088, 1.8, 26.85)" gradientUnits="userSpaceOnUse" id="gradient0" spreadMethod="pad" x1="-819.2" x2="819.2">
      <animateTransform additive="replace" attributeName="gradientTransform" dur="2s" from="1" repeatCount="indefinite" to="1" type="scale"/>
      <animateTransform additive="sum" attributeName="gradientTransform" dur="2s" from="1.8 26.85" repeatCount="indefinite" to="1.85 -40.9" type="translate"/>
      <animateTransform additive="sum" attributeName="gradientTransform" dur="2s" from="-75.1668" repeatCount="indefinite" to="-84.6371" type="rotate"/>
      <animateTransform additive="sum" attributeName="gradientTransform" dur="2s" from="0.0224 0.0344" repeatCount="indefinite" to="0.0268 0.0345" type="scale"/>
      <animateTransform additive="sum" attributeName="gradientTransform" dur="2s" from="0.0025" repeatCount="indefinite" to="-4.9586" type="skewX"/>
      <stop offset="0.0" stop-color="#ffffff" stop-opacity="0.0">
        <animate attributeName="offset" dur="2.0s" repeatCount="indefinite" values="0.0;0.0"/>
        <animate attributeName="stop-color" dur="2.0s" repeatCount="indefinite" values="#ffffff;#ffffff"/>
        <animate attributeName="stop-opacity" dur="2.0s" repeatCount="indefinite" values="0.0;0.0"/>
      </stop>
      <stop offset="0.3058823529411765" stop-color="#ffffff" stop-opacity="0.4">
        <animate attributeName="offset" dur="2.0s" repeatCount="indefinite" values="0.3058823529411765;0.3058823529411765"/>
        <animate attributeName="stop-color" dur="2.0s" repeatCount="indefinite" values="#ffffff;#ffffff"/>
        <animate attributeName="stop-opacity" dur="2.0s" repeatCount="indefinite" values="0.4;0.4"/>
      </stop>
      <stop offset="0.7019607843137254" stop-color="#ffffff" stop-opacity="0.22352941">
        <animate attributeName="offset" dur="2.0s" repeatCount="indefinite" values="0.7019607843137254;0.7019607843137254"/>
        <animate attributeName="stop-color" dur="2.0s" repeatCount="indefinite" values="#ffffff;#ffffff"/>
        <animate attributeName="stop-opacity" dur="2.0s" repeatCount="indefinite" values="0.22352941;0.22352941"/>
      </stop>
      <stop offset="1.0" stop-color="#ffffff" stop-opacity="0.0">
        <animate attributeName="offset" dur="2.0s" repeatCount="indefinite" values="1.0;1.0"/>
        <animate attributeName="stop-color" dur="2.0s" repeatCount="indefinite" values="#ffffff;#ffffff"/>
        <animate attributeName="stop-opacity" dur="2.0s" repeatCount="indefinite" values="0.0;0.0"/>
      </stop>
    </linearGradient>
  </defs>
</svg>
