<?xml version="1.0" encoding="UTF-8" standalone="no"?>
<svg xmlns:ffdec="https://www.free-decompiler.com/flash" xmlns:xlink="http://www.w3.org/1999/xlink" ffdec:objectType="morphshape" height="74.25px" width="18.3px" xmlns="http://www.w3.org/2000/svg">
  <g transform="matrix(1.0, 0.0, 0.0, 1.0, 9.15, 46.0)">
    <path d="M-8.85 19.5 L-8.85 19.5 Q-8.45 21.15 -7.55 22.6 L-7.55 22.6 Q-6.15 24.8 -3.95 26.2 L-3.95 26.2 Q-2.4 27.25 -0.65 27.9 L-0.25 28.05 Q0.25 28.1 0.75 28.15 L1.2 27.65 1.95 27.55 2.75 27.1 2.85 27.0 Q3.3 26.75 3.8 26.6 L4.4 26.35 5.35 25.45 Q6.0 24.5 6.05 23.4 L5.9 22.25 Q5.55 20.75 4.7 19.45 L4.15 18.75 Q2.9 17.25 2.8 15.4 L2.8 15.15 2.8 14.75 2.85 14.55 Q2.95 12.95 3.95 11.75 L4.4 11.25 Q5.6 9.65 6.75 8.1 L7.0 7.6 8.5 4.45 8.7 4.05 Q9.55 2.15 8.8 0.3 L8.7 0.05 Q7.6 -1.75 6.55 -3.55 L6.35 -3.75 5.95 -4.2 5.65 -4.5 Q3.45 -6.45 2.3 -9.05 L2.1 -9.45 Q1.45 -10.85 1.85 -12.35 L1.95 -12.65 4.1 -15.45 4.3 -15.75 Q5.4 -17.1 5.8 -18.75 L5.9 -18.95 Q6.85 -22.7 4.85 -25.85 L4.75 -25.95 4.4 -26.55 4.3 -26.65 Q3.8 -27.65 2.95 -28.2 L2.95 -28.15 2.95 -28.15 2.85 -28.15 2.65 -28.1 2.65 -28.1 Q2.3 -27.85 2.35 -27.45 2.7 -25.7 1.8 -24.1 L1.65 -23.9 0.8 -22.75 0.6 -22.55 -0.65 -21.25 -0.85 -21.05 Q-3.6 -18.6 -5.15 -15.2 L-5.25 -15.0 -5.55 -13.95 -5.7 -12.35 -5.8 -12.15 Q-5.75 -11.5 -5.75 -10.85 L-5.65 -10.55 Q-5.2 -9.45 -4.25 -8.6 -1.85 -6.6 -0.6 -3.9 L-0.5 -3.7 Q-0.25 -3.1 -0.4 -2.4 L-0.4 -2.3 Q-0.95 0.2 -2.5 2.35 L-5.6 6.9 -5.8 7.2 Q-7.75 10.4 -8.7 14.05 L-8.8 14.35 Q-9.45 16.95 -8.85 19.5" fill="url(#gradient0)" fill-rule="evenodd" stroke="none">
      <animate attributeName="d" dur="2.0s" repeatCount="indefinite" values="M-8.85 19.5 L-8.85 19.5 Q-8.45 21.15 -7.55 22.6 L-7.55 22.6 Q-6.15 24.8 -3.95 26.2 L-3.95 26.2 Q-2.4 27.25 -0.65 27.9 L-0.25 28.05 Q0.25 28.1 0.75 28.15 L1.2 27.65 1.95 27.55 2.75 27.1 2.85 27.0 Q3.3 26.75 3.8 26.6 L4.4 26.35 5.35 25.45 Q6.0 24.5 6.05 23.4 L5.9 22.25 Q5.55 20.75 4.7 19.45 L4.15 18.75 Q2.9 17.25 2.8 15.4 L2.8 15.15 2.8 14.75 2.85 14.55 Q2.95 12.95 3.95 11.75 L4.4 11.25 Q5.6 9.65 6.75 8.1 L7.0 7.6 8.5 4.45 8.7 4.05 Q9.55 2.15 8.8 0.3 L8.7 0.05 Q7.6 -1.75 6.55 -3.55 L6.35 -3.75 5.95 -4.2 5.65 -4.5 Q3.45 -6.45 2.3 -9.05 L2.1 -9.45 Q1.45 -10.85 1.85 -12.35 L1.95 -12.65 4.1 -15.45 4.3 -15.75 Q5.4 -17.1 5.8 -18.75 L5.9 -18.95 Q6.85 -22.7 4.85 -25.85 L4.75 -25.95 4.4 -26.55 4.3 -26.65 Q3.8 -27.65 2.95 -28.2 L2.95 -28.15 2.95 -28.15 2.85 -28.15 2.65 -28.1 2.65 -28.1 Q2.3 -27.85 2.35 -27.45 2.7 -25.7 1.8 -24.1 L1.65 -23.9 0.8 -22.75 0.6 -22.55 -0.65 -21.25 -0.85 -21.05 Q-3.6 -18.6 -5.15 -15.2 L-5.25 -15.0 -5.55 -13.95 -5.7 -12.35 -5.8 -12.15 Q-5.75 -11.5 -5.75 -10.85 L-5.65 -10.55 Q-5.2 -9.45 -4.25 -8.6 -1.85 -6.6 -0.6 -3.9 L-0.5 -3.7 Q-0.25 -3.1 -0.4 -2.4 L-0.4 -2.3 Q-0.95 0.2 -2.5 2.35 L-5.6 6.9 -5.8 7.2 Q-7.75 10.4 -8.7 14.05 L-8.8 14.35 Q-9.45 16.95 -8.85 19.5;M-8.85 16.8 L-8.75 17.2 Q-8.35 19.1 -7.55 20.85 L-7.55 20.85 Q-6.15 23.75 -3.95 25.6 L-3.95 25.6 Q-2.2 27.1 -0.25 28.05 L0.3 28.25 Q0.95 28.3 1.2 27.5 L2.0 27.35 2.75 26.8 3.7 26.15 3.8 26.15 Q4.4 25.7 4.95 25.25 L5.35 24.6 5.9 23.05 Q6.15 21.8 5.9 20.4 L5.6 19.05 Q5.1 17.25 4.15 15.8 L3.7 14.9 Q2.7 12.9 2.8 10.55 L2.85 10.25 2.9 9.75 2.9 9.55 Q3.2 7.45 4.4 5.9 L4.9 5.2 Q6.15 3.35 7.0 1.1 L7.25 0.4 8.7 -3.55 8.85 -4.05 Q9.5 -6.5 8.7 -8.8 L8.6 -9.0 Q7.75 -11.55 6.35 -13.8 L6.15 -14.1 5.65 -14.8 5.45 -15.0 Q3.25 -17.75 2.1 -21.35 L1.95 -21.85 Q1.45 -23.65 1.95 -25.55 L2.15 -25.85 4.3 -29.6 4.5 -30.0 Q5.5 -31.8 5.9 -33.85 L5.9 -34.05 Q6.8 -38.95 4.75 -43.05 L4.7 -43.15 4.3 -43.95 4.3 -43.95 Q3.7 -44.95 3.15 -45.9 L3.05 -46.0 2.95 -46.0 2.95 -45.95 2.65 -45.9 2.65 -45.9 Q2.3 -45.65 2.35 -45.0 2.7 -42.9 1.9 -40.9 L1.8 -40.6 1.0 -39.15 0.8 -38.85 -0.45 -37.05 -0.65 -36.85 Q-3.5 -33.55 -5.05 -29.1 L-5.15 -28.9 -5.55 -27.35 -5.7 -25.35 -5.7 -25.15 Q-5.95 -24.45 -5.85 -23.55 L-5.75 -23.15 Q-5.35 -21.45 -4.25 -20.2 -1.8 -17.55 -0.5 -13.75 L-0.4 -13.55 Q-0.25 -12.75 -0.4 -11.9 L-0.4 -11.8 Q-0.95 -8.6 -2.5 -5.8 L-5.8 0.6 -6.0 1.1 Q-7.9 5.3 -8.8 10.0 L-8.9 10.5 Q-9.4 13.65 -8.85 16.8"/>
    </path>
    <path d="M-8.85 19.5 Q-9.45 16.95 -8.8 14.35 L-8.7 14.05 Q-7.75 10.4 -5.8 7.2 L-5.6 6.9 -2.5 2.35 Q-0.95 0.2 -0.4 -2.3 L-0.4 -2.4 Q-0.25 -3.1 -0.5 -3.7 L-0.6 -3.9 Q-1.85 -6.6 -4.25 -8.6 -5.2 -9.45 -5.65 -10.55 L-5.75 -10.85 Q-5.75 -11.5 -5.8 -12.15 L-5.7 -12.35 -5.55 -13.95 -5.25 -15.0 -5.15 -15.2 Q-3.6 -18.6 -0.85 -21.05 L-0.65 -21.25 0.6 -22.55 0.8 -22.75 1.65 -23.9 1.8 -24.1 Q2.7 -25.7 2.35 -27.45 2.3 -27.85 2.65 -28.1 L2.65 -28.1 2.85 -28.15 2.95 -28.15 2.95 -28.15 2.95 -28.2 Q3.8 -27.65 4.3 -26.65 L4.4 -26.55 4.75 -25.95 4.85 -25.85 Q6.85 -22.7 5.9 -18.95 L5.8 -18.75 Q5.4 -17.1 4.3 -15.75 L4.1 -15.45 1.95 -12.65 1.85 -12.35 Q1.45 -10.85 2.1 -9.45 L2.3 -9.05 Q3.45 -6.45 5.65 -4.5 L5.95 -4.2 6.35 -3.75 6.55 -3.55 Q7.6 -1.75 8.7 0.05 L8.8 0.3 Q9.55 2.15 8.7 4.05 L8.5 4.45 7.0 7.6 6.75 8.1 Q5.6 9.65 4.4 11.25 L3.95 11.75 Q2.95 12.95 2.85 14.55 L2.8 14.75 2.8 15.15 2.8 15.4 Q2.9 17.25 4.15 18.75 L4.7 19.45 Q5.55 20.75 5.9 22.25 L6.05 23.4 Q6.0 24.5 5.35 25.45 L4.4 26.35 3.8 26.6 Q3.3 26.75 2.85 27.0 L2.75 27.1 1.95 27.55 1.2 27.65 0.75 28.15 Q0.25 28.1 -0.25 28.05 L-0.65 27.9 Q-2.4 27.25 -3.95 26.2 L-3.95 26.2 Q-6.15 24.8 -7.55 22.6 L-7.55 22.6 Q-8.45 21.15 -8.85 19.5 L-8.85 19.5 Z" fill="none" stroke="#000000" stroke-linecap="round" stroke-linejoin="round" stroke-opacity="0.0" stroke-width="0.0">
      <animate attributeName="stroke" dur="2.0s" repeatCount="indefinite" values="#000000;#000001"/>
      <animate attributeName="stroke-width" dur="2.0s" repeatCount="indefinite" values="0.0;0.0"/>
      <animate attributeName="fill-opacity" dur="2.0s" repeatCount="indefinite" values="0.0;0.0"/>
      <animate attributeName="d" dur="2.0s" repeatCount="indefinite" values="M-8.85 19.5 Q-9.45 16.95 -8.8 14.35 L-8.7 14.05 Q-7.75 10.4 -5.8 7.2 L-5.6 6.9 -2.5 2.35 Q-0.95 0.2 -0.4 -2.3 L-0.4 -2.4 Q-0.25 -3.1 -0.5 -3.7 L-0.6 -3.9 Q-1.85 -6.6 -4.25 -8.6 -5.2 -9.45 -5.65 -10.55 L-5.75 -10.85 Q-5.75 -11.5 -5.8 -12.15 L-5.7 -12.35 -5.55 -13.95 -5.25 -15.0 -5.15 -15.2 Q-3.6 -18.6 -0.85 -21.05 L-0.65 -21.25 0.6 -22.55 0.8 -22.75 1.65 -23.9 1.8 -24.1 Q2.7 -25.7 2.35 -27.45 2.3 -27.85 2.65 -28.1 L2.65 -28.1 2.85 -28.15 2.95 -28.15 2.95 -28.15 2.95 -28.2 Q3.8 -27.65 4.3 -26.65 L4.4 -26.55 4.75 -25.95 4.85 -25.85 Q6.85 -22.7 5.9 -18.95 L5.8 -18.75 Q5.4 -17.1 4.3 -15.75 L4.1 -15.45 1.95 -12.65 1.85 -12.35 Q1.45 -10.85 2.1 -9.45 L2.3 -9.05 Q3.45 -6.45 5.65 -4.5 L5.95 -4.2 6.35 -3.75 6.55 -3.55 Q7.6 -1.75 8.7 0.05 L8.8 0.3 Q9.55 2.15 8.7 4.05 L8.5 4.45 7.0 7.6 6.75 8.1 Q5.6 9.65 4.4 11.25 L3.95 11.75 Q2.95 12.95 2.85 14.55 L2.8 14.75 2.8 15.15 2.8 15.4 Q2.9 17.25 4.15 18.75 L4.7 19.45 Q5.55 20.75 5.9 22.25 L6.05 23.4 Q6.0 24.5 5.35 25.45 L4.4 26.35 3.8 26.6 Q3.3 26.75 2.85 27.0 L2.75 27.1 1.95 27.55 1.2 27.65 0.75 28.15 Q0.25 28.1 -0.25 28.05 L-0.65 27.9 Q-2.4 27.25 -3.95 26.2 L-3.95 26.2 Q-6.15 24.8 -7.55 22.6 L-7.55 22.6 Q-8.45 21.15 -8.85 19.5 L-8.85 19.5 Z;M-8.85 16.8 Q-9.4 13.65 -8.9 10.5 L-8.8 10.0 Q-7.9 5.3 -6.0 1.1 L-5.8 0.6 -2.5 -5.8 Q-0.95 -8.6 -0.4 -11.8 L-0.4 -11.9 Q-0.25 -12.75 -0.4 -13.55 L-0.5 -13.75 Q-1.8 -17.55 -4.25 -20.2 -5.35 -21.45 -5.75 -23.15 L-5.85 -23.55 Q-5.95 -24.45 -5.7 -25.15 L-5.7 -25.35 -5.55 -27.35 -5.15 -28.9 -5.05 -29.1 Q-3.5 -33.55 -0.65 -36.85 L-0.45 -37.05 0.8 -38.85 1.0 -39.15 1.8 -40.6 1.9 -40.9 Q2.7 -42.9 2.35 -45.0 2.3 -45.65 2.65 -45.9 L2.65 -45.9 2.95 -45.95 2.95 -46.0 3.05 -46.0 3.15 -45.9 Q3.7 -44.95 4.3 -43.95 L4.3 -43.95 4.7 -43.15 4.75 -43.05 Q6.8 -38.95 5.9 -34.05 L5.9 -33.85 Q5.5 -31.8 4.5 -30.0 L4.3 -29.6 2.15 -25.85 1.95 -25.55 Q1.45 -23.65 1.95 -21.85 L2.1 -21.35 Q3.25 -17.75 5.45 -15.0 L5.65 -14.8 6.15 -14.1 6.35 -13.8 Q7.75 -11.55 8.6 -9.0 L8.7 -8.8 Q9.5 -6.5 8.85 -4.05 L8.7 -3.55 7.25 0.4 7.0 1.1 Q6.15 3.35 4.9 5.2 L4.4 5.9 Q3.2 7.45 2.9 9.55 L2.9 9.75 2.85 10.25 2.8 10.55 Q2.7 12.9 3.7 14.9 L4.15 15.8 Q5.1 17.25 5.6 19.05 L5.9 20.4 Q6.15 21.8 5.9 23.05 L5.35 24.6 4.95 25.25 Q4.4 25.7 3.8 26.15 L3.7 26.15 2.75 26.8 2.0 27.35 1.2 27.5 Q0.95 28.3 0.3 28.25 L-0.25 28.05 Q-2.2 27.1 -3.95 25.6 L-3.95 25.6 Q-6.15 23.75 -7.55 20.85 L-7.55 20.85 Q-8.35 19.1 -8.75 17.2 L-8.85 16.8 Z"/>
    </path>
  </g>
  <defs>
    <linearGradient gradientTransform="matrix(0.0057, -0.0216, 0.0332, 0.0088, 1.8, 26.85)" gradientUnits="userSpaceOnUse" id="gradient0" spreadMethod="pad" x1="-819.2" x2="819.2">
      <animateTransform additive="replace" attributeName="gradientTransform" dur="2s" from="1" repeatCount="indefinite" to="1" type="scale"/>
      <animateTransform additive="sum" attributeName="gradientTransform" dur="2s" from="1.8 26.85" repeatCount="indefinite" to="1.85 -40.9" type="translate"/>
      <animateTransform additive="sum" attributeName="gradientTransform" dur="2s" from="-75.1668" repeatCount="indefinite" to="-84.6371" type="rotate"/>
      <animateTransform additive="sum" attributeName="gradientTransform" dur="2s" from="0.0224 0.0344" repeatCount="indefinite" to="0.0268 0.0345" type="scale"/>
      <animateTransform additive="sum" attributeName="gradientTransform" dur="2s" from="0.0025" repeatCount="indefinite" to="-4.9586" type="skewX"/>
      <stop offset="0.0" stop-color="#ffffff" stop-opacity="0.0">
        <animate attributeName="offset" dur="2.0s" repeatCount="indefinite" values="0.0;0.0"/>
        <animate attributeName="stop-color" dur="2.0s" repeatCount="indefinite" values="#ffffff;#ffffff"/>
        <animate attributeName="stop-opacity" dur="2.0s" repeatCount="indefinite" values="0.0;0.0"/>
      </stop>
      <stop offset="0.3058823529411765" stop-color="#ffffff" stop-opacity="0.4">
        <animate attributeName="offset" dur="2.0s" repeatCount="indefinite" values="0.3058823529411765;0.3058823529411765"/>
        <animate attributeName="stop-color" dur="2.0s" repeatCount="indefinite" values="#ffffff;#ffffff"/>
        <animate attributeName="stop-opacity" dur="2.0s" repeatCount="indefinite" values="0.4;0.4"/>
      </stop>
      <stop offset="0.7019607843137254" stop-color="#ffffff" stop-opacity="0.22352941">
        <animate attributeName="offset" dur="2.0s" repeatCount="indefinite" values="0.7019607843137254;0.7019607843137254"/>
        <animate attributeName="stop-color" dur="2.0s" repeatCount="indefinite" values="#ffffff;#ffffff"/>
        <animate attributeName="stop-opacity" dur="2.0s" repeatCount="indefinite" values="0.22352941;0.22352941"/>
      </stop>
      <stop offset="1.0" stop-color="#ffffff" stop-opacity="0.0">
        <animate attributeName="offset" dur="2.0s" repeatCount="indefinite" values="1.0;1.0"/>
        <animate attributeName="stop-color" dur="2.0s" repeatCount="indefinite" values="#ffffff;#ffffff"/>
        <animate attributeName="stop-opacity" dur="2.0s" repeatCount="indefinite" values="0.0;0.0"/>
      </stop>
    </linearGradient>
  </defs>
</svg>
