<?xml version="1.0" encoding="UTF-8" standalone="no"?>
<svg xmlns:ffdec="https://www.free-decompiler.com/flash" xmlns:xlink="http://www.w3.org/1999/xlink" ffdec:objectType="shape" height="445.35px" width="580.65px" xmlns="http://www.w3.org/2000/svg">
  <g transform="matrix(1.0, 0.0, 0.0, 1.0, 290.3, 222.65)">
    <path d="M257.0 17.1 L-248.7 17.1 -248.7 -222.65 257.0 -222.65 257.0 17.1" fill="#fff2c7" fill-rule="evenodd" stroke="none"/>
    <path d="M45.35 -163.55 Q48.35 -162.35 49.4 -157.95 50.4 -153.65 48.65 -150.15 46.7 -146.2 42.1 -146.25 42.2 -142.05 41.05 -140.3 39.7 -138.4 35.75 -137.6 24.3 -135.15 22.15 -141.3 22.6 -136.3 16.5 -133.7 11.0 -131.4 6.35 -132.7 2.05 -133.9 -0.8 -138.65 -3.7 -143.6 -1.9 -147.75 -4.0 -145.5 -8.15 -144.65 -12.1 -143.85 -16.0 -144.75 -25.7 -146.9 -23.4 -154.95 -21.8 -160.65 -15.25 -162.6 -8.5 -164.5 -4.0 -160.1 -3.55 -163.55 -0.5 -168.15 2.8 -173.25 5.8 -173.9 10.0 -174.9 14.15 -171.1 17.4 -168.05 19.25 -163.65 22.85 -172.25 28.8 -171.95 32.45 -171.75 35.5 -168.05 38.5 -164.3 37.75 -160.85 41.95 -165.0 45.35 -163.55" fill="#ffffff" fill-rule="evenodd" stroke="none"/>
    <path d="M47.8 -116.75 L38.85 -119.4 40.65 -132.9 28.05 -132.0 28.05 -140.95 57.65 -142.75 55.9 -132.85 48.7 -132.85 47.8 -116.75" fill="#7fb1d3" fill-rule="evenodd" stroke="none"/>
    <path d="M61.25 -138.8 Q61.25 -136.75 60.2 -135.35 59.15 -133.9 57.65 -133.9 56.2 -133.9 55.15 -135.35 54.1 -136.75 54.1 -138.8 54.1 -140.85 55.15 -142.3 56.2 -143.75 57.65 -143.75 59.15 -143.75 60.2 -142.3 61.25 -140.85 61.25 -138.8" fill="#3686bc" fill-rule="evenodd" stroke="none"/>
    <path d="M87.45 -160.4 Q80.95 -161.9 82.5 -167.3 83.6 -171.15 88.0 -172.45 92.5 -173.75 95.55 -170.8 95.85 -173.05 97.9 -176.2 100.2 -179.65 102.2 -180.1 105.0 -180.7 107.8 -178.15 110.0 -176.1 111.25 -173.15 113.7 -178.95 117.65 -178.75 120.1 -178.65 122.15 -176.1 124.25 -173.6 123.65 -171.25 126.5 -174.05 128.85 -173.1 130.85 -172.3 131.55 -169.35 132.2 -166.4 131.05 -164.05 129.7 -161.4 126.6 -161.45 126.7 -158.65 125.9 -157.45 125.0 -156.15 122.35 -155.6 114.6 -154.05 113.2 -158.1 113.55 -154.75 109.4 -153.0 105.65 -151.4 102.55 -152.3 99.65 -153.15 97.75 -156.3 95.75 -159.7 97.0 -162.45 93.8 -159.0 87.45 -160.4" fill="#ffffff" fill-rule="evenodd" stroke="none"/>
    <path d="M-188.5 37.75 L260.9 37.75 260.9 217.1 -188.5 217.1 -188.5 37.75" fill="#c0b3a9" fill-rule="evenodd" stroke="none"/>
    <path d="M-188.5 37.75 L260.9 37.75 260.9 217.1 -188.5 217.1 -188.5 37.75 Z" fill="none" stroke="#dadbe0" stroke-linecap="round" stroke-linejoin="round" stroke-width="1.0"/>
    <path d="M160.65 85.9 Q149.3 73.45 138.3 69.1 119.8 61.8 19.6 52.65 -30.55 48.05 -76.95 44.9 L-91.85 18.35 130.25 25.15 247.75 62.85 274.65 205.45 205.6 200.95 Q202.3 155.85 181.35 116.2 171.85 98.2 160.65 85.9" fill="#af7554" fill-rule="evenodd" stroke="none"/>
    <path d="M-71.55 41.3 L-59.9 18.0 135.65 21.55 253.15 59.25 280.05 201.85 216.35 194.7 Q213.2 150.7 189.45 111.3 179.1 94.05 166.9 81.9 154.85 69.9 143.7 65.5 125.2 58.2 25.0 49.05 -25.15 44.45 -71.55 41.3" fill="#ca9986" fill-rule="evenodd" stroke="none"/>
    <path d="M-223.55 110.6 L-38.75 80.95 -37.85 89.05 -46.65 100.35 Q-58.2 114.8 -71.85 130.3 -115.55 180.1 -164.35 222.7 L-267.5 218.25 -223.55 110.6" fill="#af7554" fill-rule="evenodd" stroke="none"/>
    <path d="M-84.85 70.3 L-36.95 79.2 -45.75 90.5 Q-57.25 104.9 -70.95 120.45 -114.65 170.25 -163.45 212.85 L-266.6 208.35 -222.65 100.7 -84.85 70.3" fill="#ca9986" fill-rule="evenodd" stroke="none"/>
    <path d="M-55.8 -51.2 L-36.35 -49.7 -36.95 -73.6 -19.3 -73.3 -19.3 -63.15 6.4 -63.15 12.4 27.15 -100.35 21.65 -98.35 -64.35 -56.4 -63.15 -55.8 -51.2" fill="#be7271" fill-rule="evenodd" stroke="none"/>
    <path d="M205.6 28.15 L114.1 29.35 127.85 -62.15 136.85 -62.15 137.45 -50.2 152.4 -49.6 151.8 -73.5 173.9 -72.3 173.9 -62.15 199.6 -62.15 205.6 28.15" fill="#be7271" fill-rule="evenodd" stroke="none"/>
    <path d="M-232.85 -153.7 L-177.45 -160.85 -162.2 129.05 -218.95 118.5 -232.85 -153.7" fill="#b29156" fill-rule="evenodd" stroke="none"/>
    <path d="M-27.05 -188.75 L-27.05 -180.1 -18.85 -180.1 Q-17.55 -180.1 -17.55 -178.8 -17.55 -177.45 -18.85 -177.45 L-28.4 -177.45 Q-29.7 -177.45 -29.7 -178.8 L-29.7 -188.75 Q-29.7 -190.05 -28.4 -190.05 -27.05 -190.05 -27.05 -188.75" fill="#cccccc" fill-rule="evenodd" stroke="none"/>
    <path d="M-18.85 -97.85 L-28.4 -97.85 Q-29.7 -97.85 -29.7 -99.15 L-29.7 -109.1 Q-29.7 -110.45 -28.4 -110.45 -27.05 -110.45 -27.05 -109.1 L-27.05 -100.5 -18.85 -100.5 Q-17.55 -100.5 -17.55 -99.15 -17.55 -97.85 -18.85 -97.85" fill="#cccccc" fill-rule="evenodd" stroke="none"/>
    <path d="M-1.5 -209.7 L-1.5 36.8 -4.2 38.7 Q-7.6 40.55 -11.15 40.55 -16.65 40.55 -21.1 36.8 L-21.1 -209.7 Q-18.45 -211.8 -12.0 -211.85 -7.95 -211.85 -4.35 -210.75 L-1.5 -209.7" fill="#ebebeb" fill-rule="evenodd" stroke="none"/>
    <path d="M-10.95 15.75 Q-4.85 11.2 -0.2 6.45 L-0.2 12.65 -3.2 14.2 Q-7.0 15.75 -10.95 15.75" fill="#363a40" fill-rule="evenodd" stroke="none"/>
    <path d="M-20.2 13.7 Q-8.45 6.75 -0.2 -1.8 L-0.2 6.45 Q-4.85 11.2 -10.95 15.75 L-11.05 15.75 Q-15.55 15.75 -20.2 13.7" fill="#fbf35d" fill-rule="evenodd" stroke="none"/>
    <path d="M-22.25 -9.9 L-22.25 -16.85 Q-18.75 -15.8 -13.25 -15.55 -17.9 -12.3 -22.25 -9.9" fill="#fbf35d" fill-rule="evenodd" stroke="none"/>
    <path d="M-22.25 12.65 L-22.25 6.6 Q-9.65 -0.45 -0.2 -10.05 L-0.2 -1.8 Q-8.45 6.75 -20.2 13.7 L-22.25 12.65" fill="#363a40" fill-rule="evenodd" stroke="none"/>
    <path d="M-22.25 -1.65 L-22.25 -9.9 Q-17.9 -12.3 -13.25 -15.55 L-11.15 -15.5 Q-6.3 -15.5 -2.15 -16.4 -10.95 -7.95 -22.25 -1.65" fill="#363a40" fill-rule="evenodd" stroke="none"/>
    <path d="M-22.25 6.6 L-22.25 -1.65 Q-10.95 -7.95 -2.15 -16.4 L-0.2 -16.85 -0.2 -10.05 Q-9.65 -0.45 -22.25 6.6" fill="#fbf35d" fill-rule="evenodd" stroke="none"/>
    <path d="M-2.4 -62.95 Q-2.4 -59.1 -5.0 -59.1 -7.6 -59.1 -7.6 -62.95 -7.6 -66.8 -5.0 -66.8 -2.4 -66.8 -2.4 -62.95" fill="#bfbfbf" fill-rule="evenodd" stroke="none"/>
    <path d="M6.8 -62.9 Q6.8 -61.6 5.5 -61.6 L-4.05 -61.6 Q-5.35 -61.6 -5.35 -62.9 -5.35 -64.25 -4.05 -64.25 L4.15 -64.25 4.15 -72.85 Q4.15 -74.2 5.5 -74.2 6.8 -74.2 6.8 -72.85 L6.8 -62.9" fill="#cccccc" fill-rule="evenodd" stroke="none"/>
    <path d="M-4.05 -141.2 Q-5.35 -141.2 -5.35 -142.55 -5.35 -143.85 -4.05 -143.85 L4.15 -143.85 4.15 -152.5 Q4.15 -153.8 5.5 -153.8 6.8 -153.8 6.8 -152.5 L6.8 -142.55 Q6.8 -141.2 5.5 -141.2 L-4.05 -141.2" fill="#cccccc" fill-rule="evenodd" stroke="none"/>
    <path d="M-4.95 -96.7 L-6.95 -104.75 154.3 -104.3 Q145.0 -76.35 142.0 -15.85 140.5 14.4 140.85 39.05 L116.75 39.05 109.25 33.5 44.0 33.5 36.55 39.05 8.75 39.05 Q6.7 -25.0 -0.3 -71.3 -2.5 -85.75 -4.95 -96.7" fill="#ffc652" fill-rule="evenodd" stroke="none"/>
    <path d="M120.75 -69.5 L120.75 -42.15 26.9 -42.15 26.9 -69.5 120.75 -69.5" fill="#ffb352" fill-rule="evenodd" stroke="none"/>
    <path d="M-2.95 -89.75 L149.95 -89.75 148.1 -76.7 -1.05 -76.7 -2.95 -89.75" fill="#ffb352" fill-rule="evenodd" stroke="none"/>
    <path d="M35.95 -41.85 L44.65 -49.25 44.65 31.55 35.95 38.95 35.95 -41.85" fill="#ffe19f" fill-rule="evenodd" stroke="none"/>
    <path d="M114.2 -41.85 L114.2 38.95 105.5 31.55 105.5 -49.25 114.2 -41.85" fill="#ffe19f" fill-rule="evenodd" stroke="none"/>
    <path d="M122.6 -119.9 Q127.75 -113.7 139.85 -102.3 L157.8 -85.2 137.65 -84.4 117.55 -84.9 Q110.35 -85.05 97.45 -84.5 85.6 -84.0 77.2 -84.3 62.0 -84.85 22.45 -84.95 18.0 -84.95 3.55 -85.3 -8.35 -85.6 -18.2 -85.4 -13.55 -91.2 -0.55 -102.35 L18.55 -118.7 Q19.9 -119.95 30.3 -120.4 L49.0 -120.95 Q64.85 -121.55 85.8 -120.85 112.55 -119.9 122.6 -119.9" fill="#fb785e" fill-rule="evenodd" stroke="none"/>
    <path d="M38.4 -120.6 Q37.55 -118.5 34.1 -111.55 31.05 -105.5 30.0 -102.3 L26.4 -94.5 Q24.0 -89.45 24.1 -86.3 22.35 -85.65 16.8 -85.45 17.8 -88.3 21.65 -94.15 25.55 -100.1 26.6 -102.9 28.0 -106.6 31.9 -112.35 35.55 -117.75 38.4 -120.6" fill="#fb674e" fill-rule="evenodd" stroke="none"/>
    <path d="M62.45 -120.6 Q61.3 -117.75 60.55 -111.55 59.8 -104.95 58.9 -102.3 57.5 -98.15 57.85 -86.3 56.1 -85.65 50.5 -85.45 51.5 -88.2 52.95 -94.15 54.4 -99.95 55.5 -102.9 L58.4 -112.35 Q60.3 -118.45 62.45 -120.6" fill="#fb674e" fill-rule="evenodd" stroke="none"/>
    <path d="M102.55 -120.6 Q105.4 -117.75 109.05 -112.35 112.95 -106.6 114.35 -102.9 115.4 -100.1 119.3 -94.15 123.15 -88.3 124.15 -85.45 L116.85 -86.3 Q116.95 -89.45 114.55 -94.5 L110.95 -102.3 Q109.9 -105.5 106.85 -111.55 103.4 -118.5 102.55 -120.6" fill="#fb674e" fill-rule="evenodd" stroke="none"/>
    <path d="M79.45 -120.6 Q81.65 -118.45 83.55 -112.35 L86.45 -102.9 Q88.6 -97.2 91.4 -85.45 L84.05 -86.3 Q84.5 -97.95 83.0 -102.3 82.1 -104.95 81.35 -111.55 80.6 -117.75 79.45 -120.6" fill="#fb674e" fill-rule="evenodd" stroke="none"/>
    <path d="M12.75 -114.0 Q16.75 -110.1 20.75 -109.65 23.95 -109.25 32.15 -111.15 30.55 -105.85 22.45 -106.8 19.1 -107.2 16.4 -109.15 13.6 -111.2 12.75 -114.0" fill="#fb674e" fill-rule="evenodd" stroke="none"/>
    <path d="M0.65 -102.85 Q5.65 -98.0 10.7 -97.35 14.75 -96.85 24.9 -99.25 24.05 -96.3 20.75 -94.8 17.45 -93.25 12.85 -93.85 8.7 -94.4 5.3 -96.8 1.75 -99.35 0.65 -102.85" fill="#fb674e" fill-rule="evenodd" stroke="none"/>
    <path d="M53.35 -106.75 Q50.5 -105.5 46.6 -106.0 43.05 -106.4 40.15 -108.35 37.1 -110.4 36.2 -113.2 40.45 -109.3 44.75 -108.8 48.2 -108.4 56.9 -110.3 56.15 -107.95 53.35 -106.75" fill="#fb674e" fill-rule="evenodd" stroke="none"/>
    <path d="M29.95 -101.2 Q34.95 -96.35 40.0 -95.7 44.05 -95.2 54.2 -97.6 53.3 -94.65 50.05 -93.15 46.75 -91.6 42.15 -92.2 37.95 -92.75 34.55 -95.15 31.0 -97.7 29.95 -101.2" fill="#fb674e" fill-rule="evenodd" stroke="none"/>
    <path d="M129.55 -114.0 Q128.7 -111.2 125.85 -109.15 123.15 -107.25 119.8 -106.8 116.1 -106.35 113.5 -107.55 110.85 -108.75 110.15 -111.15 118.3 -109.25 121.55 -109.65 125.5 -110.05 129.55 -114.0" fill="#fb674e" fill-rule="evenodd" stroke="none"/>
    <path d="M141.6 -102.85 Q140.55 -99.35 137.0 -96.8 133.6 -94.4 129.45 -93.85 124.85 -93.25 121.55 -94.8 118.25 -96.3 117.35 -99.25 127.5 -96.85 131.6 -97.35 136.7 -98.0 141.6 -102.85" fill="#fb674e" fill-rule="evenodd" stroke="none"/>
    <path d="M106.1 -113.2 Q105.2 -110.4 102.15 -108.35 99.25 -106.4 95.7 -106.0 91.8 -105.5 88.95 -106.75 86.15 -107.95 85.4 -110.3 94.1 -108.4 97.5 -108.8 101.75 -109.3 106.1 -113.2" fill="#fb674e" fill-rule="evenodd" stroke="none"/>
    <path d="M112.35 -101.2 Q111.3 -97.7 107.75 -95.15 104.35 -92.75 100.15 -92.2 95.55 -91.6 92.25 -93.15 89.0 -94.65 88.1 -97.6 98.25 -95.2 102.3 -95.7 107.35 -96.35 112.35 -101.2" fill="#fb674e" fill-rule="evenodd" stroke="none"/>
    <path d="M59.65 -114.0 Q64.0 -110.1 68.25 -109.6 71.65 -109.2 80.35 -111.1 79.6 -108.75 76.8 -107.55 73.95 -106.3 70.05 -106.8 66.5 -107.25 63.6 -109.15 60.55 -111.2 59.65 -114.0" fill="#fb674e" fill-rule="evenodd" stroke="none"/>
    <path d="M59.25 -101.15 Q64.3 -96.25 69.25 -95.7 73.35 -95.2 83.5 -97.6 82.6 -94.6 79.35 -93.1 76.0 -91.6 71.4 -92.2 67.25 -92.7 63.85 -95.15 60.3 -97.65 59.25 -101.15" fill="#fb674e" fill-rule="evenodd" stroke="none"/>
    <path d="M-1.45 -96.55 Q-5.95 -91.75 -12.25 -88.0 -20.55 -83.1 -19.55 -89.85 -18.9 -94.05 -12.0 -100.95 -4.0 -108.2 -1.55 -110.6 6.95 -118.85 9.65 -120.75 18.8 -127.3 21.2 -120.6 15.6 -113.7 -1.45 -96.55" fill="#fb674e" fill-rule="evenodd" stroke="none"/>
    <path d="M-1.5 -99.8 Q-17.6 -81.15 -16.95 -93.25 -16.75 -97.35 -10.8 -104.05 L-1.6 -113.45 Q6.3 -121.65 8.5 -123.3 16.75 -129.65 18.9 -123.15 13.9 -116.45 -1.5 -99.8" fill="#fb785e" fill-rule="evenodd" stroke="none"/>
    <path d="M144.9 -96.55 Q127.8 -113.7 122.25 -120.6 124.65 -127.25 133.8 -120.75 136.05 -119.15 145.0 -110.6 147.45 -108.2 156.5 -100.95 164.25 -94.0 163.95 -89.85 163.4 -82.15 155.25 -87.4 150.7 -90.35 144.9 -96.55" fill="#fb674e" fill-rule="evenodd" stroke="none"/>
    <path d="M144.95 -99.8 Q129.55 -116.45 124.5 -123.15 126.7 -129.65 134.95 -123.3 137.45 -121.35 145.0 -113.45 L154.2 -104.05 Q160.15 -97.35 160.4 -93.25 161.1 -80.8 144.95 -99.8" fill="#fb785e" fill-rule="evenodd" stroke="none"/>
    <path d="M113.7 -71.95 Q119.15 -46.15 118.45 -40.35 L64.7 -40.2 37.6 -40.7 28.45 -40.75 Q28.85 -47.6 30.1 -57.3 L32.0 -72.6 88.55 -72.0 Q110.15 -72.45 113.7 -71.95" fill="#ffffff" fill-rule="evenodd" stroke="none"/>
    <path d="M79.55 28.1 L101.65 28.1 101.65 -6.85 101.65 -11.2 75.95 -11.2 75.95 28.1 79.55 28.1 M79.55 1.5 L81.5 1.5 81.5 8.45 81.5 13.1 79.55 13.1 78.6 13.1 78.6 1.5 79.55 1.5 M78.85 -16.4 L101.65 -16.4 101.65 -23.35 101.65 -26.8 75.95 -26.8 75.95 -16.4 78.85 -16.4 M106.5 33.25 L42.45 33.25 42.45 -32.85 106.5 -32.85 106.5 33.25 M72.5 -23.35 L72.5 -26.8 46.8 -26.8 46.8 -16.4 49.75 -16.4 72.5 -16.4 72.5 -23.35 M72.5 -6.85 L72.5 -11.2 46.8 -11.2 46.8 28.1 50.45 28.1 72.5 28.1 72.5 -6.85 M66.7 3.7 L66.7 1.5 69.3 1.5 69.6 1.5 69.6 5.1 69.6 9.7 69.6 13.1 66.7 13.1 66.7 12.15 66.7 7.5 66.7 3.7" fill="#b475d0" fill-rule="evenodd" stroke="none"/>
    <path d="M79.55 22.95 L79.55 27.9 79.55 28.1 75.95 28.1 75.95 -11.2 101.65 -11.2 101.65 -6.85 79.55 -6.85 79.55 1.5 78.6 1.5 78.6 13.1 79.55 13.1 79.55 19.45 79.55 22.95 M101.65 -23.35 L78.85 -23.35 78.85 -16.4 75.95 -16.4 75.95 -26.8 101.65 -26.8 101.65 -23.35 M49.75 -16.4 L46.8 -16.4 46.8 -26.8 72.5 -26.8 72.5 -23.35 49.75 -23.35 49.75 -16.4 M50.45 8.05 L50.0 8.45 50.0 17.7 50.45 17.35 50.45 20.85 50.0 21.2 50.0 26.15 50.45 25.8 50.45 28.1 46.8 28.1 46.8 -11.2 72.5 -11.2 72.5 -6.85 71.8 -6.85 67.45 -7.15 67.15 -6.85 50.45 -6.85 50.45 8.05" fill="#accfff" fill-rule="evenodd" stroke="none"/>
    <path d="M79.55 27.9 L101.6 9.4 101.4 5.05 79.55 22.95 79.55 19.45 101.6 0.95 101.4 -5.1 97.0 -5.4 81.5 8.45 81.5 1.5 79.55 1.5 79.55 -6.85 101.65 -6.85 101.65 28.1 79.55 28.1 79.55 27.9 M101.65 -23.35 L101.65 -16.4 78.85 -16.4 78.85 -23.35 101.65 -23.35 M49.75 -16.4 L49.75 -23.35 72.5 -23.35 72.5 -16.4 49.75 -16.4 M50.45 8.05 L50.45 -6.85 67.15 -6.85 50.45 8.05 M71.8 -6.85 L72.5 -6.85 72.5 28.1 50.45 28.1 50.45 25.8 66.7 12.15 66.7 13.1 69.6 13.1 69.6 9.7 72.05 7.65 71.8 3.3 69.6 5.1 69.6 1.5 69.3 1.5 72.05 -0.8 71.8 -6.85 M50.45 20.85 L50.45 17.35 66.7 3.7 66.7 7.5 50.45 20.85" fill="#d5efff" fill-rule="evenodd" stroke="none"/>
    <path d="M79.55 22.95 L101.4 5.05 101.6 9.4 79.55 27.9 79.55 22.95 M81.5 8.45 L97.0 -5.4 101.4 -5.1 101.6 0.95 79.55 19.45 79.55 13.1 81.5 13.1 81.5 8.45 M50.45 17.35 L50.0 17.7 50.0 8.45 50.45 8.05 67.15 -6.85 67.45 -7.15 71.8 -6.85 72.05 -0.8 69.3 1.5 66.7 1.5 66.7 3.7 50.45 17.35 M50.45 25.8 L50.0 26.15 50.0 21.2 50.45 20.85 66.7 7.5 66.7 12.15 50.45 25.8 M69.6 5.1 L71.8 3.3 72.05 7.65 69.6 9.7 69.6 5.1" fill="#e3f0ff" fill-rule="evenodd" stroke="none"/>
    <path d="M27.55 -23.95 L14.95 -23.95 14.95 -0.35 12.0 -0.35 12.0 -27.4 27.55 -27.4 27.55 -23.95" fill="#accfff" fill-rule="evenodd" stroke="none"/>
    <path d="M27.55 -23.95 L27.55 -0.35 14.95 -0.35 14.95 -23.95 27.55 -23.95" fill="#d5efff" fill-rule="evenodd" stroke="none"/>
    <path d="M27.55 -23.95 L27.55 -0.35 14.95 -0.35 14.95 -23.95 27.55 -23.95" fill="#d5efff" fill-rule="evenodd" stroke="none"/>
    <path d="M135.7 -27.4 L135.7 -23.95 123.05 -23.95 123.05 -0.35 120.15 -0.35 120.15 -27.4 135.7 -27.4" fill="#accfff" fill-rule="evenodd" stroke="none"/>
    <path d="M135.7 -23.95 L135.7 -0.35 123.05 -0.35 123.05 -23.95 135.7 -23.95" fill="#d5efff" fill-rule="evenodd" stroke="none"/>
    <path d="M135.7 -23.95 L135.7 -0.35 123.05 -0.35 123.05 -23.95 135.7 -23.95" fill="#d5efff" fill-rule="evenodd" stroke="none"/>
    <path d="M37.65 -65.45 L40.7 -65.5 43.7 -65.4 Q44.5 -65.3 44.8 -64.5 L45.1 -63.4 45.15 -60.8 45.05 -58.4 Q44.85 -58.1 44.2 -58.1 43.6 -58.1 43.35 -58.45 L43.35 -60.95 43.25 -63.2 43.15 -63.5 42.7 -63.65 37.65 -63.55 Q37.3 -63.85 37.3 -64.5 37.3 -65.15 37.65 -65.45 M39.9 -60.35 L40.05 -58.05 40.2 -55.7 40.3 -55.45 40.55 -55.35 42.35 -55.05 44.15 -54.65 44.2 -53.65 43.8 -53.0 42.1 -53.2 40.4 -53.35 37.6 -53.6 34.6 -53.5 Q34.35 -53.75 34.35 -54.25 L34.5 -55.1 36.3 -55.4 38.2 -55.4 38.35 -55.5 38.4 -55.8 38.25 -58.2 Q38.05 -59.2 38.15 -60.35 38.25 -60.7 39.05 -60.65 39.85 -60.65 39.9 -60.35" fill="#b475d0" fill-rule="evenodd" stroke="none"/>
    <path d="M71.0 -62.75 L70.0 -62.85 68.3 -62.9 Q68.1 -62.8 68.15 -60.65 L71.1 -60.4 71.6 -59.4 Q71.5 -58.8 71.1 -58.5 L69.45 -58.65 Q68.25 -58.9 68.15 -58.65 67.95 -58.2 68.0 -57.35 L68.0 -56.2 Q67.75 -55.65 66.9 -55.8 66.1 -55.95 66.1 -56.35 L66.25 -60.95 66.55 -67.6 67.55 -67.9 Q68.35 -67.9 68.5 -67.45 68.25 -64.95 68.5 -64.8 L70.95 -64.4 Q71.55 -64.1 71.35 -63.5 L71.0 -62.75 M60.2 -66.95 L60.2 -66.15 Q60.05 -65.65 59.4 -65.6 59.0 -65.7 58.7 -65.95 L58.1 -66.55 57.4 -68.1 Q57.05 -68.95 57.05 -69.25 L57.35 -69.95 58.0 -70.2 Q58.5 -70.2 58.95 -69.1 L59.6 -67.75 60.2 -66.95 M52.3 -63.65 L61.9 -63.45 Q62.35 -63.4 62.4 -62.5 62.55 -61.65 61.9 -61.55 L59.1 -61.5 57.3 -61.75 53.7 -61.85 52.0 -61.85 Q51.35 -62.15 51.35 -62.95 51.45 -63.7 52.3 -63.65 M65.05 -51.1 Q64.25 -51.1 63.65 -50.25 63.0 -49.4 63.0 -48.7 L63.1 -48.4 63.4 -48.15 Q63.95 -48.15 64.65 -49.1 65.25 -50.05 65.25 -50.55 L65.25 -50.85 65.05 -51.1 M62.5 -51.8 Q63.75 -53.1 65.1 -53.1 66.05 -53.1 66.7 -52.2 67.35 -51.4 67.2 -50.6 67.15 -49.7 65.9 -48.0 64.65 -46.35 63.35 -46.35 61.95 -46.35 61.6 -47.3 L61.3 -48.85 Q61.3 -50.45 62.5 -51.8 M57.45 -54.95 Q56.2 -53.6 54.75 -53.55 53.55 -53.45 53.25 -54.4 L52.85 -55.75 Q52.85 -57.2 54.1 -58.55 55.3 -59.95 56.8 -59.95 57.85 -59.95 58.3 -59.35 L58.75 -57.9 Q58.75 -56.3 57.45 -54.95 M56.45 -58.05 L55.25 -57.15 Q54.7 -56.45 54.7 -55.9 L54.7 -55.55 54.95 -55.5 Q55.85 -55.65 56.3 -56.4 L56.85 -57.75 56.75 -58.0 56.45 -58.05" fill="#b475d0" fill-rule="evenodd" stroke="none"/>
    <path d="M92.4 -60.8 L90.85 -61.0 89.5 -61.05 89.2 -61.0 89.15 -60.75 89.05 -59.05 88.75 -56.95 87.85 -56.95 Q87.45 -57.05 87.1 -57.3 L87.05 -58.2 87.25 -59.8 87.25 -60.95 87.3 -63.25 Q87.3 -64.6 87.45 -65.35 L87.5 -66.05 87.45 -66.9 88.4 -67.1 89.2 -66.9 89.4 -65.8 89.35 -64.75 89.15 -63.75 Q89.0 -63.15 89.15 -63.1 L90.85 -62.95 Q92.3 -62.85 92.7 -62.4 L92.75 -61.6 92.4 -60.8 M75.2 -64.15 L75.1 -63.85 74.8 -60.8 74.85 -60.4 Q74.95 -60.25 75.1 -60.25 L78.6 -60.45 Q78.85 -60.45 78.9 -60.6 L79.15 -63.7 79.05 -64.3 78.75 -64.4 75.45 -64.25 75.2 -64.15 M74.7 -66.15 L79.95 -66.3 Q80.65 -66.3 80.95 -65.8 L81.25 -64.7 80.85 -60.05 80.45 -59.0 Q80.05 -58.7 79.3 -58.55 L74.75 -58.35 73.35 -58.65 Q72.9 -58.95 72.95 -59.8 L73.1 -62.4 Q73.25 -63.75 72.95 -65.0 L73.65 -65.85 74.7 -66.15 M85.6 -48.35 L81.4 -48.35 79.65 -48.4 Q79.0 -48.5 78.75 -48.75 78.45 -49.05 78.35 -49.65 L78.25 -53.2 Q78.3 -54.55 78.65 -55.8 L79.65 -55.9 Q80.3 -55.8 80.45 -55.4 L80.2 -51.1 80.3 -50.45 80.85 -50.35 84.75 -50.3 86.0 -50.1 Q86.2 -49.75 86.05 -49.15 86.0 -48.65 85.6 -48.35" fill="#b475d0" fill-rule="evenodd" stroke="none"/>
    <path d="M100.6 -62.15 L100.55 -60.1 100.65 -59.65 Q100.65 -59.5 101.0 -59.5 L104.55 -59.35 108.3 -59.15 Q108.7 -58.5 108.45 -57.8 108.15 -57.15 107.7 -57.1 L104.45 -57.35 101.15 -57.5 99.2 -57.8 Q98.7 -58.1 98.6 -59.3 L98.75 -64.75 Q98.6 -65.45 98.85 -65.95 99.2 -66.45 100.0 -66.45 L103.75 -66.4 108.1 -66.2 Q108.4 -66.05 108.4 -65.25 108.35 -64.4 107.7 -64.4 L101.25 -64.55 100.9 -64.5 100.7 -64.25 100.6 -62.15 M102.7 -51.55 L98.2 -51.55 Q97.65 -51.65 97.7 -52.6 97.7 -53.5 98.3 -53.5 L108.65 -53.2 Q108.95 -52.95 108.9 -52.15 108.8 -51.3 108.45 -51.3 L105.55 -51.45 105.2 -51.3 105.05 -51.0 105.05 -46.8 Q105.05 -46.45 104.15 -46.4 103.25 -46.25 103.15 -46.85 L103.15 -51.05 103.0 -51.35 102.7 -51.55" fill="#b475d0" fill-rule="evenodd" stroke="none"/>
    <path d="M25.25 -36.55 Q24.7 -39.1 25.2 -39.2 L31.6 -39.4 Q42.55 -39.95 44.65 -39.6 45.25 -35.85 43.3 -33.1 41.55 -30.55 38.35 -29.55 L32.0 -29.4 Q28.6 -30.3 26.6 -33.0 25.8 -34.05 25.25 -36.55" fill="#a9c85d" fill-rule="evenodd" stroke="none"/>
    <path d="M44.25 -36.55 Q43.7 -39.1 44.15 -39.2 L50.55 -39.4 Q61.5 -39.95 63.6 -39.6 64.2 -35.85 62.3 -33.1 60.55 -30.55 57.3 -29.55 L50.95 -29.4 Q47.55 -30.3 45.55 -33.0 44.8 -34.0 44.25 -36.55" fill="#819c3c" fill-rule="evenodd" stroke="none"/>
    <path d="M63.2 -36.55 Q62.65 -39.1 63.15 -39.2 L69.5 -39.4 Q80.5 -39.95 82.55 -39.6 83.2 -35.85 81.25 -33.1 79.5 -30.55 76.25 -29.55 L69.9 -29.4 Q66.5 -30.3 64.5 -33.0 63.75 -34.05 63.2 -36.55" fill="#a9c85d" fill-rule="evenodd" stroke="none"/>
    <path d="M82.15 -36.55 Q81.6 -39.1 82.1 -39.2 L88.5 -39.4 Q99.4 -39.95 101.5 -39.6 102.15 -35.85 100.2 -33.1 98.45 -30.55 95.2 -29.55 L88.85 -29.4 Q85.45 -30.3 83.45 -33.0 82.7 -34.05 82.15 -36.55" fill="#819c3c" fill-rule="evenodd" stroke="none"/>
    <path d="M101.1 -36.55 Q100.55 -39.1 101.05 -39.2 L107.45 -39.4 Q118.4 -39.95 120.5 -39.6 121.1 -35.85 119.15 -33.1 117.4 -30.55 114.2 -29.55 L107.85 -29.4 Q104.45 -30.3 102.45 -33.0 101.65 -34.05 101.1 -36.55" fill="#a9c85d" fill-rule="evenodd" stroke="none"/>
    <path d="M44.6 -39.45 L24.4 -39.45 28.1 -43.8 44.6 -43.8 44.6 -39.45" fill="#819c3c" fill-rule="evenodd" stroke="none"/>
    <path d="M43.65 -43.8 L63.85 -43.8 63.85 -39.45 43.65 -39.45 43.65 -43.8" fill="#a9c85d" fill-rule="evenodd" stroke="none"/>
    <path d="M83.15 -39.45 L62.95 -39.45 62.95 -43.8 83.15 -43.8 83.15 -39.45" fill="#819c3c" fill-rule="evenodd" stroke="none"/>
    <path d="M102.4 -39.45 L82.2 -39.45 82.2 -43.8 102.4 -43.8 102.4 -39.45" fill="#a9c85d" fill-rule="evenodd" stroke="none"/>
    <path d="M121.65 -39.45 L101.45 -39.45 101.45 -43.8 118.9 -43.8 121.65 -39.45" fill="#819c3c" fill-rule="evenodd" stroke="none"/>
    <path d="M3.3 13.75 L33.45 13.75 33.45 39.85 3.3 39.85 3.3 13.75" fill="#eea34d" fill-rule="evenodd" stroke="none"/>
    <path d="M7.0 10.95 L36.25 10.95 33.45 13.75 3.3 13.75 7.0 10.95" fill="#eeac30" fill-rule="evenodd" stroke="none"/>
    <path d="M117.3 39.85 L117.3 13.75 146.55 13.75 146.55 39.85 117.3 39.85" fill="#eea34d" fill-rule="evenodd" stroke="none"/>
    <path d="M142.85 10.95 L146.55 13.75 117.3 13.75 113.6 10.95 142.85 10.95" fill="#eeac30" fill-rule="evenodd" stroke="none"/>
    <path d="M-59.8 -99.55 L-62.95 -97.95 Q-66.25 -96.2 -66.35 -95.55 -74.0 -52.3 -73.1 14.45 -72.65 47.85 -70.7 72.55 L-163.3 129.05 Q-181.2 45.8 -181.2 -65.85 -181.2 -100.75 -179.4 -134.3 L-177.65 -160.9 -53.9 -136.15 Q-56.8 -128.3 -59.8 -99.55" fill="#cccc99" fill-rule="evenodd" stroke="none"/>
    <path d="M-275.75 -172.95 L-270.0 -217.4 -190.65 -201.25 Q-198.6 -180.95 -199.65 -166.35 L-205.15 -165.65 -208.1 -110.25 -201.9 -109.55 -202.55 -79.9 -209.75 -79.25 -211.1 -31.15 -203.8 -30.45 -203.8 -12.65 Q-203.2 50.9 -198.15 112.1 -195.55 142.7 -193.1 160.55 L-277.35 212.45 Q-297.8 111.3 -285.95 -63.15 -282.25 -117.65 -275.75 -172.95" fill="#ffc781" fill-rule="evenodd" stroke="none"/>
    <path d="M-127.35 5.8 L-112.2 7.8 Q-116.35 29.6 -112.7 65.0 -110.9 82.75 -108.25 96.1 L-117.8 93.25 -127.35 5.8" fill="#a56428" fill-rule="evenodd" stroke="none"/>
    <path d="M-164.8 43.0 L-166.6 12.1 -121.05 7.15 Q-125.55 21.8 -122.1 59.0 -120.4 77.6 -117.8 93.25 L-155.85 114.3 Q-161.75 80.6 -164.8 43.0" fill="#eea34d" fill-rule="evenodd" stroke="none"/>
    <path d="M-161.7 32.0 L-162.0 26.2 -126.3 13.45 Q-129.85 25.0 -127.15 58.5 -125.75 75.3 -123.7 89.75 L-128.3 92.3 Q-135.35 37.35 -130.3 20.75 L-161.7 32.0" fill="#accfff" fill-rule="evenodd" stroke="none"/>
    <path d="M-128.3 92.3 L-153.55 106.3 Q-160.0 69.55 -161.7 32.0 L-130.3 20.75 Q-135.35 37.35 -128.3 92.3" fill="#e3f0ff" fill-rule="evenodd" stroke="none"/>
    <path d="M-128.3 92.3 L-153.55 106.3 Q-160.0 69.55 -161.7 32.0 L-130.3 20.75 Q-135.35 37.35 -128.3 92.3" fill="#d5efff" fill-rule="evenodd" stroke="none"/>
    <path d="M-110.0 23.5 L-110.2 19.15 -76.25 7.45 Q-78.9 20.95 -75.6 59.5 L-80.15 61.4 Q-85.8 28.15 -80.9 15.9 L-110.0 23.5" fill="#accfff" fill-rule="evenodd" stroke="none"/>
    <path d="M-109.6 42.0 Q-109.65 28.15 -110.0 23.5 L-80.25 15.4 Q-85.7 28.95 -80.15 61.4 L-105.4 72.0 Q-108.95 56.85 -109.6 42.0" fill="#e3f0ff" fill-rule="evenodd" stroke="none"/>
    <path d="M-109.7 42.4 Q-109.65 28.15 -110.0 23.5 L-79.9 13.05 Q-82.7 26.05 -80.55 61.8 L-106.4 75.0 Q-109.3 58.1 -109.7 42.4" fill="#d5efff" fill-rule="evenodd" stroke="none"/>
    <path d="M-203.8 146.85 L-212.4 152.15 Q-217.15 128.4 -218.95 113.7 -222.35 86.75 -217.25 74.15 L-267.35 87.15 -267.75 79.65 -209.35 59.5 Q-212.2 74.05 -208.3 111.9 -206.35 130.9 -203.8 146.85" fill="#3686bc" fill-rule="evenodd" stroke="none"/>
    <path d="M-220.25 113.4 Q-219.45 132.15 -216.05 152.5 L-259.55 170.75 Q-265.6 144.55 -266.75 119.1 -266.9 95.1 -267.35 87.15 L-216.15 73.3 Q-221.4 86.3 -220.25 113.4" fill="#7fb1d3" fill-rule="evenodd" stroke="none"/>
    <path d="M-215.55 69.15 Q-218.35 82.0 -215.9 109.65 L-211.75 152.15 -261.2 181.15 Q-266.15 152.1 -266.95 122.35 -266.9 95.1 -267.35 87.15 L-215.55 69.15" fill="#7fb1d3" fill-rule="evenodd" stroke="none"/>
    <path d="M-180.3 -20.9 Q-161.6 -18.6 -153.85 2.55 -150.0 13.15 -149.9 23.2 L-180.3 -20.9" fill="#feaebc" fill-rule="evenodd" stroke="none"/>
    <path d="M-133.9 17.2 L-134.3 22.05 Q-135.65 27.15 -140.65 28.25 -145.65 29.4 -148.25 26.6 L-149.9 23.55 -133.9 17.2" fill="#feaebc" fill-rule="evenodd" stroke="none"/>
    <path d="M-115.9 11.2 L-116.3 16.05 Q-117.6 21.15 -122.6 22.25 -127.65 23.4 -130.3 20.6 L-131.95 17.55 -115.9 11.2" fill="#f77aa5" fill-rule="evenodd" stroke="none"/>
    <path d="M-113.25 11.85 L-97.2 5.5 -97.6 10.4 Q-98.95 15.45 -104.0 16.55 -109.0 17.65 -111.6 14.85 L-113.25 11.85" fill="#feaebc" fill-rule="evenodd" stroke="none"/>
    <path d="M-94.6 6.0 L-78.55 -0.35 -78.95 4.55 Q-80.3 9.6 -85.3 10.7 -90.3 11.8 -92.95 9.0 L-94.6 6.0" fill="#f77aa5" fill-rule="evenodd" stroke="none"/>
    <path d="M-76.25 3.5 L-77.9 0.45 -61.85 -5.9 -62.25 -1.0 Q-63.65 4.1 -68.65 5.2 -73.65 6.3 -76.25 3.5" fill="#feaebc" fill-rule="evenodd" stroke="none"/>
    <path d="M-62.55 -2.85 L-63.75 -5.85 -52.05 -12.5 -52.35 -7.65 Q-53.35 -2.5 -56.95 -1.3 -60.6 -0.1 -62.55 -2.85" fill="#f77aa5" fill-rule="evenodd" stroke="none"/>
    <path d="M-136.5 -27.4 L-118.55 -30.1 Q-99.9 -20.0 -95.45 5.75 L-115.3 12.15 Q-118.15 -15.6 -136.5 -27.4" fill="#f77aa5" fill-rule="evenodd" stroke="none"/>
    <path d="M-115.3 12.15 L-133.9 18.1 Q-135.0 6.2 -139.5 -3.5 -146.05 -17.6 -158.65 -24.05 L-136.5 -27.4 Q-118.15 -15.6 -115.3 12.15" fill="#feaebc" fill-rule="evenodd" stroke="none"/>
    <path d="M-133.9 18.1 L-149.9 23.2 Q-149.5 13.85 -153.1 3.6 -160.3 -16.8 -180.3 -20.9 L-158.65 -24.05 Q-146.05 -17.6 -139.5 -3.5 -135.0 6.2 -133.9 18.1" fill="#f77aa5" fill-rule="evenodd" stroke="none"/>
    <path d="M-99.8 -32.85 L-84.95 -35.05 Q-67.2 -27.05 -60.9 -5.35 L-78.2 0.25 Q-83.05 -23.1 -99.8 -32.85" fill="#f77aa5" fill-rule="evenodd" stroke="none"/>
    <path d="M-84.95 -35.05 L-73.05 -36.8 -69.65 -35.15 Q-65.55 -32.95 -62.2 -30.1 -51.45 -20.8 -51.95 -8.2 L-60.9 -5.35 Q-67.2 -27.05 -84.95 -35.05" fill="#feaebc" fill-rule="evenodd" stroke="none"/>
    <path d="M-99.8 -32.85 Q-83.05 -23.1 -78.2 0.25 L-95.45 5.75 Q-99.9 -20.0 -118.55 -30.1 L-99.8 -32.85" fill="#feaebc" fill-rule="evenodd" stroke="none"/>
    <path d="M-132.3 38.1 L-158.0 74.3 -159.65 61.8 -132.0 28.85 -132.3 38.1" fill="#e3f0ff" fill-rule="evenodd" stroke="none"/>
    <path d="M-131.65 48.7 L-156.35 84.95 -157.0 79.3 -131.65 46.65 -131.65 48.7" fill="#e3f0ff" fill-rule="evenodd" stroke="none"/>
    <path d="M-156.0 89.2 L-130.65 56.55 -130.65 58.55 -155.35 94.85 -156.0 89.2" fill="#e3f0ff" fill-rule="evenodd" stroke="none"/>
    <path d="M-131.35 44.65 L-125.65 44.0 -125.05 66.75 -126.15 68.7 -134.75 66.45 -132.1 63.45 -128.55 63.15 -128.55 48.65 -135.65 47.3 -131.35 44.65" fill="#9f5dae" fill-rule="evenodd" stroke="none"/>
    <path d="M-135.95 47.0 L-127.35 46.3 -126.7 69.1 -134.65 69.1 -134.65 65.8 -130.65 65.45 -130.65 50.95 -135.3 50.95 -135.95 47.0" fill="#b475d0" fill-rule="evenodd" stroke="none"/>
    <path d="M-97.2 -106.8 Q-137.1 -110.8 -174.5 -111.4 -173.0 -139.05 -170.55 -150.95 -105.3 -142.05 -60.25 -131.65 L-64.75 -103.0 -97.2 -106.8" fill="#ffffff" fill-rule="evenodd" stroke="none"/>
    <path d="M-59.8 -99.55 L-66.35 -95.55 -181.45 -98.55 -180.45 -105.0 -108.8 -102.8 -59.8 -99.55" fill="#a56428" fill-rule="evenodd" stroke="none"/>
    <path d="M-118.2 -61.05 L-119.15 -35.65 -171.4 -26.7 Q-172.45 -33.6 -172.15 -45.85 L-171.6 -56.75 Q-169.95 -57.5 -118.2 -61.05" fill="#ffc652" fill-rule="evenodd" stroke="none"/>
    <path d="M-122.5 -56.5 L-123.3 -38.4 -167.2 -31.05 Q-168.15 -36.0 -167.85 -44.8 L-167.45 -52.55 -122.5 -56.5" fill="#d5efff" fill-rule="evenodd" stroke="none"/>
    <path d="M-150.8 -33.45 L-154.05 -33.15 -154.2 -56.2 -151.0 -56.5 -150.8 -33.45" fill="#ffc652" fill-rule="evenodd" stroke="none"/>
    <path d="M-133.8 -58.4 L-133.6 -35.45 -136.85 -35.15 -137.0 -58.15 -133.8 -58.4" fill="#ffc652" fill-rule="evenodd" stroke="none"/>
    <path d="M-112.45 -58.95 L-77.2 -62.15 -77.8 -43.2 -112.3 -36.6 Q-113.05 -41.7 -112.8 -50.85 L-112.45 -58.95" fill="#ffc652" fill-rule="evenodd" stroke="none"/>
    <path d="M-109.65 -55.8 L-80.0 -58.75 -80.5 -45.3 -109.55 -39.85 Q-110.15 -43.5 -110.0 -50.05 L-109.65 -55.8" fill="#d5efff" fill-rule="evenodd" stroke="none"/>
    <path d="M-98.85 -58.7 L-98.7 -41.6 -100.85 -41.4 -100.95 -58.55 -98.85 -58.7" fill="#ffc652" fill-rule="evenodd" stroke="none"/>
    <path d="M-87.45 -60.2 L-87.35 -43.05 -89.5 -42.85 -89.6 -59.95 -87.45 -60.2" fill="#ffc652" fill-rule="evenodd" stroke="none"/>
    <path d="M-117.7 -91.15 L-118.65 -65.8 -170.9 -61.5 Q-171.95 -68.5 -171.7 -80.75 L-171.15 -91.6 Q-169.45 -92.2 -117.7 -91.15" fill="#ffc652" fill-rule="evenodd" stroke="none"/>
    <path d="M-122.0 -86.95 L-122.8 -69.0 -166.7 -65.55 Q-167.65 -70.55 -167.4 -79.3 L-166.95 -87.0 Q-165.5 -87.45 -122.0 -86.95" fill="#d5efff" fill-rule="evenodd" stroke="none"/>
    <path d="M-150.3 -66.45 L-153.55 -66.45 -153.7 -89.5 -150.5 -89.5 -150.3 -66.45" fill="#ffc652" fill-rule="evenodd" stroke="none"/>
    <path d="M-133.1 -66.85 L-136.35 -66.9 -136.5 -89.95 -133.3 -89.9 -133.1 -66.85" fill="#ffc652" fill-rule="evenodd" stroke="none"/>
    <path d="M-111.8 -66.2 Q-112.55 -71.35 -112.3 -80.5 L-112.0 -88.55 Q-110.9 -89.0 -76.7 -88.6 L-77.3 -69.75 -111.8 -66.2" fill="#ffc652" fill-rule="evenodd" stroke="none"/>
    <path d="M-109.05 -69.15 Q-109.65 -72.85 -109.5 -79.35 L-109.15 -85.15 Q-108.3 -85.5 -79.5 -85.45 L-80.0 -72.1 -109.05 -69.15" fill="#d5efff" fill-rule="evenodd" stroke="none"/>
    <path d="M-98.2 -70.0 L-100.35 -70.0 -100.45 -87.1 -98.35 -87.1 -98.2 -70.0" fill="#ffc652" fill-rule="evenodd" stroke="none"/>
    <path d="M-86.85 -70.45 L-89.0 -70.45 -89.1 -87.5 -87.0 -87.6 -86.85 -70.45" fill="#ffc652" fill-rule="evenodd" stroke="none"/>
    <path d="M274.3 -159.05 Q276.25 -125.55 276.25 -90.8 276.25 20.55 257.1 103.5 L158.1 47.15 Q160.2 22.5 160.7 -10.75 161.65 -77.3 153.45 -120.45 153.35 -121.05 149.9 -122.75 L146.45 -124.35 Q143.25 -153.05 140.1 -160.85 L272.4 -185.55 274.3 -159.05" fill="#e7b1bd" fill-rule="evenodd" stroke="none"/>
    <path d="M218.7 -8.35 L208.45 70.95 198.25 73.6 Q201.05 61.5 203.0 45.4 206.9 13.25 202.5 -6.55 L218.7 -8.35" fill="#d47a51" fill-rule="evenodd" stroke="none"/>
    <path d="M212.0 -7.1 L260.6 -2.6 258.65 25.45 Q255.45 59.55 249.15 90.1 L208.45 70.95 Q211.25 56.75 213.1 39.9 216.75 6.2 212.0 -7.1" fill="#b475d0" fill-rule="evenodd" stroke="none"/>
    <path d="M217.55 -1.35 L255.65 10.2 255.4 15.4 221.75 5.2 Q227.1 20.1 219.7 70.15 L214.8 67.85 Q217.0 54.7 218.45 39.5 221.3 9.05 217.55 -1.35" fill="#ffb390" fill-rule="evenodd" stroke="none"/>
    <path d="M255.4 15.4 Q253.3 50.7 246.7 82.85 L219.7 70.15 Q227.1 20.1 221.75 5.2 L255.4 15.4" fill="#e3f0ff" fill-rule="evenodd" stroke="none"/>
    <path d="M255.4 15.4 Q253.3 50.7 246.7 82.85 L219.7 70.15 Q227.1 20.1 221.75 5.2 L255.4 15.4" fill="#ffde90" fill-rule="evenodd" stroke="none"/>
    <path d="M200.1 7.75 L169.0 0.85 Q174.15 11.75 168.25 42.15 L163.35 40.4 Q166.9 5.4 164.1 -6.85 L200.35 3.8 200.1 7.75" fill="#ffb390" fill-rule="evenodd" stroke="none"/>
    <path d="M195.25 51.75 L168.25 42.15 Q174.05 12.5 168.3 0.4 L200.1 7.75 Q199.8 11.9 199.7 24.5 199.0 37.95 195.25 51.75" fill="#e3f0ff" fill-rule="evenodd" stroke="none"/>
    <path d="M196.3 54.45 L168.65 42.5 Q170.9 9.85 167.95 -1.75 L200.1 7.75 Q199.8 11.9 199.85 24.85 199.35 39.15 196.3 54.45" fill="#ffde90" fill-rule="evenodd" stroke="none"/>
    <path d="M222.9 26.95 L227.5 29.35 219.95 30.55 219.95 43.7 223.75 44.0 226.55 46.7 217.35 48.7 216.2 47.0 216.85 26.35 222.9 26.95" fill="#9f5dae" fill-rule="evenodd" stroke="none"/>
    <path d="M227.85 29.05 L227.15 32.65 222.2 32.65 222.2 45.8 226.45 46.1 226.45 49.1 218.0 49.1 218.7 28.45 227.85 29.05" fill="#b475d0" fill-rule="evenodd" stroke="none"/>
    <path d="M276.45 -123.4 L153.45 -120.45 146.45 -124.35 Q243.15 -131.25 275.4 -129.8 L276.45 -123.4" fill="#d47a51" fill-rule="evenodd" stroke="none"/>
    <path d="M230.15 -102.2 Q230.55 -89.2 229.2 -81.75 L163.8 -86.3 162.65 -113.25 195.3 -113.7 Q228.2 -114.1 229.5 -113.7 L230.15 -102.2" fill="#b475d0" fill-rule="evenodd" stroke="none"/>
    <path d="M223.95 -86.0 L168.95 -89.7 167.95 -108.8 224.2 -108.85 224.75 -100.65 Q225.1 -91.35 223.95 -86.0" fill="#ffde90" fill-rule="evenodd" stroke="none"/>
    <path d="M203.4 -87.0 L203.65 -111.45 207.7 -111.45 207.45 -87.0 203.4 -87.0" fill="#b475d0" fill-rule="evenodd" stroke="none"/>
    <path d="M181.9 -87.45 L182.15 -111.9 186.15 -111.9 185.9 -87.45 181.9 -87.45" fill="#b475d0" fill-rule="evenodd" stroke="none"/>
    <path d="M229.2 -39.4 L163.8 -49.7 162.65 -76.75 195.3 -74.35 229.5 -71.35 230.15 -59.8 Q230.55 -46.75 229.2 -39.4" fill="#b475d0" fill-rule="evenodd" stroke="none"/>
    <path d="M223.95 -44.15 L168.95 -52.6 167.95 -71.8 224.2 -66.95 224.75 -58.7 Q225.1 -49.35 223.95 -44.15" fill="#ffde90" fill-rule="evenodd" stroke="none"/>
    <path d="M203.4 -46.9 L203.65 -71.35 207.7 -71.0 207.45 -46.55 203.4 -46.9" fill="#b475d0" fill-rule="evenodd" stroke="none"/>
    <path d="M181.9 -49.25 L182.15 -73.7 186.15 -73.35 185.9 -48.9 181.9 -49.25" fill="#b475d0" fill-rule="evenodd" stroke="none"/>
    <path d="M-25.7 -49.6 L-30.4 -49.6 -30.4 -55.05 -25.7 -55.05 -25.7 -49.6" fill="#feefc7" fill-rule="evenodd" stroke="none"/>
    <path d="M-26.3 -59.2 L-31.0 -59.2 -31.0 -64.6 -26.3 -64.6 -26.3 -59.2" fill="#feefc7" fill-rule="evenodd" stroke="none"/>
    <path d="M-59.0 -55.55 L-59.0 -50.15 -63.7 -50.15 -63.7 -55.55 -59.0 -55.55" fill="#feefc7" fill-rule="evenodd" stroke="none"/>
    <path d="M-36.3 -37.8 L-41.0 -37.8 -41.0 -43.25 -36.3 -43.25 -36.3 -37.8" fill="#feefc7" fill-rule="evenodd" stroke="none"/>
    <path d="M-57.9 -40.2 L-62.6 -40.2 -62.6 -45.6 -57.9 -45.6 -57.9 -40.2" fill="#feefc7" fill-rule="evenodd" stroke="none"/>
    <path d="M-205.15 -12.0 L-168.9 24.2 -259.2 57.85 -255.6 1.85 -205.15 -12.0" fill="#e5ac57" fill-rule="evenodd" stroke="none"/>
    <path d="M-169.6 30.85 L-255.6 66.45 -259.2 57.85 -168.9 24.2 -169.6 30.85" fill="#d88f2c" fill-rule="evenodd" stroke="none"/>
    <path d="M-194.6 34.8 L-219.7 -6.75 -190.65 32.8 -194.6 34.8" fill="#d88f2c" fill-rule="evenodd" stroke="none"/>
    <path d="M-222.3 45.35 L-243.7 0.5 -219.05 43.35 -222.3 45.35" fill="#d88f2c" fill-rule="evenodd" stroke="none"/>
    <path d="M-205.15 -165.65 L-208.1 -110.25 -255.6 -110.25 -257.9 -172.15 -205.15 -165.65" fill="#7fb1d3" fill-rule="evenodd" stroke="none"/>
    <path d="M-209.1 -79.25 L-210.15 -31.15 -259.55 -23.9 -259.2 -77.25 -209.1 -79.25" fill="#7fb1d3" fill-rule="evenodd" stroke="none"/>
    <path d="M-257.9 -164.95 L-257.9 -172.15 -199.65 -166.35 -207.1 -161.65 -257.9 -164.95" fill="#bf7708" fill-rule="evenodd" stroke="none"/>
    <path d="M-201.6 -79.95 L-209.1 -75.3 -259.2 -71.35 -259.2 -78.55 -201.6 -79.95" fill="#bf7708" fill-rule="evenodd" stroke="none"/>
    <path d="M262.1 -23.3 L269.3 18.0 Q222.65 2.75 154.45 -12.5 156.15 -13.6 155.0 -15.4 L153.55 -17.0 262.1 -23.3" fill="#d47a51" fill-rule="evenodd" stroke="none"/>
    <path d="M259.4 -29.55 L266.6 11.7 Q219.95 -3.55 151.8 -18.8 153.45 -19.9 153.65 -34.25 L153.55 -48.4 259.4 -29.55" fill="#f2edc5" fill-rule="evenodd" stroke="none"/>
    <path d="M186.6 -139.6 L186.6 -118.9 211.7 -118.9 Q213.4 -118.9 214.6 -117.95 215.8 -117.0 215.8 -115.65 215.8 -114.35 214.6 -113.4 213.4 -112.45 211.7 -112.45 L182.55 -112.45 Q180.85 -112.45 179.7 -113.4 178.5 -114.35 178.5 -115.65 L178.5 -139.6 Q178.5 -140.95 179.7 -141.85 180.85 -142.8 182.55 -142.8 186.6 -142.8 186.6 -139.6" fill="#cccccc" fill-rule="evenodd" stroke="none"/>
    <path d="M264.85 -210.2 L264.85 211.35 256.55 215.85 Q246.1 220.3 235.3 220.3 224.85 220.3 213.8 215.85 208.3 213.6 204.9 211.35 L204.9 -210.2 264.85 -210.2" fill="#ebebeb" fill-rule="evenodd" stroke="none"/>
    <path d="M268.9 138.35 L268.9 153.25 259.65 156.95 Q248.05 160.7 236.0 160.75 255.0 149.6 268.9 138.35" fill="#363a40" fill-rule="evenodd" stroke="none"/>
    <path d="M268.9 118.5 L268.9 138.35 Q255.0 149.6 236.0 160.75 L235.65 160.75 Q222.05 160.75 207.65 155.75 243.15 139.25 268.9 118.5" fill="#fbf35d" fill-rule="evenodd" stroke="none"/>
    <path d="M201.45 99.0 L201.45 82.3 Q212.15 84.85 228.9 85.4 215.75 92.65 201.45 99.0" fill="#fbf35d" fill-rule="evenodd" stroke="none"/>
    <path d="M268.9 98.65 L268.9 118.5 Q243.15 139.25 207.65 155.75 203.75 154.35 201.45 153.25 L201.45 138.7 Q240.9 121.25 268.9 98.65" fill="#363a40" fill-rule="evenodd" stroke="none"/>
    <path d="M228.9 85.4 L235.35 85.5 Q249.9 85.5 262.9 83.45 235.8 103.65 201.45 118.85 L201.45 99.0 Q215.75 92.65 228.9 85.4" fill="#363a40" fill-rule="evenodd" stroke="none"/>
    <path d="M262.9 83.45 L268.9 82.3 268.9 98.65 Q240.9 121.25 201.45 138.7 L201.45 118.85 Q235.8 103.65 262.9 83.45" fill="#fbf35d" fill-rule="evenodd" stroke="none"/>
    <path d="M262.2 -28.6 Q262.2 -24.8 259.85 -22.05 257.5 -19.35 254.2 -19.35 250.85 -19.35 248.5 -22.05 246.15 -24.75 246.15 -28.6 246.15 -32.45 248.5 -35.15 250.85 -37.85 254.2 -37.85 257.5 -37.85 259.85 -35.15 262.2 -32.4 262.2 -28.6" fill="#bfbfbf" fill-rule="evenodd" stroke="none"/>
    <path d="M282.25 -52.45 Q282.25 -53.75 283.45 -54.7 284.6 -55.65 286.3 -55.65 288.0 -55.65 289.15 -54.7 290.35 -53.75 290.35 -52.45 L290.35 -28.5 Q290.35 -25.3 286.3 -25.3 L257.1 -25.3 Q255.45 -25.3 254.25 -26.2 253.05 -27.15 253.05 -28.5 253.05 -29.8 254.25 -30.75 255.45 -31.7 257.1 -31.7 L282.25 -31.7 282.25 -52.45" fill="#cccccc" fill-rule="evenodd" stroke="none"/>
    <path d="M243.25 -77.1 L240.75 -44.05 Q238.65 -8.55 240.45 3.75 L202.35 0.3 Q200.9 -8.35 200.35 -22.8 199.25 -51.65 203.8 -80.55 204.2 -77.95 215.65 -77.25 225.65 -76.6 235.45 -76.8 L243.25 -77.1" fill="#bfdbeb" fill-rule="evenodd" stroke="none"/>
    <path d="M-79.05 -183.8 Q-76.55 -182.8 -75.7 -179.15 -74.85 -175.55 -76.3 -172.65 -77.95 -169.35 -81.75 -169.4 -81.7 -165.9 -82.65 -164.45 -83.75 -162.85 -87.05 -162.2 -96.6 -160.15 -98.4 -165.25 -98.0 -161.1 -103.1 -158.95 -107.7 -157.0 -111.55 -158.1 -115.15 -159.1 -117.5 -163.05 -119.95 -167.2 -118.45 -170.65 -120.2 -168.75 -123.65 -168.05 -126.95 -167.4 -130.2 -168.15 -138.25 -169.95 -136.35 -176.65 -135.0 -181.4 -129.55 -183.0 -123.95 -184.6 -120.2 -180.95 -119.8 -183.8 -117.25 -187.65 -114.5 -191.9 -112.0 -192.45 -108.5 -193.25 -105.05 -190.1 -102.35 -187.55 -100.8 -183.9 -97.8 -191.05 -92.85 -190.8 -89.8 -190.65 -87.25 -187.55 -84.75 -184.45 -85.4 -181.55 -81.9 -185.0 -79.05 -183.8" fill="#ffffff" fill-rule="evenodd" stroke="none"/>
  </g>
</svg>
