<?xml version="1.0" encoding="UTF-8" standalone="no"?>
<svg xmlns:ffdec="https://www.free-decompiler.com/flash" xmlns:xlink="http://www.w3.org/1999/xlink" ffdec:objectType="shape" height="162.7px" width="249.7px" xmlns="http://www.w3.org/2000/svg">
  <g transform="matrix(1.0, 0.0, 0.0, 1.0, 124.85, 63.2)">
    <path d="M100.55 -30.25 Q105.1 -26.3 108.85 -22.1 L113.8 -15.95 Q124.85 -0.4 124.85 18.15 124.85 51.85 88.25 75.65 51.7 99.5 0.0 99.5 -51.7 99.5 -88.3 75.65 -124.85 51.85 -124.85 18.15 -124.85 4.15 -118.5 -8.15 -116.65 -11.85 -114.15 -15.4 -111.0 -19.95 -106.9 -24.2 -99.25 -32.25 -88.3 -39.4 -51.7 -63.2 0.0 -63.2 51.7 -63.2 88.25 -39.4 95.0 -35.0 100.55 -30.25" fill="url(#gradient0)" fill-rule="evenodd" stroke="none"/>
  </g>
  <defs>
    <radialGradient cx="0" cy="0" gradientTransform="matrix(0.1523, 0.0, 0.0, 0.0932, 0.0, 18.15)" gradientUnits="userSpaceOnUse" id="gradient0" r="819.2" spreadMethod="pad">
      <stop offset="0.3333333333333333" stop-color="#663300" stop-opacity="0.6627451"/>
      <stop offset="1.0" stop-color="#330000" stop-opacity="0.0"/>
    </radialGradient>
  </defs>
</svg>
