<?xml version="1.0" encoding="UTF-8" standalone="no"?>
<svg xmlns:ffdec="https://www.free-decompiler.com/flash" xmlns:xlink="http://www.w3.org/1999/xlink" ffdec:objectType="shape" height="219.15px" width="250.4px" xmlns="http://www.w3.org/2000/svg">
  <g transform="matrix(1.0, 0.0, 0.0, 1.0, 124.9, 101.45)">
    <path d="M-33.75 -89.1 L-33.7 -89.2 -33.75 -89.05 -33.75 -89.1" fill="#d7efd7" fill-rule="evenodd" stroke="none"/>
    <path d="M-34.0 -89.0 L-33.75 -89.1 -33.75 -89.05 -34.0 -89.0" fill="#c8e7c7" fill-rule="evenodd" stroke="none"/>
    <path d="M-47.6 76.35 Q-62.55 70.85 -75.45 61.6 L-79.7 58.4 Q-112.8 32.45 -112.8 -4.25 -112.8 -41.0 -79.7 -67.0 -62.7 -79.45 -35.6 -88.6 L-35.3 -88.7 -35.05 -88.75 -34.55 -88.9 -34.0 -89.0 -33.75 -89.05 Q-30.35 -62.55 -28.75 -52.45 -27.2 -42.4 -22.9 -25.35 -18.65 -8.3 -7.75 12.55 -10.0 13.05 -17.2 15.25 -27.9 18.5 -36.7 25.35 -53.25 38.35 -53.25 56.75 -53.25 67.45 -47.6 76.35 M98.25 64.55 Q90.65 79.35 76.2 91.7 L75.75 92.1 72.4 94.85 Q63.65 101.65 54.0 106.45 31.2 117.7 2.95 117.7 -20.95 117.7 -40.95 109.65 -54.65 104.15 -66.5 94.9 L-70.35 91.7 Q-79.95 83.5 -86.55 74.2 -81.65 77.9 -76.5 81.05 L-43.25 95.65 -5.75 101.35 0.3 101.5 Q52.15 101.45 88.8 72.7 L98.25 64.55" fill="#bcd0e5" fill-rule="evenodd" stroke="none"/>
    <path d="M-33.7 -89.2 L-32.7 -89.35 0.35 -92.95 Q47.2 -92.95 80.3 -67.0 113.45 -41.0 113.45 -4.25 113.45 32.45 80.3 58.4 L79.8 58.8 76.15 61.55 Q66.65 68.35 56.05 73.15 59.9 65.55 59.9 56.75 59.9 38.35 43.3 25.35 26.75 12.35 3.35 12.4 L-7.75 12.55 Q-18.65 -8.3 -22.9 -25.35 -27.2 -42.4 -28.75 -52.45 -30.35 -62.55 -33.75 -89.05 L-33.7 -89.2 M123.25 -17.75 L123.2 -18.05 123.25 -17.6 123.9 -12.55 Q125.5 0.1 125.5 3.35 125.5 13.45 123.25 22.85 117.6 45.95 98.25 64.55 L88.8 72.7 Q52.15 101.45 0.3 101.5 L-5.75 101.35 -43.25 95.65 -76.5 81.05 Q-82.55 77.2 -88.25 72.7 -116.6 50.5 -123.0 21.2 -124.95 12.6 -124.9 3.35 -124.95 -0.5 -123.35 -12.2 L-123.3 -12.55 -123.7 -4.3 Q-123.7 35.95 -87.4 64.4 -51.05 92.9 0.3 92.9 51.65 92.9 87.95 64.4 124.3 35.95 124.3 -4.3 L123.25 -17.75" fill="#cce0ee" fill-rule="evenodd" stroke="none"/>
    <path d="M56.05 73.15 Q31.15 84.4 0.35 84.4 -25.75 84.4 -47.6 76.35 -53.25 67.45 -53.25 56.75 -53.25 38.35 -36.7 25.35 -27.9 18.5 -17.2 15.25 -10.0 13.05 -7.75 12.55 L3.35 12.4 Q26.75 12.35 43.3 25.35 59.9 38.35 59.9 56.75 59.9 65.55 56.05 73.15" fill="#e0ecf4" fill-rule="evenodd" stroke="none"/>
    <path d="M56.05 73.15 Q66.65 68.35 76.15 61.55 L79.8 58.8 80.3 58.4 Q113.45 32.45 113.45 -4.25 113.45 -41.0 80.3 -67.0 47.2 -92.95 0.35 -92.95 L-32.7 -89.35 -33.7 -89.2 -33.75 -89.1 -34.55 -88.9 -35.05 -88.75 -35.3 -88.7 -35.6 -88.6 Q-62.7 -79.45 -79.7 -67.0 -112.8 -41.0 -112.8 -4.25 -112.8 32.45 -79.7 58.4 L-75.45 61.6 Q-62.55 70.85 -47.6 76.35 -25.75 84.4 0.35 84.4 31.15 84.4 56.05 73.15 M-123.35 -12.2 L-123.15 -13.9 Q-119.3 -48.0 -87.4 -73.05 -51.05 -101.5 0.3 -101.45 51.65 -101.5 87.95 -73.05 L97.0 -65.25 Q114.45 -48.6 120.75 -28.3 122.35 -23.15 123.25 -17.75 L124.3 -4.3 Q124.3 35.95 87.95 64.4 51.65 92.9 0.3 92.9 -51.05 92.9 -87.4 64.4 -123.7 35.95 -123.7 -4.3 L-123.3 -12.55 -123.35 -12.2 M123.25 -17.6 L123.8 -13.6 123.9 -12.55 123.25 -17.6" fill="#f2f7fb" fill-rule="evenodd" stroke="none"/>
    <path d="M-35.05 -88.75 L-34.55 -88.9 -33.75 -89.1" ffdec:has-small-stroke="true" ffdec:original-stroke-width="0.25" fill="none" stroke="#ffffff" stroke-linecap="round" stroke-linejoin="round" stroke-width="1.0"/>
  </g>
</svg>
