<?xml version="1.0" encoding="UTF-8" standalone="no"?>
<svg xmlns:ffdec="https://www.free-decompiler.com/flash" xmlns:xlink="http://www.w3.org/1999/xlink" ffdec:objectType="shape" height="128.65px" width="121.3px" xmlns="http://www.w3.org/2000/svg">
  <g transform="matrix(1.0, 0.0, 0.0, 1.0, 69.65, 45.3)">
    <path d="M-69.05 2.65 Q-67.75 -5.85 -64.35 -10.2 L47.1 12.25 51.4 10.95 Q52.2 12.45 50.45 16.8 48.6 21.7 48.6 22.75 48.75 30.3 47.15 35.2 43.5 46.95 38.65 57.8 33.65 69.05 18.85 77.1 3.65 85.45 -8.4 82.65 -26.35 78.5 -36.45 72.35 -51.35 63.2 -60.05 45.35 -67.4 30.45 -69.25 16.4 -70.15 9.95 -69.05 2.65" fill="#6cbe5b" fill-rule="evenodd" stroke="none"/>
    <path d="M-26.85 -33.85 Q-25.7 -37.45 -19.8 -40.45 -14.85 -43.0 -9.05 -44.05 L1.85 -45.0 Q10.35 -44.9 10.35 -41.45 12.6 -42.7 16.85 -41.75 20.6 -40.95 23.45 -39.25 25.2 -38.25 26.05 -36.7 L27.6 -34.05 Q28.8 -32.55 32.75 -29.8 38.25 -26.0 41.05 -18.45 42.05 -17.15 45.7 -14.4 47.5 -11.75 48.1 -7.1 L48.45 -1.3 Q48.65 0.85 49.7 4.2 50.45 6.65 49.25 10.0 47.9 13.95 48.0 15.55 L49.25 20.65 Q49.95 23.6 49.05 25.9 48.4 27.5 46.1 29.95 45.95 30.55 46.35 32.4 46.85 34.2 46.35 35.2 L46.3 33.75 Q46.35 37.95 41.7 48.75 39.45 53.95 37.15 55.1 35.85 55.75 32.6 55.65 31.2 56.5 30.8 58.6 27.15 63.1 23.75 63.5 L18.95 62.95 Q17.15 63.2 15.55 65.1 7.85 69.35 6.0 69.75 0.45 71.05 -3.0 65.4 -5.55 65.8 -12.4 67.7 -18.65 68.9 -22.1 67.1 -23.9 66.15 -24.75 64.15 -25.65 62.0 -26.8 61.35 -33.9 60.75 -36.3 59.7 -41.55 57.1 -43.55 52.2 -43.85 49.75 -44.3 49.05 -44.65 48.45 -46.85 46.6 -52.0 42.65 -54.0 40.6 -57.4 37.1 -56.15 33.4 -63.35 29.6 -66.8 22.95 -70.35 16.15 -67.45 10.8 -63.65 7.8 -63.45 6.1 -63.3 4.9 -64.0 3.7 L-65.65 1.15 Q-68.4 -3.5 -66.1 -11.35 -64.6 -16.75 -60.55 -20.35 -56.35 -22.3 -55.6 -23.25 -54.8 -26.85 -53.5 -28.35 -49.3 -33.25 -41.6 -36.05 -31.95 -39.5 -26.85 -33.85" fill="#6cbe5b" fill-rule="evenodd" stroke="none"/>
    <path d="M-37.6 -35.9 Q-28.35 -39.45 -23.55 -33.9 -22.4 -37.45 -16.7 -40.55 -11.9 -43.1 -6.5 -44.2 L3.95 -45.3 Q12.1 -45.3 12.1 -41.9 14.25 -43.1 18.3 -42.25 21.95 -41.55 24.55 -39.8 26.2 -38.8 27.0 -37.35 L28.45 -34.7 Q29.5 -33.2 33.25 -30.6 38.5 -26.9 41.1 -19.5 42.05 -18.15 45.5 -15.55 47.25 -12.9 47.65 -8.35 L47.95 -2.6 Q48.15 -0.15 49.1 2.8 49.75 5.2 48.6 8.55 47.3 12.45 47.4 14.1 L48.45 19.1 Q49.2 22.05 48.25 24.35 47.6 25.85 45.35 28.3 45.2 28.9 45.65 30.75 46.1 32.5 45.65 33.55 L45.6 32.1 Q45.5 36.35 40.95 46.95 38.75 52.15 36.6 53.3 L32.25 53.85 Q30.9 54.7 30.55 56.8 26.85 61.3 23.75 61.8 L19.1 61.2 Q17.45 61.55 15.85 63.35 8.55 67.7 6.7 68.2 1.45 69.5 -1.85 63.95 -4.3 64.35 -10.8 66.3 -16.75 67.6 -20.1 65.9 -21.8 65.0 -22.55 62.95 -23.4 60.85 -24.4 60.2 -31.25 59.75 -33.5 58.7 -38.35 56.25 -40.4 51.4 -40.6 48.95 -41.05 48.25 -41.35 47.75 -43.5 45.8 L-50.2 40.05 Q-53.35 36.6 -52.15 32.9 -59.05 29.25 -62.2 22.7 -65.5 16.0 -62.7 10.75 -59.05 7.7 -58.8 6.0 -58.7 4.85 -59.35 3.7 L-60.9 1.25 Q-63.3 -3.3 -61.2 -11.25 -59.7 -16.55 -55.8 -20.25 -51.75 -22.15 -51.05 -23.1 -50.2 -26.65 -48.95 -28.2 -44.95 -33.1 -37.6 -35.9" fill="#a4d54c" fill-rule="evenodd" stroke="none"/>
    <path d="M-33.25 -34.65 Q-24.55 -37.95 -19.95 -32.75 -18.95 -36.15 -13.45 -38.95 -9.0 -41.4 -3.8 -42.4 1.0 -43.4 6.0 -43.4 13.7 -43.4 13.7 -40.15 15.7 -41.25 19.5 -40.55 22.95 -39.8 25.5 -38.25 27.05 -37.3 27.8 -35.9 L29.15 -33.4 Q30.15 -32.05 33.75 -29.5 38.65 -26.05 41.2 -19.1 42.05 -17.85 45.3 -15.4 46.95 -12.9 47.4 -8.65 L47.65 -3.15 Q47.9 -1.0 48.75 1.9 49.4 4.1 48.3 7.3 47.1 10.95 47.15 12.45 L48.25 17.15 Q48.9 19.95 47.95 22.1 47.4 23.55 45.3 25.8 45.15 26.35 45.6 28.1 45.95 29.75 45.5 30.75 L45.5 29.45 Q45.35 33.65 41.1 43.35 39.15 48.1 37.0 49.25 35.85 49.9 33.0 49.85 31.6 50.6 31.3 52.55 27.8 56.75 24.9 57.25 23.55 57.45 20.5 56.65 18.95 57.05 17.45 58.7 10.6 62.7 8.8 63.15 3.8 64.45 0.7 59.2 -1.6 59.6 -7.7 61.35 -13.4 62.55 -16.5 61.0 -18.15 60.1 -18.85 58.2 -19.65 56.25 -20.65 55.6 -27.05 55.25 -29.25 54.15 -33.85 51.9 -35.8 47.3 -36.0 45.0 -36.35 44.45 L-38.65 42.1 -45.0 36.65 Q-48.0 33.4 -46.85 29.95 -53.4 26.5 -56.45 20.3 -59.55 14.05 -56.9 9.1 -53.5 6.25 -53.2 4.7 -53.15 4.05 -55.3 0.15 -57.6 -4.3 -55.5 -11.5 -54.15 -16.5 -50.45 -19.95 -46.65 -21.8 -45.95 -22.7 -45.15 -26.0 -44.0 -27.45 -40.15 -32.05 -33.25 -34.65" fill="#f3fa92" fill-rule="evenodd" stroke="none"/>
    <path d="M-27.05 -29.25 Q-19.45 -32.1 -15.5 -27.55 -13.7 -33.35 -1.45 -36.0 L7.2 -36.85 Q13.9 -36.8 13.9 -34.05 15.65 -35.0 18.95 -34.35 21.95 -33.7 24.2 -32.3 25.55 -31.55 26.2 -30.3 L27.45 -28.15 Q28.3 -26.9 31.4 -24.7 35.7 -21.65 37.85 -15.6 38.65 -14.55 41.55 -12.4 42.9 -10.15 43.35 -6.5 L43.55 -1.7 Q43.65 -0.3 44.5 2.75 45.05 4.7 44.15 7.5 43.05 10.65 43.15 11.95 L44.05 16.05 Q44.65 18.5 43.85 20.4 43.35 21.6 41.45 23.6 L41.75 25.65 Q42.1 27.1 41.7 27.95 L41.6 26.8 Q41.6 30.15 37.85 38.95 36.15 43.05 34.25 44.05 33.25 44.65 30.65 44.55 29.6 45.3 29.25 47.0 26.2 50.7 23.7 51.05 L19.85 50.6 Q18.5 50.85 17.2 52.35 11.0 55.95 9.6 56.25 5.25 57.4 2.6 52.8 L-4.8 54.7 Q-9.8 55.75 -12.55 54.3 -13.9 53.55 -14.55 51.9 -15.25 50.2 -16.15 49.7 -21.75 49.25 -23.55 48.4 -27.7 46.35 -29.3 42.4 -29.5 40.4 -29.8 39.9 L-31.8 37.9 Q-35.85 34.8 -37.35 33.1 -39.95 30.25 -39.0 27.2 -44.7 24.2 -47.35 18.8 -50.1 13.3 -47.8 9.0 -44.8 6.55 -44.55 5.1 -44.5 4.75 -46.35 1.15 -48.4 -2.6 -46.6 -9.0 -45.3 -13.4 -42.1 -16.35 -38.8 -17.9 -38.25 -18.7 -37.5 -21.65 -36.5 -22.9 -33.2 -26.9 -27.05 -29.25" fill="#eaf667" fill-rule="evenodd" stroke="none"/>
    <path d="M-11.75 -3.6 Q2.6 0.0 6.2 -0.05 13.2 -0.2 11.9 -8.3 9.15 -17.55 9.35 -20.1 16.0 -17.35 19.65 -9.65 23.25 -2.15 21.3 3.6 24.05 4.25 33.0 7.4 L35.55 8.5 Q36.65 8.8 37.75 8.0 38.9 7.05 39.1 3.05 39.75 -5.75 30.1 -23.95 47.75 -9.2 44.4 12.7 47.9 14.1 51.4 13.85 51.75 16.4 50.05 23.6 48.4 31.6 47.15 33.0 41.7 31.45 39.55 29.95 40.05 32.6 39.4 36.5 38.65 40.9 36.8 41.9 36.0 40.4 36.7 36.3 37.45 32.5 35.7 30.45 32.7 26.95 30.95 29.25 30.6 29.75 29.0 34.4 27.05 40.3 21.3 43.7 11.15 49.95 8.0 47.5 12.95 44.7 14.85 42.65 15.5 42.0 18.45 36.35 21.05 31.4 21.3 29.75 22.05 25.8 18.15 23.25 14.05 20.65 12.3 23.7 L9.3 29.65 Q6.55 32.35 2.0 33.65 -2.8 34.9 -6.75 33.75 -6.35 32.9 -2.9 31.75 0.7 30.55 1.3 29.9 2.9 28.25 4.2 24.7 5.05 22.85 3.4 19.65 1.75 16.5 -0.95 15.05 L-7.65 15.25 Q-17.05 18.7 -18.8 15.05 -10.65 13.2 -7.5 10.15 -2.9 5.75 -11.8 1.8 -20.45 -2.0 -26.35 0.15 -24.7 -5.85 -11.75 -3.6" fill="#fbf9e5" fill-rule="evenodd" stroke="none"/>
    <path d="M-9.5 45.35 Q-12.0 47.15 -14.4 45.45 -16.9 42.75 -18.15 41.7 -19.3 40.7 -23.1 39.1 -26.35 37.8 -27.65 36.1 -28.5 35.0 -28.65 33.2 -28.8 30.95 -29.15 30.25 -32.2 27.65 -33.1 26.05 -34.55 23.7 -33.5 20.95 -31.75 17.8 -31.15 16.05 -30.95 17.3 -31.45 20.9 -31.95 23.9 -30.95 25.55 -30.1 26.95 -27.3 28.8 -26.05 30.7 -25.65 34.65 -24.7 36.5 -22.05 37.5 -18.55 38.8 -17.7 39.55 -16.25 40.7 -14.25 43.65 -12.8 44.85 -9.5 45.35" fill="#a4d54c" fill-rule="evenodd" stroke="none"/>
    <path d="M-10.6 27.3 Q-12.4 28.6 -14.05 27.35 L-16.65 24.75 Q-17.4 24.05 -20.1 22.95 -22.4 21.95 -23.25 20.8 -23.7 18.15 -24.35 16.8 -26.4 15.0 -27.05 13.9 -28.1 12.15 -27.3 10.3 L-25.7 6.9 Q-25.55 7.7 -25.9 10.3 -26.3 12.4 -25.55 13.55 -24.9 14.5 -23.05 15.75 -22.15 17.05 -21.8 19.9 -20.65 22.1 -16.35 23.2 -15.35 24.05 -13.95 26.05 -12.9 26.95 -10.6 27.3" fill="#a4d54c" fill-rule="evenodd" stroke="none"/>
    <path d="M-32.85 -10.8 Q-33.85 -8.85 -37.15 -6.55 -38.3 -4.9 -37.95 -2.0 -37.45 1.6 -37.75 2.75 -38.1 4.55 -39.75 7.65 -40.15 9.5 -39.0 12.7 -41.85 11.3 -41.4 8.45 -40.15 4.95 -39.8 3.4 -39.45 1.8 -39.9 -2.25 -40.3 -5.75 -39.4 -7.7 -38.8 -8.9 -37.3 -9.95 -35.5 -11.1 -35.0 -11.75 -34.05 -15.6 -33.1 -17.2 -31.7 -19.6 -28.75 -19.95 L-23.35 -20.15 Q-24.25 -19.45 -27.8 -18.2 -30.6 -17.3 -31.6 -15.55 -32.45 -14.1 -32.85 -10.8" fill="#a4d54c" fill-rule="evenodd" stroke="none"/>
    <path d="M15.25 -29.5 L18.7 -25.35 Q17.55 -25.65 14.45 -27.7 11.95 -29.35 10.0 -29.15 8.35 -28.95 5.45 -27.2 3.3 -26.9 -0.5 -28.15 -2.6 -28.1 -4.6 -26.05 -7.2 -23.45 -8.2 -22.95 -9.85 -22.15 -13.4 -21.6 -15.05 -20.9 -17.0 -18.0 -17.55 -21.1 -14.95 -22.45 -11.5 -23.6 -10.0 -24.25 -8.55 -24.9 -5.6 -27.7 -2.95 -30.15 -0.95 -30.6 L2.15 -30.25 Q4.1 -29.5 4.95 -29.5 8.55 -31.15 10.45 -31.4 13.2 -31.7 15.25 -29.5" fill="#a4d54c" fill-rule="evenodd" stroke="none"/>
    <path d="M-23.9 -9.35 Q-21.45 -10.15 -20.45 -10.65 -19.35 -11.1 -17.35 -13.05 -15.5 -14.75 -14.05 -15.05 -11.35 -14.3 -9.95 -14.3 -7.4 -15.5 -6.1 -15.55 -4.15 -15.75 -2.75 -14.25 L-0.35 -11.35 -3.25 -13.05 Q-5.05 -14.2 -6.4 -14.05 -7.55 -13.9 -9.55 -12.65 -11.1 -12.45 -13.75 -13.3 -15.2 -13.25 -16.65 -11.9 -18.35 -10.1 -19.15 -9.7 -20.3 -9.15 -22.75 -8.8 -23.95 -8.2 -25.25 -6.25 -25.7 -8.4 -23.9 -9.35" fill="#a4d54c" fill-rule="evenodd" stroke="none"/>
    <path d="M20.4 -16.5 L17.85 -19.2 Q16.85 -20.1 14.45 -20.3 16.2 -21.65 17.95 -20.5 L20.6 -18.0 Q21.45 -17.3 24.1 -16.35 26.5 -15.5 27.45 -14.3 28.5 -13.05 28.65 -10.35 29.25 -9.15 31.55 -7.55 32.6 -5.9 31.9 -3.9 L30.45 -0.45 Q30.25 -1.3 30.55 -3.8 30.8 -5.95 30.05 -7.1 28.1 -8.35 27.35 -9.3 26.8 -12.0 26.05 -13.3 25.35 -14.6 23.45 -15.2 21.05 -16.0 20.4 -16.5" fill="#a4d54c" fill-rule="evenodd" stroke="none"/>
    <path d="M14.35 38.9 Q14.2 40.85 12.45 41.25 L9.3 41.55 Q8.3 41.75 6.1 42.9 4.25 44.0 2.95 43.9 1.45 43.85 -0.35 42.4 L-3.9 42.65 Q-5.6 42.4 -6.5 40.85 -7.25 38.8 -7.85 37.9 -5.4 41.1 -3.3 41.4 L-0.35 40.95 Q1.8 42.1 3.1 42.4 4.3 42.7 5.75 41.85 7.7 40.7 8.45 40.55 L11.65 40.45 Q12.8 40.25 14.35 38.9" fill="#a4d54c" fill-rule="evenodd" stroke="none"/>
  </g>
</svg>
