<?xml version="1.0" encoding="UTF-8" standalone="no"?>
<svg xmlns:ffdec="https://www.free-decompiler.com/flash" xmlns:xlink="http://www.w3.org/1999/xlink" ffdec:objectType="shape" height="96.15px" width="124.15px" xmlns="http://www.w3.org/2000/svg">
  <g transform="matrix(1.0, 0.0, 0.0, 1.0, 42.05, 36.05)">
    <path d="M-30.3 36.05 Q-37.9 24.2 -40.05 18.05 -43.7 7.85 -40.7 -1.7 -35.5 -18.4 -34.05 -19.1 -31.85 -17.0 -9.85 -13.45 12.8 -9.85 14.9 -8.55 20.85 -4.75 30.1 -2.05 37.35 -0.05 46.25 -0.05 L62.9 -0.7 Q76.4 -0.85 78.55 1.2 82.35 5.1 81.9 12.1 81.6 18.6 77.85 24.7 68.35 40.7 66.3 43.55 59.35 52.95 50.15 57.2 40.95 61.45 28.55 59.45 21.35 58.25 7.0 54.45 L-2.85 53.3 Q-9.15 52.7 -12.7 51.6 -22.2 48.55 -30.3 36.05" fill="#d53b3b" fill-rule="evenodd" stroke="none"/>
    <path d="M-26.25 23.35 Q-33.75 11.7 -36.1 5.35 -39.75 -4.85 -36.7 -14.4 -33.25 -25.2 -20.8 -32.15 -7.5 -39.65 2.0 -32.8 4.75 -30.15 18.95 -21.25 24.75 -17.55 34.15 -14.75 41.3 -12.8 50.2 -12.8 L64.8 -14.15 Q72.0 -14.05 77.6 -4.65 83.05 4.25 81.9 12.0 81.3 16.7 77.25 22.15 L70.25 30.85 Q69.15 32.5 66.8 36.45 64.55 39.95 62.85 41.3 61.55 42.35 57.75 42.8 53.5 43.2 52.1 44.0 43.05 49.15 38.45 49.25 32.85 49.35 24.75 46.3 14.45 42.45 11.1 41.75 L1.15 40.6 Q-5.1 40.0 -8.6 38.9 -18.3 35.85 -26.25 23.35" fill="#ff8270" fill-rule="evenodd" stroke="none"/>
    <path d="M-33.0 -9.05 L-23.05 -9.75 Q-21.3 -9.75 -18.45 -8.45 -14.85 -6.9 -14.0 -6.75 -4.65 -5.6 1.15 -3.8 14.7 2.15 20.4 3.65 22.4 4.15 23.8 3.2 L26.8 0.6 Q29.3 -1.7 30.35 -2.3 32.25 -3.35 31.65 0.35 30.85 5.35 26.8 8.65 22.65 12.0 18.05 11.0 11.15 9.35 9.0 8.2 5.8 6.65 0.35 3.65 L-16.3 -1.2 Q-19.25 -1.7 -24.0 -5.1 L-28.4 -7.5 Q-31.0 -8.95 -33.0 -9.05" fill="#fff5dc" fill-rule="evenodd" stroke="none"/>
    <path d="M-33.5 2.1 Q-28.25 1.5 -21.65 6.25 -13.4 12.0 -12.6 13.25 -11.65 14.6 -9.9 18.6 -8.2 22.15 -6.3 23.0 -4.55 23.85 -2.05 23.6 L2.35 23.35 Q7.1 23.75 11.5 22.3 L20.05 18.65 Q28.7 14.8 31.1 19.6 32.35 22.2 36.4 26.1 40.0 29.45 39.95 30.15 37.6 30.4 35.25 27.55 L31.7 23.25 Q30.1 22.15 23.1 22.75 15.15 23.45 14.35 24.05 12.35 25.65 15.3 31.2 13.4 31.65 8.65 28.0 6.0 26.9 2.25 26.6 -3.2 26.35 -4.3 26.7 -6.65 27.3 -10.35 29.9 -11.65 24.65 -12.5 22.2 -14.05 17.7 -17.6 14.55 -18.75 13.5 -26.1 8.8 -31.5 5.3 -33.5 2.1" fill="#fff5dc" fill-rule="evenodd" stroke="none"/>
    <path d="M-15.0 -29.1 Q-8.95 -33.75 -3.55 -32.3 -0.05 -31.25 7.0 -23.75 7.8 -22.95 14.95 -19.6 21.25 -16.15 18.75 -14.75 17.2 -13.9 8.5 -18.15 0.7 -21.95 -1.3 -23.5 -3.35 -24.85 -6.8 -25.55 -11.4 -26.45 -13.05 -24.1 -13.55 -23.3 -8.9 -19.85 -4.8 -16.85 -7.85 -16.4 -10.0 -16.85 -15.0 -19.0 -20.55 -21.4 -21.65 -22.8 -23.75 -25.4 -20.65 -26.75 -16.4 -28.05 -15.0 -29.1" fill="#ffccbd" fill-rule="evenodd" stroke="none"/>
    <path d="M38.8 25.0 Q40.35 26.7 47.8 27.3 54.45 27.9 57.45 27.3 62.4 25.25 64.4 24.7 67.75 23.75 65.5 28.95 63.35 33.95 52.8 36.3 47.35 37.6 46.0 38.8 45.2 39.6 43.75 41.65 42.25 43.2 40.6 42.7 40.35 40.7 43.45 37.6 46.65 34.5 46.5 32.35 46.35 30.35 41.9 27.75 38.05 25.6 38.8 25.0" fill="#ffccbd" fill-rule="evenodd" stroke="none"/>
    <path d="M29.15 36.3 Q38.45 40.9 38.05 46.25 31.9 47.2 20.75 42.7 L23.6 37.1 Q25.0 34.25 29.15 36.3" fill="#d23639" fill-rule="evenodd" stroke="none"/>
    <path d="M-11.3 34.65 L-10.95 34.3 Q-0.95 34.15 6.15 34.5 19.8 35.2 18.35 41.2 L10.75 39.05 Q6.15 37.6 3.15 37.6 -6.45 37.6 -11.3 34.65" fill="#e75548" fill-rule="evenodd" stroke="none"/>
    <path d="M51.7 16.75 Q56.5 17.8 57.45 20.3 L57.8 20.3 Q46.85 21.35 39.05 18.75 28.0 15.15 30.45 5.2 32.35 -2.65 43.55 -8.0 49.8 -11.05 51.85 -11.65 L60.85 -11.4 Q57.55 -8.45 48.15 -6.45 45.45 -5.25 42.1 -1.35 40.9 -0.4 38.45 0.7 36.55 1.9 35.8 4.0 33.65 9.5 44.35 14.95 L51.7 16.75" fill="#e75548" fill-rule="evenodd" stroke="none"/>
    <path d="M-36.35 -8.3 Q-33.25 -9.9 -24.95 -8.1 -18.15 -6.4 -12.7 -4.15 -8.7 -2.5 0.3 -0.5 9.1 1.5 13.4 3.4 21.6 9.45 25.05 8.3 27.25 7.7 29.4 3.45 L32.5 -2.85 Q34.6 -7.0 35.8 -8.8 37.75 -11.8 40.8 -12.1 L55.85 -13.1 Q49.95 -12.0 40.55 -3.55 30.15 5.7 33.45 10.65 36.15 14.7 46.15 19.95 L54.35 20.25 Q60.25 19.45 62.3 20.9 L56.7 23.6 Q53.4 25.15 50.8 25.4 43.9 26.0 36.15 20.65 35.1 19.9 31.8 16.0 29.8 13.65 26.7 13.9 22.9 14.35 14.35 11.25 9.95 9.7 3.4 5.65 -6.3 1.65 -8.3 1.55 L-13.8 1.3 Q-15.6 0.9 -18.65 -1.1 -26.15 -3.0 -27.7 -5.1 -28.05 -5.5 -36.35 -8.3" fill="#d53b3b" fill-rule="evenodd" stroke="none"/>
  </g>
</svg>
