<?xml version="1.0" encoding="UTF-8" standalone="no"?>
<svg xmlns:ffdec="https://www.free-decompiler.com/flash" xmlns:xlink="http://www.w3.org/1999/xlink" ffdec:objectType="shape" height="106.5px" width="131.85px" xmlns="http://www.w3.org/2000/svg">
  <g transform="matrix(1.0, 0.0, 0.0, 1.0, 95.9, 106.25)">
    <path d="M-1.3 -44.25 L-1.05 -60.55 Q0.2 -69.2 6.7 -74.3 L12.45 -79.35 Q15.35 -81.9 18.7 -83.25 23.05 -85.05 35.95 -87.9 33.5 -70.05 33.25 -66.1 32.55 -53.25 35.95 -44.35 29.15 -38.0 16.6 -23.15 13.3 -19.6 9.3 -11.4 5.25 -3.1 2.2 0.25 L-1.3 -44.25" fill="#feecbf" fill-rule="evenodd" stroke="none"/>
    <path d="M-81.65 -64.7 Q-71.2 -67.35 -68.3 -67.25 L-46.8 -65.75 Q-43.15 -65.4 -31.25 -65.65 L-15.8 -64.75 Q-11.9 -63.95 -6.4 -56.85 -1.3 -50.2 3.0 -50.1 1.55 -46.1 1.5 -36.7 L1.7 -23.15 2.75 -11.75 Q3.5 -4.35 2.15 -0.5 -3.75 -1.1 -13.8 -3.95 -25.65 -7.35 -29.75 -8.15 L-45.5 -10.45 -61.3 -12.35 Q-68.5 -13.35 -87.8 -19.25 -91.95 -20.2 -91.1 -22.7 -90.3 -24.55 -89.85 -25.75 -88.95 -28.0 -88.8 -30.15 -87.0 -53.5 -94.8 -63.25 -91.1 -62.3 -81.65 -64.7" fill="#fff4da" fill-rule="evenodd" stroke="none"/>
    <path d="M-82.9 -71.85 L-79.35 -71.2 Q-81.4 -71.05 -82.9 -71.85" fill="#f7e8cc" fill-rule="evenodd" stroke="none"/>
    <path d="M-4.8 -91.2 L-1.5 -92.65 Q-2.8 -91.45 -4.8 -91.2" fill="#f7e8cc" fill-rule="evenodd" stroke="none"/>
    <path d="M-1.5 -92.65 L15.6 -89.95 Q15.6 -88.3 16.75 -87.2 18.0 -86.0 20.15 -86.2 22.9 -86.5 23.8 -89.25 L35.6 -88.7 Q34.2 -85.9 26.4 -79.35 24.6 -80.45 21.9 -80.25 16.4 -79.95 14.6 -75.6 12.95 -71.45 15.8 -68.35 L11.75 -62.65 11.0 -62.65 Q8.1 -62.5 7.0 -60.25 6.0 -58.2 7.25 -56.35 3.3 -48.7 1.75 -48.15 -0.25 -47.45 -8.3 -49.25 L-14.75 -50.8 Q-13.7 -54.2 -15.35 -56.75 -17.2 -59.55 -21.6 -59.25 -27.35 -58.95 -29.0 -54.3 -48.95 -58.9 -60.55 -60.4 L-67.45 -61.2 Q-67.35 -64.95 -71.5 -64.65 -74.75 -64.5 -75.65 -61.9 L-79.75 -62.15 -87.95 -62.3 Q-92.7 -62.4 -95.9 -63.2 L-82.9 -71.85 Q-81.4 -71.05 -79.35 -71.2 -76.85 -71.4 -75.3 -73.55 -73.9 -75.5 -74.15 -77.8 L-69.4 -81.75 -59.3 -91.75 Q-57.2 -90.0 -51.8 -91.75 -48.35 -92.9 -48.1 -95.3 -47.85 -97.75 -51.25 -100.15 -49.05 -103.1 -47.55 -106.25 -43.35 -105.05 -33.8 -100.8 -34.2 -98.9 -33.05 -97.5 -31.75 -96.0 -29.3 -96.2 -27.15 -96.4 -26.05 -98.35 L-11.05 -94.6 Q-9.6 -90.75 -4.8 -91.2 -2.8 -91.45 -1.5 -92.65" fill="#fffcf3" fill-rule="evenodd" stroke="none"/>
    <path d="M-1.4 -35.3 Q-1.0 -38.45 0.9 -39.75 3.15 -41.2 5.7 -38.25 L6.2 -33.75 Q2.05 -30.15 -0.05 -31.25 -1.85 -32.1 -1.4 -35.3" fill="#feecbf" fill-rule="evenodd" stroke="none"/>
    <path d="M5.2 -18.25 L4.7 -15.75 Q2.4 -13.15 -1.8 -14.05 -6.15 -14.95 -4.8 -18.9 -3.7 -22.05 0.05 -21.3 3.45 -20.6 5.2 -18.25" fill="#feecbf" fill-rule="evenodd" stroke="none"/>
    <path d="M-71.8 -44.25 Q-74.5 -45.4 -72.65 -47.05 -70.8 -48.65 -68.85 -46.3 -68.7 -44.8 -70.3 -44.25 L-71.8 -44.25" fill="#feecbf" fill-rule="evenodd" stroke="none"/>
    <path d="M-33.7 -35.65 Q-34.65 -33.85 -36.55 -33.2 L-39.95 -33.3 -39.8 -33.25 Q-42.0 -32.95 -43.15 -34.5 -44.25 -35.9 -43.95 -37.95 -43.6 -40.05 -42.0 -41.2 -40.15 -42.5 -37.3 -41.8 -34.4 -41.1 -33.5 -39.15 -32.7 -37.5 -33.7 -35.65" fill="#feecbf" fill-rule="evenodd" stroke="none"/>
    <path d="M-56.8 -28.75 Q-60.6 -30.25 -57.35 -32.7 -55.7 -31.95 -55.6 -31.15 -55.5 -30.55 -56.3 -29.25 L-56.8 -28.75" fill="#feecbf" fill-rule="evenodd" stroke="none"/>
    <path d="M-11.5 -35.35 Q-9.5 -34.65 -9.35 -33.75 -9.1 -32.65 -12.3 -32.25 L-12.3 -32.75 Q-14.8 -34.9 -14.05 -35.55 L-11.5 -35.35" fill="#feecbf" fill-rule="evenodd" stroke="none"/>
    <path d="M-24.8 -17.75 L-24.7 -19.7 Q-24.35 -20.3 -22.85 -20.15 -22.0 -18.7 -22.45 -18.1 -22.75 -17.7 -24.3 -17.25 L-24.8 -17.75" fill="#feecbf" fill-rule="evenodd" stroke="none"/>
    <path d="M-75.8 -23.25 Q-77.1 -23.6 -76.75 -24.85 L-74.5 -24.9 Q-73.9 -23.5 -75.3 -22.75 L-75.8 -23.25" fill="#feecbf" fill-rule="evenodd" stroke="none"/>
    <path d="M-46.3 -73.75 Q-47.6 -73.15 -47.75 -74.6 L-46.75 -75.75 -45.25 -75.75 Q-45.0 -74.7 -45.5 -74.35 L-46.8 -73.75 -46.3 -73.75" fill="#fff4da" fill-rule="evenodd" stroke="none"/>
    <path d="M-18.3 -73.75 Q-21.8 -73.75 -21.05 -76.3 -20.35 -78.85 -17.15 -77.35 -14.55 -76.1 -15.1 -73.6 -15.65 -71.1 -18.3 -72.75 L-18.3 -73.75" fill="#fff4da" fill-rule="evenodd" stroke="none"/>
    <path d="M-33.8 -84.75 Q-37.5 -86.65 -33.45 -87.95 -31.9 -84.65 -35.3 -84.25 L-33.8 -84.75" fill="#fff4da" fill-rule="evenodd" stroke="none"/>
    <path d="M-36.25 -62.7 L-35.8 -62.25 Q-38.15 -61.8 -40.05 -63.3 -42.1 -64.9 -40.0 -66.7 -38.05 -68.35 -35.65 -66.5 -33.4 -64.7 -33.75 -62.6 L-36.25 -62.7" fill="#fff4da" fill-rule="evenodd" stroke="none"/>
    <path d="M3.7 -77.45 L4.2 -77.25 3.2 -77.25 3.7 -77.45 Q3.0 -77.75 2.75 -77.95 2.2 -78.35 2.25 -79.3 2.95 -80.6 4.25 -80.15 5.4 -78.95 5.0 -78.3 L3.7 -77.45" fill="#fff4da" fill-rule="evenodd" stroke="none"/>
    <path d="M-2.3 -57.75 Q-4.9 -58.5 -4.85 -60.45 L-0.25 -60.6 Q0.4 -58.9 -1.8 -57.75 L-2.3 -57.75" fill="#fff4da" fill-rule="evenodd" stroke="none"/>
    <path d="M27.2 -66.75 Q25.9 -66.55 25.75 -67.85 25.8 -69.2 27.2 -69.45 28.4 -68.65 28.25 -67.9 28.2 -67.4 27.2 -66.25 L27.2 -66.75" fill="#fff4da" fill-rule="evenodd" stroke="none"/>
    <path d="M18.7 -55.75 Q17.6 -55.5 16.65 -56.3 16.8 -58.35 18.1 -58.8 19.2 -59.2 20.45 -58.4 21.65 -57.65 21.6 -56.7 21.6 -55.6 19.7 -55.25 L18.7 -55.75" fill="#fff4da" fill-rule="evenodd" stroke="none"/>
    <path d="M20.7 -40.25 Q19.6 -41.0 19.65 -42.3 20.7 -43.4 22.15 -43.5 23.05 -42.05 22.75 -41.45 22.5 -41.05 21.2 -40.75 L20.7 -40.25" fill="#fff4da" fill-rule="evenodd" stroke="none"/>
    <path d="M10.2 -43.25 Q9.15 -43.8 8.9 -44.1 8.45 -44.6 8.9 -45.7 12.2 -47.6 13.1 -44.7 13.45 -43.65 12.85 -43.0 12.15 -42.3 10.7 -42.75 L10.2 -43.25" fill="#fff4da" fill-rule="evenodd" stroke="none"/>
    <path d="M15.7 -31.25 Q14.45 -31.1 14.85 -32.1 15.8 -32.45 15.7 -31.25" fill="#fff4da" fill-rule="evenodd" stroke="none"/>
  </g>
</svg>
