<?xml version="1.0" encoding="UTF-8" standalone="no"?>
<svg xmlns:ffdec="https://www.free-decompiler.com/flash" xmlns:xlink="http://www.w3.org/1999/xlink" ffdec:objectType="shape" height="84.1px" width="130.95px" xmlns="http://www.w3.org/2000/svg">
  <g transform="matrix(1.0, 0.0, 0.0, 1.0, 74.45, 43.05)">
    <path d="M38.65 -40.05 Q43.3 -38.5 48.4 -34.2 54.35 -29.2 55.85 -24.1 57.5 -18.3 55.0 -10.2 52.0 -0.45 52.0 3.05 52.0 6.65 53.2 10.55 L55.05 16.35 Q56.6 22.3 50.9 27.6 47.8 30.5 42.15 30.15 L32.95 28.8 Q25.3 27.95 13.75 34.75 2.05 41.6 -4.95 41.0 -12.2 40.4 -26.25 35.1 -40.7 29.5 -47.75 28.7 -59.45 27.25 -67.7 21.0 -80.2 11.55 -69.5 -3.25 -62.55 -12.75 -53.3 -18.6 -46.35 -22.95 -44.55 -24.95 -42.8 -26.8 -39.25 -33.85 -34.7 -42.75 -22.25 -43.05 -12.65 -43.3 -2.6 -38.9 L18.2 -40.95 Q31.45 -42.45 38.65 -40.05" fill="#ffffff" fill-rule="evenodd" stroke="none"/>
    <path d="M17.0 -13.1 Q25.3 -7.25 25.3 0.9 25.3 9.05 17.0 14.85 8.75 20.65 -2.9 20.65 -14.6 20.65 -22.85 14.85 -31.1 9.1 -31.1 0.9 -31.1 -7.35 -22.85 -13.1 -14.6 -18.9 -2.9 -18.9 8.75 -18.9 17.0 -13.1" fill="#ffffc6" fill-rule="evenodd" stroke="none"/>
    <path d="M9.8 -19.4 Q19.75 -9.85 17.3 -0.8 14.95 7.65 7.3 11.65 0.8 15.05 -8.2 14.75 -16.15 14.45 -22.4 11.5 -28.65 8.55 -28.65 5.05 -29.55 -5.75 -25.25 -14.7 -20.2 -25.1 -10.15 -27.05 -0.2 -29.0 9.8 -19.4" fill="#ffe812" fill-rule="evenodd" stroke="none"/>
    <path d="M-15.05 -14.25 Q-10.35 -14.65 -7.35 -10.15 -4.35 -6.0 -5.0 -1.45 -5.6 2.55 -8.75 5.65 -11.8 8.55 -15.7 9.15 -19.85 9.75 -22.95 7.15 -27.1 3.7 -26.65 -1.5 -26.25 -6.05 -22.7 -9.95 -19.15 -13.8 -15.05 -14.25" fill="#ffff47" fill-rule="evenodd" stroke="none"/>
    <path d="M-1.85 -22.85 Q0.95 -18.9 -2.45 -15.55 -5.8 -12.25 -8.85 -14.85 -10.7 -16.45 -10.55 -18.85 -10.35 -20.95 -8.75 -22.75 -7.15 -24.55 -5.3 -24.75 -3.15 -24.9 -1.85 -22.85" fill="#ffff47" fill-rule="evenodd" stroke="none"/>
    <path d="M-12.95 -21.3 Q-10.95 -18.55 -13.35 -16.15 -15.75 -13.75 -17.9 -15.6 -20.65 -18.0 -17.85 -21.25 -14.95 -24.45 -12.95 -21.3" fill="#ffffc6" fill-rule="evenodd" stroke="none"/>
    <path d="M3.1 -24.45 Q12.4 -19.65 16.05 -9.55 19.35 -0.25 15.7 4.65 8.65 13.9 -4.25 14.1 5.6 11.05 8.65 0.35 12.05 -11.55 3.1 -24.45" fill="#ffd128" fill-rule="evenodd" stroke="none"/>
  </g>
</svg>
