<?xml version="1.0" encoding="UTF-8" standalone="no"?>
<svg xmlns:ffdec="https://www.free-decompiler.com/flash" xmlns:xlink="http://www.w3.org/1999/xlink" ffdec:objectType="shape" height="104.8px" width="75.65px" xmlns="http://www.w3.org/2000/svg">
  <g transform="matrix(1.0, 0.0, 0.0, 1.0, 36.8, 60.4)">
    <path d="M-2.6 -25.25 Q-2.25 -25.65 2.75 -20.9 9.0 -15.0 14.8 -13.1 27.35 -9.05 34.0 0.85 40.85 11.05 38.05 22.85 35.15 34.75 19.25 41.25 9.7 45.2 -6.8 43.7 -21.8 42.4 -30.2 33.85 -39.15 24.75 -35.95 11.6 -34.2 4.45 -31.0 0.2 -27.85 -4.0 -20.6 -8.9 -12.55 -13.25 -9.2 -15.55 -3.4 -19.45 -2.6 -25.25" fill="#fed9b5" fill-rule="evenodd" stroke="none"/>
    <path d="M-18.15 -57.65 Q-9.65 -47.85 -6.5 -40.65 -0.15 -25.9 -2.5 -21.5 -2.85 -23.55 -9.9 -32.85 -15.1 -39.85 -18.05 -45.35 L-21.15 -50.95 Q-22.7 -54.0 -22.9 -56.9 -23.35 -63.55 -18.15 -57.65" fill="#2f7e20" fill-rule="evenodd" stroke="none"/>
    <path d="M-2.05 -22.85 Q-1.55 -24.15 -2.8 -32.15 -3.65 -38.1 -3.6 -42.35 L-3.65 -46.75 Q-3.6 -49.1 -2.7 -51.0 -0.65 -55.45 0.6 -50.2 2.65 -41.6 2.05 -36.15 1.0 -25.0 -2.05 -22.85" fill="#369226" fill-rule="evenodd" stroke="none"/>
    <path d="M-7.0 -10.6 Q0.65 -11.3 4.5 -6.25 7.95 -1.65 6.25 4.1 4.6 9.65 -0.9 12.9 -6.15 15.95 -12.65 15.7 -20.9 15.4 -24.9 12.85 -30.2 9.6 -26.85 3.15 -21.25 -7.6 -7.0 -10.6" fill="#fee8d1" fill-rule="evenodd" stroke="none"/>
    <path d="M-22.8 17.5 Q-20.05 17.2 -18.7 19.4 -17.45 21.4 -18.05 23.9 -18.65 26.35 -20.6 27.75 -22.45 29.1 -24.8 29.0 -32.1 28.65 -29.85 23.5 -27.85 18.8 -22.8 17.5" fill="#fee8d1" fill-rule="evenodd" stroke="none"/>
    <path d="M-4.35 -21.1 Q-3.95 -12.0 -10.75 -4.15 -15.25 0.95 -17.05 4.0 -19.8 8.6 -20.35 13.95 -21.4 24.45 -15.85 33.85 L-12.2 40.1 Q-9.85 43.6 -7.55 44.4 -10.15 43.55 -14.25 39.6 -18.25 35.75 -19.95 32.8 -25.55 23.3 -24.45 12.9 -23.9 7.55 -21.15 2.95 -19.35 -0.1 -14.85 -5.2 -10.3 -9.7 -8.1 -12.45 -4.25 -17.2 -4.35 -21.1" fill="#fdc58c" fill-rule="evenodd" stroke="none"/>
    <path d="M24.4 -2.2 Q29.0 2.05 30.75 7.0 34.25 17.0 31.0 27.4 30.1 30.1 25.5 35.1 21.45 39.4 18.85 40.9 21.05 39.55 23.6 36.0 26.25 32.25 27.2 29.2 30.45 18.8 26.95 8.75 25.15 3.65 21.35 -0.4 18.95 -2.95 13.3 -7.25 1.75 -16.0 0.1 -22.35 1.15 -18.7 6.5 -14.9 9.7 -12.65 15.55 -9.05 L24.4 -2.2" fill="#fdc58c" fill-rule="evenodd" stroke="none"/>
    <path d="M-1.85 -20.8 Q-1.65 -16.0 3.15 -4.8 8.45 7.65 10.05 17.75 11.6 27.7 8.9 34.1 L5.85 43.1 Q5.45 36.85 6.1 30.8 6.85 24.45 6.6 20.1 6.4 16.8 4.35 9.65 L0.85 -2.05 Q-2.1 -13.3 -1.85 -20.8" fill="#fdc58c" fill-rule="evenodd" stroke="none"/>
  </g>
</svg>
