<?xml version="1.0" encoding="UTF-8" standalone="no"?>
<svg xmlns:ffdec="https://www.free-decompiler.com/flash" xmlns:xlink="http://www.w3.org/1999/xlink" ffdec:objectType="shape" height="48.2px" width="60.35px" xmlns="http://www.w3.org/2000/svg">
  <g transform="matrix(1.0, 0.0, 0.0, 1.0, 30.15, 24.1)">
    <path d="M-7.8 -13.35 Q-5.7 -9.45 -4.4 -1.85 -3.2 5.45 -3.7 10.1 -5.25 24.3 -17.25 24.1 -24.45 24.0 -28.05 19.1 -31.85 13.95 -28.75 6.8 -27.45 3.85 -24.2 1.25 -22.7 0.05 -17.85 -2.95 -9.45 -8.2 -8.2 -13.75 L-7.8 -13.35" fill="#f4f0b3" fill-rule="evenodd" stroke="none"/>
    <path d="M-14.8 15.75 Q-17.7 20.85 -20.7 21.55 -24.0 22.35 -26.7 17.5 -29.55 12.45 -27.95 8.45 -26.75 5.5 -22.25 2.05 -16.8 -1.9 -14.25 -4.2 -9.8 -8.15 -8.4 -12.5 -8.55 4.55 -14.8 15.75" fill="#fdfcf2" fill-rule="evenodd" stroke="none"/>
    <path d="M-3.1 -9.65 Q4.2 -8.35 8.4 -6.3 21.2 -0.05 17.0 11.15 14.45 17.9 8.65 19.6 2.5 21.45 -3.15 16.15 -5.5 13.95 -6.85 10.0 L-8.7 2.65 Q-10.8 -7.05 -15.6 -10.1 L-15.1 -10.35 Q-10.7 -11.0 -3.1 -9.65" fill="#f4f0b3" fill-rule="evenodd" stroke="none"/>
    <path d="M9.95 6.05 Q13.8 10.5 13.45 13.6 13.05 16.95 7.6 17.85 1.85 18.8 -1.3 15.95 -3.7 13.85 -5.45 8.45 -7.35 2.0 -8.65 -1.2 -10.9 -6.75 -14.5 -9.5 1.5 -3.6 9.95 6.05" fill="#fdfcf2" fill-rule="evenodd" stroke="none"/>
    <path d="M10.1 -24.1 L10.65 -24.0 Q14.65 -22.0 20.0 -16.5 25.2 -11.2 27.45 -7.1 34.2 5.4 24.25 12.15 18.3 16.15 12.55 14.15 6.5 12.1 5.0 4.45 4.1 0.05 8.3 -9.75 12.25 -18.85 10.1 -24.1" fill="#f4f0b3" fill-rule="evenodd" stroke="none"/>
    <path d="M21.5 3.9 Q22.05 9.75 20.0 12.05 17.7 14.55 12.75 12.1 7.55 9.55 6.6 5.4 5.9 2.3 7.6 -3.1 9.8 -9.45 10.6 -12.8 12.0 -18.65 10.65 -23.0 20.25 -8.9 21.5 3.9" fill="#fdfcf2" fill-rule="evenodd" stroke="none"/>
  </g>
</svg>
