<?xml version="1.0" encoding="UTF-8" standalone="no"?>
<svg xmlns:ffdec="https://www.free-decompiler.com/flash" xmlns:xlink="http://www.w3.org/1999/xlink" ffdec:objectType="shape" height="89.3px" width="60.05px" xmlns="http://www.w3.org/2000/svg">
  <g transform="matrix(1.0, 0.0, 0.0, 1.0, 52.4, 23.0)">
    <path d="M-38.25 3.2 Q-40.35 2.65 -41.45 -0.75 -42.55 -4.15 -41.9 -7.9 -41.15 -12.1 -38.5 -14.3 -35.25 -16.9 -30.0 -16.05 -20.45 -14.5 -11.1 -5.35 -3.05 2.4 1.95 12.5 7.2 22.95 7.6 35.45 8.1 47.85 3.65 58.55 L1.65 63.25 Q-0.15 66.4 -2.3 66.3 -4.4 66.2 -4.8 63.05 L-4.8 58.3 Q-4.4 42.25 -8.35 33.65 -12.4 24.75 -19.15 16.3 -24.05 10.1 -26.25 8.15 -31.25 3.95 -38.25 3.2" fill="#18964c" fill-rule="evenodd" stroke="none"/>
    <path d="M-39.85 1.1 Q-42.1 0.0 -41.0 -4.2 -39.95 -8.2 -37.95 -9.25 -33.55 -11.6 -26.8 -7.1 -8.05 5.45 -1.8 21.75 8.2 47.4 0.65 61.4 -1.1 64.65 -2.5 64.4 -4.0 64.2 -4.25 60.7 L-4.7 50.9 Q-5.2 42.6 -8.9 31.75 -13.05 19.45 -18.8 14.1 -24.75 8.35 -28.6 5.85 -31.2 4.25 -39.85 1.1" fill="#3aa85c" fill-rule="evenodd" stroke="none"/>
    <path d="M-30.65 -3.0 Q-26.5 -1.75 -22.25 2.3 L-15.7 8.9 Q-10.8 13.05 -9.05 18.55 -8.4 20.7 -9.25 20.7 -10.25 20.75 -12.7 17.95 -18.15 11.95 -25.3 5.95 -26.65 4.8 -30.1 3.25 -33.1 1.9 -34.2 0.55 -35.4 -0.9 -34.7 -2.75 -33.95 -4.75 -30.65 -3.0" fill="#9ed67d" fill-rule="evenodd" stroke="none"/>
    <path d="M-6.85 24.6 L-3.65 30.85 Q-3.05 32.65 -3.05 35.0 -3.05 38.05 -4.95 36.95 -5.85 36.3 -6.5 33.85 -7.1 31.2 -7.45 30.4 L-8.65 26.35 Q-8.7 25.55 -8.2 24.75 -7.7 23.75 -6.85 24.6" fill="#9ed67d" fill-rule="evenodd" stroke="none"/>
    <path d="M-52.1 -9.95 Q-52.55 -11.0 -52.3 -11.95 L-48.45 -11.2 Q-45.55 -10.45 -44.85 -10.65 -44.1 -10.85 -40.2 -14.55 -35.05 -19.6 -33.5 -23.0 -33.95 -19.65 -36.05 -16.05 L-39.65 -10.8 -35.3 -9.6 Q-32.0 -8.65 -31.25 -7.9 L-38.0 -7.55 Q-41.85 -7.05 -41.55 -3.85 L-40.1 2.25 Q-39.3 6.35 -41.15 10.9 -40.7 4.1 -46.1 -5.7 -50.1 -7.85 -51.5 -7.8 L-52.1 -9.95" fill="#008240" fill-rule="evenodd" stroke="none"/>
  </g>
</svg>
