<?xml version="1.0" encoding="UTF-8" standalone="no"?>
<svg xmlns:ffdec="https://www.free-decompiler.com/flash" xmlns:xlink="http://www.w3.org/1999/xlink" ffdec:objectType="shape" height="60.4px" width="108.7px" xmlns="http://www.w3.org/2000/svg">
  <g transform="matrix(1.0, 0.0, 0.0, 1.0, 100.35, 33.2)">
    <path d="M-94.4 -9.25 L-100.35 -15.95 -99.65 -19.9 Q-90.5 -16.85 -79.7 -16.45 -58.05 -15.65 -49.85 -28.9 -46.6 -22.0 -39.55 -17.65 -30.0 -11.8 -22.3 -9.3 -17.05 -7.6 8.2 -13.05 L7.6 -9.4 0.4 3.8 Q-3.9 10.6 -11.4 17.5 L-17.45 23.4 Q-21.7 27.1 -24.5 27.2 -25.85 27.25 -30.65 25.1 -36.2 22.55 -39.3 21.9 -48.4 19.9 -66.2 11.05 -71.8 8.45 -74.65 6.9 -79.4 4.35 -85.25 -0.1 -87.9 -2.15 -94.4 -9.25" fill="#ffe855" fill-rule="evenodd" stroke="none"/>
    <path d="M-65.45 6.75 L-73.9 2.6 Q-78.7 0.0 -84.55 -4.45 -97.75 -14.5 -99.65 -20.25 -90.8 -17.7 -74.85 -19.2 -67.9 -19.85 -60.8 -23.2 -52.2 -27.3 -49.15 -33.2 -45.85 -26.25 -38.8 -21.95 -29.45 -16.15 -21.55 -13.6 -10.45 -10.1 -5.6 -10.2 -0.35 -10.3 8.35 -13.7 5.45 -9.7 1.15 -0.55 -3.2 6.35 -10.65 13.2 -18.65 20.45 -24.5 20.65 -27.1 20.75 -31.55 19.55 L-38.55 17.55 Q-47.45 15.6 -65.45 6.75" fill="#fff393" fill-rule="evenodd" stroke="none"/>
    <path d="M-55.05 3.1 L-48.1 3.45 -31.35 2.75 -17.05 -0.05 Q-8.4 -0.7 -4.5 -2.2 -10.15 3.2 -17.95 5.2 -23.75 6.7 -33.5 6.7 -49.25 6.7 -61.55 4.0 -59.6 2.95 -55.05 3.1" fill="#ffe855" fill-rule="evenodd" stroke="none"/>
    <path d="M-64.05 -2.5 L-60.7 -2.95 -57.05 -2.8 -48.4 -3.15 -40.95 -4.6 Q-36.5 -4.95 -34.45 -5.7 -39.2 -1.1 -49.5 -1.1 -57.75 -1.1 -64.05 -2.5" fill="#fffad3" fill-rule="evenodd" stroke="none"/>
  </g>
</svg>
