<?xml version="1.0" encoding="UTF-8" standalone="no"?>
<svg xmlns:ffdec="https://www.free-decompiler.com/flash" xmlns:xlink="http://www.w3.org/1999/xlink" ffdec:objectType="shape" height="76.5px" width="125.3px" xmlns="http://www.w3.org/2000/svg">
  <g transform="matrix(1.0, 0.0, 0.0, 1.0, 65.65, 38.25)">
    <path d="M-25.3 -24.6 Q-24.3 -26.15 -23.7 -28.35 L-22.7 -31.75 Q-21.4 -35.45 -17.2 -37.15 -13.7 -38.6 -9.95 -37.95 -6.2 -37.25 -3.4 -34.7 -2.45 -33.8 1.1 -28.5 3.45 -24.95 7.2 -23.85 L14.3 -23.6 21.05 -25.5 Q24.95 -26.4 28.25 -24.8 31.85 -23.05 32.75 -19.05 33.7 -14.95 30.5 -12.55 L27.6 -10.55 Q25.9 -9.25 25.1 -7.95 22.9 -4.2 25.75 -0.85 27.4 1.05 31.35 4.4 35.9 9.65 34.75 18.15 33.25 29.55 26.55 34.6 19.7 39.7 8.9 37.1 -1.3 34.7 -5.35 25.55 -6.3 23.4 -6.4 19.1 -6.45 14.4 -7.0 12.5 -9.95 3.2 -17.0 2.75 -25.15 2.2 -26.05 10.25 L-26.25 18.15 Q-26.85 22.7 -30.3 24.7 -32.55 26.0 -36.9 26.0 L-43.55 25.15 Q-47.55 24.1 -50.1 21.65 -53.25 18.65 -52.95 14.75 -52.7 11.25 -49.65 8.7 -45.8 6.05 -44.15 4.25 -40.85 0.55 -42.5 -1.7 -43.8 -3.4 -48.6 -4.75 L-57.25 -6.85 Q-62.1 -8.2 -63.35 -9.95 -68.0 -16.2 -63.0 -23.75 -58.2 -31.05 -50.85 -31.1 -48.1 -31.1 -44.15 -28.5 L-37.45 -23.6 Q-33.55 -20.9 -31.0 -20.8 -27.7 -20.7 -25.3 -24.6" fill="#d40026" fill-rule="evenodd" stroke="none"/>
    <path d="M36.5 -4.2 Q36.75 -8.3 40.9 -10.0 44.6 -11.5 49.55 -10.45 54.55 -9.25 57.4 -6.15 60.6 -2.6 59.25 2.05 57.85 7.05 53.3 8.6 49.35 9.95 44.55 8.25 39.8 6.6 37.4 3.25 34.75 -0.4 36.5 -4.2" fill="#a4001d" fill-rule="evenodd" stroke="none"/>
    <path d="M35.95 -5.45 Q36.15 -9.05 39.8 -10.5 43.05 -11.85 47.35 -10.9 51.8 -9.9 54.25 -7.15 57.05 -4.05 55.9 0.05 54.65 4.45 50.65 5.8 L42.95 5.5 Q38.85 4.05 36.7 1.1 34.4 -2.1 35.95 -5.45" fill="#d40026" fill-rule="evenodd" stroke="none"/>
    <path d="M23.35 36.7 Q15.35 40.2 8.75 35.9 15.65 37.35 21.05 34.2 25.85 31.35 28.65 25.4 31.15 19.85 31.2 13.35 31.2 6.8 28.55 1.85 39.0 9.95 33.45 26.1 30.9 33.35 23.35 36.7" fill="#a4001d" fill-rule="evenodd" stroke="none"/>
    <path d="M25.35 -13.05 Q28.75 -16.25 29.2 -18.8 29.7 -21.55 27.25 -25.7 32.35 -24.85 33.3 -20.75 34.2 -16.75 30.45 -13.9 21.35 -6.9 26.2 -0.35 18.8 -6.95 25.35 -13.05" fill="#a4001d" fill-rule="evenodd" stroke="none"/>
    <path d="M-2.6 -35.4 Q-0.4 -33.35 4.55 -26.45 6.25 -24.8 10.55 -22.4 6.4 -20.75 3.8 -22.3 2.5 -23.05 -1.65 -27.7 -3.75 -31.1 -5.5 -32.6 -8.25 -35.1 -16.55 -37.05 -7.85 -40.1 -2.6 -35.4" fill="#a4001d" fill-rule="evenodd" stroke="none"/>
    <path d="M-53.95 -4.35 Q-59.4 -5.7 -62.85 -9.4 -67.0 -13.95 -65.0 -19.3 -65.75 -14.05 -57.3 -10.8 -52.8 -9.05 -44.85 -7.05 -39.0 -4.7 -39.75 0.55 -40.55 5.85 -47.1 6.15 -41.1 2.15 -45.05 -0.85 -47.3 -2.55 -53.95 -4.35" fill="#a4001d" fill-rule="evenodd" stroke="none"/>
    <path d="M-47.0 23.65 Q-44.75 25.25 -40.5 25.2 -36.2 25.2 -33.8 23.65 -31.3 22.05 -31.6 17.9 -32.05 11.7 -31.8 10.7 -30.15 3.75 -23.4 1.05 -16.3 -1.8 -12.25 4.9 L-17.8 4.35 Q-21.15 4.5 -23.3 7.75 -24.75 10.0 -24.6 13.95 -24.35 19.0 -24.65 20.3 -26.1 26.7 -33.95 27.6 -41.65 28.5 -47.0 23.65" fill="#a4001d" fill-rule="evenodd" stroke="none"/>
    <path d="M-55.45 -28.45 Q-49.6 -31.1 -45.8 -26.25 -56.1 -28.35 -62.1 -21.0 -60.85 -26.05 -55.45 -28.45" fill="#e98180" fill-rule="evenodd" stroke="none"/>
    <path d="M6.75 27.95 Q12.45 30.55 22.75 28.3 21.65 32.75 14.65 33.35 8.55 33.95 4.0 31.85 -6.55 26.95 -3.1 16.95 1.35 25.45 6.75 27.95" fill="#e98180" fill-rule="evenodd" stroke="none"/>
  </g>
</svg>
