<?xml version="1.0" encoding="UTF-8" standalone="no"?>
<svg xmlns:ffdec="https://www.free-decompiler.com/flash" xmlns:xlink="http://www.w3.org/1999/xlink" ffdec:objectType="shape" height="65.05px" width="118.4px" xmlns="http://www.w3.org/2000/svg">
  <g transform="matrix(1.0, 0.0, 0.0, 1.0, 62.45, 33.4)">
    <path d="M18.45 -20.65 L18.8 -20.8 20.5 -20.65 20.75 -20.3 20.75 -19.95 20.2 -19.7 18.45 -19.25 18.25 -19.6 Q18.05 -20.25 18.45 -20.65 M14.2 -12.75 L14.25 -12.4 13.8 -11.75 13.55 -11.45 13.05 -11.3 Q12.1 -11.4 11.85 -12.25 11.65 -13.25 12.55 -13.55 L13.05 -13.7 Q13.85 -13.55 14.2 -12.75 M0.45 -17.7 L0.55 -18.0 1.05 -18.4 2.75 -18.25 2.95 -17.9 2.95 -17.55 Q1.75 -16.4 0.45 -17.7 M30.55 -18.15 L30.15 -17.45 29.85 -17.2 29.35 -17.05 Q28.4 -17.2 28.15 -18.05 27.95 -19.0 28.9 -19.35 L29.35 -19.45 Q30.2 -19.3 30.55 -18.5 L30.55 -18.15 M39.25 -3.85 L39.85 -3.85 40.15 -3.5 40.2 -3.15 40.15 -2.8 39.85 -2.45 39.25 -2.45 Q38.85 -2.95 39.05 -3.5 L39.15 -3.75 39.25 -3.85 M47.55 -8.2 L48.25 -7.6 48.35 -7.45 49.45 -7.25 49.7 -6.85 49.7 -6.5 Q49.05 -5.7 47.85 -6.25 L46.85 -7.45 46.65 -7.7 Q46.8 -8.35 47.55 -8.2 M40.9 -9.05 L41.0 -9.35 41.55 -9.75 42.25 -9.65 42.5 -9.25 42.5 -8.9 Q41.7 -8.05 40.9 -9.05 M43.95 -4.95 Q46.4 -4.65 47.75 -2.45 L47.75 -2.2 47.3 -2.05 46.2 -2.35 Q45.85 -3.75 44.05 -3.4 43.35 -3.85 43.5 -4.45 43.55 -4.95 43.95 -4.95 M52.9 -4.5 L53.2 -4.75 53.55 -4.85 53.75 -4.85 54.1 -4.5 53.55 -3.85 52.9 -4.5 M54.35 2.95 L54.45 2.65 Q54.7 2.3 54.95 2.25 L55.7 2.35 55.95 2.75 55.95 3.1 Q55.15 3.95 54.35 2.95 M47.9 2.45 L48.25 2.35 48.5 2.35 48.85 2.7 48.25 3.35 47.65 2.7 47.9 2.45 M42.4 4.2 L42.5 3.9 42.6 3.85 43.2 3.8 43.5 4.2 43.55 4.55 43.5 4.85 43.2 5.25 42.6 5.25 Q42.25 4.75 42.4 4.2 M30.9 10.55 Q30.55 10.05 30.65 9.45 L30.65 9.1 31.3 8.65 31.55 8.6 31.85 8.95 31.85 9.65 31.85 10.05 30.9 10.55 M25.5 12.2 L25.65 12.55 25.4 13.15 24.65 13.4 24.45 13.05 24.35 12.7 23.65 12.25 23.45 11.95 23.65 11.7 24.05 11.45 24.1 11.35 Q25.1 11.35 25.5 12.2 M22.15 19.55 L22.65 19.4 Q23.45 19.6 23.8 20.35 L23.85 20.7 23.4 21.35 23.15 21.65 22.65 21.8 Q21.7 21.7 21.45 20.85 21.25 19.9 22.15 19.55 M28.8 22.85 L28.9 22.65 29.0 22.55 29.6 22.55 29.95 22.85 29.95 23.95 29.95 24.3 29.35 24.95 28.75 24.7 28.8 22.85 M15.9 3.45 L16.05 3.8 15.05 4.3 14.45 3.55 14.35 3.2 Q14.2 2.4 14.95 2.35 L15.2 2.35 15.9 3.45 M10.4 1.9 L9.3 1.9 Q8.95 1.4 9.1 0.85 L9.2 0.55 9.35 0.5 9.7 0.45 9.95 0.45 10.25 0.8 10.65 1.15 10.65 1.5 10.4 1.9 M18.9 8.95 L18.35 9.55 17.7 8.95 18.0 8.7 18.35 8.6 18.55 8.6 18.9 8.95 M6.1 11.5 L6.55 11.85 6.8 12.2 6.8 12.55 6.55 12.95 5.95 12.95 5.35 12.15 5.25 11.85 5.5 11.6 6.1 11.5 M9.55 23.85 L9.55 23.5 10.15 23.05 10.4 23.0 Q11.0 24.2 12.05 25.2 L12.2 25.5 Q12.35 26.55 11.25 26.35 L9.55 24.55 9.55 23.85 M7.3 23.25 Q6.5 24.1 5.7 23.1 L5.8 22.8 Q6.1 22.45 6.35 22.4 L7.05 22.55 7.3 22.9 7.3 23.25 M16.9 15.8 L17.15 15.8 17.45 16.15 16.9 16.75 16.25 16.15 16.55 15.9 16.9 15.8 M18.45 30.8 L18.8 30.7 19.05 30.7 19.4 31.05 18.8 31.65 18.2 31.05 18.45 30.8 M-62.15 -21.55 L-61.85 -21.65 -61.6 -21.65 -61.25 -21.3 -61.85 -20.65 -62.45 -21.3 -62.15 -21.55 M-49.35 -16.45 L-48.85 -16.6 Q-48.05 -16.4 -47.7 -15.65 L-47.65 -15.3 -48.1 -14.55 -48.4 -14.35 -48.85 -14.2 Q-49.85 -14.3 -50.05 -15.15 -50.25 -16.1 -49.35 -16.45 M-53.55 -19.7 L-54.55 -19.25 -54.85 -19.95 Q-55.8 -20.25 -56.2 -21.05 L-56.05 -22.0 -55.6 -22.1 -55.35 -22.1 -55.05 -21.75 -55.0 -21.55 -53.9 -21.15 -53.55 -20.8 -53.55 -19.7 M-40.8 -8.3 L-40.7 -8.55 -40.55 -8.65 -40.0 -8.65 -39.7 -8.3 -39.65 -7.95 -39.7 -7.6 -40.0 -7.25 -40.6 -7.25 Q-40.95 -7.75 -40.8 -8.3 M-10.45 -33.4 Q-9.65 -33.2 -9.3 -32.45 L-9.25 -32.1 -9.7 -31.35 -10.0 -31.15 -10.45 -31.0 Q-11.45 -31.1 -11.65 -31.95 -11.85 -32.9 -10.95 -33.25 L-10.45 -33.4 M-18.55 -31.85 Q-18.6 -31.25 -18.2 -30.7 L-18.05 -30.4 -18.65 -29.8 -19.25 -30.05 Q-19.85 -30.85 -19.7 -31.8 L-19.6 -32.1 -19.45 -32.15 -18.85 -32.2 -18.55 -31.85 M-25.25 -21.75 L-25.85 -21.15 -26.45 -21.75 -26.15 -22.0 -25.85 -22.1 -25.6 -22.1 -25.25 -21.75 M-38.95 -14.55 L-38.65 -14.8 -38.3 -14.9 -38.05 -14.9 -37.75 -14.55 -38.3 -13.95 -38.95 -14.55 M-36.9 -14.15 L-36.4 -14.55 -35.65 -14.45 -35.45 -14.05 -35.45 -13.7 Q-36.2 -12.85 -37.0 -13.85 L-36.9 -14.15 M-25.35 -5.95 L-24.65 -5.8 -24.3 -5.45 Q-24.55 -4.8 -25.05 -4.3 L-25.35 -4.0 -26.45 -4.25 Q-26.55 -4.85 -26.15 -5.3 L-25.85 -5.7 -25.4 -5.85 -25.35 -5.95 M-8.55 -23.15 L-8.55 -22.85 Q-9.35 -22.0 -10.15 -22.95 L-10.05 -23.25 -9.5 -23.7 -8.8 -23.55 -8.55 -23.15 M-17.95 -17.55 L-17.9 -17.2 -18.35 -16.5 -18.65 -16.25 -19.1 -16.1 Q-20.1 -16.2 -20.3 -17.05 -20.5 -18.05 -19.6 -18.35 L-19.1 -18.5 Q-18.3 -18.35 -17.95 -17.55 M-10.45 -11.15 L-10.0 -11.3 Q-8.85 -11.4 -8.4 -10.35 L-8.3 -10.0 -8.75 -9.35 -9.05 -9.05 Q-10.6 -8.55 -11.2 -9.85 -11.4 -10.85 -10.45 -11.15 M-3.75 5.6 L-3.05 5.75 -2.75 6.1 -2.7 6.45 -2.75 6.8 -3.05 7.15 -3.65 7.15 Q-4.55 6.6 -4.1 5.95 L-3.75 5.6 M-3.4 16.85 L-3.3 16.55 -2.8 16.15 -2.05 16.3 -1.85 16.65 -1.85 17.0 Q-2.6 17.85 -3.4 16.85 M-33.65 11.9 Q-32.85 12.05 -32.5 12.85 L-32.45 13.2 -32.9 13.85 -33.2 14.15 -33.65 14.3 Q-34.65 14.2 -34.85 13.35 -35.05 12.35 -34.15 12.05 L-33.65 11.9 M-38.45 22.6 L-38.35 22.95 -38.45 23.25 -38.7 23.65 -39.35 23.65 Q-39.7 23.15 -39.55 22.55 L-39.45 22.3 -39.3 22.25 -38.7 22.2 -38.45 22.6 M-49.95 17.15 L-50.15 16.95 -49.95 16.65 -49.55 16.4 -49.5 16.3 -45.65 18.4 -45.65 18.6 -47.55 18.7 Q-48.0 18.45 -48.45 18.35 L-49.95 17.15" fill="#a4001d" fill-rule="evenodd" stroke="none"/>
  </g>
</svg>
