<?xml version="1.0" encoding="UTF-8" standalone="no"?>
<svg xmlns:ffdec="https://www.free-decompiler.com/flash" xmlns:xlink="http://www.w3.org/1999/xlink" ffdec:objectType="shape" height="81.2px" width="87.65px" xmlns="http://www.w3.org/2000/svg">
  <g transform="matrix(1.0, 0.0, 0.0, 1.0, 21.8, 23.6)">
    <path d="M-0.4 16.9 Q-4.85 18.8 -6.1 21.25 -7.3 23.6 -4.8 27.65 1.05 36.95 18.85 40.9 36.65 44.85 47.15 39.1 49.9 37.65 52.85 38.55 55.85 39.4 57.3 42.15 58.8 44.9 57.9 47.85 57.05 50.85 54.3 52.3 47.1 56.2 36.9 57.1 26.65 57.95 15.75 55.6 -8.2 50.4 -17.5 35.6 -24.55 24.3 -19.4 14.35 -15.85 7.5 -7.2 3.5 0.0 0.2 8.3 -0.25 L21.05 -0.45 39.8 -1.3 Q48.95 -2.7 50.05 -4.85 L50.55 -6.0 Q50.15 -7.0 46.45 -9.65 43.2 -11.9 43.2 -15.8 43.2 -18.1 44.55 -20.05 46.35 -22.6 49.4 -23.15 52.45 -23.7 55.0 -21.95 70.55 -11.05 63.25 2.3 58.55 11.05 42.1 13.55 L21.0 14.55 Q12.0 14.55 9.1 14.7 4.0 15.0 -0.4 16.9" fill="#fffcf5" fill-rule="evenodd" stroke="none"/>
    <path d="M-0.4 16.9 Q4.0 15.0 9.1 14.7 12.0 14.55 21.0 14.55 L42.1 13.55 Q58.55 11.05 63.25 2.3 70.55 -11.05 55.0 -21.95 52.45 -23.7 49.4 -23.15 46.35 -22.6 44.55 -20.05 43.2 -18.1 43.2 -15.8 43.2 -11.9 46.45 -9.65 50.15 -7.0 50.55 -6.0 L50.05 -4.85 Q48.95 -2.7 39.8 -1.3 L21.05 -0.45 8.3 -0.25 Q0.0 0.2 -7.2 3.5 -15.85 7.5 -19.4 14.35 -24.55 24.3 -17.5 35.6 -8.2 50.4 15.75 55.6 26.65 57.95 36.9 57.1 47.1 56.2 54.3 52.3 57.05 50.85 57.9 47.85 58.8 44.9 57.3 42.15 55.85 39.4 52.85 38.55 49.9 37.65 47.15 39.1 36.65 44.85 18.85 40.9 1.05 36.95 -4.8 27.65 -7.3 23.6 -6.1 21.25 -4.85 18.8 -0.4 16.9 Z" ffdec:has-small-stroke="true" ffdec:original-stroke-width="0.5" fill="none" stroke="#fed184" stroke-linecap="round" stroke-linejoin="round" stroke-width="1.0"/>
    <path d="M49.05 -22.6 Q56.6 -18.15 59.65 -14.35 65.4 -7.1 59.95 0.95 57.9 3.95 52.95 6.25 48.6 8.25 44.2 8.8 L28.1 9.6 Q14.9 9.6 11.95 9.75 0.25 10.3 -6.5 15.45 -14.45 21.55 -7.9 30.35 -3.95 35.65 3.2 40.0 10.6 44.45 19.1 46.5 39.45 51.35 53.7 40.4" fill="none" stroke="#feecc9" stroke-linecap="round" stroke-linejoin="round" stroke-width="2.0"/>
    <path d="M45.05 -19.6 Q51.3 -14.6 53.0 -12.35 56.65 -7.5 54.2 -2.3 51.2 4.3 36.2 3.7 L3.45 4.7 Q-7.75 5.45 -13.3 12.8 -19.65 21.2 -13.05 33.45 -9.25 40.4 -0.2 45.6 8.4 50.5 19.3 52.45 30.4 54.4 40.25 52.6 50.9 50.65 57.4 44.7" fill="none" stroke="#feecc9" stroke-linecap="round" stroke-linejoin="round" stroke-width="2.0"/>
  </g>
</svg>
