<?xml version="1.0" encoding="UTF-8" standalone="no"?>
<svg xmlns:ffdec="https://www.free-decompiler.com/flash" xmlns:xlink="http://www.w3.org/1999/xlink" ffdec:objectType="shape" height="28.35px" width="28.05px" xmlns="http://www.w3.org/2000/svg">
  <g transform="matrix(1.0, 0.0, 0.0, 1.0, 14.0, 14.15)">
    <path d="M13.8 -2.9 Q14.3 0.2 13.3 1.5 14.1 6.85 13.05 7.95 13.0 12.5 12.1 13.35 11.45 14.0 8.7 13.95 5.95 13.9 5.3 13.3 0.45 14.65 -0.65 13.7 -6.5 14.35 -7.6 13.55 -12.25 13.4 -13.2 12.2 -13.9 11.4 -13.85 9.2 -13.8 7.1 -13.25 6.4 -14.3 1.55 -13.5 0.2 -14.45 -4.35 -13.1 -6.35 L-13.1 -9.3 Q-12.95 -12.3 -12.25 -12.85 -11.4 -13.45 -8.8 -13.7 -6.1 -14.0 -5.5 -13.35 L-2.7 -13.9 Q0.25 -14.3 0.9 -13.5 L3.35 -13.75 Q5.9 -13.9 6.6 -13.25 L9.4 -13.4 Q12.3 -13.35 13.0 -12.35 13.75 -11.25 13.7 -8.9 13.7 -6.7 13.1 -5.8 L13.8 -2.9" fill="#fee692" fill-rule="evenodd" stroke="none"/>
    <path d="M13.8 -2.9 Q14.3 0.2 13.3 1.5 14.1 6.85 13.05 7.95 13.0 12.5 12.1 13.35 11.45 14.0 8.7 13.95 5.95 13.9 5.3 13.3 0.45 14.65 -0.65 13.7 -6.5 14.35 -7.6 13.55 -12.25 13.4 -13.2 12.2 -13.9 11.4 -13.85 9.2 -13.8 7.1 -13.25 6.4 -14.3 1.55 -13.5 0.2 -14.45 -4.35 -13.1 -6.35 L-13.1 -9.3 Q-12.95 -12.3 -12.25 -12.85 -11.4 -13.45 -8.8 -13.7 -6.1 -14.0 -5.5 -13.35 L-2.7 -13.9 Q0.25 -14.3 0.9 -13.5 L3.35 -13.75 Q5.9 -13.9 6.6 -13.25 L9.4 -13.4 Q12.3 -13.35 13.0 -12.35 13.75 -11.25 13.7 -8.9 13.7 -6.7 13.1 -5.8 L13.8 -2.9 Z" ffdec:has-small-stroke="true" ffdec:original-stroke-width="0.25" fill="none" stroke="#fec076" stroke-linecap="round" stroke-linejoin="round" stroke-width="1.0"/>
    <path d="M12.9 -5.7 L13.6 -2.85 Q14.1 0.2 13.1 1.5 13.9 6.75 12.85 7.85 12.8 12.3 11.9 13.15 11.2 13.75 8.45 13.75 5.75 13.7 5.1 13.1 0.25 14.4 -0.85 13.5 -6.7 14.15 -7.8 13.35 -11.45 13.2 -12.95 12.4 L-10.1 12.35 Q-5.8 14.2 -2.0 12.4 0.5 13.2 4.35 11.9 7.2 12.4 9.3 12.0 10.7 11.75 11.2 10.2 11.7 8.8 11.15 7.2 11.95 5.15 11.45 2.35 13.0 -0.55 11.1 -5.1 12.35 -11.05 10.1 -13.15 12.25 -12.95 12.75 -12.15 13.5 -11.1 13.5 -8.75 13.45 -6.65 12.9 -5.7" fill="#fecc44" fill-rule="evenodd" stroke="none"/>
    <path d="M-6.6 -6.6 Q-6.7 -5.9 -7.35 -5.9 -8.05 -6.0 -8.05 -6.65 -7.95 -7.35 -7.3 -7.35 -6.6 -7.35 -6.6 -6.6" fill="#e59f40" fill-rule="evenodd" stroke="none"/>
    <path d="M0.8 -6.65 Q0.8 -5.9 0.1 -6.0 -0.6 -6.0 -0.6 -6.75 -0.6 -7.5 0.15 -7.4 0.9 -7.4 0.8 -6.65" fill="#e59f40" fill-rule="evenodd" stroke="none"/>
    <path d="M7.75 -6.5 Q7.75 -5.8 7.0 -5.8 6.25 -5.9 6.35 -6.55 6.35 -7.25 7.05 -7.25 7.75 -7.15 7.75 -6.5" fill="#e59f40" fill-rule="evenodd" stroke="none"/>
    <path d="M7.35 6.45 Q7.35 7.15 6.65 7.15 5.95 7.15 5.95 6.4 5.95 5.7 6.7 5.7 7.45 5.8 7.35 6.45" fill="#e59f40" fill-rule="evenodd" stroke="none"/>
    <path d="M-0.4 0.45 Q0.35 0.45 0.25 1.15 0.25 1.85 -0.45 1.85 -1.15 1.85 -1.15 1.1 -1.15 0.35 -0.4 0.45" fill="#e59f40" fill-rule="evenodd" stroke="none"/>
    <path d="M-6.75 6.55 Q-6.75 7.25 -7.5 7.25 -8.25 7.25 -8.15 6.5 -8.15 5.8 -7.45 5.8 -6.75 5.9 -6.75 6.55" fill="#e59f40" fill-rule="evenodd" stroke="none"/>
    <path d="M-0.25 8.15 Q-0.25 8.8 -0.85 8.7 -1.4 8.7 -1.4 8.1 -1.3 7.5 -0.8 7.6 -0.25 7.6 -0.25 8.15" fill="#e59f40" fill-rule="evenodd" stroke="none"/>
  </g>
</svg>
