<?xml version="1.0" encoding="UTF-8" standalone="no"?>
<svg xmlns:ffdec="https://www.free-decompiler.com/flash" xmlns:xlink="http://www.w3.org/1999/xlink" ffdec:objectType="shape" height="52.5px" width="41.4px" xmlns="http://www.w3.org/2000/svg">
  <g transform="matrix(1.0, 0.0, 0.0, 1.0, 20.7, 21.6)">
    <path d="M-19.75 3.95 Q-16.45 -10.05 -2.0 -6.25 1.5 -5.35 4.2 -3.85 21.35 14.9 2.25 29.55 -0.35 31.55 -3.8 30.6 -24.65 24.85 -19.75 3.95" fill="#ad5701" fill-opacity="0.23137255" fill-rule="evenodd" stroke="none"/>
    <path d="M-5.65 -18.6 Q2.55 -21.55 10.55 -16.05 18.2 -10.85 18.85 -2.7 19.3 2.6 14.5 10.95 L11.25 16.4 Q9.2 19.2 6.35 20.0 -0.25 21.85 -9.5 15.8 -19.2 9.45 -18.7 1.8 L-18.2 -3.75 Q-17.85 -5.45 -16.0 -8.7 -11.45 -16.55 -5.65 -18.6" fill="#b04e18" fill-rule="evenodd" stroke="none"/>
    <path d="M-5.65 -18.6 Q-11.45 -16.55 -16.0 -8.7 -17.85 -5.45 -18.2 -3.75 L-18.7 1.8 Q-19.2 9.45 -9.5 15.8 -0.25 21.85 6.35 20.0 9.2 19.2 11.25 16.4 L14.5 10.95 Q19.3 2.6 18.85 -2.7 18.2 -10.85 10.55 -16.05 2.55 -21.55 -5.65 -18.6 Z" fill="none" stroke="#851d1c" stroke-linecap="round" stroke-linejoin="round" stroke-width="1.0"/>
    <path d="M9.1 17.25 Q9.25 19.55 7.05 20.65 6.05 21.15 5.15 20.65 4.2 20.15 3.55 20.4 0.1 21.9 -2.6 20.4 L-5.9 18.6 Q-11.0 18.95 -13.55 13.25 -18.15 11.75 -18.8 8.6 -18.5 5.4 -18.55 4.75 -18.55 4.45 -19.35 3.95 -20.15 3.4 -20.2 2.95 -20.4 0.05 -18.55 -0.75 -7.1 -0.75 1.0 4.5 9.1 9.8 9.1 17.25" fill="#b04e18" fill-rule="evenodd" stroke="none"/>
    <path d="M-18.55 -0.75 Q-20.4 0.05 -20.2 2.95 -20.15 3.4 -19.35 3.95 -18.55 4.45 -18.55 4.75 -18.5 5.4 -18.8 8.6 -18.15 11.75 -13.55 13.25 -11.0 18.95 -5.9 18.6 L-2.6 20.4 Q0.1 21.9 3.55 20.4 4.2 20.15 5.15 20.65 6.05 21.15 7.05 20.65 9.25 19.55 9.1 17.25" fill="none" stroke="#851d1c" stroke-linecap="round" stroke-linejoin="round" stroke-width="1.0"/>
    <path d="M-3.9 -10.0 Q-8.25 -9.25 -11.45 -5.65 L-17.45 0.65 Q-17.85 -3.8 -12.85 -8.45 -7.6 -13.3 -3.9 -10.0" fill="#c1703a" fill-rule="evenodd" stroke="none"/>
    <path d="M-3.35 -8.7 Q-7.7 -7.95 -11.9 -3.35 L-18.85 3.95 Q-19.3 -0.5 -13.25 -6.15 -7.05 -12.0 -3.35 -8.7" fill="#9e3100" fill-rule="evenodd" stroke="none"/>
    <path d="M1.0 -3.35 Q-3.5 -2.15 -7.2 2.55 -12.75 9.65 -13.9 10.65 -14.0 5.45 -8.4 -0.65 -2.55 -7.0 1.0 -3.35" fill="#c1703a" fill-rule="evenodd" stroke="none"/>
    <path d="M2.6 -2.0 Q-1.9 -0.8 -5.55 3.9 -11.2 11.15 -12.25 12.05 -12.35 6.8 -6.75 0.75 -0.95 -5.6 2.6 -2.0" fill="#9e3100" fill-rule="evenodd" stroke="none"/>
    <path d="M-5.9 14.75 Q-1.4 12.7 1.3 9.25 4.35 4.75 6.7 1.75 7.65 6.75 3.05 12.15 -1.7 17.75 -5.9 14.75" fill="#c1703a" fill-rule="evenodd" stroke="none"/>
    <path d="M11.15 14.2 Q9.1 17.25 6.75 18.45 L2.0 18.3 Q10.35 14.4 13.55 1.65 15.9 7.05 11.15 14.2" fill="#c1703a" fill-rule="evenodd" stroke="none"/>
    <path d="M-7.4 13.1 Q-2.9 11.0 -0.2 7.55 2.85 3.05 5.2 0.1 6.15 5.1 1.55 10.5 -3.2 16.1 -7.4 13.1" fill="#9e3100" fill-rule="evenodd" stroke="none"/>
    <path d="M10.05 13.4 Q5.25 20.6 0.9 17.5 9.25 13.6 12.45 0.85 14.8 6.3 10.05 13.4" fill="#9e3100" fill-rule="evenodd" stroke="none"/>
    <path d="M18.85 -2.7 L-0.85 -11.15 -5.9 -18.4 Q-4.65 -18.9 -2.25 -20.85 L0.05 -20.75 Q1.05 -19.65 1.75 -19.45 L3.95 -19.5 6.1 -19.45 Q7.05 -19.1 7.9 -18.0 8.8 -16.7 9.4 -16.4 10.1 -16.0 11.8 -15.95 13.3 -15.95 14.1 -15.2 14.8 -14.55 15.0 -13.2 15.25 -11.7 15.75 -11.05 16.2 -10.5 18.0 -9.65 19.55 -8.95 19.9 -8.0 20.85 -5.4 18.85 -2.7" fill="#b04e18" fill-rule="evenodd" stroke="none"/>
    <path d="M18.85 -2.7 Q20.85 -5.4 19.9 -8.0 19.55 -8.95 18.0 -9.65 16.2 -10.5 15.75 -11.05 15.25 -11.7 15.0 -13.2 14.8 -14.55 14.1 -15.2 13.3 -15.95 11.8 -15.95 10.1 -16.0 9.4 -16.4 8.8 -16.7 7.9 -18.0 7.05 -19.1 6.1 -19.45 L3.95 -19.5 1.75 -19.45 Q1.05 -19.65 0.05 -20.75 L-2.25 -20.85 Q-4.65 -18.9 -5.9 -18.4" fill="none" stroke="#851d1c" stroke-linecap="round" stroke-linejoin="round" stroke-width="1.0"/>
    <path d="M15.65 -7.25 Q16.3 -3.45 13.25 -2.7 10.6 -2.0 6.2 -3.7 1.95 -5.3 -1.25 -8.05 -4.75 -11.0 -4.8 -13.55 -4.85 -16.65 -1.7 -17.25 1.05 -17.75 5.3 -16.2 9.4 -14.75 12.35 -12.3 15.6 -9.65 15.65 -7.25" fill="#9e3100" fill-rule="evenodd" stroke="none"/>
    <path d="M15.65 -7.25 Q15.6 -9.65 12.35 -12.3 9.4 -14.75 5.3 -16.2 1.05 -17.75 -1.7 -17.25 -4.85 -16.65 -4.8 -13.55 -4.75 -11.0 -1.25 -8.05 1.95 -5.3 6.2 -3.7 10.6 -2.0 13.25 -2.7 16.3 -3.45 15.65 -7.25 Z" fill="none" stroke="#851d1c" stroke-linecap="round" stroke-linejoin="round" stroke-width="1.0"/>
  </g>
</svg>
