<?xml version="1.0" encoding="UTF-8" standalone="no"?>
<svg xmlns:ffdec="https://www.free-decompiler.com/flash" xmlns:xlink="http://www.w3.org/1999/xlink" ffdec:objectType="shape" height="57.7px" width="68.75px" xmlns="http://www.w3.org/2000/svg">
  <g transform="matrix(1.0, 0.0, 0.0, 1.0, 32.1, 29.75)">
    <path d="M3.7 -26.75 L2.35 -25.95 Q0.75 -24.85 -0.25 -25.95 L1.0 -26.8 Q1.5 -27.3 2.35 -27.25 3.0 -27.2 3.7 -26.75 M-24.6 -16.4 L-24.85 -15.55 -24.65 -16.35 -24.6 -16.4 M-25.85 -12.45 L-25.9 -12.25 -26.3 -12.2 -25.85 -12.45 M-29.3 -7.7 L-27.05 -3.4 Q-27.85 -2.65 -28.9 -2.25 -31.1 -1.4 -31.75 0.65 -32.0 1.45 -31.4 1.95 -28.85 4.1 -26.55 6.3 -26.35 6.5 -26.4 6.8 L-27.05 10.75 Q-27.2 11.45 -26.7 11.9 -23.8 14.45 -20.4 16.2 -20.65 19.15 -18.85 20.7 L-19.05 20.65 Q-21.3 19.95 -22.1 18.8 L-23.4 15.35 Q-23.95 13.8 -26.25 12.9 -28.9 11.9 -28.65 10.85 -27.8 9.2 -27.8 7.4 -27.75 5.1 -28.85 4.2 -30.35 3.35 -31.25 2.3 -32.85 0.4 -31.4 -1.2 L-28.75 -4.05 Q-28.3 -5.15 -29.2 -7.4 L-29.3 -7.7 M-15.5 22.1 Q-13.3 22.45 -11.45 23.6 L-10.65 24.05 -9.85 24.45 -12.6 24.35 Q-13.65 24.1 -14.35 23.45 L-15.65 22.1 -15.5 22.1 M-6.1 25.5 L-5.65 25.8 -4.15 26.05 Q-3.55 26.15 -3.1 26.45 -1.15 27.8 1.1 27.8 L-2.1 27.65 Q-3.5 27.35 -5.55 25.9 L-6.1 25.5 M16.85 -25.75 L16.1 -25.8 14.85 -26.0 16.1 -26.05 16.9 -26.15 16.85 -25.75 M12.1 -26.75 L10.15 -27.45 11.05 -27.2 12.1 -26.75 M-7.4 21.2 L-7.25 21.1 -7.25 21.15 -7.4 21.2" fill="#c4e668" fill-rule="evenodd" stroke="none"/>
    <path d="M27.0 -6.95 Q29.95 -6.8 28.25 -4.6 28.0 -4.25 27.5 -4.4 26.6 -4.65 26.1 -5.55 L26.05 -5.75 Q25.95 -6.3 26.4 -6.7 L26.55 -6.8 26.7 -6.85 27.0 -6.9 27.0 -6.95 M26.35 0.75 L26.35 0.35 Q26.9 -0.3 27.75 -0.4 28.8 0.1 28.5 1.25 L28.45 1.45 Q27.15 2.1 26.35 0.95 L26.35 0.75 M-21.75 -6.7 L-21.75 -6.75 -21.7 -6.75 -21.75 -6.7 M-5.95 -21.25 L-6.0 -21.2 -6.0 -21.25 -5.95 -21.25 M-15.9 -18.25 L-15.5 -18.55 -15.25 -18.65 Q-14.4 -18.6 -13.8 -18.05 L-13.65 -17.9 -13.65 -17.7 -13.65 -17.5 -13.4 -17.1 -13.4 -16.95 -13.6 -16.6 -13.75 -16.45 Q-14.95 -16.15 -15.8 -16.95 L-15.9 -17.5 -15.9 -18.25 M-1.7 12.55 L-1.75 12.6 -1.75 12.55 -1.7 12.55" fill="#f9e080" fill-rule="evenodd" stroke="none"/>
    <path d="M-15.7 22.05 L-15.5 22.1 -15.65 22.1 -15.7 22.05 M1.1 27.8 L1.25 27.75 1.1 27.8" fill="#eef4b9" fill-rule="evenodd" stroke="none"/>
    <path d="M11.5 24.15 Q10.0 23.9 9.8 22.5 9.95 22.1 10.3 21.95 L10.75 21.8 Q12.65 21.65 12.95 23.15 L12.9 23.85 Q12.65 24.2 12.0 24.2 L11.5 24.15 M15.55 -23.5 L15.55 -23.7 15.6 -23.9 15.75 -24.05 16.2 -24.35 16.5 -24.45 Q19.4 -24.8 18.85 -22.45 18.65 -21.55 17.75 -21.3 16.85 -21.6 16.25 -22.3 L15.6 -23.15 15.55 -23.3 15.55 -23.5 M12.2 -14.6 L12.5 -14.7 Q14.85 -14.75 15.65 -12.55 L15.7 -12.4 Q15.5 -11.65 14.75 -11.5 11.6 -10.95 11.05 -13.75 11.4 -14.4 12.2 -14.6 M3.75 -6.75 Q6.85 -7.0 6.8 -3.8 6.75 -1.4 5.0 -1.55 L4.35 -1.45 Q1.5 -1.3 1.65 -4.05 L1.25 -4.5 Q0.9 -4.95 1.05 -5.5 L2.15 -6.35 3.75 -6.75 M15.5 5.55 Q18.05 5.85 17.3 8.35 L17.25 8.55 Q15.75 9.35 14.35 8.2 L14.4 7.1 14.6 6.1 15.2 5.65 15.5 5.55 M-21.7 -6.75 Q-18.0 -5.35 -19.3 -1.4 -19.45 -1.0 -19.85 -1.0 L-22.8 -1.35 -23.55 -1.55 Q-24.3 -1.8 -24.85 -2.4 -25.45 -2.95 -25.2 -3.75 L-25.0 -4.0 -24.85 -4.2 -24.15 -5.0 -23.75 -5.4 -21.75 -6.7 -21.7 -6.75 M-6.0 -21.2 L-5.95 -21.25 Q-3.35 -20.2 -3.0 -17.2 -2.85 -16.2 -3.5 -15.5 -3.65 -12.8 -6.0 -13.8 L-6.8 -14.15 Q-8.9 -15.15 -9.85 -17.05 -10.1 -17.6 -9.75 -18.1 L-8.9 -19.1 Q-8.65 -19.85 -7.85 -20.15 L-6.55 -21.15 -6.4 -21.15 -6.0 -21.2 M-5.5 -0.45 Q-4.35 -0.6 -4.1 0.45 L-4.05 0.6 Q-3.6 1.0 -3.6 1.55 L-3.75 2.3 Q-6.45 3.25 -7.2 0.5 -6.65 -0.4 -5.5 -0.4 L-5.5 -0.45 M-20.25 11.6 L-21.4 10.45 -21.5 9.85 -21.4 9.1 -21.05 8.8 Q-20.75 8.6 -20.5 8.55 -18.4 9.15 -18.7 11.1 L-18.75 11.3 Q-19.6 11.75 -20.25 11.6 M-1.75 12.6 L-1.7 12.55 Q0.9 12.85 -0.75 14.9 -1.0 15.25 -1.45 15.1 -3.5 14.3 -2.2 12.7 L-1.75 12.6 M-7.25 21.1 Q-6.5 20.9 -6.0 21.45 L-5.9 21.6 -5.9 21.75 -5.85 22.2 Q-5.8 22.6 -6.05 22.95 -7.3 23.4 -7.8 22.05 L-7.9 21.7 -7.85 21.5 -7.4 21.2 -7.25 21.15 -7.25 21.1" fill="#fea750" fill-rule="evenodd" stroke="none"/>
    <path d="M3.7 -26.75 L4.4 -26.1 6.65 -26.0 8.65 -27.3 10.15 -27.45 12.1 -26.75 13.45 -26.25 14.85 -26.0 16.1 -25.8 16.85 -25.75 17.85 -25.4 Q20.8 -23.45 20.7 -19.7 L20.6 -18.75 Q22.45 -17.25 23.0 -15.05 L23.1 -13.3 Q25.25 -11.2 25.1 -8.25 25.05 -6.8 24.55 -5.45 26.0 -1.8 23.9 1.4 22.55 3.4 21.75 5.6 22.6 9.15 21.5 12.5 21.1 13.8 20.05 14.8 L17.7 16.85 Q17.35 19.3 16.35 21.45 L15.55 22.4 Q14.3 23.35 12.9 23.85 L12.95 23.15 Q12.65 21.65 10.75 21.8 L10.3 21.95 Q9.95 22.1 9.8 22.5 10.0 23.9 11.5 24.15 L8.05 24.0 7.35 24.1 5.1 25.65 5.0 25.65 Q4.3 25.7 3.15 26.65 1.95 27.6 1.25 27.75 L1.1 27.8 Q-1.15 27.8 -3.1 26.45 -3.55 26.15 -4.15 26.05 L-5.65 25.8 -6.1 25.5 -9.05 24.4 -9.85 24.45 -10.65 24.05 -11.45 23.6 Q-13.3 22.45 -15.5 22.1 L-15.7 22.05 -15.85 21.95 -15.9 21.9 -16.0 21.85 -17.9 21.05 -18.85 20.75 -18.85 20.7 Q-20.65 19.15 -20.4 16.2 -23.8 14.45 -26.7 11.9 -27.2 11.45 -27.05 10.75 L-26.4 6.8 Q-26.35 6.5 -26.55 6.3 -28.85 4.1 -31.4 1.95 -32.0 1.45 -31.75 0.65 -31.1 -1.4 -28.9 -2.25 -27.85 -2.65 -27.05 -3.4 L-29.3 -7.7 Q-29.9 -9.5 -29.0 -10.75 -28.55 -11.3 -26.95 -11.95 L-26.3 -12.2 -25.9 -12.25 -25.85 -12.45 Q-25.25 -12.8 -25.0 -13.15 -24.55 -13.75 -24.75 -14.75 L-24.85 -15.55 -24.6 -16.4 -23.05 -17.35 -21.25 -18.0 Q-20.5 -18.4 -19.15 -20.4 L-18.55 -21.85 Q-18.4 -22.25 -16.9 -22.45 -15.8 -22.6 -14.05 -23.6 -13.15 -23.7 -11.15 -24.9 -9.35 -25.65 -8.6 -24.35 -6.25 -27.8 -5.7 -27.95 -4.55 -28.25 -2.95 -26.85 -1.4 -25.5 -0.25 -25.95 0.75 -24.85 2.35 -25.95 L3.7 -26.75 M3.75 -6.75 L2.15 -6.35 1.05 -5.5 Q0.9 -4.95 1.25 -4.5 L1.65 -4.05 Q1.5 -1.3 4.35 -1.45 L5.0 -1.55 Q6.75 -1.4 6.8 -3.8 6.85 -7.0 3.75 -6.75 M12.2 -14.6 Q11.4 -14.4 11.05 -13.75 11.6 -10.95 14.75 -11.5 15.5 -11.65 15.7 -12.4 L15.65 -12.55 Q14.85 -14.75 12.5 -14.7 L12.2 -14.6 M15.55 -23.5 L15.55 -23.3 15.6 -23.15 16.25 -22.3 Q16.85 -21.6 17.75 -21.3 18.65 -21.55 18.85 -22.45 19.4 -24.8 16.5 -24.45 L16.2 -24.35 15.75 -24.05 15.6 -23.9 15.55 -23.7 15.55 -23.5 M15.5 5.55 L15.2 5.65 14.6 6.1 14.4 7.1 14.35 8.2 Q15.75 9.35 17.25 8.55 L17.3 8.35 Q18.05 5.85 15.5 5.55 M-21.7 -6.75 L-21.75 -6.75 -21.75 -6.7 -23.75 -5.4 -24.15 -5.0 -24.85 -4.2 -25.0 -4.0 -25.2 -3.75 Q-25.45 -2.95 -24.85 -2.4 -24.3 -1.8 -23.55 -1.55 L-22.8 -1.35 -19.85 -1.0 Q-19.45 -1.0 -19.3 -1.4 -18.0 -5.35 -21.7 -6.75 M-5.95 -21.25 L-6.0 -21.25 -6.0 -21.2 -6.4 -21.15 -6.55 -21.15 -7.85 -20.15 Q-8.65 -19.85 -8.9 -19.1 L-9.75 -18.1 Q-10.1 -17.6 -9.85 -17.05 -8.9 -15.15 -6.8 -14.15 L-6.0 -13.8 Q-3.65 -12.8 -3.5 -15.5 -2.85 -16.2 -3.0 -17.2 -3.35 -20.2 -5.95 -21.25 M-15.9 -18.25 L-15.9 -17.5 -15.8 -16.95 Q-14.95 -16.15 -13.75 -16.45 L-13.6 -16.6 -13.4 -16.95 -13.4 -17.1 -13.65 -17.5 -13.65 -17.7 -13.65 -17.9 -13.8 -18.05 Q-14.4 -18.6 -15.25 -18.65 L-15.5 -18.55 -15.9 -18.25 M-20.25 11.6 Q-19.6 11.75 -18.75 11.3 L-18.7 11.1 Q-18.4 9.15 -20.5 8.55 -20.75 8.6 -21.05 8.8 L-21.4 9.1 -21.5 9.85 -21.4 10.45 -20.25 11.6 M-5.5 -0.45 L-5.5 -0.4 Q-6.65 -0.4 -7.2 0.5 -6.45 3.25 -3.75 2.3 L-3.6 1.55 Q-3.6 1.0 -4.05 0.6 L-4.1 0.45 Q-4.35 -0.6 -5.5 -0.45 M-1.7 12.55 L-1.75 12.55 -1.75 12.6 -2.2 12.7 Q-3.5 14.3 -1.45 15.1 -1.0 15.25 -0.75 14.9 0.9 12.85 -1.7 12.55 M-7.25 21.1 L-7.4 21.2 -7.85 21.5 -7.9 21.7 -7.8 22.05 Q-7.3 23.4 -6.05 22.95 -5.8 22.6 -5.85 22.2 L-5.9 21.75 -5.9 21.6 -6.0 21.45 Q-6.5 20.9 -7.25 21.1" fill="#c86237" fill-rule="evenodd" stroke="none"/>
    <path d="M5.1 25.65 L7.35 24.1 8.05 24.0 11.5 24.15 12.0 24.2 Q12.65 24.2 12.9 23.85 14.3 23.35 15.55 22.4 L16.35 21.45 Q17.35 19.3 17.7 16.85 L20.05 14.8 Q21.1 13.8 21.5 12.5 22.6 9.15 21.75 5.6 22.55 3.4 23.9 1.4 26.0 -1.8 24.55 -5.45 25.05 -6.8 25.1 -8.25 25.25 -11.2 23.1 -13.3 L23.0 -15.05 Q22.45 -17.25 20.6 -18.75 L20.7 -19.7 Q20.8 -23.45 17.85 -25.4 L16.85 -25.75 16.9 -26.15 18.4 -26.4 Q22.5 -26.6 23.15 -18.35 27.2 -19.05 27.55 -14.1 L27.75 -12.2 28.85 -11.0 30.6 -9.75 Q31.6 -9.05 31.95 -8.05 32.5 -6.55 31.2 -4.15 L30.1 -2.4 Q29.9 -1.9 30.1 -0.25 L30.85 3.75 Q30.85 6.05 28.2 5.7 29.5 7.45 27.85 9.1 L25.0 11.7 Q24.35 12.6 24.65 14.8 24.95 16.95 24.2 17.9 23.65 18.65 22.45 18.75 21.15 18.9 20.7 19.3 20.15 19.8 19.45 22.85 16.6 26.45 12.9 27.6 10.8 28.25 8.6 27.65 6.3 25.65 5.1 25.65 M26.35 0.75 L26.35 0.95 Q27.15 2.1 28.45 1.45 L28.5 1.25 Q28.8 0.1 27.75 -0.4 26.9 -0.3 26.35 0.35 L26.35 0.75 M27.0 -6.95 L27.0 -6.9 26.7 -6.85 26.55 -6.8 26.4 -6.7 Q25.95 -6.3 26.05 -5.75 L26.1 -5.55 Q26.6 -4.65 27.5 -4.4 28.0 -4.25 28.25 -4.6 29.95 -6.8 27.0 -6.95" fill="#a95430" fill-rule="evenodd" stroke="none"/>
    <path d="M12.4 -18.55 L12.45 -18.4 Q11.6 -16.85 10.1 -18.05 10.0 -18.35 10.05 -18.65 L10.55 -19.3 10.7 -19.35 11.0 -19.4 11.0 -19.45 Q12.15 -19.6 12.4 -18.55 M0.2 -18.65 Q-1.3 -16.35 -3.6 -18.4 -4.15 -18.9 -3.9 -19.65 -3.2 -20.35 -2.25 -20.45 -1.55 -20.5 -1.2 -19.95 L-1.15 -19.75 Q-0.1 -19.75 0.15 -18.8 L0.2 -18.65 M4.05 -13.05 L4.5 -13.2 Q5.45 -13.2 5.85 -12.3 L5.95 -12.15 Q5.1 -10.15 3.7 -12.0 3.5 -12.2 3.55 -12.5 L4.05 -13.05 M18.2 -4.65 Q17.5 -2.15 15.35 -3.3 L15.25 -4.05 15.35 -4.65 16.35 -5.45 16.55 -5.55 16.7 -5.6 17.0 -5.65 17.0 -5.7 Q17.95 -5.75 18.15 -4.8 L18.2 -4.65 M21.6 -13.4 L21.95 -13.7 Q22.25 -13.9 22.5 -13.95 24.65 -13.65 23.75 -12.0 23.45 -11.45 22.8 -11.45 22.1 -11.45 21.6 -12.05 L21.5 -12.65 21.6 -13.4 M21.85 7.85 L22.2 7.55 Q22.5 7.35 22.75 7.3 24.9 7.3 24.55 9.1 L24.5 9.3 Q22.15 10.45 21.85 8.05 L21.85 7.85 M3.15 4.7 L3.2 4.85 Q2.55 6.25 1.35 5.2 1.2 4.7 1.5 4.3 L1.8 3.95 1.95 3.9 2.25 3.85 2.25 3.8 Q3.05 3.9 3.15 4.7 M5.05 8.2 L5.2 8.15 5.5 8.1 5.5 8.05 Q6.3 8.15 6.4 8.95 L6.45 9.1 Q5.8 10.5 4.6 9.45 4.45 8.95 4.75 8.55 L5.05 8.2 M15.9 14.95 L15.95 15.1 15.65 15.7 15.5 16.05 13.35 15.95 Q13.2 14.45 14.75 14.1 L14.75 14.05 Q15.7 14.0 15.9 14.95 M-20.65 -10.15 L-20.5 -10.3 Q-20.2 -10.7 -19.75 -10.65 L-19.75 -10.7 Q-18.45 -10.9 -17.9 -9.8 L-17.8 -9.65 Q-18.65 -7.4 -20.35 -9.1 -20.8 -9.55 -20.65 -10.15 M-12.65 -6.15 L-11.25 -7.2 Q-9.35 -6.15 -10.65 -4.55 L-11.0 -4.3 Q-12.05 -4.55 -12.65 -5.4 L-12.7 -5.55 -12.65 -6.15 M-12.5 2.8 Q-10.85 2.35 -10.35 3.7 L-10.3 3.85 Q-11.35 6.45 -13.2 4.4 -13.5 4.1 -13.45 3.6 L-12.95 2.95 -12.8 2.9 -12.5 2.85 -12.5 2.8 M-14.2 15.7 L-14.5 15.95 Q-15.65 15.7 -16.4 14.85 L-16.45 14.5 -16.45 14.3 -16.4 14.1 Q-16.2 13.75 -15.8 13.65 L-15.5 13.55 Q-12.8 13.85 -14.2 15.7" fill="#cc6600" fill-rule="evenodd" stroke="none"/>
    <path d="M9.25 -24.95 Q11.2 -23.75 9.05 -22.7 L5.35 -22.55 5.3 -22.95 5.3 -23.5 Q6.5 -24.8 8.5 -24.55 L8.95 -24.85 9.25 -24.95 M0.45 -10.9 Q-0.4 -9.35 -1.9 -10.55 L-1.95 -11.15 -1.45 -11.8 -1.3 -11.85 -1.0 -11.9 -1.0 -11.95 Q0.15 -12.1 0.4 -11.05 L0.45 -10.9 M13.95 -1.15 Q13.3 0.25 12.1 -0.8 11.95 -1.3 12.25 -1.7 L12.55 -2.05 12.7 -2.1 13.0 -2.15 13.0 -2.2 Q13.8 -2.1 13.9 -1.3 L13.95 -1.15 M18.8 -0.8 L18.95 -0.85 19.25 -0.9 19.25 -0.95 Q19.95 -1.0 20.3 -0.45 L20.35 -0.25 Q22.45 1.2 20.35 2.15 L19.85 2.1 19.5 1.55 Q18.05 0.9 18.55 -0.45 L18.8 -0.8 M25.95 -6.9 Q25.1 -5.35 23.6 -6.55 L23.55 -7.15 Q23.65 -7.6 24.05 -7.8 L24.2 -7.85 24.5 -7.9 24.5 -7.95 Q25.65 -8.1 25.9 -7.05 L25.95 -6.9 M5.25 17.8 Q6.4 17.65 6.65 18.7 L6.7 18.85 Q5.05 20.7 2.25 20.45 L1.55 20.1 1.35 19.95 Q1.1 18.95 2.1 18.65 L4.5 18.2 4.7 18.05 5.25 17.85 5.25 17.8 M-7.25 -25.2 Q-6.25 -25.25 -6.1 -24.3 L-6.05 -24.15 Q-6.9 -22.4 -8.4 -23.55 -8.65 -24.9 -7.25 -25.15 L-7.25 -25.2 M-16.3 -2.1 L-16.0 -2.15 -16.0 -2.2 Q-13.8 -0.85 -15.65 0.9 L-16.15 0.95 -16.65 0.7 Q-16.9 -0.55 -16.65 -1.75 L-16.45 -2.05 -16.3 -2.1 M-5.45 10.45 L-5.3 10.4 -5.0 10.35 -5.0 10.3 Q-3.35 11.4 -4.5 13.35 -4.75 13.75 -5.25 13.7 -5.8 13.6 -6.15 13.2 -6.1 11.95 -5.7 10.8 L-5.45 10.45 M-22.75 1.05 Q-21.75 1.0 -21.6 1.95 L-21.55 2.1 Q-21.75 3.1 -22.4 3.75 L-22.75 3.95 Q-23.3 3.85 -23.65 3.45 L-23.7 2.3 -23.7 1.75 Q-23.45 1.1 -22.75 1.1 L-22.75 1.05" fill="#339900" fill-rule="evenodd" stroke="none"/>
    <path d="M5.85 -29.75 Q9.15 -28.55 11.15 -25.55 14.4 -20.8 14.9 -15.1 15.15 -11.85 12.6 -9.7 L12.85 -9.5 13.2 -9.35 13.5 -9.25 Q18.15 -17.4 27.75 -17.6 31.7 -17.7 34.95 -15.85 37.9 -14.25 35.75 -11.4 34.4 -9.6 32.15 -8.75 29.25 -7.6 26.15 -7.0 19.7 -5.65 13.8 -8.25 13.0 -5.9 12.95 -3.45 12.9 -2.05 13.25 -0.65 18.65 -0.8 23.55 1.85 25.65 2.95 25.45 5.4 25.4 6.1 25.0 6.7 20.7 9.4 16.7 6.15 13.9 3.9 12.85 0.5 6.8 1.05 1.95 5.2 L1.9 5.35 1.95 5.55 2.0 5.75 2.0 5.85 13.95 6.2 Q18.6 6.9 19.55 11.05 19.85 12.2 19.05 13.1 15.15 17.35 9.25 18.7 2.5 20.3 -0.65 14.25 L-5.5 16.75 Q-5.05 19.6 -8.0 20.4 L-9.85 20.85 Q-16.05 22.35 -21.55 19.6 -21.9 18.9 -21.85 18.1 L-21.65 16.25 -21.15 15.65 -20.4 14.95 Q-20.25 13.45 -20.4 11.9 L-20.3 9.7 Q-16.95 7.3 -12.85 9.35 L-10.45 9.55 -4.25 7.7 Q-2.05 7.05 -0.2 5.8 L1.0 5.0 -0.4 3.3 -1.5 2.45 -10.45 2.15 Q-13.05 2.05 -13.15 -0.45 L-12.8 -2.9 -12.5 -3.8 -20.3 -5.45 -20.3 -5.6 -20.2 -5.75 -20.0 -5.8 Q-16.05 -4.9 -12.05 -4.7 -10.8 -7.35 -8.85 -9.55 L-7.55 -10.9 Q-13.45 -12.85 -13.8 -18.75 L-13.8 -19.15 Q-21.5 -18.1 -27.2 -13.0 -28.25 -12.1 -28.55 -10.7 -29.7 -5.4 -26.0 -1.35 -23.5 1.4 -20.15 3.1 L-17.45 4.45 -17.55 4.6 -17.75 4.75 Q-23.85 2.55 -27.8 -2.45 L-28.75 -4.0 Q-31.0 -9.3 -27.5 -13.6 -25.65 -15.85 -22.95 -17.0 -18.55 -18.8 -13.9 -19.9 -13.55 -24.6 -8.7 -25.65 L-5.0 -25.35 Q-0.5 -23.6 2.2 -19.65 L2.95 -19.15 Q4.15 -18.7 5.2 -18.0 2.8 -21.95 2.4 -26.65 2.3 -27.7 3.05 -28.5 4.2 -29.65 5.85 -29.75 M5.35 -29.05 Q1.9 -27.85 3.2 -24.4 5.8 -17.4 10.3 -11.5 L11.35 -10.5 12.5 -10.45 Q16.0 -14.8 13.35 -19.9 L11.45 -23.3 Q9.95 -25.85 7.9 -28.0 6.85 -29.1 5.35 -29.05 M3.8 -13.15 L3.8 -12.95 6.45 -9.75 8.2 -9.7 Q8.55 -16.0 2.6 -18.55 L2.45 -18.55 Q3.65 -15.95 3.8 -13.15 M0.3 -19.5 L-1.4 -19.8 -8.0 -20.15 -12.65 -19.5 -13.15 -19.4 Q-13.3 -14.1 -8.35 -11.8 L-6.95 -11.5 Q-2.35 -14.4 3.1 -13.2 3.15 -16.8 0.75 -19.25 L0.3 -19.5 M8.8 -9.7 L10.75 -9.9 8.8 -11.9 8.8 -9.8 8.8 -9.7 M7.45 -7.4 Q7.85 -7.85 7.9 -8.55 L7.95 -8.75 7.0 -8.85 7.0 -8.8 Q7.4 -8.25 7.45 -7.5 L7.45 -7.4 M8.7 -8.8 Q7.6 -5.9 7.3 -2.85 6.9 1.1 2.85 1.65 L-0.55 2.3 0.95 3.8 1.35 4.35 Q3.15 3.75 5.05 2.5 7.0 1.2 9.3 0.5 L12.55 -0.4 Q11.9 -3.65 12.7 -6.95 L13.1 -8.45 11.45 -9.6 11.35 -9.55 Q10.55 -9.0 9.5 -8.9 L8.7 -8.8 M2.05 -8.55 L2.25 -9.05 Q-2.35 -9.45 -6.95 -10.65 -9.65 -8.15 -11.25 -4.8 L-11.25 -4.7 Q-4.55 -3.95 1.2 -7.45 1.8 -7.85 2.05 -8.55 M3.2 -12.2 Q2.75 -12.75 2.0 -12.75 L-1.4 -12.9 Q-3.75 -12.5 -5.95 -11.55 L-6.2 -11.4 Q-5.35 -10.7 -3.7 -10.45 L2.5 -9.8 3.0 -11.25 3.2 -12.2 M3.8 -11.9 L3.3 -10.0 3.25 -9.8 5.7 -9.7 3.85 -11.9 3.8 -11.9 M6.9 -2.85 L7.0 -5.0 Q3.5 -0.55 -1.8 1.5 L-1.7 1.55 Q2.1 1.7 5.25 -0.25 6.7 -1.1 6.9 -2.85 M6.25 -8.8 L2.95 -8.95 Q1.5 -5.25 -2.65 -4.8 L-4.05 -4.55 -11.75 -3.8 Q-13.4 -0.95 -11.5 1.3 L-11.0 1.6 -7.8 1.8 Q-8.2 1.45 -8.7 1.25 L-8.85 0.5 -8.8 0.3 Q-6.7 -1.5 -3.85 0.25 L0.25 0.1 Q3.85 -2.05 6.25 -5.45 7.4 -7.05 6.25 -8.8 M14.1 -9.0 Q16.05 -7.65 18.6 -7.55 22.2 -7.4 25.75 -7.55 L27.05 -7.75 Q31.45 -8.85 35.0 -11.45 L35.65 -12.2 Q36.55 -13.7 35.4 -14.75 32.95 -17.0 29.45 -16.95 L27.05 -16.9 Q19.0 -16.6 14.7 -9.95 L14.1 -9.0 M20.5 1.0 Q18.55 0.35 16.5 0.1 L15.0 0.3 13.5 0.45 Q14.95 4.55 18.9 6.6 L19.85 7.05 20.5 7.35 Q22.65 7.45 24.5 6.25 25.45 2.1 21.1 1.2 L20.5 1.0 M13.95 6.8 L6.8 6.35 4.75 6.55 2.2 6.7 Q2.6 8.55 1.75 10.3 0.95 12.05 -0.2 13.6 2.55 19.65 9.25 18.0 14.4 16.75 18.1 13.05 19.9 11.2 18.25 9.3 16.6 7.35 13.95 6.8 M1.1 5.7 L0.85 5.85 0.6 6.05 Q0.8 6.45 1.2 5.8 1.35 5.55 1.1 5.7 M1.55 6.85 L1.55 6.8 1.25 6.75 Q-0.15 6.75 -1.0 7.7 L-1.2 7.85 Q-1.75 9.85 -1.05 11.85 L-0.5 12.8 Q1.3 10.45 1.6 7.6 L1.55 6.85 M-13.15 -20.05 Q-6.1 -21.65 0.8 -20.05 -2.75 -25.35 -9.05 -25.05 -12.9 -23.95 -13.15 -20.2 L-13.15 -20.05 M-8.05 0.4 L-8.2 0.55 Q-6.45 2.2 -3.95 1.2 -5.65 -0.15 -7.75 0.2 L-8.05 0.4 M-1.9 7.45 L-11.25 10.2 -11.55 10.3 Q-8.5 12.5 -6.2 15.4 L-5.8 15.95 Q-3.15 15.5 -1.15 13.6 L-2.0 9.65 Q-2.15 8.5 -1.8 7.45 L-1.9 7.45 M-19.65 9.95 Q-20.15 11.7 -19.8 13.5 L-19.65 14.1 Q-16.6 11.7 -12.9 10.25 -15.55 8.75 -18.65 9.2 L-19.2 9.7 -19.65 9.95 M-12.4 10.7 Q-16.0 12.1 -19.0 14.45 L-19.2 14.6 Q-17.2 16.4 -14.25 16.6 L-12.35 16.9 -9.0 17.0 -6.45 16.25 Q-8.1 14.1 -10.15 12.2 -11.25 11.25 -12.4 10.7 M-6.05 18.05 L-6.1 17.3 -6.15 16.95 Q-13.45 18.85 -19.8 15.25 L-20.75 16.2 -20.95 16.35 Q-22.0 19.05 -19.5 19.85 -12.4 22.2 -6.5 18.5 L-6.05 18.05" fill="#669900" fill-opacity="0.3019608" fill-rule="evenodd" stroke="none"/>
  </g>
</svg>
