<?xml version="1.0" encoding="UTF-8" standalone="no"?>
<svg xmlns:ffdec="https://www.free-decompiler.com/flash" xmlns:xlink="http://www.w3.org/1999/xlink" ffdec:objectType="shape" height="241.6px" width="276.05px" xmlns="http://www.w3.org/2000/svg">
  <g transform="matrix(1.0, 0.0, 0.0, 1.0, 138.0, 120.8)">
    <path d="M-136.3 -22.4 L-136.1 -24.25 Q-131.8 -61.9 -96.65 -89.45 -64.6 -114.55 -22.0 -119.55 L0.05 -120.8 Q56.65 -120.85 96.7 -89.45 102.0 -85.3 106.65 -80.85 125.9 -62.5 132.85 -40.15 134.6 -34.5 135.55 -28.55 L136.75 -13.7 Q136.75 30.7 96.7 62.05 85.5 70.85 73.0 77.15 40.8 93.45 0.05 93.45 -56.6 93.45 -96.65 62.05 -136.65 30.7 -136.65 -13.7 L-136.2 -22.75 -136.3 -22.4 M135.6 -28.35 L136.2 -23.95 136.3 -22.75 135.6 -28.35 M-38.95 -106.8 L-39.2 -106.75 -39.55 -106.65 Q-69.45 -96.55 -88.15 -82.8 -124.7 -54.15 -124.65 -13.65 -124.7 26.8 -88.15 55.45 L-83.5 58.95 Q-69.25 69.15 -52.75 75.25 -28.7 84.1 0.05 84.1 25.5 84.1 47.25 77.15 54.6 74.8 61.5 71.7 73.15 66.4 83.65 58.9 L87.65 55.9 88.25 55.45 Q124.8 26.8 124.8 -13.65 124.8 -54.15 88.25 -82.8 51.7 -111.45 0.05 -111.4 L-36.35 -107.45 -37.45 -107.3 -37.5 -107.15 -37.8 -107.1 -38.4 -106.95 -38.95 -106.8" fill="#f2f7fb" fill-rule="evenodd" stroke="none"/>
    <path d="M135.55 -28.55 L135.55 -28.85 135.6 -28.35 136.3 -22.75 Q138.05 -8.85 138.05 -5.25 138.05 5.9 135.55 16.25 129.4 41.7 108.05 62.2 103.2 66.8 97.6 71.2 L89.5 77.15 Q51.55 102.9 0.05 102.95 L-6.65 102.75 -48.0 96.5 -84.65 80.4 Q-91.3 76.15 -97.6 71.2 -128.85 46.75 -135.9 14.45 -138.0 4.9 -138.0 -5.25 -138.05 -9.5 -136.3 -22.4 L-136.2 -22.75 -136.65 -13.7 Q-136.65 30.7 -96.65 62.05 -56.6 93.45 0.05 93.45 40.8 93.45 73.0 77.15 85.5 70.85 96.7 62.05 136.75 30.7 136.75 -13.7 L135.55 -28.55" fill="#cce0ee" fill-rule="evenodd" stroke="none"/>
    <path d="M108.05 62.2 Q104.05 69.95 98.35 77.15 92.05 85.0 83.7 92.15 L83.2 92.6 79.5 95.6 Q69.9 103.1 59.2 108.4 34.05 120.8 2.95 120.8 -23.4 120.8 -45.45 111.95 -60.55 105.85 -73.65 95.65 L-77.85 92.15 Q-88.45 83.1 -95.7 72.85 -90.35 76.9 -84.65 80.4 L-48.0 96.5 -6.65 102.75 0.05 102.95 Q51.55 102.9 89.5 77.15 L97.6 71.2 Q103.2 66.8 108.05 62.2" fill="#bcd0e5" fill-rule="evenodd" stroke="none"/>
    <path d="M-37.8 -107.1 L-37.5 -107.15 -37.5 -107.1 -37.8 -107.1" fill="#c8e7c7" fill-rule="evenodd" stroke="none"/>
    <path d="M-37.5 -107.15 L-37.45 -107.3 -37.5 -107.1 -37.5 -107.15" fill="#d7efd7" fill-rule="evenodd" stroke="none"/>
    <path d="M-38.95 -106.8 L-38.4 -106.95 -37.8 -107.1 -37.5 -107.15" ffdec:has-small-stroke="true" ffdec:original-stroke-width="0.25" fill="none" stroke="#ffffff" stroke-linecap="round" stroke-linejoin="round" stroke-width="1.0"/>
  </g>
</svg>
