<?xml version="1.0" encoding="UTF-8" standalone="no"?>
<svg xmlns:ffdec="https://www.free-decompiler.com/flash" xmlns:xlink="http://www.w3.org/1999/xlink" ffdec:objectType="shape" height="46.95px" width="42.55px" xmlns="http://www.w3.org/2000/svg">
  <g transform="matrix(1.0, 0.0, 0.0, 1.0, -12.6, 3.95)">
    <path d="M47.8 36.8 L50.15 36.75 52.0 35.6 Q53.9 34.15 55.15 34.8 L54.85 35.1 Q53.85 34.75 52.25 35.85 51.25 36.65 50.3 37.0 L47.65 37.2 46.05 37.15 Q45.4 37.25 43.85 38.2 L42.2 39.15 39.45 39.35 38.65 39.25 Q37.5 39.05 35.35 40.4 L34.4 41.05 Q32.9 41.9 31.95 42.0 L30.2 41.8 29.6 41.65 Q27.6 41.25 26.15 43.0 L25.7 42.85 Q27.45 40.8 29.7 41.25 L30.45 41.4 31.95 41.6 Q32.8 41.45 34.1 40.7 L35.05 40.15 Q37.35 38.6 38.8 38.85 L39.65 39.0 42.0 38.8 43.5 37.9 Q45.1 36.85 46.0 36.75 L47.8 36.8 M37.7 32.3 L36.95 32.2 Q35.7 32.0 33.65 33.35 L32.65 33.95 Q31.2 34.8 30.25 34.9 L28.5 34.7 27.85 34.6 Q25.9 34.15 24.4 35.9 L23.95 35.75 Q25.75 33.65 28.0 34.1 L28.75 34.35 30.25 34.5 Q31.1 34.4 32.4 33.65 L33.35 33.05 Q35.7 31.55 37.1 31.75 L37.9 31.95 40.3 31.7 41.8 30.85 Q43.4 29.8 44.25 29.65 L46.1 29.75 48.45 29.55 Q48.95 29.4 50.25 28.5 52.15 27.05 53.5 27.7 L53.15 28.05 Q52.15 27.55 50.55 28.75 L48.6 29.95 45.95 30.1 44.3 30.05 Q43.55 30.2 42.15 31.1 L40.5 32.05 37.7 32.3 M44.05 23.85 L42.45 23.8 Q41.7 23.95 40.3 24.85 L38.6 25.85 35.85 26.1 35.05 25.9 Q33.9 25.7 31.8 27.1 L30.8 27.7 Q29.3 28.6 28.35 28.7 L26.65 28.5 26.0 28.3 Q24.05 27.95 22.55 29.7 L22.1 29.5 Q23.9 27.45 26.2 27.9 L26.9 28.15 28.4 28.3 Q29.25 28.2 30.55 27.4 L31.5 26.8 Q33.8 25.25 35.2 25.55 L36.05 25.7 38.4 25.5 39.95 24.65 Q41.55 23.6 42.4 23.4 L44.25 23.45 46.6 23.3 48.4 22.2 Q50.3 20.8 51.6 21.45 L51.3 21.8 Q50.3 21.3 48.7 22.55 L46.8 23.7 44.05 23.85 M41.65 16.4 L43.45 16.5 45.8 16.35 47.6 15.25 Q49.45 13.85 50.85 14.5 L50.5 14.8 Q49.55 14.35 47.95 15.55 L46.0 16.75 43.3 16.9 41.7 16.8 Q40.95 16.9 39.55 17.9 L37.85 18.85 35.05 19.05 34.3 18.95 Q33.05 18.75 31.05 20.1 L30.0 20.7 Q28.55 21.6 27.65 21.7 L25.95 21.45 25.2 21.3 Q23.25 20.95 21.75 22.7 L21.3 22.5 Q23.05 20.5 25.4 20.9 L26.15 21.05 27.65 21.3 29.75 20.45 30.75 19.75 Q33.0 18.3 34.45 18.5 L35.25 18.7 37.65 18.5 39.25 17.55 Q40.75 16.6 41.65 16.4 M20.0 16.25 L19.55 16.1 Q21.35 14.05 23.65 14.5 L24.4 14.65 25.95 14.85 28.0 13.9 29.0 13.3 Q31.35 11.85 32.75 12.05 L33.5 12.2 35.95 12.05 37.5 11.15 Q39.0 10.15 39.9 10.0 L41.7 10.05 44.05 9.9 45.9 8.8 Q47.8 7.4 49.1 8.0 L48.75 8.35 Q47.85 7.9 46.2 9.1 L44.25 10.25 41.6 10.4 Q40.4 10.25 39.95 10.4 39.15 10.45 37.8 11.45 L36.15 12.4 33.35 12.65 32.6 12.45 Q31.45 12.3 29.3 13.65 L28.25 14.25 25.95 15.25 24.2 15.05 23.5 14.85 Q21.55 14.45 20.0 16.25" fill="#ffffcc" fill-rule="evenodd" stroke="none"/>
    <path d="M12.75 3.55 L17.7 3.7 17.9 3.75 Q23.3 3.05 24.95 -1.95 L25.65 -0.7 26.35 0.5 26.6 0.7 27.0 0.85 27.15 1.05 27.35 1.25 Q28.55 1.95 30.1 1.75 L30.55 1.75 Q34.6 -0.25 37.3 -3.75 L37.85 -3.95 Q37.45 -1.85 38.65 -0.05 39.15 0.75 40.1 1.1 L40.4 1.2 40.7 1.7 40.85 2.0 41.0 2.2 Q42.35 3.0 43.9 2.45 L44.55 2.2 37.6 6.4 37.55 7.2 37.5 7.45 37.05 8.45 37.85 10.0 Q37.95 10.65 38.35 11.3 L38.2 11.3 38.05 11.15 37.9 10.9 36.55 10.95 36.25 11.0 Q29.3 10.8 26.1 17.3 L25.95 17.25 25.9 16.95 Q24.6 14.8 22.9 13.1 21.15 11.2 18.55 11.35 L16.35 11.6 Q18.6 9.35 17.1 6.85 L16.65 6.1 16.35 6.0 16.1 5.85 15.8 5.3 15.65 5.1 13.4 4.15 Q12.3 3.8 12.75 3.55" fill="#ffffff" fill-rule="evenodd" stroke="none"/>
  </g>
</svg>
