<?xml version="1.0" encoding="UTF-8" standalone="no"?>
<svg xmlns:ffdec="https://www.free-decompiler.com/flash" xmlns:xlink="http://www.w3.org/1999/xlink" ffdec:objectType="shape" height="130.0px" width="292.0px" xmlns="http://www.w3.org/2000/svg">
  <g transform="matrix(1.0, 0.0, 0.0, 1.0, 143.0, 44.0)">
    <path d="M-130.15 -27.8 Q-129.85 -24.7 -129.5 -18.55 -129.05 -13.55 -128.25 -11.95 -127.2 -9.95 -124.85 -0.4 -122.65 8.3 -117.55 17.0 -108.2 33.0 -90.05 44.8 -72.9 56.05 -52.65 60.6 -44.25 62.4 -40.85 64.25 -34.25 67.75 -36.25 73.85 -38.1 79.6 -46.55 81.1 L-60.4 80.65 Q-71.7 77.45 -88.75 67.4 -98.5 61.75 -111.6 49.95 -122.25 40.35 -128.65 28.85 -131.35 24.0 -138.6 6.75 -142.6 -2.75 -142.95 -16.5 -143.5 -38.45 -135.9 -39.15 -131.25 -39.6 -130.15 -27.8" fill="#fafddc" fill-rule="evenodd" stroke="none"/>
    <path d="M-140.9 -16.65 Q-142.35 -31.25 -136.65 -26.55 -136.85 -18.65 -128.3 -0.8 L-119.95 15.85 Q-114.7 25.0 -108.6 30.35 -97.7 39.75 -83.25 50.1 -72.7 57.65 -59.95 61.15 -53.1 62.4 -48.7 64.0 -40.3 67.05 -43.4 71.35 -45.15 73.7 -54.35 71.35 L-66.05 67.6 Q-89.15 60.25 -116.1 36.05 -128.2 25.15 -136.65 3.65 -139.6 -3.85 -140.9 -16.65" fill="#ffffff" fill-rule="evenodd" stroke="none"/>
    <path d="M-44.35 62.35 Q-26.15 69.4 -6.4 67.65 13.65 65.85 30.05 55.4 38.7 49.8 46.25 41.8 L60.1 25.65 Q64.8 20.2 71.45 -8.9 78.25 -38.6 82.25 -44.0 82.9 -39.0 81.75 -15.6 80.65 7.6 79.55 12.7 76.9 24.9 73.6 30.35 66.15 42.6 56.25 50.9 47.9 57.9 32.2 66.3 18.1 73.9 -7.75 76.0 -22.6 77.25 -32.25 75.3 -35.6 74.65 -41.5 71.25 -43.1 70.45 -43.4 67.35 -43.8 63.4 -44.35 62.35" fill="#6cbe5b" fill-rule="evenodd" stroke="none"/>
    <path d="M-53.65 82.35 Q-48.1 78.25 -47.1 77.3 -43.25 73.8 -42.9 70.6 -41.45 70.5 -38.7 71.25 L-34.35 72.35 -25.15 73.1 Q-12.1 75.0 -2.35 74.25 9.6 73.3 33.95 65.5 42.85 62.7 71.65 46.45 95.1 33.25 108.15 24.95 112.4 22.25 119.65 16.05 126.15 10.45 130.1 8.35 131.65 7.5 139.25 0.35 145.55 -5.5 149.0 -5.55 144.25 -2.0 139.5 6.9 134.3 16.55 125.45 24.35 114.3 34.1 82.85 53.6 49.35 74.35 37.5 77.65 20.4 82.4 9.5 84.35 L-4.0 85.55 -17.6 85.75 Q-29.7 86.2 -35.85 85.85 -46.25 85.2 -53.65 82.35" fill="#18964c" fill-rule="evenodd" stroke="none"/>
  </g>
</svg>
