<?xml version="1.0" encoding="UTF-8" standalone="no"?>
<svg xmlns:ffdec="https://www.free-decompiler.com/flash" xmlns:xlink="http://www.w3.org/1999/xlink" ffdec:objectType="shape" height="46.9px" width="95.1px" xmlns="http://www.w3.org/2000/svg">
  <g transform="matrix(1.0, 0.0, 0.0, 1.0, 46.15, 28.9)">
    <path d="M18.35 -23.75 Q22.3 -29.25 28.0 -28.85 33.65 -28.5 37.65 -23.35 41.6 -18.3 40.85 -14.6 40.05 -11.0 36.05 -8.8 32.05 -6.7 25.7 -6.25 19.3 -5.85 16.6 -7.05 13.85 -8.25 14.1 -13.25 14.35 -18.25 18.35 -23.75" fill="url(#gradient0)" fill-rule="evenodd" stroke="none"/>
    <path d="M6.8 -19.35 Q7.75 -15.45 6.3 -12.95 4.85 -10.45 4.75 -8.6 4.6 -6.8 8.65 -5.0 12.7 -3.25 16.65 2.7 20.6 8.65 16.25 13.6 11.85 18.55 3.4 17.9 -5.05 17.2 -12.4 14.4 -19.8 11.65 -27.6 11.7 -36.95 11.7 -42.9 6.4 -46.75 3.0 -46.05 -1.95 -44.9 -10.9 -34.6 -11.7 -27.95 -12.2 -26.45 -19.95 -26.4 -27.8 -15.4 -26.6 -9.7 -25.95 -4.8 -23.6 L2.0 -23.45 Q5.8 -23.3 6.8 -19.35" fill="url(#gradient1)" fill-rule="evenodd" stroke="none"/>
    <path d="M48.85 7.2 Q48.35 9.5 45.8 10.9 43.2 12.25 39.15 12.55 35.05 12.8 33.35 12.05 31.6 11.25 31.75 8.05 31.9 4.85 34.45 1.35 37.0 -2.2 40.65 -1.95 44.25 -1.7 46.8 1.6 49.35 4.85 48.85 7.2" fill="url(#gradient2)" fill-rule="evenodd" stroke="none"/>
  </g>
  <defs>
    <radialGradient cx="0" cy="0" gradientTransform="matrix(0.021, 0.0, 0.0, 0.021, 24.4, -20.4)" gradientUnits="userSpaceOnUse" id="gradient0" r="819.2" spreadMethod="pad">
      <stop offset="0.27058823529411763" stop-color="#fed865" stop-opacity="0.0"/>
      <stop offset="0.6627450980392157" stop-color="#fcd462" stop-opacity="0.73333335"/>
      <stop offset="1.0" stop-color="#cc6600"/>
    </radialGradient>
    <radialGradient cx="0" cy="0" gradientTransform="matrix(0.0508, 0.0, 0.0, 0.0304, -13.6, -7.45)" gradientUnits="userSpaceOnUse" id="gradient1" r="819.2" spreadMethod="pad">
      <stop offset="0.27058823529411763" stop-color="#fed865" stop-opacity="0.0"/>
      <stop offset="0.6627450980392157" stop-color="#fcd462" stop-opacity="0.73333335"/>
      <stop offset="1.0" stop-color="#cc6600"/>
    </radialGradient>
    <radialGradient cx="0" cy="0" gradientTransform="matrix(0.0135, 0.0, 0.0, 0.0135, 38.3, 3.45)" gradientUnits="userSpaceOnUse" id="gradient2" r="819.2" spreadMethod="pad">
      <stop offset="0.27058823529411763" stop-color="#fed865" stop-opacity="0.0"/>
      <stop offset="0.6627450980392157" stop-color="#fcd462" stop-opacity="0.73333335"/>
      <stop offset="1.0" stop-color="#cc6600"/>
    </radialGradient>
  </defs>
</svg>
