<?xml version="1.0" encoding="UTF-8" standalone="no"?>
<svg xmlns:ffdec="https://www.free-decompiler.com/flash" xmlns:xlink="http://www.w3.org/1999/xlink" ffdec:objectType="shape" height="31.4px" width="74.45px" xmlns="http://www.w3.org/2000/svg">
  <g transform="matrix(1.0, 0.0, 0.0, 1.0, 58.75, 16.05)">
    <path d="M-55.8 11.9 Q-57.8 10.15 -57.75 7.8 L-57.75 -8.6 -57.65 -9.8 -57.45 -10.35 -57.4 -10.45 Q-56.8 -12.0 -55.2 -13.2 L-55.15 -13.2 -54.35 -13.75 Q-52.5 -14.85 -50.05 -15.0 L-49.05 -15.05 -40.55 -15.05 -40.1 -15.05 6.0 -15.05 8.95 -14.7 10.6 -14.1 11.3 -13.75 11.75 -13.45 12.0 -13.25 12.1 -13.2 12.15 -13.2 12.95 -12.5 Q13.9 -11.6 14.3 -10.45 L14.7 -8.6 14.7 7.8 Q14.7 10.05 12.95 11.7 L12.15 12.4 12.1 12.4 11.9 12.55 Q10.95 13.25 9.85 13.65 8.1 14.3 6.0 14.35 L-40.1 14.35 -40.55 14.35 -49.05 14.35 -51.65 14.05 -52.65 13.75 -52.9 13.65 -53.5 13.45 -54.4 12.95 -54.95 12.55 -55.15 12.4 -55.2 12.4 -55.8 11.9" fill="#ffcc00" fill-rule="evenodd" stroke="none"/>
    <path d="M12.95 -12.5 L12.15 -13.2 12.1 -13.2 12.0 -13.25 11.75 -13.45 11.3 -13.75 10.6 -14.1 8.95 -14.7 6.0 -15.05 -40.1 -15.05 -40.55 -15.05 -49.05 -15.05 -50.05 -15.0 Q-52.5 -14.85 -54.35 -13.75 L-55.15 -13.2 -55.2 -13.2 Q-56.8 -12.0 -57.4 -10.45 L-57.45 -10.35 -57.65 -9.8 -57.75 -8.6 -57.75 7.8 Q-57.8 10.15 -55.8 11.9" fill="none" stroke="#ffffcc" stroke-linecap="round" stroke-linejoin="round" stroke-width="2.0"/>
    <path d="M-55.8 11.9 L-55.2 12.4 -55.15 12.4 -54.95 12.55 -54.4 12.95 -53.5 13.45 -52.9 13.65 -52.65 13.75 -51.65 14.05 -49.05 14.35 -40.55 14.35 -40.1 14.35 6.0 14.35 Q8.1 14.3 9.85 13.65 10.95 13.25 11.9 12.55 L12.1 12.4 12.15 12.4 12.95 11.7 Q14.7 10.05 14.7 7.8 L14.7 -8.6 14.3 -10.45 Q13.9 -11.6 12.95 -12.5" fill="none" stroke="#ff9900" stroke-linecap="round" stroke-linejoin="round" stroke-width="2.0"/>
  </g>
</svg>
