<?xml version="1.0" encoding="UTF-8" standalone="no"?>
<svg xmlns:ffdec="https://www.free-decompiler.com/flash" xmlns:xlink="http://www.w3.org/1999/xlink" ffdec:objectType="shape" height="32.0px" width="56.25px" xmlns="http://www.w3.org/2000/svg">
  <g transform="matrix(1.0, 0.0, 0.0, 1.0, 38.7, 14.95)">
    <path d="M14.9 -13.4 L15.35 -12.95 15.5 -12.8 16.0 -12.25 Q17.55 -10.4 17.55 -7.85 L17.55 10.0 17.45 11.3 17.3 11.95 17.25 12.05 Q16.75 13.7 15.5 15.05 L14.85 15.6 Q13.35 16.8 11.5 17.0 L10.7 17.05 4.05 17.05 3.7 17.05 -33.8 17.05 -33.8 16.75 -34.2 16.65 -35.45 16.0 -36.0 15.6 -36.35 15.3 -36.6 15.05 -36.65 15.05 -36.7 15.05 -37.3 14.25 Q-38.05 13.2 -38.4 12.05 L-38.7 10.0 -38.7 -7.85 Q-38.7 -10.25 -37.3 -12.05 L-36.7 -12.8 -36.65 -12.8 -36.5 -12.95 -34.85 -14.2 -33.8 -14.65 -33.8 -14.9 3.7 -14.9 3.65 -14.95 10.7 -14.9 12.75 -14.6 13.5 -14.3 13.7 -14.2 14.15 -13.9 14.9 -13.4" fill="#ffff66" fill-rule="evenodd" stroke="none"/>
  </g>
</svg>
