<?xml version="1.0" encoding="UTF-8" standalone="no"?>
<svg xmlns:ffdec="https://www.free-decompiler.com/flash" xmlns:xlink="http://www.w3.org/1999/xlink" ffdec:objectType="shape" height="44.8px" width="37.8px" xmlns="http://www.w3.org/2000/svg">
  <g transform="matrix(1.0, 0.0, 0.0, 1.0, 18.9, 22.4)">
    <path d="M18.2 -12.55 L18.2 20.4 -18.05 20.4 -18.05 -12.55 18.2 -12.55" fill="#9b8489" fill-rule="evenodd" stroke="none"/>
    <path d="M17.95 -12.3 L-17.8 -12.3 -17.8 20.15 17.95 20.15 17.95 -12.3 M-18.3 -12.55 L-18.05 -12.8 18.2 -12.8 18.45 -12.55 18.45 20.4 18.2 20.65 -18.05 20.65 -18.3 20.4 -18.3 -12.55" fill="#23011e" fill-rule="evenodd" stroke="none"/>
    <path d="M-9.2 -5.05 Q-5.6 -8.7 -0.45 -8.7 4.7 -8.7 8.3 -5.05 11.9 -1.45 11.9 3.65 11.9 8.8 8.3 12.4 4.7 16.05 -0.45 16.05 -5.6 16.05 -9.2 12.4 -12.8 8.8 -12.8 3.65 -12.8 -1.45 -9.2 -5.05" fill="#684e5d" fill-rule="evenodd" stroke="none"/>
    <path d="M8.1 -4.9 Q4.55 -8.45 -0.45 -8.45 -5.45 -8.45 -9.0 -4.9 -12.55 -1.35 -12.55 3.65 -12.55 8.7 -9.0 12.25 -5.45 15.8 -0.45 15.8 4.55 15.8 8.1 12.25 11.65 8.7 11.65 3.65 11.65 -1.35 8.1 -4.9 M-9.35 -5.25 Q-5.65 -8.95 -0.45 -8.95 4.75 -8.95 8.45 -5.25 12.15 -1.55 12.15 3.65 12.15 8.85 8.45 12.6 4.75 16.3 -0.45 16.3 -5.65 16.3 -9.35 12.6 -13.05 8.85 -13.05 3.65 -13.05 -1.55 -9.35 -5.25" fill="#23011e" fill-rule="evenodd" stroke="none"/>
    <path d="M-6.1 -1.95 Q-3.65 -4.4 -0.25 -4.4 3.2 -4.4 5.65 -1.95 8.05 0.45 8.05 3.9 8.05 7.3 5.65 9.75 3.2 12.15 -0.25 12.15 -3.65 12.15 -6.1 9.75 -8.5 7.3 -8.5 3.9 -8.5 0.45 -6.1 -1.95" fill="#5b4154" fill-rule="evenodd" stroke="none"/>
    <path d="M5.45 -1.8 Q3.1 -4.15 -0.25 -4.15 -3.55 -4.15 -5.9 -1.8 -8.25 0.55 -8.25 3.9 -8.25 7.2 -5.9 9.55 -3.55 11.9 -0.25 11.9 3.1 11.9 5.45 9.55 7.8 7.2 7.8 3.9 7.8 0.55 5.45 -1.8 M-6.25 -2.15 Q-3.75 -4.65 -0.25 -4.65 3.3 -4.65 5.8 -2.15 8.3 0.4 8.3 3.9 8.3 7.4 5.8 9.9 3.3 12.4 -0.25 12.4 -3.75 12.4 -6.25 9.9 -8.75 7.45 -8.75 3.9 -8.75 0.35 -6.25 -2.15" fill="#23011e" fill-rule="evenodd" stroke="none"/>
    <path d="M-12.4 -22.15 L13.65 -22.15 18.0 -12.55 -18.05 -12.55 -12.4 -22.15" fill="#5b4154" fill-rule="evenodd" stroke="none"/>
    <path d="M-12.25 -21.9 L-17.6 -12.8 17.6 -12.8 13.5 -21.9 -12.25 -21.9 M-18.05 -12.3 L-18.25 -12.4 -18.25 -12.65 -12.6 -22.3 -12.4 -22.4 13.65 -22.4 13.9 -22.25 18.25 -12.65 18.2 -12.4 18.0 -12.3 -18.05 -12.3" fill="#23011e" fill-rule="evenodd" stroke="none"/>
    <path d="M-13.4 -12.4 L-13.05 -12.3 -13.1 -11.95 -17.9 -8.95 -18.25 -9.0 -18.15 -9.35 -13.4 -12.4" fill="#23011e" fill-rule="evenodd" stroke="none"/>
    <path d="M-17.8 -4.0 L-18.15 -4.05 -18.1 -4.4 -5.25 -12.55 -4.9 -12.5 Q-4.8 -12.2 -5.0 -12.15 L-17.8 -4.0" fill="#23011e" fill-rule="evenodd" stroke="none"/>
    <path d="M3.8 -12.55 L4.1 -12.45 4.05 -12.1 -18.15 2.0 -18.5 1.95 -18.45 1.6 3.8 -12.55" fill="#23011e" fill-rule="evenodd" stroke="none"/>
    <path d="M13.0 -12.05 L13.35 -12.0 13.25 -11.65 -17.7 8.05 -18.05 7.95 -17.95 7.65 13.0 -12.05" fill="#23011e" fill-rule="evenodd" stroke="none"/>
    <path d="M17.75 -9.0 L18.05 -8.95 18.0 -8.6 -17.7 14.1 -18.0 14.05 -17.95 13.7 17.75 -9.0" fill="#23011e" fill-rule="evenodd" stroke="none"/>
    <path d="M17.3 -2.5 L17.65 -2.4 17.55 -2.1 -18.1 20.6 -18.45 20.55 -18.4 20.2 17.3 -2.5" fill="#23011e" fill-rule="evenodd" stroke="none"/>
    <path d="M17.6 3.75 L17.95 3.85 17.85 4.2 -9.05 21.3 -9.35 21.25 -9.3 20.9 17.6 3.75" fill="#23011e" fill-rule="evenodd" stroke="none"/>
    <path d="M18.5 9.3 L18.85 9.4 18.8 9.75 1.35 20.8 1.0 20.75 1.1 20.4 18.5 9.3" fill="#23011e" fill-rule="evenodd" stroke="none"/>
    <path d="M18.15 15.25 L18.45 15.35 18.4 15.7 9.55 21.3 9.2 21.25 Q9.1 20.95 9.3 20.9 L18.15 15.25" fill="#23011e" fill-rule="evenodd" stroke="none"/>
    <path d="M13.0 -12.3 L13.35 -12.4 18.15 -9.35 18.2 -9.0 17.85 -8.95 13.1 -11.95 13.0 -12.3" fill="#23011e" fill-rule="evenodd" stroke="none"/>
    <path d="M4.9 -12.5 L5.25 -12.55 18.05 -4.4 18.15 -4.05 17.8 -4.0 4.95 -12.15 Q4.8 -12.35 4.9 -12.5" fill="#23011e" fill-rule="evenodd" stroke="none"/>
    <path d="M-4.15 -12.45 L-3.8 -12.55 18.4 1.6 18.5 1.95 18.15 2.0 -4.1 -12.1 -4.15 -12.45" fill="#23011e" fill-rule="evenodd" stroke="none"/>
    <path d="M-13.35 -12.0 L-13.0 -12.05 17.95 7.65 18.0 7.95 17.65 8.05 -13.3 -11.65 -13.35 -12.0" fill="#23011e" fill-rule="evenodd" stroke="none"/>
    <path d="M-18.1 -8.95 L-17.75 -9.0 17.9 13.7 18.0 14.05 17.65 14.1 -18.05 -8.6 -18.1 -8.95" fill="#23011e" fill-rule="evenodd" stroke="none"/>
    <path d="M-17.65 -2.4 Q-17.55 -2.65 -17.3 -2.5 L18.35 20.2 18.45 20.55 18.1 20.6 -17.6 -2.1 -17.65 -2.4" fill="#23011e" fill-rule="evenodd" stroke="none"/>
    <path d="M9.25 20.9 L9.35 21.25 9.0 21.3 -17.9 4.2 -17.95 3.85 -17.65 3.75 9.25 20.9" fill="#23011e" fill-rule="evenodd" stroke="none"/>
    <path d="M-1.1 20.4 Q-1.0 20.45 -1.05 20.75 L-1.4 20.8 -18.8 9.75 -18.9 9.4 -18.55 9.3 -1.1 20.4" fill="#23011e" fill-rule="evenodd" stroke="none"/>
    <path d="M-9.3 20.9 Q-9.15 21.1 -9.25 21.25 L-9.6 21.3 -18.45 15.7 -18.5 15.35 -18.15 15.25 -9.3 20.9" fill="#23011e" fill-rule="evenodd" stroke="none"/>
    <path d="M14.75 -9.15 L-14.95 -9.15 -14.95 19.1 14.75 19.1 14.75 -9.15 M-18.1 -12.2 L17.95 -12.2 17.95 22.15 -18.1 22.15 -18.1 -12.2" fill="#735965" fill-rule="evenodd" stroke="none"/>
    <path d="M17.7 -11.95 L-17.85 -11.95 -17.85 21.9 17.7 21.9 17.7 -11.95 M-18.35 -12.2 L-18.1 -12.45 17.95 -12.45 18.2 -12.2 18.2 22.15 17.95 22.4 -18.1 22.4 -18.35 22.15 -18.35 -12.2" fill="#23011e" fill-rule="evenodd" stroke="none"/>
    <path d="M14.5 -8.9 L-14.7 -8.9 -14.7 18.85 14.5 18.85 14.5 -8.9 M-15.2 -9.15 L-14.95 -9.4 14.75 -9.4 15.0 -9.15 15.0 19.1 14.75 19.35 -14.95 19.35 -15.2 19.1 -15.2 -9.15" fill="#23011e" fill-rule="evenodd" stroke="none"/>
  </g>
</svg>
