<?xml version="1.0" encoding="UTF-8" standalone="no"?>
<svg xmlns:ffdec="https://www.free-decompiler.com/flash" xmlns:xlink="http://www.w3.org/1999/xlink" ffdec:objectType="shape" height="60.0px" width="282.75px" xmlns="http://www.w3.org/2000/svg">
  <g transform="matrix(1.0, 0.0, 0.0, 1.0, 83.65, 20.85)">
    <path d="M-83.15 -20.35 L-77.1 -20.35 -46.25 -20.35 -16.1 -20.35 -15.4 -20.35 14.75 -20.35 45.65 -20.35 76.5 -20.35 106.0 -20.35 136.9 -20.35 167.75 -20.35 198.6 -20.35 198.6 9.15 198.6 38.65 167.75 38.65 136.9 38.65 106.0 38.65 76.5 38.65 45.65 38.65 14.75 38.65 -15.4 38.65 -16.1 38.65 -46.25 38.65 -77.1 38.65 -83.15 38.65 M-15.4 38.65 L-15.4 9.15 -16.1 9.15 -16.1 38.65 M-77.1 -20.35 L-77.1 9.15 -46.25 9.15 -46.25 -20.35 M-77.1 38.65 L-77.1 9.15 -82.15 9.15 M-16.1 9.15 L-46.25 9.15 -46.25 38.65 M167.75 -20.35 L167.75 9.15 198.6 9.15 M167.75 38.65 L167.75 9.15 136.9 9.15 136.9 38.65 M106.0 38.65 L106.0 9.15 76.5 9.15 76.5 38.65 M106.0 -20.35 L106.0 9.15 136.9 9.15 136.9 -20.35 M45.65 -20.35 L45.65 9.15 76.5 9.15 76.5 -20.35 M45.65 38.65 L45.65 9.15 14.75 9.15 14.75 38.65 M-16.1 -20.35 L-16.1 9.15 M-15.4 -20.35 L-15.4 9.15 14.75 9.15 14.75 -20.35" fill="none" stroke="#000000" stroke-linecap="round" stroke-linejoin="round" stroke-width="1.0"/>
  </g>
</svg>
