<?xml version="1.0" encoding="UTF-8" standalone="no"?>
<svg xmlns:ffdec="https://www.free-decompiler.com/flash" xmlns:xlink="http://www.w3.org/1999/xlink" ffdec:objectType="shape" height="49.7px" width="55.25px" xmlns="http://www.w3.org/2000/svg">
  <g transform="matrix(1.0, 0.0, 0.0, 1.0, 27.15, 21.7)">
    <path d="M19.4 -16.2 L18.9 -16.6 Q17.35 -17.75 15.65 -18.35 L15.75 -18.4 Q20.5 -18.35 23.35 -14.6 L25.6 -10.75 25.55 -10.55 25.5 -10.4 25.45 -10.25 25.3 -10.2 24.75 -10.2 24.3 -10.25 24.2 -10.45 24.1 -10.8 24.05 -11.2 Q23.55 -11.8 23.3 -12.5 22.7 -14.05 21.3 -14.75 L21.2 -14.95 21.1 -15.15 21.05 -15.3 20.85 -15.45 19.9 -16.0 19.4 -16.2 M19.05 -20.0 L19.1 -20.05 20.3 -19.85 20.95 -19.75 21.1 -19.55 21.3 -19.4 21.7 -19.25 21.85 -18.95 Q22.3 -18.45 22.95 -18.25 23.65 -17.6 24.55 -17.1 L25.2 -16.75 25.35 -16.45 25.8 -15.65 25.8 -15.45 25.65 -15.3 25.3 -15.25 24.95 -15.8 23.95 -16.9 23.15 -17.05 Q22.7 -17.15 22.6 -17.55 L22.55 -17.6 22.05 -17.75 21.65 -18.2 19.1 -19.05 17.85 -19.05 Q17.6 -19.0 17.65 -19.25 L20.5 -19.15 19.1 -19.7 Q18.8 -19.8 19.05 -20.0 M22.5 -21.45 L22.0 -21.55 21.95 -21.65 Q23.0 -21.9 24.0 -21.1 24.9 -20.5 25.05 -19.45 L24.95 -19.3 Q24.85 -19.35 24.85 -19.35 24.35 -20.95 22.65 -21.4 L22.5 -21.45 M24.4 18.55 L24.55 18.7 24.25 19.95 23.75 21.1 23.1 22.5 21.2 25.0 20.35 25.95 19.5 26.85 Q19.1 27.4 18.65 27.0 22.2 24.8 22.95 20.8 L23.5 19.55 24.1 18.45 24.4 18.55 M27.6 21.55 L27.75 21.7 27.8 22.15 27.85 22.0 28.1 22.25 27.8 22.95 Q27.5 25.2 25.15 26.55 L24.55 27.1 23.75 27.75 Q26.15 24.95 27.4 21.45 L27.6 21.55 M19.25 27.35 L19.2 27.25 Q21.2 25.5 22.75 23.3 L21.85 25.05 19.45 27.35 19.25 27.35 M-24.95 -19.25 L-24.85 -19.2 -24.75 -19.15 -24.5 -19.0 -24.5 -18.9 -25.6 -17.9 Q-26.5 -16.4 -26.55 -14.55 -26.6 -13.65 -26.3 -12.85 L-26.05 -12.6 -26.05 -12.55 -26.1 -12.5 -26.3 -12.5 -26.25 -12.15 -26.35 -12.05 -26.7 -12.0 Q-27.3 -13.8 -27.1 -15.95 L-27.05 -16.9 -26.9 -17.05 -26.85 -17.25 -26.8 -17.65 -26.65 -17.8 -26.3 -18.2 -26.3 -18.4 -26.3 -18.55 -25.15 -19.3 -24.95 -19.25 M-21.4 -19.2 L-21.25 -19.05 -21.5 -17.95 -21.55 -17.85 -21.6 -17.6 -21.75 -17.45 -22.4 -16.55 -22.5 -16.45 -22.65 -16.25 -22.7 -16.0 Q-23.7 -14.1 -23.75 -11.65 -23.75 -10.25 -23.35 -8.95 L-23.45 -9.0 -23.9 -10.0 -23.9 -9.9 -23.95 -9.85 -24.1 -9.9 -24.2 -10.9 Q-24.85 -13.45 -23.95 -16.15 L-23.9 -16.7 -22.3 -19.1 -22.2 -19.25 -22.05 -19.3 -21.75 -19.4 -21.4 -19.2 M-23.65 20.7 L-23.3 20.75 Q-22.5 25.85 -16.9 26.55 -15.7 26.7 -14.7 27.2 L-14.75 27.55 -14.8 27.75 -15.4 27.9 -18.5 28.0 -18.95 27.7 -19.0 27.6 Q-21.35 27.2 -23.05 25.95 -20.75 26.1 -18.3 27.3 L-16.0 27.35 Q-20.85 26.95 -23.35 23.05 -24.15 21.85 -23.65 20.7" fill="#333333" fill-rule="evenodd" stroke="none"/>
  </g>
</svg>
