<?xml version="1.0" encoding="UTF-8" standalone="no"?>
<svg xmlns:ffdec="https://www.free-decompiler.com/flash" xmlns:xlink="http://www.w3.org/1999/xlink" ffdec:objectType="shape" height="52.1px" width="18.7px" xmlns="http://www.w3.org/2000/svg">
  <g transform="matrix(1.0, 0.0, 0.0, 1.0, 9.35, 9.6)">
    <path d="M-4.15 -8.4 Q-1.9 -9.4 0.0 -9.6 13.15 -6.55 7.8 5.3 5.95 9.4 1.45 9.6 -10.05 10.15 -9.3 -1.1 -8.95 -6.35 -4.15 -8.4" fill="#7c3e23" fill-rule="evenodd" stroke="none"/>
    <path d="M1.15 40.25 Q1.15 41.0 0.75 41.75 L0.0 42.15 -1.0 42.5 -3.25 41.25 Q-4.05 33.95 -2.65 26.95 L-2.5 25.5 Q-1.55 22.95 1.0 22.6 L1.0 22.5 Q2.0 23.1 2.9 23.85 L3.5 24.5 Q1.5 32.15 1.15 40.25" fill="#7c3e23" fill-rule="evenodd" stroke="none"/>
  </g>
</svg>
