<?xml version="1.0" encoding="UTF-8" standalone="no"?>
<svg xmlns:ffdec="https://www.free-decompiler.com/flash" xmlns:xlink="http://www.w3.org/1999/xlink" ffdec:objectType="shape" height="21.0px" width="23.05px" xmlns="http://www.w3.org/2000/svg">
  <g transform="matrix(1.0, 0.0, 0.0, 1.0, 11.55, -21.5)">
    <path d="M3.5 24.5 Q2.05 30.0 1.5 35.8 3.75 34.65 7.0 34.5 10.05 33.9 11.35 36.55 L11.5 37.25 Q6.65 42.6 1.05 41.1 L0.75 41.75 0.0 42.15 -1.0 42.5 -3.25 41.25 Q-4.0 34.35 -2.8 27.7 L-6.5 31.0 -6.5 31.75 -6.5 32.5 -7.85 33.85 -9.0 34.5 -11.25 33.25 Q-11.65 32.15 -11.55 31.0 L-11.5 29.5 Q-9.4 25.75 -6.25 22.75 L-5.5 22.0 -4.05 21.65 -4.0 21.5 Q-3.0 22.1 -2.1 22.85 L-1.5 23.5 -1.5 23.85 Q-0.55 22.8 1.0 22.6 L1.0 22.5 Q2.0 23.1 2.9 23.85 L3.5 24.5" fill="#7c3e23" fill-rule="evenodd" stroke="none"/>
  </g>
</svg>
