<?xml version="1.0" encoding="UTF-8" standalone="no"?>
<svg xmlns:ffdec="https://www.free-decompiler.com/flash" xmlns:xlink="http://www.w3.org/1999/xlink" ffdec:objectType="shape" height="41.65px" width="25.0px" xmlns="http://www.w3.org/2000/svg">
  <g transform="matrix(1.0, 0.0, 0.0, 1.0, 9.5, -20.25)">
    <path d="M3.5 23.25 L3.15 23.9 3.1 24.0 3.5 24.5 Q1.6 31.75 1.2 39.4 2.05 38.8 3.0 38.5 11.25 36.0 14.1 42.7 L14.5 43.5 14.5 44.25 14.5 45.0 15.0 45.75 15.5 46.5 15.5 47.25 15.5 51.0 15.5 52.5 Q10.45 62.1 0.0 61.9 -1.1 61.85 -2.25 61.25 L-2.4 60.5 -2.3 58.25 -2.0 57.5 -1.45 57.05 Q-1.25 56.85 -1.0 56.8 L0.0 56.5 Q5.65 57.35 9.05 52.1 10.15 50.4 10.5 48.5 L10.15 47.8 9.5 47.0 9.5 46.25 9.5 45.5 9.15 44.8 8.5 44.0 4.5 44.0 3.8 44.75 Q3.0 45.7 1.95 46.15 L1.0 46.5 -0.4 45.85 -1.25 45.25 -1.4 44.5 -1.5 43.0 -1.5 42.25 -1.45 42.25 -3.25 41.25 Q-4.05 33.95 -2.65 26.95 L-4.85 28.7 Q-5.75 29.4 -7.0 29.5 -7.75 29.25 -8.3 28.8 L-9.5 27.5 Q-8.4 23.15 -3.8 21.15 -2.7 20.65 -2.0 20.5 1.7 19.55 3.35 22.6 L3.5 23.25" fill="#7c3e23" fill-rule="evenodd" stroke="none"/>
  </g>
</svg>
