<?xml version="1.0" encoding="UTF-8" standalone="no"?>
<svg xmlns:ffdec="https://www.free-decompiler.com/flash" xmlns:xlink="http://www.w3.org/1999/xlink" ffdec:objectType="shape" height="27.05px" width="38.05px" xmlns="http://www.w3.org/2000/svg">
  <g transform="matrix(1.0, 0.0, 0.0, 1.0, 20.55, -22.5)">
    <path d="M3.5 24.5 Q2.0 30.25 1.45 36.3 L16.85 39.4 Q17.25 39.5 17.5 40.25 L16.65 41.65 16.0 42.25 Q8.1 42.8 0.6 41.9 L0.15 42.1 Q-0.5 44.6 -0.8 47.2 -0.85 48.0 -1.25 48.75 -4.65 50.8 -6.5 47.5 L-6.25 46.05 -5.75 45.25 Q-5.3 43.4 -5.45 41.5 L-5.45 40.9 Q-13.05 39.35 -20.25 36.25 -20.65 34.4 -20.55 32.5 L-20.5 31.0 Q-11.2 27.0 -2.0 23.5 L-1.15 23.5 Q-0.3 22.8 1.0 22.6 L1.0 22.5 Q2.0 23.1 2.9 23.85 L3.5 24.5 M-3.1 29.7 Q-7.3 32.25 -12.5 33.75 L-3.5 35.35 Q-3.5 32.5 -3.1 29.7" fill="#7c3e23" fill-rule="evenodd" stroke="none"/>
  </g>
</svg>
