<?xml version="1.0" encoding="UTF-8" standalone="no"?>
<svg xmlns:ffdec="https://www.free-decompiler.com/flash" xmlns:xlink="http://www.w3.org/1999/xlink" ffdec:objectType="shape" height="36.45px" width="22.05px" xmlns="http://www.w3.org/2000/svg">
  <g transform="matrix(1.0, 0.0, 0.0, 1.0, 3.55, -18.45)">
    <path d="M3.0 19.5 Q9.75 17.2 15.25 20.0 17.35 21.05 17.5 23.25 L17.15 23.9 16.0 25.25 Q14.2 25.9 12.45 25.75 L3.25 25.5 Q1.95 30.7 1.45 36.1 3.5 34.6 6.5 33.9 L8.0 33.5 Q13.4 32.85 15.5 37.75 L15.75 38.5 16.7 39.3 17.25 40.0 18.05 43.85 Q18.5 45.6 18.5 47.5 L18.0 48.25 17.5 49.0 17.5 49.75 17.4 51.25 17.25 52.0 Q12.7 57.5 7.5 52.5 7.15 50.55 9.05 49.9 L12.25 49.0 12.45 48.25 12.85 46.8 13.25 46.0 Q13.2 44.05 12.0 42.1 11.05 40.55 9.75 39.25 7.9 38.15 5.7 39.65 L3.75 40.75 3.45 41.5 Q2.75 43.1 1.0 43.5 L-1.3 42.65 -2.3 41.75 -3.25 41.25 Q-4.05 33.95 -2.65 26.95 L-2.5 25.5 Q-1.65 23.15 0.6 22.7 L0.7 21.3 1.0 20.5 Q1.25 20.25 1.55 20.15 L2.95 19.65 3.0 19.5" fill="#7c3e23" fill-rule="evenodd" stroke="none"/>
  </g>
</svg>
