<?xml version="1.0" encoding="UTF-8" standalone="no"?>
<svg xmlns:ffdec="https://www.free-decompiler.com/flash" xmlns:xlink="http://www.w3.org/1999/xlink" ffdec:objectType="shape" height="28.4px" width="13.05px" xmlns="http://www.w3.org/2000/svg">
  <g transform="matrix(1.0, 0.0, 0.0, 1.0, 3.55, -22.5)">
    <path d="M3.5 24.5 Q2.2 29.45 1.6 34.6 9.6 35.85 9.5 44.75 L9.5 45.5 Q6.75 51.95 0.55 50.7 L-0.25 50.25 -0.4 49.5 -0.5 48.0 -0.5 47.25 -1.05 46.55 -2.5 45.0 -2.5 42.0 -2.5 41.65 -3.25 41.25 Q-4.05 33.95 -2.65 26.95 L-2.5 25.5 Q-1.55 22.95 1.0 22.6 L1.0 22.5 Q2.0 23.1 2.9 23.85 L3.5 24.5" fill="#7c3e23" fill-rule="evenodd" stroke="none"/>
  </g>
</svg>
