<?xml version="1.0" encoding="UTF-8" standalone="no"?>
<svg xmlns:ffdec="https://www.free-decompiler.com/flash" xmlns:xlink="http://www.w3.org/1999/xlink" ffdec:objectType="shape" height="39.0px" width="18.05px" xmlns="http://www.w3.org/2000/svg">
  <g transform="matrix(1.0, 0.0, 0.0, 1.0, 3.55, -22.5)">
    <path d="M0.7 22.65 L1.0 22.6 1.0 22.5 1.7 22.95 Q7.05 24.55 10.7 29.35 L11.75 30.25 Q12.9 32.0 13.65 33.95 L14.5 35.5 14.5 39.25 14.5 41.5 6.15 58.9 Q5.2 60.9 3.0 61.5 L1.6 60.85 0.75 60.25 0.6 59.5 0.5 58.0 0.5 57.25 1.45 55.7 2.25 54.25 2.45 53.5 2.5 52.75 2.5 52.0 Q5.8 47.95 8.15 43.05 8.8 41.65 8.5 40.0 L9.15 39.2 9.5 38.5 9.15 37.8 8.5 37.0 8.5 36.25 8.5 35.5 Q7.4 32.75 4.65 31.6 3.45 31.15 3.25 29.75 L2.45 29.25 Q1.4 34.65 1.15 40.25 1.15 41.0 0.75 41.75 L0.0 42.15 -1.0 42.5 -3.25 41.25 Q-4.05 33.95 -2.65 26.95 L-2.5 25.5 Q-2.85 24.05 -1.7 23.3 -0.7 22.65 0.0 22.5 L0.7 22.65" fill="#7c3e23" fill-rule="evenodd" stroke="none"/>
  </g>
</svg>
