<?xml version="1.0" encoding="UTF-8" standalone="no"?>
<svg xmlns:ffdec="https://www.free-decompiler.com/flash" xmlns:xlink="http://www.w3.org/1999/xlink" ffdec:objectType="shape" height="38.8px" width="26.95px" xmlns="http://www.w3.org/2000/svg">
  <g transform="matrix(1.0, 0.0, 0.0, 1.0, 10.5, -22.5)">
    <path d="M1.0 22.5 L2.4 23.45 Q3.05 22.6 4.0 22.5 9.75 22.7 13.7 27.3 L14.25 28.0 14.4 29.5 14.5 32.5 13.1 33.75 Q12.0 34.5 10.75 35.0 L10.45 35.7 10.0 36.45 9.5 37.0 8.0 37.55 5.0 38.75 Q9.4 44.3 15.65 48.4 L16.25 49.0 Q16.7 51.95 16.1 54.9 L15.0 59.5 Q-1.45 65.4 -10.5 51.75 L-10.5 48.0 -10.5 44.25 -10.0 43.5 -9.5 42.75 -9.5 42.0 -9.5 41.25 -3.5 37.3 Q-3.65 32.05 -2.65 26.95 L-2.5 25.5 Q-1.55 22.95 1.0 22.6 L1.0 22.5 M8.5 30.0 L7.95 29.65 Q6.3 29.2 5.25 27.75 L2.95 26.8 Q2.15 30.35 1.7 34.05 L8.5 30.0 M0.0 42.15 L-1.0 42.5 -1.9 42.0 -3.5 42.75 Q-8.5 52.35 3.1 55.9 9.6 57.9 11.5 53.0 L0.3 42.05 0.0 42.15" fill="#7c3e23" fill-rule="evenodd" stroke="none"/>
  </g>
</svg>
