<?xml version="1.0" encoding="UTF-8" standalone="no"?>
<svg xmlns:ffdec="https://www.free-decompiler.com/flash" xmlns:xlink="http://www.w3.org/1999/xlink" ffdec:objectType="shape" height="26.0px" width="17.0px" xmlns="http://www.w3.org/2000/svg">
  <g transform="matrix(1.0, 0.0, 0.0, 1.0, 13.5, -16.5)">
    <path d="M3.5 22.5 L3.45 23.25 3.35 24.25 3.5 24.5 Q1.5 32.15 1.15 40.25 1.15 41.0 0.75 41.75 L0.0 42.15 -1.0 42.5 -3.25 41.25 Q-3.65 37.55 -3.5 33.9 L-4.0 34.25 Q-10.0 35.95 -13.5 31.0 L-13.5 25.75 -13.5 22.0 Q-11.05 19.25 -8.05 17.4 L-7.5 17.0 Q-7.25 16.85 -7.0 16.85 L-6.0 16.65 -6.0 16.5 Q-0.85 17.6 2.95 21.8 L3.5 22.5 M-7.0 23.45 L-8.5 24.0 -8.5 25.5 -8.5 27.75 -3.3 31.3 -2.65 26.95 -2.5 25.5 -2.1 24.65 -3.45 23.9 -5.25 22.75 -7.0 23.45" fill="#7c3e23" fill-rule="evenodd" stroke="none"/>
  </g>
</svg>
