<?xml version="1.0" encoding="UTF-8" standalone="no"?>
<svg xmlns:ffdec="https://www.free-decompiler.com/flash" xmlns:xlink="http://www.w3.org/1999/xlink" ffdec:objectType="shape" height="29.1px" width="93.4px" xmlns="http://www.w3.org/2000/svg">
  <g transform="matrix(1.0, 0.0, 0.0, 1.0, 54.2, 104.45)">
    <path d="M35.8 -77.05 Q34.85 -87.35 36.05 -99.1" fill="none" stroke="#ff9900" stroke-linecap="round" stroke-linejoin="round" stroke-width="2.0"/>
    <path d="M38.1 -80.75 Q37.5 -80.05 36.6 -80.0 L-52.0 -80.0 Q-52.95 -80.05 -53.6 -80.75 -54.25 -81.45 -54.2 -82.5 L-54.2 -82.55 Q-54.25 -83.6 -53.6 -84.35 -52.95 -85.05 -52.0 -85.0 L36.6 -85.0 Q37.5 -85.05 38.1 -84.35 38.75 -83.6 38.8 -82.55 L38.8 -82.5 Q38.75 -81.45 38.1 -80.75" fill="#fed865" fill-rule="evenodd" stroke="none"/>
    <path d="M-39.95 -87.8 Q-37.95 -89.85 -35.15 -89.85 L23.85 -89.85 Q26.65 -89.85 28.65 -87.8 30.6 -85.75 30.65 -82.85 30.6 -79.95 28.65 -77.9 26.65 -75.85 23.85 -75.85 L-35.15 -75.85 Q-37.95 -75.85 -39.95 -77.9 -41.95 -79.95 -41.9 -82.85 -41.95 -85.75 -39.95 -87.8" fill="#009900" fill-rule="evenodd" stroke="none"/>
    <path d="M-39.95 -87.8 Q-41.95 -85.75 -41.9 -82.85 -41.95 -79.95 -39.95 -77.9 -37.95 -75.85 -35.15 -75.85 L23.85 -75.85 Q26.65 -75.85 28.65 -77.9 30.6 -79.95 30.65 -82.85 30.6 -85.75 28.65 -87.8 26.65 -89.85 23.85 -89.85 L-35.15 -89.85 Q-37.95 -89.85 -39.95 -87.8 Z" fill="none" stroke="#006600" stroke-linecap="round" stroke-linejoin="round" stroke-width="1.0"/>
    <path d="M38.5 -94.85 Q37.9 -94.15 37.0 -94.1 L-51.6 -94.1 Q-52.55 -94.15 -53.2 -94.85 -53.85 -95.55 -53.8 -96.6 L-53.8 -96.65 Q-53.85 -97.7 -53.2 -98.45 -52.55 -99.15 -51.6 -99.1 L37.0 -99.1 Q37.9 -99.15 38.5 -98.45 39.15 -97.7 39.2 -96.65 L39.2 -96.6 Q39.15 -95.55 38.5 -94.85" fill="#fed865" fill-rule="evenodd" stroke="none"/>
    <path d="M-39.55 -101.9 Q-37.55 -103.95 -34.75 -103.95 L24.25 -103.95 Q27.05 -103.95 29.05 -101.9 31.0 -99.85 31.05 -96.95 31.0 -94.05 29.05 -92.0 27.05 -89.95 24.25 -89.95 L-34.75 -89.95 Q-37.55 -89.95 -39.55 -92.0 -41.55 -94.05 -41.5 -96.95 -41.55 -99.85 -39.55 -101.9" fill="#009900" fill-rule="evenodd" stroke="none"/>
    <path d="M-39.55 -101.9 Q-41.55 -99.85 -41.5 -96.95 -41.55 -94.05 -39.55 -92.0 -37.55 -89.95 -34.75 -89.95 L24.25 -89.95 Q27.05 -89.95 29.05 -92.0 31.0 -94.05 31.05 -96.95 31.0 -99.85 29.05 -101.9 27.05 -103.95 24.25 -103.95 L-34.75 -103.95 Q-37.55 -103.95 -39.55 -101.9 Z" fill="none" stroke="#006600" stroke-linecap="round" stroke-linejoin="round" stroke-width="1.0"/>
  </g>
</svg>
