<?xml version="1.0" encoding="UTF-8" standalone="no"?>
<svg xmlns:ffdec="https://www.free-decompiler.com/flash" xmlns:xlink="http://www.w3.org/1999/xlink" ffdec:objectType="shape" height="75.0px" width="229.95px" xmlns="http://www.w3.org/2000/svg">
  <g transform="matrix(1.0, 0.0, 0.0, 1.0, 107.95, 33.45)">
    <path d="M111.0 -32.45 Q115.15 -32.45 118.05 -29.55 121.0 -26.6 121.0 -22.45 L121.0 30.55 Q121.0 34.7 118.05 37.6 115.15 40.55 111.0 40.55 L-96.95 40.55 Q-101.1 40.55 -104.05 37.6 -106.95 34.7 -106.95 30.55 L-106.95 -22.45 Q-106.95 -26.6 -104.05 -29.55 -101.1 -32.45 -96.95 -32.45 L111.0 -32.45" fill="#ffffff" fill-opacity="0.56078434" fill-rule="evenodd" stroke="none"/>
    <path d="M32.75 -32.45 L35.75 -32.45 M26.75 -32.45 L29.75 -32.45 M20.75 -32.45 L23.75 -32.45 M14.75 -32.45 L17.75 -32.45 M8.75 -32.45 L11.75 -32.45 M2.75 -32.45 L5.75 -32.45 M74.75 -32.45 L77.75 -32.45 M68.75 -32.45 L71.75 -32.45 M62.75 -32.45 L65.75 -32.45 M56.75 -32.45 L59.75 -32.45 M50.75 -32.45 L53.75 -32.45 M44.75 -32.45 L47.75 -32.45 M38.75 -32.45 L41.75 -32.45 M116.5 -30.85 L118.05 -29.55 Q119.15 -28.45 119.85 -27.15 M110.75 -32.45 L111.0 -32.45 113.75 -32.1 M104.75 -32.45 L107.75 -32.45 M86.75 -32.45 L89.75 -32.45 M92.75 -32.45 L95.75 -32.45 M120.85 -24.15 L121.0 -22.45 121.0 -21.35 M121.0 -18.35 L121.0 -15.35 M121.0 -12.35 L121.0 -9.35 M121.0 -6.35 L121.0 -3.35 M98.75 -32.45 L101.75 -32.45 M80.75 -32.45 L83.75 -32.45 M121.0 5.65 L121.0 8.65 M121.0 11.65 L121.0 14.65 M121.0 17.65 L121.0 20.65 M85.35 40.55 L82.35 40.55 M91.35 40.55 L88.35 40.55 M97.35 40.55 L94.35 40.55 M109.35 40.55 L106.35 40.55 M121.0 29.65 L121.0 30.55 120.8 32.7 M119.7 35.55 L118.05 37.6 117.75 37.9 M115.25 39.65 L112.25 40.5 M103.35 40.55 L100.35 40.55 M121.0 23.65 L121.0 26.65 M49.35 40.55 L46.35 40.55 M55.35 40.55 L52.35 40.55 M61.35 40.55 L58.35 40.55 M67.35 40.55 L64.35 40.55 M73.35 40.55 L70.35 40.55 M79.35 40.55 L76.35 40.55 M7.35 40.55 L4.35 40.55 M13.35 40.55 L10.35 40.55 M19.35 40.55 L16.35 40.55 M25.35 40.55 L22.35 40.55 M31.35 40.55 L28.35 40.55 M37.35 40.55 L34.35 40.55 M43.35 40.55 L40.35 40.55 M121.0 -0.35 L121.0 2.65 M-87.25 -32.45 L-84.25 -32.45 M-99.3 -32.2 L-96.95 -32.45 -96.25 -32.45 M-93.25 -32.45 L-90.25 -32.45 M-104.4 -29.15 L-104.05 -29.55 -102.1 -31.05 M-106.95 -5.65 L-106.95 -8.65 M-106.95 -11.65 L-106.95 -14.65 M-106.95 -17.65 L-106.95 -20.65 M-106.9 -23.65 Q-106.7 -25.15 -106.1 -26.5 M-45.25 -32.45 L-42.25 -32.45 M-51.25 -32.45 L-48.25 -32.45 M-57.25 -32.45 L-54.25 -32.45 M-63.25 -32.45 L-60.25 -32.45 M-69.25 -32.45 L-66.25 -32.45 M-75.25 -32.45 L-72.25 -32.45 M-3.25 -32.45 L-0.25 -32.45 M-9.25 -32.45 L-6.25 -32.45 M-15.25 -32.45 L-12.25 -32.45 M-21.25 -32.45 L-18.25 -32.45 M-27.25 -32.45 L-24.25 -32.45 M-33.25 -32.45 L-30.25 -32.45 M-39.25 -32.45 L-36.25 -32.45 M-81.25 -32.45 L-78.25 -32.45 M-34.65 40.55 L-37.65 40.55 M-28.65 40.55 L-31.65 40.55 M-22.65 40.55 L-25.65 40.55 M-16.65 40.55 L-19.65 40.55 M-10.65 40.55 L-13.65 40.55 M-4.65 40.55 L-7.65 40.55 M-76.65 40.55 L-79.65 40.55 M-70.65 40.55 L-73.65 40.55 M-64.65 40.55 L-67.65 40.55 M-58.65 40.55 L-61.65 40.55 M-52.65 40.55 L-55.65 40.55 M-46.65 40.55 L-49.65 40.55 M-40.65 40.55 L-43.65 40.55 M-106.95 6.35 L-106.95 3.35 M-106.95 12.35 L-106.95 9.35 M-106.95 24.35 L-106.95 21.35 M-106.95 18.35 L-106.95 15.35 M-105.25 36.15 Q-106.1 34.95 -106.5 33.55 M-106.95 30.35 L-106.95 27.35 M-82.65 40.55 L-85.65 40.55 M-88.65 40.55 L-91.65 40.55 M-94.65 40.55 L-96.95 40.55 -97.65 40.55 M-100.6 39.9 Q-102.0 39.35 -103.25 38.35 M-106.95 0.35 L-106.95 -2.65 M1.35 40.55 L-1.65 40.55" fill="none" stroke="#b475d0" stroke-linecap="round" stroke-linejoin="round" stroke-width="2.0"/>
  </g>
</svg>
