<?xml version="1.0" encoding="UTF-8" standalone="no"?>
<svg xmlns:ffdec="https://www.free-decompiler.com/flash" xmlns:xlink="http://www.w3.org/1999/xlink" ffdec:objectType="shape" height="29.9px" width="51.5px" xmlns="http://www.w3.org/2000/svg">
  <g transform="matrix(1.0, 0.0, 0.0, 1.0, 19.25, 48.9)">
    <path d="M22.25 -47.9 Q26.0 -47.9 28.6 -45.3 31.25 -42.65 31.25 -38.9 L31.25 -29.0 Q31.25 -25.25 28.6 -22.65 26.0 -20.0 22.25 -20.0 L-9.25 -20.0 Q-13.0 -20.0 -15.65 -22.65 -18.25 -25.25 -18.25 -29.0 L-18.25 -38.9 Q-18.25 -42.65 -15.65 -45.3 -13.0 -47.9 -9.25 -47.9 L22.25 -47.9" fill="#fed865" fill-rule="evenodd" stroke="none"/>
    <path d="M27.05 -46.55 L28.6 -45.3 30.35 -42.85 M21.25 -47.9 L22.25 -47.9 24.3 -47.7 M31.2 -39.85 L31.25 -38.9 31.25 -37.0 M31.25 -34.0 L31.25 -31.0 M31.2 -28.05 Q31.05 -26.5 30.4 -25.15 M15.25 -47.9 L18.25 -47.9 M9.25 -47.9 L12.25 -47.9 M3.25 -47.9 L6.25 -47.9 M5.55 -20.0 L2.55 -20.0 M11.55 -20.0 L8.55 -20.0 M17.55 -20.0 L14.55 -20.0 M28.6 -22.65 Q27.6 -21.6 26.4 -21.0 M23.45 -20.05 L22.25 -20.0 20.55 -20.0 M-8.75 -47.9 L-5.75 -47.9 M-18.25 -29.8 L-18.25 -32.8 M-18.25 -35.8 L-18.25 -38.8 M-17.85 -41.75 Q-17.35 -43.25 -16.3 -44.5 M-14.3 -46.35 Q-13.05 -47.2 -11.6 -47.6 M-0.45 -20.0 L-3.45 -20.0 M-6.45 -20.0 L-9.25 -20.0 M-12.3 -20.5 Q-13.8 -21.0 -15.05 -22.1 M-16.85 -24.1 Q-17.7 -25.4 -18.05 -26.9 M-2.75 -47.9 L0.25 -47.9" fill="none" stroke="#b475d0" stroke-linecap="round" stroke-linejoin="round" stroke-width="2.0"/>
  </g>
</svg>
