<?xml version="1.0" encoding="UTF-8" standalone="no"?>
<svg xmlns:ffdec="https://www.free-decompiler.com/flash" xmlns:xlink="http://www.w3.org/1999/xlink" ffdec:objectType="shape" height="11.8px" width="114.6px" xmlns="http://www.w3.org/2000/svg">
  <g transform="matrix(1.0, 0.0, 0.0, 1.0, 57.3, 5.9)">
    <path d="M2.5 -1.05 Q3.55 -2.1 5.0 -2.1 6.2 -2.1 7.2 -1.25 8.25 -0.4 8.4 0.65 L8.85 3.55 Q8.95 4.0 8.55 4.45 8.2 4.9 7.4 4.9 7.05 4.9 6.6 4.4 5.95 4.9 5.0 4.9 3.55 4.9 2.5 3.85 1.5 2.75 1.5 1.4 1.5 0.05 2.5 -1.05 M2.65 -0.25 L3.2 -0.85 3.5 -1.15 3.45 -1.25 3.3 -1.3 2.7 -0.85 2.0 0.1 1.8 0.8 1.85 0.9 1.95 0.95 2.15 0.9 2.25 0.5 2.65 -0.25 M10.55 -1.6 Q10.95 -2.05 11.55 -2.05 L12.25 -1.8 12.75 -1.2 13.7 0.95 14.6 -1.15 15.1 -1.8 15.8 -2.05 Q16.45 -2.05 16.85 -1.65 17.25 -1.25 17.25 -0.6 L17.2 -0.2 14.8 4.15 14.35 4.6 13.75 4.8 13.05 4.65 12.55 4.15 10.45 0.3 10.1 -0.6 Q10.1 -1.2 10.55 -1.6 M0.0 -1.75 Q0.5 -1.35 0.5 -0.8 0.5 -0.35 0.15 0.15 -0.25 0.55 -0.75 0.55 L-1.45 0.65 -1.55 1.15 -1.55 3.3 Q-1.55 3.9 -1.95 4.4 -2.35 4.8 -2.9 4.8 -3.5 4.8 -3.9 4.4 -4.25 4.0 -4.25 3.3 L-4.25 0.6 Q-4.25 -0.5 -3.4 -1.3 -2.6 -2.1 -1.4 -2.1 L0.0 -1.75 M20.3 -0.95 L20.4 -1.15 20.35 -1.25 20.3 -1.3 Q19.9 -1.3 19.3 -0.5 18.75 0.2 18.75 0.65 L19.0 0.8 19.1 0.65 19.6 -0.3 20.3 -0.95 M14.8 -0.95 Q14.8 -0.7 14.95 -0.7 L15.15 -0.75 15.25 -0.95 15.6 -1.45 15.45 -1.65 Q15.2 -1.65 15.05 -1.35 L14.8 -0.95 M10.65 -0.7 L11.2 -1.45 11.05 -1.65 10.65 -1.35 10.45 -0.85 10.65 -0.7 M21.85 -2.1 Q23.3 -2.1 24.35 -1.05 25.35 0.05 25.35 1.35 25.35 2.85 24.35 3.85 23.35 4.85 21.85 4.85 20.5 4.85 19.4 3.85 18.4 2.85 18.4 1.35 18.4 -0.05 19.4 -1.05 20.45 -2.1 21.85 -2.1 M32.05 -0.95 L32.3 -1.2 32.15 -1.35 31.25 -0.6 Q30.65 0.15 30.65 0.7 L30.7 0.8 30.75 0.85 30.95 0.8 31.1 0.4 31.5 -0.35 32.05 -0.95 M31.3 -1.05 Q32.35 -2.1 33.75 -2.1 L35.75 -1.65 Q36.5 -1.2 36.5 -0.5 36.5 0.0 36.1 0.4 35.7 0.8 35.25 0.8 L34.55 0.65 33.85 0.45 Q33.5 0.45 33.2 0.75 32.85 1.1 32.85 1.4 32.85 1.7 33.2 2.05 L33.85 2.35 35.15 2.05 Q35.8 2.05 36.1 2.4 36.5 2.7 36.5 3.25 36.5 4.0 35.75 4.45 L33.8 4.9 Q32.35 4.9 31.3 3.85 30.3 2.75 30.3 1.4 30.3 0.05 31.3 -1.05 M39.65 -1.15 L39.6 -1.25 39.55 -1.3 Q39.15 -1.3 38.55 -0.5 38.0 0.2 38.0 0.65 L38.25 0.8 38.35 0.65 38.85 -0.3 39.55 -0.95 39.65 -1.15 M46.8 -1.25 Q47.75 -2.1 49.0 -2.1 L50.15 -1.9 51.1 -1.2 Q51.85 -2.1 53.15 -2.1 54.45 -2.1 55.4 -1.25 56.3 -0.35 56.3 0.9 L56.3 3.3 Q56.3 3.9 55.9 4.4 55.5 4.8 54.95 4.8 54.35 4.8 53.95 4.4 53.6 4.0 53.6 3.25 L53.6 0.95 53.4 0.6 53.0 0.45 Q52.45 0.45 52.45 1.4 L52.45 3.3 52.05 4.35 Q51.6 4.8 51.05 4.8 L50.2 4.55 Q49.75 4.25 49.75 3.3 L49.75 1.4 49.6 0.65 49.2 0.45 Q48.55 0.45 48.55 1.4 L48.55 3.3 Q48.55 4.0 48.2 4.4 47.8 4.8 47.2 4.8 46.65 4.8 46.25 4.4 45.85 3.9 45.85 3.25 L45.85 0.65 Q45.85 -0.45 46.8 -1.25 M47.7 -1.3 L47.55 -1.45 46.7 -0.75 46.15 0.35 46.35 0.6 46.6 0.2 47.5 -1.05 47.7 -1.3 M41.1 -2.1 Q42.55 -2.1 43.6 -1.05 44.6 0.05 44.6 1.35 44.6 2.85 43.6 3.85 42.6 4.85 41.1 4.85 39.75 4.85 38.65 3.85 37.65 2.85 37.65 1.35 37.65 -0.05 38.65 -1.05 39.7 -2.1 41.1 -2.1 M-55.85 -1.4 L-56.1 -0.9 Q-56.1 -0.75 -55.85 -0.75 L-55.4 -1.35 -55.3 -1.45 -55.5 -1.7 -55.85 -1.4 M51.7 -0.95 L51.8 -1.1 51.75 -1.2 51.65 -1.25 51.45 -1.2 51.35 -0.95 51.4 -0.85 51.5 -0.8 51.7 -0.95 M-56.3 -0.6 Q-56.3 -1.2 -55.9 -1.6 -55.5 -2.05 -54.95 -2.05 L-54.2 -1.85 -53.65 -1.25 -52.5 1.05 -52.3 0.75 -52.65 0.0 -52.85 -0.7 -52.5 -1.6 -51.45 -2.05 -50.7 -1.9 -50.3 -1.4 -49.2 0.95 -48.25 -1.1 -47.7 -1.8 -46.9 -2.05 Q-46.4 -2.05 -46.05 -1.6 -45.6 -1.2 -45.6 -0.65 L-45.8 0.0 -48.05 4.0 -48.65 4.65 -49.3 4.8 -49.85 4.65 -50.25 4.3 -50.95 3.05 -51.6 4.15 -52.05 4.65 -52.65 4.8 Q-53.45 4.8 -53.75 4.2 L-56.15 0.0 -56.3 -0.6 M-47.95 -0.75 L-47.8 -0.8 -47.3 -1.5 -47.45 -1.7 -47.9 -1.35 -48.1 -0.95 -47.95 -0.75 M-52.2 -1.0 L-51.95 -1.3 -51.85 -1.5 Q-51.85 -1.7 -52.0 -1.7 L-52.4 -1.35 -52.6 -0.95 -52.5 -0.75 -52.3 -0.8 -52.2 -1.0 M-44.05 -1.6 Q-43.65 -2.05 -43.1 -2.05 L-42.35 -1.85 -41.8 -1.25 -40.65 1.05 -40.45 0.75 -40.8 0.0 -41.0 -0.7 -40.65 -1.6 Q-40.25 -2.05 -39.6 -2.05 L-38.85 -1.9 -38.45 -1.4 -37.35 0.95 -36.4 -1.1 -35.85 -1.8 -35.05 -2.05 Q-34.55 -2.05 -34.2 -1.6 -33.75 -1.2 -33.75 -0.65 L-33.95 0.0 -36.2 4.0 -36.8 4.65 -37.45 4.8 -38.0 4.65 -38.4 4.3 -39.1 3.05 -39.75 4.15 -40.2 4.65 -40.8 4.8 Q-41.6 4.8 -41.9 4.2 L-44.3 0.0 -44.45 -0.6 Q-44.45 -1.2 -44.05 -1.6 M-36.25 -0.95 L-36.1 -0.75 -35.95 -0.8 -35.45 -1.5 -35.6 -1.7 -36.05 -1.35 -36.25 -0.95 M-40.55 -1.35 L-40.75 -0.95 -40.65 -0.75 -40.45 -0.8 -40.35 -1.0 -40.1 -1.3 -40.0 -1.5 Q-40.0 -1.7 -40.15 -1.7 L-40.55 -1.35 M-44.0 -1.4 L-44.25 -0.9 Q-44.25 -0.75 -44.0 -0.75 L-43.8 -1.0 -43.55 -1.35 -43.45 -1.45 -43.65 -1.7 -44.0 -1.4 M-31.25 -2.05 L-30.5 -1.85 -29.95 -1.25 -28.8 1.05 -28.6 0.75 -28.95 0.0 -29.15 -0.7 -28.8 -1.6 -27.75 -2.05 -27.0 -1.9 -26.6 -1.4 -25.5 0.95 -24.6 -1.1 -24.0 -1.8 -23.2 -2.05 -22.35 -1.6 Q-21.95 -1.25 -21.95 -0.65 L-22.1 0.0 -24.35 4.0 -24.95 4.65 -25.6 4.8 -26.15 4.65 -26.55 4.3 -27.25 3.05 -27.9 4.15 -28.35 4.65 -28.95 4.8 Q-29.75 4.8 -30.05 4.2 L-32.45 0.0 -32.6 -0.6 Q-32.6 -1.2 -32.2 -1.6 -31.8 -2.05 -31.25 -2.05 M-16.15 -3.75 L-15.75 -4.3 -15.95 -4.5 -16.3 -4.2 -16.5 -3.7 -16.35 -3.5 -16.15 -3.75 M-23.75 -1.7 L-24.2 -1.35 -24.4 -0.95 -24.25 -0.75 -24.1 -0.8 -23.6 -1.5 -23.75 -1.7 M-28.6 -0.8 L-28.5 -1.0 -28.25 -1.3 -28.15 -1.5 -28.3 -1.7 -28.7 -1.35 -28.9 -0.95 -28.8 -0.75 -28.6 -0.8 M-31.95 -1.0 L-31.75 -1.35 -31.6 -1.45 -31.8 -1.7 -32.15 -1.4 -32.4 -0.9 Q-32.4 -0.75 -32.15 -0.75 L-31.95 -1.0 M-16.35 -1.65 Q-15.95 -2.1 -15.4 -2.1 -14.75 -2.1 -14.4 -1.65 -14.0 -1.25 -14.0 -0.6 L-14.0 3.3 Q-14.0 3.9 -14.4 4.4 -14.8 4.8 -15.4 4.8 -15.95 4.8 -16.35 4.4 L-16.7 3.3 -16.7 -0.6 Q-16.7 -1.3 -16.35 -1.65 M-16.7 -3.5 L-16.35 -4.45 Q-15.95 -4.9 -15.4 -4.9 -14.85 -4.9 -14.45 -4.5 -14.0 -4.05 -14.0 -3.5 -14.0 -2.9 -14.45 -2.55 -14.85 -2.15 -15.4 -2.15 -15.9 -2.15 -16.3 -2.55 -16.7 -2.9 -16.7 -3.5 M-11.45 -4.4 L-11.5 -4.5 -11.6 -4.55 -12.0 -4.3 -12.2 -3.8 -12.05 -3.6 -11.85 -3.8 -11.6 -4.15 -11.45 -4.4 M-15.7 -1.6 L-15.75 -1.7 -15.85 -1.75 -16.25 -1.5 -16.45 -1.0 -16.25 -0.8 -16.05 -1.0 -15.85 -1.35 -15.7 -1.6 M-12.5 -3.35 Q-12.5 -4.1 -12.15 -4.45 -11.75 -4.9 -11.15 -4.9 -10.55 -4.9 -10.2 -4.45 -9.8 -4.05 -9.8 -3.35 L-9.8 -1.95 -9.05 -2.15 Q-7.6 -2.15 -6.55 -1.1 -5.55 0.0 -5.55 1.3 -5.55 2.8 -6.55 3.8 -7.65 4.8 -9.0 4.8 -10.5 4.8 -11.5 3.75 -12.5 2.75 -12.5 1.6 L-12.5 -3.35 M-2.8 -1.4 Q-3.1 -1.4 -3.55 -0.8 L-3.95 0.25 -3.75 0.4 -3.25 -0.6 -2.9 -0.95 -2.7 -1.25 -2.7 -1.35 -2.8 -1.4 M-8.05 1.3 Q-8.05 0.95 -8.35 0.65 -8.65 0.35 -9.05 0.35 -9.4 0.35 -9.7 0.65 L-10.0 1.3 -9.75 2.0 -9.05 2.3 Q-8.65 2.3 -8.35 2.0 -8.05 1.7 -8.05 1.3 M-7.65 1.6 L-7.8 1.65 -7.95 1.85 -8.3 2.35 -8.2 2.45 -8.05 2.55 -7.7 2.2 -7.5 1.8 -7.65 1.6 M42.1 1.4 L41.8 0.75 Q41.5 0.45 41.15 0.45 40.75 0.45 40.45 0.75 40.2 1.0 40.2 1.45 L40.45 2.05 41.1 2.35 41.8 2.05 42.1 1.4 M-18.45 4.4 Q-18.95 4.8 -19.4 4.8 -19.95 4.8 -20.35 4.4 -20.75 4.05 -20.75 3.45 -20.75 2.9 -20.35 2.5 -20.0 2.1 -19.4 2.1 -18.85 2.1 -18.45 2.5 -18.05 2.9 -18.05 3.45 -18.05 4.0 -18.45 4.4 M-19.75 2.65 L-19.95 2.5 -20.3 2.8 -20.55 3.25 -20.35 3.45 -20.15 3.25 -19.75 2.65 M42.2 1.9 L41.8 2.5 Q41.8 2.65 42.05 2.65 L42.4 2.35 42.6 1.9 42.4 1.7 42.2 1.9 M26.85 2.5 Q27.25 2.1 27.8 2.1 28.4 2.1 28.75 2.5 29.15 2.85 29.15 3.45 29.15 4.05 28.75 4.4 28.35 4.8 27.8 4.8 27.25 4.8 26.85 4.4 26.45 4.0 26.45 3.45 26.45 2.9 26.85 2.5 M23.15 2.35 L23.35 1.9 23.15 1.7 22.95 1.9 22.55 2.5 Q22.55 2.65 22.8 2.65 L23.15 2.35 M27.5 2.65 L27.25 2.5 26.95 2.8 26.7 3.25 Q26.7 3.45 26.85 3.45 L27.1 3.25 27.3 2.9 27.5 2.65 M5.8 2.6 L5.9 2.65 Q6.15 2.65 6.3 2.35 L6.5 1.95 6.35 1.75 6.2 1.75 6.05 2.0 5.85 2.25 5.75 2.5 5.8 2.6 M6.0 1.4 Q6.0 1.0 5.7 0.75 5.4 0.45 5.0 0.45 4.65 0.45 4.35 0.75 4.05 1.0 4.05 1.4 L4.3 2.1 5.0 2.35 5.7 2.1 6.0 1.4 M22.55 0.75 Q22.25 0.45 21.9 0.45 21.5 0.45 21.2 0.75 20.95 1.0 20.95 1.45 L21.2 2.05 Q21.5 2.35 21.85 2.35 22.35 2.35 22.55 2.05 L22.85 1.4 22.55 0.75" fill="#f181b6" fill-rule="evenodd" stroke="none"/>
    <path d="M2.5 -1.05 Q1.5 0.05 1.5 1.4 1.5 2.75 2.5 3.85 3.55 4.9 5.0 4.9 5.95 4.9 6.6 4.4 7.05 4.9 7.4 4.9 8.2 4.9 8.55 4.45 8.95 4.0 8.85 3.55 L8.4 0.65 Q8.25 -0.4 7.2 -1.25 6.2 -2.1 5.0 -2.1 3.55 -2.1 2.5 -1.05 M0.0 -1.75 L-1.4 -2.1 Q-2.6 -2.1 -3.4 -1.3 -4.25 -0.5 -4.25 0.6 L-4.25 3.3 Q-4.25 4.0 -3.9 4.4 -3.5 4.8 -2.9 4.8 -2.35 4.8 -1.95 4.4 -1.55 3.9 -1.55 3.3 L-1.55 1.15 -1.45 0.65 -0.75 0.55 Q-0.25 0.55 0.15 0.15 0.5 -0.35 0.5 -0.8 0.5 -1.35 0.0 -1.75 M10.55 -1.6 Q10.1 -1.2 10.1 -0.6 L10.45 0.3 12.55 4.15 13.05 4.65 13.75 4.8 14.35 4.6 14.8 4.15 17.2 -0.2 17.25 -0.6 Q17.25 -1.25 16.85 -1.65 16.45 -2.05 15.8 -2.05 L15.1 -1.8 14.6 -1.15 13.7 0.95 12.75 -1.2 12.25 -1.8 11.55 -2.05 Q10.95 -2.05 10.55 -1.6 M21.85 -2.1 Q20.45 -2.1 19.4 -1.05 18.4 -0.05 18.4 1.35 18.4 2.85 19.4 3.85 20.5 4.85 21.85 4.85 23.35 4.85 24.35 3.85 25.35 2.85 25.35 1.35 25.35 0.05 24.35 -1.05 23.3 -2.1 21.85 -2.1 M31.3 -1.05 Q30.3 0.05 30.3 1.4 30.3 2.75 31.3 3.85 32.35 4.9 33.8 4.9 L35.75 4.45 Q36.5 4.0 36.5 3.25 36.5 2.7 36.1 2.4 35.8 2.05 35.15 2.05 L33.85 2.35 33.2 2.05 Q32.85 1.7 32.85 1.4 32.85 1.1 33.2 0.75 33.5 0.45 33.85 0.45 L34.55 0.65 35.25 0.8 Q35.7 0.8 36.1 0.4 36.5 0.0 36.5 -0.5 36.5 -1.2 35.75 -1.65 L33.75 -2.1 Q32.35 -2.1 31.3 -1.05 M46.8 -1.25 Q45.85 -0.45 45.85 0.65 L45.85 3.25 Q45.85 3.9 46.25 4.4 46.65 4.8 47.2 4.8 47.8 4.8 48.2 4.4 48.55 4.0 48.55 3.3 L48.55 1.4 Q48.55 0.45 49.2 0.45 L49.6 0.65 49.75 1.4 49.75 3.3 Q49.75 4.25 50.2 4.55 L51.05 4.8 Q51.6 4.8 52.05 4.35 L52.45 3.3 52.45 1.4 Q52.45 0.45 53.0 0.45 L53.4 0.6 53.6 0.95 53.6 3.25 Q53.6 4.0 53.95 4.4 54.35 4.8 54.95 4.8 55.5 4.8 55.9 4.4 56.3 3.9 56.3 3.3 L56.3 0.9 Q56.3 -0.35 55.4 -1.25 54.45 -2.1 53.15 -2.1 51.85 -2.1 51.1 -1.2 L50.15 -1.9 49.0 -2.1 Q47.75 -2.1 46.8 -1.25 M41.1 -2.1 Q39.7 -2.1 38.65 -1.05 37.65 -0.05 37.65 1.35 37.65 2.85 38.65 3.85 39.75 4.85 41.1 4.85 42.6 4.85 43.6 3.85 44.6 2.85 44.6 1.35 44.6 0.05 43.6 -1.05 42.55 -2.1 41.1 -2.1 M-56.3 -0.6 L-56.15 0.0 -53.75 4.2 Q-53.45 4.8 -52.65 4.8 L-52.05 4.65 -51.6 4.15 -50.95 3.05 -50.25 4.3 -49.85 4.65 -49.3 4.8 -48.65 4.65 -48.05 4.0 -45.8 0.0 -45.6 -0.65 Q-45.6 -1.2 -46.05 -1.6 -46.4 -2.05 -46.9 -2.05 L-47.7 -1.8 -48.25 -1.1 -49.2 0.95 -50.3 -1.4 -50.7 -1.9 -51.45 -2.05 -52.5 -1.6 -52.85 -0.7 -52.65 0.0 -52.3 0.75 -52.5 1.05 -53.65 -1.25 -54.2 -1.85 -54.95 -2.05 Q-55.5 -2.05 -55.9 -1.6 -56.3 -1.2 -56.3 -0.6 M-44.05 -1.6 Q-44.45 -1.2 -44.45 -0.6 L-44.3 0.0 -41.9 4.2 Q-41.6 4.8 -40.8 4.8 L-40.2 4.65 -39.75 4.15 -39.1 3.05 -38.4 4.3 -38.0 4.65 -37.45 4.8 -36.8 4.65 -36.2 4.0 -33.95 0.0 -33.75 -0.65 Q-33.75 -1.2 -34.2 -1.6 -34.55 -2.05 -35.05 -2.05 L-35.85 -1.8 -36.4 -1.1 -37.35 0.95 -38.45 -1.4 -38.85 -1.9 -39.6 -2.05 Q-40.25 -2.05 -40.65 -1.6 L-41.0 -0.7 -40.8 0.0 -40.45 0.75 -40.65 1.05 -41.8 -1.25 -42.35 -1.85 -43.1 -2.05 Q-43.65 -2.05 -44.05 -1.6 M-31.25 -2.05 Q-31.8 -2.05 -32.2 -1.6 -32.6 -1.2 -32.6 -0.6 L-32.45 0.0 -30.05 4.2 Q-29.75 4.8 -28.95 4.8 L-28.35 4.65 -27.9 4.15 -27.25 3.05 -26.55 4.3 -26.15 4.65 -25.6 4.8 -24.95 4.65 -24.35 4.0 -22.1 0.0 -21.95 -0.65 Q-21.95 -1.25 -22.35 -1.6 L-23.2 -2.05 -24.0 -1.8 -24.6 -1.1 -25.5 0.95 -26.6 -1.4 -27.0 -1.9 -27.75 -2.05 -28.8 -1.6 -29.15 -0.7 -28.95 0.0 -28.6 0.75 -28.8 1.05 -29.95 -1.25 -30.5 -1.85 -31.25 -2.05 M-16.7 -3.5 Q-16.7 -2.9 -16.3 -2.55 -15.9 -2.15 -15.4 -2.15 -14.85 -2.15 -14.45 -2.55 -14.0 -2.9 -14.0 -3.5 -14.0 -4.05 -14.45 -4.5 -14.85 -4.9 -15.4 -4.9 -15.95 -4.9 -16.35 -4.45 L-16.7 -3.5 M-16.35 -1.65 Q-16.7 -1.3 -16.7 -0.6 L-16.7 3.3 -16.35 4.4 Q-15.95 4.8 -15.4 4.8 -14.8 4.8 -14.4 4.4 -14.0 3.9 -14.0 3.3 L-14.0 -0.6 Q-14.0 -1.25 -14.4 -1.65 -14.75 -2.1 -15.4 -2.1 -15.95 -2.1 -16.35 -1.65 M-12.5 -3.35 L-12.5 1.6 Q-12.5 2.75 -11.5 3.75 -10.5 4.8 -9.0 4.8 -7.65 4.8 -6.55 3.8 -5.55 2.8 -5.55 1.3 -5.55 0.0 -6.55 -1.1 -7.6 -2.15 -9.05 -2.15 L-9.8 -1.95 -9.8 -3.35 Q-9.8 -4.05 -10.2 -4.45 -10.55 -4.9 -11.15 -4.9 -11.75 -4.9 -12.15 -4.45 -12.5 -4.1 -12.5 -3.35 M-8.05 1.3 Q-8.05 1.7 -8.35 2.0 -8.65 2.3 -9.05 2.3 L-9.75 2.0 -10.0 1.3 -9.7 0.65 Q-9.4 0.35 -9.05 0.35 -8.65 0.35 -8.35 0.65 -8.05 0.95 -8.05 1.3 M-19.75 2.65 L-20.15 3.25 -20.35 3.45 -20.55 3.25 -20.3 2.8 -19.95 2.5 -19.75 2.65 M-18.45 4.4 Q-18.05 4.0 -18.05 3.45 -18.05 2.9 -18.45 2.5 -18.85 2.1 -19.4 2.1 -20.0 2.1 -20.35 2.5 -20.75 2.9 -20.75 3.45 -20.75 4.05 -20.35 4.4 -19.95 4.8 -19.4 4.8 -18.95 4.8 -18.45 4.4 M42.1 1.4 L41.8 2.05 41.1 2.35 40.45 2.05 40.2 1.45 Q40.2 1.0 40.45 0.75 40.75 0.45 41.15 0.45 41.5 0.45 41.8 0.75 L42.1 1.4 M26.85 2.5 Q26.45 2.9 26.45 3.45 26.45 4.0 26.85 4.4 27.25 4.8 27.8 4.8 28.35 4.8 28.75 4.4 29.15 4.05 29.15 3.45 29.15 2.85 28.75 2.5 28.4 2.1 27.8 2.1 27.25 2.1 26.85 2.5 M22.55 0.75 L22.85 1.4 22.55 2.05 Q22.35 2.35 21.85 2.35 21.5 2.35 21.2 2.05 L20.95 1.45 Q20.95 1.0 21.2 0.75 21.5 0.45 21.9 0.45 22.25 0.45 22.55 0.75 M6.0 1.4 L5.7 2.1 5.0 2.35 4.3 2.1 4.05 1.4 Q4.05 1.0 4.35 0.75 4.65 0.45 5.0 0.45 5.4 0.45 5.7 0.75 6.0 1.0 6.0 1.4 M5.8 2.6 L5.75 2.5 5.85 2.25 6.05 2.0 6.2 1.75 6.35 1.75 6.5 1.95 6.3 2.35 Q6.15 2.65 5.9 2.65 L5.8 2.6 Z" fill="none" stroke="#ffffff" stroke-linecap="round" stroke-linejoin="round" stroke-width="2.0"/>
  </g>
</svg>
