<?xml version="1.0" encoding="UTF-8" standalone="no"?>
<svg xmlns:ffdec="https://www.free-decompiler.com/flash" xmlns:xlink="http://www.w3.org/1999/xlink" ffdec:objectType="shape" height="196.25px" width="183.8px" xmlns="http://www.w3.org/2000/svg">
  <g transform="matrix(1.0, 0.0, 0.0, 1.0, 104.25, 92.5)">
    <path d="M16.0 -88.65 L7.85 -89.15 Q9.1 -90.85 14.2 -90.5 L14.55 -90.45 16.25 -90.05 17.1 -89.75 15.9 -89.6 15.45 -89.45 16.0 -88.65 M10.5 -92.45 Q10.05 -91.65 8.55 -91.05 L6.75 -90.85 Q6.35 -91.1 6.4 -91.35 7.55 -92.55 9.45 -92.5 L10.5 -92.45 M24.4 -88.95 Q27.25 -87.9 30.2 -85.05 L31.85 -82.3 Q26.3 -88.4 19.65 -88.7 L24.4 -88.95 M-72.65 16.75 Q-67.75 4.95 -51.5 -14.8 -16.45 -55.4 18.8 -66.35 28.25 -67.65 26.5 -57.5 25.7 -53.75 24.15 -49.4 L24.8 -49.2 Q21.85 -38.1 16.6 -32.1 L15.65 -31.1 16.2 -32.5 16.4 -33.0 Q19.3 -40.6 18.35 -45.15 13.45 -29.3 12.25 -30.8 14.4 -35.6 16.55 -44.85 18.5 -51.1 13.9 -49.9 -49.75 -4.5 -62.05 50.0 -62.05 42.85 -60.3 33.75 -56.35 12.9 -43.8 -6.85 -58.45 8.5 -65.1 29.1 -62.35 8.7 -46.85 -12.6 -61.3 0.8 -72.65 16.75 M29.35 -46.8 L29.6 -45.55 30.1 -43.7 30.1 -42.95 Q30.2 -41.25 28.5 -40.2 L26.25 -38.75 Q26.35 -39.75 27.05 -40.8 L28.25 -43.3 29.0 -45.55 29.35 -46.8 M13.75 -46.75 L14.1 -45.5 Q14.1 -44.45 14.75 -44.85 14.45 -43.1 13.8 -41.6 13.1 -39.9 12.15 -38.65 L11.75 -38.15 12.05 -39.5 12.0 -41.9 11.25 -43.95 Q11.9 -43.8 12.45 -44.35 L13.5 -45.85 13.75 -46.75 M32.05 -50.25 L30.8 -47.0 Q30.45 -47.6 30.35 -48.1 L30.35 -48.95 Q30.15 -49.75 31.3 -51.0 32.75 -52.65 32.05 -50.25 M-63.3 -54.8 Q-63.1 -56.2 -61.55 -56.4 L-59.25 -56.9 Q-58.55 -57.1 -59.0 -56.35 L-61.75 -54.25 -63.45 -53.05 -63.3 -54.8 M-99.25 -10.15 Q-98.5 -14.1 -93.75 -21.1 -91.5 -22.15 -87.25 -26.1 -94.35 -18.4 -99.25 -10.15 M-46.1 14.3 L-44.1 11.45 -42.25 8.75 Q-41.35 7.15 -39.95 6.45 L-41.0 8.75 -42.3 11.85 Q-42.6 12.5 -43.45 12.75 L-44.1 13.05 -46.1 14.3 M-70.0 36.8 Q-72.0 35.35 -70.55 26.0 -67.95 22.65 -64.8 16.9 -69.7 27.45 -70.0 36.8" fill="#bd1700" fill-rule="evenodd" stroke="none"/>
    <path d="M-72.65 16.75 L-75.75 21.2 Q-74.15 -1.15 -56.4 -25.95 -65.1 -20.0 -73.05 -11.4 -69.75 -20.75 -61.9 -30.9 -70.75 -23.25 -85.7 -6.35 -83.4 -17.3 -72.5 -31.25 -82.6 -23.1 -104.25 2.35 -48.55 -85.2 11.4 -87.55 17.75 -87.85 22.6 -86.4 39.4 -80.65 33.1 -60.65 27.45 -43.2 20.95 -35.75 24.75 -43.25 24.8 -49.2 L24.15 -49.4 Q25.7 -53.75 26.5 -57.5 28.25 -67.65 18.8 -66.35 -16.45 -55.4 -51.5 -14.8 -67.75 4.95 -72.65 16.75 M-3.9 -29.45 Q-19.35 -13.45 -33.1 4.5 -31.85 -0.8 -28.15 -4.65 -30.9 -4.55 -34.15 -1.2 -21.8 -17.25 -6.15 -30.65 L-11.65 -23.75 -3.9 -29.45 M-39.65 -74.8 Q-39.05 -73.7 -32.75 -76.45 -44.0 -69.8 -55.3 -60.3 -53.3 -64.0 -64.0 -58.7 -51.95 -69.2 -39.65 -74.8 M-81.25 0.55 L-81.8 0.5 Q-90.25 7.85 -89.45 16.25 L-88.35 15.25 -87.75 13.95 -86.15 10.85 -83.65 6.55 -82.25 4.15 -81.0 1.5 Q-80.65 0.65 -81.25 0.55 M-87.4 2.75 Q-83.9 -1.6 -79.65 -5.2 -78.4 -2.45 -72.1 -7.9 -79.55 2.15 -83.5 13.6 L-86.2 20.0 Q-88.4 26.8 -90.3 24.1 -95.8 16.7 -87.4 2.75" fill="#ff3418" fill-rule="evenodd" stroke="none"/>
    <path d="M60.75 -34.9 L52.6 -35.4 Q53.85 -37.1 58.95 -36.75 L59.3 -36.7 61.0 -36.3 61.85 -36.0 60.65 -35.85 60.2 -35.7 60.75 -34.9 M55.25 -38.7 Q54.8 -37.9 53.3 -37.3 L51.5 -37.1 Q51.1 -37.35 51.15 -37.6 52.3 -38.8 54.2 -38.75 L55.25 -38.7 M74.95 -31.3 L76.6 -28.55 Q71.05 -34.65 64.4 -34.95 L69.15 -35.2 Q72.0 -34.15 74.95 -31.3" fill="#bd1700" fill-rule="evenodd" stroke="none"/>
    <path d="M-18.55 -1.05 Q-18.35 -2.45 -16.8 -2.65 L-14.5 -3.15 Q-13.8 -3.35 -14.25 -2.6 L-17.0 -0.5 -18.7 0.7 -18.55 -1.05 M75.1 4.8 Q74.9 4.0 76.05 2.75 77.5 1.1 76.8 3.5 L75.55 6.75 75.1 5.65 75.1 4.8 M58.5 7.0 L58.85 8.25 Q58.85 9.3 59.5 8.9 L58.55 12.15 56.9 15.1 56.5 15.6 56.8 14.25 56.75 11.85 Q56.55 10.7 56.0 9.8 56.65 9.95 57.2 9.4 L58.25 7.9 58.5 7.0 M74.1 6.95 L74.35 8.2 74.85 10.05 74.85 10.8 Q74.95 12.5 73.25 13.55 72.0 14.2 71.0 15.0 71.1 14.0 71.8 12.95 L73.0 10.45 73.75 8.2 74.1 6.95 M-25.25 90.55 Q-27.25 89.1 -25.8 79.75 -23.2 76.4 -20.05 70.65 -24.95 81.2 -25.25 90.55 M-1.35 68.05 L0.65 65.2 2.5 62.5 Q3.4 60.9 4.8 60.2 L3.75 62.5 2.45 65.6 Q2.15 66.25 1.3 66.5 L0.65 66.8 -1.35 68.05 M-54.5 43.6 Q-53.75 39.65 -49.0 32.65 -46.75 31.6 -42.5 27.65 -49.6 35.35 -54.5 43.6" fill="#009900" fill-rule="evenodd" stroke="none"/>
    <path d="M-27.9 70.5 Q-23.0 58.7 -6.75 38.95 28.3 -1.65 63.55 -12.6 73.0 -13.9 71.25 -3.75 70.45 0.0 68.9 4.35 L69.55 4.55 Q66.6 15.65 61.35 21.65 L60.4 22.65 60.95 21.25 61.15 20.75 Q64.05 13.15 63.1 8.6 58.2 24.45 57.0 22.95 59.15 18.15 61.3 8.9 63.25 2.65 58.65 3.85 -5.0 49.25 -17.3 103.75 -17.3 96.6 -15.55 87.5 -11.6 66.65 0.95 46.9 -13.7 62.25 -20.35 82.85 -17.6 62.45 -2.1 41.15 -16.55 54.55 -27.9 70.5" fill="#078d1f" fill-rule="evenodd" stroke="none"/>
    <path d="M-10.55 -6.55 Q-8.55 -10.25 -19.25 -4.95 -7.2 -15.45 5.1 -21.05 5.7 -19.95 12.0 -22.7 0.75 -16.05 -10.55 -6.55 M-27.9 70.5 L-31.0 74.95 Q-29.4 52.6 -11.65 27.8 -20.35 33.75 -28.3 42.35 -25.0 33.0 -17.15 22.85 -26.0 30.5 -40.95 47.4 -38.65 36.45 -27.75 22.5 -37.85 30.65 -59.5 56.1 -3.8 -31.45 56.15 -33.8 62.5 -34.1 67.35 -32.65 84.15 -26.9 77.85 -6.9 72.2 10.55 65.7 18.0 69.5 10.5 69.55 4.55 L68.9 4.35 Q70.45 0.0 71.25 -3.75 73.0 -13.9 63.55 -12.6 28.3 -1.65 -6.75 38.95 -23.0 58.7 -27.9 70.5 M10.6 52.55 Q22.95 36.5 38.6 23.1 L33.1 30.0 40.85 24.3 Q25.4 40.3 11.65 58.25 12.9 52.95 16.6 49.1 13.85 49.2 10.6 52.55 M-37.05 54.25 Q-45.5 61.6 -44.7 70.0 L-43.6 69.0 -43.0 67.7 -41.4 64.6 -38.9 60.3 -37.5 57.9 -36.25 55.25 Q-35.9 54.4 -36.5 54.3 L-37.05 54.25 M-38.75 67.35 L-41.45 73.75 Q-43.65 80.55 -45.55 77.85 -51.05 70.45 -42.65 56.5 -39.15 52.15 -34.9 48.55 -33.65 51.3 -27.35 45.85 -34.8 55.9 -38.75 67.35" fill="#75e133" fill-rule="evenodd" stroke="none"/>
    <path d="M-42.2 52.9 Q-39.6 49.55 -36.45 43.8 -41.35 54.35 -41.65 63.7 -43.65 62.25 -42.2 52.9" fill="#009900" fill-rule="evenodd" stroke="none"/>
    <path d="M-11.3 -47.9 Q-10.7 -46.8 -4.4 -49.55 -15.65 -42.9 -26.95 -33.4 -24.95 -37.1 -35.65 -31.8 -23.6 -42.3 -11.3 -47.9 M-44.3 43.65 L-47.4 48.1 Q-45.8 25.75 -28.05 0.95 -36.75 6.9 -44.7 15.5 -41.4 6.15 -33.55 -4.0 -42.4 3.65 -57.35 20.55 -55.05 9.6 -44.15 -4.35 -54.25 3.8 -75.9 29.25 -20.2 -58.3 39.75 -60.65 46.1 -60.95 50.95 -59.5 67.75 -53.75 61.45 -33.75 55.8 -16.3 49.3 -8.85 53.1 -16.35 53.15 -22.3 L52.5 -22.5 Q54.05 -26.85 54.85 -30.6 56.6 -40.75 47.15 -39.45 11.9 -28.5 -23.15 12.1 -39.4 31.85 -44.3 43.65 M24.45 -2.55 Q9.0 13.45 -4.75 31.4 -3.5 26.1 0.2 22.25 -2.55 22.35 -5.8 25.7 6.55 9.65 22.2 -3.75 L16.7 3.15 24.45 -2.55 M-53.45 27.4 Q-61.9 34.75 -61.1 43.15 L-60.0 42.15 -59.4 40.85 -57.8 37.75 -55.3 33.45 -53.9 31.05 -52.65 28.4 Q-52.3 27.55 -52.9 27.45 L-53.45 27.4 M-59.05 29.65 Q-55.55 25.3 -51.3 21.7 -50.05 24.45 -43.75 19.0 -51.2 29.05 -55.15 40.5 L-57.85 46.9 Q-60.05 53.7 -61.95 51.0 -67.45 43.6 -59.05 29.65" fill="#fbeab9" fill-rule="evenodd" stroke="none"/>
    <path d="M42.9 -63.55 L44.6 -63.15 45.45 -62.85 44.25 -62.7 43.8 -62.55 44.35 -61.75 36.2 -62.25 Q37.45 -63.95 42.55 -63.6 L42.9 -63.55 M36.9 -64.15 L35.1 -63.95 Q34.7 -64.2 34.75 -64.45 35.9 -65.65 37.8 -65.6 L38.85 -65.55 Q38.4 -64.75 36.9 -64.15 M-44.3 43.65 Q-39.4 31.85 -23.15 12.1 11.9 -28.5 47.15 -39.45 56.6 -40.75 54.85 -30.6 54.05 -26.85 52.5 -22.5 L53.15 -22.3 Q50.2 -11.2 44.95 -5.2 L44.0 -4.2 44.55 -5.6 44.75 -6.1 Q47.65 -13.7 46.7 -18.25 41.8 -2.4 40.6 -3.9 42.75 -8.7 44.9 -17.95 46.85 -24.2 42.25 -23.0 -21.4 22.4 -33.7 76.9 -33.7 69.75 -31.95 60.65 -28.0 39.8 -15.45 20.05 -30.1 35.4 -36.75 56.0 -34.0 35.6 -18.5 14.3 -32.95 27.7 -44.3 43.65 M58.55 -58.15 L60.2 -55.4 Q54.65 -61.5 48.0 -61.8 L52.75 -62.05 Q55.6 -61.0 58.55 -58.15 M58.7 -22.05 Q58.5 -22.85 59.65 -24.1 61.1 -25.75 60.4 -23.35 L59.15 -20.1 58.7 -21.2 58.7 -22.05 M42.1 -19.85 L42.45 -18.6 Q42.45 -17.55 43.1 -17.95 42.8 -16.2 42.15 -14.7 L40.5 -11.75 40.1 -11.25 40.4 -12.6 40.35 -15.0 39.6 -17.05 Q40.25 -16.9 40.8 -17.45 L41.85 -18.95 42.1 -19.85 M58.45 -16.05 Q58.55 -14.35 56.85 -13.3 55.6 -12.65 54.6 -11.85 54.7 -12.85 55.4 -13.9 L56.6 -16.4 57.35 -18.65 57.7 -19.9 57.95 -18.65 58.45 -16.8 58.45 -16.05 M-34.95 -27.9 Q-34.75 -29.3 -33.2 -29.5 L-30.9 -30.0 Q-30.2 -30.2 -30.65 -29.45 L-33.4 -27.35 -35.1 -26.15 -34.95 -27.9 M-17.75 41.2 L-15.75 38.35 -13.9 35.65 Q-13.0 34.05 -11.6 33.35 L-12.65 35.65 -13.95 38.75 Q-14.25 39.4 -15.1 39.65 -15.45 39.75 -15.75 39.95 L-17.75 41.2 M-70.9 16.75 Q-70.15 12.8 -65.4 5.8 -63.15 4.75 -58.9 0.8 -66.0 8.5 -70.9 16.75" fill="#f8d981" fill-rule="evenodd" stroke="none"/>
  </g>
</svg>
