<?xml version="1.0" encoding="UTF-8" standalone="no"?>
<svg xmlns:ffdec="https://www.free-decompiler.com/flash" xmlns:xlink="http://www.w3.org/1999/xlink" ffdec:objectType="shape" height="190.75px" width="247.85px" xmlns="http://www.w3.org/2000/svg">
  <g transform="matrix(1.0, 0.0, 0.0, 1.0, 123.85, 95.35)">
    <path d="M-122.65 -17.9 L-122.65 -17.95 Q-119.35 -35.0 -102.8 -38.4 -92.4 -40.6 -83.6 -50.95 -74.85 -61.35 -70.35 -76.05 -65.9 -90.8 -46.85 -94.0 -26.25 -97.4 -9.45 -92.35 8.85 -86.8 28.05 -90.95 46.3 -94.85 63.15 -89.1 81.6 -82.8 82.55 -68.35 83.45 -53.95 93.55 -46.2 103.65 -38.5 116.1 -28.1 L118.7 -25.6 Q127.75 -5.95 89.6 24.35 51.4 54.6 27.35 56.45 3.25 58.3 -12.65 57.15 -28.6 56.0 -40.1 50.95 -51.65 45.85 -70.8 39.2 -90.0 32.55 -100.5 22.95 L-102.45 21.2 Q-112.0 9.75 -118.0 -4.25 L-122.35 -16.95 -122.65 -17.9 M121.0 1.85 Q115.4 16.2 108.05 28.3 100.5 40.8 88.05 53.9 75.55 67.0 61.7 77.65 47.85 88.25 30.75 92.05 13.7 95.85 -11.65 95.35 -29.05 94.85 -46.9 88.05 -64.25 81.4 -79.4 72.85 -92.3 65.55 -103.65 50.35 L-107.75 44.45 Q-105.25 45.95 -102.65 47.25 -76.1 60.35 -46.45 63.2 L-29.85 64.95 Q-5.05 67.75 19.65 63.8 42.0 60.25 61.2 47.9 67.95 43.55 74.45 38.9 L99.1 20.7 Q110.65 11.95 121.0 1.85" fill="#ffffff" fill-rule="evenodd" stroke="none"/>
    <path d="M-122.85 -16.75 L-122.65 -17.9 -122.35 -16.95 -122.85 -16.75" fill="#eaeaea" fill-rule="evenodd" stroke="none"/>
    <path d="M118.7 -25.6 Q127.7 -15.55 121.35 0.95 L121.0 1.85 Q110.65 11.95 99.1 20.7 L74.45 38.9 Q67.95 43.55 61.2 47.9 42.0 60.25 19.65 63.8 -5.05 67.75 -29.85 64.95 L-46.45 63.2 Q-76.1 60.35 -102.65 47.25 -105.25 45.95 -107.75 44.45 -114.85 33.35 -119.9 19.7 L-120.0 19.45 -123.35 5.6 -123.45 4.6 -123.65 2.75 -123.75 1.75 -123.8 0.95 -123.85 0.1 -123.3 -13.65 -123.25 -14.1 -122.9 -16.55 -122.85 -16.75 -122.35 -16.95 -118.0 -4.25 Q-112.0 9.75 -102.45 21.2 L-100.5 22.95 Q-90.0 32.55 -70.8 39.2 -51.65 45.85 -40.1 50.95 -28.6 56.0 -12.65 57.15 3.25 58.3 27.35 56.45 51.4 54.6 89.6 24.35 127.75 -5.95 118.7 -25.6" fill="#f1f1f1" fill-rule="evenodd" stroke="none"/>
    <path d="M78.1 -40.75 L78.9 -41.6 Q79.25 -42.5 78.85 -43.45 L78.65 -44.0 Q79.95 -46.2 80.1 -48.75 L80.8 -49.1 81.2 -49.25 81.9 -48.85 82.85 -45.35 83.0 -44.75 82.3 -42.1 Q82.3 -41.5 82.45 -40.9 L82.55 -40.3 82.3 -39.6 82.1 -38.95 82.25 -38.35 82.4 -37.8 82.0 -37.05 82.15 -35.85 82.25 -35.25 Q81.25 -33.1 81.6 -30.75 80.55 -28.4 79.8 -25.9 L79.95 -25.3 80.1 -24.75 Q77.3 -21.5 76.05 -17.45 68.95 -7.85 58.85 -1.25 L58.45 -0.5 58.15 0.0 Q40.15 10.55 19.75 11.3 26.95 5.45 37.1 1.9 L39.6 0.85 Q63.8 -10.5 76.15 -34.05 76.35 -36.8 77.95 -38.85 L78.05 -40.15 78.1 -40.75 M-70.85 -46.55 Q-65.15 -45.1 -60.1 -41.05 L-58.75 -40.1 Q-44.9 -31.55 -26.15 -34.9 -24.3 -36.0 -22.5 -36.0 L-21.65 -36.55 -21.25 -36.8 -20.45 -36.7 -19.25 -37.5 -18.95 -37.85 Q-17.15 -38.1 -15.45 -39.15 L-15.05 -38.9 -14.85 -38.75 -14.95 -38.15 -16.95 -36.1 -17.3 -35.8 Q-18.35 -35.3 -19.25 -35.05 L-20.0 -34.4 -20.35 -34.1 -20.85 -33.9 -21.35 -33.75 -21.7 -33.4 -22.05 -33.05 -22.65 -33.0 -23.4 -32.4 -23.75 -32.05 Q-25.45 -31.65 -26.9 -30.45 L-30.55 -29.35 -30.9 -29.0 -31.2 -28.65 Q-34.1 -28.8 -37.1 -27.75 -45.25 -27.5 -52.25 -30.25 L-52.85 -30.15 -53.25 -30.1 Q-65.0 -35.55 -70.85 -46.55" fill="#f1f1f1" fill-rule="evenodd" stroke="none"/>
  </g>
</svg>
