<?xml version="1.0" encoding="UTF-8" standalone="no"?>
<svg xmlns:ffdec="https://www.free-decompiler.com/flash" xmlns:xlink="http://www.w3.org/1999/xlink" ffdec:objectType="shape" height="150.0px" width="243.9px" xmlns="http://www.w3.org/2000/svg">
  <g transform="matrix(1.0, 0.0, 0.0, 1.0, 121.65, 97.5)">
    <path d="M-71.15 -90.25 L-71.75 -90.85 -72.4 -91.0 -72.9 -91.0 -73.65 -90.25 -72.4 -89.0 -71.15 -90.25 M-50.55 -95.9 L-50.9 -96.0 -51.15 -96.0 -51.5 -95.65 -50.9 -95.0 -50.25 -95.65 -50.55 -95.9 M-52.5 -77.95 L-52.9 -78.0 -53.15 -78.0 -53.5 -77.65 Q-53.35 -76.85 -52.65 -76.5 L-51.75 -76.9 -52.15 -77.6 -52.4 -77.9 -52.5 -77.95 M-62.0 -61.65 L-61.4 -61.0 -60.75 -61.65 -61.05 -61.9 -61.4 -62.0 -61.65 -62.0 -62.0 -61.65 M-76.65 -58.25 L-75.4 -57.0 -74.15 -58.25 -74.75 -58.85 -75.4 -59.0 -75.9 -59.0 -76.65 -58.25 M-9.05 -97.4 L-9.4 -97.5 -9.65 -97.5 -10.0 -97.15 -9.4 -96.5 -8.75 -97.15 -9.05 -97.4 M-13.35 -72.6 Q-13.5 -73.1 -13.9 -73.15 L-14.65 -73.0 -15.0 -72.65 -14.5 -71.9 -14.15 -71.5 -13.5 -71.5 Q-13.15 -72.0 -13.35 -72.6 M-30.9 -64.0 L-31.65 -63.25 -30.4 -62.0 -29.15 -63.25 -29.75 -63.85 -30.4 -64.0 -30.9 -64.0 M-36.05 -44.4 L-36.4 -44.5 -36.65 -44.5 -37.0 -44.15 -36.4 -43.5 -35.75 -44.15 -36.05 -44.4 M-8.75 -40.85 L-9.4 -41.0 -9.9 -41.0 -10.65 -40.25 -9.4 -39.0 -8.15 -40.25 -8.75 -40.85 M-28.65 -7.25 L-27.4 -6.0 -26.15 -7.25 -26.75 -7.85 -27.4 -8.0 -27.9 -8.0 -28.65 -7.25 M-49.65 -34.25 L-48.4 -33.0 -47.15 -34.25 -47.75 -34.85 -48.4 -35.0 -48.9 -35.0 -49.65 -34.25 M-65.5 -32.15 L-64.9 -31.5 -64.25 -32.15 -64.55 -32.4 -64.9 -32.5 -65.15 -32.5 -65.5 -32.15 M-81.55 -23.9 L-81.9 -24.0 -82.15 -24.0 -82.5 -23.65 -81.9 -23.0 -81.25 -23.65 -81.55 -23.9 M-71.0 -4.95 L-71.65 -5.0 -71.95 -4.6 -72.0 -4.25 -71.95 -3.9 -71.65 -3.5 -70.25 -3.9 -70.65 -4.6 -70.9 -4.9 -71.0 -4.95 M-116.55 -27.4 L-116.9 -27.5 -117.15 -27.5 -117.5 -27.15 -116.9 -26.5 -116.25 -27.15 -116.55 -27.4 M-101.05 -47.4 L-101.4 -47.5 -101.65 -47.5 -102.0 -47.15 -101.4 -46.5 -100.75 -47.15 -101.05 -47.4 M-100.9 -25.5 L-100.25 -26.15 -100.55 -26.4 -100.9 -26.5 -101.15 -26.5 -101.5 -26.15 -100.9 -25.5 M-96.0 -7.65 L-95.4 -7.0 -94.75 -7.65 -95.05 -7.95 -95.4 -8.0 -95.65 -8.0 -96.0 -7.65 M-120.9 -11.0 L-121.65 -10.25 -120.4 -9.0 -119.15 -10.25 -119.75 -10.85 -120.4 -11.0 -120.9 -11.0 M-109.75 0.35 L-110.05 0.05 -110.4 0.0 -110.65 0.0 -111.0 0.35 -110.4 1.0 -109.75 0.35 M-86.65 13.0 L-87.0 13.35 -86.4 14.0 -85.75 13.35 -86.05 13.05 -86.4 13.0 -86.65 13.0 M-71.4 24.0 L-71.9 24.0 -72.65 24.75 -71.4 26.0 -70.15 24.75 -70.75 24.15 -71.4 24.0 M-50.9 34.0 L-51.65 34.75 -50.4 36.0 -49.15 34.75 -49.75 34.15 -50.4 34.0 -50.9 34.0 M-9.65 24.5 L-9.95 24.9 -10.0 25.25 -9.95 25.6 -9.65 26.0 -8.25 25.6 -8.65 24.9 -8.9 24.6 -9.0 24.55 -9.65 24.5 M-22.5 51.85 L-21.9 52.5 -21.25 51.85 -21.55 51.55 -21.9 51.5 -22.15 51.5 -22.5 51.85 M121.0 -16.65 L121.6 -16.0 122.25 -16.65 121.95 -16.9 121.6 -17.0 121.35 -17.0 121.0 -16.65 M80.5 -48.15 L81.1 -47.5 81.75 -48.15 81.45 -48.4 81.1 -48.5 80.85 -48.5 80.5 -48.15 M77.45 -34.9 L77.1 -35.0 76.85 -35.0 76.5 -34.65 77.1 -34.0 77.75 -34.65 77.45 -34.9 M108.0 -43.15 L108.6 -42.5 109.25 -43.15 108.95 -43.4 108.6 -43.5 108.35 -43.5 108.0 -43.15 M101.5 -23.65 L102.1 -23.0 102.75 -23.65 102.45 -23.9 102.1 -24.0 101.85 -24.0 101.5 -23.65 M78.1 -16.0 L77.35 -15.25 78.6 -14.0 79.85 -15.25 79.25 -15.85 78.6 -16.0 78.1 -16.0 M5.45 -82.9 L5.1 -83.0 4.85 -83.0 4.5 -82.65 5.1 -82.0 5.75 -82.65 5.45 -82.9 M32.1 -95.5 L31.85 -95.5 31.5 -95.15 32.1 -94.5 32.75 -95.15 32.45 -95.4 32.1 -95.5 M31.35 -87.25 L32.6 -86.0 33.85 -87.25 33.25 -87.85 32.6 -88.0 32.1 -88.0 31.35 -87.25 M17.25 -63.85 L16.6 -64.0 16.1 -64.0 15.35 -63.25 16.6 -62.0 17.85 -63.25 17.25 -63.85 M28.6 -52.0 L28.1 -52.0 27.35 -51.25 28.6 -50.0 29.85 -51.25 29.25 -51.85 28.6 -52.0 M74.0 -67.65 L74.6 -67.0 75.25 -67.65 74.95 -67.9 74.6 -68.0 74.35 -68.0 74.0 -67.65 M58.45 -52.4 L58.1 -52.5 57.85 -52.5 57.5 -52.15 58.1 -51.5 58.75 -52.15 58.45 -52.4 M52.85 -63.5 L52.5 -63.15 53.1 -62.5 53.75 -63.15 53.45 -63.4 53.1 -63.5 52.85 -63.5 M41.35 -18.25 L42.6 -17.0 43.85 -18.25 43.25 -18.85 42.6 -19.0 42.1 -19.0 41.35 -18.25 M5.05 -24.9 L5.35 -24.5 6.75 -24.9 6.35 -25.6 6.1 -25.9 6.0 -25.95 5.35 -26.0 5.05 -25.6 5.0 -25.25 5.05 -24.9 M14.85 19.75 L14.25 19.15 13.6 19.0 13.1 19.0 12.35 19.75 13.6 21.0 14.85 19.75 M18.1 3.5 L17.85 3.5 17.5 3.85 18.1 4.5 18.75 3.85 18.45 3.55 18.1 3.5 M10.0 44.85 L10.6 45.5 11.25 44.85 10.95 44.55 10.6 44.5 10.35 44.5 10.0 44.85 M46.85 2.75 L46.25 2.15 Q46.0 2.0 45.6 2.0 L45.1 2.0 44.35 2.75 45.6 4.0 46.85 2.75 M67.45 0.05 L67.1 0.0 66.85 0.0 66.5 0.35 67.1 1.0 67.75 0.35 67.45 0.05 M67.6 22.0 L68.85 20.75 68.25 20.15 67.6 20.0 67.1 20.0 66.35 20.75 67.6 22.0 M45.0 36.35 L45.6 37.0 46.25 36.35 45.95 36.05 45.6 36.0 45.35 36.0 45.0 36.35 M92.0 1.35 L92.6 2.0 93.25 1.35 92.95 1.05 92.6 1.0 92.35 1.0 92.0 1.35" fill="#999999" fill-rule="evenodd" stroke="none"/>
  </g>
</svg>
