<?xml version="1.0" encoding="UTF-8" standalone="no"?>
<svg xmlns:ffdec="https://www.free-decompiler.com/flash" xmlns:xlink="http://www.w3.org/1999/xlink" ffdec:objectType="shape" height="150.0px" width="243.9px" xmlns="http://www.w3.org/2000/svg">
  <g transform="matrix(1.0, 0.0, 0.0, 1.0, 127.65, 97.5)">
    <path d="M66.35 -90.85 L67.0 -91.0 67.5 -91.0 68.25 -90.25 67.0 -89.0 65.75 -90.25 66.35 -90.85 M46.1 -95.65 L45.5 -95.0 44.85 -95.65 45.15 -95.9 45.5 -96.0 45.75 -96.0 46.1 -95.65 M47.0 -77.9 L47.1 -77.95 47.5 -78.0 47.75 -78.0 48.1 -77.65 Q47.95 -76.85 47.25 -76.5 L46.35 -76.9 46.75 -77.6 47.0 -77.9 M56.0 -62.0 L56.25 -62.0 56.6 -61.65 56.0 -61.0 55.35 -61.65 55.65 -61.9 56.0 -62.0 M68.75 -58.25 L69.35 -58.85 70.0 -59.0 70.5 -59.0 71.25 -58.25 70.0 -57.0 68.75 -58.25 M4.0 -96.5 L3.35 -97.15 3.65 -97.4 4.0 -97.5 4.25 -97.5 4.6 -97.15 4.0 -96.5 M8.1 -71.5 Q7.75 -72.0 7.95 -72.6 8.1 -73.1 8.5 -73.15 L9.25 -73.0 9.6 -72.65 9.1 -71.9 8.75 -71.5 8.1 -71.5 M23.75 -63.25 L24.35 -63.85 25.0 -64.0 25.5 -64.0 26.25 -63.25 25.0 -62.0 23.75 -63.25 M31.6 -44.15 L31.0 -43.5 30.35 -44.15 30.65 -44.4 31.0 -44.5 31.25 -44.5 31.6 -44.15 M2.75 -40.25 L3.35 -40.85 4.0 -41.0 4.5 -41.0 5.25 -40.25 4.0 -39.0 2.75 -40.25 M23.25 -7.25 L22.0 -6.0 20.75 -7.25 21.35 -7.85 22.0 -8.0 22.5 -8.0 23.25 -7.25 M44.25 -34.25 L43.0 -33.0 41.75 -34.25 42.35 -34.85 43.0 -35.0 43.5 -35.0 44.25 -34.25 M59.75 -32.5 L60.1 -32.15 59.5 -31.5 58.85 -32.15 59.15 -32.4 59.5 -32.5 59.75 -32.5 M77.1 -23.65 L76.5 -23.0 75.85 -23.65 76.15 -23.9 76.5 -24.0 76.75 -24.0 77.1 -23.65 M65.25 -4.6 L65.5 -4.9 65.6 -4.95 66.25 -5.0 66.55 -4.6 66.6 -4.25 66.55 -3.9 66.25 -3.5 64.85 -3.9 65.25 -4.6 M111.75 -27.5 L112.1 -27.15 111.5 -26.5 110.85 -27.15 111.15 -27.4 111.5 -27.5 111.75 -27.5 M96.6 -47.15 L96.0 -46.5 95.35 -47.15 95.65 -47.4 96.0 -47.5 96.25 -47.5 96.6 -47.15 M95.5 -26.5 L95.75 -26.5 96.1 -26.15 95.5 -25.5 94.85 -26.15 95.15 -26.4 95.5 -26.5 M90.25 -8.0 L90.6 -7.65 90.0 -7.0 89.35 -7.65 89.65 -7.95 90.0 -8.0 90.25 -8.0 M116.25 -10.25 L115.0 -9.0 113.75 -10.25 114.35 -10.85 115.0 -11.0 115.5 -11.0 116.25 -10.25 M104.35 0.35 L104.65 0.05 105.0 0.0 105.25 0.0 105.6 0.35 105.0 1.0 104.35 0.35 M81.6 13.35 L81.0 14.0 80.35 13.35 80.65 13.05 81.0 13.0 81.25 13.0 81.6 13.35 M66.5 24.0 L67.25 24.75 66.0 26.0 64.75 24.75 65.35 24.15 66.0 24.0 66.5 24.0 M43.75 34.75 L44.35 34.15 45.0 34.0 45.5 34.0 46.25 34.75 45.0 36.0 43.75 34.75 M3.6 24.55 L4.25 24.5 4.55 24.9 4.6 25.25 4.55 25.6 4.25 26.0 2.85 25.6 3.25 24.9 3.5 24.6 3.6 24.55 M17.1 51.85 L16.5 52.5 15.85 51.85 16.15 51.55 16.5 51.5 16.75 51.5 17.1 51.85 M-127.65 -16.65 L-127.35 -16.9 -127.0 -17.0 -126.75 -17.0 -126.4 -16.65 -127.0 -16.0 -127.65 -16.65 M-87.15 -48.15 L-86.85 -48.4 -86.5 -48.5 -86.25 -48.5 -85.9 -48.15 -86.5 -47.5 -87.15 -48.15 M-82.5 -35.0 L-82.25 -35.0 -81.9 -34.65 -82.5 -34.0 -83.15 -34.65 -82.85 -34.9 -82.5 -35.0 M-114.0 -43.5 L-113.75 -43.5 -113.4 -43.15 -114.0 -42.5 -114.65 -43.15 -114.35 -43.4 -114.0 -43.5 M-107.25 -24.0 L-106.9 -23.65 -107.5 -23.0 -108.15 -23.65 -107.85 -23.9 -107.5 -24.0 -107.25 -24.0 M-84.0 -16.0 L-83.5 -16.0 -82.75 -15.25 -84.0 -14.0 -85.25 -15.25 -84.65 -15.85 -84.0 -16.0 M-10.5 -83.0 L-10.25 -83.0 -9.9 -82.65 -10.5 -82.0 -11.15 -82.65 -10.85 -82.9 -10.5 -83.0 M-37.5 -94.5 L-38.15 -95.15 -37.85 -95.4 -37.5 -95.5 -37.25 -95.5 -36.9 -95.15 -37.5 -94.5 M-38.65 -87.85 L-38.0 -88.0 -37.5 -88.0 -36.75 -87.25 -38.0 -86.0 -39.25 -87.25 -38.65 -87.85 M-20.75 -63.25 L-22.0 -62.0 -23.25 -63.25 -22.65 -63.85 -22.0 -64.0 -21.5 -64.0 -20.75 -63.25 M-35.25 -51.25 L-34.65 -51.85 -34.0 -52.0 -33.5 -52.0 -32.75 -51.25 -34.0 -50.0 -35.25 -51.25 M-80.65 -67.65 L-80.35 -67.9 -80.0 -68.0 -79.75 -68.0 -79.4 -67.65 -80.0 -67.0 -80.65 -67.65 M-63.5 -52.5 L-63.25 -52.5 -62.9 -52.15 -63.5 -51.5 -64.15 -52.15 -63.85 -52.4 -63.5 -52.5 M-59.15 -63.15 L-58.85 -63.4 -58.5 -63.5 -58.25 -63.5 -57.9 -63.15 -58.5 -62.5 -59.15 -63.15 M-48.0 -19.0 L-47.5 -19.0 -46.75 -18.25 -48.0 -17.0 -49.25 -18.25 -48.65 -18.85 -48.0 -19.0 M-11.5 -25.9 L-11.4 -25.95 -10.75 -26.0 -10.45 -25.6 -10.4 -25.25 -10.45 -24.9 -10.75 -24.5 -12.15 -24.9 -11.75 -25.6 -11.5 -25.9 M-20.25 19.75 L-19.65 19.15 -19.0 19.0 -18.5 19.0 -17.75 19.75 -19.0 21.0 -20.25 19.75 M-23.5 4.5 L-24.15 3.85 -23.85 3.55 -23.5 3.5 -23.25 3.5 -22.9 3.85 -23.5 4.5 M-15.4 44.85 L-16.0 45.5 -16.65 44.85 -16.35 44.55 -16.0 44.5 -15.75 44.5 -15.4 44.85 M-52.25 2.75 L-51.65 2.15 Q-51.4 2.0 -51.0 2.0 L-50.5 2.0 -49.75 2.75 -51.0 4.0 -52.25 2.75 M-72.5 0.0 L-72.25 0.0 -71.9 0.35 -72.5 1.0 -73.15 0.35 -72.85 0.05 -72.5 0.0 M-72.5 20.0 L-71.75 20.75 -73.0 22.0 -74.25 20.75 -73.65 20.15 -73.0 20.0 -72.5 20.0 M-51.65 36.35 L-51.35 36.05 -51.0 36.0 -50.75 36.0 -50.4 36.35 -51.0 37.0 -51.65 36.35 M-98.0 2.0 L-98.65 1.35 -98.35 1.05 -98.0 1.0 -97.75 1.0 -97.4 1.35 -98.0 2.0" fill="#f3b701" fill-rule="evenodd" stroke="none"/>
  </g>
</svg>
