<?xml version="1.0" encoding="UTF-8" standalone="no"?>
<svg xmlns:ffdec="https://www.free-decompiler.com/flash" xmlns:xlink="http://www.w3.org/1999/xlink" ffdec:objectType="shape" height="150.0px" width="243.9px" xmlns="http://www.w3.org/2000/svg">
  <g transform="matrix(1.0, 0.0, 0.0, 1.0, 127.65, 97.5)">
    <path d="M-77.75 -90.85 L-78.4 -91.0 -78.9 -91.0 -79.65 -90.25 -78.4 -89.0 -77.15 -90.25 -77.75 -90.85 M-57.5 -95.65 L-56.9 -95.0 -56.25 -95.65 -56.55 -95.9 -56.9 -96.0 -57.15 -96.0 -57.5 -95.65 M-58.5 -77.95 L-58.9 -78.0 -59.15 -78.0 -59.5 -77.65 Q-59.35 -76.85 -58.65 -76.5 L-57.75 -76.9 -58.15 -77.6 -58.4 -77.9 -58.5 -77.95 M-68.0 -61.65 L-67.4 -61.0 -66.75 -61.65 -67.05 -61.9 -67.4 -62.0 -67.65 -62.0 -68.0 -61.65 M-82.65 -58.25 L-81.4 -57.0 -80.15 -58.25 -80.75 -58.85 -81.4 -59.0 -81.9 -59.0 -82.65 -58.25 M-15.4 -97.5 L-15.65 -97.5 -16.0 -97.15 -15.4 -96.5 -14.75 -97.15 -15.05 -97.4 -15.4 -97.5 M-19.35 -72.6 Q-19.5 -73.1 -19.9 -73.15 L-20.65 -73.0 -21.0 -72.65 -20.5 -71.9 -20.15 -71.5 -19.5 -71.5 Q-19.15 -72.0 -19.35 -72.6 M-36.9 -64.0 L-37.65 -63.25 -36.4 -62.0 -35.15 -63.25 -35.75 -63.85 -36.4 -64.0 -36.9 -64.0 M-42.4 -44.5 L-42.65 -44.5 -43.0 -44.15 -42.4 -43.5 -41.75 -44.15 -42.05 -44.4 -42.4 -44.5 M-14.75 -40.85 L-15.4 -41.0 -15.9 -41.0 -16.65 -40.25 -15.4 -39.0 -14.15 -40.25 -14.75 -40.85 M-34.65 -7.25 L-33.4 -6.0 -32.15 -7.25 -32.75 -7.85 -33.4 -8.0 -33.9 -8.0 -34.65 -7.25 M-55.65 -34.25 L-54.4 -33.0 -53.15 -34.25 -53.75 -34.85 -54.4 -35.0 -54.9 -35.0 -55.65 -34.25 M-71.5 -32.15 L-70.9 -31.5 -70.25 -32.15 -70.55 -32.4 -70.9 -32.5 -71.15 -32.5 -71.5 -32.15 M-87.9 -24.0 L-88.15 -24.0 -88.5 -23.65 -87.9 -23.0 -87.25 -23.65 -87.55 -23.9 -87.9 -24.0 M-76.65 -4.6 L-76.9 -4.9 -77.0 -4.95 -77.65 -5.0 -77.95 -4.6 -78.0 -4.25 -77.95 -3.9 -77.65 -3.5 -76.25 -3.9 -76.65 -4.6 M-122.9 -27.5 L-123.15 -27.5 -123.5 -27.15 -122.9 -26.5 -122.25 -27.15 -122.55 -27.4 -122.9 -27.5 M-108.0 -47.15 L-107.4 -46.5 -106.75 -47.15 -107.05 -47.4 -107.4 -47.5 -107.65 -47.5 -108.0 -47.15 M-106.9 -25.5 L-106.25 -26.15 -106.55 -26.4 -106.9 -26.5 -107.15 -26.5 -107.5 -26.15 -106.9 -25.5 M-102.0 -7.65 L-101.4 -7.0 -100.75 -7.65 -101.05 -7.95 -101.4 -8.0 -101.65 -8.0 -102.0 -7.65 M-126.9 -11.0 L-127.65 -10.25 -126.4 -9.0 -125.15 -10.25 -125.75 -10.85 -126.4 -11.0 -126.9 -11.0 M-116.05 0.05 L-116.4 0.0 -116.65 0.0 -117.0 0.35 -116.4 1.0 -115.75 0.35 -116.05 0.05 M-93.0 13.35 L-92.4 14.0 -91.75 13.35 -92.05 13.05 -92.4 13.0 -92.65 13.0 -93.0 13.35 M-77.9 24.0 L-78.65 24.75 -77.4 26.0 -76.15 24.75 -76.75 24.15 -77.4 24.0 -77.9 24.0 M-56.9 34.0 L-57.65 34.75 -56.4 36.0 -55.15 34.75 -55.75 34.15 -56.4 34.0 -56.9 34.0 M-15.0 24.55 L-15.65 24.5 -15.95 24.9 -16.0 25.25 -15.95 25.6 -15.65 26.0 -14.25 25.6 -14.65 24.9 -14.9 24.6 -15.0 24.55 M-28.5 51.85 L-27.9 52.5 -27.25 51.85 -27.55 51.55 -27.9 51.5 -28.15 51.5 -28.5 51.85 M115.0 -16.65 L115.6 -16.0 116.25 -16.65 115.95 -16.9 115.6 -17.0 115.35 -17.0 115.0 -16.65 M74.5 -48.15 L75.1 -47.5 75.75 -48.15 75.45 -48.4 75.1 -48.5 74.85 -48.5 74.5 -48.15 M71.45 -34.9 L71.1 -35.0 70.85 -35.0 70.5 -34.65 71.1 -34.0 71.75 -34.65 71.45 -34.9 M102.0 -43.15 L102.6 -42.5 103.25 -43.15 102.95 -43.4 102.6 -43.5 102.35 -43.5 102.0 -43.15 M95.5 -23.65 L96.1 -23.0 96.75 -23.65 96.45 -23.9 96.1 -24.0 95.85 -24.0 95.5 -23.65 M72.1 -16.0 L71.35 -15.25 72.6 -14.0 73.85 -15.25 73.25 -15.85 72.6 -16.0 72.1 -16.0 M-0.9 -83.0 L-1.15 -83.0 -1.5 -82.65 -0.9 -82.0 -0.25 -82.65 -0.55 -82.9 -0.9 -83.0 M26.1 -95.5 L25.85 -95.5 25.5 -95.15 26.1 -94.5 26.75 -95.15 26.45 -95.4 26.1 -95.5 M25.35 -87.25 L26.6 -86.0 27.85 -87.25 27.25 -87.85 26.6 -88.0 26.1 -88.0 25.35 -87.25 M10.6 -64.0 L10.1 -64.0 9.35 -63.25 10.6 -62.0 11.85 -63.25 11.25 -63.85 10.6 -64.0 M22.6 -52.0 L22.1 -52.0 21.35 -51.25 22.6 -50.0 23.85 -51.25 23.25 -51.85 22.6 -52.0 M68.0 -67.65 L68.6 -67.0 69.25 -67.65 68.95 -67.9 68.6 -68.0 68.35 -68.0 68.0 -67.65 M52.45 -52.4 L52.1 -52.5 51.85 -52.5 51.5 -52.15 52.1 -51.5 52.75 -52.15 52.45 -52.4 M46.85 -63.5 L46.5 -63.15 47.1 -62.5 47.75 -63.15 47.45 -63.4 47.1 -63.5 46.85 -63.5 M35.35 -18.25 L36.6 -17.0 37.85 -18.25 37.25 -18.85 36.6 -19.0 36.1 -19.0 35.35 -18.25 M0.35 -25.6 L0.1 -25.9 0.0 -25.95 -0.65 -26.0 -0.95 -25.6 -1.0 -25.25 -0.95 -24.9 -0.65 -24.5 0.75 -24.9 0.35 -25.6 M8.25 19.15 L7.6 19.0 7.1 19.0 6.35 19.75 7.6 21.0 8.85 19.75 8.25 19.15 M12.1 3.5 L11.85 3.5 11.5 3.85 12.1 4.5 12.75 3.85 12.45 3.55 12.1 3.5 M4.0 44.85 L4.6 45.5 5.25 44.85 4.95 44.55 4.6 44.5 4.35 44.5 4.0 44.85 M40.25 2.15 L39.6 2.0 39.1 2.0 38.35 2.75 39.6 4.0 40.85 2.75 40.25 2.15 M60.5 0.35 L61.1 1.0 61.75 0.35 61.45 0.05 61.1 0.0 60.85 0.0 60.5 0.35 M61.6 22.0 L62.85 20.75 62.25 20.15 61.6 20.0 61.1 20.0 60.35 20.75 61.6 22.0 M39.0 36.35 L39.6 37.0 40.25 36.35 39.95 36.05 39.6 36.0 39.35 36.0 39.0 36.35 M86.0 1.35 L86.6 2.0 87.25 1.35 86.95 1.05 86.6 1.0 86.35 1.0 86.0 1.35" fill="#cc9900" fill-rule="evenodd" stroke="none"/>
  </g>
</svg>
