<?xml version="1.0" encoding="UTF-8" standalone="no"?>
<svg xmlns:ffdec="https://www.free-decompiler.com/flash" xmlns:xlink="http://www.w3.org/1999/xlink" ffdec:objectType="shape" height="284.05px" width="634.85px" xmlns="http://www.w3.org/2000/svg">
  <g transform="matrix(1.0, 0.0, 0.0, 1.0, 118.35, -131.5)">
    <path d="M501.85 340.0 L501.85 338.0 515.5 338.0 515.5 340.0 501.85 340.0" fill="#ffcc00" fill-rule="evenodd" stroke="none"/>
    <path d="M-115.95 134.0 Q-113.85 131.55 -111.0 131.5 -99.0 135.55 -107.35 144.4 -110.25 147.45 -113.95 145.25 -121.65 140.65 -115.95 134.0" fill="#fea5c7" fill-rule="evenodd" stroke="none"/>
    <path d="M-109.0 162.0 L-108.5 162.0 -107.75 162.75 -109.0 164.0 -110.25 162.75 -109.65 162.15 -109.0 162.0" fill="#ff99cc" fill-rule="evenodd" stroke="none"/>
    <path d="M8.0 414.55 L1.0 414.55 1.0 412.55 M515.5 412.55 L515.5 414.55 499.95 414.55" fill="none" stroke="#ffffcc" stroke-linecap="round" stroke-linejoin="round" stroke-width="2.0"/>
    <path d="M501.85 394.85 L0.0 394.85 0.0 329.0 501.85 329.0 501.85 394.85" fill="url(#gradient0)" fill-rule="evenodd" stroke="none"/>
  </g>
  <defs>
    <linearGradient gradientTransform="matrix(0.0, -0.0402, 0.0402, 0.0, 95.95, 361.9)" gradientUnits="userSpaceOnUse" id="gradient0" spreadMethod="pad" x1="-819.2" x2="819.2">
      <stop offset="0.0" stop-color="#663300" stop-opacity="0.6627451"/>
      <stop offset="0.9058823529411765" stop-color="#330000" stop-opacity="0.0"/>
    </linearGradient>
  </defs>
</svg>
