<?xml version="1.0" encoding="UTF-8" standalone="no"?>
<svg xmlns:ffdec="https://www.free-decompiler.com/flash" xmlns:xlink="http://www.w3.org/1999/xlink" ffdec:objectType="shape" height="39.45px" width="68.8px" xmlns="http://www.w3.org/2000/svg">
  <g transform="matrix(1.0, 0.0, 0.0, 1.0, 34.25, 18.0)">
    <path d="M17.45 -17.95 L17.45 -18.0 26.1 -17.95 28.65 -17.6 29.6 -17.2 29.85 -17.05 30.4 -16.75 31.3 -16.1 31.85 -15.55 32.0 -15.4 32.05 -15.35 32.7 -14.7 Q34.55 -12.4 34.55 -9.25 L34.55 12.75 34.45 14.4 34.25 15.15 34.2 15.3 Q33.6 17.35 32.05 19.0 L32.0 19.0 31.25 19.7 Q29.4 21.15 27.1 21.4 L26.1 21.45 17.9 21.45 17.45 21.45 -25.85 21.45 -28.7 20.95 Q-29.55 20.65 -30.25 20.15 L-30.95 19.7 -31.4 19.35 -31.65 19.0 -31.7 19.0 -31.8 19.0 -32.55 18.05 Q-33.5 16.75 -33.9 15.3 L-34.25 12.75 -34.25 -9.25 Q-34.25 -12.2 -32.55 -14.45 L-31.8 -15.35 -31.7 -15.4 -31.55 -15.55 Q-30.6 -16.5 -29.55 -17.05 -27.9 -17.95 -25.85 -17.95 L17.45 -17.95" fill="#ffff66" fill-rule="evenodd" stroke="none"/>
  </g>
</svg>
