<?xml version="1.0" encoding="UTF-8" standalone="no"?>
<svg xmlns:ffdec="https://www.free-decompiler.com/flash" xmlns:xlink="http://www.w3.org/1999/xlink" ffdec:objectType="shape" height="50.5px" width="55.7px" xmlns="http://www.w3.org/2000/svg">
  <g transform="matrix(1.0, 0.0, 0.0, 1.0, 27.1, 20.35)">
    <path d="M-8.95 20.95 L-10.05 20.4 Q-13.2 18.8 -15.5 16.45 -18.35 13.5 -18.85 10.25 -19.8 3.8 -17.6 -1.9 -15.3 -8.0 -10.3 -10.4 -4.0 -13.5 1.7 -13.35 L2.4 -13.3 Q3.8 -12.0 6.15 -11.7 9.2 -10.15 10.85 -7.55 11.85 -5.95 12.45 -4.2 15.1 3.4 12.35 11.25 12.1 11.85 12.0 12.4 10.55 17.85 5.25 19.9 2.2 21.05 -1.1 20.9 L-3.95 20.85 -8.95 20.95 M11.75 21.4 L10.65 21.9 11.9 20.75 11.75 21.4 M17.75 -3.0 L17.6 -2.75 Q17.15 -4.8 16.3 -6.7 L17.75 -3.0" fill="#ffff99" fill-rule="evenodd" stroke="none"/>
    <path d="M10.5 -12.15 L11.1 -11.95 10.55 -11.95 10.5 -12.15" fill="#ffff33" fill-rule="evenodd" stroke="none"/>
    <path d="M-7.6 28.95 L-5.4 28.95 -5.4 29.45 -7.6 28.95 M12.05 21.95 L11.75 21.4 14.85 19.45 15.4 18.95 16.6 17.75 17.4 16.8 16.7 17.95 15.55 19.05 12.3 21.75 12.05 21.95" fill="#0099ff" fill-rule="evenodd" stroke="none"/>
    <path d="M2.4 -13.3 L4.55 -13.1 10.5 -12.15 10.55 -11.95 11.1 -11.95 11.15 -11.95 11.55 -11.85 12.5 -11.25 16.55 -8.7 17.35 -7.75 18.85 -5.55 20.4 -1.9 Q21.45 1.75 21.05 6.15 L20.45 10.05 19.7 12.55 19.55 13.0 18.05 15.95 17.4 16.8 16.6 17.75 15.4 18.95 14.85 19.45 11.75 21.4 11.9 20.75 10.65 21.9 9.3 22.35 9.1 22.4 5.3 23.1 4.2 23.15 -3.45 22.7 -7.5 21.55 -8.6 21.1 -8.95 20.95 -3.95 20.85 -1.1 20.9 Q2.2 21.05 5.25 19.9 10.55 17.85 12.0 12.4 12.1 11.85 12.35 11.25 15.1 3.4 12.45 -4.2 11.85 -5.95 10.85 -7.55 9.2 -10.15 6.15 -11.7 3.8 -12.0 2.4 -13.3 M17.75 -3.0 L16.3 -6.7 Q17.15 -4.8 17.6 -2.75 L17.75 -3.0" fill="#ffff00" fill-rule="evenodd" stroke="none"/>
    <path d="M7.15 -19.85 L5.85 -19.45 6.0 -19.95 7.15 -19.85 M-22.0 20.8 L-21.9 21.0 -22.05 20.8 -22.0 20.8" fill="#b9f3ff" fill-rule="evenodd" stroke="none"/>
    <path d="M7.3 -19.85 Q7.5 -19.3 8.15 -19.0 10.2 -18.1 12.35 -17.35 L14.3 -16.6 Q21.5 -13.3 23.45 -5.8 L23.85 -3.95 Q23.8 -5.7 24.55 0.15 25.3 5.95 24.4 10.55 23.5 15.2 23.35 14.7 23.15 14.2 20.45 19.5 L19.5 20.65 Q15.1 26.4 8.05 27.8 L-1.3 28.85 -5.4 28.95 -7.6 28.95 Q-11.15 28.05 -14.5 26.35 -18.8 24.2 -21.9 21.0 L-22.0 20.8 Q-24.55 16.35 -25.5 11.15 -25.85 9.3 -25.85 7.35 -25.7 1.35 -23.5 -4.2 -20.5 -11.9 -13.0 -15.45 -11.7 -16.1 -10.3 -16.4 L-6.15 -17.6 Q-3.05 -18.65 0.2 -18.95 L5.85 -19.45 7.15 -19.85 7.3 -19.85 M12.5 -11.25 Q12.2 -12.1 11.0 -12.65 5.0 -15.6 -1.75 -15.9 -4.7 -15.85 -7.55 -14.6 -15.1 -11.45 -18.95 -4.15 L-19.2 -3.65 Q-21.0 1.85 -20.5 7.95 -20.2 12.0 -18.25 15.65 -14.45 22.85 -6.05 24.55 L3.9 25.05 Q8.5 24.55 12.05 21.95 L12.3 21.75 15.55 19.05 16.7 17.95 17.4 16.8 18.05 15.95 19.55 13.0 19.7 12.55 20.45 10.05 21.05 6.15 Q21.45 1.75 20.4 -1.9 L18.85 -5.55 17.35 -7.75 16.55 -8.7 12.5 -11.25" fill="#339900" fill-rule="evenodd" stroke="none"/>
    <path d="M-5.4 28.95 L-1.3 28.85 8.05 27.8 Q15.1 26.4 19.5 20.65 L20.45 19.5 Q23.15 14.2 23.35 14.7 23.5 15.2 24.4 10.55 25.3 5.95 24.55 0.15 23.8 -5.7 23.85 -3.95 L23.45 -5.8 Q21.5 -13.3 14.3 -16.6 L12.35 -17.35 Q10.2 -18.1 8.15 -19.0 7.5 -19.3 7.3 -19.85 L13.9 -18.7 Q19.9 -17.0 23.35 -12.65 26.6 -8.55 27.85 -3.4 29.45 3.4 27.6 11.95 25.8 20.15 19.85 25.0 15.9 28.15 10.7 29.4 L5.15 30.1 -5.4 29.45 -5.4 28.95 M2.4 -13.3 L1.7 -13.35 Q-4.0 -13.5 -10.3 -10.4 -15.3 -8.0 -17.6 -1.9 -19.8 3.8 -18.85 10.25 -18.35 13.5 -15.5 16.45 -13.2 18.8 -10.05 20.4 L-8.95 20.95 -8.6 21.1 -7.5 21.55 -3.45 22.7 4.2 23.15 5.3 23.1 9.1 22.4 9.3 22.35 10.65 21.9 11.75 21.4 12.05 21.95 Q8.5 24.55 3.9 25.05 L-6.05 24.55 Q-14.45 22.85 -18.25 15.65 -20.2 12.0 -20.5 7.95 -21.0 1.85 -19.2 -3.65 L-18.95 -4.15 Q-15.1 -11.45 -7.55 -14.6 -4.7 -15.85 -1.75 -15.9 5.0 -15.6 11.0 -12.65 12.2 -12.1 12.5 -11.25 L11.55 -11.85 11.15 -11.95 11.1 -11.95 10.5 -12.15 4.55 -13.1 2.4 -13.3" fill="#006600" fill-rule="evenodd" stroke="none"/>
    <path d="M5.85 -19.45 L0.2 -18.95 Q-3.05 -18.65 -6.15 -17.6 L-10.3 -16.4 Q-11.7 -16.1 -13.0 -15.45 -20.5 -11.9 -23.5 -4.2 -25.7 1.35 -25.85 7.35 -25.85 9.3 -25.5 11.15 -24.55 16.35 -22.0 20.8 L-22.05 20.8 Q-26.0 16.75 -26.7 12.25 -28.05 3.35 -25.0 -4.55 -21.8 -12.95 -14.9 -16.3 -6.2 -20.5 1.7 -20.35 L6.0 -19.95 5.85 -19.45" fill="#00cc00" fill-rule="evenodd" stroke="none"/>
    <path d="M-3.75 9.45 Q1.2 12.7 5.2 16.85 L5.45 11.45 6.15 -7.05 Q2.25 -4.65 -0.5 -2.45 -3.25 -0.25 -11.9 4.85 -8.7 6.15 -3.75 9.45" fill="#ff0099" fill-rule="evenodd" stroke="none"/>
  </g>
</svg>
