<?xml version="1.0" encoding="UTF-8" standalone="no"?>
<svg xmlns:ffdec="https://www.free-decompiler.com/flash" xmlns:xlink="http://www.w3.org/1999/xlink" ffdec:objectType="shape" height="84.15px" width="95.7px" xmlns="http://www.w3.org/2000/svg">
  <g transform="matrix(1.0, 0.0, 0.0, 1.0, -262.65, -144.75)">
    <path d="M312.0 170.7 L312.0 217.75 284.2 217.75 284.2 170.7 312.0 170.7" fill="#000033" fill-rule="evenodd" stroke="none"/>
    <path d="M312.0 170.7 L312.0 217.75 284.2 217.75 284.2 170.7 312.0 170.7 Z" ffdec:has-small-stroke="true" ffdec:original-stroke-width="0.05" fill="none" stroke="#330066" stroke-linecap="round" stroke-linejoin="round" stroke-width="1.0"/>
    <path d="M262.95 147.95 Q262.4 145.4 262.9 145.3 L269.3 145.1 Q280.25 144.55 282.35 144.9 282.95 148.65 281.0 151.4 279.25 153.95 276.05 154.95 L269.7 155.1 Q266.3 154.2 264.3 151.5 263.5 150.45 262.95 147.95" fill="#a9c85d" fill-rule="evenodd" stroke="none"/>
    <path d="M281.95 147.95 Q281.4 145.4 281.85 145.3 L288.25 145.1 Q299.2 144.55 301.3 144.9 301.9 148.65 300.0 151.4 298.25 153.95 295.0 154.95 L288.65 155.1 Q285.25 154.2 283.25 151.5 282.5 150.5 281.95 147.95" fill="#819c3c" fill-rule="evenodd" stroke="none"/>
    <path d="M300.9 147.95 Q300.35 145.4 300.85 145.3 L307.2 145.1 Q318.2 144.55 320.25 144.9 320.9 148.65 318.95 151.4 317.2 153.95 313.95 154.95 L307.6 155.1 Q304.2 154.2 302.2 151.5 301.45 150.45 300.9 147.95" fill="#a9c85d" fill-rule="evenodd" stroke="none"/>
    <path d="M319.85 147.95 Q319.3 145.4 319.8 145.3 L326.2 145.1 Q337.1 144.55 339.2 144.9 339.85 148.65 337.9 151.4 336.15 153.95 332.9 154.95 L326.55 155.1 Q323.15 154.2 321.15 151.5 320.4 150.45 319.85 147.95" fill="#819c3c" fill-rule="evenodd" stroke="none"/>
    <path d="M338.8 147.95 Q338.25 145.4 338.75 145.3 L345.15 145.1 Q356.1 144.55 358.2 144.9 358.8 148.65 356.85 151.4 355.1 153.95 351.9 154.95 L345.55 155.1 Q342.15 154.2 340.15 151.5 339.35 150.45 338.8 147.95" fill="#a9c85d" fill-rule="evenodd" stroke="none"/>
    <path d="M280.8 195.3 L281.0 195.55 281.0 204.8 280.8 204.6 280.8 208.1 281.0 208.3 281.0 213.25 280.8 213.05 280.8 215.35 282.35 214.1 282.35 174.8 271.4 183.8 271.4 188.15 271.7 187.9 273.55 186.1 273.7 186.25 280.8 180.4 280.8 195.3" fill="#accfff" fill-rule="evenodd" stroke="none"/>
    <path d="M280.8 204.6 L281.0 204.8 281.0 195.55 280.8 195.3 273.7 186.25 273.55 186.1 271.7 187.9 271.6 194.05 272.75 195.35 273.9 194.45 273.9 196.65 280.8 204.6 M280.8 213.05 L281.0 213.25 281.0 208.3 280.8 208.1 273.9 200.45 273.9 205.1 280.8 213.05 M272.65 199.1 L271.7 198.05 271.6 202.5 272.65 203.7 272.65 199.1" fill="#e3f0ff" fill-rule="evenodd" stroke="none"/>
    <path d="M280.8 195.3 L280.8 180.4 273.7 186.25 280.8 195.3 M271.7 187.9 L271.4 188.15 271.4 223.1 280.8 215.35 280.8 213.05 273.9 205.1 273.9 206.05 272.65 207.1 272.65 203.7 271.6 202.5 271.7 198.05 272.65 199.1 272.65 195.5 272.75 195.35 271.6 194.05 271.7 187.9 M280.8 208.1 L280.8 204.6 273.9 196.65 273.9 200.45 280.8 208.1" fill="#d5efff" fill-rule="evenodd" stroke="none"/>
    <path d="M271.4 188.15 L271.4 183.8 282.35 174.8 282.35 214.1 280.8 215.35 271.4 223.1 271.4 188.15 M273.9 196.65 L273.9 194.45 272.75 195.35 272.65 195.5 272.65 199.1 272.65 203.7 272.65 207.1 273.9 206.05 273.9 205.1 273.9 200.45 273.9 196.65 M270.65 181.9 L270.65 228.9 284.2 217.7 284.2 170.7 270.65 181.9" fill="#b475d0" fill-rule="evenodd" stroke="none"/>
    <path d="M316.55 168.1 L313.65 168.1 313.65 157.7 339.35 157.7 339.35 161.15 316.55 161.15 316.55 168.1 M317.25 212.6 L313.65 212.6 313.65 173.3 339.35 173.3 339.35 177.65 317.25 177.65 317.25 186.0 316.3 186.0 316.3 197.6 317.25 197.6 317.25 203.95 317.25 207.45 317.25 212.4 317.25 212.6 M287.45 168.1 L284.5 168.1 284.5 157.7 310.2 157.7 310.2 161.15 287.45 161.15 287.45 168.1" fill="#accfff" fill-rule="evenodd" stroke="none"/>
    <path d="M339.35 161.15 L339.35 157.7 313.65 157.7 313.65 168.1 316.55 168.1 339.35 168.1 339.35 161.15 M339.35 177.65 L339.35 173.3 313.65 173.3 313.65 212.6 317.25 212.6 339.35 212.6 339.35 177.65 M317.25 197.6 L316.3 197.6 316.3 186.0 317.25 186.0 319.2 186.0 319.2 192.95 319.2 197.6 317.25 197.6 M344.2 217.75 L312.0 217.75 312.0 170.75 280.15 170.75 280.15 151.65 344.2 151.65 344.2 217.75 M310.2 161.15 L310.2 157.7 284.5 157.7 284.5 168.1 287.45 168.1 310.2 168.1 310.2 161.15" fill="#b475d0" fill-rule="evenodd" stroke="none"/>
    <path d="M316.55 168.1 L316.55 161.15 339.35 161.15 339.35 168.1 316.55 168.1 M317.25 212.6 L317.25 212.4 339.3 193.9 339.1 189.55 317.25 207.45 317.25 203.95 339.3 185.45 339.1 179.4 334.7 179.1 319.2 192.95 319.2 186.0 317.25 186.0 317.25 177.65 339.35 177.65 339.35 212.6 317.25 212.6 M287.45 168.1 L287.45 161.15 310.2 161.15 310.2 168.1 287.45 168.1" fill="#d5efff" fill-rule="evenodd" stroke="none"/>
    <path d="M317.25 212.4 L317.25 207.45 339.1 189.55 339.3 193.9 317.25 212.4 M317.25 203.95 L317.25 197.6 319.2 197.6 319.2 192.95 334.7 179.1 339.1 179.4 339.3 185.45 317.25 203.95" fill="#e3f0ff" fill-rule="evenodd" stroke="none"/>
  </g>
</svg>
