<?xml version="1.0" encoding="UTF-8" standalone="no"?>
<svg xmlns:ffdec="https://www.free-decompiler.com/flash" xmlns:xlink="http://www.w3.org/1999/xlink" ffdec:objectType="shape" height="153.5px" width="204.0px" xmlns="http://www.w3.org/2000/svg">
  <g transform="matrix(1.0, 0.0, 0.0, 1.0, 102.0, 76.85)">
    <path d="M13.0 -44.0 L-13.45 -45.3 -6.4 -45.75 Q3.6 -46.1 13.0 -44.0 M-72.95 24.7 Q-70.95 31.5 -67.2 37.8 L-67.45 38.0 -67.75 37.5 Q-71.15 31.3 -72.95 24.7 M100.45 5.9 L100.3 5.85 100.6 4.85 100.45 5.9 M84.05 41.95 L84.9 40.75 85.15 40.95 84.05 41.95" fill="#fff0c4" fill-rule="evenodd" stroke="none"/>
    <path d="M-20.55 -74.85 L-20.9 -74.9 -20.5 -75.0 -20.55 -74.85 M-100.45 12.2 L-100.15 13.55 -100.25 13.6 -100.45 12.2 M-31.95 72.35 L-29.6 73.05 -32.0 72.65 -31.95 72.35 M-73.0 -5.75 Q-74.5 0.0 -74.85 6.35 -75.35 15.9 -72.95 24.7 -76.2 13.8 -75.05 1.6 -74.65 -2.4 -73.0 -5.75 M-36.6 62.2 Q-34.3 63.2 -32.05 64.25 L-32.15 64.5 -36.6 62.2 M-15.8 71.95 L-15.7 72.0 -15.95 72.15 -15.8 71.95" fill="#ffe28e" fill-rule="evenodd" stroke="none"/>
    <path d="M17.65 -27.25 Q17.9 -25.95 18.4 -24.75 24.3 -10.75 22.0 4.0 L20.1 5.95 Q18.4 7.3 16.35 7.85 5.0 10.8 5.5 20.95 L8.7 24.1 Q15.65 30.85 19.25 24.1 16.05 20.6 12.7 17.75 18.85 15.15 24.15 11.2 25.6 10.15 26.2 8.6 32.15 -6.05 26.3 -21.55 25.7 -23.2 25.55 -24.8 25.15 -30.55 20.3 -32.8 L19.25 -32.55 Q17.95 -32.15 17.35 -30.9 17.25 -29.05 17.65 -27.25 L16.4 -24.9 Q9.8 -14.0 -6.35 -13.0 -17.4 -11.85 -26.55 -6.3 -39.05 1.2 -39.15 19.15 -39.25 36.6 -23.75 47.6 -39.25 36.6 -39.15 19.15 -39.05 1.2 -26.55 -6.3 -17.4 -11.85 -6.35 -13.0 9.8 -14.0 16.4 -24.9 L17.65 -27.25 M-15.7 72.0 Q-14.5 71.05 -15.25 69.75 -20.75 59.9 -32.2 55.5 -36.25 53.95 -39.8 51.4 -41.2 48.95 -43.4 46.95 L-48.0 42.7 Q-49.65 41.2 -50.55 39.35 L-50.8 38.7 -51.65 38.1 -52.7 37.45 Q-55.5 33.75 -57.6 29.6 -63.05 18.75 -64.35 6.4 -65.1 -0.8 -63.2 -7.45 -62.55 -9.65 -62.85 -12.05 -61.2 -16.65 -59.0 -21.05 L-58.35 -22.0 Q-46.4 -34.85 -27.9 -37.2 -8.3 -39.65 11.2 -36.95 22.1 -35.4 32.65 -32.45 35.85 -31.55 38.7 -29.85 40.65 -27.3 42.95 -24.95 44.65 -23.2 45.55 -20.9 46.3 -19.0 47.95 -17.7 L48.45 -17.15 Q53.9 -7.3 51.4 3.7 50.55 7.5 50.15 11.4 L50.15 12.05 49.7 12.65 49.1 13.35 48.65 13.95 48.5 14.6 48.5 15.25 Q48.55 16.3 47.9 17.2 47.7 17.45 47.65 17.8 L47.55 18.4 47.4 19.05 Q41.95 29.75 31.5 35.05 6.55 47.7 -22.0 47.0 -22.75 46.95 -23.4 47.35 L-23.75 47.6 Q-25.8 48.9 -25.0 51.4 -24.25 52.05 -23.45 52.1 -12.2 52.9 -0.85 52.7 L5.35 51.95 Q12.3 50.5 18.8 48.2 29.55 44.45 39.15 38.5 L44.85 34.9 45.05 34.3 45.3 33.65 45.75 33.05 46.55 32.35 47.15 31.2 48.85 29.15 49.25 28.55 49.5 27.95 49.7 27.3 Q50.9 26.7 51.4 25.45 52.2 23.35 53.3 21.45 L54.35 19.55 Q54.95 18.45 54.85 17.15 L54.8 16.5 Q59.35 6.45 58.8 -5.05 58.45 -11.35 55.7 -17.05 L54.8 -18.4 Q53.95 -21.15 52.45 -23.75 L50.75 -26.35 48.55 -29.25 48.25 -29.85 46.4 -31.35 Q43.7 -34.45 40.2 -36.45 31.75 -41.3 22.1 -42.8 L13.0 -44.0 Q3.6 -46.1 -6.4 -45.75 L-13.45 -45.3 -27.95 -44.65 -36.3 -43.1 Q-56.95 -38.65 -66.7 -21.2 L-67.45 -19.15 Q-71.15 -12.95 -73.0 -5.75 -74.65 -2.4 -75.05 1.6 -76.2 13.8 -72.95 24.7 -71.15 31.3 -67.75 37.5 L-67.45 38.0 Q-59.45 52.1 -45.4 58.3 L-36.6 62.2 -32.15 64.5 Q-27.2 67.0 -23.3 70.9 -19.75 74.4 -15.95 72.15 L-15.7 72.0 Q-9.0 75.0 -1.45 75.5 -9.0 75.0 -15.7 72.0 M62.1 56.2 Q55.95 59.45 49.45 62.25 33.85 68.9 15.7 73.7 10.4 75.05 5.45 75.45 1.9 75.75 -1.45 75.5 L-1.45 75.6 -24.95 73.65 -29.6 73.05 -31.95 72.35 Q-40.15 69.8 -48.05 66.85 L-49.4 66.05 Q-52.25 64.9 -54.9 63.45 L-58.25 61.7 Q-61.5 59.95 -65.0 58.6 -68.3 54.8 -72.6 52.15 L-81.1 46.85 Q-84.0 45.05 -85.5 42.1 L-86.35 41.45 -87.2 40.85 Q-96.55 28.4 -100.15 13.55 L-100.45 12.2 Q-101.9 0.8 -99.5 -10.65 -96.25 -25.85 -85.3 -37.7 -74.1 -49.8 -59.55 -58.45 -46.4 -66.25 -32.4 -71.7 -26.7 -73.9 -20.9 -74.9 L-20.55 -74.85 Q1.5 -71.0 23.7 -67.85 42.7 -65.15 58.5 -55.45 65.7 -51.05 72.6 -45.95 78.9 -41.3 84.0 -35.55 87.35 -31.85 90.0 -27.65 91.8 -24.7 92.7 -21.4 94.1 -20.05 94.65 -18.15 96.4 -11.75 95.7 -4.9 95.35 -1.0 94.3 2.8 93.45 5.85 93.1 9.1 L92.45 9.75 91.85 10.35 91.3 12.25 90.85 13.55 90.45 14.75 90.0 16.1 89.55 17.25 Q89.0 18.5 88.85 19.9 L88.4 20.5 87.9 21.2 Q87.35 22.05 87.2 23.0 L86.75 24.3 86.35 24.95 Q85.6 26.1 85.5 27.5 84.05 29.25 82.9 31.15 75.2 44.05 64.2 54.3 L62.1 56.2" fill="#ffcaca" fill-rule="evenodd" stroke="none"/>
    <path d="M17.65 -27.25 Q17.25 -29.05 17.35 -30.9 17.95 -32.15 19.25 -32.55 L20.3 -32.8 Q25.15 -30.55 25.55 -24.8 25.7 -23.2 26.3 -21.55 32.15 -6.05 26.2 8.6 25.6 10.15 24.15 11.2 18.85 15.15 12.7 17.75 16.05 20.6 19.25 24.1 15.65 30.85 8.7 24.1 L5.5 20.95 Q5.0 10.8 16.35 7.85 18.4 7.3 20.1 5.95 L22.0 4.0 Q24.3 -10.75 18.4 -24.75 17.9 -25.95 17.65 -27.25 L19.0 -30.85 Q19.45 -25.85 21.9 -19.6 24.75 -12.35 25.05 -5.4 25.25 -0.8 22.35 4.15 L19.0 8.65 Q14.65 10.6 9.0 14.65 2.95 19.05 9.85 22.25 2.95 19.05 9.0 14.65 14.65 10.6 19.0 8.65 L22.35 4.15 Q25.25 -0.8 25.05 -5.4 24.75 -12.35 21.9 -19.6 19.45 -25.85 19.0 -30.85 L17.65 -27.25 M-23.75 47.6 L-23.4 47.35 Q-22.75 46.95 -22.0 47.0 6.55 47.7 31.5 35.05 41.95 29.75 47.4 19.05 L47.55 18.4 47.65 17.8 Q47.7 17.45 47.9 17.2 48.55 16.3 48.5 15.25 L48.5 14.6 48.65 13.95 49.1 13.35 49.7 12.65 50.15 12.05 50.15 11.4 Q50.55 7.5 51.4 3.7 53.9 -7.3 48.45 -17.15 L47.95 -17.7 Q46.3 -19.0 45.55 -20.9 44.65 -23.2 42.95 -24.95 40.65 -27.3 38.7 -29.85 35.85 -31.55 32.65 -32.45 22.1 -35.4 11.2 -36.95 -8.3 -39.65 -27.9 -37.2 -46.4 -34.85 -58.35 -22.0 L-59.0 -21.05 Q-61.2 -16.65 -62.85 -12.05 -62.55 -9.65 -63.2 -7.45 -65.1 -0.8 -64.35 6.4 -63.05 18.75 -57.6 29.6 -55.5 33.75 -52.7 37.45 L-51.65 38.1 -50.8 38.7 -50.55 39.35 Q-49.65 41.2 -48.0 42.7 L-43.4 46.95 Q-41.2 48.95 -39.8 51.4 -36.25 53.95 -32.2 55.5 -20.75 59.9 -15.25 69.75 -14.5 71.05 -15.7 72.0 L-15.8 71.95 -16.65 71.55 Q-24.3 67.8 -32.05 64.25 -24.3 67.8 -16.65 71.55 L-15.8 71.95 -15.95 72.15 Q-19.75 74.4 -23.3 70.9 -27.2 67.0 -32.15 64.5 L-32.05 64.25 Q-34.3 63.2 -36.6 62.2 L-45.4 58.3 Q-59.45 52.1 -67.45 38.0 L-67.2 37.8 Q-70.95 31.5 -72.95 24.7 -75.35 15.9 -74.85 6.35 -74.5 0.0 -73.0 -5.75 -71.15 -12.95 -67.45 -19.15 L-64.6 -23.45 Q-55.0 -36.35 -38.75 -40.85 -26.3 -44.25 -13.45 -45.3 -26.3 -44.25 -38.75 -40.85 -55.0 -36.35 -64.6 -23.45 L-67.45 -19.15 -66.7 -21.2 Q-56.95 -38.65 -36.3 -43.1 L-27.95 -44.65 -13.45 -45.3 13.0 -44.0 22.1 -42.8 Q31.75 -41.3 40.2 -36.45 43.7 -34.45 46.4 -31.35 L48.25 -29.85 48.55 -29.25 50.75 -26.35 52.45 -23.75 Q53.95 -21.15 54.8 -18.4 L55.7 -17.05 Q58.45 -11.35 58.8 -5.05 59.35 6.45 54.8 16.5 L54.85 17.15 Q54.95 18.45 54.35 19.55 L53.3 21.45 Q52.2 23.35 51.4 25.45 50.9 26.7 49.7 27.3 L49.5 27.95 49.25 28.55 48.85 29.15 47.15 31.2 46.55 32.35 45.75 33.05 45.3 33.65 45.05 34.3 44.85 34.9 39.15 38.5 Q29.55 44.45 18.8 48.2 12.3 50.5 5.35 51.95 L-0.85 52.7 Q-12.2 52.9 -23.45 52.1 -24.25 52.05 -25.0 51.4 -25.8 48.9 -23.75 47.6 L-22.95 48.15 Q-8.2 48.95 8.2 45.6 23.4 42.55 36.7 34.9 51.7 26.25 56.05 9.6 60.25 -6.45 50.2 -20.5 40.75 -33.55 26.05 -39.85 19.7 -42.55 13.0 -44.0 19.7 -42.55 26.05 -39.85 40.75 -33.55 50.2 -20.5 60.25 -6.45 56.05 9.6 51.7 26.25 36.7 34.9 23.4 42.55 8.2 45.6 -8.2 48.95 -22.95 48.15 L-23.75 47.6 M62.1 56.2 L64.2 54.3 Q75.2 44.05 82.9 31.15 84.05 29.25 85.5 27.5 85.6 26.1 86.35 24.95 L86.75 24.3 87.2 23.0 Q87.35 22.05 87.9 21.2 L88.4 20.5 88.85 19.9 Q89.0 18.5 89.55 17.25 L90.0 16.1 90.45 14.75 90.85 13.55 91.3 12.25 91.85 10.35 92.45 9.75 93.1 9.1 Q93.45 5.85 94.3 2.8 95.35 -1.0 95.7 -4.9 96.4 -11.75 94.65 -18.15 94.1 -20.05 92.7 -21.4 91.8 -24.7 90.0 -27.65 87.35 -31.85 84.0 -35.55 78.9 -41.3 72.6 -45.95 65.7 -51.05 58.5 -55.45 42.7 -65.15 23.7 -67.85 1.5 -71.0 -20.55 -74.85 L-20.5 -75.0 -9.1 -75.85 -8.45 -75.85 -7.8 -75.8 -6.4 -75.75 -4.75 -75.6 -1.5 -75.25 Q14.8 -72.95 30.7 -68.4 46.65 -63.85 61.3 -56.05 75.4 -48.6 86.9 -38.45 99.6 -27.35 100.75 -11.35 101.35 -3.05 100.6 4.85 L100.3 5.85 100.45 5.9 Q99.6 13.5 97.4 20.75 93.8 32.6 85.15 40.95 L84.9 40.75 84.05 41.95 84.0 42.0 Q81.4 44.35 78.35 46.4 70.6 51.7 62.1 56.2 M-100.15 13.55 Q-96.55 28.4 -87.2 40.85 L-86.35 41.45 -85.5 42.1 Q-84.0 45.05 -81.1 46.85 L-72.6 52.15 Q-68.3 54.8 -65.0 58.6 -61.5 59.95 -58.25 61.7 L-54.9 63.45 Q-52.25 64.9 -49.4 66.05 L-48.05 66.85 Q-40.15 69.8 -31.95 72.35 L-32.0 72.65 Q-44.1 70.4 -55.05 64.8 -69.3 57.5 -81.85 47.9 -94.05 38.55 -98.5 22.1 -99.65 17.85 -100.25 13.6 L-100.15 13.55" fill="#ffaeae" fill-rule="evenodd" stroke="none"/>
    <path d="M17.65 -27.25 L16.4 -24.9 Q9.8 -14.0 -6.35 -13.0 -17.4 -11.85 -26.55 -6.3 -39.05 1.2 -39.15 19.15 -39.25 36.6 -23.75 47.6 L-22.95 48.15 Q-8.2 48.95 8.2 45.6 23.4 42.55 36.7 34.9 51.7 26.25 56.05 9.6 60.25 -6.45 50.2 -20.5 40.75 -33.55 26.05 -39.85 19.7 -42.55 13.0 -44.0 3.6 -46.1 -6.4 -45.75 L-13.45 -45.3 Q-26.3 -44.25 -38.75 -40.85 -55.0 -36.35 -64.6 -23.45 L-67.45 -19.15 Q-71.15 -12.95 -73.0 -5.75 -74.5 0.0 -74.85 6.35 -75.35 15.9 -72.95 24.7 -71.15 31.3 -67.75 37.5 L-67.45 38.0 Q-59.45 52.1 -45.4 58.3 L-36.6 62.2 Q-34.3 63.2 -32.05 64.25 -24.3 67.8 -16.65 71.55 L-15.8 71.95 -15.7 72.0 Q-9.0 75.0 -1.45 75.5 1.9 75.75 5.45 75.45 10.4 75.05 15.7 73.7 33.85 68.9 49.45 62.25 55.95 59.45 62.1 56.2 70.6 51.7 78.35 46.4 81.4 44.35 84.0 42.0 L84.05 41.95 85.15 40.95 Q93.8 32.6 97.4 20.75 99.6 13.5 100.45 5.9 L100.6 4.85 Q101.35 -3.05 100.75 -11.35 99.6 -27.35 86.9 -38.45 75.4 -48.6 61.3 -56.05 46.65 -63.85 30.7 -68.4 14.8 -72.95 -1.5 -75.25 L-4.75 -75.6 -6.4 -75.75 -7.8 -75.8 -8.45 -75.85 -9.1 -75.85 -20.5 -75.0 M-20.9 -74.9 Q-26.7 -73.9 -32.4 -71.7 -46.4 -66.25 -59.55 -58.45 -74.1 -49.8 -85.3 -37.7 -96.25 -25.85 -99.5 -10.65 -101.9 0.8 -100.45 12.2 L-100.25 13.6 Q-99.65 17.85 -98.5 22.1 -94.05 38.55 -81.85 47.9 -69.3 57.5 -55.05 64.8 -44.1 70.4 -32.0 72.65 L-29.6 73.05 -24.95 73.65 -1.45 75.6 Q2.05 75.8 5.45 75.45 M17.65 -27.25 L19.0 -30.85 Q19.45 -25.85 21.9 -19.6 24.75 -12.35 25.05 -5.4 25.25 -0.8 22.35 4.15 L19.0 8.65 Q14.65 10.6 9.0 14.65 2.95 19.05 9.85 22.25" fill="none" stroke="#fe9a9a" stroke-linecap="round" stroke-linejoin="round" stroke-width="2.0"/>
  </g>
</svg>
