<?xml version="1.0" encoding="UTF-8" standalone="no"?>
<svg xmlns:ffdec="https://www.free-decompiler.com/flash" xmlns:xlink="http://www.w3.org/1999/xlink" ffdec:objectType="shape" height="166.8px" width="263.45px" xmlns="http://www.w3.org/2000/svg">
  <g transform="matrix(1.0, 0.0, 0.0, 1.0, 131.75, 83.4)">
    <path d="M-77.6 60.55 L-87.7 83.4 -87.7 63.4 -77.6 52.45 -77.6 60.55" fill="#b27624" fill-rule="evenodd" stroke="none"/>
    <path d="M-109.7 63.4 L-87.7 63.4 -87.7 83.4 -109.7 83.4 -109.7 63.4" fill="#d0994f" fill-rule="evenodd" stroke="none"/>
    <path d="M74.95 60.55 L74.95 52.45 85.05 63.4 85.05 83.4 74.95 60.55" fill="#b27624" fill-rule="evenodd" stroke="none"/>
    <path d="M85.05 63.4 L107.05 63.4 107.05 83.4 85.05 83.4 85.05 63.4" fill="#d0994f" fill-rule="evenodd" stroke="none"/>
    <path d="M71.2 65.55 Q31.95 65.6 15.6 66.5 3.35 67.2 -15.55 65.85 -22.5 65.35 -44.95 66.0 -68.7 66.6 -74.4 66.4 -81.65 66.1 -99.0 66.15 -114.8 66.2 -123.6 65.65 -129.0 45.95 -131.55 38.3 -107.6 32.25 -100.05 30.7 -80.9 26.75 -68.15 26.9 -55.65 27.1 -28.1 26.25 1.8 25.3 11.95 25.3 77.85 25.3 90.15 24.5 96.05 24.1 110.85 28.2 127.1 32.7 131.4 33.0 L126.75 65.05 Q114.5 65.45 71.2 65.55" fill="#e2ba75" fill-rule="evenodd" stroke="none"/>
    <path d="M-50.5 -26.45 Q-57.05 -24.6 -80.55 -25.1 -107.95 -25.65 -110.9 -25.4 L-115.1 -25.1 Q-108.6 -46.7 -106.05 -55.85 L-97.2 -53.95 Q-93.0 -52.75 -72.0 -48.1 -52.05 -43.4 -47.5 -40.7 -40.25 -36.4 -40.25 -33.7 -40.3 -29.3 -50.5 -26.45" fill="#e8c991" fill-rule="evenodd" stroke="none"/>
    <path d="M78.75 -83.1 Q80.85 -83.1 82.5 -80.2 L88.4 -68.45 Q73.0 -77.6 50.2 -81.75 L44.1 -82.95 47.65 -83.15 Q55.95 -83.7 78.75 -83.1" fill="#f1deba" fill-rule="evenodd" stroke="none"/>
    <path d="M3.05 -49.2 Q16.55 -42.8 15.7 -36.7 15.1 -32.1 9.15 -27.6 5.95 -25.2 -1.5 -21.2 -12.2 -15.4 -35.8 -11.25 -53.65 -8.15 -72.5 -6.85 -92.2 -5.55 -120.55 -6.6 L-115.1 -25.1 -110.9 -25.4 Q-107.95 -25.65 -81.05 -25.1 -58.05 -24.6 -51.5 -26.45 -41.3 -29.3 -41.25 -33.7 -41.25 -36.4 -48.5 -40.7 -53.05 -43.4 -72.5 -48.1 -93.0 -52.75 -97.2 -53.95 L-106.05 -55.85 -103.75 -63.95 Q-88.65 -63.3 -58.75 -59.35 L-27.15 -56.1 Q-5.4 -53.25 3.05 -49.2" fill="#f1deba" fill-rule="evenodd" stroke="none"/>
    <path d="M75.45 -55.55 Q83.1 -49.6 86.55 -45.2 92.35 -37.7 91.65 -29.55 90.85 -20.1 83.2 -10.65 79.2 -5.7 69.6 2.7 55.8 14.9 27.4 23.4 5.3 30.0 -17.8 32.5 -54.55 36.5 -129.25 30.95 L-130.3 30.85 -128.55 23.25 Q-81.3 26.1 -53.5 23.5 -24.35 20.85 1.65 15.8 40.35 8.3 53.75 -1.65 63.4 -8.8 67.35 -12.9 75.0 -20.85 75.8 -28.85 76.5 -35.75 70.65 -42.05 67.25 -45.75 59.6 -50.8 48.7 -57.9 22.6 -62.95 12.15 -64.95 -16.05 -68.7 -72.7 -76.2 -98.25 -77.0 L-100.45 -77.1 -99.85 -79.65 -62.3 -82.4 -53.05 -82.9 -26.6 -79.7 -0.2 -76.7 Q27.9 -72.3 38.5 -69.9 64.55 -64.0 75.45 -55.55" fill="#f1deba" fill-rule="evenodd" stroke="none"/>
    <path d="M59.6 -50.8 Q67.25 -45.75 70.65 -42.05 76.5 -35.75 75.8 -28.85 75.0 -20.85 67.35 -12.9 63.4 -8.8 53.75 -1.65 40.35 8.3 1.65 15.8 -24.35 20.85 -53.5 23.5 -81.3 26.1 -128.55 23.25 -125.75 11.7 -120.55 -6.6 -92.2 -5.55 -72.5 -6.85 -53.65 -8.15 -35.8 -11.25 -12.2 -15.4 -1.5 -21.2 5.95 -25.2 9.15 -27.6 15.1 -32.1 15.7 -36.7 16.55 -42.8 3.05 -49.2 -5.4 -53.25 -27.15 -56.1 L-58.75 -59.35 Q-88.65 -63.3 -103.75 -63.95 L-100.45 -77.1 -98.25 -77.0 Q-72.7 -76.2 -16.05 -68.7 12.15 -64.95 22.6 -62.95 48.7 -57.9 59.6 -50.8" fill="#e8c991" fill-rule="evenodd" stroke="none"/>
    <path d="M115.7 -10.85 Q118.0 -5.3 123.25 11.35 127.55 25.05 131.7 32.85 L108.85 34.55 88.8 35.0 66.7 35.75 Q82.85 27.25 98.15 11.4 111.2 -2.05 115.7 -10.85" fill="#f1deba" fill-rule="evenodd" stroke="none"/>
    <path d="M86.55 -45.2 Q83.1 -49.6 75.45 -55.55 64.55 -64.0 38.5 -69.9 27.9 -72.3 -0.2 -76.7 L-26.6 -79.7 -53.05 -82.9 Q-44.85 -83.15 -4.0 -82.85 35.8 -82.6 44.1 -82.95 L50.2 -81.75 Q73.0 -77.6 88.4 -68.45 L89.8 -65.8 Q94.05 -57.65 114.1 -14.45 L115.7 -10.85 Q111.2 -2.05 98.15 11.4 82.85 27.25 66.7 35.75 15.3 36.25 2.9 37.05 -14.6 38.25 -63.15 37.4 -111.65 36.55 -131.75 37.95 L-130.3 30.85 -129.25 30.95 Q-54.55 36.5 -17.8 32.5 5.3 30.0 27.4 23.4 55.8 14.9 69.6 2.7 79.2 -5.7 83.2 -10.65 90.85 -20.1 91.65 -29.55 92.35 -37.7 86.55 -45.2" fill="#e8c991" fill-rule="evenodd" stroke="none"/>
    <path d="M-128.75 47.45 Q-121.65 47.05 -84.05 47.3 L-60.6 47.45 -41.15 48.1 Q-50.6 48.75 -66.65 48.7 L-92.6 48.65 -128.1 48.75 -128.75 47.45" fill="#d0994f" fill-rule="evenodd" stroke="none"/>
    <path d="M-125.1 56.65 L-111.85 56.1 -98.45 56.45 -84.45 56.65 -72.85 57.45 -88.0 58.3 Q-98.65 58.1 -103.5 58.2 L-124.7 58.4 -125.1 56.65" fill="#d0994f" fill-rule="evenodd" stroke="none"/>
    <path d="M130.8 41.7 L130.4 43.45 109.25 43.3 93.75 43.35 78.55 42.5 90.15 41.7 104.15 41.5 Q126.2 41.1 130.8 41.7" fill="#d0994f" fill-rule="evenodd" stroke="none"/>
    <path d="M129.2 51.2 L129.0 52.5 116.35 52.35 107.1 52.4 98.05 51.8 104.95 51.15 113.3 51.0 Q126.4 50.75 129.2 51.2" fill="#d0994f" fill-rule="evenodd" stroke="none"/>
    <path d="M59.35 52.45 L66.3 51.85 74.65 51.7 Q88.0 51.45 90.55 51.85 L90.3 53.15 77.7 53.05 59.35 52.45" fill="#d0994f" fill-rule="evenodd" stroke="none"/>
  </g>
</svg>
