<?xml version="1.0" encoding="UTF-8" standalone="no"?>
<svg xmlns:ffdec="https://www.free-decompiler.com/flash" xmlns:xlink="http://www.w3.org/1999/xlink" ffdec:objectType="shape" height="77.5px" width="137.7px" xmlns="http://www.w3.org/2000/svg">
  <g transform="matrix(1.0, 0.0, 0.0, 1.0, 68.85, 38.75)">
    <path d="M-48.9 -14.2 L-42.15 -20.9 Q-34.2 -28.55 -26.35 -32.45 -12.15 -39.65 4.55 -38.65 13.75 -38.05 19.4 -36.2 25.6 -34.2 32.2 -29.3 42.9 -21.4 48.85 -14.45 45.9 -15.35 40.5 -16.05 35.5 -16.75 30.85 -19.6 25.45 -22.9 21.95 -23.9 16.75 -25.3 9.75 -24.05 0.3 -22.3 -2.2 -22.3 -5.9 -22.25 -13.9 -24.25 -21.0 -26.05 -25.65 -25.35 -30.65 -24.65 -36.65 -19.65 -42.45 -14.8 -47.15 -14.4 L-48.9 -14.2 M64.95 17.65 Q61.7 20.5 60.15 22.35 57.3 25.55 54.45 30.7 51.7 35.6 48.0 35.65 46.0 35.7 39.15 33.25 L36.6 32.4 32.7 26.75 Q30.5 23.2 31.2 20.2 28.3 27.95 25.15 31.1 23.6 31.5 22.75 32.55 L20.3 33.5 12.05 36.95 Q8.25 37.95 3.15 35.9 -3.05 32.75 -6.15 31.4 -8.05 30.55 -9.85 30.15 L-6.85 30.55 -11.25 22.9 Q-14.3 17.8 -14.15 14.9 -16.7 26.1 -21.0 31.45 -18.75 29.8 -15.85 29.6 L-14.2 29.65 -16.2 29.85 Q-19.6 30.5 -25.2 34.3 -30.7 38.0 -34.0 38.55 -39.25 39.45 -43.9 36.65 -47.0 34.8 -51.6 29.9 -56.9 24.25 -59.2 22.45 -62.9 19.55 -66.85 18.8 L-67.1 18.75 -68.85 18.55 -66.55 17.1 -65.35 16.3 Q-57.45 10.4 -51.4 -0.1 -47.8 -6.4 -43.3 -5.15 -42.6 -5.0 -38.8 -3.3 L-38.45 -3.15 -34.75 1.3 Q-31.55 5.3 -29.65 5.05 -27.4 4.8 -26.0 -0.75 L-24.2 -8.4 -24.3 -8.3 -23.0 -11.35 Q-21.5 -13.9 -18.75 -14.85 -14.4 -16.3 -10.0 -13.1 L-6.3 -10.15 -4.0 -8.5 -5.6 -9.05 Q-2.5 -6.55 -1.4 -1.1 -0.25 4.9 1.85 6.35 3.45 4.45 3.85 -0.75 4.2 -5.85 6.9 -8.6 L6.65 -8.55 7.2 -9.15 10.45 -12.25 Q12.65 -13.7 15.65 -13.35 19.9 -12.85 24.15 -7.1 26.7 -3.65 28.8 -1.7 L30.7 2.6 Q33.6 8.2 37.1 8.4 36.85 2.0 38.0 0.2 L36.75 0.5 40.25 -1.85 Q44.65 -5.45 48.85 -3.7 53.15 -1.9 58.85 5.85 64.65 13.75 67.7 15.15 L64.95 17.65 M35.3 32.05 L29.8 31.15 Q27.1 31.15 23.85 32.2 L25.15 31.1 29.25 30.8 Q32.35 31.05 35.3 32.05 M-5.6 -9.05 L-6.2 -9.45 -7.55 -10.1 Q-6.7 -9.45 -5.6 -9.05" fill="#fffcf3" fill-rule="evenodd" stroke="none"/>
    <path d="M48.85 -14.45 L50.7 -13.8 Q54.85 -11.85 58.6 -6.2 65.0 3.3 65.3 6.25 65.45 8.1 66.95 11.3 68.55 14.75 68.85 16.15 L68.65 16.2 66.95 12.85 Q65.45 10.35 65.3 8.6 65.15 7.05 61.7 3.15 58.05 -1.0 57.65 -2.2 54.35 -11.4 37.55 -13.6 32.55 -14.25 29.4 -16.4 25.6 -19.0 21.95 -19.95 16.75 -21.3 9.75 -20.1 L-2.2 -18.45 Q-5.9 -18.45 -13.9 -20.3 -21.0 -21.95 -25.65 -21.35 -30.65 -20.65 -36.15 -16.4 -41.45 -12.35 -46.2 -11.95 -53.5 -11.4 -55.7 -7.1 -57.1 -4.45 -58.4 3.25 -59.35 6.9 -62.1 11.3 L-65.35 16.3 -66.55 17.1 Q-62.55 10.35 -60.4 1.65 -57.95 -7.95 -57.2 -9.3 -54.9 -13.25 -48.9 -14.2 L-47.15 -14.4 Q-42.45 -14.8 -36.65 -19.65 -30.65 -24.65 -25.65 -25.35 -21.0 -26.05 -13.9 -24.25 -5.9 -22.25 -2.2 -22.3 0.3 -22.3 9.75 -24.05 16.75 -25.3 21.95 -23.9 25.45 -22.9 30.85 -19.6 35.5 -16.75 40.5 -16.05 45.9 -15.35 48.85 -14.45" fill="#ffffff" fill-rule="evenodd" stroke="none"/>
    <path d="M68.65 16.2 L68.85 16.95 64.95 17.65 67.7 15.15 Q64.65 13.75 58.85 5.85 53.15 -1.9 48.85 -3.7 44.65 -5.45 40.25 -1.85 L36.75 0.5 Q34.25 0.8 31.6 -0.75 28.4 -2.6 27.8 -5.45 27.15 -5.75 26.45 -6.1 L28.8 -1.7 Q26.7 -3.65 24.15 -7.1 19.9 -12.85 15.65 -13.35 12.65 -13.7 10.45 -12.25 L7.2 -9.15 6.65 -8.55 -0.5 -8.1 -4.0 -8.5 -6.3 -10.15 -10.0 -13.1 Q-14.4 -16.3 -18.75 -14.85 -21.5 -13.9 -23.0 -11.35 L-24.3 -8.3 Q-29.45 -2.35 -38.2 -3.45 L-39.55 -4.1 -38.45 -3.15 -38.8 -3.3 Q-42.6 -5.0 -43.3 -5.15 -47.8 -6.4 -51.4 -0.1 -57.45 10.4 -65.35 16.3 L-62.1 11.3 Q-59.35 6.9 -58.4 3.25 -57.1 -4.45 -55.7 -7.1 -53.5 -11.4 -46.2 -11.95 -41.45 -12.35 -36.15 -16.4 -30.65 -20.65 -25.65 -21.35 -21.0 -21.95 -13.9 -20.3 -5.9 -18.45 -2.2 -18.45 L9.75 -20.1 Q16.75 -21.3 21.95 -19.95 25.6 -19.0 29.4 -16.4 32.55 -14.25 37.55 -13.6 54.35 -11.4 57.65 -2.2 58.05 -1.0 61.7 3.15 65.15 7.05 65.3 8.6 65.45 10.35 66.95 12.85 L68.65 16.2 M36.6 32.4 L36.7 32.55 35.3 32.05 Q32.35 31.05 29.25 30.8 L25.15 31.1 23.85 32.2 Q23.15 32.65 22.45 32.9 L22.75 32.55 Q23.6 31.5 25.15 31.1 28.3 27.95 31.2 20.2 30.5 23.2 32.7 26.75 L36.6 32.4 M-9.85 30.15 Q-12.15 29.55 -14.2 29.65 L-15.85 29.6 Q-18.75 29.8 -21.0 31.45 -16.7 26.1 -14.15 14.9 -14.3 17.8 -11.25 22.9 L-6.85 30.55 -9.85 30.15 M-66.85 18.8 L-67.2 18.85 -67.1 18.75 -66.85 18.8" fill="#fff4d8" fill-rule="evenodd" stroke="none"/>
    <path d="M6.65 -8.55 L6.9 -8.6 Q4.2 -5.85 3.85 -0.75 3.45 4.45 1.85 6.35 -0.25 4.9 -1.4 -1.1 -2.5 -6.55 -5.6 -9.05 L-4.0 -8.5 -0.5 -8.1 6.65 -8.55 M-24.3 -8.3 L-24.2 -8.4 -26.0 -0.75 Q-27.4 4.8 -29.65 5.05 -31.55 5.3 -34.75 1.3 L-38.45 -3.15 -39.55 -4.1 -38.2 -3.45 Q-29.45 -2.35 -24.3 -8.3 M28.8 -1.7 L26.45 -6.1 Q27.15 -5.75 27.8 -5.45 28.4 -2.6 31.6 -0.75 34.25 0.8 36.75 0.5 L38.0 0.2 Q36.85 2.0 37.1 8.4 33.6 8.2 30.7 2.6 L28.8 -1.7 M-5.6 -9.05 Q-6.7 -9.45 -7.55 -10.1 L-6.2 -9.45 -5.6 -9.05" fill="#feecbf" fill-rule="evenodd" stroke="none"/>
  </g>
</svg>
