<?xml version="1.0" encoding="UTF-8" standalone="no"?>
<svg xmlns:ffdec="https://www.free-decompiler.com/flash" xmlns:xlink="http://www.w3.org/1999/xlink" ffdec:objectType="shape" height="71.5px" width="170.35px" xmlns="http://www.w3.org/2000/svg">
  <g transform="matrix(1.0, 0.0, 0.0, 1.0, 77.05, 44.55)">
    <path d="M27.15 -40.95 Q32.3 -39.25 43.5 -34.55 64.25 -25.75 74.05 -12.95 82.85 -7.65 91.1 -1.3 92.2 -1.55 93.3 -1.95 86.55 8.95 54.25 20.15 30.8 28.35 11.55 26.65 L-14.8 24.3 Q-30.45 22.6 -40.75 19.85 -68.65 12.3 -77.05 3.2 L-74.7 3.45 Q-72.6 -0.4 -66.6 -4.9 -58.3 -11.15 -56.95 -12.45 L-50.9 -17.9 -45.25 -23.9 Q-37.2 -31.95 -28.05 -36.5 -20.05 -40.55 -9.55 -42.7 1.0 -44.95 10.05 -44.45 17.8 -44.05 27.15 -40.95" fill="url(#gradient0)" fill-rule="evenodd" stroke="none"/>
  </g>
  <defs>
    <radialGradient cx="0" cy="0" gradientTransform="matrix(0.1102, 0.0, 0.0, 0.0703, 13.85, 2.6)" gradientUnits="userSpaceOnUse" id="gradient0" r="819.2" spreadMethod="pad">
      <stop offset="0.4745098039215686" stop-color="#999999" stop-opacity="0.21176471"/>
      <stop offset="0.8549019607843137" stop-color="#666666" stop-opacity="0.0"/>
    </radialGradient>
  </defs>
</svg>
