<?xml version="1.0" encoding="UTF-8" standalone="no"?>
<svg xmlns:ffdec="https://www.free-decompiler.com/flash" xmlns:xlink="http://www.w3.org/1999/xlink" ffdec:objectType="shape" height="71.5px" width="170.35px" xmlns="http://www.w3.org/2000/svg">
  <g transform="matrix(1.0, 0.0, 0.0, 1.0, 85.2, 35.75)">
    <path d="M65.9 -4.15 Q74.7 1.15 82.95 7.5 L85.15 6.85 Q78.4 17.75 46.1 28.95 22.65 37.15 3.4 35.45 L-22.95 33.1 Q-38.6 31.4 -48.9 28.65 -76.8 21.1 -85.2 12.0 L-82.85 12.25 Q-80.75 8.4 -74.75 3.9 -66.45 -2.35 -65.1 -3.65 L-59.05 -9.1 Q-52.05 -14.8 -44.35 -18.6 -27.15 -27.1 1.6 -25.7 21.7 -24.7 41.95 -16.25 54.4 -11.1 65.9 -4.15 M34.35 -3.2 L44.6 -4.35 Q49.7 -5.0 55.05 -2.55 L58.95 -0.4 59.0 -0.35 Q61.1 0.9 64.1 2.85 69.65 6.4 73.55 7.4 L75.4 7.8 Q71.25 2.2 60.4 -3.85 51.1 -9.0 40.7 -12.7 27.7 -17.4 21.55 -19.15 10.65 -22.25 1.55 -22.65 -9.05 -23.1 -21.4 -20.9 -33.75 -18.7 -43.1 -14.7 -53.85 -10.15 -63.2 -2.1 -73.5 6.75 -77.4 12.3 -65.05 11.65 -58.25 3.5 L-57.75 3.95 Q-58.9 6.2 -59.8 7.2 -63.1 10.9 -70.9 12.3 -66.35 12.55 -62.15 13.85 -60.9 14.25 -58.9 12.3 -56.7 10.15 -56.4 6.85 L-56.05 1.7 -56.0 0.95 -55.5 0.45 Q-52.25 -3.05 -49.55 -4.75 -44.2 -8.15 -38.25 -7.2 -35.65 -6.8 -32.7 -5.6 L-28.25 -3.7 -24.85 -0.05 Q-20.85 4.55 -18.85 4.55 -15.65 4.6 -12.95 -0.9 -10.35 -7.4 -9.15 -9.4 L-9.2 -9.6 -8.0 -10.3 Q-2.3 -13.6 3.1 -13.55 7.75 -13.5 13.8 -10.25 L18.7 -7.65 21.0 -5.45 Q23.95 -2.6 25.75 -2.0 28.45 -1.1 33.85 -3.2 L34.35 -3.2 M72.05 9.9 Q70.7 9.0 69.1 8.5 L66.45 7.55 Q63.4 6.1 58.7 0.1 59.55 1.55 60.3 4.8 61.25 9.0 62.5 9.8 64.15 10.8 67.15 10.5 L72.05 9.9" fill="#ffffff" fill-rule="evenodd" stroke="none"/>
    <path d="M34.25 -3.35 L34.35 -3.2 33.85 -3.2 34.25 -3.35 M-56.0 0.95 L-55.9 0.1 -55.5 0.45 -56.0 0.95" fill="#fff4d8" fill-rule="evenodd" stroke="none"/>
    <path d="M-58.25 3.5 L-56.6 1.65 -57.75 3.95 -58.25 3.5 M-19.95 -3.45 Q-18.95 -3.8 -17.9 -4.3 L-9.2 -9.6 -9.15 -9.4 Q-15.0 -3.95 -19.95 -3.45" fill="#fffcf3" fill-rule="evenodd" stroke="none"/>
    <path d="M-30.4 -5.45 L-30.9 -5.7 -30.2 -5.7 -30.4 -5.45" fill="#feecbf" fill-rule="evenodd" stroke="none"/>
    <path d="M18.7 -7.65 L16.45 -9.7 16.45 -11.0 Q27.0 -3.05 38.75 -5.45 L34.25 -3.35 33.85 -3.2 Q28.45 -1.1 25.75 -2.0 23.95 -2.6 21.0 -5.45 L18.7 -7.65 M-56.6 1.65 L-56.05 1.7 -56.4 6.85 Q-56.7 10.15 -58.9 12.3 -60.9 14.25 -62.15 13.85 -66.35 12.55 -70.9 12.3 -63.1 10.9 -59.8 7.2 -58.9 6.2 -57.75 3.95 L-56.6 1.65 M-28.25 -3.7 L-30.4 -5.45 -30.2 -5.7 Q-22.2 -3.4 -20.8 -3.4 L-19.95 -3.45 Q-15.0 -3.95 -9.15 -9.4 -10.35 -7.4 -12.95 -0.9 -15.65 4.6 -18.85 4.55 -20.85 4.55 -24.85 -0.05 L-28.25 -3.7 M72.05 9.9 L67.15 10.5 Q64.15 10.8 62.5 9.8 61.25 9.0 60.3 4.8 59.55 1.55 58.7 0.1 63.4 6.1 66.45 7.55 L69.1 8.5 Q70.7 9.0 72.05 9.9" fill="#dfeff4" fill-rule="evenodd" stroke="none"/>
    <path d="M-59.05 -9.1 L-53.4 -15.1 Q-45.35 -23.15 -36.2 -27.7 -28.2 -31.75 -17.7 -33.9 -7.15 -36.15 1.9 -35.65 9.65 -35.25 19.0 -32.15 24.15 -30.45 35.35 -25.75 56.1 -16.95 65.9 -4.15 54.4 -11.1 41.95 -16.25 21.7 -24.7 1.6 -25.7 -27.15 -27.1 -44.35 -18.6 -52.05 -14.8 -59.05 -9.1 M34.25 -3.35 L38.75 -5.45 Q27.0 -3.05 16.45 -11.0 L16.45 -9.7 18.7 -7.65 13.8 -10.25 Q7.75 -13.5 3.1 -13.55 -2.3 -13.6 -8.0 -10.3 L-9.2 -9.6 -17.9 -4.3 Q-18.95 -3.8 -19.95 -3.45 L-20.8 -3.4 Q-22.2 -3.4 -30.2 -5.7 L-30.9 -5.7 -30.4 -5.45 -28.25 -3.7 -32.7 -5.6 Q-35.65 -6.8 -38.25 -7.2 -44.2 -8.15 -49.55 -4.75 -52.25 -3.05 -55.5 0.45 L-55.9 0.1 -56.0 0.95 -56.05 1.7 -56.6 1.65 -58.25 3.5 Q-65.05 11.65 -77.4 12.3 -73.5 6.75 -63.2 -2.1 -53.85 -10.15 -43.1 -14.7 -33.75 -18.7 -21.4 -20.9 -9.05 -23.1 1.55 -22.65 10.65 -22.25 21.55 -19.15 27.7 -17.4 40.7 -12.7 51.1 -9.0 60.4 -3.85 71.25 2.2 75.4 7.8 L73.55 7.4 Q69.65 6.4 64.1 2.85 61.1 0.9 59.0 -0.35 L58.95 -0.4 55.05 -2.55 Q49.7 -5.0 44.6 -4.35 L34.35 -3.2 34.25 -3.35" fill="#f2f9fb" fill-rule="evenodd" stroke="none"/>
  </g>
</svg>
