<?xml version="1.0" encoding="UTF-8" standalone="no"?>
<svg xmlns:ffdec="https://www.free-decompiler.com/flash" xmlns:xlink="http://www.w3.org/1999/xlink" ffdec:objectType="shape" height="71.5px" width="170.35px" xmlns="http://www.w3.org/2000/svg">
  <g transform="matrix(1.0, 0.0, 0.0, 1.0, 85.2, 35.75)">
    <path d="M65.9 -4.15 Q74.7 1.15 82.95 7.5 L75.4 7.8 Q71.25 2.2 60.4 -3.85 51.1 -9.0 40.7 -12.7 27.7 -17.4 21.55 -19.15 10.65 -22.25 1.55 -22.65 -9.05 -23.1 -21.4 -20.9 -33.75 -18.7 -43.1 -14.7 -53.85 -10.15 -63.2 -2.1 -73.5 6.75 -77.4 12.3 L-82.85 12.25 Q-80.75 8.4 -74.75 3.9 -66.45 -2.35 -65.1 -3.65 L-59.05 -9.1 Q-52.05 -14.8 -44.35 -18.6 -27.15 -27.1 1.6 -25.7 21.7 -24.7 41.95 -16.25 54.4 -11.1 65.9 -4.15" fill="#ffffff" fill-rule="evenodd" stroke="none"/>
    <path d="M-70.85 11.3 L-70.85 11.1 -70.8 11.1 -70.25 11.15 -70.85 11.3" fill="#fff4d8" fill-rule="evenodd" stroke="none"/>
    <path d="M66.75 4.45 L70.3 6.25 68.55 5.6 66.75 4.45 M72.85 7.2 L73.55 7.4 74.25 7.6 74.15 7.95 72.85 7.2 M-58.2 3.6 L-58.25 3.5 -57.95 3.15 -58.2 3.6" fill="#fffcf3" fill-rule="evenodd" stroke="none"/>
    <path d="M60.15 1.85 L60.55 1.0 61.2 2.1 60.15 1.85 M-56.1 0.5 L-55.9 0.1 -56.0 0.95 -56.05 1.7 -56.15 1.7 -56.05 0.5 -56.1 0.5 M-30.65 -5.6 L-30.9 -5.7 -30.2 -5.7 -30.35 -5.5 -30.65 -5.6" fill="#feecbf" fill-rule="evenodd" stroke="none"/>
    <path d="M16.45 -8.8 L16.45 -9.95 Q25.6 -3.05 35.65 -3.95 L38.75 -4.4 Q37.75 -3.85 36.8 -3.4 L33.85 -2.15 Q28.45 -0.05 25.75 -0.95 23.95 -1.55 21.0 -4.4 L18.7 -6.6 16.45 -8.65 16.45 -8.8 M62.45 3.05 Q64.0 3.95 66.75 4.45 L68.55 5.6 70.3 6.25 71.2 6.55 Q72.05 6.8 72.85 7.2 L74.15 7.95 69.25 8.55 Q66.25 8.85 64.6 7.85 63.7 7.25 62.95 4.95 L62.45 3.05 M-70.85 11.1 L-70.9 11.1 -68.4 10.55 Q-62.55 9.05 -59.8 6.0 L-58.2 3.6 -57.95 3.15 -56.6 0.45 -56.1 0.5 -56.05 0.5 -56.15 1.7 -56.4 5.65 Q-56.7 8.95 -58.9 11.1 -60.9 13.05 -62.15 12.65 -64.65 11.85 -67.3 11.5 L-70.25 11.15 -70.8 11.1 -70.85 11.1 M-30.45 -4.6 L-31.75 -5.6 -31.55 -5.85 -30.9 -5.65 -30.65 -5.6 -30.35 -5.5 Q-23.45 -3.55 -22.15 -3.55 L-21.95 -3.55 -21.3 -3.6 Q-19.1 -3.85 -16.65 -5.05 L-13.85 -6.75 -10.5 -9.55 -11.1 -8.45 -11.65 -7.25 -14.3 -1.05 Q-16.8 4.0 -19.7 4.4 L-20.2 4.4 Q-22.2 4.4 -26.2 -0.2 L-29.6 -3.85 -30.45 -4.6" fill="#fdf491" fill-rule="evenodd" stroke="none"/>
    <path d="M-59.05 -9.1 L-53.4 -15.1 Q-45.35 -23.15 -36.2 -27.7 -28.2 -31.75 -17.7 -33.9 -7.15 -36.15 1.9 -35.65 9.65 -35.25 19.0 -32.15 24.15 -30.45 35.35 -25.75 56.1 -16.95 65.9 -4.15 54.4 -11.1 41.95 -16.25 21.7 -24.7 1.6 -25.7 -27.15 -27.1 -44.35 -18.6 -52.05 -14.8 -59.05 -9.1 M82.95 7.5 L85.15 6.85 Q78.4 17.75 46.1 28.95 22.65 37.15 3.4 35.45 L-22.95 33.1 Q-38.6 31.4 -48.9 28.65 -76.8 21.1 -85.2 12.0 L-82.85 12.25 -77.4 12.3 -70.85 11.3 -70.25 11.15 -67.3 11.5 Q-64.65 11.85 -62.15 12.65 -60.9 13.05 -58.9 11.1 -56.7 8.95 -56.4 5.65 L-56.35 5.65 -56.05 1.7 -56.0 0.95 -55.5 0.45 Q-52.25 -3.05 -49.55 -4.75 -44.2 -8.15 -38.25 -7.2 -35.65 -6.8 -32.7 -5.6 L-30.45 -4.6 -29.6 -3.85 -26.2 -0.2 Q-22.2 4.4 -20.2 4.4 L-19.7 4.4 Q-16.8 4.0 -14.3 -1.05 L-11.65 -7.25 -11.1 -8.45 -8.0 -10.3 Q-2.3 -13.6 3.1 -13.55 7.75 -13.5 13.8 -10.25 L16.45 -8.8 16.45 -8.65 18.7 -6.6 21.0 -4.4 Q23.95 -1.55 25.75 -0.95 28.45 -0.05 33.85 -2.15 L36.8 -3.4 44.6 -4.35 Q49.7 -5.0 55.05 -2.55 56.55 -1.85 59.0 0.65 L59.1 0.6 59.95 1.65 60.15 1.85 61.2 2.1 Q62.3 2.35 62.4 2.85 L62.45 3.05 62.95 4.95 Q63.7 7.25 64.6 7.85 66.25 8.85 69.25 8.55 L74.15 7.95 74.25 7.6 75.4 7.8 82.95 7.5" fill="#ffffce" fill-rule="evenodd" stroke="none"/>
    <path d="M36.8 -3.4 Q37.75 -3.85 38.75 -4.4 L35.65 -3.95 Q25.6 -3.05 16.45 -9.95 L16.45 -8.8 13.8 -10.25 Q7.75 -13.5 3.1 -13.55 -2.3 -13.6 -8.0 -10.3 L-11.1 -8.45 -10.5 -9.55 -13.85 -6.75 -16.65 -5.05 Q-19.1 -3.85 -21.3 -3.6 L-21.95 -3.55 -22.1 -3.55 -22.15 -3.55 Q-23.45 -3.55 -30.35 -5.5 L-30.2 -5.7 -30.9 -5.7 -30.65 -5.6 -30.9 -5.65 -31.55 -5.85 -31.75 -5.6 -30.45 -4.6 -32.7 -5.6 Q-35.65 -6.8 -38.25 -7.2 -44.2 -8.15 -49.55 -4.75 -52.25 -3.05 -55.5 0.45 L-56.0 0.95 -55.9 0.1 -56.1 0.5 -56.6 0.45 -57.95 3.15 -58.25 3.5 -58.2 3.6 -59.8 6.0 Q-62.55 9.05 -68.4 10.55 L-70.9 11.1 -70.85 11.1 -70.85 11.3 -77.4 12.3 Q-73.5 6.75 -63.2 -2.1 -53.85 -10.15 -43.1 -14.7 -33.75 -18.7 -21.4 -20.9 -9.05 -23.1 1.55 -22.65 10.65 -22.25 21.55 -19.15 27.7 -17.4 40.7 -12.7 51.1 -9.0 60.4 -3.85 71.25 2.2 75.4 7.8 L74.25 7.6 73.55 7.4 72.85 7.2 Q72.05 6.8 71.2 6.55 L70.3 6.25 66.75 4.45 Q64.0 3.95 62.45 3.05 L62.4 2.85 Q62.3 2.35 61.2 2.1 L60.55 1.0 60.15 1.85 59.95 1.65 59.1 0.6 58.7 0.1 59.0 0.65 Q56.55 -1.85 55.05 -2.55 49.7 -5.0 44.6 -4.35 L36.8 -3.4" fill="#fefda5" fill-rule="evenodd" stroke="none"/>
  </g>
</svg>
