<?xml version="1.0" encoding="UTF-8" standalone="no"?>
<svg xmlns:ffdec="https://www.free-decompiler.com/flash" xmlns:xlink="http://www.w3.org/1999/xlink" ffdec:objectType="shape" height="71.5px" width="170.35px" xmlns="http://www.w3.org/2000/svg">
  <g transform="matrix(1.0, 0.0, 0.0, 1.0, 85.2, 35.75)">
    <path d="M65.9 -4.15 Q74.7 1.15 82.95 7.5 L75.4 7.8 Q71.25 2.2 60.4 -3.85 51.1 -9.0 40.7 -12.7 27.7 -17.4 21.55 -19.15 10.65 -22.25 1.55 -22.65 -9.05 -23.1 -21.4 -20.9 -33.75 -18.7 -43.1 -14.7 -53.85 -10.15 -63.2 -2.1 -73.5 6.75 -77.4 12.3 L-82.85 12.25 Q-80.75 8.4 -74.75 3.9 -66.45 -2.35 -65.1 -3.65 L-59.05 -9.1 Q-52.05 -14.8 -44.35 -18.6 -27.15 -27.1 1.6 -25.7 21.7 -24.7 41.95 -16.25 54.4 -11.1 65.9 -4.15" fill="#ffffff" fill-rule="evenodd" stroke="none"/>
    <path d="M36.8 -3.4 Q37.75 -3.85 38.75 -4.4 L35.65 -3.95 Q25.6 -3.05 16.45 -9.95 L16.45 -8.8 13.8 -10.25 Q7.75 -13.5 3.1 -13.55 -2.3 -13.6 -8.0 -10.3 L-10.75 -8.65 -10.35 -9.4 -12.15 -7.8 Q-15.25 -5.3 -18.1 -4.2 -19.7 -3.6 -21.15 -3.45 L-21.25 -3.45 -21.9 -3.55 -22.0 -3.4 Q-23.3 -3.4 -30.25 -5.35 L-30.9 -5.55 -31.4 -5.7 -32.1 -5.7 -30.5 -4.65 -32.7 -5.6 Q-35.65 -6.8 -38.25 -7.2 -44.2 -8.15 -49.55 -4.75 -52.45 -2.9 -56.0 0.95 L-55.9 0.1 -56.45 1.25 -56.3 -0.1 Q-56.6 -0.1 -57.05 1.75 -57.55 3.6 -59.1 4.45 L-60.1 5.85 Q-62.2 8.25 -66.2 9.65 L-71.2 10.95 -69.85 11.05 Q-73.35 12.05 -77.4 12.3 -73.5 6.75 -63.2 -2.1 -53.85 -10.15 -43.1 -14.7 -33.75 -18.7 -21.4 -20.9 -9.05 -23.1 1.55 -22.65 10.65 -22.25 21.55 -19.15 27.7 -17.4 40.7 -12.7 51.1 -9.0 60.4 -3.85 71.25 2.2 75.4 7.8 L73.55 7.4 73.2 7.3 71.35 6.55 69.75 6.0 67.35 4.8 Q65.55 3.5 62.25 1.55 L58.75 0.15 58.75 0.1 Q60.3 0.4 58.85 -0.45 L58.45 -0.65 58.4 -0.7 58.45 -0.7 55.05 -2.55 Q49.7 -5.0 44.6 -4.35 L36.8 -3.4" fill="#fff4d8" fill-rule="evenodd" stroke="none"/>
    <path d="M-59.05 -9.1 L-53.4 -15.1 Q-45.35 -23.15 -36.2 -27.7 -28.2 -31.75 -17.7 -33.9 -7.15 -36.15 1.9 -35.65 9.65 -35.25 19.0 -32.15 24.15 -30.45 35.35 -25.75 56.1 -16.95 65.9 -4.15 54.4 -11.1 41.95 -16.25 21.7 -24.7 1.6 -25.7 -27.15 -27.1 -44.35 -18.6 -52.05 -14.8 -59.05 -9.1 M82.95 7.5 L85.15 6.85 Q78.4 17.75 46.1 28.95 22.65 37.15 3.4 35.45 L-22.95 33.1 Q-38.6 31.4 -48.9 28.65 -76.8 21.1 -85.2 12.0 L-82.85 12.25 -77.4 12.3 Q-73.35 12.05 -69.85 11.05 L-67.1 11.4 -62.45 12.5 Q-61.2 12.9 -59.2 10.95 -57.0 8.8 -56.7 5.5 L-56.45 1.25 -55.9 0.1 -56.0 0.95 Q-52.45 -2.9 -49.55 -4.75 -44.2 -8.15 -38.25 -7.2 -35.65 -6.8 -32.7 -5.6 L-30.5 -4.65 -29.45 -3.7 -26.05 -0.05 Q-22.05 4.55 -20.05 4.55 L-19.3 4.5 Q-16.55 4.0 -14.15 -0.9 L-11.3 -7.5 -10.75 -8.65 -8.0 -10.3 Q-2.3 -13.6 3.1 -13.55 7.75 -13.5 13.8 -10.25 L16.45 -8.8 16.45 -8.65 18.7 -6.6 21.0 -4.4 Q23.95 -1.55 25.75 -0.95 28.45 -0.05 33.85 -2.15 L36.8 -3.4 44.6 -4.35 Q49.7 -5.0 55.05 -2.55 L58.45 -0.7 58.4 -0.7 58.45 -0.65 58.85 -0.45 Q60.3 0.4 58.75 0.1 L58.7 0.1 58.75 0.15 Q62.4 2.25 62.55 2.85 L63.2 5.15 Q63.9 7.3 64.75 7.85 66.35 8.85 69.3 8.55 L69.4 8.55 74.3 7.95 73.2 7.3 73.55 7.4 75.4 7.8 82.95 7.5 M67.35 4.8 L69.75 6.0 68.7 5.6 67.35 4.8" fill="#fffcf3" fill-rule="evenodd" stroke="none"/>
    <path d="M16.45 -8.8 L16.45 -9.95 Q25.6 -3.05 35.65 -3.95 L38.75 -4.4 Q37.75 -3.85 36.8 -3.4 L33.85 -2.15 Q28.45 -0.05 25.75 -0.95 23.95 -1.55 21.0 -4.4 L18.7 -6.6 16.45 -8.65 16.45 -8.8 M58.75 0.15 L62.25 1.55 Q65.55 3.5 67.35 4.8 L68.7 5.6 69.75 6.0 71.35 6.55 73.2 7.3 74.3 7.95 69.4 8.55 69.3 8.55 Q66.35 8.85 64.75 7.85 63.9 7.3 63.2 5.15 L62.55 2.85 Q62.4 2.25 58.75 0.15 L58.7 0.1 58.75 0.1 58.75 0.15 M-69.85 11.05 L-71.2 10.95 -66.2 9.65 Q-62.2 8.25 -60.1 5.85 L-59.1 4.45 Q-57.55 3.6 -57.05 1.75 -56.6 -0.1 -56.3 -0.1 L-56.45 1.25 -56.7 5.5 Q-57.0 8.8 -59.2 10.95 -61.2 12.9 -62.45 12.5 L-67.1 11.4 -69.85 11.05 M-30.5 -4.65 L-32.1 -5.7 -31.4 -5.7 -30.9 -5.55 -30.25 -5.35 Q-23.3 -3.4 -22.0 -3.4 L-21.25 -3.45 -21.15 -3.45 Q-19.7 -3.6 -18.1 -4.2 -15.25 -5.3 -12.15 -7.8 L-10.35 -9.4 -10.75 -8.65 -11.3 -7.5 -14.15 -0.9 Q-16.55 4.0 -19.3 4.5 L-20.05 4.55 Q-22.05 4.55 -26.05 -0.05 L-29.45 -3.7 -30.5 -4.65" fill="#feecbf" fill-rule="evenodd" stroke="none"/>
  </g>
</svg>
