<?xml version="1.0" encoding="UTF-8" standalone="no"?>
<svg xmlns:ffdec="https://www.free-decompiler.com/flash" xmlns:xlink="http://www.w3.org/1999/xlink" ffdec:objectType="shape" height="31.4px" width="145.5px" xmlns="http://www.w3.org/2000/svg">
  <g transform="matrix(1.0, 0.0, 0.0, 1.0, 105.15, 16.05)">
    <path d="M-102.2 11.9 Q-104.2 10.15 -104.15 7.8 L-104.15 -8.6 -104.05 -9.8 -103.85 -10.35 -103.8 -10.45 Q-103.2 -12.0 -101.6 -13.2 L-101.55 -13.2 -100.75 -13.75 Q-98.9 -14.85 -96.45 -15.0 L-95.45 -15.05 -86.95 -15.05 -86.5 -15.05 30.65 -15.05 33.6 -14.7 35.25 -14.1 35.95 -13.75 36.4 -13.45 36.65 -13.25 36.75 -13.2 36.8 -13.2 37.6 -12.5 Q38.55 -11.6 38.95 -10.45 L39.35 -8.6 39.35 7.8 Q39.35 10.05 37.6 11.7 L36.8 12.4 36.75 12.4 36.55 12.55 Q35.6 13.25 34.5 13.65 32.75 14.3 30.65 14.35 L-86.5 14.35 -95.45 14.35 -98.05 14.05 -99.05 13.75 -99.3 13.65 -99.9 13.45 -100.8 12.95 -101.35 12.55 -101.55 12.4 -101.6 12.4 -102.2 11.9" fill="#ffcc00" fill-rule="evenodd" stroke="none"/>
    <path d="M37.6 -12.5 L36.8 -13.2 36.75 -13.2 36.65 -13.25 36.4 -13.45 35.95 -13.75 35.25 -14.1 33.6 -14.7 30.65 -15.05 -86.5 -15.05 -86.95 -15.05 -95.45 -15.05 -96.45 -15.0 Q-98.9 -14.85 -100.75 -13.75 L-101.55 -13.2 -101.6 -13.2 Q-103.2 -12.0 -103.8 -10.45 L-103.85 -10.35 -104.05 -9.8 -104.15 -8.6 -104.15 7.8 Q-104.2 10.15 -102.2 11.9" fill="none" stroke="#ffffcc" stroke-linecap="round" stroke-linejoin="round" stroke-width="2.0"/>
    <path d="M-102.2 11.9 L-101.6 12.4 -101.55 12.4 -101.35 12.55 -100.8 12.95 -99.9 13.45 -99.3 13.65 -99.05 13.75 -98.05 14.05 -95.45 14.35 -86.5 14.35 30.65 14.35 Q32.75 14.3 34.5 13.65 35.6 13.25 36.55 12.55 L36.75 12.4 36.8 12.4 37.6 11.7 Q39.35 10.05 39.35 7.8 L39.35 -8.6 38.95 -10.45 Q38.55 -11.6 37.6 -12.5" fill="none" stroke="#ff9900" stroke-linecap="round" stroke-linejoin="round" stroke-width="2.0"/>
  </g>
</svg>
