<?xml version="1.0" encoding="UTF-8" standalone="no"?>
<svg xmlns:ffdec="https://www.free-decompiler.com/flash" xmlns:xlink="http://www.w3.org/1999/xlink" ffdec:objectType="shape" height="82.55px" width="48.9px" xmlns="http://www.w3.org/2000/svg">
  <g transform="matrix(1.0, 0.0, 0.0, 1.0, 25.15, 40.65)">
    <path d="M1.5 4.45 L1.5 4.65 1.5 4.75 1.55 4.9 1.65 5.1 1.65 5.2 1.55 5.35 1.2 5.35 1.1 5.2 0.5 4.65 0.5 4.55 -0.15 3.85 -0.2 3.75 -0.25 3.75 -1.6 3.75 -2.1 4.15 -3.2 5.05 -3.35 5.0 -3.5 4.9 -3.45 4.8 -3.35 4.7 -3.35 4.55 -3.3 4.1 -3.3 3.75 -2.9 3.1 -1.75 2.1 -0.3 2.15 Q0.35 2.55 0.8 3.2 L1.45 4.3 1.5 4.45 M0.8 4.05 L0.8 4.0 0.75 4.0 0.8 4.05 M-2.95 4.15 L-2.85 4.1 -2.9 4.05 -2.95 4.15" fill="#ffca9a" fill-rule="evenodd" stroke="none"/>
    <path d="M-13.65 3.8 Q-11.1 1.5 -7.65 0.65 L-1.25 -0.25 Q1.85 -0.4 5.25 0.9 8.6 2.2 11.05 5.15" fill="none" stroke="#330000" stroke-linecap="round" stroke-linejoin="round" stroke-width="2.0"/>
    <path d="M-6.8 10.1 L-5.45 9.3 Q-3.65 8.3 -0.2 8.7 2.65 9.0 5.0 9.95 6.75 10.65 7.55 11.3 8.65 12.1 9.35 13.45 10.6 15.85 10.65 18.95 L10.65 22.1 10.6 23.4 Q10.4 23.8 9.5 24.0 L5.8 24.15 2.05 23.75 -5.7 23.35 -9.1 23.3 -12.4 22.9 Q-12.3 18.65 -11.4 15.55 -9.95 10.75 -6.8 10.1" fill="#16b114" fill-rule="evenodd" stroke="none"/>
    <path d="M-6.65 15.95 L-6.35 14.75 Q-6.1 15.35 -6.1 17.15 L-6.15 19.85 Q-5.8 22.55 -5.9 23.75 L-7.05 24.0 -6.9 20.0 -6.65 15.95" fill="#039d0a" fill-rule="evenodd" stroke="none"/>
    <path d="M-3.2 17.5 Q-3.2 17.9 -3.5 18.2 L-4.2 18.5 -4.85 18.2 -5.15 17.5 -4.85 16.85 Q-4.6 16.55 -4.2 16.55 -3.8 16.55 -3.5 16.85 -3.2 17.1 -3.2 17.5" fill="#039d0a" fill-rule="evenodd" stroke="none"/>
    <path d="M-3.2 20.25 Q-3.2 20.65 -3.5 20.95 L-4.2 21.2 -4.85 20.95 -5.15 20.25 -4.85 19.6 Q-4.6 19.3 -4.2 19.3 -3.8 19.3 -3.5 19.6 -3.2 19.85 -3.2 20.25" fill="#039d0a" fill-rule="evenodd" stroke="none"/>
    <path d="M2.95 17.5 L2.65 18.2 1.95 18.5 Q1.55 18.5 1.3 18.2 1.0 17.9 1.0 17.5 1.0 17.1 1.3 16.85 1.55 16.55 1.95 16.55 2.35 16.55 2.65 16.85 L2.95 17.5" fill="#039d0a" fill-rule="evenodd" stroke="none"/>
    <path d="M2.95 20.25 L2.65 20.95 1.95 21.2 1.3 20.95 Q1.0 20.65 1.0 20.25 1.0 19.85 1.3 19.6 1.55 19.3 1.95 19.3 2.35 19.3 2.65 19.6 L2.95 20.25" fill="#039d0a" fill-rule="evenodd" stroke="none"/>
    <path d="M-1.7 14.95 Q-2.25 16.1 -4.0 16.55 L-6.85 16.4 Q-8.25 15.75 -8.45 13.9 -8.6 12.3 -7.9 10.85 L5.9 10.6 Q7.45 10.3 9.05 13.4 10.15 15.55 10.35 17.4 L10.8 21.3 10.85 22.25 Q10.8 22.8 10.55 23.0 L9.6 23.15 8.65 23.1 8.7 21.95 8.75 20.8 8.35 18.5 7.65 17.1 Q6.9 16.1 6.25 16.5 L4.45 17.0 2.5 16.55 1.45 15.75 0.35 15.05 -0.6 15.05 -1.7 14.95" fill="#039d0a" fill-rule="evenodd" stroke="none"/>
    <path d="M13.8 22.95 Q14.5 22.0 15.1 21.85 15.75 21.65 17.0 22.3 L17.65 22.55 18.2 22.9 Q18.3 23.3 18.0 23.6 17.7 23.95 17.3 23.9 17.4 24.4 17.1 24.7 L16.25 24.75 Q16.2 25.6 15.5 25.75 14.75 25.9 14.55 25.05 L13.05 25.25 Q12.8 24.95 13.1 24.15 L13.8 22.95" fill="#ffd09b" fill-rule="evenodd" stroke="none"/>
    <path d="M17.25 23.85 L17.3 23.9 17.05 23.2 Q17.95 23.5 17.75 23.8 L17.3 23.9 17.3 24.0 17.25 23.85" fill="#ffbb7e" fill-rule="evenodd" stroke="none"/>
    <path d="M15.8 24.3 Q16.8 24.3 16.85 24.85 L16.25 24.9 15.95 25.55 15.25 25.7 15.8 25.15 Q16.0 24.7 15.8 24.3" fill="#ffbb7e" fill-rule="evenodd" stroke="none"/>
    <path d="M14.4 24.65 Q14.75 25.15 14.05 25.4 L13.6 25.45 13.2 25.25 Q13.7 25.45 14.4 24.65" fill="#ffbb7e" fill-rule="evenodd" stroke="none"/>
    <path d="M-2.3 40.05 Q-2.15 40.85 -3.2 41.35 L-5.5 41.9 -7.9 41.6 Q-9.0 41.15 -9.05 40.35 -9.05 39.65 -8.05 39.15 -7.1 38.7 -5.75 38.6 L-3.45 38.85 Q-2.35 39.25 -2.3 40.05" fill="#000104" fill-rule="evenodd" stroke="none"/>
    <path d="M-4.75 38.5 L-4.9 36.25 Q-5.05 34.9 -4.8 34.1 L-3.75 34.25 -2.8 34.2 Q-2.6 35.7 -2.9 38.9 -3.4 39.5 -4.0 39.5 L-4.6 39.0 -4.75 38.5" fill="#ffd09b" fill-rule="evenodd" stroke="none"/>
    <path d="M1.15 39.9 Q1.2 39.1 2.3 38.7 L4.6 38.45 Q5.95 38.55 6.9 39.0 7.95 39.5 7.9 40.2 7.85 41.0 6.75 41.45 L4.35 41.75 Q2.95 41.7 2.05 41.2 1.0 40.7 1.15 39.9" fill="#000104" fill-rule="evenodd" stroke="none"/>
    <path d="M3.6 38.35 Q3.45 39.35 2.85 39.35 2.5 39.35 2.1 39.05 L1.75 38.75 Q1.45 35.55 1.65 34.05 L3.65 33.95 Q3.9 34.75 3.75 36.1 L3.6 38.35" fill="#ffd09b" fill-rule="evenodd" stroke="none"/>
    <path d="M-7.25 27.65 L-1.1 27.0 Q-1.65 29.0 -1.5 32.15 -1.25 36.05 -1.4 37.35 L-2.9 37.35 -4.35 37.25 -7.5 37.35 -7.45 32.5 Q-7.2 29.05 -7.25 27.65" fill="#634301" fill-rule="evenodd" stroke="none"/>
    <path d="M-0.15 27.5 L6.0 26.85 Q5.45 28.85 5.65 32.0 L5.7 37.2 4.25 37.2 2.75 37.1 -0.35 37.2 Q-0.55 35.45 -0.35 32.35 -0.1 28.85 -0.15 27.5" fill="#634301" fill-rule="evenodd" stroke="none"/>
    <path d="M-1.55 13.45 Q-2.1 14.65 -3.35 15.45 -4.65 16.35 -5.85 16.15 -7.6 15.95 -8.3 14.7 -8.95 13.55 -8.65 11.8 -8.05 8.5 -4.9 9.3 -3.75 9.65 -2.6 10.85 -1.4 12.25 -1.55 13.45" fill="#f90203" fill-rule="evenodd" stroke="none"/>
    <path d="M-5.0 9.45 L-4.0 9.7 Q-2.95 10.15 -1.8 11.95 -1.4 12.65 -1.85 13.8 -2.25 14.8 -3.0 15.45 -3.7 16.0 -4.75 16.2 L-6.65 16.15 -8.1 15.2 Q-8.7 14.5 -8.6 13.5 L-7.55 15.3 Q-6.75 16.0 -5.15 15.6 L-3.65 14.55 Q-2.6 13.5 -3.1 13.05 -3.35 12.85 -4.2 13.2 L-5.25 13.75 Q-4.4 12.6 -3.2 12.25 L-4.75 11.25 -5.6 10.85 Q-3.95 10.8 -2.55 11.85 -2.85 10.6 -5.0 9.45" fill="#ca0002" fill-rule="evenodd" stroke="none"/>
    <path d="M0.15 13.45 Q0.0 12.25 1.2 10.85 2.35 9.65 3.5 9.3 6.65 8.5 7.25 11.8 7.55 13.55 6.9 14.7 6.2 15.95 4.45 16.15 3.25 16.35 1.95 15.45 0.7 14.65 0.15 13.45" fill="#f90203" fill-rule="evenodd" stroke="none"/>
    <path d="M3.75 9.35 Q1.5 10.55 1.15 11.85 2.55 10.8 4.2 10.85 L1.8 12.25 Q3.0 12.6 3.85 13.75 L2.8 13.2 1.7 13.05 Q1.2 13.5 2.25 14.55 3.2 15.5 3.7 15.6 5.35 16.0 6.15 15.3 6.55 14.9 7.15 13.5 7.4 15.55 5.25 16.15 L3.35 16.2 Q2.3 16.0 1.6 15.45 0.85 14.8 0.45 13.8 0.0 12.65 0.45 11.95 1.55 10.15 2.6 9.7 L3.4 9.45 3.75 9.35" fill="#ca0002" fill-rule="evenodd" stroke="none"/>
    <path d="M-1.8 14.6 Q-2.6 14.2 -2.8 13.4 -3.05 12.3 -2.45 11.55 -1.95 10.85 -1.0 10.65 -0.05 10.5 0.65 11.0 1.5 11.5 1.6 12.6 1.75 13.6 1.15 14.2 0.65 14.75 -0.25 14.85 L-1.8 14.6" fill="#ca0002" fill-rule="evenodd" stroke="none"/>
    <path d="M-1.95 14.2 Q-2.6 13.85 -2.8 13.15 -3.0 12.2 -2.5 11.5 -2.05 10.9 -1.25 10.75 -0.4 10.6 0.25 11.0 0.95 11.5 1.05 12.45 1.2 13.3 0.65 13.85 0.2 14.3 -0.55 14.4 L-1.95 14.2" fill="#f90203" fill-rule="evenodd" stroke="none"/>
    <path d="M-12.3 22.25 L-10.8 22.45 -9.1 22.5 -4.65 22.35 -0.15 22.3 Q2.6 22.25 4.3 22.35 L6.45 22.6 8.6 22.8 10.55 23.05 10.8 23.75 10.6 24.85 Q10.5 26.1 10.55 28.65 L10.45 32.4 -1.0 32.55 -12.45 32.75 Q-12.8 31.95 -12.8 30.35 L-12.8 27.8 -12.8 25.0 -12.3 22.25 M-12.45 32.75 L-12.4 32.75 -12.45 32.75" fill="#ebebeb" fill-rule="evenodd" stroke="none"/>
    <path d="M-11.75 22.35 L-10.4 22.5 -8.9 22.55 -4.9 22.4 -0.9 22.35 Q1.6 22.3 3.05 22.4 L5.0 22.65 6.95 22.85 8.7 23.1 8.9 23.7 8.75 24.8 Q8.6 25.95 8.7 28.35 L8.6 31.9 -1.65 32.05 -11.85 32.2 Q-12.2 31.5 -12.25 29.95 L-12.2 27.55 -12.2 24.95 Q-12.15 23.5 -11.75 22.35 M-11.85 32.2 L-11.85 32.25 -11.9 32.2 -11.85 32.2" fill="#ffffff" fill-rule="evenodd" stroke="none"/>
    <path d="M-3.65 26.75 L-1.8 26.55 0.05 26.5 -1.1 27.45 -2.45 28.1 0.85 27.8 4.2 27.2 Q1.7 28.4 -1.1 29.2 -4.4 30.2 -6.65 30.2 L-4.6 28.8 -2.8 27.3 -6.65 28.15 Q-9.0 28.7 -10.35 29.45 -9.7 28.65 -7.5 27.7 L-4.35 26.25 Q-2.85 25.35 0.25 24.15 L0.55 24.25 Q-0.85 24.7 -3.65 26.75" fill="#ebebeb" fill-rule="evenodd" stroke="none"/>
    <path d="M14.5 17.85 L15.6 20.0 Q16.45 21.7 16.15 22.0 L13.1 24.2 Q10.35 20.65 8.9 17.9 6.1 12.5 9.6 12.35 11.9 12.25 14.5 17.85" fill="#039d0a" fill-rule="evenodd" stroke="none"/>
    <path d="M7.7 15.15 Q7.7 12.95 8.8 12.85 9.4 12.8 10.2 13.25 L11.4 14.15 Q12.45 15.2 13.6 17.35 14.65 19.25 15.15 20.85 15.5 21.75 14.45 23.05 L13.6 23.85 Q13.2 24.15 13.1 24.05 L10.9 21.0 8.8 17.85 8.05 16.55 7.7 15.15" fill="#16b114" fill-rule="evenodd" stroke="none"/>
    <path d="M-19.0 21.5 L-18.3 21.3 Q-17.1 20.6 -16.4 20.8 -15.8 20.95 -15.1 21.9 L-14.4 23.1 Q-14.1 23.95 -14.4 24.25 L-15.85 24.05 Q-16.05 24.9 -16.8 24.7 -17.5 24.55 -17.6 23.75 L-18.4 23.65 Q-18.7 23.35 -18.65 22.85 -19.0 22.9 -19.3 22.6 -19.6 22.25 -19.5 21.9 -19.45 21.7 -19.0 21.5" fill="#ffd09b" fill-rule="evenodd" stroke="none"/>
    <path d="M-19.05 22.75 Q-19.3 22.45 -18.4 22.2 L-18.65 22.85 -18.6 22.85 -18.65 23.0 -18.65 22.85 -19.05 22.75" fill="#ffbb7e" fill-rule="evenodd" stroke="none"/>
    <path d="M-17.1 24.1 L-16.55 24.7 -17.25 24.5 -17.55 23.9 -18.15 23.85 -18.0 23.55 Q-17.7 23.3 -17.1 23.3 -17.3 23.7 -17.1 24.1" fill="#ffbb7e" fill-rule="evenodd" stroke="none"/>
    <path d="M-14.45 24.25 L-14.9 24.45 -15.35 24.4 Q-16.05 24.15 -15.75 23.6 -15.0 24.45 -14.45 24.25" fill="#ffbb7e" fill-rule="evenodd" stroke="none"/>
    <path d="M-15.8 16.85 Q-13.2 11.25 -10.9 11.35 -7.4 11.5 -10.2 16.85 -11.65 19.65 -14.4 23.2 L-17.45 20.95 Q-17.75 20.7 -16.9 18.95 L-15.8 16.85" fill="#039d0a" fill-rule="evenodd" stroke="none"/>
    <path d="M-9.5 13.65 L-9.9 15.0 -10.6 16.3 -12.7 19.45 -14.95 22.5 -15.45 22.3 -16.25 21.55 Q-17.3 20.2 -17.0 19.3 L-15.4 15.8 Q-14.25 13.7 -13.2 12.6 L-12.0 11.7 Q-11.2 11.25 -10.65 11.3 -9.5 11.4 -9.5 13.65" fill="#16b114" fill-rule="evenodd" stroke="none"/>
    <path d="M-23.35 -13.45 Q-22.1 -14.45 -20.6 -14.75 -19.0 -15.05 -18.0 -14.35 -16.85 -13.55 -16.95 -11.7 L-18.05 -7.7 Q-19.05 -6.25 -20.5 -5.85 -21.8 -5.5 -23.0 -6.1 -24.15 -6.7 -24.75 -7.95 -25.35 -9.35 -25.0 -11.05 -24.7 -12.4 -23.35 -13.45" fill="#ffe3bd" fill-rule="evenodd" stroke="none"/>
    <path d="M-22.05 -12.4 Q-21.25 -13.0 -20.3 -13.2 L-18.7 -12.95 Q-18.0 -12.45 -18.05 -11.35 L-18.75 -8.85 Q-19.35 -7.95 -20.25 -7.7 L-21.8 -7.85 Q-22.5 -8.25 -22.85 -9.0 -23.25 -9.85 -23.05 -10.9 -22.85 -11.75 -22.05 -12.4" fill="#ff9a60" fill-rule="evenodd" stroke="none"/>
    <path d="M5.25 -25.5 Q7.6 -24.95 9.1 -24.15 12.8 -23.3 14.7 -20.2 L16.3 -17.05 18.0 -13.5 Q19.7 -10.4 19.95 -6.65 20.2 -3.15 19.15 0.45 17.15 7.5 9.7 10.5 3.45 13.05 -4.4 12.0 -11.65 11.1 -16.4 6.65 -21.65 1.75 -21.1 -5.35 -20.6 -11.85 -15.25 -17.65 -10.2 -23.2 -3.45 -25.3 0.6 -26.55 5.25 -25.5" fill="#ffca9a" fill-rule="evenodd" stroke="none"/>
    <path d="M3.35 -25.25 Q5.5 -24.75 6.9 -23.95 10.3 -23.1 12.1 -20.0 L13.5 -16.85 15.1 -13.3 Q16.65 -10.25 16.85 -6.45 17.1 -2.95 16.15 0.65 14.3 7.65 7.45 10.3 1.9 12.5 -5.45 11.45 -12.25 10.5 -16.5 6.45 -21.3 1.85 -20.8 -5.15 -20.35 -11.65 -15.45 -17.45 -10.8 -23.0 -4.6 -25.1 -0.9 -26.35 3.35 -25.25" fill="#ffe3bd" fill-rule="evenodd" stroke="none"/>
    <path d="M-4.05 -13.4 Q-4.05 -12.8 -4.45 -12.8 -4.85 -12.8 -4.85 -13.4 -4.85 -14.0 -4.45 -14.0 -4.05 -14.0 -4.05 -13.4" fill="#2d0a18" fill-rule="evenodd" stroke="none"/>
    <path d="M10.7 -13.0 Q11.85 -12.5 12.25 -11.6 11.1 -12.7 9.45 -12.8 7.95 -12.9 6.45 -12.1 5.0 -11.35 4.1 -10.05 3.2 -8.65 3.3 -7.1 3.4 -5.6 4.5 -4.3 5.6 -3.1 7.1 -2.65 L8.4 -2.65 9.55 -2.55 Q9.85 -2.3 10.2 -0.25 L10.7 2.25 8.25 -1.35 3.55 -3.1 Q2.8 -3.4 2.1 -4.4 1.35 -5.55 1.15 -6.85 0.7 -10.35 4.65 -12.25 8.4 -14.05 10.7 -13.0" fill="#ffca9a" fill-rule="evenodd" stroke="none"/>
    <path d="M-13.95 -13.1 Q-11.65 -14.15 -7.9 -12.3 -3.95 -10.4 -4.4 -6.9 -4.6 -5.6 -5.35 -4.45 -6.05 -3.45 -6.8 -3.15 L-11.5 -1.4 -13.95 2.2 -13.45 -0.3 Q-13.1 -2.35 -12.8 -2.6 L-11.65 -2.7 -10.35 -2.7 Q-8.85 -3.15 -7.75 -4.4 -6.65 -5.65 -6.55 -7.15 -6.45 -8.7 -7.35 -10.1 -8.25 -11.4 -9.7 -12.15 -11.2 -12.95 -12.7 -12.85 -14.35 -12.75 -15.5 -11.65 L-15.15 -12.15 -13.95 -13.1" fill="#ffca9a" fill-rule="evenodd" stroke="none"/>
    <path d="M-2.55 -2.55 Q-5.05 -2.85 -6.55 -3.9 -8.35 -5.2 -8.2 -7.45 -8.1 -9.5 -5.6 -10.95 -3.3 -12.4 -1.1 -12.15 0.75 -11.75 2.7 -9.55 4.75 -7.2 4.3 -5.6 3.7 -3.7 1.45 -2.9 L-2.55 -2.55" fill="#ff791e" fill-rule="evenodd" stroke="none"/>
    <path d="M-2.8 -3.35 Q-5.55 -3.8 -6.4 -4.2 -8.3 -5.15 -8.2 -7.25 -8.1 -9.25 -5.7 -10.85 -3.45 -12.4 -1.7 -12.15 -0.2 -11.75 1.4 -9.85 3.2 -7.8 2.85 -6.25 2.4 -4.35 0.45 -3.65 L-2.8 -3.35" fill="#ff9a00" fill-rule="evenodd" stroke="none"/>
    <path d="M23.35 -4.75 Q22.8 -3.45 21.6 -2.85 L19.1 -2.65 Q17.7 -3.05 16.7 -4.45 L15.55 -8.5 Q15.5 -10.35 16.6 -11.1 17.6 -11.8 19.2 -11.5 20.75 -11.25 22.0 -10.25 23.35 -9.15 23.6 -7.8 24.0 -6.15 23.35 -4.75" fill="#ffe3bd" fill-rule="evenodd" stroke="none"/>
    <path d="M21.65 -7.7 Q21.9 -6.65 21.5 -5.8 21.15 -5.0 20.4 -4.65 L18.85 -4.5 Q18.0 -4.75 17.35 -5.6 L16.7 -8.1 Q16.65 -9.25 17.35 -9.75 L18.95 -9.95 20.65 -9.2 Q21.45 -8.5 21.65 -7.7" fill="#ff9a60" fill-rule="evenodd" stroke="none"/>
    <path d="M-3.5 -18.85 Q-3.65 -18.3 -5.6 -18.85 -7.45 -19.3 -8.0 -20.05 -7.85 -20.7 -7.05 -20.8 L-5.55 -20.6 -4.1 -19.85 Q-3.5 -19.35 -3.5 -18.85" fill="#2d0a18" fill-rule="evenodd" stroke="none"/>
    <path d="M2.3 -12.65 Q2.3 -13.2 2.7 -13.2 3.1 -13.2 3.1 -12.65 3.1 -12.05 2.7 -12.05 2.3 -12.05 2.3 -12.65" fill="#2d0a18" fill-rule="evenodd" stroke="none"/>
    <path d="M4.6 -18.6 Q4.65 -19.05 5.4 -19.35 L7.0 -19.75 8.55 -19.5 Q9.25 -19.15 9.25 -18.5 8.55 -17.95 6.6 -18.0 4.6 -18.0 4.6 -18.6" fill="#2d0a18" fill-rule="evenodd" stroke="none"/>
    <path d="M6.05 -21.6 Q3.4 -21.05 2.0 -19.05 1.55 -19.6 1.0 -19.5 L-0.3 -18.7 Q-0.55 -21.15 -0.15 -24.3 -2.35 -24.6 -5.55 -23.3 -8.3 -22.25 -10.45 -20.6 -12.0 -19.4 -13.9 -15.95 L-15.4 -13.45 Q-16.3 -12.15 -17.25 -11.4 L-18.05 -13.15 Q-18.3 -14.15 -17.95 -15.25 -17.2 -17.65 -15.1 -19.9 -13.0 -22.15 -9.95 -23.75 -3.15 -27.35 4.6 -26.4 11.3 -25.55 15.2 -18.3 17.15 -14.65 17.8 -11.2 L16.65 -10.55 16.2 -12.15 14.5 -11.1 Q14.45 -13.75 13.7 -16.25 12.75 -19.4 11.1 -20.6 8.9 -22.15 6.05 -21.6" fill="#ffca9a" fill-rule="evenodd" stroke="none"/>
    <path d="M-1.2 -22.8 Q-1.05 -24.9 1.05 -25.5 L7.3 -23.7 Q5.85 -23.25 4.35 -22.05 L1.7 -19.95 1.25 -20.55 Q0.95 -20.95 0.95 -21.4 -0.3 -20.95 -0.4 -19.15 -1.3 -21.25 -1.2 -22.8" fill="#5d0304" fill-rule="evenodd" stroke="none"/>
    <path d="M8.1 -23.1 L9.7 -25.25 Q11.75 -24.8 13.9 -22.45 L17.1 -18.3 Q18.45 -16.35 18.8 -14.2 19.25 -11.3 16.8 -11.05 L16.55 -12.65 15.95 -14.0 15.4 -13.2 14.9 -12.4 Q15.25 -15.7 13.25 -18.9 11.2 -22.2 8.1 -23.1" fill="#5d0304" fill-rule="evenodd" stroke="none"/>
    <path d="M0.15 -26.95 L2.6 -25.5 -3.55 -24.55 Q-8.4 -23.4 -9.5 -22.5 L-11.95 -20.5 Q-13.35 -19.2 -14.35 -17.45 L-15.65 -14.75 Q-16.55 -12.9 -17.4 -12.6 L-17.15 -13.4 -16.95 -14.25 -17.75 -14.35 -18.55 -14.4 Q-17.85 -17.25 -15.45 -20.4 -13.05 -23.55 -10.5 -24.85 -8.0 -26.15 -5.3 -26.85 -1.85 -27.7 0.15 -26.95" fill="#5d0304" fill-rule="evenodd" stroke="none"/>
    <path d="M0.45 -34.7 Q-1.25 -35.7 -1.05 -37.4 -0.9 -38.9 0.55 -39.95 2.05 -41.0 3.65 -40.4 5.5 -39.75 6.6 -36.95 7.15 -37.8 8.15 -38.45 9.15 -39.05 10.25 -39.15 L12.3 -38.85 Q13.25 -38.35 13.65 -37.25 14.35 -35.35 13.3 -33.75 12.2 -32.1 10.15 -32.15 L10.05 -28.3 9.7 -24.6 Q9.3 -23.0 7.2 -22.45 L3.4 -22.25 Q0.9 -22.45 -0.95 -23.7 -3.1 -25.1 -2.2 -26.9 -0.15 -30.9 0.45 -34.7" fill="#f90203" fill-rule="evenodd" stroke="none"/>
    <path d="M11.5 -10.8 Q13.75 -10.4 14.6 -8.85 14.95 -8.2 14.9 -7.6 14.85 -6.95 14.4 -6.6 13.65 -5.85 11.7 -5.8 L8.85 -6.1 Q7.7 -6.45 7.35 -7.25 7.1 -8.0 7.6 -8.9 8.1 -9.8 9.1 -10.3 10.2 -10.9 11.5 -10.8" fill="#fca48c" fill-rule="evenodd" stroke="none"/>
    <path d="M-11.55 -9.05 Q-11.2 -8.45 -11.25 -7.8 -11.3 -7.2 -11.7 -6.8 -12.45 -6.1 -14.4 -6.05 L-17.25 -6.35 Q-18.45 -6.65 -18.75 -7.5 -19.05 -8.25 -18.55 -9.1 -18.05 -10.0 -17.05 -10.55 -15.9 -11.15 -14.6 -11.0 -12.4 -10.6 -11.55 -9.05" fill="#fca48c" fill-rule="evenodd" stroke="none"/>
    <path d="M1.95 -40.3 Q3.15 -41.2 4.75 -39.85 6.0 -38.8 6.75 -37.3 7.05 -37.7 8.2 -38.3 L9.75 -38.85 Q8.8 -38.6 7.3 -37.15 L5.4 -34.85 Q5.45 -36.75 4.7 -38.2 3.75 -39.95 1.95 -40.3" fill="#ca0002" fill-rule="evenodd" stroke="none"/>
    <path d="M6.4 -31.6 L8.4 -31.5 10.25 -32.15 Q10.55 -31.45 10.25 -28.45 L9.85 -24.65 Q9.85 -24.2 9.35 -23.65 8.65 -22.85 7.6 -22.65 L8.55 -24.3 Q9.05 -25.65 9.15 -27.0 9.35 -30.65 6.4 -31.6" fill="#ca0002" fill-rule="evenodd" stroke="none"/>
    <path d="M-0.05 -27.55 L0.1 -27.45 0.15 -27.25 0.1 -26.9 0.05 -26.55 -0.1 -26.55 -0.3 -26.6 -0.25 -27.1 -0.25 -27.2 -0.3 -27.25 -0.9 -27.25 -0.95 -27.45 -0.85 -27.65 -0.05 -27.55 M-0.55 -26.95 L-0.55 -26.3 -0.05 -26.15 -0.05 -25.95 -0.2 -25.85 -0.45 -25.9 -0.65 -25.95 -1.0 -26.0 -1.4 -26.05 -1.45 -26.2 -1.45 -26.35 -1.2 -26.35 -0.9 -26.35 -0.9 -26.7 -0.9 -26.95 -0.7 -27.0 -0.55 -26.95" fill="#ffffff" fill-rule="evenodd" stroke="none"/>
    <path d="M1.85 -26.9 L1.8 -26.75 1.65 -26.65 1.5 -26.7 1.45 -26.8 1.35 -27.05 1.35 -27.2 1.4 -27.35 1.55 -27.4 1.7 -27.2 1.75 -27.0 1.85 -26.9 M2.05 -26.25 L1.95 -26.1 1.75 -26.1 1.55 -26.1 1.35 -26.15 1.1 -26.2 0.6 -26.25 0.5 -26.45 0.7 -26.6 1.95 -26.45 2.05 -26.25 M1.0 -25.35 L1.1 -25.45 1.2 -25.55 1.2 -25.65 1.1 -25.65 1.0 -25.55 0.9 -25.45 0.9 -25.35 1.0 -25.35 M0.75 -25.8 L1.2 -26.05 Q1.4 -26.05 1.45 -25.9 L1.55 -25.65 1.35 -25.15 0.9 -24.9 0.6 -25.1 0.55 -25.35 0.75 -25.8 M2.0 -24.3 L2.15 -24.4 2.25 -24.55 2.25 -24.6 2.15 -24.6 2.05 -24.55 1.95 -24.45 1.95 -24.35 2.0 -24.3 M1.85 -24.85 L2.3 -25.0 2.55 -24.8 2.65 -24.5 2.35 -24.1 Q2.15 -23.85 1.9 -23.9 L1.6 -24.1 1.6 -24.35 1.85 -24.85 M3.15 -26.55 L3.2 -26.35 3.15 -26.15 Q3.05 -26.15 3.05 -26.2 L2.8 -26.2 2.8 -26.1 2.8 -26.0 3.1 -25.95 3.2 -25.75 3.1 -25.55 2.9 -25.6 2.75 -25.6 2.7 -25.5 2.7 -25.35 2.5 -25.3 2.35 -25.45 2.55 -26.9 2.75 -26.95 2.9 -26.85 2.9 -26.6 3.0 -26.55 3.15 -26.55" fill="#ffffff" fill-rule="evenodd" stroke="none"/>
    <path d="M5.95 -26.35 L5.95 -26.15 5.9 -25.95 5.9 -25.9 6.1 -25.85 6.35 -25.75 6.3 -25.6 6.25 -25.45 5.85 -25.5 5.75 -25.05 5.55 -25.05 5.45 -25.15 5.45 -25.25 5.45 -25.35 5.6 -26.35 5.8 -26.4 5.95 -26.35 M4.8 -26.3 L4.85 -26.1 4.75 -25.5 4.65 -25.3 4.45 -25.25 3.9 -25.3 3.65 -25.35 3.6 -25.6 3.65 -25.9 3.65 -26.3 3.8 -26.4 3.95 -26.4 4.65 -26.4 4.8 -26.3 M4.45 -26.0 L4.3 -26.05 4.05 -26.05 4.0 -25.65 4.15 -25.65 4.35 -25.65 4.4 -25.65 4.4 -25.7 4.45 -25.85 4.45 -26.0 M4.55 -25.0 L4.7 -24.9 4.6 -24.35 4.6 -24.3 4.65 -24.3 4.95 -24.25 5.3 -24.2 5.3 -24.0 5.2 -23.85 4.65 -23.9 4.4 -23.95 4.25 -24.0 4.2 -24.15 4.25 -24.65 4.35 -25.0 4.55 -25.0" fill="#ffffff" fill-rule="evenodd" stroke="none"/>
    <path d="M8.15 -26.35 L7.3 -26.45 7.25 -25.95 8.2 -25.8 8.2 -25.55 8.05 -25.45 7.2 -25.55 6.9 -25.65 6.85 -25.9 6.9 -26.25 6.95 -26.6 7.0 -26.8 7.2 -26.85 7.7 -26.8 8.25 -26.75 8.3 -26.55 8.15 -26.35 M6.8 -25.15 L8.15 -24.95 8.15 -24.75 8.15 -24.6 8.05 -24.6 7.7 -24.65 7.65 -24.1 7.45 -24.05 Q7.3 -24.0 7.25 -24.15 L7.3 -24.45 7.3 -24.7 6.75 -24.75 6.65 -24.95 6.8 -25.15" fill="#ffffff" fill-rule="evenodd" stroke="none"/>
    <path d="M5.45 8.3 L5.4 8.55 5.25 8.6 1.45 6.35 Q-1.55 4.3 -3.75 5.35 L-3.85 5.4 -3.9 5.4 -3.9 5.45 -4.0 5.45 -5.5 6.25 Q-4.9 4.85 -3.95 4.15 -3.05 3.45 -2.45 3.2 1.5 3.6 3.1 6.25 4.65 8.95 5.45 8.3" fill="#c10000" fill-rule="evenodd" stroke="none"/>
    <path d="M-5.5 6.25 L-6.8 7.2 Q-7.75 8.0 -8.3 7.85 -6.15 1.0 -2.15 0.8 1.9 0.6 3.95 4.65 5.4 7.5 5.45 8.3 4.65 8.95 3.1 6.25 1.5 3.6 -2.45 3.2 -3.05 3.45 -3.95 4.15 -4.9 4.85 -5.5 6.25" fill="#5d0406" fill-rule="evenodd" stroke="none"/>
  </g>
</svg>
