<?xml version="1.0" encoding="UTF-8" standalone="no"?>
<svg xmlns:ffdec="https://www.free-decompiler.com/flash" xmlns:xlink="http://www.w3.org/1999/xlink" ffdec:objectType="shape" height="39.45px" width="140.3px" xmlns="http://www.w3.org/2000/svg">
  <g transform="matrix(1.0, 0.0, 0.0, 1.0, 70.25, 18.0)">
    <path d="M52.95 -17.95 L52.95 -18.0 61.6 -17.95 64.15 -17.6 65.1 -17.2 65.35 -17.05 65.9 -16.75 66.8 -16.1 67.35 -15.55 67.5 -15.4 67.55 -15.35 68.2 -14.7 Q70.05 -12.4 70.05 -9.25 L70.05 12.75 69.95 14.4 69.75 15.15 69.7 15.3 Q69.1 17.35 67.55 19.0 L67.5 19.0 66.75 19.7 Q64.9 21.15 62.6 21.4 L61.6 21.45 53.4 21.45 52.95 21.45 -61.85 21.45 -64.7 20.95 Q-65.55 20.65 -66.25 20.15 L-66.95 19.7 -67.4 19.35 -67.65 19.0 -67.7 19.0 -67.8 19.0 -68.55 18.05 Q-69.5 16.75 -69.9 15.3 -70.25 14.1 -70.25 12.75 L-70.25 -9.25 Q-70.25 -12.2 -68.55 -14.45 L-67.8 -15.35 -67.7 -15.4 -67.55 -15.55 Q-66.6 -16.5 -65.55 -17.05 -63.9 -17.95 -61.85 -17.95 L52.95 -17.95" fill="#ffff66" fill-rule="evenodd" stroke="none"/>
  </g>
</svg>
