<?xml version="1.0" encoding="UTF-8" standalone="no"?>
<svg xmlns:ffdec="https://www.free-decompiler.com/flash" xmlns:xlink="http://www.w3.org/1999/xlink" ffdec:objectType="shape" height="72.55px" width="117.8px" xmlns="http://www.w3.org/2000/svg">
  <g transform="matrix(1.0, 0.0, 0.0, 1.0, 54.8, 30.0)">
    <path d="M14.45 -27.3 L14.75 -27.65 Q15.15 -27.2 14.45 -27.3 M63.0 18.0 L62.5 17.15 62.9 17.1 62.95 17.3 63.0 18.0 M28.45 40.8 L30.2 40.75 32.4 40.85 34.3 40.7 35.35 40.55 34.5 41.15 33.3 42.1 32.75 42.3 Q31.5 42.95 30.25 42.0 L28.45 40.8 M36.6 40.9 Q36.9 40.7 37.25 40.65 37.75 40.25 39.05 40.65 40.7 41.2 38.7 41.45 L35.95 41.55 36.6 40.9" fill="#f8d981" fill-rule="evenodd" stroke="none"/>
    <path d="M14.75 -27.65 L14.45 -27.3 12.05 -28.65 10.6 -29.55 11.95 -29.95 Q13.0 -30.25 13.65 -29.2 L14.75 -27.65 M-43.45 -26.0 L-39.5 -25.55 -37.3 -25.25 -34.95 -25.15 Q-34.25 -25.15 -34.35 -25.65 L-34.45 -26.05 Q-42.55 -29.95 -48.45 -26.7 -48.05 -26.35 -47.35 -26.25 L-46.25 -26.2 -43.45 -26.0 M-44.65 -23.2 L-50.2 -23.15 Q-55.9 -22.65 -54.5 -24.9 -50.8 -31.25 -37.9 -29.45 -33.65 -28.25 -29.65 -26.3 -31.25 -24.55 -25.25 -21.6 -35.0 -23.9 -44.65 -23.2" fill="#ffffff" fill-rule="evenodd" stroke="none"/>
  </g>
</svg>
