<?xml version="1.0" encoding="UTF-8" standalone="no"?>
<svg xmlns:ffdec="https://www.free-decompiler.com/flash" xmlns:xlink="http://www.w3.org/1999/xlink" ffdec:objectType="shape" height="81.95px" width="112.5px" xmlns="http://www.w3.org/2000/svg">
  <g transform="matrix(1.0, 0.0, 0.0, 1.0, 56.25, 41.0)">
    <path d="M10.0 -24.35 Q13.3 -24.05 6.1 -30.25 17.6 -24.7 25.6 -17.4 24.95 -16.65 28.95 -12.9 20.55 -19.05 10.0 -24.35 M54.4 13.8 Q53.65 13.7 52.75 12.8 52.0 12.05 52.05 11.55 52.1 11.2 52.3 11.15 53.5 11.6 54.1 13.0 L54.4 13.8 M56.25 25.1 Q56.35 27.5 55.2 30.6 L53.7 32.7 Q56.4 26.7 54.5 21.7 55.8 22.5 56.25 25.1 M53.35 19.05 Q52.5 15.4 51.15 12.9 52.75 13.3 54.15 17.1 L54.2 17.4 54.4 18.6 54.0 18.65 53.75 18.4 53.35 19.05 M-40.65 -40.75 L-30.9 -40.2 Q-29.45 -38.85 -25.2 -37.0 -33.1 -39.75 -40.65 -40.75 M33.8 36.6 Q41.8 34.65 37.85 28.15 18.65 5.7 -22.2 -7.2 -41.85 -12.85 -52.0 -12.75 L-56.25 -13.6 Q-39.35 -19.45 -15.55 -14.3 -22.65 -18.8 -31.5 -21.9 -23.6 -22.4 -13.65 -19.9 -22.1 -23.95 -39.2 -29.6 -30.45 -31.4 -16.75 -27.8 -25.95 -32.65 -51.4 -40.45 30.4 -27.25 51.1 16.0 53.3 20.6 53.8 24.6 54.85 38.75 38.2 40.45 23.6 41.8 16.1 39.35 22.75 39.8 27.15 37.95 L27.1 37.45 33.8 36.6" fill="#ffffff" fill-rule="evenodd" stroke="none"/>
  </g>
</svg>
