<?xml version="1.0" encoding="UTF-8" standalone="no"?>
<svg xmlns:ffdec="https://www.free-decompiler.com/flash" xmlns:xlink="http://www.w3.org/1999/xlink" ffdec:objectType="shape" height="51.25px" width="112.2px" xmlns="http://www.w3.org/2000/svg">
  <g transform="matrix(1.0, 0.0, 0.0, 1.0, 56.1, 25.6)">
    <path d="M-48.95 -17.3 Q-48.55 -19.2 -41.2 -21.1 L-32.7 -19.75 Q-42.0 -20.05 -48.95 -17.3 M-5.25 -20.05 Q35.6 -7.15 54.8 15.3 58.75 21.8 50.75 23.75 L44.05 24.6 44.1 25.1 Q35.0 26.45 29.0 24.5 L27.95 24.1 29.15 24.1 29.6 24.05 Q36.05 23.8 39.1 21.65 25.95 23.05 26.65 21.7 L38.3 20.45 Q43.5 19.85 41.2 16.9 -12.25 -15.5 -56.1 -7.3 -50.9 -9.55 -43.65 -11.15 -27.15 -14.85 -8.65 -11.85 -24.55 -17.75 -41.75 -16.15 -25.95 -20.55 -5.35 -15.9 -19.8 -22.3 -35.05 -25.6 -24.9 -25.7 -5.25 -20.05 M-24.9 -6.85 L-22.15 -6.3 -19.6 -5.8 Q-18.15 -5.65 -17.2 -4.85 L-19.2 -4.9 -21.85 -4.85 Q-22.5 -4.85 -22.9 -5.45 L-23.35 -5.8 -24.9 -6.85 M36.0 16.8 Q36.05 17.35 36.65 17.6 L38.1 17.9 38.8 17.75 Q38.6 18.15 38.0 18.4 37.25 18.75 37.75 19.1 L35.05 19.45 32.35 19.15 31.9 19.0 32.95 18.8 34.7 18.05 36.0 16.8" fill="#f8d981" fill-rule="evenodd" stroke="none"/>
    <path d="M-9.75 -3.0 Q5.9 1.0 20.7 8.25 L13.95 6.4 20.55 10.3 Q3.9 3.95 -13.6 -0.45 -9.35 -1.15 -5.3 0.3 -6.25 -1.65 -9.75 -3.0" fill="#fbeab9" fill-rule="evenodd" stroke="none"/>
  </g>
</svg>
