<?xml version="1.0" encoding="UTF-8" standalone="no"?>
<svg xmlns:ffdec="https://www.free-decompiler.com/flash" xmlns:xlink="http://www.w3.org/1999/xlink" ffdec:objectType="shape" height="107.5px" width="149.25px" xmlns="http://www.w3.org/2000/svg">
  <g transform="matrix(1.0, 0.0, 0.0, 1.0, 76.6, 61.05)">
    <path d="M2.95 -60.55 Q17.35 -59.45 23.6 -56.2 45.25 -47.95 51.1 -44.6 66.2 -36.0 70.45 -23.2 74.45 -11.15 71.2 1.45 68.3 12.9 59.9 23.05 52.05 32.65 41.25 38.85 30.5 45.1 19.95 46.05 10.45 46.9 -1.75 46.0 -14.85 45.05 -23.2 42.5 -44.55 36.05 -57.2 29.85 -68.1 24.5 -73.05 13.65 -77.5 3.8 -76.35 -8.75 -75.25 -20.75 -69.4 -31.95 -63.45 -43.35 -54.45 -50.35 -47.3 -55.9 -37.15 -58.4 -29.85 -60.2 -18.3 -60.85 -8.0 -61.4 2.95 -60.55" fill="#ffffff" fill-rule="evenodd" stroke="none"/>
    <path d="M2.0 -58.9 Q15.95 -57.85 22.0 -54.9 43.0 -47.3 48.75 -44.25 63.4 -36.35 67.5 -24.6 71.35 -13.55 68.25 -1.95 65.4 8.55 57.25 17.9 49.6 26.75 39.15 32.45 28.65 38.15 18.45 39.05 9.2 39.85 -2.6 39.0 -15.3 38.15 -23.4 35.8 -44.5 29.7 -56.45 24.15 -67.05 19.25 -71.85 9.3 -76.15 0.25 -75.05 -11.35 -73.95 -22.35 -68.25 -32.65 -62.5 -43.1 -53.75 -49.55 -42.35 -57.95 -18.65 -59.2 -8.7 -59.7 2.0 -58.9" fill="#f2f9fb" fill-rule="evenodd" stroke="none"/>
  </g>
</svg>
