<?xml version="1.0" encoding="UTF-8" standalone="no"?>
<svg xmlns:ffdec="https://www.free-decompiler.com/flash" xmlns:xlink="http://www.w3.org/1999/xlink" ffdec:objectType="shape" height="282.4px" width="121.6px" xmlns="http://www.w3.org/2000/svg">
  <g transform="matrix(1.0, 0.0, 0.0, 1.0, 197.5, 138.8)">
    <path d="M-143.7 -137.5 Q-142.8 -137.5 -142.75 -137.15 L-142.55 -133.5 -142.45 -133.35 -140.9 -133.3 -139.6 -133.6 Q-139.15 -133.45 -139.0 -132.7 -138.9 -131.85 -139.2 -131.75 L-140.35 -131.5 -142.2 -131.4 -142.3 -131.15 -142.2 -127.6 Q-142.2 -127.1 -143.15 -127.05 -144.25 -127.05 -144.3 -127.45 L-144.75 -137.05 Q-144.65 -137.5 -143.7 -137.5 M-150.5 -137.45 Q-150.6 -136.7 -150.85 -136.6 L-157.6 -136.4 Q-158.05 -136.6 -158.0 -137.4 -158.0 -138.15 -157.8 -138.3 L-150.85 -138.5 Q-150.35 -138.15 -150.5 -137.45 M-118.75 -135.9 Q-119.1 -133.2 -118.75 -133.05 L-117.55 -132.85 -116.2 -132.65 Q-115.45 -132.35 -115.7 -131.65 L-116.1 -130.85 -117.2 -130.95 -119.0 -131.0 Q-119.2 -131.0 -119.2 -128.65 L-116.0 -128.35 Q-115.5 -127.95 -115.5 -127.3 -115.6 -126.7 -116.0 -126.4 L-117.75 -126.55 -119.15 -126.5 -119.3 -125.15 -119.3 -123.95 Q-119.55 -123.4 -120.45 -123.5 -121.35 -123.7 -121.35 -124.05 L-121.15 -128.95 -120.85 -136.0 -119.8 -136.35 Q-119.05 -136.35 -118.75 -135.9 M-129.9 -138.8 Q-129.4 -138.8 -128.9 -137.6 L-127.95 -135.8 -127.55 -135.35 Q-127.4 -135.05 -127.55 -134.5 -127.75 -133.95 -128.45 -133.95 L-129.15 -134.25 -129.85 -134.9 -130.6 -136.5 -130.95 -137.8 -130.6 -138.5 Q-130.35 -138.8 -129.9 -138.8 M-125.75 -129.65 L-127.3 -129.5 -128.8 -129.6 -130.65 -129.8 -134.45 -129.95 -136.3 -129.95 Q-136.95 -130.2 -136.95 -131.05 -136.95 -131.9 -135.95 -131.85 L-125.75 -131.6 Q-125.3 -131.5 -125.25 -130.6 -125.1 -129.7 -125.75 -129.65 M-133.4 -123.6 L-133.4 -123.3 -133.15 -123.2 Q-132.15 -123.35 -131.7 -124.15 -131.2 -124.95 -131.15 -125.6 L-131.25 -125.9 -131.55 -125.9 Q-132.2 -125.75 -132.8 -124.95 -133.45 -124.25 -133.4 -123.6 M-134.05 -126.45 Q-132.75 -127.95 -131.2 -127.9 -130.1 -127.95 -129.6 -127.25 -129.15 -126.6 -129.1 -125.7 -129.1 -124.1 -130.5 -122.65 -131.9 -121.15 -133.35 -121.1 -134.65 -121.1 -134.95 -122.0 -135.35 -122.85 -135.35 -123.45 -135.35 -125.0 -134.05 -126.45 M-120.1 -118.0 Q-120.3 -116.9 -121.55 -115.25 -122.85 -113.5 -124.25 -113.5 -125.75 -113.5 -126.1 -114.45 -126.45 -115.55 -126.4 -116.15 -126.4 -117.95 -125.15 -119.25 -123.8 -120.65 -122.4 -120.65 -121.45 -120.65 -120.65 -119.7 -119.95 -118.7 -120.1 -118.0 M-123.95 -117.6 Q-124.6 -116.7 -124.6 -115.95 L-124.55 -115.65 Q-124.4 -115.45 -124.2 -115.4 -123.55 -115.45 -122.9 -116.4 -122.25 -117.45 -122.2 -117.95 L-122.2 -118.25 -122.45 -118.5 Q-123.3 -118.5 -123.95 -117.6 M-150.15 -132.8 Q-150.3 -132.1 -150.55 -131.95 L-153.55 -131.85 -156.5 -131.65 -156.6 -131.45 -156.5 -128.3 -156.35 -127.95 -155.9 -127.85 -152.9 -127.85 -150.15 -127.65 Q-149.85 -127.65 -149.95 -126.8 -149.95 -126.0 -150.35 -125.8 L-153.1 -126.0 -156.35 -126.0 Q-157.45 -125.9 -157.9 -126.4 -158.35 -126.8 -158.45 -127.45 L-158.7 -132.1 -158.3 -133.15 Q-157.85 -133.65 -156.95 -133.65 L-150.4 -133.8 Q-150.1 -133.45 -150.15 -132.8 M-76.4 -129.5 Q-76.5 -128.6 -77.15 -128.6 L-80.65 -128.65 -83.95 -128.75 -84.4 -128.7 -84.55 -128.45 -84.7 -126.25 -84.75 -124.05 -84.7 -123.6 Q-84.6 -123.45 -84.3 -123.45 L-80.5 -123.25 -76.5 -123.05 Q-76.1 -122.25 -76.35 -121.6 -76.7 -120.95 -77.15 -120.9 L-80.6 -121.1 -84.15 -121.3 -86.15 -121.6 Q-86.65 -121.9 -86.75 -123.2 L-86.7 -126.35 -86.65 -129.0 Q-86.85 -129.7 -86.55 -130.25 -86.25 -130.75 -85.35 -130.75 L-81.3 -130.75 -76.75 -130.55 Q-76.4 -130.4 -76.4 -129.5 M-95.6 -131.15 L-95.8 -128.95 Q-96.0 -128.35 -95.8 -128.3 L-94.05 -128.1 Q-92.55 -128.0 -92.05 -127.5 -91.9 -127.2 -92.0 -126.65 L-92.4 -125.8 -94.05 -126.0 -95.4 -126.1 -95.75 -126.0 -95.85 -125.8 -95.9 -123.95 -96.25 -121.7 -97.2 -121.8 Q-97.6 -121.8 -98.0 -122.1 L-98.05 -123.05 -97.85 -124.75 -97.85 -128.4 -97.65 -130.65 -97.65 -132.25 -96.65 -132.55 -95.75 -132.3 Q-95.6 -131.9 -95.6 -131.15 M-87.1 -117.05 L-76.15 -116.7 Q-75.8 -116.55 -75.9 -115.6 -75.95 -114.7 -76.35 -114.7 L-79.45 -114.9 -79.75 -114.7 -79.95 -114.4 -80.0 -112.35 -80.0 -109.9 Q-80.0 -109.65 -80.95 -109.55 -81.9 -109.4 -82.0 -110.0 L-82.0 -114.45 -82.15 -114.75 -82.45 -115.0 -87.2 -115.0 Q-87.85 -115.1 -87.75 -116.1 -87.8 -117.1 -87.1 -117.05 M-104.55 -131.1 Q-104.25 -130.5 -104.25 -129.95 L-104.7 -125.05 Q-104.75 -124.35 -105.05 -123.95 -105.5 -123.6 -106.3 -123.45 L-111.15 -123.2 Q-112.1 -123.2 -112.55 -123.55 -113.05 -123.9 -113.05 -124.75 L-112.85 -127.5 Q-112.75 -128.95 -113.0 -130.25 -112.8 -130.9 -112.3 -131.15 L-111.2 -131.5 -105.6 -131.65 Q-104.8 -131.65 -104.55 -131.1 M-106.9 -129.65 L-110.35 -129.5 -110.65 -129.4 -110.8 -129.05 -110.9 -127.55 -111.1 -125.85 -111.0 -125.4 Q-110.9 -125.25 -110.75 -125.25 L-108.95 -125.3 -107.05 -125.4 -106.7 -125.6 -106.45 -128.9 -106.55 -129.55 -106.9 -129.65 M-107.35 -114.0 L-107.4 -117.75 -106.95 -120.5 -105.95 -120.6 Q-105.35 -120.6 -105.05 -120.15 L-105.35 -115.55 -105.25 -114.9 -104.65 -114.7 -101.7 -114.7 -100.5 -114.65 -99.15 -114.5 Q-98.95 -114.05 -99.1 -113.45 -99.3 -112.8 -99.6 -112.65 L-102.9 -112.65 -104.05 -112.55 -105.9 -112.65 Q-106.6 -112.8 -106.9 -113.05 L-107.35 -114.0" fill="#663300" fill-rule="evenodd" stroke="none"/>
    <path d="M-186.65 141.5 L-190.25 139.65 -191.5 137.25 -176.65 116.6 -175.35 118.9 -186.65 141.5" fill="#eea34d" fill-rule="evenodd" stroke="none"/>
    <path d="M-187.85 139.05 L-191.5 137.25 -180.2 114.65 -176.6 116.5 -187.85 139.05" fill="#eeac30" fill-rule="evenodd" stroke="none"/>
    <path d="M-150.6 142.35 L-161.45 119.55 -160.1 117.25 -145.65 138.2 -146.9 140.6 -150.6 142.35" fill="#eea34d" fill-rule="evenodd" stroke="none"/>
    <path d="M-149.35 139.95 L-160.15 117.15 -156.5 115.4 -145.65 138.2 -149.35 139.95" fill="#eeac30" fill-rule="evenodd" stroke="none"/>
    <path d="M-166.15 117.35 Q-162.95 116.35 -162.4 124.8 -162.2 127.55 -163.0 129.95 -164.2 133.4 -164.4 134.85 -165.05 139.35 -162.25 142.45 -172.65 144.45 -173.75 142.95 -175.75 140.3 -176.25 136.5 -176.8 131.85 -174.85 127.4 -173.1 123.35 -174.95 118.85 L-174.85 118.7 Q-172.05 119.3 -166.15 117.35" fill="#0860a8" fill-rule="evenodd" stroke="none"/>
    <path d="M-171.15 79.45 Q-163.05 79.45 -157.35 85.15 -151.65 90.9 -151.65 98.95 -151.65 107.0 -157.35 112.7 -163.05 118.45 -171.15 118.45 -179.2 118.45 -184.9 112.7 -190.6 107.0 -190.6 98.95 -190.6 90.9 -184.9 85.15 -179.2 79.45 -171.15 79.45" fill="#fbfbda" fill-rule="evenodd" stroke="none"/>
    <path d="M-176.25 76.6 Q-176.25 79.05 -178.7 79.05 -181.15 79.05 -181.15 76.6 -181.15 74.15 -178.7 74.15 -176.25 74.15 -176.25 76.6" fill="#f99bcc" fill-rule="evenodd" stroke="none"/>
    <path d="M-181.45 76.45 Q-179.1 77.3 -179.9 79.55 -180.65 81.9 -182.95 81.15 -185.25 80.3 -184.55 78.05 -183.8 75.75 -181.45 76.45" fill="#f99bcc" fill-rule="evenodd" stroke="none"/>
    <path d="M-183.25 81.4 Q-181.75 79.4 -179.8 80.9 -177.8 82.25 -179.25 84.25 -180.75 86.3 -182.65 84.8 -184.65 83.5 -183.25 81.4" fill="#f99bcc" fill-rule="evenodd" stroke="none"/>
    <path d="M-179.05 84.6 Q-180.5 82.6 -178.55 81.2 -176.55 79.7 -175.1 81.7 -173.65 83.7 -175.6 85.1 -177.6 86.6 -179.05 84.6" fill="#f99bcc" fill-rule="evenodd" stroke="none"/>
    <path d="M-174.75 81.65 Q-177.05 82.4 -177.8 80.05 -178.6 77.7 -176.25 77.0 -173.95 76.2 -173.2 78.55 -172.4 80.9 -174.75 81.65" fill="#f99bcc" fill-rule="evenodd" stroke="none"/>
    <path d="M-178.3 82.15 Q-180.55 82.95 -181.35 80.65 -182.05 78.25 -179.8 77.5 -177.4 76.8 -176.7 79.1 -175.95 81.4 -178.3 82.15" fill="#ffcc00" fill-rule="evenodd" stroke="none"/>
    <path d="M-189.0 90.9 Q-189.0 93.35 -191.45 93.35 -193.9 93.35 -193.9 90.9 -193.9 88.45 -191.45 88.45 -189.0 88.45 -189.0 90.9" fill="#f99bcc" fill-rule="evenodd" stroke="none"/>
    <path d="M-194.25 90.75 Q-191.9 91.45 -192.65 93.8 -193.45 96.15 -195.7 95.35 -198.05 94.6 -197.3 92.3 -196.6 89.95 -194.25 90.75" fill="#f99bcc" fill-rule="evenodd" stroke="none"/>
    <path d="M-196.0 95.7 Q-194.5 93.65 -192.55 95.1 -190.65 96.55 -192.0 98.55 -193.5 100.45 -195.4 99.1 -197.4 97.65 -196.0 95.7" fill="#f99bcc" fill-rule="evenodd" stroke="none"/>
    <path d="M-191.85 98.85 Q-193.2 96.9 -191.3 95.4 -189.3 94.0 -187.85 96.0 -186.4 97.9 -188.45 99.4 -190.4 100.85 -191.85 98.85" fill="#f99bcc" fill-rule="evenodd" stroke="none"/>
    <path d="M-187.5 95.9 Q-189.85 96.65 -190.55 94.3 -191.35 91.95 -189.05 91.25 -186.65 90.5 -185.95 92.8 -185.15 95.1 -187.5 95.9" fill="#f99bcc" fill-rule="evenodd" stroke="none"/>
    <path d="M-191.05 96.45 Q-193.35 97.2 -194.1 94.85 -194.9 92.55 -192.55 91.8 -190.3 91.0 -189.45 93.35 -188.75 95.75 -191.05 96.45" fill="#ffcc00" fill-rule="evenodd" stroke="none"/>
    <path d="M-181.4 110.15 Q-181.4 112.6 -183.85 112.6 -186.3 112.6 -186.3 110.15 -186.3 107.7 -183.85 107.7 -181.4 107.7 -181.4 110.15" fill="#f99bcc" fill-rule="evenodd" stroke="none"/>
    <path d="M-189.7 111.6 Q-189.0 109.25 -186.65 110.0 -184.3 110.75 -185.05 113.05 -185.85 115.4 -188.1 114.65 -190.45 113.9 -189.7 111.6" fill="#f99bcc" fill-rule="evenodd" stroke="none"/>
    <path d="M-188.4 114.95 Q-186.9 112.9 -184.95 114.4 -183.0 115.8 -184.4 117.8 -185.9 119.8 -187.8 118.35 -189.8 116.95 -188.4 114.95" fill="#f99bcc" fill-rule="evenodd" stroke="none"/>
    <path d="M-184.25 118.1 Q-185.6 116.2 -183.7 114.7 -181.7 113.3 -180.25 115.25 -178.8 117.2 -180.85 118.7 -182.75 120.05 -184.25 118.1" fill="#f99bcc" fill-rule="evenodd" stroke="none"/>
    <path d="M-179.9 115.15 Q-182.2 115.95 -182.95 113.6 -183.75 111.25 -181.4 110.5 -179.1 109.75 -178.35 112.1 -177.55 114.4 -179.9 115.15" fill="#f99bcc" fill-rule="evenodd" stroke="none"/>
    <path d="M-183.45 115.75 Q-185.75 116.5 -186.5 114.15 -187.3 111.85 -184.95 111.1 -182.6 110.2 -181.85 112.6 -181.15 115.0 -183.45 115.75" fill="#ffcc00" fill-rule="evenodd" stroke="none"/>
    <path d="M-161.05 113.3 Q-161.05 115.75 -163.5 115.75 -165.95 115.75 -165.95 113.3 -165.95 110.85 -163.5 110.85 -161.05 110.85 -161.05 113.3" fill="#f99bcc" fill-rule="evenodd" stroke="none"/>
    <path d="M-166.25 113.1 Q-163.9 113.9 -164.7 116.2 -165.4 118.55 -167.75 117.75 -170.1 117.0 -169.35 114.7 -168.55 112.4 -166.25 113.1" fill="#f99bcc" fill-rule="evenodd" stroke="none"/>
    <path d="M-168.0 118.05 Q-166.6 116.1 -164.6 117.5 -162.6 118.95 -164.05 120.95 -165.5 122.85 -167.45 121.5 -169.4 120.0 -168.0 118.05" fill="#f99bcc" fill-rule="evenodd" stroke="none"/>
    <path d="M-163.85 121.25 Q-165.3 119.3 -163.35 117.8 -161.3 116.45 -159.9 118.4 -158.45 120.3 -160.4 121.8 -162.5 123.25 -163.85 121.25" fill="#f99bcc" fill-rule="evenodd" stroke="none"/>
    <path d="M-159.55 118.3 Q-161.9 119.05 -162.6 116.75 -163.35 114.4 -161.05 113.65 -158.75 112.85 -157.95 115.2 -157.2 117.55 -159.55 118.3" fill="#f99bcc" fill-rule="evenodd" stroke="none"/>
    <path d="M-163.05 118.85 Q-165.35 119.6 -166.15 117.25 -166.9 114.9 -164.55 114.2 -162.2 113.45 -161.5 115.8 -160.75 118.05 -163.05 118.85" fill="#ffcc00" fill-rule="evenodd" stroke="none"/>
    <path d="M-148.3 97.9 Q-148.3 100.35 -150.7 100.35 -153.15 100.35 -153.15 97.9 -153.15 95.45 -150.7 95.45 -148.3 95.45 -148.3 97.9" fill="#f99bcc" fill-rule="evenodd" stroke="none"/>
    <path d="M-153.5 97.75 Q-151.2 98.55 -151.9 100.9 -152.75 103.25 -155.0 102.4 -157.35 101.65 -156.55 99.35 -155.8 97.0 -153.5 97.75" fill="#f99bcc" fill-rule="evenodd" stroke="none"/>
    <path d="M-155.2 102.7 Q-153.8 100.8 -151.85 102.15 -149.8 103.65 -151.3 105.55 -152.7 107.5 -154.7 106.15 -156.7 104.65 -155.2 102.7" fill="#f99bcc" fill-rule="evenodd" stroke="none"/>
    <path d="M-151.1 105.95 Q-152.55 103.95 -150.6 102.5 -148.6 101.05 -147.15 103.0 -145.7 105.0 -147.65 106.45 -149.65 107.9 -151.1 105.95" fill="#f99bcc" fill-rule="evenodd" stroke="none"/>
    <path d="M-146.75 102.95 Q-149.1 103.7 -149.85 101.4 -150.6 99.1 -148.3 98.3 -146.0 97.5 -145.2 99.85 -144.5 102.15 -146.75 102.95" fill="#f99bcc" fill-rule="evenodd" stroke="none"/>
    <path d="M-150.3 103.5 Q-152.65 104.25 -153.4 101.9 -154.15 99.6 -151.8 98.85 -149.5 98.05 -148.75 100.4 -147.95 102.7 -150.3 103.5" fill="#ffcc00" fill-rule="evenodd" stroke="none"/>
    <path d="M-156.7 80.1 Q-156.7 82.55 -159.1 82.55 -161.55 82.55 -161.55 80.1 -161.55 77.7 -159.1 77.7 -156.7 77.7 -156.7 80.1" fill="#f99bcc" fill-rule="evenodd" stroke="none"/>
    <path d="M-161.9 80.0 Q-159.55 80.8 -160.3 83.1 -161.15 85.35 -163.45 84.65 -165.8 83.9 -164.95 81.55 -164.2 79.2 -161.9 80.0" fill="#f99bcc" fill-rule="evenodd" stroke="none"/>
    <path d="M-163.65 84.9 Q-162.2 82.9 -160.25 84.4 -158.25 85.8 -159.7 87.8 -161.2 89.75 -163.15 88.35 -165.1 86.9 -163.65 84.9" fill="#f99bcc" fill-rule="evenodd" stroke="none"/>
    <path d="M-159.5 88.15 Q-160.95 86.2 -159.0 84.7 -156.95 83.25 -155.55 85.25 -154.1 87.2 -156.1 88.7 -158.15 90.05 -159.5 88.15" fill="#f99bcc" fill-rule="evenodd" stroke="none"/>
    <path d="M-155.15 85.15 Q-157.5 85.9 -158.3 83.6 -159.05 81.3 -156.7 80.55 -154.35 79.75 -153.65 82.1 -152.85 84.45 -155.15 85.15" fill="#f99bcc" fill-rule="evenodd" stroke="none"/>
    <path d="M-158.75 85.75 Q-161.05 86.5 -161.8 84.15 -162.5 81.85 -160.2 81.05 -157.9 80.25 -157.15 82.6 -156.45 84.9 -158.75 85.75" fill="#ffcc00" fill-rule="evenodd" stroke="none"/>
    <path d="M-184.1 82.55 Q-184.1 85.0 -186.55 85.0 -189.0 85.0 -189.0 82.55 -189.0 80.1 -186.55 80.1 -184.1 80.1 -184.1 82.55" fill="#f981a2" fill-rule="evenodd" stroke="none"/>
    <path d="M-189.35 82.45 Q-187.0 83.25 -187.75 85.5 -188.55 87.85 -190.85 87.1 -193.1 86.3 -192.4 84.0 -191.65 81.65 -189.35 82.45" fill="#f981a2" fill-rule="evenodd" stroke="none"/>
    <path d="M-191.1 87.35 Q-189.65 85.35 -187.65 86.85 -185.65 88.3 -187.15 90.25 -188.6 92.25 -190.5 90.8 -192.55 89.4 -191.1 87.35" fill="#f981a2" fill-rule="evenodd" stroke="none"/>
    <path d="M-186.95 90.6 Q-188.4 88.5 -186.4 87.15 -184.45 85.7 -182.95 87.7 -181.55 89.7 -183.55 91.1 -185.45 92.55 -186.95 90.6" fill="#f981a2" fill-rule="evenodd" stroke="none"/>
    <path d="M-182.6 87.6 Q-184.9 88.4 -185.65 86.05 -186.5 83.75 -184.15 82.95 -181.9 82.15 -181.05 84.5 -180.3 86.9 -182.6 87.6" fill="#f981a2" fill-rule="evenodd" stroke="none"/>
    <path d="M-186.15 88.15 Q-188.4 88.95 -189.25 86.6 -190.0 84.25 -187.65 83.5 -185.35 82.7 -184.6 85.05 -183.8 87.35 -186.15 88.15" fill="#ffcc00" fill-rule="evenodd" stroke="none"/>
    <path d="M-186.3 101.75 Q-186.3 104.2 -188.75 104.2 -191.2 104.2 -191.2 101.75 -191.2 99.3 -188.75 99.3 -186.3 99.3 -186.3 101.75" fill="#f981a2" fill-rule="evenodd" stroke="none"/>
    <path d="M-191.5 101.6 Q-189.15 102.35 -189.95 104.65 -190.7 107.0 -193.0 106.25 -195.35 105.45 -194.6 103.2 -193.9 100.85 -191.5 101.6" fill="#f981a2" fill-rule="evenodd" stroke="none"/>
    <path d="M-193.3 106.55 Q-191.8 104.5 -189.85 106.0 -187.85 107.3 -189.3 109.4 -190.8 111.4 -192.7 109.9 -194.65 108.55 -193.3 106.55" fill="#f981a2" fill-rule="evenodd" stroke="none"/>
    <path d="M-185.65 110.25 Q-187.7 111.65 -189.1 109.7 -190.55 107.75 -188.6 106.3 -186.5 104.85 -185.15 106.85 -183.7 108.8 -185.65 110.25" fill="#f981a2" fill-rule="evenodd" stroke="none"/>
    <path d="M-184.8 106.75 Q-187.1 107.5 -187.85 105.15 -188.65 102.85 -186.3 102.1 -184.0 101.35 -183.25 103.7 -182.45 106.0 -184.8 106.75" fill="#f981a2" fill-rule="evenodd" stroke="none"/>
    <path d="M-188.35 107.3 Q-190.6 108.05 -191.4 105.75 -192.15 103.4 -189.8 102.65 -187.5 101.85 -186.75 104.2 -186.05 106.6 -188.35 107.3" fill="#ffcc00" fill-rule="evenodd" stroke="none"/>
    <path d="M-171.5 114.9 Q-171.5 117.35 -173.95 117.35 -176.35 117.35 -176.35 114.9 -176.35 112.45 -173.95 112.45 -171.5 112.45 -171.5 114.9" fill="#f981a2" fill-rule="evenodd" stroke="none"/>
    <path d="M-176.7 114.75 Q-174.35 115.5 -175.1 117.8 -175.95 120.1 -178.25 119.4 -180.55 118.65 -179.8 116.35 -179.0 114.05 -176.7 114.75" fill="#f981a2" fill-rule="evenodd" stroke="none"/>
    <path d="M-178.5 119.7 Q-177.05 117.7 -175.05 119.15 -173.05 120.55 -174.5 122.55 -176.0 124.5 -177.9 123.1 -179.85 121.65 -178.5 119.7" fill="#f981a2" fill-rule="evenodd" stroke="none"/>
    <path d="M-170.9 123.45 Q-172.95 124.85 -174.3 122.85 -175.8 120.95 -173.8 119.45 -171.75 118.05 -170.35 120.0 -168.9 121.95 -170.9 123.45" fill="#f981a2" fill-rule="evenodd" stroke="none"/>
    <path d="M-170.0 119.9 Q-172.35 120.7 -173.05 118.35 -173.85 116.05 -171.5 115.25 -169.2 114.5 -168.45 116.85 -167.65 119.2 -170.0 119.9" fill="#f981a2" fill-rule="evenodd" stroke="none"/>
    <path d="M-173.55 120.45 Q-175.85 121.25 -176.6 118.9 -177.35 116.55 -175.0 115.85 -172.65 115.05 -171.95 117.35 -171.25 119.75 -173.55 120.45" fill="#ffcc00" fill-rule="evenodd" stroke="none"/>
    <path d="M-151.5 108.4 Q-151.5 110.85 -153.95 110.85 -156.4 110.85 -156.4 108.4 -156.4 105.95 -153.95 105.95 -151.5 105.95 -151.5 108.4" fill="#f981a2" fill-rule="evenodd" stroke="none"/>
    <path d="M-156.75 108.25 Q-154.45 109.0 -155.15 111.35 -155.95 113.7 -158.3 112.85 -160.65 112.1 -159.8 109.8 -159.05 107.45 -156.75 108.25" fill="#f981a2" fill-rule="evenodd" stroke="none"/>
    <path d="M-158.5 113.2 Q-157.1 111.25 -155.05 112.6 -153.05 114.1 -154.55 116.05 -155.9 118.0 -157.95 116.6 -159.95 115.1 -158.5 113.2" fill="#f981a2" fill-rule="evenodd" stroke="none"/>
    <path d="M-154.35 116.35 Q-155.85 114.4 -153.8 112.95 -151.85 111.5 -150.35 113.5 -149.0 115.5 -150.95 116.9 -152.85 118.4 -154.35 116.35" fill="#f981a2" fill-rule="evenodd" stroke="none"/>
    <path d="M-148.5 110.3 Q-147.65 112.6 -150.0 113.4 -152.35 114.2 -153.15 111.85 -153.85 109.55 -151.55 108.75 -149.25 107.95 -148.5 110.3" fill="#f981a2" fill-rule="evenodd" stroke="none"/>
    <path d="M-153.6 113.95 Q-155.95 114.7 -156.65 112.35 -157.4 110.05 -155.05 109.3 -152.75 108.55 -152.0 110.9 -151.25 113.25 -153.6 113.95" fill="#ffcc00" fill-rule="evenodd" stroke="none"/>
    <path d="M-150.25 88.45 Q-150.25 90.9 -152.7 90.9 -155.15 90.9 -155.15 88.45 -155.15 86.0 -152.7 86.0 -150.25 86.0 -150.25 88.45" fill="#f981a2" fill-rule="evenodd" stroke="none"/>
    <path d="M-155.5 88.3 Q-153.2 89.05 -153.95 91.35 -154.65 93.65 -157.05 92.9 -159.4 92.15 -158.6 89.85 -157.8 87.5 -155.5 88.3" fill="#f981a2" fill-rule="evenodd" stroke="none"/>
    <path d="M-157.25 93.25 Q-155.95 91.25 -153.85 92.65 -151.85 94.15 -153.35 96.1 -154.7 98.0 -156.75 96.65 -158.75 95.15 -157.25 93.25" fill="#f981a2" fill-rule="evenodd" stroke="none"/>
    <path d="M-153.15 96.4 Q-154.6 94.45 -152.55 92.95 -150.6 91.6 -149.2 93.55 -147.7 95.45 -149.7 96.95 -151.8 98.4 -153.15 96.4" fill="#f981a2" fill-rule="evenodd" stroke="none"/>
    <path d="M-148.8 93.45 Q-151.2 94.15 -151.9 91.85 -152.65 89.55 -150.3 88.8 -148.0 88.0 -147.25 90.35 -146.45 92.65 -148.8 93.45" fill="#f981a2" fill-rule="evenodd" stroke="none"/>
    <path d="M-152.35 94.0 Q-154.65 94.75 -155.4 92.4 -156.2 90.1 -153.85 89.35 -151.5 88.6 -150.8 90.95 -150.0 93.3 -152.35 94.0" fill="#ffcc00" fill-rule="evenodd" stroke="none"/>
    <path d="M-166.2 74.7 Q-166.2 77.15 -168.65 77.15 -171.1 77.15 -171.1 74.7 -171.1 72.25 -168.65 72.25 -166.2 72.25 -166.2 74.7" fill="#f981a2" fill-rule="evenodd" stroke="none"/>
    <path d="M-171.4 74.55 Q-169.05 75.3 -169.85 77.65 -170.55 79.95 -172.9 79.2 -175.25 78.45 -174.5 76.15 -173.75 73.85 -171.4 74.55" fill="#f981a2" fill-rule="evenodd" stroke="none"/>
    <path d="M-173.2 79.5 Q-171.75 77.5 -169.75 78.95 -167.75 80.35 -169.2 82.35 -170.6 84.35 -172.6 82.9 -174.6 81.5 -173.2 79.5" fill="#f981a2" fill-rule="evenodd" stroke="none"/>
    <path d="M-169.0 82.65 Q-170.45 80.75 -168.5 79.3 -166.5 77.8 -165.05 79.8 -163.65 81.8 -165.6 83.25 -167.55 84.7 -169.0 82.65" fill="#f981a2" fill-rule="evenodd" stroke="none"/>
    <path d="M-164.7 79.7 Q-167.0 80.55 -167.75 78.2 -168.55 75.8 -166.2 75.05 -163.9 74.3 -163.15 76.65 -162.35 78.95 -164.7 79.7" fill="#f981a2" fill-rule="evenodd" stroke="none"/>
    <path d="M-168.25 80.25 Q-170.5 81.05 -171.3 78.7 -172.1 76.4 -169.75 75.65 -167.35 74.9 -166.65 77.2 -165.9 79.5 -168.25 80.25" fill="#ffcc00" fill-rule="evenodd" stroke="none"/>
    <path d="M-172.55 88.5 L-170.35 90.05 Q-170.25 90.25 -170.6 90.75 -171.05 91.25 -171.3 91.1 L-173.4 89.55 Q-173.55 89.35 -173.2 88.85 -172.85 88.5 -172.55 88.5 M-171.9 93.45 L-172.05 93.4 -173.75 93.15 -174.9 92.9 Q-175.15 92.8 -175.0 92.25 -174.95 91.6 -174.7 91.6 L-171.25 92.1 -170.4 92.55 -170.25 93.25 -170.45 94.15 -170.5 94.25 -170.45 94.35 -169.35 95.1 -168.3 95.9 Q-168.35 96.3 -168.7 96.6 -169.0 96.9 -169.25 96.85 L-171.1 95.8 -172.2 97.9 -172.9 97.8 -173.5 97.3 -172.55 95.45 Q-171.95 94.45 -171.8 93.55 L-171.9 93.45 M-173.9 103.4 L-172.0 103.5 -169.7 103.8 -168.9 104.15 Q-168.45 104.4 -168.3 104.9 L-168.45 108.2 -169.15 108.3 Q-169.75 108.3 -169.85 107.95 L-169.8 106.7 -169.85 105.3 Q-169.95 105.1 -170.15 105.1 L-170.55 105.05 -173.85 104.75 -174.1 104.15 -173.9 103.4 M-173.0 100.15 L-175.3 100.2 -175.5 99.5 Q-175.5 98.8 -175.3 98.75 L-168.95 98.9 -166.9 98.95 Q-166.7 99.0 -166.75 99.65 -166.75 100.2 -167.0 100.3 L-170.15 100.3 -170.0 103.0 -170.85 103.2 -171.5 102.9 -171.65 100.35 -173.0 100.15" fill="#cc0000" fill-rule="evenodd" stroke="none"/>
    <path d="M-167.35 123.3 L-167.3 123.65 -167.3 123.95 -167.35 124.95 -167.55 124.95 -167.7 124.9 -167.7 123.3 -167.5 123.25 -167.35 123.3 M-169.5 123.7 L-169.7 124.25 -168.5 124.7 -168.55 124.85 -168.7 124.95 -169.25 124.8 -169.8 124.55 -170.0 124.8 -170.2 125.2 -170.4 125.15 -170.55 125.05 -170.1 124.25 -170.0 123.95 -169.8 123.6 -169.6 123.6 -169.5 123.7 M-169.1 125.45 L-169.05 126.4 -169.0 126.45 -167.75 126.45 -167.5 126.4 -167.4 126.5 -167.4 126.7 -167.7 126.75 -169.15 126.75 -169.3 126.7 -169.4 126.6 -169.45 126.45 -169.45 125.45 -169.3 125.4 -169.1 125.45" fill="#ffffff" fill-rule="evenodd" stroke="none"/>
    <path d="M-170.8 128.85 L-170.75 128.7 -170.35 128.7 -170.05 128.75 -169.8 128.75 -169.5 128.8 -169.3 129.0 -169.4 129.2 -169.45 129.35 -169.0 129.65 -168.85 129.7 -168.75 129.8 -168.8 129.95 -168.95 130.0 -169.15 129.95 -169.55 129.7 -169.65 129.65 -170.15 130.25 -170.35 130.2 -170.45 130.1 -169.95 129.45 -169.85 129.2 -169.8 129.05 -170.2 129.0 -170.75 128.95 -170.8 128.85 M-167.6 128.55 L-167.55 128.9 -167.55 128.95 -167.5 129.0 -167.05 129.0 -166.95 128.95 -166.85 129.1 -166.85 129.25 -167.15 129.3 -167.5 129.3 -167.55 129.35 -167.55 129.85 -167.75 129.95 -167.9 129.85 -168.0 128.4 Q-168.0 128.25 -167.8 128.25 L-167.6 128.35 -167.6 128.55 M-168.05 130.9 L-168.1 130.85 -168.45 130.95 -168.7 131.25 -168.65 131.3 -168.55 131.35 -168.3 131.25 -168.05 131.0 -168.05 130.9 M-167.7 130.65 L-167.7 131.1 -168.05 131.5 -168.55 131.7 -168.9 131.55 -169.05 131.25 -168.7 130.75 Q-168.45 130.5 -168.1 130.5 -167.75 130.5 -167.7 130.65" fill="#ffffff" fill-rule="evenodd" stroke="none"/>
    <path d="M-169.45 134.2 L-169.7 135.1 -169.95 135.15 -170.1 135.05 -169.9 134.3 -169.9 134.25 -170.0 134.2 -170.75 134.2 -170.9 134.05 -170.8 133.9 -170.05 133.9 -169.55 134.0 -169.45 134.2 M-168.65 134.8 L-168.6 133.35 -168.4 133.3 -168.25 133.35 -168.25 133.55 -168.25 133.8 -168.2 133.8 -167.85 133.85 -167.4 133.85 -167.4 133.75 -167.35 133.55 -167.35 133.25 -167.1 133.15 -167.0 133.25 -167.0 133.6 -167.05 134.0 -167.05 134.65 -167.2 134.7 -167.4 134.65 -167.4 134.2 -167.45 134.15 -167.5 134.15 -167.8 134.1 -168.25 134.1 -168.25 134.15 -168.3 134.4 -168.3 134.8 -168.45 134.85 -168.65 134.8" fill="#ffffff" fill-rule="evenodd" stroke="none"/>
    <path d="M-167.4 136.5 L-167.35 137.45 -167.3 137.8 -167.3 138.15 -167.45 138.2 -167.65 138.15 -167.7 137.85 -167.7 137.6 -168.3 137.6 -168.65 137.55 -168.75 137.45 -168.65 137.3 -167.85 137.3 -167.75 137.25 -167.7 137.2 -167.75 136.85 -167.75 136.55 -167.55 136.5 -167.4 136.5 M-167.85 138.7 L-167.65 138.65 Q-167.5 138.65 -167.5 138.75 L-167.55 139.85 -167.7 140.1 -168.0 140.2 -169.2 140.2 -169.4 140.1 -169.55 139.4 -169.55 138.85 -169.35 138.8 -169.2 138.85 -169.2 139.2 -168.0 139.2 -167.9 139.15 -167.9 138.85 -167.85 138.7 M-170.15 138.2 L-170.3 138.0 -170.25 137.5 Q-170.15 137.25 -169.75 137.15 L-169.45 137.15 -169.3 137.4 -169.35 137.85 -169.8 138.2 -170.15 138.2 M-169.95 137.9 L-169.8 137.85 -169.65 137.75 -169.6 137.6 -169.7 137.45 -169.85 137.5 -169.95 137.65 -170.0 137.85 -169.95 137.9 M-169.15 139.7 L-169.1 139.8 -169.1 139.85 -169.05 139.85 -168.1 139.9 -168.0 139.85 -167.95 139.8 -167.95 139.5 -168.0 139.5 -169.1 139.55 -169.15 139.55 -169.15 139.7" fill="#ffffff" fill-rule="evenodd" stroke="none"/>
  </g>
</svg>
