<?xml version="1.0" encoding="UTF-8" standalone="no"?>
<svg xmlns:ffdec="https://www.free-decompiler.com/flash" xmlns:xlink="http://www.w3.org/1999/xlink" ffdec:objectType="shape" height="508.2px" width="298.5px" xmlns="http://www.w3.org/2000/svg">
  <g transform="matrix(1.0, 0.0, 0.0, 1.0, -34.8, -28.7)">
    <path d="M277.9 377.75 L283.9 378.75 Q281.85 379.65 277.9 377.75" fill="#351847" fill-opacity="0.23137255" fill-rule="evenodd" stroke="none"/>
    <path d="M330.9 247.9 Q327.35 255.7 320.1 259.35 314.7 262.0 309.05 261.55 307.75 270.55 305.15 279.75 293.9 319.4 254.45 338.0 L247.5 338.5 Q240.6 338.8 236.85 344.15 L236.3 345.0 228.95 347.1 Q235.95 355.0 236.3 345.0 248.95 379.0 246.2 378.2 248.45 387.15 248.65 397.4 L248.7 403.75 249.45 411.75 249.8 417.45 Q249.7 419.85 248.85 421.2 L248.7 422.7 Q249.65 423.7 249.45 426.45 L248.5 433.3 Q247.65 440.85 248.05 456.25 248.5 471.55 247.6 479.1 235.6 479.05 218.3 479.3 219.55 501.45 218.7 509.1 215.35 509.75 209.7 509.2 L206.25 508.85 205.75 516.15 205.7 516.7 Q208.65 516.45 212.0 516.7 220.2 517.25 225.9 520.1 232.1 523.15 231.95 527.45 231.75 532.35 225.0 534.9 218.85 537.2 210.4 536.85 201.85 536.45 196.35 533.6 190.15 530.4 190.9 525.55 191.2 521.7 195.35 519.4 L194.6 518.7 193.9 509.15 Q186.05 509.75 181.75 509.3 180.6 498.6 181.9 480.0 L178.0 480.1 175.1 480.15 Q176.25 501.55 175.45 509.1 172.3 509.7 167.1 509.25 L166.35 518.7 165.7 519.4 Q169.75 521.7 170.1 525.55 170.85 530.4 164.7 533.6 159.15 536.45 150.65 536.85 142.1 537.2 136.0 534.9 129.25 532.35 129.05 527.45 128.85 523.15 135.1 520.1 140.8 517.25 149.0 516.7 152.35 516.45 155.35 516.7 L155.2 516.15 154.75 508.8 138.5 509.3 Q137.45 498.9 138.7 480.85 L108.45 481.15 Q106.25 476.4 106.1 466.65 L106.2 451.3 Q106.05 437.5 106.25 434.2 106.65 426.65 108.5 420.3 109.25 395.05 114.7 376.8 115.95 372.5 117.5 368.7 L114.9 368.45 Q122.0 358.2 114.35 345.9 112.55 342.95 110.3 340.65 104.15 334.3 98.15 327.5 L101.85 329.5 Q113.45 335.8 119.95 341.55 122.6 343.75 129.55 342.6 106.0 334.0 88.25 317.45 84.65 314.05 81.55 310.55 78.2 301.3 71.4 296.9 57.25 273.6 59.55 244.25 L59.75 241.8 Q53.7 242.5 48.0 239.65 40.7 236.0 37.25 228.25 33.4 219.8 35.65 209.5 37.4 201.25 45.6 194.75 53.3 188.65 62.6 186.95 69.95 185.55 75.25 187.65 79.8 170.75 93.85 152.4 108.65 133.15 124.2 125.15 139.45 117.25 155.75 113.1 167.25 110.2 176.1 110.2 187.4 86.95 191.05 65.2 180.75 59.1 181.9 48.7 182.9 39.35 191.7 33.15 197.65 28.95 203.85 29.0 209.8 27.45 217.3 33.65 225.0 40.1 229.55 49.15 230.35 48.1 232.2 46.8 234.7 44.3 238.05 42.25 244.15 38.6 250.85 37.8 257.95 37.0 263.25 39.75 269.15 42.7 271.55 49.55 275.7 61.1 269.35 70.95 262.85 81.0 250.3 80.55 L250.3 80.85 250.75 80.6 Q252.55 84.85 250.75 103.35 L248.7 123.1 Q260.8 126.2 273.25 139.8 279.1 146.2 292.55 165.35 300.75 177.1 302.9 190.25 304.2 197.85 302.1 202.45 L303.7 206.35 305.5 206.6 Q314.8 208.3 322.55 214.45 330.65 220.95 332.45 229.15 334.7 239.45 330.9 247.9 M226.25 347.75 L226.35 348.0 227.1 348.45 226.25 347.75 Q230.85 350.0 228.95 347.1 L226.25 347.75 M221.45 336.5 Q225.8 343.45 228.85 346.95 208.4 315.55 221.45 336.5" fill="#783a21" fill-opacity="0.33333334" fill-rule="evenodd" stroke="none"/>
  </g>
</svg>
