<?xml version="1.0" encoding="UTF-8" standalone="no"?>
<svg xmlns:ffdec="https://www.free-decompiler.com/flash" xmlns:xlink="http://www.w3.org/1999/xlink" ffdec:objectType="shape" height="80.2px" width="170.35px" xmlns="http://www.w3.org/2000/svg">
  <g transform="matrix(1.0, 0.0, 0.0, 1.0, 90.1, 53.15)">
    <path d="M31.55 -40.6 Q40.05 -36.4 48.15 -30.15 60.0 -21.0 65.85 -10.85 60.2 -10.3 48.45 -6.15 36.35 -1.95 30.85 -1.25 18.25 0.3 -6.6 -2.4 -33.0 -4.65 -46.0 -6.6 L-61.55 -7.4 Q-73.25 -7.4 -77.15 -7.7 -73.8 -15.1 -63.4 -27.3 -54.95 -37.3 -45.05 -43.1 -36.45 -48.1 -25.25 -50.85 -13.9 -53.65 -4.25 -53.05 4.05 -52.55 14.05 -48.7 19.6 -46.55 31.55 -40.6" fill="#ffe28e" fill-rule="evenodd" stroke="none"/>
    <path d="M78.0 -4.35 L80.25 -5.05 Q73.45 7.1 41.2 19.5 17.7 28.6 -1.5 26.7 L-27.85 24.15 Q-43.5 22.25 -53.8 19.15 -81.75 10.75 -90.1 0.7 L-87.75 0.9 Q-83.15 -2.0 -78.2 -7.4 L-70.0 -16.75 Q-60.45 -27.3 -49.3 -33.35 -32.05 -42.8 -3.3 -41.25 16.9 -40.1 37.0 -30.75 59.05 -20.6 78.0 -4.35" fill="#fff0c4" fill-rule="evenodd" stroke="none"/>
  </g>
</svg>
