<?xml version="1.0" encoding="UTF-8" standalone="no"?>
<svg xmlns:ffdec="https://www.free-decompiler.com/flash" xmlns:xlink="http://www.w3.org/1999/xlink" ffdec:objectType="shape" height="59.15px" width="148.7px" xmlns="http://www.w3.org/2000/svg">
  <g transform="matrix(1.0, 0.0, 0.0, 1.0, 80.6, 24.45)">
    <path d="M30.05 -13.4 L40.35 -5.4 Q47.25 0.05 51.4 0.6 56.9 1.35 60.7 -2.45 L68.05 -11.4 Q69.3 9.75 47.05 23.7 37.75 29.5 26.45 32.45 15.55 35.25 6.05 34.6 -8.15 34.5 -16.0 34.1 -30.15 33.4 -41.3 29.3 L-50.7 26.25 Q-57.65 23.9 -62.5 21.1 -77.25 12.6 -80.6 -3.7 -75.75 5.2 -67.45 3.05 -61.45 1.45 -54.6 -5.4 -43.7 -16.3 -31.3 -20.1 -27.1 -21.45 -8.6 -24.05 1.35 -25.45 11.75 -22.15 19.75 -19.6 30.05 -13.4" fill="#ffcaca" fill-rule="evenodd" stroke="none"/>
  </g>
</svg>
