<?xml version="1.0" encoding="UTF-8" standalone="no"?>
<svg xmlns:ffdec="https://www.free-decompiler.com/flash" xmlns:xlink="http://www.w3.org/1999/xlink" ffdec:objectType="shape" height="201.65px" width="238.2px" xmlns="http://www.w3.org/2000/svg">
  <g transform="matrix(1.0, 0.0, 0.0, 1.0, 118.45, -99.2)">
    <path d="M-35.8 133.0 L-28.85 128.95 Q-19.4 123.5 -0.95 125.6 13.95 127.35 26.45 132.4 35.55 136.1 39.9 139.35 45.65 143.6 49.3 150.7 55.8 163.4 56.1 179.75 L56.2 196.3 Q56.55 201.7 55.75 203.2 54.7 205.3 50.05 206.4 L30.5 207.05 10.8 205.05 -30.2 203.1 -48.0 202.7 Q-59.1 202.3 -65.55 200.65 -65.0 178.1 -60.2 161.9 -52.6 136.5 -35.8 133.0" fill="#16b114" fill-rule="evenodd" stroke="none"/>
    <path d="M-17.0 172.15 Q-17.0 174.25 -18.5 175.8 -20.0 177.3 -22.1 177.3 -24.2 177.3 -25.7 175.8 -27.2 174.25 -27.2 172.15 -27.2 170.05 -25.7 168.6 -24.2 167.1 -22.1 167.1 -20.0 167.1 -18.5 168.6 -17.0 170.05 -17.0 172.15" fill="#039d0a" fill-rule="evenodd" stroke="none"/>
    <path d="M-17.0 186.65 Q-17.0 188.75 -18.5 190.25 -20.0 191.75 -22.1 191.75 -24.2 191.75 -25.7 190.25 -27.2 188.75 -27.2 186.65 -27.2 184.55 -25.7 183.05 -24.2 181.55 -22.1 181.55 -20.0 181.55 -18.5 183.05 -17.0 184.55 -17.0 186.65" fill="#039d0a" fill-rule="evenodd" stroke="none"/>
    <path d="M15.45 172.15 Q15.45 174.25 13.95 175.8 12.45 177.3 10.35 177.3 8.25 177.3 6.75 175.8 5.3 174.25 5.3 172.15 5.3 170.05 6.75 168.6 8.25 167.1 10.35 167.1 12.45 167.1 13.95 168.6 15.45 170.05 15.45 172.15" fill="#039d0a" fill-rule="evenodd" stroke="none"/>
    <path d="M15.45 186.65 Q15.45 188.75 13.95 190.25 12.45 191.75 10.35 191.75 8.25 191.75 6.75 190.25 5.3 188.75 5.3 186.65 5.3 184.55 6.75 183.05 8.25 181.55 10.35 181.55 12.45 181.55 13.95 183.05 15.45 184.55 15.45 186.65" fill="#039d0a" fill-rule="evenodd" stroke="none"/>
    <path d="M-8.85 158.75 Q-11.95 164.8 -21.1 167.2 -29.95 169.45 -36.2 166.4 -43.45 162.85 -44.5 153.1 -45.4 144.6 -41.6 137.15 L31.0 135.85 Q39.3 134.25 47.65 150.45 53.45 161.9 54.6 171.7 L56.8 192.2 57.1 197.15 Q57.0 200.15 55.55 201.2 54.75 201.75 50.6 201.85 L45.6 201.6 Q45.5 199.8 45.9 195.65 46.35 191.75 46.1 189.5 L44.0 177.45 Q43.6 174.4 40.25 170.0 36.25 164.8 32.8 166.75 27.9 169.45 23.4 169.35 20.15 169.25 13.2 167.15 11.3 166.6 7.5 163.0 3.85 159.55 1.9 159.25 0.55 159.0 -3.3 159.25 L-8.85 158.75" fill="#039d0a" fill-rule="evenodd" stroke="none"/>
    <path d="M-12.1 291.0 Q-11.4 295.2 -16.8 297.95 -21.6 300.45 -28.95 300.8 -36.35 301.1 -41.65 299.15 -47.5 296.9 -47.7 292.65 -47.85 288.9 -42.45 286.25 -37.5 283.8 -30.4 283.3 -23.2 282.8 -18.1 284.65 -12.4 286.75 -12.1 291.0" fill="#000104" fill-rule="evenodd" stroke="none"/>
    <path d="M-25.0 282.8 Q-24.95 281.0 -25.9 271.05 -26.55 263.8 -25.3 259.6 L-19.95 260.35 -14.7 260.1 Q-13.75 268.0 -15.35 285.05 -17.9 288.2 -21.15 288.2 -23.15 288.2 -24.3 285.55 L-25.0 282.8" fill="#ffd09b" fill-rule="evenodd" stroke="none"/>
    <path d="M6.0 291.0 Q6.35 286.75 12.05 284.65 17.1 282.8 24.3 283.3 31.45 283.8 36.35 286.25 41.8 288.9 41.6 292.65 41.45 296.9 35.6 299.15 30.25 301.1 22.9 300.8 15.5 300.45 10.7 297.95 5.35 295.2 6.0 291.0" fill="#000104" fill-rule="evenodd" stroke="none"/>
    <path d="M18.9 282.8 Q18.3 288.2 15.0 288.2 13.0 288.2 10.9 286.65 L9.2 285.05 Q7.65 268.0 8.6 260.1 12.25 261.25 19.2 259.6 20.5 263.8 19.8 271.05 18.85 281.15 18.9 282.8" fill="#ffd09b" fill-rule="evenodd" stroke="none"/>
    <path d="M-38.3 225.7 L-5.8 222.1 Q-8.8 232.7 -7.8 249.45 -6.65 269.8 -7.45 276.75 -10.3 277.3 -15.25 276.8 L-23.1 276.2 -39.5 276.9 Q-40.45 267.6 -39.3 251.3 -38.0 232.95 -38.3 225.7" fill="#634301" fill-rule="evenodd" stroke="none"/>
    <path d="M-0.75 225.7 L31.7 222.1 Q28.65 232.7 29.65 249.45 30.9 269.9 30.1 276.75 27.25 277.3 22.3 276.8 L14.4 276.2 -1.95 276.9 Q-2.95 267.55 -1.8 251.3 -0.45 232.85 -0.75 225.7" fill="#634301" fill-rule="evenodd" stroke="none"/>
    <path d="M-8.2 150.9 Q-11.2 157.15 -17.6 161.4 -24.45 166.0 -30.95 165.1 -40.0 163.9 -43.8 157.25 -47.25 151.15 -45.6 142.0 -42.5 124.7 -25.9 128.95 -19.7 130.6 -13.8 137.15 -7.35 144.4 -8.2 150.9" fill="#f90203" fill-rule="evenodd" stroke="none"/>
    <path d="M-26.35 129.65 Q-24.2 130.45 -21.2 131.05 -15.55 133.4 -9.65 142.85 -7.4 146.5 -9.8 152.55 -12.05 157.95 -15.95 161.2 -19.65 164.3 -25.0 165.25 L-34.95 164.85 Q-40.05 163.5 -42.75 160.1 -45.85 156.35 -45.25 150.95 -41.95 158.55 -39.85 160.45 -35.75 164.15 -27.05 162.2 -24.2 161.55 -19.25 156.6 -13.85 151.1 -16.45 148.8 -17.7 147.7 -22.15 149.55 -26.8 151.9 -27.75 152.3 -23.3 146.35 -16.9 144.3 -19.9 141.75 -24.95 139.15 L-29.5 137.05 Q-21.0 136.75 -13.5 142.35 -15.2 135.6 -26.35 129.65" fill="#ca0002" fill-rule="evenodd" stroke="none"/>
    <path d="M0.8 150.9 Q-0.15 144.4 6.35 137.15 12.25 130.6 18.45 128.95 35.05 124.7 38.15 142.0 39.8 151.2 36.35 157.25 32.6 163.9 23.45 165.1 17.0 166.0 10.15 161.4 3.75 157.15 0.8 150.9" fill="#f90203" fill-rule="evenodd" stroke="none"/>
    <path d="M19.7 129.2 Q7.75 135.4 6.1 142.35 13.45 136.75 22.05 137.05 14.2 140.25 9.45 144.3 15.85 146.3 20.25 152.3 17.0 150.55 14.7 149.55 10.3 147.7 9.05 148.8 6.4 151.1 11.8 156.6 16.75 161.55 19.6 162.2 28.3 164.15 32.45 160.45 34.6 158.5 37.8 150.95 38.95 161.8 27.55 164.85 L17.55 165.25 Q12.2 164.3 8.5 161.2 4.55 157.95 2.4 152.55 -0.1 146.45 2.25 142.85 8.1 133.4 13.75 131.05 14.85 130.55 18.0 129.75 L19.7 129.2" fill="#ca0002" fill-rule="evenodd" stroke="none"/>
    <path d="M-9.65 156.85 Q-13.75 154.7 -14.75 150.5 -16.1 144.8 -13.0 140.7 -10.2 137.0 -5.3 136.1 -0.3 135.25 3.5 137.7 7.8 140.5 8.5 146.4 9.15 151.45 6.05 154.7 3.3 157.65 -1.35 158.25 -5.9 158.8 -9.65 156.85" fill="#ca0002" fill-rule="evenodd" stroke="none"/>
    <path d="M-10.3 154.6 Q-13.85 152.75 -14.75 149.1 -15.95 144.15 -13.25 140.6 -10.8 137.4 -6.5 136.6 -2.15 135.8 1.2 137.95 4.95 140.4 5.55 145.5 6.15 149.9 3.45 152.75 1.0 155.3 -3.0 155.8 -7.0 156.3 -10.3 154.6" fill="#f90203" fill-rule="evenodd" stroke="none"/>
    <path d="M-64.8 197.3 L-57.05 198.25 Q-51.65 198.9 -47.95 198.45 L-24.45 197.65 -0.9 197.35 Q13.7 197.15 22.55 197.65 L33.9 198.95 45.3 200.15 Q53.95 200.6 55.7 201.4 57.05 202.05 56.8 204.95 L56.0 210.95 Q55.25 217.45 55.6 230.85 56.0 244.1 55.2 250.7 34.35 250.6 -5.2 251.5 -46.4 252.45 -65.6 252.45 -67.5 248.3 -67.65 239.85 L-67.55 226.55 -67.5 211.7 Q-67.05 203.75 -64.8 197.3 M-65.6 252.45 L-65.55 252.5 -65.65 252.45 -65.6 252.45" fill="#ebebeb" fill-rule="evenodd" stroke="none"/>
    <path d="M-36.8 167.85 L-33.7 162.2 Q-33.25 165.65 -35.9 174.75 -39.2 185.95 -39.6 188.45 -41.6 202.5 -43.85 208.55 L-49.95 208.4 -43.65 188.1 Q-39.8 175.8 -36.8 167.85" fill="#039d0a" fill-rule="evenodd" stroke="none"/>
    <path d="M-61.95 197.65 L-55.0 198.6 Q-50.2 199.15 -46.9 198.75 L-25.85 198.0 -4.8 197.7 Q8.4 197.55 16.15 198.0 L26.35 199.2 36.5 200.35 Q44.25 200.85 45.8 201.6 47.05 202.15 46.8 204.9 L46.1 210.55 Q45.4 216.75 45.75 229.3 46.1 241.9 45.35 248.05 26.75 247.95 -8.65 248.8 -45.5 249.75 -62.6 249.75 -64.4 245.9 -64.55 237.85 L-64.45 225.25 -64.4 211.3 Q-64.0 203.8 -61.95 197.65 M-62.6 249.75 L-62.6 249.8 -62.75 249.75 -62.6 249.75" fill="#ffffff" fill-rule="evenodd" stroke="none"/>
    <path d="M-19.15 220.9 Q-16.45 221.5 -9.5 219.75 -3.1 218.1 0.15 219.65 -1.85 222.25 -5.85 224.55 L-12.9 228.1 Q-7.25 229.15 4.4 226.45 18.15 223.3 22.1 223.2 9.0 229.5 -5.85 233.95 -23.2 239.15 -34.95 239.1 L-24.4 231.85 Q-17.9 227.4 -14.75 223.7 -18.0 224.75 -34.95 228.4 -47.4 231.1 -54.6 235.1 -51.25 230.9 -39.6 225.85 -24.85 219.55 -22.85 218.3 -15.1 213.5 1.4 207.05 L2.95 207.85 Q-4.55 210.0 -19.15 220.9" fill="#ebebeb" fill-rule="evenodd" stroke="none"/>
    <path d="M-101.4 102.0 L-100.2 105.55 Q-96.65 112.0 -97.7 115.65 -98.45 118.65 -103.5 122.45 -106.15 124.7 -109.8 126.1 -114.1 127.8 -115.75 126.2 -117.45 124.55 -114.65 118.4 -119.2 117.3 -118.3 113.5 -117.5 109.7 -113.15 109.35 -114.4 106.9 -112.75 105.1 -111.05 103.3 -108.45 103.8 -108.75 102.0 -107.1 100.4 -105.4 98.8 -103.45 99.3 -102.3 99.55 -101.4 102.0" fill="#ffd09b" fill-rule="evenodd" stroke="none"/>
    <path d="M-108.0 101.5 Q-106.25 100.4 -105.05 105.15 -106.55 103.95 -108.55 103.8 L-108.45 104.1 -109.15 103.8 -108.55 103.8 Q-108.65 101.9 -108.0 101.5" fill="#ffbb7e" fill-rule="evenodd" stroke="none"/>
    <path d="M-115.1 111.8 Q-117.5 112.7 -118.1 114.8 -118.65 112.9 -117.2 111.15 -115.85 109.5 -113.9 109.4 L-113.6 106.4 Q-112.85 106.45 -112.1 107.2 -110.7 108.65 -110.8 111.85 -112.85 110.85 -115.1 111.8" fill="#ffbb7e" fill-rule="evenodd" stroke="none"/>
    <path d="M-115.75 125.75 L-116.75 123.5 Q-117.0 122.65 -116.5 121.1 -115.25 117.35 -112.45 119.15 -116.8 122.95 -115.75 125.75" fill="#ffbb7e" fill-rule="evenodd" stroke="none"/>
    <path d="M-76.7 118.75 Q-47.15 132.45 -47.7 144.7 -48.5 163.05 -76.8 148.25 -91.5 140.6 -110.2 126.05 -107.3 120.6 -98.45 110.1 -97.05 108.45 -87.95 112.85 L-76.7 118.75" fill="#039d0a" fill-rule="evenodd" stroke="none"/>
    <path d="M-59.8 151.9 Q-65.05 150.75 -67.1 149.9 -68.85 149.15 -73.9 146.1 L-90.6 135.05 Q-103.95 125.95 -106.6 123.35 -107.2 122.75 -105.65 120.6 -104.1 118.5 -101.45 116.4 -94.5 110.85 -89.8 112.45 -81.4 115.25 -71.3 120.8 -60.1 126.95 -54.4 132.4 -51.7 135.05 -49.7 138.8 -47.35 143.0 -47.6 146.0 -48.05 151.9 -59.8 151.9" fill="#16b114" fill-rule="evenodd" stroke="none"/>
    <path d="M102.1 154.65 Q99.65 148.85 100.5 145.85 101.35 142.2 107.65 138.35 L110.55 135.9 Q112.5 134.2 113.6 134.5 115.55 135.05 116.2 137.3 116.85 139.5 115.7 141.0 118.2 141.9 118.75 144.25 119.3 146.65 117.0 148.1 120.6 150.6 119.45 154.3 118.25 158.05 113.8 156.75 113.1 163.5 110.8 164.0 108.65 164.55 105.7 160.95 103.3 157.95 102.1 154.65" fill="#ffd09b" fill-rule="evenodd" stroke="none"/>
    <path d="M115.55 141.2 L115.7 141.0 Q113.95 140.1 112.05 140.4 115.55 137.1 116.45 138.75 116.95 139.55 115.7 141.0 L116.3 141.35 115.55 141.2" fill="#ffbb7e" fill-rule="evenodd" stroke="none"/>
    <path d="M113.75 149.1 Q116.15 144.5 118.85 145.8 118.45 146.05 117.65 148.5 119.25 149.65 119.65 151.75 120.05 154.0 118.5 155.35 119.05 153.25 117.5 151.2 116.0 149.3 113.75 149.1" fill="#ffbb7e" fill-rule="evenodd" stroke="none"/>
    <path d="M111.5 156.3 Q114.85 156.15 113.95 160.0 113.7 161.6 113.0 162.15 L111.15 163.6 Q113.4 161.7 111.5 156.3" fill="#ffbb7e" fill-rule="evenodd" stroke="none"/>
    <path d="M80.7 138.05 L93.45 138.6 Q103.5 139.3 103.9 141.4 106.3 154.8 106.1 161.1 82.65 164.35 66.1 163.65 34.2 162.25 42.7 145.95 48.3 135.2 80.7 138.05" fill="#039d0a" fill-rule="evenodd" stroke="none"/>
    <path d="M50.5 162.1 Q40.3 156.2 42.9 150.8 44.25 148.05 48.3 145.6 51.95 143.35 55.6 142.45 63.3 140.5 76.05 140.75 87.6 141.1 96.25 142.85 101.1 143.8 104.4 152.1 105.6 155.2 105.85 157.9 106.15 160.45 105.35 160.65 101.75 161.65 85.6 162.85 L65.6 164.05 Q59.75 164.2 57.9 163.95 55.65 163.7 50.5 162.1" fill="#16b114" fill-rule="evenodd" stroke="none"/>
  </g>
</svg>
