<?xml version="1.0" encoding="UTF-8" standalone="no"?>
<svg xmlns:ffdec="https://www.free-decompiler.com/flash" xmlns:xlink="http://www.w3.org/1999/xlink" ffdec:objectType="shape" height="280.7px" width="259.05px" xmlns="http://www.w3.org/2000/svg">
  <g transform="matrix(1.0, 0.0, 0.0, 1.0, 129.5, 140.35)">
    <path d="M7.55 96.5 L7.15 96.65 7.6 96.8 7.55 96.5 M11.05 98.2 L11.2 98.8 11.25 100.05 11.25 100.65 11.5 101.2 12.05 102.45 11.95 103.0 11.45 103.7 9.6 103.7 9.1 103.05 Q7.75 101.25 6.0 100.05 L5.85 99.5 Q4.4 97.45 2.6 95.75 L2.15 95.4 Q2.05 95.25 1.95 95.25 L-5.15 95.4 -7.85 97.35 Q-11.1 99.25 -13.65 102.05 L-14.6 101.85 -15.1 101.45 -14.95 100.9 -14.45 100.25 -14.35 99.6 -14.25 97.2 -14.25 95.4 -12.05 92.0 Q-9.6 88.25 -5.95 86.45 L1.75 86.65 Q5.25 88.9 7.5 92.45 L11.05 98.2 M-11.9 97.15 L-12.1 96.85 -12.25 97.4 -11.9 97.15" fill="#ffca9a" fill-rule="evenodd" stroke="none"/>
    <path d="M-68.95 95.65 Q-55.45 83.4 -37.15 78.9 -20.0 74.7 -3.4 74.05 13.15 73.35 31.05 80.2 48.9 87.05 61.85 102.65" fill="none" stroke="#330000" stroke-linecap="round" stroke-linejoin="round" stroke-width="2.0"/>
    <path d="M-120.2 3.8 Q-113.5 -1.5 -105.4 -3.0 -96.95 -4.55 -91.7 -0.9 -85.65 3.25 -86.05 13.05 L-92.0 34.35 Q-97.4 42.0 -104.85 44.1 -111.7 45.95 -118.05 42.8 -124.4 39.65 -127.4 32.9 -130.75 25.55 -128.8 16.6 -127.25 9.45 -120.2 3.8" fill="#ffe3bd" fill-rule="evenodd" stroke="none"/>
    <path d="M-113.05 9.4 Q-108.9 6.15 -103.9 5.2 -98.7 4.25 -95.45 6.55 -91.75 9.1 -92.0 15.1 L-95.65 28.25 Q-98.95 32.95 -103.6 34.3 -107.85 35.45 -111.75 33.5 -115.65 31.55 -117.5 27.4 -119.55 22.85 -118.35 17.3 -117.4 12.9 -113.05 9.4" fill="#ff9a60" fill-rule="evenodd" stroke="none"/>
    <path d="M31.5 -59.9 Q43.85 -57.05 51.8 -52.9 71.45 -48.45 81.7 -31.85 84.95 -26.55 90.05 -15.25 95.85 -2.35 99.2 3.65 108.1 19.9 109.4 39.8 110.6 58.35 105.15 77.6 94.6 114.95 55.15 130.8 21.85 144.15 -19.55 138.8 -58.05 133.8 -83.15 110.3 -110.95 84.3 -108.05 46.8 -105.35 12.25 -77.15 -18.45 -50.3 -47.75 -14.5 -58.8 6.95 -65.5 31.5 -59.9" fill="#ffca9a" fill-rule="evenodd" stroke="none"/>
    <path d="M21.3 -58.65 Q32.55 -55.9 39.9 -51.75 57.9 -47.25 67.45 -30.65 70.4 -25.35 75.1 -14.1 80.45 -1.2 83.5 4.85 91.65 21.05 92.85 41.05 93.95 59.55 88.95 78.8 79.35 115.85 43.05 129.95 13.6 141.45 -25.55 135.95 -61.5 130.9 -84.0 109.45 -109.55 85.1 -106.85 47.95 -104.4 13.4 -78.45 -17.3 -53.8 -46.55 -20.95 -57.65 -1.3 -64.3 21.3 -58.65" fill="#ffe3bd" fill-rule="evenodd" stroke="none"/>
    <path d="M-17.75 4.15 Q-17.75 7.3 -19.95 7.3 -22.15 7.3 -22.15 4.15 -22.15 1.05 -19.95 1.05 -17.75 1.05 -17.75 4.15" fill="#2d0a18" fill-rule="evenodd" stroke="none"/>
    <path d="M60.2 5.85 Q66.3 8.65 68.35 13.4 62.2 7.5 53.5 7.0 45.55 6.5 37.65 10.65 29.9 14.65 25.3 21.6 20.4 29.0 20.9 37.1 21.45 45.1 27.3 51.95 33.0 58.45 41.15 60.9 42.45 61.25 47.95 60.8 52.75 60.35 54.05 61.4 55.55 62.55 57.45 73.55 59.45 85.6 60.05 86.8 L47.05 67.8 Q31.65 61.9 22.15 58.35 18.35 56.9 14.6 51.45 10.55 45.45 9.6 38.55 7.05 19.95 28.1 9.85 48.05 0.25 60.2 5.85" fill="#ffca9a" fill-rule="evenodd" stroke="none"/>
    <path d="M-70.3 5.8 Q-58.15 0.25 -38.15 9.85 -17.15 19.95 -19.7 38.55 -20.65 45.45 -24.7 51.45 -28.4 56.9 -32.25 58.35 L-57.15 67.8 -70.15 86.75 Q-69.6 85.6 -67.55 73.55 -65.65 62.55 -64.15 61.4 -62.85 60.35 -58.05 60.8 -52.55 61.25 -51.2 60.9 -43.1 58.45 -37.4 51.95 -31.55 45.15 -31.0 37.1 -30.45 29.0 -35.35 21.55 -39.95 14.65 -47.75 10.6 -55.6 6.5 -63.6 6.95 -72.3 7.45 -78.45 13.4 L-76.65 10.7 Q-74.05 7.6 -70.3 5.8" fill="#ffca9a" fill-rule="evenodd" stroke="none"/>
    <path d="M-9.8 61.65 Q-23.2 59.95 -30.95 54.4 -40.55 47.5 -39.85 35.75 -39.15 24.9 -26.05 17.0 -13.75 9.5 -2.1 10.85 7.65 12.75 18.1 24.6 28.95 36.95 26.35 45.4 23.3 55.45 11.5 59.65 1.7 63.15 -9.8 61.65" fill="#ff791e" fill-rule="evenodd" stroke="none"/>
    <path d="M-11.25 57.3 Q-25.6 54.9 -30.2 52.75 -40.35 47.95 -39.8 36.8 -39.3 26.1 -26.45 17.55 -14.55 9.45 -5.4 10.85 2.6 12.85 11.2 22.95 20.55 33.85 18.65 42.1 16.35 52.05 6.1 55.85 -1.9 58.8 -11.25 57.3" fill="#ff9a00" fill-rule="evenodd" stroke="none"/>
    <path d="M127.5 49.95 Q124.45 56.75 118.15 59.9 111.8 63.05 104.95 61.15 97.45 59.05 92.05 51.45 L86.15 30.1 Q85.75 20.35 91.75 16.2 97.0 12.55 105.5 14.1 113.55 15.6 120.25 20.9 127.3 26.55 128.85 33.7 130.8 42.65 127.5 49.95" fill="#ffe3bd" fill-rule="evenodd" stroke="none"/>
    <path d="M118.4 34.4 Q119.65 39.95 117.6 44.45 115.7 48.6 111.8 50.6 107.85 52.55 103.65 51.4 99.05 50.05 95.7 45.35 L92.05 32.2 Q91.8 26.15 95.55 23.55 98.8 21.35 104.0 22.3 108.95 23.25 113.1 26.5 117.5 30.0 118.4 34.4" fill="#ff9a60" fill-rule="evenodd" stroke="none"/>
    <path d="M-14.85 -25.15 Q-15.65 -22.25 -25.7 -24.95 -35.8 -27.5 -38.7 -31.1 -37.75 -34.6 -33.8 -35.3 -30.3 -35.9 -25.55 -34.4 -21.1 -32.85 -17.9 -30.35 -14.6 -27.6 -14.85 -25.15" fill="#2d0a18" fill-rule="evenodd" stroke="none"/>
    <path d="M15.8 8.2 Q15.8 5.1 17.95 5.1 20.15 5.1 20.15 8.2 20.15 11.35 17.95 11.35 15.8 11.35 15.8 8.2" fill="#2d0a18" fill-rule="evenodd" stroke="none"/>
    <path d="M28.25 -23.35 Q28.65 -25.7 32.6 -27.5 36.3 -29.1 41.05 -29.45 46.0 -29.65 49.25 -28.2 52.9 -26.5 52.85 -22.85 49.15 -20.15 38.8 -20.2 28.35 -20.3 28.25 -23.35" fill="#2d0a18" fill-rule="evenodd" stroke="none"/>
    <path d="M35.85 -39.25 Q21.65 -36.4 14.35 -25.85 11.9 -28.85 9.0 -28.25 6.5 -27.7 2.1 -24.1 0.8 -37.05 2.95 -53.5 -8.7 -55.3 -25.8 -48.45 -40.4 -42.7 -51.6 -34.05 -59.85 -27.7 -70.0 -9.35 -75.15 -0.05 -77.9 3.95 -82.6 10.85 -87.65 14.75 -91.1 8.8 -92.0 5.3 -93.25 0.25 -91.5 -5.6 -87.5 -18.4 -76.25 -30.3 -65.1 -42.15 -49.0 -50.65 -12.9 -69.85 28.05 -64.75 63.6 -60.3 84.3 -21.85 94.65 -2.6 97.9 15.75 L92.0 19.3 Q91.95 17.15 89.5 10.85 82.8 13.2 80.55 16.25 80.25 2.2 76.35 -11.05 71.35 -27.75 62.45 -34.05 50.85 -42.25 35.85 -39.25" fill="#ffca9a" fill-rule="evenodd" stroke="none"/>
    <path d="M-2.7 -45.65 Q-1.9 -56.8 9.15 -60.0 L42.3 -50.55 Q34.6 -48.05 26.65 -41.7 L12.6 -30.55 10.3 -33.7 Q8.65 -35.75 8.75 -38.2 1.95 -35.9 1.45 -26.35 -3.3 -37.6 -2.7 -45.65" fill="#5d0304" fill-rule="evenodd" stroke="none"/>
    <path d="M46.55 -47.3 L55.0 -58.65 Q66.05 -56.35 77.45 -43.9 82.55 -38.3 94.2 -21.7 101.35 -11.5 103.2 -0.1 105.8 15.25 92.6 16.55 L91.4 8.1 Q90.4 3.55 88.15 1.0 87.5 2.45 85.35 5.2 83.3 7.9 82.65 9.3 84.45 -8.1 73.8 -25.15 62.95 -42.4 46.55 -47.3" fill="#5d0304" fill-rule="evenodd" stroke="none"/>
    <path d="M4.4 -67.8 L17.45 -60.0 Q9.95 -60.85 -15.15 -54.9 -40.7 -48.75 -46.6 -44.25 L-59.75 -33.55 Q-67.05 -26.7 -72.3 -17.45 -76.55 -8.1 -79.2 -2.9 -84.05 6.7 -88.45 8.4 -87.6 7.05 -87.1 4.0 -86.55 0.55 -86.1 -0.5 L-90.45 -0.8 -94.75 -1.2 Q-90.95 -16.4 -78.25 -32.95 -65.45 -49.65 -51.95 -56.6 -38.65 -63.45 -24.5 -67.05 -6.15 -71.7 4.4 -67.8" fill="#5d0304" fill-rule="evenodd" stroke="none"/>
    <path d="M6.1 -108.65 Q-2.85 -113.95 -1.85 -122.95 -0.95 -131.1 6.65 -136.45 14.65 -142.05 23.05 -139.0 32.95 -135.45 38.65 -120.6 41.5 -125.3 46.9 -128.55 52.25 -131.7 58.05 -132.4 64.15 -133.15 68.75 -130.75 73.9 -128.15 76.0 -122.25 79.6 -112.2 74.05 -103.65 68.45 -94.95 57.55 -95.3 57.55 -88.55 56.8 -74.85 56.0 -59.0 55.05 -55.3 52.95 -46.9 41.8 -43.9 33.55 -41.75 21.7 -42.75 8.55 -43.9 -1.25 -50.4 -12.7 -58.0 -8.0 -67.35 2.8 -88.75 6.1 -108.65" fill="#f90203" fill-rule="evenodd" stroke="none"/>
    <path d="M64.75 17.85 Q76.55 20.0 81.0 28.2 82.8 31.6 82.6 34.95 82.3 38.2 80.1 40.25 76.05 44.0 65.8 44.3 57.45 44.5 50.7 42.75 44.4 41.05 42.65 36.6 41.15 32.65 43.85 27.95 46.5 23.3 51.9 20.4 57.8 17.3 64.75 17.85" fill="#fca48c" fill-rule="evenodd" stroke="none"/>
    <path d="M-73.75 16.7 Q-61.9 18.85 -57.45 27.05 -55.65 30.4 -55.9 33.75 -56.15 37.0 -58.35 39.05 -62.4 42.8 -72.7 43.1 -81.05 43.3 -87.85 41.55 -94.15 39.85 -95.8 35.45 -97.35 31.45 -94.7 26.75 -92.0 22.15 -86.55 19.25 -80.65 16.15 -73.75 16.7" fill="#fca48c" fill-rule="evenodd" stroke="none"/>
    <path d="M14.0 -138.5 Q20.25 -143.15 28.9 -136.0 35.6 -130.45 39.5 -122.6 41.05 -124.55 47.05 -127.8 53.1 -131.05 55.45 -130.85 50.25 -129.55 42.35 -121.75 35.75 -115.2 32.2 -109.65 32.45 -119.55 28.45 -127.2 23.6 -136.6 14.0 -138.5" fill="#ca0002" fill-rule="evenodd" stroke="none"/>
    <path d="M57.95 -95.25 Q59.55 -91.55 57.95 -75.5 L55.9 -55.5 Q55.9 -53.25 53.1 -50.1 49.6 -46.05 43.95 -45.0 46.6 -47.3 49.0 -53.75 51.75 -60.75 52.1 -67.95 53.15 -87.3 37.5 -92.2 L48.15 -91.85 Q52.35 -92.55 57.95 -95.25" fill="#ca0002" fill-rule="evenodd" stroke="none"/>
    <path d="M3.5 -70.95 Q4.15 -70.8 4.3 -70.25 L4.35 -69.4 4.2 -67.4 Q4.15 -66.05 3.9 -65.55 L3.0 -65.45 Q2.45 -65.5 2.2 -65.95 L2.45 -68.55 2.4 -69.0 2.15 -69.15 -1.0 -69.4 Q-1.45 -69.85 -1.35 -70.45 -1.25 -71.15 -0.85 -71.4 L3.5 -70.95 M0.75 -67.55 L0.7 -64.3 3.35 -63.6 3.3 -62.45 2.75 -61.85 1.4 -62.15 0.2 -62.35 -1.7 -62.7 -3.85 -62.8 Q-4.15 -63.15 -4.1 -63.65 L-3.9 -64.5 -2.6 -64.65 -1.2 -64.6 -1.2 -66.25 -1.05 -67.75 Q-0.95 -68.1 -0.15 -68.0 0.75 -67.85 0.75 -67.55" fill="#ffffff" fill-rule="evenodd" stroke="none"/>
    <path d="M13.35 -67.5 L13.3 -66.55 Q13.1 -66.05 12.3 -66.05 12.05 -66.25 11.75 -66.4 L11.25 -67.0 10.85 -68.2 10.7 -69.1 Q10.7 -69.5 11.1 -69.75 L11.8 -70.05 Q12.2 -70.0 12.6 -69.1 L13.05 -68.05 13.35 -67.5 M14.5 -64.0 Q14.65 -63.1 13.9 -63.1 13.4 -62.95 12.9 -63.1 L11.9 -63.2 10.75 -63.45 9.5 -63.7 6.9 -63.95 Q6.3 -64.3 6.35 -65.15 6.45 -66.0 7.4 -65.85 L14.1 -65.05 Q14.5 -64.95 14.5 -64.0 M7.55 -61.65 Q8.65 -62.85 10.0 -62.85 11.0 -62.85 11.5 -62.25 L12.0 -60.8 Q12.0 -59.4 10.75 -58.2 9.6 -56.95 8.4 -56.95 7.15 -56.95 6.85 -57.75 6.5 -58.65 6.5 -59.1 6.5 -60.45 7.55 -61.65 M8.95 -59.15 L9.6 -59.65 9.95 -60.3 9.95 -60.75 Q9.75 -60.95 9.5 -60.75 L8.9 -60.35 8.5 -59.8 8.5 -59.25 Q8.55 -59.0 8.95 -59.15 M13.35 -56.5 Q14.65 -57.55 15.8 -57.4 16.75 -57.3 17.3 -56.4 17.85 -55.55 17.65 -54.8 17.5 -54.0 16.25 -52.65 15.0 -51.3 13.85 -51.4 12.55 -51.45 12.25 -52.45 L12.05 -54.0 Q12.2 -55.4 13.35 -56.5 M14.4 -53.7 L15.2 -54.25 15.55 -54.85 15.55 -55.35 15.15 -55.3 14.5 -54.9 14.15 -54.35 14.0 -53.8 Q14.0 -53.45 14.4 -53.7 M20.35 -65.5 Q21.05 -65.05 20.75 -64.45 L20.4 -63.6 19.7 -63.7 18.6 -63.8 18.45 -63.3 18.45 -62.65 20.2 -62.3 Q20.7 -61.8 20.65 -61.25 20.6 -60.65 20.05 -60.3 L19.0 -60.55 18.25 -60.6 18.05 -59.95 18.0 -59.3 Q17.75 -58.7 16.85 -59.05 15.95 -59.25 16.0 -59.7 L17.05 -67.45 Q17.4 -67.8 18.15 -67.75 18.9 -67.6 19.15 -67.1 18.85 -65.95 19.0 -65.85 19.15 -65.7 19.6 -65.65 L20.35 -65.5" fill="#ffffff" fill-rule="evenodd" stroke="none"/>
    <path d="M35.3 -64.4 L35.25 -63.6 35.0 -62.35 35.0 -62.1 36.05 -61.85 Q36.85 -61.7 37.25 -61.3 L37.2 -60.5 Q37.15 -60.1 36.7 -59.65 L34.7 -60.0 34.2 -57.5 33.15 -57.6 Q32.8 -57.65 32.45 -58.05 L32.45 -58.7 32.55 -59.2 33.25 -64.45 34.35 -64.7 35.3 -64.4 M29.15 -64.15 L29.4 -63.15 28.85 -60.0 Q28.7 -59.3 28.4 -59.05 28.0 -58.75 27.35 -58.75 L24.25 -58.95 Q23.55 -58.95 23.05 -59.3 22.7 -59.65 22.75 -60.45 L23.05 -62.25 23.1 -64.15 23.8 -64.8 24.7 -64.9 28.3 -64.7 Q29.0 -64.6 29.15 -64.15 M26.35 -62.8 L25.1 -62.85 24.75 -60.95 25.8 -60.85 26.8 -60.8 26.95 -60.85 27.0 -61.05 27.2 -61.85 27.25 -62.75 26.35 -62.8 M27.75 -57.45 L28.5 -56.85 28.05 -53.9 28.1 -53.7 28.3 -53.65 29.95 -53.45 31.65 -53.15 Q31.85 -52.7 31.7 -52.1 31.6 -51.45 31.2 -51.3 L28.3 -51.6 26.95 -51.75 26.25 -52.15 Q25.95 -52.4 25.95 -52.9 L26.2 -55.5 Q26.25 -56.5 26.7 -57.45 L27.75 -57.45" fill="#ffffff" fill-rule="evenodd" stroke="none"/>
    <path d="M46.75 -64.65 L42.45 -65.15 42.05 -62.45 47.15 -61.7 Q47.5 -60.75 47.1 -60.2 46.75 -59.65 46.3 -59.65 L41.9 -60.3 Q40.75 -60.35 40.3 -60.75 39.95 -61.1 40.0 -62.1 L40.25 -64.1 40.4 -65.8 Q40.4 -66.55 40.65 -66.9 40.95 -67.35 41.8 -67.25 L44.4 -66.95 47.3 -66.55 Q47.65 -66.4 47.55 -65.45 47.35 -64.6 46.75 -64.65 M39.75 -58.05 L46.8 -57.2 Q47.15 -56.9 46.9 -56.0 L46.75 -55.2 46.35 -55.2 44.45 -55.45 44.15 -52.65 Q44.15 -52.3 43.15 -52.3 42.3 -52.2 42.15 -52.8 L42.35 -54.45 42.4 -55.75 39.45 -56.0 Q38.85 -56.1 39.0 -57.1 39.2 -58.1 39.75 -58.05" fill="#ffffff" fill-rule="evenodd" stroke="none"/>
    <path d="M33.05 119.15 Q33.1 120.15 32.75 120.5 L31.95 120.65 Q27.8 119.8 11.9 108.95 -4.05 98.1 -15.55 103.55 L-16.05 103.8 -16.25 103.85 -16.4 103.95 -16.55 104.0 -17.0 104.2 Q-21.55 106.4 -25.0 108.45 -21.75 101.0 -16.75 97.3 -11.85 93.6 -8.8 92.15 12.1 94.3 20.5 108.45 28.9 122.55 33.05 119.15" fill="#c10000" fill-rule="evenodd" stroke="none"/>
    <path d="M-25.0 108.45 Q-29.4 111.0 -31.95 113.3 -36.85 117.7 -39.9 116.85 -28.35 80.5 -7.05 79.45 14.2 78.4 25.15 99.95 32.8 115.05 33.05 119.15 28.9 122.55 20.5 108.45 12.1 94.3 -8.8 92.15 -11.85 93.6 -16.75 97.3 -21.75 101.0 -25.0 108.45" fill="#5d0406" fill-rule="evenodd" stroke="none"/>
  </g>
</svg>
