<?xml version="1.0" encoding="UTF-8" standalone="no"?>
<svg xmlns:ffdec="https://www.free-decompiler.com/flash" xmlns:xlink="http://www.w3.org/1999/xlink" ffdec:objectType="shape" height="105.1px" width="149.9px" xmlns="http://www.w3.org/2000/svg">
  <g transform="matrix(1.0, 0.0, 0.0, 1.0, 80.9, 74.6)">
    <path d="M51.75 -39.45 L64.05 -19.35 Q70.8 -8.3 68.3 -3.1 65.75 2.1 56.9 10.65 48.65 18.6 37.2 23.95 25.7 29.35 15.2 30.15 5.7 30.85 -6.5 30.15 -19.55 29.35 -27.95 27.3 -49.95 21.75 -61.95 17.0 -72.9 12.65 -77.6 4.7 -81.9 -2.5 -80.5 -7.5 -79.15 -12.55 -73.15 -23.55 -67.2 -34.6 -64.1 -41.45 -61.05 -48.3 -52.85 -56.45 -44.65 -64.65 -24.6 -71.3 -4.55 -77.95 12.85 -71.25 30.25 -64.6 40.7 -53.7 46.2 -48.45 51.75 -39.45" fill="#cc3300" fill-rule="evenodd" stroke="none"/>
    <path d="M60.55 -29.95 L60.2 -29.0 59.65 -30.05 Q59.35 -30.65 59.35 -31.4 L59.35 -31.65 60.55 -29.95" fill="#feecbf" fill-rule="evenodd" stroke="none"/>
    <path d="M39.1 -18.95 Q41.75 -17.5 42.55 -14.4 44.9 -5.35 54.0 -5.15 60.8 -4.95 61.8 -11.15 62.65 -16.6 62.05 -22.1 64.25 -17.85 65.45 -13.1 66.6 -8.45 65.9 -4.0 64.35 -2.1 62.1 -0.65 59.45 1.05 56.2 1.4 47.8 2.4 42.6 -2.25 41.45 10.45 28.15 15.9 18.4 19.85 0.3 19.95 -10.2 20.75 -34.65 12.3 -49.0 7.4 -51.45 -2.85 L-52.5 -1.75 Q-61.5 7.45 -74.7 4.5 L-75.3 4.35 -76.7 4.45 -76.9 4.2 -78.75 1.2 Q-79.6 -0.8 -80.9 -2.3 -80.45 -7.85 -78.2 -13.25 L-78.25 -12.25 -78.15 -8.85 Q-76.15 -7.45 -75.45 -4.85 -75.1 -3.6 -74.25 -2.5 -73.45 -1.55 -72.25 -1.45 -61.85 -0.2 -55.25 -8.3 L-48.7 -15.8 Q-45.2 -19.75 -43.8 -22.15 -35.5 -29.3 -27.7 -32.35 -17.5 -36.4 1.35 -35.15 20.2 -33.95 39.1 -18.95" fill="#b42e01" fill-rule="evenodd" stroke="none"/>
  </g>
</svg>
