<?xml version="1.0" encoding="UTF-8" standalone="no"?>
<svg xmlns:ffdec="https://www.free-decompiler.com/flash" xmlns:xlink="http://www.w3.org/1999/xlink" ffdec:objectType="shape" height="149.25px" width="254.2px" xmlns="http://www.w3.org/2000/svg">
  <g transform="matrix(1.0, 0.0, 0.0, 1.0, 127.05, 74.6)">
    <path d="M-48.9 1.1 L-33.85 -0.4 Q-21.05 -2.35 -9.35 -7.15 2.4 -11.9 13.35 -18.1 24.15 -24.25 34.85 -31.3 L58.25 -46.35 80.6 -60.5 Q91.65 -67.55 103.1 -72.5 118.3 -79.05 125.45 -65.35 L125.75 -64.85 Q125.55 -56.2 119.95 -49.15 118.25 -47.0 116.05 -45.4 100.55 -33.95 82.45 -27.35 L79.65 -26.65 Q57.8 -19.65 35.5 -14.7 18.05 -10.85 3.45 -0.15 0.05 2.35 -2.65 5.35 L-8.4 11.2 -12.15 13.5 Q-22.15 19.65 -28.05 29.1 -33.95 38.45 -43.3 49.9 -52.65 61.35 -61.2 67.05 -69.75 72.7 -79.6 74.25 -89.45 75.8 -102.0 71.05 -115.4 66.0 -122.2 54.75 -126.35 47.85 -126.95 40.15 L-126.95 40.1 Q-126.5 33.4 -123.45 27.25 -118.55 17.55 -108.75 11.75 -96.6 6.65 -83.5 5.35 -80.8 5.05 -78.3 4.15 L-71.5 3.6 -48.9 1.1 M105.8 -50.75 Q111.4 -51.35 115.25 -56.7 119.0 -61.9 116.5 -65.45 115.75 -69.8 109.8 -70.35 101.2 -67.75 97.65 -60.6 L97.5 -60.45 96.4 -59.15 95.8 -58.6 Q94.0 -56.9 94.65 -54.7 L94.75 -54.35 Q94.45 -49.45 99.6 -49.5 L100.2 -49.5 100.55 -49.55 100.05 -49.5 101.95 -49.75 105.8 -50.75 M-48.2 19.95 L-48.05 19.25 Q-47.8 17.25 -49.45 15.7 L-53.3 12.65 -53.6 13.1 Q-53.35 18.0 -54.85 30.2 L-55.55 30.45 -55.0 31.9 Q-55.85 35.7 -60.3 43.0 -65.9 52.15 -73.3 54.5 -80.75 56.85 -87.35 55.9 L-99.95 53.35 Q-105.9 51.7 -104.0 54.75 -100.4 59.1 -95.0 60.85 -75.5 67.05 -59.9 54.95 -48.95 46.4 -46.05 33.05 -44.45 25.45 -48.2 19.95" fill="#cce0ee" fill-rule="evenodd" stroke="none"/>
    <path d="M-8.4 11.2 L-2.65 5.35 Q0.05 2.35 3.45 -0.15 18.05 -10.85 35.5 -14.7 57.8 -19.65 79.65 -26.65 L82.45 -27.35 Q100.55 -33.95 116.05 -45.4 118.25 -47.0 119.95 -49.15 125.55 -56.2 125.75 -64.85 127.35 -62.0 127.1 -55.95 L127.1 -55.7 127.05 -55.35 127.05 -54.9 127.0 -54.45 127.0 -54.05 126.95 -53.55 Q126.15 -45.1 116.0 -38.55 105.8 -32.05 92.8 -27.95 79.75 -23.85 63.5 -20.45 47.2 -17.1 34.4 -11.5 21.6 -5.95 9.7 0.7 L6.8 2.35 6.05 2.75 5.5 3.05 -7.6 10.7 -8.45 11.25 -8.4 11.2 M97.65 -60.6 Q101.2 -67.75 109.8 -70.35 115.75 -69.8 116.5 -65.45 119.0 -61.9 115.25 -56.7 111.4 -51.35 105.8 -50.75 L108.1 -51.75 Q109.95 -52.65 110.55 -54.55 111.15 -56.55 111.15 -58.05 L111.65 -60.1 Q111.85 -63.85 105.95 -64.15 L105.8 -64.15 105.65 -64.15 105.55 -64.15 Q104.35 -63.85 103.2 -63.35 100.1 -62.95 97.65 -60.6 M100.05 -49.5 L100.55 -49.55 100.2 -49.5 99.6 -49.5 100.05 -49.5 M-53.6 13.1 L-53.3 12.65 -49.45 15.7 Q-47.8 17.25 -48.05 19.25 L-48.2 19.95 -48.3 19.8 -48.35 19.75 -48.55 19.25 Q-50.4 15.4 -53.6 13.1 M-55.0 31.9 L-55.55 30.45 -54.85 30.2 -55.0 31.9" fill="#bcd0e5" fill-rule="evenodd" stroke="none"/>
    <path d="M-48.9 1.1 L-71.5 3.6 -78.3 4.15 Q-80.8 5.05 -83.5 5.35 -96.6 6.65 -108.75 11.75 -118.55 17.55 -123.45 27.25 -126.5 33.4 -126.95 40.1 -127.3 35.1 -126.2 29.75 -125.5 26.5 -124.3 23.6 L-117.35 13.45 -117.15 13.3 -116.95 13.1 -116.8 12.95 -116.6 12.75 -116.4 12.6 -116.2 12.4 -115.95 12.25 -115.7 12.05 -115.6 11.95 -115.5 11.85 -115.4 11.75 -115.25 11.65 -114.95 11.4 -114.6 11.1 -114.45 11.0 -114.05 10.7 -113.95 10.6 -113.8 10.5 -113.65 10.4 -113.55 10.3 -113.4 10.2 -112.95 9.9 -112.8 9.8 -112.65 9.7 -112.5 9.6 Q-101.45 2.3 -87.85 1.55 L-74.65 1.05 Q-67.35 0.95 -60.1 1.15 L-58.3 1.2 -53.95 1.25 -48.9 1.1 M-53.6 13.1 Q-50.4 15.4 -48.55 19.25 L-48.35 19.75 -48.3 19.8 -48.2 19.95 Q-44.45 25.45 -46.05 33.05 -48.95 46.4 -59.9 54.95 -75.5 67.05 -95.0 60.85 -100.4 59.1 -104.0 54.75 -105.9 51.7 -99.95 53.35 L-87.35 55.9 Q-80.75 56.85 -73.3 54.5 -65.9 52.15 -60.3 43.0 -55.85 35.7 -55.0 31.9 L-54.85 30.2 Q-53.35 18.0 -53.6 13.1" fill="#e0ecf4" fill-rule="evenodd" stroke="none"/>
  </g>
</svg>
