<?xml version="1.0" encoding="UTF-8" standalone="no"?>
<svg xmlns:ffdec="https://www.free-decompiler.com/flash" xmlns:xlink="http://www.w3.org/1999/xlink" ffdec:objectType="shape" height="171.2px" width="215.75px" xmlns="http://www.w3.org/2000/svg">
  <g transform="matrix(1.0, 0.0, 0.0, 1.0, 107.85, 85.6)">
    <path d="M-68.5 70.45 L-75.2 85.6 -75.2 72.35 -68.5 65.1 -68.5 70.45" fill="#51006a" fill-rule="evenodd" stroke="none"/>
    <path d="M-75.2 85.6 L-89.8 85.6 -89.8 72.35 -75.2 72.35 -75.2 85.6" fill="#814190" fill-rule="evenodd" stroke="none"/>
    <path d="M69.75 70.45 L69.75 65.1 76.4 72.35 76.4 85.6 69.75 70.45" fill="#51006a" fill-rule="evenodd" stroke="none"/>
    <path d="M91.0 72.35 L91.0 85.6 76.4 85.6 76.4 72.35 91.0 72.35" fill="#814190" fill-rule="evenodd" stroke="none"/>
    <path d="M-107.7 29.35 L-81.95 23.1 Q-66.25 19.85 -55.75 20.0 -45.6 20.15 -22.95 19.4 1.35 18.65 9.85 18.65 64.0 18.65 73.9 18.0 78.7 17.7 90.8 21.05 104.15 24.7 107.65 25.0 107.1 29.1 105.85 50.05 104.65 70.3 103.85 75.45 93.9 75.8 58.35 75.8 26.2 75.85 12.8 76.6 3.55 77.15 -12.7 76.1 -18.35 75.7 -36.75 76.2 -56.1 76.7 -60.9 76.5 -66.75 76.25 -81.05 76.3 -93.95 76.35 -101.15 75.9 -102.3 72.35 -104.5 52.35 -106.65 32.45 -107.7 29.35" fill="#527db9" fill-rule="evenodd" stroke="none"/>
    <path d="M45.3 35.55 L51.8 35.65 Q51.45 37.95 50.6 50.35 49.75 62.2 49.2 65.25 3.4 65.15 -13.3 65.95 -20.0 66.3 -30.8 65.65 -34.7 65.4 -47.35 65.7 L-63.9 65.9 Q-82.4 66.05 -91.55 65.55 L-92.65 60.4 -69.9 60.55 -53.35 60.35 Q-40.7 60.05 -36.8 60.3 -26.0 60.95 -19.3 60.6 -2.6 59.8 43.2 59.9 L45.3 35.55" fill="#84a0cb" fill-rule="evenodd" stroke="none"/>
    <path d="M-96.05 38.2 L-58.0 36.75 Q-29.35 35.9 -19.7 35.9 L45.3 35.55 43.2 59.9 Q-2.6 59.8 -19.3 60.6 -26.0 60.95 -36.8 60.3 -40.7 60.05 -53.35 60.35 L-69.9 60.55 -92.65 60.4 Q-94.95 41.0 -96.05 38.2" fill="#698dc1" fill-rule="evenodd" stroke="none"/>
    <path d="M-84.95 -54.45 Q-83.6 -59.3 -82.2 -65.2 L-81.75 -67.25 -51.0 -69.5 -43.4 -69.95 -3.25 -69.9 Q29.3 -69.7 36.15 -70.0 L39.05 -70.15 Q45.9 -70.6 64.5 -70.1 66.2 -70.1 67.6 -67.7 L72.45 -58.1 73.55 -55.95 Q77.2 -49.05 93.5 -13.9 L94.8 -10.95 Q96.7 -6.35 101.0 7.25 104.55 18.5 107.9 24.85 L89.15 26.25 72.8 26.65 54.65 27.2 Q12.6 27.65 2.4 28.3 -11.95 29.3 -51.7 28.6 -91.4 27.95 -107.85 29.05 L-105.25 17.0 Q-102.45 5.5 -98.65 -7.45 L-94.2 -22.6 -86.8 -47.75 -84.95 -54.45" fill="#84a0cb" fill-rule="evenodd" stroke="none"/>
    <path d="M-59.85 -13.9 Q-60.55 -31.2 -49.55 -43.0 -38.2 -55.1 -15.6 -59.95 34.85 -67.75 51.15 -27.65 52.9 -23.2 53.3 -18.75 36.4 -55.05 -11.95 -47.55 -34.5 -42.7 -45.85 -30.6 -56.85 -18.85 -56.2 -1.5 L-56.2 -1.05 Q-59.65 -6.8 -59.85 -13.9" fill="#527db9" fill-rule="evenodd" stroke="none"/>
    <path d="M-56.2 -1.05 L-56.2 -1.5 Q-56.85 -18.85 -45.85 -30.6 -34.5 -42.7 -11.95 -47.55 36.4 -55.05 53.3 -18.75 54.45 -3.85 41.15 7.5 28.3 18.4 11.55 18.55 -11.5 18.75 -25.95 15.9 -48.65 11.35 -56.2 -1.05" fill="#0d095e" fill-rule="evenodd" stroke="none"/>
    <path d="M-66.4 -10.55 L-70.2 -38.7 -64.25 -28.5 -60.45 2.15 -66.4 -10.55" fill="#51006a" fill-rule="evenodd" stroke="none"/>
    <path d="M-70.2 -38.7 L-48.95 -40.4 -46.4 -35.75 -64.25 -28.5 -70.2 -38.7" fill="#793689" fill-rule="evenodd" stroke="none"/>
    <path d="M-58.1 -25.75 L-55.75 -1.2 -60.4 2.4 -64.25 -28.3 -46.4 -35.95 -48.5 -32.35 -58.1 -25.75" fill="#935a9f" fill-rule="evenodd" stroke="none"/>
    <path d="M-38.8 -80.55 L-34.7 -55.6 -43.65 -48.85 -48.3 -77.8 -38.8 -80.55" fill="#793689" fill-rule="evenodd" stroke="none"/>
    <path d="M-52.15 -80.35 L-43.25 -84.6 -29.0 -73.55 -35.4 -69.75 -52.15 -80.35" fill="#51006a" fill-rule="evenodd" stroke="none"/>
    <path d="M-47.45 -52.0 L-52.1 -80.35 -35.6 -69.75 -36.85 -68.45 -47.9 -74.6 -43.45 -49.0 -47.45 -52.0" fill="#935a9f" fill-rule="evenodd" stroke="none"/>
    <path d="M61.65 -9.9 L55.7 2.85 59.5 -27.85 65.45 -38.05 61.65 -9.9" fill="#51006a" fill-rule="evenodd" stroke="none"/>
    <path d="M65.45 -38.05 L59.5 -27.85 41.7 -35.05 44.2 -39.75 65.45 -38.05" fill="#793689" fill-rule="evenodd" stroke="none"/>
    <path d="M53.35 -25.1 L43.8 -31.65 41.65 -35.3 59.5 -27.65 55.7 3.1 51.05 -0.55 53.35 -25.1" fill="#935a9f" fill-rule="evenodd" stroke="none"/>
    <path d="M28.3 -56.6 L32.4 -81.55 41.9 -78.8 37.25 -49.8 28.3 -56.6" fill="#793689" fill-rule="evenodd" stroke="none"/>
    <path d="M36.85 -85.6 L45.75 -81.3 29.0 -70.7 22.6 -74.55 36.85 -85.6" fill="#51006a" fill-rule="evenodd" stroke="none"/>
    <path d="M29.2 -70.7 L45.7 -81.3 41.05 -52.95 37.05 -50.0 41.5 -75.6 30.45 -69.45 29.2 -70.7" fill="#935a9f" fill-rule="evenodd" stroke="none"/>
    <path d="M-24.45 -22.95 Q-24.6 -30.85 -19.75 -36.3 -14.55 -42.05 -4.3 -44.35 18.6 -48.05 26.1 -29.05 26.85 -27.05 27.05 -25.05 24.4 -28.15 19.9 -31.05 15.4 -33.95 6.25 -35.35 -2.95 -36.8 -11.3 -33.1 -19.25 -29.6 -24.45 -22.95 M-40.7 -18.45 Q-40.2 -14.45 -38.3 -11.05 -29.5 3.95 9.9 3.5 21.8 3.35 30.9 -4.7 37.95 -11.0 39.3 -18.7 L39.55 -16.5 Q40.4 -3.35 30.9 6.55 21.8 16.15 9.9 16.3 -29.55 16.8 -38.3 -0.95 -40.7 -6.05 -40.9 -12.2 -41.0 -15.45 -40.7 -18.45" fill="#5d6466" fill-rule="evenodd" stroke="none"/>
    <path d="M27.05 -25.05 Q26.85 -27.05 26.1 -29.05 18.6 -48.05 -4.3 -44.35 -14.55 -42.05 -19.75 -36.3 -24.6 -30.85 -24.45 -22.95 L-24.45 -22.5 -24.3 -21.15 Q-24.0 -18.6 -22.8 -16.45 -17.15 -6.85 8.1 -7.15 15.7 -7.2 21.5 -12.35 26.05 -16.4 26.9 -21.35 27.2 -23.05 27.05 -24.85 L27.05 -25.05 M-40.7 -18.45 L-40.9 -20.55 Q-41.4 -33.4 -33.55 -42.1 -25.5 -51.1 -9.45 -54.65 26.35 -60.4 38.05 -30.75 39.25 -27.5 39.55 -24.15 39.75 -21.35 39.3 -18.7 37.95 -11.0 30.9 -4.7 21.8 3.35 9.9 3.5 -29.5 3.95 -38.3 -11.05 -40.2 -14.45 -40.7 -18.45" fill="#787f81" fill-rule="evenodd" stroke="none"/>
    <path d="M6.1 -48.7 Q6.15 -47.1 4.9 -45.95 3.6 -44.85 2.0 -44.85 -3.4 -44.7 -4.6 -46.85 -4.95 -47.4 -4.95 -48.15 -5.15 -51.85 -0.7 -52.85 4.3 -53.7 5.85 -49.6 L6.1 -48.7" fill="#0d095e" fill-rule="evenodd" stroke="none"/>
    <path d="M-20.3 -43.1 Q-18.9 -42.45 -18.5 -40.75 -18.2 -39.05 -19.0 -37.7 -21.65 -32.95 -24.1 -32.9 L-25.4 -33.25 Q-28.7 -34.95 -27.3 -39.35 -25.5 -44.05 -21.2 -43.35 L-20.3 -43.1" fill="#0d095e" fill-rule="evenodd" stroke="none"/>
    <path d="M-28.5 -17.1 Q-27.2 -17.95 -25.5 -17.4 -23.95 -16.85 -23.1 -15.45 -20.4 -10.7 -21.55 -8.7 L-22.5 -7.7 Q-25.65 -5.7 -28.75 -9.1 -31.85 -13.0 -29.15 -16.45 L-28.5 -17.1" fill="#0d095e" fill-rule="evenodd" stroke="none"/>
    <path d="M5.2 -11.7 L5.55 -10.4 Q5.7 -6.65 1.2 -5.65 -3.75 -4.9 -5.35 -9.0 L-5.6 -9.9 Q-5.65 -11.4 -4.35 -12.55 -3.1 -13.7 -1.45 -13.7 4.0 -13.7 5.2 -11.7" fill="#0d095e" fill-rule="evenodd" stroke="none"/>
    <path d="M22.65 -9.4 Q21.25 -10.05 20.95 -11.75 20.55 -13.4 21.35 -14.85 24.0 -19.55 26.45 -19.55 L27.75 -19.25 Q31.0 -17.5 29.65 -13.15 27.9 -8.55 23.55 -9.1 L22.65 -9.4" fill="#0d095e" fill-rule="evenodd" stroke="none"/>
    <path d="M27.9 -34.25 Q26.6 -33.4 24.9 -33.9 23.35 -34.45 22.5 -35.85 19.75 -40.65 20.9 -42.65 L21.9 -43.6 Q25.05 -45.55 28.1 -42.2 31.25 -38.35 28.55 -34.9 L27.9 -34.25" fill="#0d095e" fill-rule="evenodd" stroke="none"/>
    <path d="M-79.85 43.0 Q-79.25 42.95 -78.9 43.3 -78.6 43.75 -78.6 44.25 -78.6 44.65 -78.9 45.1 -79.25 45.6 -79.8 45.6 -80.1 45.6 -80.65 45.2 -81.15 44.75 -81.15 44.3 L-80.85 43.45 Q-80.45 43.0 -79.85 43.0 M-81.25 49.05 Q-80.85 48.35 -80.2 48.35 -79.5 48.35 -79.35 49.15 L-79.35 52.3 -79.1 54.05 -79.1 55.05 -79.2 56.2 Q-79.5 56.7 -80.15 56.7 -80.8 56.8 -81.05 56.0 L-81.0 54.9 -81.05 53.8 -81.3 52.6 -81.4 51.4 -81.25 49.05" fill="#fee8b2" fill-rule="evenodd" stroke="none"/>
    <path d="M-67.0 46.95 Q-65.3 47.1 -64.35 48.65 -63.35 50.25 -63.35 51.45 -63.35 52.15 -63.65 53.1 L-64.45 54.75 Q-65.4 56.0 -67.05 56.45 L-70.45 56.85 Q-71.2 56.85 -71.55 56.2 L-71.85 55.1 -72.25 52.1 -73.6 40.15 Q-73.3 39.65 -72.65 39.65 -72.0 39.65 -71.65 40.1 L-71.15 43.05 -70.65 47.95 -68.85 47.2 -67.85 46.9 -67.0 46.95 M-65.75 49.7 Q-66.25 48.8 -67.0 48.8 L-68.5 49.05 Q-69.35 49.4 -69.9 49.8 L-70.15 49.95 -70.3 50.15 -70.3 50.75 -70.2 52.6 -69.9 54.75 -69.85 54.9 -69.6 54.95 -67.95 54.8 Q-67.3 54.65 -66.55 54.1 L-65.6 52.9 Q-65.25 52.05 -65.25 51.35 -65.25 50.7 -65.75 49.7" fill="#fee8b2" fill-rule="evenodd" stroke="none"/>
    <path d="M-59.0 44.6 Q-58.9 44.25 -57.55 43.95 L-57.0 44.75 -56.8 45.5 -56.65 47.15 -54.5 46.25 -54.0 46.15 -52.25 46.25 Q-51.65 46.8 -51.8 47.35 -51.95 47.95 -52.3 48.15 L-53.35 48.2 -54.4 48.4 -55.4 48.9 Q-56.1 49.15 -56.3 49.55 L-56.4 50.5 -56.3 51.4 -56.3 52.6 -56.35 53.7 Q-56.6 54.05 -57.1 54.1 L-57.85 54.1 Q-58.25 53.7 -58.35 51.6 L-58.55 48.3 -58.65 47.8 -58.75 46.1 -59.0 44.6" fill="#fee8b2" fill-rule="evenodd" stroke="none"/>
    <path d="M-41.8 45.55 L-41.6 45.55 -41.3 45.55 -40.65 45.85 -40.2 46.4 -39.8 47.75 -39.4 49.05 -38.15 51.35 -36.7 53.6 -35.95 54.3 -35.15 54.95 Q-35.05 55.2 -35.4 55.7 -35.7 56.25 -36.05 56.3 L-37.65 55.25 -38.8 53.75 -40.05 51.8 -40.75 53.95 Q-41.2 55.15 -42.35 56.6 -43.55 58.05 -45.05 57.9 -47.45 57.7 -48.05 55.65 L-48.7 52.9 Q-48.7 51.35 -47.65 48.55 -46.65 45.85 -43.3 45.4 L-41.8 45.55 M-41.8 48.3 L-42.0 47.65 Q-42.15 47.3 -42.75 47.35 -45.0 47.45 -45.85 49.35 -46.7 51.35 -46.7 52.75 -46.7 53.85 -46.3 54.95 -45.9 56.0 -44.85 56.0 -44.0 55.95 -43.55 55.15 L-42.65 53.3 -42.1 52.05 -41.75 50.75 -41.6 49.65 -41.8 48.3" fill="#fee8b2" fill-rule="evenodd" stroke="none"/>
    <path d="M-23.25 45.55 L-22.3 45.7 Q-21.75 45.95 -21.6 46.6 L-23.05 49.0 -25.8 53.55 -27.45 55.65 Q-27.8 56.1 -28.45 55.95 -29.1 55.7 -29.25 55.3 L-29.55 54.45 -30.5 51.6 -31.05 49.5 -31.75 45.1 -31.15 44.5 -30.1 44.3 Q-29.7 45.15 -29.4 46.5 L-28.4 51.45 -27.9 52.95 -27.25 52.2 -24.2 46.9 -23.25 45.55" fill="#fee8b2" fill-rule="evenodd" stroke="none"/>
    <path d="M-9.8 45.75 L-9.05 46.7 -8.7 47.75 Q-8.45 48.5 -8.7 49.95 L-9.05 52.0 Q-9.35 52.9 -10.0 53.75 -10.6 54.5 -11.55 55.05 L-13.2 55.7 -14.7 56.0 Q-16.2 55.9 -17.15 54.6 -18.15 53.25 -18.45 51.95 L-18.55 50.75 -18.5 49.55 Q-18.2 48.15 -16.95 46.9 -15.7 45.55 -14.3 45.2 L-12.0 45.1 Q-10.5 45.25 -9.8 45.75 M-13.65 47.1 Q-14.85 47.35 -15.7 48.4 -16.55 49.4 -16.5 50.85 L-15.95 52.85 Q-15.45 54.05 -14.7 54.05 L-13.65 53.9 -12.35 53.3 -11.55 52.45 -11.0 51.45 -10.65 49.75 Q-10.5 48.45 -10.7 48.05 L-11.0 47.5 -11.3 47.1 -12.5 46.9 -13.65 47.1" fill="#fee8b2" fill-rule="evenodd" stroke="none"/>
    <path d="M56.3 46.45 Q56.75 38.9 61.8 34.25 67.4 29.1 75.95 30.4 84.4 30.15 91.15 35.5 98.35 41.15 97.6 49.0 96.75 57.7 91.45 62.4 85.65 67.55 75.55 66.8 65.8 66.05 60.5 59.7 55.85 54.05 56.3 46.45" fill="#f3399a" fill-rule="evenodd" stroke="none"/>
    <path d="M65.2 38.95 Q70.3 34.2 78.2 35.4 86.0 35.2 92.2 40.1 98.8 45.3 98.1 52.5 97.35 60.5 92.45 64.85 87.1 69.55 77.85 68.85 68.85 68.2 64.05 62.35 59.75 57.2 60.15 50.15 60.55 43.25 65.2 38.95" fill="#f665b0" fill-rule="evenodd" stroke="none"/>
    <path d="M97.6 37.5 L68.15 73.6 64.9 68.7 84.5 27.85 94.7 32.75 97.6 37.5" fill="#f447a1" fill-rule="evenodd" stroke="none"/>
    <path d="M97.75 37.1 L78.1 77.95 67.9 73.05 87.55 32.15 97.75 37.1" fill="#f780be" fill-rule="evenodd" stroke="none"/>
  </g>
</svg>
