<?xml version="1.0" encoding="UTF-8" standalone="no"?>
<svg xmlns:ffdec="https://www.free-decompiler.com/flash" xmlns:xlink="http://www.w3.org/1999/xlink" ffdec:objectType="shape" height="17.9px" width="10.65px" xmlns="http://www.w3.org/2000/svg">
  <g transform="matrix(1.0, 0.0, 0.0, 1.0, 5.6, 9.15)">
    <path d="M1.0 -4.5 Q3.75 -1.05 4.65 1.3 6.35 5.75 0.8 8.75 -2.65 8.65 -4.55 6.4 -8.25 1.9 0.95 -9.15 -0.35 -6.3 1.0 -4.5 M2.7 6.55 Q3.05 5.25 1.5 4.0 -0.2 2.7 -0.05 -0.45 -4.05 5.0 -2.15 7.25 -1.2 8.4 0.5 8.45 2.35 7.85 2.7 6.55" fill="#ffe84c" fill-rule="evenodd" stroke="none"/>
    <path d="M2.7 6.55 Q2.35 7.85 0.5 8.45 -1.2 8.4 -2.15 7.25 -4.05 5.0 -0.05 -0.45 -0.2 2.7 1.5 4.0 3.05 5.25 2.7 6.55" fill="#fa450a" fill-rule="evenodd" stroke="none"/>
  </g>
</svg>
