<?xml version="1.0" encoding="UTF-8" standalone="no"?>
<svg xmlns:ffdec="https://www.free-decompiler.com/flash" xmlns:xlink="http://www.w3.org/1999/xlink" ffdec:objectType="shape" height="441.2px" width="382.65px" xmlns="http://www.w3.org/2000/svg">
  <g transform="matrix(1.0, 0.0, 0.0, 1.0, 129.5, 140.35)">
    <path d="M-35.8 133.0 L-28.85 128.95 Q-19.4 123.5 -0.95 125.6 13.95 127.35 26.45 132.4 35.55 136.1 39.9 139.35 45.65 143.6 49.3 150.7 55.8 163.4 56.1 179.75 L56.2 196.3 Q56.55 201.7 55.75 203.2 54.7 205.3 50.05 206.4 L30.5 207.05 10.8 205.05 -30.2 203.1 -48.0 202.7 Q-59.1 202.3 -65.55 200.65 -65.0 178.1 -60.2 161.9 -52.6 136.5 -35.8 133.0" fill="#16b114" fill-rule="evenodd" stroke="none"/>
    <path d="M-17.0 172.15 Q-17.0 174.25 -18.5 175.8 -20.0 177.3 -22.1 177.3 -24.2 177.3 -25.7 175.8 -27.2 174.25 -27.2 172.15 -27.2 170.05 -25.7 168.6 -24.2 167.1 -22.1 167.1 -20.0 167.1 -18.5 168.6 -17.0 170.05 -17.0 172.15" fill="#039d0a" fill-rule="evenodd" stroke="none"/>
    <path d="M-17.0 186.65 Q-17.0 188.75 -18.5 190.25 -20.0 191.75 -22.1 191.75 -24.2 191.75 -25.7 190.25 -27.2 188.75 -27.2 186.65 -27.2 184.55 -25.7 183.05 -24.2 181.55 -22.1 181.55 -20.0 181.55 -18.5 183.05 -17.0 184.55 -17.0 186.65" fill="#039d0a" fill-rule="evenodd" stroke="none"/>
    <path d="M15.45 172.15 Q15.45 174.25 13.95 175.8 12.45 177.3 10.35 177.3 8.25 177.3 6.75 175.8 5.3 174.25 5.3 172.15 5.3 170.05 6.75 168.6 8.25 167.1 10.35 167.1 12.45 167.1 13.95 168.6 15.45 170.05 15.45 172.15" fill="#039d0a" fill-rule="evenodd" stroke="none"/>
    <path d="M15.45 186.65 Q15.45 188.75 13.95 190.25 12.45 191.75 10.35 191.75 8.25 191.75 6.75 190.25 5.3 188.75 5.3 186.65 5.3 184.55 6.75 183.05 8.25 181.55 10.35 181.55 12.45 181.55 13.95 183.05 15.45 184.55 15.45 186.65" fill="#039d0a" fill-rule="evenodd" stroke="none"/>
    <path d="M-8.85 158.75 Q-11.95 164.8 -21.1 167.2 -29.95 169.45 -36.2 166.4 -43.45 162.85 -44.5 153.1 -45.4 144.6 -41.6 137.15 L31.0 135.85 Q39.3 134.25 47.65 150.45 53.45 161.9 54.6 171.7 L56.8 192.2 57.1 197.15 Q57.0 200.15 55.55 201.2 54.75 201.75 50.6 201.85 L45.6 201.6 Q45.5 199.8 45.9 195.65 46.35 191.75 46.1 189.5 L44.0 177.45 Q43.6 174.4 40.25 170.0 36.25 164.8 32.8 166.75 27.9 169.45 23.4 169.35 20.15 169.25 13.2 167.15 11.3 166.6 7.5 163.0 3.85 159.55 1.9 159.25 0.55 159.0 -3.3 159.25 L-8.85 158.75" fill="#039d0a" fill-rule="evenodd" stroke="none"/>
    <path d="M-12.1 291.0 Q-11.4 295.2 -16.8 297.95 -21.6 300.45 -28.95 300.8 -36.35 301.1 -41.65 299.15 -47.5 296.9 -47.7 292.65 -47.85 288.9 -42.45 286.25 -37.5 283.8 -30.4 283.3 -23.2 282.8 -18.1 284.65 -12.4 286.75 -12.1 291.0" fill="#000104" fill-rule="evenodd" stroke="none"/>
    <path d="M-25.0 282.8 Q-24.95 281.0 -25.9 271.05 -26.55 263.8 -25.3 259.6 L-19.95 260.35 -14.7 260.1 Q-13.75 268.0 -15.35 285.05 -17.9 288.2 -21.15 288.2 -23.15 288.2 -24.3 285.55 L-25.0 282.8" fill="#ffd09b" fill-rule="evenodd" stroke="none"/>
    <path d="M6.0 291.0 Q6.35 286.75 12.05 284.65 17.1 282.8 24.3 283.3 31.45 283.8 36.35 286.25 41.8 288.9 41.6 292.65 41.45 296.9 35.6 299.15 30.25 301.1 22.9 300.8 15.5 300.45 10.7 297.95 5.35 295.2 6.0 291.0" fill="#000104" fill-rule="evenodd" stroke="none"/>
    <path d="M18.9 282.8 Q18.3 288.2 15.0 288.2 13.0 288.2 10.9 286.65 L9.2 285.05 Q7.65 268.0 8.6 260.1 12.25 261.25 19.2 259.6 20.5 263.8 19.8 271.05 18.85 281.15 18.9 282.8" fill="#ffd09b" fill-rule="evenodd" stroke="none"/>
    <path d="M-38.3 225.7 L-5.8 222.1 Q-8.8 232.7 -7.8 249.45 -6.65 269.8 -7.45 276.75 -10.3 277.3 -15.25 276.8 L-23.1 276.2 -39.5 276.9 Q-40.45 267.6 -39.3 251.3 -38.0 232.95 -38.3 225.7" fill="#634301" fill-rule="evenodd" stroke="none"/>
    <path d="M-0.75 225.7 L31.7 222.1 Q28.65 232.7 29.65 249.45 30.9 269.9 30.1 276.75 27.25 277.3 22.3 276.8 L14.4 276.2 -1.95 276.9 Q-2.95 267.55 -1.8 251.3 -0.45 232.85 -0.75 225.7" fill="#634301" fill-rule="evenodd" stroke="none"/>
    <path d="M-8.2 150.9 Q-11.2 157.15 -17.6 161.4 -24.45 166.0 -30.95 165.1 -40.0 163.9 -43.8 157.25 -47.25 151.15 -45.6 142.0 -42.5 124.7 -25.9 128.95 -19.7 130.6 -13.8 137.15 -7.35 144.4 -8.2 150.9" fill="#f90203" fill-rule="evenodd" stroke="none"/>
    <path d="M-26.35 129.65 Q-24.2 130.45 -21.2 131.05 -15.55 133.4 -9.65 142.85 -7.4 146.5 -9.8 152.55 -12.05 157.95 -15.95 161.2 -19.65 164.3 -25.0 165.25 L-34.95 164.85 Q-40.05 163.5 -42.75 160.1 -45.85 156.35 -45.25 150.95 -41.95 158.55 -39.85 160.45 -35.75 164.15 -27.05 162.2 -24.2 161.55 -19.25 156.6 -13.85 151.1 -16.45 148.8 -17.7 147.7 -22.15 149.55 -26.8 151.9 -27.75 152.3 -23.3 146.35 -16.9 144.3 -19.9 141.75 -24.95 139.15 L-29.5 137.05 Q-21.0 136.75 -13.5 142.35 -15.2 135.6 -26.35 129.65" fill="#ca0002" fill-rule="evenodd" stroke="none"/>
    <path d="M0.8 150.9 Q-0.15 144.4 6.35 137.15 12.25 130.6 18.45 128.95 35.05 124.7 38.15 142.0 39.8 151.2 36.35 157.25 32.6 163.9 23.45 165.1 17.0 166.0 10.15 161.4 3.75 157.15 0.8 150.9" fill="#f90203" fill-rule="evenodd" stroke="none"/>
    <path d="M19.7 129.2 Q7.75 135.4 6.1 142.35 13.45 136.75 22.05 137.05 14.2 140.25 9.45 144.3 15.85 146.3 20.25 152.3 17.0 150.55 14.7 149.55 10.3 147.7 9.05 148.8 6.4 151.1 11.8 156.6 16.75 161.55 19.6 162.2 28.3 164.15 32.45 160.45 34.6 158.5 37.8 150.95 38.95 161.8 27.55 164.85 L17.55 165.25 Q12.2 164.3 8.5 161.2 4.55 157.95 2.4 152.55 -0.1 146.45 2.25 142.85 8.1 133.4 13.75 131.05 14.85 130.55 18.0 129.75 L19.7 129.2" fill="#ca0002" fill-rule="evenodd" stroke="none"/>
    <path d="M-9.65 156.85 Q-13.75 154.7 -14.75 150.5 -16.1 144.8 -13.0 140.7 -10.2 137.0 -5.3 136.1 -0.3 135.25 3.5 137.7 7.8 140.5 8.5 146.4 9.15 151.45 6.05 154.7 3.3 157.65 -1.35 158.25 -5.9 158.8 -9.65 156.85" fill="#ca0002" fill-rule="evenodd" stroke="none"/>
    <path d="M-10.3 154.6 Q-13.85 152.75 -14.75 149.1 -15.95 144.15 -13.25 140.6 -10.8 137.4 -6.5 136.6 -2.15 135.8 1.2 137.95 4.95 140.4 5.55 145.5 6.15 149.9 3.45 152.75 1.0 155.3 -3.0 155.8 -7.0 156.3 -10.3 154.6" fill="#f90203" fill-rule="evenodd" stroke="none"/>
    <path d="M-64.8 197.3 L-57.05 198.25 Q-51.65 198.9 -47.95 198.45 L-24.45 197.65 -0.9 197.35 Q13.7 197.15 22.55 197.65 L33.9 198.95 45.3 200.15 Q53.95 200.6 55.7 201.4 57.05 202.05 56.8 204.95 L56.0 210.95 Q55.25 217.45 55.6 230.85 56.0 244.1 55.2 250.7 34.35 250.6 -5.2 251.5 -46.4 252.45 -65.6 252.45 -67.5 248.3 -67.65 239.85 L-67.55 226.55 -67.5 211.7 Q-67.05 203.75 -64.8 197.3 M-65.6 252.45 L-65.55 252.5 -65.65 252.45 -65.6 252.45" fill="#ebebeb" fill-rule="evenodd" stroke="none"/>
    <path d="M-61.95 197.65 L-55.0 198.6 Q-50.2 199.15 -46.9 198.75 L-25.85 198.0 -4.8 197.7 Q8.4 197.55 16.15 198.0 L26.35 199.2 36.5 200.35 Q44.25 200.85 45.8 201.6 47.05 202.15 46.8 204.9 L46.1 210.55 Q45.4 216.75 45.75 229.3 46.1 241.9 45.35 248.05 26.75 247.95 -8.65 248.8 -45.5 249.75 -62.6 249.75 -64.4 245.9 -64.55 237.85 L-64.45 225.25 -64.4 211.3 Q-64.0 203.8 -61.95 197.65 M-62.6 249.75 L-62.6 249.8 -62.75 249.75 -62.6 249.75" fill="#ffffff" fill-rule="evenodd" stroke="none"/>
    <path d="M-19.15 220.9 Q-16.45 221.5 -9.5 219.75 -3.1 218.1 0.15 219.65 -1.85 222.25 -5.85 224.55 L-12.9 228.1 Q-7.25 229.15 4.4 226.45 18.15 223.3 22.1 223.2 9.0 229.5 -5.85 233.95 -23.2 239.15 -34.95 239.1 L-24.4 231.85 Q-17.9 227.4 -14.75 223.7 -18.0 224.75 -34.95 228.4 -47.4 231.1 -54.6 235.1 -51.25 230.9 -39.6 225.85 -24.85 219.55 -22.85 218.3 -15.1 213.5 1.4 207.05 L2.95 207.85 Q-4.55 210.0 -19.15 220.9" fill="#ebebeb" fill-rule="evenodd" stroke="none"/>
    <path d="M-36.8 167.85 L-33.7 162.2 Q-33.25 165.65 -35.9 174.75 -39.2 185.95 -39.6 188.45 -41.6 202.5 -43.85 208.55 L-49.95 208.4 -43.65 188.1 Q-39.8 175.8 -36.8 167.85" fill="#039d0a" fill-rule="evenodd" stroke="none"/>
    <path d="M-6.75 134.9 L-4.65 138.0 Q0.45 143.3 0.4 147.1 0.4 150.2 -3.45 155.2 -5.45 158.05 -8.6 160.3 -12.3 163.1 -14.4 162.0 -16.4 160.8 -15.3 154.2 -20.0 154.3 -20.1 150.35 -20.3 146.45 -16.2 145.05 -18.0 143.0 -16.9 140.8 -15.75 138.65 -13.1 138.45 -13.85 136.8 -12.65 134.8 -11.4 132.8 -9.4 132.75 -8.2 132.75 -6.75 134.9" fill="#ffd09b" fill-rule="evenodd" stroke="none"/>
    <path d="M-13.2 136.1 Q-11.85 134.6 -9.45 138.9 -11.2 138.05 -13.15 138.5 L-13.05 138.7 -13.7 138.65 -13.15 138.5 Q-13.75 136.6 -13.2 136.1" fill="#ffbb7e" fill-rule="evenodd" stroke="none"/>
    <path d="M-17.45 147.9 Q-19.5 149.4 -19.5 151.55 -20.55 149.85 -19.6 147.85 -18.75 145.9 -16.9 145.3 -16.8 145.1 -17.4 142.3 -16.65 142.15 -15.75 142.65 -14.0 143.7 -13.25 146.8 -15.5 146.4 -17.45 147.9" fill="#ffbb7e" fill-rule="evenodd" stroke="none"/>
    <path d="M-14.5 161.55 L-16.05 159.6 Q-16.45 158.9 -16.35 157.25 -16.15 153.35 -12.95 154.3 -16.2 159.1 -14.5 161.55" fill="#ffbb7e" fill-rule="evenodd" stroke="none"/>
    <path d="M21.5 144.65 Q53.55 150.25 56.15 162.2 60.15 180.15 29.05 173.2 12.8 169.6 -9.0 160.35 -7.6 154.4 -1.8 142.0 -0.8 140.0 9.05 141.85 L21.5 144.65" fill="#039d0a" fill-rule="evenodd" stroke="none"/>
    <path d="M46.4 172.35 Q41.0 172.6 38.75 172.25 L31.25 170.4 Q25.35 168.6 12.25 164.0 -3.0 158.65 -6.2 156.85 -7.0 156.4 -6.0 154.0 -5.05 151.55 -3.05 148.8 2.25 141.65 7.2 142.0 16.05 142.5 27.15 145.25 39.6 148.25 46.55 152.1 49.85 153.95 52.75 157.05 56.1 160.5 56.65 163.45 57.75 169.3 46.4 172.35" fill="#16b114" fill-rule="evenodd" stroke="none"/>
    <path d="M-8.45 133.25 L-10.55 136.35 Q-15.65 141.65 -15.6 145.45 -15.6 148.55 -11.75 153.55 -9.75 156.4 -6.6 158.65 -2.9 161.45 -0.8 160.35 1.2 159.15 0.1 152.55 4.8 152.65 4.9 148.7 5.1 144.8 1.0 143.4 2.8 141.35 1.7 139.15 0.55 137.0 -2.1 136.8 -1.35 135.15 -2.55 133.15 -3.8 131.15 -5.8 131.1 -7.0 131.1 -8.45 133.25" fill="#ffd09b" fill-rule="evenodd" stroke="none"/>
    <path d="M-2.0 134.45 Q-3.35 132.95 -5.75 137.25 -4.0 136.4 -2.05 136.85 L-2.15 137.05 -1.5 137.0 -2.05 136.85 Q-1.45 134.95 -2.0 134.45" fill="#ffbb7e" fill-rule="evenodd" stroke="none"/>
    <path d="M2.25 146.25 Q4.3 147.75 4.3 149.9 5.35 148.2 4.4 146.2 3.55 144.25 1.7 143.65 1.6 143.45 2.2 140.65 1.45 140.5 0.55 141.0 -1.2 142.05 -1.95 145.15 0.3 144.75 2.25 146.25" fill="#ffbb7e" fill-rule="evenodd" stroke="none"/>
    <path d="M-0.7 159.9 L0.85 157.95 Q1.25 157.25 1.15 155.6 0.95 151.7 -2.25 152.65 1.0 157.45 -0.7 159.9" fill="#ffbb7e" fill-rule="evenodd" stroke="none"/>
    <path d="M-36.7 143.0 Q-68.75 148.6 -71.35 160.55 -75.35 178.5 -44.25 171.55 -28.0 167.95 -6.2 158.7 -7.6 152.75 -13.4 140.35 -14.4 138.35 -24.25 140.2 L-36.7 143.0" fill="#039d0a" fill-rule="evenodd" stroke="none"/>
    <path d="M-61.6 170.7 Q-56.2 170.95 -53.95 170.6 L-46.45 168.75 Q-40.55 166.95 -27.45 162.35 -12.2 157.0 -9.0 155.2 -8.2 154.75 -9.2 152.35 -10.15 149.9 -12.15 147.15 -17.45 140.0 -22.4 140.35 -31.25 140.85 -42.35 143.6 -54.8 146.6 -61.75 150.45 -65.05 152.3 -67.95 155.4 -71.3 158.85 -71.85 161.8 -72.95 167.65 -61.6 170.7" fill="#16b114" fill-rule="evenodd" stroke="none"/>
    <path d="M11.05 98.2 L11.2 98.8 11.25 100.05 11.25 100.65 11.5 101.2 12.05 102.45 11.95 103.0 11.45 103.7 9.6 103.7 9.1 103.05 Q7.75 101.25 6.0 100.05 L5.85 99.5 Q4.4 97.45 2.6 95.75 L2.15 95.4 Q2.05 95.25 1.95 95.25 L-5.15 95.4 -7.85 97.35 Q-11.1 99.25 -13.65 102.05 L-14.6 101.85 -15.1 101.45 -14.95 100.9 -14.45 100.25 -14.35 99.6 -14.25 97.2 -14.25 95.4 -12.05 92.0 Q-9.6 88.25 -5.95 86.45 L1.75 86.65 Q5.25 88.9 7.5 92.45 L11.05 98.2 M7.55 96.5 L7.15 96.65 7.6 96.8 7.55 96.5 M-11.9 97.15 L-12.1 96.85 -12.25 97.4 -11.9 97.15" fill="#ffca9a" fill-rule="evenodd" stroke="none"/>
    <path d="M-68.95 95.65 Q-55.45 83.4 -37.15 78.9 -20.0 74.7 -3.4 74.05 13.15 73.35 31.05 80.2 48.9 87.05 61.85 102.65" fill="none" stroke="#330000" stroke-linecap="round" stroke-linejoin="round" stroke-width="2.0"/>
    <path d="M-120.2 3.8 Q-113.5 -1.5 -105.4 -3.0 -96.95 -4.55 -91.7 -0.9 -85.65 3.25 -86.05 13.05 L-92.0 34.35 Q-97.4 42.0 -104.85 44.1 -111.7 45.95 -118.05 42.8 -124.4 39.65 -127.4 32.9 -130.75 25.55 -128.8 16.6 -127.25 9.45 -120.2 3.8" fill="#ffe3bd" fill-rule="evenodd" stroke="none"/>
    <path d="M-113.05 9.4 Q-108.9 6.15 -103.9 5.2 -98.7 4.25 -95.45 6.55 -91.75 9.1 -92.0 15.1 L-95.65 28.25 Q-98.95 32.95 -103.6 34.3 -107.85 35.45 -111.75 33.5 -115.65 31.55 -117.5 27.4 -119.55 22.85 -118.35 17.3 -117.4 12.9 -113.05 9.4" fill="#ff9a60" fill-rule="evenodd" stroke="none"/>
    <path d="M31.5 -59.85 Q43.85 -57.05 51.8 -52.9 71.5 -48.45 81.7 -31.85 84.95 -26.55 90.05 -15.25 95.85 -2.35 99.2 3.65 108.1 19.9 109.4 39.85 110.6 58.35 105.15 77.6 94.6 114.95 55.15 130.8 21.85 144.15 -19.55 138.8 -58.05 133.8 -83.1 110.35 -110.95 84.25 -108.05 46.8 -105.35 12.25 -77.15 -18.45 -50.3 -47.75 -14.5 -58.8 6.95 -65.5 31.5 -59.85" fill="#ffca9a" fill-rule="evenodd" stroke="none"/>
    <path d="M67.45 -30.7 Q70.4 -25.35 75.05 -14.1 80.45 -1.2 83.45 4.8 91.65 21.05 92.8 41.05 93.9 59.55 88.95 78.8 79.35 115.85 43.05 129.95 13.6 141.45 -25.55 135.9 -61.5 130.9 -84.0 109.45 -109.55 85.1 -106.85 47.95 -104.4 13.4 -78.5 -17.3 -53.8 -46.55 -21.0 -57.65 -1.3 -64.3 21.25 -58.65 32.55 -55.9 39.9 -51.75 57.95 -47.25 67.45 -30.7" fill="#ffe3bd" fill-rule="evenodd" stroke="none"/>
    <path d="M-17.75 4.15 Q-17.75 7.3 -19.95 7.3 -22.15 7.3 -22.15 4.15 -22.15 1.05 -19.95 1.05 -17.75 1.05 -17.75 4.15" fill="#2d0a18" fill-rule="evenodd" stroke="none"/>
    <path d="M60.2 5.85 Q66.3 8.65 68.35 13.4 62.2 7.5 53.5 7.0 45.55 6.5 37.65 10.65 29.9 14.65 25.3 21.6 20.4 29.0 20.9 37.1 21.45 45.1 27.3 51.95 33.0 58.45 41.15 60.9 42.45 61.25 47.95 60.8 52.75 60.35 54.05 61.4 55.55 62.55 57.45 73.55 59.45 85.6 60.05 86.8 L47.05 67.8 Q31.65 61.9 22.15 58.35 18.35 56.9 14.6 51.45 10.55 45.45 9.6 38.55 7.05 19.95 28.1 9.85 48.05 0.25 60.2 5.85" fill="#ffca9a" fill-rule="evenodd" stroke="none"/>
    <path d="M-70.3 5.8 Q-58.15 0.25 -38.15 9.85 -17.15 19.95 -19.7 38.55 -20.65 45.45 -24.7 51.45 -28.4 56.9 -32.25 58.35 L-57.15 67.8 -70.15 86.75 Q-69.6 85.6 -67.55 73.55 -65.65 62.55 -64.15 61.4 -62.85 60.35 -58.05 60.8 -52.55 61.25 -51.2 60.9 -43.1 58.45 -37.4 51.95 -31.55 45.15 -31.0 37.1 -30.45 29.0 -35.35 21.55 -39.95 14.65 -47.75 10.6 -55.6 6.5 -63.6 6.95 -72.3 7.45 -78.45 13.4 L-76.65 10.7 Q-74.05 7.6 -70.3 5.8" fill="#ffca9a" fill-rule="evenodd" stroke="none"/>
    <path d="M-9.8 61.65 Q-23.2 59.95 -30.95 54.4 -40.55 47.5 -39.85 35.75 -39.15 24.9 -26.05 17.0 -13.75 9.5 -2.1 10.85 7.65 12.75 18.1 24.6 28.95 36.95 26.35 45.4 23.3 55.45 11.5 59.65 1.7 63.15 -9.8 61.65" fill="#ff791e" fill-rule="evenodd" stroke="none"/>
    <path d="M-11.25 57.3 Q-25.6 54.9 -30.2 52.75 -40.35 47.95 -39.8 36.8 -39.3 26.1 -26.45 17.55 -14.55 9.45 -5.4 10.85 2.6 12.85 11.2 22.95 20.55 33.85 18.65 42.1 16.35 52.05 6.1 55.85 -1.9 58.8 -11.25 57.3" fill="#ff9a00" fill-rule="evenodd" stroke="none"/>
    <path d="M127.5 49.95 Q124.45 56.75 118.15 59.9 111.8 63.05 104.95 61.15 97.45 59.05 92.05 51.45 L86.15 30.1 Q85.75 20.35 91.75 16.2 97.0 12.55 105.5 14.1 113.55 15.6 120.25 20.9 127.3 26.55 128.85 33.7 130.8 42.65 127.5 49.95" fill="#ffe3bd" fill-rule="evenodd" stroke="none"/>
    <path d="M118.4 34.4 Q119.65 39.95 117.6 44.45 115.7 48.6 111.8 50.6 107.85 52.55 103.65 51.4 99.05 50.05 95.7 45.35 L92.05 32.2 Q91.8 26.15 95.55 23.55 98.8 21.35 104.0 22.3 108.95 23.25 113.1 26.5 117.5 30.0 118.4 34.4" fill="#ff9a60" fill-rule="evenodd" stroke="none"/>
    <path d="M-14.85 -3.15 Q-15.65 -0.25 -25.7 -2.95 -35.8 -5.5 -38.7 -9.1 -37.75 -12.6 -33.8 -13.3 -30.3 -13.9 -25.55 -12.4 -21.1 -10.85 -17.9 -8.35 -14.6 -5.6 -14.85 -3.15" fill="#2d0a18" fill-rule="evenodd" stroke="none"/>
    <path d="M15.8 8.2 Q15.8 5.1 17.95 5.1 20.15 5.1 20.15 8.2 20.15 11.35 17.95 11.35 15.8 11.35 15.8 8.2" fill="#2d0a18" fill-rule="evenodd" stroke="none"/>
    <path d="M11.25 -1.35 Q11.65 -3.7 15.6 -5.5 19.3 -7.1 24.05 -7.45 29.0 -7.65 32.25 -6.2 35.9 -4.5 35.85 -0.85 32.15 1.85 21.8 1.8 11.35 1.7 11.25 -1.35" fill="#2d0a18" fill-rule="evenodd" stroke="none"/>
    <path d="M35.85 -39.25 Q21.65 -36.4 14.35 -25.85 11.9 -28.85 9.0 -28.25 6.5 -27.7 2.1 -24.1 0.8 -37.05 2.95 -53.5 -8.7 -55.3 -25.8 -48.45 -40.4 -42.7 -51.6 -34.05 -59.85 -27.7 -70.0 -9.35 -75.15 -0.05 -77.9 3.95 -82.6 10.85 -87.65 14.75 -91.1 8.8 -92.0 5.3 -93.25 0.25 -91.5 -5.6 -87.5 -18.4 -76.25 -30.3 -65.1 -42.15 -49.0 -50.65 -12.9 -69.85 28.05 -64.75 63.6 -60.3 84.3 -21.85 94.65 -2.6 97.9 15.75 L92.0 19.3 Q91.95 17.15 89.5 10.85 82.8 13.2 80.55 16.25 80.25 2.2 76.35 -11.05 71.35 -27.75 62.45 -34.05 50.85 -42.25 35.85 -39.25" fill="#ffca9a" fill-rule="evenodd" stroke="none"/>
    <path d="M-2.7 -45.65 Q-1.9 -56.8 9.15 -60.0 L42.3 -50.55 Q34.6 -48.05 26.65 -41.7 L12.6 -30.55 10.3 -33.7 Q8.65 -35.75 8.75 -38.2 1.95 -35.9 1.45 -26.35 -3.3 -37.6 -2.7 -45.65" fill="#5d0304" fill-rule="evenodd" stroke="none"/>
    <path d="M46.55 -47.3 L55.0 -58.65 Q66.05 -56.35 77.45 -43.9 82.55 -38.3 94.2 -21.7 101.35 -11.5 103.2 -0.1 105.8 15.25 92.6 16.55 L91.4 8.1 Q90.4 3.55 88.15 1.0 87.5 2.45 85.35 5.2 83.3 7.9 82.65 9.3 84.45 -8.1 73.8 -25.15 62.95 -42.4 46.55 -47.3" fill="#5d0304" fill-rule="evenodd" stroke="none"/>
    <path d="M4.4 -67.8 L17.45 -60.0 Q9.95 -60.85 -15.15 -54.9 -40.7 -48.75 -46.6 -44.25 L-59.75 -33.55 Q-67.05 -26.7 -72.3 -17.45 -76.55 -8.1 -79.2 -2.9 -84.05 6.7 -88.45 8.4 -87.6 7.05 -87.1 4.0 -86.55 0.55 -86.1 -0.5 L-90.45 -0.8 -94.75 -1.2 Q-90.95 -16.4 -78.25 -32.95 -65.45 -49.65 -51.95 -56.6 -38.65 -63.45 -24.5 -67.05 -6.15 -71.7 4.4 -67.8" fill="#5d0304" fill-rule="evenodd" stroke="none"/>
    <path d="M6.1 -108.65 Q-2.85 -113.95 -1.85 -122.95 -0.95 -131.1 6.65 -136.45 14.65 -142.05 23.05 -139.0 32.95 -135.45 38.65 -120.6 41.5 -125.3 46.9 -128.55 52.25 -131.7 58.05 -132.4 64.15 -133.15 68.75 -130.75 73.9 -128.15 76.0 -122.25 79.6 -112.2 74.05 -103.65 68.45 -94.95 57.55 -95.3 57.55 -88.55 56.8 -74.85 56.0 -59.0 55.05 -55.3 52.95 -46.9 41.8 -43.9 33.55 -41.75 21.7 -42.75 8.55 -43.9 -1.25 -50.4 -12.7 -58.0 -8.0 -67.35 2.8 -88.75 6.1 -108.65" fill="#f90203" fill-rule="evenodd" stroke="none"/>
    <path d="M64.75 17.85 Q76.55 20.0 81.0 28.2 82.8 31.6 82.6 34.95 82.3 38.2 80.1 40.25 76.05 44.0 65.8 44.3 57.45 44.5 50.7 42.75 44.4 41.05 42.65 36.6 41.15 32.65 43.85 27.95 46.5 23.3 51.9 20.4 57.8 17.3 64.75 17.85" fill="#fca48c" fill-rule="evenodd" stroke="none"/>
    <path d="M-57.45 27.05 Q-55.65 30.4 -55.9 33.75 -56.15 37.0 -58.35 39.05 -62.4 42.8 -72.7 43.1 -81.05 43.3 -87.85 41.55 -94.15 39.85 -95.8 35.45 -97.35 31.45 -94.7 26.75 -92.0 22.15 -86.55 19.25 -80.65 16.15 -73.75 16.7 -61.9 18.85 -57.45 27.05" fill="#fca48c" fill-rule="evenodd" stroke="none"/>
    <path d="M14.0 -138.5 Q20.25 -143.15 28.9 -136.0 35.6 -130.45 39.5 -122.6 41.05 -124.55 47.05 -127.8 53.1 -131.05 55.45 -130.85 50.25 -129.55 42.35 -121.75 35.75 -115.2 32.2 -109.65 32.45 -119.55 28.45 -127.2 23.6 -136.6 14.0 -138.5" fill="#ca0002" fill-rule="evenodd" stroke="none"/>
    <path d="M48.15 -91.85 Q52.35 -92.55 57.95 -95.25 59.55 -91.55 57.95 -75.5 L55.9 -55.5 Q55.9 -53.25 53.1 -50.1 49.6 -46.05 43.95 -45.0 46.6 -47.3 49.0 -53.75 51.75 -60.75 52.1 -67.95 53.15 -87.3 37.5 -92.2 L48.15 -91.85" fill="#ca0002" fill-rule="evenodd" stroke="none"/>
    <path d="M3.5 -70.95 Q4.15 -70.8 4.3 -70.25 L4.35 -69.4 4.2 -67.4 Q4.15 -66.05 3.9 -65.55 L3.0 -65.45 Q2.45 -65.5 2.2 -65.95 L2.45 -68.55 2.4 -69.0 2.15 -69.15 -1.0 -69.4 Q-1.45 -69.85 -1.35 -70.45 -1.25 -71.15 -0.85 -71.4 L3.5 -70.95 M0.75 -67.55 L0.7 -64.3 3.35 -63.6 3.3 -62.45 2.75 -61.85 1.4 -62.15 0.2 -62.35 -1.7 -62.7 -3.85 -62.8 Q-4.15 -63.15 -4.1 -63.65 L-3.9 -64.5 -2.6 -64.65 -1.2 -64.6 -1.2 -66.25 -1.05 -67.75 Q-0.95 -68.1 -0.15 -68.0 0.75 -67.85 0.75 -67.55" fill="#ffffff" fill-rule="evenodd" stroke="none"/>
    <path d="M13.35 -67.5 L13.3 -66.55 Q13.1 -66.05 12.3 -66.05 12.05 -66.25 11.75 -66.4 L11.25 -67.0 10.85 -68.2 10.7 -69.1 Q10.7 -69.5 11.1 -69.75 L11.8 -70.05 Q12.2 -70.0 12.6 -69.1 L13.05 -68.05 13.35 -67.5 M14.5 -64.0 Q14.65 -63.1 13.9 -63.1 13.4 -62.95 12.9 -63.1 L11.9 -63.2 10.75 -63.45 9.5 -63.7 6.9 -63.95 Q6.3 -64.3 6.35 -65.15 6.45 -66.0 7.4 -65.85 L14.1 -65.05 Q14.5 -64.95 14.5 -64.0 M8.95 -59.15 L9.6 -59.65 9.95 -60.3 9.95 -60.75 Q9.75 -60.95 9.5 -60.75 L8.9 -60.35 8.5 -59.8 8.5 -59.25 Q8.55 -59.0 8.95 -59.15 M7.55 -61.65 Q8.65 -62.85 10.0 -62.85 11.0 -62.85 11.5 -62.25 L12.0 -60.8 Q12.0 -59.4 10.75 -58.2 9.6 -56.95 8.4 -56.95 7.15 -56.95 6.85 -57.75 6.5 -58.65 6.5 -59.1 6.5 -60.45 7.55 -61.65 M14.4 -53.7 L15.2 -54.25 15.55 -54.85 15.55 -55.35 15.15 -55.3 14.5 -54.9 14.15 -54.35 14.0 -53.8 Q14.0 -53.45 14.4 -53.7 M13.35 -56.5 Q14.65 -57.55 15.8 -57.4 16.75 -57.3 17.3 -56.4 17.85 -55.55 17.65 -54.8 17.5 -54.0 16.25 -52.65 15.0 -51.3 13.85 -51.4 12.55 -51.45 12.25 -52.45 L12.05 -54.0 Q12.2 -55.4 13.35 -56.5 M20.35 -65.5 Q21.05 -65.05 20.75 -64.45 L20.4 -63.6 19.7 -63.7 18.6 -63.8 18.45 -63.3 18.45 -62.65 20.2 -62.3 Q20.7 -61.8 20.65 -61.25 20.6 -60.65 20.05 -60.3 L19.0 -60.55 18.25 -60.6 18.05 -59.95 18.0 -59.3 Q17.75 -58.7 16.85 -59.05 15.95 -59.25 16.0 -59.7 L17.05 -67.45 Q17.4 -67.8 18.15 -67.75 18.9 -67.6 19.15 -67.1 18.85 -65.95 19.0 -65.85 19.15 -65.7 19.6 -65.65 L20.35 -65.5" fill="#ffffff" fill-rule="evenodd" stroke="none"/>
    <path d="M35.3 -64.4 L35.25 -63.6 35.0 -62.35 35.0 -62.1 36.05 -61.85 Q36.85 -61.7 37.25 -61.3 L37.2 -60.5 Q37.15 -60.1 36.7 -59.65 L34.7 -60.0 34.2 -57.5 33.15 -57.6 Q32.8 -57.65 32.45 -58.05 L32.45 -58.7 32.55 -59.2 33.25 -64.45 34.35 -64.7 35.3 -64.4 M29.15 -64.15 L29.4 -63.15 28.85 -60.0 Q28.7 -59.3 28.4 -59.05 28.0 -58.75 27.35 -58.75 L24.25 -58.95 Q23.55 -58.95 23.05 -59.3 22.7 -59.65 22.75 -60.45 L23.05 -62.25 23.1 -64.15 23.8 -64.8 24.7 -64.9 28.3 -64.7 Q29.0 -64.6 29.15 -64.15 M26.95 -60.85 L27.0 -61.05 27.2 -61.85 27.25 -62.75 26.35 -62.8 25.1 -62.85 24.75 -60.95 25.8 -60.85 26.8 -60.8 26.95 -60.85 M27.75 -57.45 L28.5 -56.85 28.05 -53.9 28.1 -53.7 28.3 -53.65 29.95 -53.45 31.65 -53.15 Q31.85 -52.7 31.7 -52.1 31.6 -51.45 31.2 -51.3 L28.3 -51.6 26.95 -51.75 26.25 -52.15 Q25.95 -52.4 25.95 -52.9 L26.2 -55.5 Q26.25 -56.5 26.7 -57.45 L27.75 -57.45" fill="#ffffff" fill-rule="evenodd" stroke="none"/>
    <path d="M46.75 -64.65 L42.45 -65.15 42.05 -62.45 47.15 -61.7 Q47.5 -60.75 47.1 -60.2 46.75 -59.65 46.3 -59.65 L41.9 -60.3 Q40.75 -60.35 40.3 -60.75 39.95 -61.1 40.0 -62.1 L40.25 -64.1 40.4 -65.8 Q40.4 -66.55 40.65 -66.9 40.95 -67.35 41.8 -67.25 L44.4 -66.95 47.3 -66.55 Q47.65 -66.4 47.55 -65.45 47.35 -64.6 46.75 -64.65 M39.75 -58.05 L46.8 -57.2 Q47.15 -56.9 46.9 -56.0 L46.75 -55.2 46.35 -55.2 44.45 -55.45 44.15 -52.65 Q44.15 -52.3 43.15 -52.3 42.3 -52.2 42.15 -52.8 L42.35 -54.45 42.4 -55.75 39.45 -56.0 Q38.85 -56.1 39.0 -57.1 39.2 -58.1 39.75 -58.05" fill="#ffffff" fill-rule="evenodd" stroke="none"/>
    <path d="M-60.9 96.4 Q-55.2 82.45 -44.25 77.9 -33.95 73.55 -23.3 76.75 -12.6 79.9 -3.85 89.6 3.15 97.35 6.75 107.95" fill="none" stroke="#cc3300" stroke-linecap="round" stroke-linejoin="round" stroke-width="3.0"/>
    <path d="M-43.3 99.4 L-43.4 98.95 -43.4 98.5 -43.4 98.05 -43.4 97.6 Q-40.55 91.05 -35.15 86.65 -33.95 85.65 -32.6 85.4 -26.65 85.15 -23.25 90.55 L-22.7 91.15 -22.3 92.0 -21.7 93.3 -21.25 94.25 -21.25 96.45 Q-21.15 98.45 -21.5 100.4 L-21.65 100.85 Q-22.3 101.4 -23.1 101.2 -24.8 100.7 -25.2 98.8 L-27.1 97.05 -30.65 94.65 -37.1 94.5 -37.5 94.95 -37.9 95.25 -38.55 95.55 Q-38.75 96.25 -39.3 96.8 -40.5 97.95 -41.05 99.55 L-41.35 99.8 -41.6 99.95 -42.1 100.15 -42.85 99.75 -43.3 99.4" fill="#ffca9a" fill-rule="evenodd" stroke="none"/>
    <path d="M101.9 -5.85 Q119.35 -1.1 122.45 -16.15 116.2 -28.3 116.2 -42.75 116.2 -68.75 136.25 -87.1 156.3 -105.45 184.65 -105.4 213.05 -105.45 233.1 -87.1 253.15 -68.75 253.15 -42.75 253.15 -16.8 233.1 1.55 213.05 19.9 184.65 19.9 159.75 19.85 133.6 1.55 131.0 5.4 120.5 5.9 110.0 6.35 101.9 -5.85" fill="#3399ff" fill-rule="evenodd" stroke="none"/>
  </g>
</svg>
