<?xml version="1.0" encoding="UTF-8" standalone="no"?>
<svg xmlns:ffdec="https://www.free-decompiler.com/flash" xmlns:xlink="http://www.w3.org/1999/xlink" ffdec:objectType="shape" height="22.4px" width="13.35px" xmlns="http://www.w3.org/2000/svg">
  <g transform="matrix(1.0, 0.0, 0.0, 1.0, 6.85, 11.4)">
    <path d="M-1.7 -5.55 Q-0.05 -7.85 -1.7 -11.4 9.8 2.45 5.15 8.1 2.8 10.9 -1.5 11.0 -8.5 7.3 -6.35 1.7 -5.2 -1.25 -1.7 -5.55 M-3.95 8.25 Q-3.5 9.85 -1.15 10.65 1.0 10.6 2.2 9.15 4.55 6.35 -0.45 -0.5 -0.3 3.45 -2.4 5.05 -4.3 6.6 -3.95 8.25" fill="#ffe84c" fill-rule="evenodd" stroke="none"/>
    <path d="M-3.95 8.25 Q-4.3 6.6 -2.4 5.05 -0.3 3.45 -0.45 -0.5 4.55 6.35 2.2 9.15 1.0 10.6 -1.15 10.65 -3.5 9.85 -3.95 8.25" fill="#fa450a" fill-rule="evenodd" stroke="none"/>
  </g>
</svg>
