<?xml version="1.0" encoding="UTF-8" standalone="no"?>
<svg xmlns:ffdec="https://www.free-decompiler.com/flash" xmlns:xlink="http://www.w3.org/1999/xlink" ffdec:objectType="shape" height="190.5px" width="242.6px" xmlns="http://www.w3.org/2000/svg">
  <g transform="matrix(1.0, 0.0, 0.0, 1.0, 121.3, 95.25)">
    <path d="M-94.7 -13.25 L-78.2 -4.65 Q-76.3 -3.7 -77.15 -1.4 -77.85 0.95 -79.8 -0.05 L-96.25 -8.65 Q-98.1 -9.55 -97.35 -11.9 -96.55 -14.25 -94.7 -13.25" fill="#929280" fill-rule="evenodd" stroke="none"/>
    <path d="M98.0 -15.7 Q99.85 -16.65 100.65 -14.35 101.4 -12.0 99.55 -11.1 L83.1 -2.5 Q81.25 -1.55 80.45 -3.85 79.7 -6.2 81.55 -7.1 L98.0 -15.7" fill="#929280" fill-rule="evenodd" stroke="none"/>
    <path d="M-56.85 78.8 Q-64.25 74.3 -69.5 69.05 L-73.3 64.75 -91.05 -16.8 92.25 -44.85 77.25 65.1 73.9 70.2 Q69.1 76.3 62.1 81.2 39.6 96.95 2.95 95.05 -33.15 93.2 -56.85 78.8" fill="#ff8700" fill-rule="evenodd" stroke="none"/>
    <path d="M-38.75 -7.85 Q-55.15 -2.0 -64.25 11.7 -88.15 -0.85 -91.4 -16.55 -95.85 -37.95 -85.9 -57.0 -75.3 -77.3 -52.65 -85.35 -23.7 -95.6 2.15 -95.15 30.25 -93.65 42.25 -91.15 62.15 -87.1 73.5 -76.55 98.3 -53.45 87.55 -17.2 83.6 -4.2 73.5 5.45 71.2 2.45 68.1 -0.4 58.5 -9.3 41.65 -12.75 31.65 -14.8 7.7 -16.15 -14.25 -16.55 -38.75 -7.85" fill="#fdbb5f" fill-rule="evenodd" stroke="none"/>
    <path d="M-51.3 17.5 Q-58.05 15.0 -64.25 11.7 -55.15 -2.0 -38.75 -7.85 -14.25 -16.55 7.7 -16.15 31.65 -14.8 41.65 -12.75 58.5 -9.3 68.1 -0.4 71.2 2.45 73.5 5.45 52.7 25.4 13.45 26.55 -23.65 27.65 -51.3 17.5" fill="#fdce88" fill-rule="evenodd" stroke="none"/>
    <path d="M-79.3 -55.2 Q-88.7 -37.3 -84.5 -17.1 -82.35 -6.85 -70.2 2.4 -60.35 9.9 -46.65 15.0 -20.6 24.6 14.35 23.5 41.5 22.7 60.0 11.9 78.6 0.95 84.15 -17.7 94.3 -51.9 70.95 -73.65 60.25 -83.55 41.45 -87.4 30.2 -89.75 3.7 -91.2 -20.6 -91.6 -47.95 -81.95 -69.3 -74.3 -79.3 -55.2 M-90.55 -15.9 Q-95.05 -37.55 -85.0 -56.75 -74.3 -77.2 -51.4 -85.35 -22.25 -95.7 3.9 -95.25 32.3 -93.7 44.35 -91.2 64.45 -87.1 75.9 -76.45 100.95 -53.25 90.1 -16.55 84.15 3.45 64.2 15.15 44.45 26.75 15.35 27.6 -22.3 28.7 -50.05 18.45 -64.65 13.1 -75.25 5.0 -88.25 -4.9 -90.55 -15.9" fill="#fee0b1" fill-rule="evenodd" stroke="none"/>
    <path d="M80.0 17.9 L99.95 7.5 Q102.25 6.3 103.15 9.1 104.15 11.9 101.85 13.1 L81.9 23.5 Q79.6 24.7 78.7 21.85 77.8 19.05 80.0 17.9" fill="#929280" fill-rule="evenodd" stroke="none"/>
    <path d="M96.95 -26.95 L107.95 -26.95 121.3 8.05 100.6 11.4 96.95 -26.95" fill="#fd963f" fill-rule="evenodd" stroke="none"/>
    <path d="M100.6 21.4 L100.6 9.4 121.3 8.05 119.3 21.4 100.6 21.4" fill="#ff6600" fill-rule="evenodd" stroke="none"/>
    <path d="M95.3 -14.6 L97.3 -26.25 101.3 8.05 100.6 20.4 95.3 -14.6" fill="#fe7e1f" fill-rule="evenodd" stroke="none"/>
    <path d="M-98.35 10.6 L-78.35 21.0 Q-76.15 22.15 -77.05 25.0 -78.05 27.75 -80.25 26.6 L-100.2 16.2 Q-102.5 15.0 -101.5 12.25 -100.6 9.45 -98.35 10.6" fill="#929280" fill-rule="evenodd" stroke="none"/>
    <path d="M-97.0 -25.15 L-100.65 13.15 -121.3 9.85 -108.0 -25.15 -97.0 -25.15" fill="#fd963f" fill-rule="evenodd" stroke="none"/>
    <path d="M-100.65 11.2 L-100.65 23.15 -119.3 23.15 -121.3 9.85 -100.65 11.2" fill="#ff6600" fill-rule="evenodd" stroke="none"/>
    <path d="M-95.3 -12.85 L-100.65 22.2 -101.3 9.85 -97.3 -24.5 -95.3 -12.85" fill="#fe7e1f" fill-rule="evenodd" stroke="none"/>
    <path d="M13.35 38.1 Q14.3 41.0 11.25 44.75 L6.0 49.85 0.25 45.1 Q-2.5 42.6 -2.8 39.95 -3.25 36.2 -0.1 35.65 2.9 35.1 5.45 37.7 7.3 35.25 9.75 35.2 12.4 35.15 13.35 38.1" fill="#fed874" fill-rule="evenodd" stroke="none"/>
    <path d="M25.9 33.65 Q28.9 33.1 31.45 35.7 33.3 33.25 35.75 33.2 38.4 33.15 39.35 36.1 40.3 39.0 37.25 42.75 L32.0 47.85 26.25 43.1 Q23.5 40.6 23.2 37.95 22.75 34.2 25.9 33.65" fill="#fed874" fill-rule="evenodd" stroke="none"/>
    <path d="M60.6 38.75 L55.35 43.85 49.6 39.1 Q46.8 36.6 46.5 33.95 46.1 30.2 49.25 29.65 52.25 29.1 54.75 31.7 56.6 29.25 59.05 29.2 61.7 29.15 62.7 32.1 63.65 35.0 60.6 38.75" fill="#fed874" fill-rule="evenodd" stroke="none"/>
    <path d="M67.15 17.55 Q69.55 17.1 71.55 19.2 73.0 17.25 75.0 17.2 77.05 17.2 77.85 19.55 78.6 21.85 76.2 24.85 L72.0 28.9 Q68.7 26.3 67.4 25.1 65.15 23.15 64.95 21.0 64.65 18.0 67.15 17.55" fill="#fed874" fill-rule="evenodd" stroke="none"/>
    <path d="M-12.0 36.1 Q-11.05 39.0 -14.1 42.75 L-19.35 47.85 -25.1 43.1 Q-27.85 40.6 -28.15 37.95 -28.55 34.2 -25.4 33.65 -22.4 33.1 -19.9 35.7 -18.05 33.25 -15.6 33.2 -12.95 33.15 -12.0 36.1" fill="#fed874" fill-rule="evenodd" stroke="none"/>
    <path d="M-38.1 37.4 Q-39.25 38.85 -43.35 42.5 L-49.1 37.75 Q-51.85 35.25 -52.15 32.6 -52.55 28.85 -49.4 28.3 -46.4 27.75 -43.9 30.4 -42.05 27.95 -39.6 27.9 -36.95 27.85 -36.0 30.8 -35.05 33.7 -38.1 37.4" fill="#fed874" fill-rule="evenodd" stroke="none"/>
    <path d="M-65.75 31.15 Q-69.05 28.55 -70.35 27.35 -72.6 25.4 -72.8 23.25 -73.1 20.25 -70.6 19.8 -68.2 19.35 -66.2 21.5 -64.75 19.55 -62.8 19.5 -60.7 19.45 -59.9 21.8 -59.15 24.1 -61.55 27.1 L-65.75 31.15" fill="#fed874" fill-rule="evenodd" stroke="none"/>
    <path d="M87.45 -9.4 L87.85 -10.4 95.35 -14.3 96.1 -9.3 86.75 -4.4 87.45 -9.4 M99.7 14.25 L83.0 22.95 81.9 23.5 Q79.6 24.7 78.7 21.85 77.8 19.05 80.0 17.9 L84.0 15.85 98.75 8.15 99.7 14.25 M-81.75 25.8 L-99.75 16.45 -98.85 10.4 -98.35 10.6 -83.4 18.4 -78.35 21.0 Q-76.15 22.15 -77.05 25.0 -78.05 27.75 -80.25 26.6 L-81.75 25.8 M-95.4 -13.5 L-94.7 -13.25 -89.7 -10.65 -88.35 -4.5 -95.95 -8.5 -95.3 -12.85 -95.4 -13.5" fill="#929280" fill-rule="evenodd" stroke="none"/>
    <path d="M-90.75 -16.85 L-90.55 -15.9 Q-88.25 -4.9 -75.25 5.0 -64.65 13.1 -50.05 18.45 -22.3 28.7 15.35 27.6 44.45 26.75 64.2 15.15 80.45 5.6 87.45 -9.4 L86.75 -4.4 84.0 15.85 80.0 17.9 Q77.8 19.05 78.7 21.85 79.6 24.7 81.9 23.5 L83.0 22.95 77.25 65.1 73.9 70.2 Q69.1 76.3 62.1 81.2 39.6 96.95 2.95 95.05 -33.15 93.2 -56.85 78.8 -64.25 74.3 -69.5 69.05 L-73.3 64.75 -81.75 25.8 -80.25 26.6 Q-78.05 27.75 -77.05 25.0 -76.15 22.15 -78.35 21.0 L-83.4 18.4 -88.35 -4.5 -89.7 -10.65 -91.05 -16.8 -90.75 -16.85 M37.25 42.75 Q40.3 39.0 39.35 36.1 38.4 33.15 35.75 33.2 33.3 33.25 31.45 35.7 28.9 33.1 25.9 33.65 22.75 34.2 23.2 37.95 23.5 40.6 26.25 43.1 L32.0 47.85 37.25 42.75 M11.25 44.75 Q14.3 41.0 13.35 38.1 12.4 35.15 9.75 35.2 7.3 35.25 5.45 37.7 2.9 35.1 -0.1 35.65 -3.25 36.2 -2.8 39.95 -2.5 42.6 0.25 45.1 L6.0 49.85 11.25 44.75 M59.05 29.2 Q56.6 29.25 54.75 31.7 52.25 29.1 49.25 29.65 46.1 30.2 46.5 33.95 46.8 36.6 49.6 39.1 L55.35 43.85 60.6 38.75 Q63.65 35.0 62.7 32.1 61.7 29.15 59.05 29.2 M77.85 19.55 Q77.05 17.2 75.0 17.2 73.0 17.25 71.55 19.2 69.55 17.1 67.15 17.55 64.65 18.0 64.95 21.0 65.15 23.15 67.4 25.1 68.7 26.3 72.0 28.9 L76.2 24.85 Q78.6 21.85 77.85 19.55 M-70.6 19.8 Q-73.1 20.25 -72.8 23.25 -72.6 25.4 -70.35 27.35 -69.05 28.55 -65.75 31.15 L-61.55 27.1 Q-59.15 24.1 -59.9 21.8 -60.7 19.45 -62.8 19.5 -64.75 19.55 -66.2 21.5 -68.2 19.35 -70.6 19.8 M-28.15 37.95 Q-27.85 40.6 -25.1 43.1 L-19.35 47.85 -14.1 42.75 Q-11.05 39.0 -12.0 36.1 -12.95 33.15 -15.6 33.2 -18.05 33.25 -19.9 35.7 -22.4 33.1 -25.4 33.65 -28.55 34.2 -28.15 37.95 M-38.1 37.4 Q-35.05 33.7 -36.0 30.8 -36.95 27.85 -39.6 27.9 -42.05 27.95 -43.9 30.4 -46.4 27.75 -49.4 28.3 -52.55 28.85 -52.15 32.6 -51.85 35.25 -49.1 37.75 L-43.35 42.5 Q-39.25 38.85 -38.1 37.4" fill="#ff8700" fill-rule="evenodd" stroke="none"/>
    <path d="M-90.75 -16.85 Q-94.85 -37.95 -85.0 -56.75 -74.3 -77.2 -51.4 -85.35 -22.25 -95.7 3.9 -95.25 32.3 -93.7 44.35 -91.2 64.45 -87.1 75.9 -76.45 100.95 -53.25 90.1 -16.55 89.15 -13.35 87.85 -10.4 L87.45 -9.4 Q80.45 5.6 64.2 15.15 44.45 26.75 15.35 27.6 -22.3 28.7 -50.05 18.45 -64.65 13.1 -75.25 5.0 -88.25 -4.9 -90.55 -15.9 L-90.75 -16.85 M70.95 -73.65 Q60.25 -83.55 41.45 -87.4 30.2 -89.75 3.7 -91.2 -20.6 -91.6 -47.95 -81.95 -69.3 -74.3 -79.3 -55.2 -88.55 -37.6 -84.6 -17.75 L-84.5 -17.1 Q-82.35 -6.85 -70.2 2.4 -60.35 9.9 -46.65 15.0 -20.6 24.6 14.35 23.5 41.5 22.7 60.0 11.9 78.6 0.95 84.15 -17.7 88.4 -31.95 86.8 -44.0 84.6 -60.95 70.95 -73.65" fill="#fee0b1" fill-rule="evenodd" stroke="none"/>
    <path d="M97.15 -25.2 L96.95 -26.95 107.95 -26.95 121.3 8.05 101.25 9.35 101.3 8.05 97.3 -26.25 97.15 -25.2 M-121.3 9.85 L-108.0 -25.15 -97.0 -25.15 -97.15 -23.6 -97.3 -24.5 -101.3 9.85 -101.2 11.15 -121.3 9.85" fill="#fd963f" fill-rule="evenodd" stroke="none"/>
    <path d="M121.3 8.05 L119.3 21.4 100.6 21.4 100.6 20.4 101.25 9.35 121.3 8.05 M-100.65 22.2 L-100.65 23.15 -119.3 23.15 -121.3 9.85 -101.2 11.15 -100.65 22.2" fill="#ff6600" fill-rule="evenodd" stroke="none"/>
    <path d="M95.35 -14.3 L95.3 -14.6 97.15 -25.2 97.3 -26.25 101.3 8.05 101.25 9.35 100.6 20.4 99.7 14.25 98.75 8.15 96.1 -9.3 95.35 -14.3 M-99.75 16.45 L-100.65 22.2 -101.2 11.15 -101.3 9.85 -97.3 -24.5 -97.15 -23.6 -95.4 -13.5 -95.3 -12.85 -95.95 -8.5 -98.85 10.4 -99.75 16.45" fill="#fe7e1f" fill-rule="evenodd" stroke="none"/>
    <path d="M77.85 19.55 Q78.6 21.85 76.2 24.85 L72.0 28.9 Q68.7 26.3 67.4 25.1 65.15 23.15 64.95 21.0 64.65 18.0 67.15 17.55 69.55 17.1 71.55 19.2 73.0 17.25 75.0 17.2 77.05 17.2 77.85 19.55 M59.05 29.2 Q61.7 29.15 62.7 32.1 63.65 35.0 60.6 38.75 L55.35 43.85 49.6 39.1 Q46.8 36.6 46.5 33.95 46.1 30.2 49.25 29.65 52.25 29.1 54.75 31.7 56.6 29.25 59.05 29.2 M11.25 44.75 L6.0 49.85 0.25 45.1 Q-2.5 42.6 -2.8 39.95 -3.25 36.2 -0.1 35.65 2.9 35.1 5.45 37.7 7.3 35.25 9.75 35.2 12.4 35.15 13.35 38.1 14.3 41.0 11.25 44.75 M37.25 42.75 L32.0 47.85 26.25 43.1 Q23.5 40.6 23.2 37.95 22.75 34.2 25.9 33.65 28.9 33.1 31.45 35.7 33.3 33.25 35.75 33.2 38.4 33.15 39.35 36.1 40.3 39.0 37.25 42.75 M-38.1 37.4 Q-39.25 38.85 -43.35 42.5 L-49.1 37.75 Q-51.85 35.25 -52.15 32.6 -52.55 28.85 -49.4 28.3 -46.4 27.75 -43.9 30.4 -42.05 27.95 -39.6 27.9 -36.95 27.85 -36.0 30.8 -35.05 33.7 -38.1 37.4 M-28.15 37.95 Q-28.55 34.2 -25.4 33.65 -22.4 33.1 -19.9 35.7 -18.05 33.25 -15.6 33.2 -12.95 33.15 -12.0 36.1 -11.05 39.0 -14.1 42.75 L-19.35 47.85 -25.1 43.1 Q-27.85 40.6 -28.15 37.95 M-70.6 19.8 Q-68.2 19.35 -66.2 21.5 -64.75 19.55 -62.8 19.5 -60.7 19.45 -59.9 21.8 -59.15 24.1 -61.55 27.1 L-65.75 31.15 Q-69.05 28.55 -70.35 27.35 -72.6 25.4 -72.8 23.25 -73.1 20.25 -70.6 19.8" fill="#fed874" fill-rule="evenodd" stroke="none"/>
  </g>
</svg>
