<?xml version="1.0" encoding="UTF-8" standalone="no"?>
<svg xmlns:ffdec="https://www.free-decompiler.com/flash" xmlns:xlink="http://www.w3.org/1999/xlink" ffdec:objectType="shape" height="159.6px" width="308.85px" xmlns="http://www.w3.org/2000/svg">
  <g transform="matrix(1.0, 0.0, 0.0, 1.0, 154.2, 78.8)">
    <path d="M63.6 -37.15 Q56.95 -30.65 54.5 -28.65 39.95 -16.55 33.95 -12.6 20.9 -4.1 9.85 -3.4 8.15 -13.55 8.2 -15.65 23.05 -21.55 29.45 -26.75 34.1 -30.5 42.7 -38.5 51.4 -46.65 55.75 -50.2 61.15 -54.55 77.8 -56.65 93.65 -58.6 102.0 -56.7 103.8 -56.3 101.6 -52.1 99.4 -47.9 97.4 -47.7 82.9 -51.55 72.45 -44.55 68.9 -42.25 63.6 -37.15" fill="#fa7d82" fill-rule="evenodd" stroke="none"/>
    <path d="M54.2 -34.6 Q39.75 -22.5 33.65 -18.55 20.6 -10.05 9.55 -9.35 7.85 -19.5 7.9 -21.6 22.8 -27.5 29.15 -32.7 33.75 -36.45 42.4 -44.45 51.05 -52.55 55.5 -56.15 66.55 -65.1 83.75 -67.6 92.2 -68.85 96.4 -65.7 100.45 -62.65 102.2 -54.15 87.5 -58.05 74.7 -50.75 70.0 -48.1 64.1 -43.15 L54.2 -34.6" fill="#f9495c" fill-rule="evenodd" stroke="none"/>
    <path d="M-113.3 -32.9 Q-83.9 -43.25 -57.15 -42.8 -48.95 -42.35 -35.45 -42.6 -20.15 -42.85 -14.9 -42.7 7.85 -42.1 19.9 -34.0 29.2 -27.7 32.45 -2.85 34.75 15.1 33.4 27.75 32.65 34.45 26.85 45.2 21.2 55.6 15.95 60.5 -4.3 79.5 -45.55 80.7 -83.7 81.85 -111.9 71.6 -118.95 69.05 -125.2 65.8 -153.6 50.95 -153.95 36.35 -154.6 11.0 -152.85 -1.6 -151.1 -14.0 -146.3 -19.6 -142.4 -24.15 -133.45 -26.95 L-113.3 -32.9" fill="#f9495c" fill-rule="evenodd" stroke="none"/>
    <path d="M-111.9 -50.7 Q-84.2 -60.4 -59.35 -60.0 -32.4 -58.55 -20.95 -56.2 -1.8 -52.35 9.05 -42.4 27.85 -25.3 25.25 0.1 21.45 -11.95 11.05 -21.4 0.2 -31.35 -18.95 -35.2 -30.4 -37.55 -57.35 -39.0 -82.2 -39.4 -109.9 -29.7 -126.75 -23.8 -136.95 -10.55 -146.45 1.8 -148.0 17.55 L-149.05 14.15 Q-153.35 -6.05 -143.8 -24.0 -133.65 -43.1 -111.9 -50.7" fill="#fbbbcb" fill-rule="evenodd" stroke="none"/>
    <path d="M-57.35 -39.0 Q-30.4 -37.55 -18.95 -35.2 0.2 -31.35 11.05 -21.4 21.45 -11.95 25.25 0.1 24.55 6.85 22.5 13.5 18.8 25.75 9.1 34.9 -10.9 53.6 -48.5 54.75 -84.15 55.75 -110.6 46.2 -116.8 43.95 -123.05 40.75 -143.05 30.45 -148.0 17.55 -146.45 1.8 -136.95 -10.55 -126.75 -23.8 -109.9 -29.7 -82.2 -39.4 -57.35 -39.0" fill="#fa9fb8" fill-rule="evenodd" stroke="none"/>
    <path d="M-113.7 -54.0 Q-84.75 -64.35 -58.35 -63.95 -29.85 -62.3 -17.9 -59.85 2.2 -55.75 13.65 -45.1 38.75 -21.85 27.8 14.75 21.85 34.8 1.9 46.5 -17.85 58.1 -46.95 58.95 -84.55 60.05 -112.3 49.8 -126.95 44.35 -137.5 36.3 -150.5 26.4 -152.8 15.45 -157.3 -6.2 -147.25 -25.4 -136.6 -45.85 -113.7 -54.0 M-58.55 -59.85 Q-82.95 -60.25 -110.2 -50.6 -131.6 -43.0 -141.6 -23.9 -150.95 -5.95 -146.75 14.25 -144.6 24.5 -132.5 33.75 -122.65 41.3 -108.95 46.35 -82.9 55.95 -47.9 54.85 -20.75 54.05 -2.25 43.25 16.35 32.3 21.9 13.65 32.05 -20.55 8.65 -42.3 -2.0 -52.25 -20.8 -56.1 -32.0 -58.35 -58.55 -59.85" fill="#fddad6" fill-rule="evenodd" stroke="none"/>
    <path d="M89.35 -68.85 L102.65 -72.75 Q114.05 -76.3 121.7 -77.65 146.8 -82.2 152.65 -68.85 161.05 -49.8 134.2 -45.7 124.4 -44.2 111.95 -45.15 101.2 -45.95 94.6 -47.95 96.05 -53.95 94.5 -59.2 93.25 -63.55 89.35 -68.85" fill="#743a09" fill-rule="evenodd" stroke="none"/>
    <path d="M96.2 -46.8 Q95.2 -51.15 95.5 -54.9 100.05 -55.7 109.9 -55.25 122.05 -54.6 126.3 -54.8 146.1 -55.6 151.8 -69.6 157.05 -61.8 150.2 -53.25 147.45 -49.8 143.5 -47.4 139.7 -45.1 136.45 -44.75 125.5 -43.55 114.05 -45.0 L96.2 -46.8" fill="#905720" fill-rule="evenodd" stroke="none"/>
    <path d="M140.95 -70.15 Q140.95 -68.65 138.4 -67.6 135.85 -66.55 132.25 -66.55 128.7 -66.55 126.15 -67.6 123.6 -68.65 123.6 -70.15 123.6 -71.65 126.15 -72.7 128.7 -73.75 132.25 -73.75 135.85 -73.75 138.4 -72.7 140.95 -71.65 140.95 -70.15" fill="#4f2700" fill-rule="evenodd" stroke="none"/>
  </g>
</svg>
