<?xml version="1.0" encoding="UTF-8" standalone="no"?>
<svg xmlns:ffdec="https://www.free-decompiler.com/flash" xmlns:xlink="http://www.w3.org/1999/xlink" ffdec:objectType="shape" height="191.9px" width="212.95px" xmlns="http://www.w3.org/2000/svg">
  <g transform="matrix(1.0, 0.0, 0.0, 1.0, 106.55, 97.0)">
    <path d="M43.15 -61.6 Q62.0 -56.15 72.7 -42.2 96.2 -11.55 86.0 36.6 80.4 62.95 61.75 78.35 43.25 93.6 16.0 94.75 -2.45 95.5 -16.85 92.7 -31.5 89.85 -45.25 82.7 -58.95 75.6 -68.85 65.0 -81.0 51.95 -83.15 37.5 -87.4 9.05 -77.95 -16.25 -67.95 -43.15 -46.5 -53.9 -19.4 -67.45 5.3 -66.95 31.95 -64.85 43.15 -61.6" fill="#05143f" fill-rule="evenodd" stroke="none"/>
    <path d="M-41.4 -57.7 Q-22.3 -70.8 -5.1 -70.25 13.55 -68.3 21.5 -65.15 34.65 -59.95 42.2 -46.45 58.65 -17.0 51.5 29.45 47.6 54.8 34.5 69.6 21.5 84.3 2.4 85.4 -10.5 86.1 -20.6 83.4 -30.9 80.65 -40.5 73.8 -50.1 66.95 -57.05 56.75 -65.6 44.2 -67.1 30.3 -70.1 2.9 -63.45 -21.45 -56.45 -47.4 -41.4 -57.7" fill="#1e2957" fill-rule="evenodd" stroke="none"/>
    <path d="M50.3 -66.3 Q73.35 -61.55 86.4 -49.4 115.1 -22.8 102.65 19.15 95.8 42.05 73.0 55.45 50.35 68.7 17.05 69.7 -26.1 70.95 -57.75 59.25 -74.5 53.05 -86.6 43.8 -101.45 32.45 -104.1 19.9 -109.3 -4.85 -97.75 -26.85 -85.5 -50.25 -59.3 -59.55 -26.05 -71.4 4.0 -70.95 36.55 -69.15 50.3 -66.3" fill="#97d7d9" fill-rule="evenodd" stroke="none"/>
    <path d="M49.4 -73.35 Q72.45 -68.65 85.55 -56.45 114.2 -29.8 101.75 12.1 94.9 35.0 72.1 48.4 49.5 61.65 16.2 62.65 -27.0 63.9 -58.6 52.2 -75.35 46.05 -87.45 36.75 -102.35 25.4 -104.95 12.85 -110.15 -11.9 -98.65 -33.9 -86.4 -57.3 -60.2 -66.6 -26.8 -78.45 3.1 -77.95 35.6 -76.2 49.4 -73.35" fill="#6ac6cb" fill-rule="evenodd" stroke="none"/>
    <path d="M40.65 -68.9 Q59.6 -65.0 70.35 -55.0 93.9 -33.1 83.65 1.35 78.05 20.15 59.3 31.2 40.7 42.1 13.35 42.9 -22.25 43.9 -48.2 34.3 -61.95 29.25 -71.9 21.6 -84.15 12.3 -86.3 2.0 -90.55 -18.35 -81.05 -36.45 -71.0 -55.7 -49.45 -63.35 -22.2 -73.1 2.6 -72.7 29.3 -71.25 40.65 -68.9" fill="#97d7d9" fill-rule="evenodd" stroke="none"/>
    <path d="M72.35 -44.85 Q61.65 -54.8 42.8 -58.65 31.6 -60.95 4.95 -62.45 -19.8 -62.85 -46.85 -53.2 -61.1 -48.1 -70.6 -37.5 -79.5 -27.6 -82.85 -14.5 -85.45 -18.6 -86.3 -22.65 -90.55 -42.9 -81.1 -60.9 -71.1 -80.05 -49.65 -87.7 -22.45 -97.4 2.15 -97.0 28.7 -95.55 40.0 -93.2 58.85 -89.35 69.55 -79.4 91.0 -59.45 84.25 -28.75 80.15 -37.6 72.35 -44.85" fill="#a5ddde" fill-rule="evenodd" stroke="none"/>
    <path d="M42.8 -58.65 Q61.65 -54.8 72.35 -44.85 80.15 -37.6 84.25 -28.75 L82.8 -23.3 Q77.25 -4.55 58.55 6.4 40.05 17.2 12.8 18.05 -22.5 19.05 -48.35 9.5 -73.6 0.2 -82.85 -14.5 -79.5 -27.6 -70.6 -37.5 -61.1 -48.1 -46.85 -53.2 -19.8 -62.85 4.95 -62.45 31.6 -60.95 42.8 -58.65" fill="#97d7d9" fill-rule="evenodd" stroke="none"/>
    <path d="M42.8 -58.65 Q61.65 -54.8 72.35 -44.85 80.15 -37.6 84.25 -28.75 L82.8 -23.3 Q77.25 -4.55 58.55 6.4 40.05 17.2 12.8 18.05 -22.5 19.05 -48.35 9.5 -73.6 0.2 -82.85 -14.5 -79.5 -27.6 -70.6 -37.5 -61.1 -48.1 -46.85 -53.2 -19.8 -62.85 4.95 -62.45 31.6 -60.95 42.8 -58.65" fill="#b8e4e5" fill-rule="evenodd" stroke="none"/>
    <path d="M-37.4 -44.3 Q-32.8 -44.0 -31.4 -42.6 -29.45 -40.65 -30.05 -37.75 L-31.15 -39.3 Q-32.5 -40.65 -37.15 -40.95 -39.5 -41.0 -41.8 -40.05 -44.35 -39.1 -45.05 -36.35 L-45.35 -37.15 Q-46.2 -41.75 -42.05 -43.4 -39.65 -44.3 -37.4 -44.3" fill="#a5ddde" fill-rule="evenodd" stroke="none"/>
    <path d="M-37.15 -40.95 Q-32.5 -40.65 -31.15 -39.3 L-30.05 -37.75 -30.2 -37.2 Q-31.2 -33.4 -36.45 -33.25 -39.55 -33.1 -41.95 -34.05 -44.2 -34.95 -45.05 -36.35 -44.35 -39.1 -41.8 -40.05 -39.5 -41.0 -37.15 -40.95" fill="#97d7d9" fill-rule="evenodd" stroke="none"/>
    <path d="M-37.15 -40.95 Q-32.5 -40.65 -31.15 -39.3 L-30.05 -37.75 -30.2 -37.2 Q-31.2 -33.4 -36.45 -33.25 -39.55 -33.1 -41.95 -34.05 -44.2 -34.95 -45.05 -36.35 -44.35 -39.1 -41.8 -40.05 -39.5 -41.0 -37.15 -40.95" fill="#97d7d9" fill-rule="evenodd" stroke="none"/>
    <path d="M-11.95 -49.4 Q-14.5 -48.45 -15.2 -45.7 L-15.5 -46.5 Q-16.35 -51.15 -12.2 -52.7 -9.65 -53.65 -7.55 -53.6 -2.9 -53.3 -1.55 -51.9 0.4 -50.05 -0.2 -47.05 L-1.25 -48.6 Q-2.65 -50.0 -7.3 -50.3 -9.55 -50.3 -11.95 -49.4" fill="#a5ddde" fill-rule="evenodd" stroke="none"/>
    <path d="M-12.1 -43.4 Q-14.35 -44.3 -15.2 -45.7 -14.5 -48.45 -11.95 -49.4 -9.55 -50.3 -7.3 -50.3 -2.65 -50.0 -1.25 -48.6 L-0.2 -47.05 -0.35 -46.55 Q-1.4 -42.7 -6.6 -42.55 -9.75 -42.5 -12.1 -43.4" fill="#97d7d9" fill-rule="evenodd" stroke="none"/>
    <path d="M-12.1 -43.4 Q-14.35 -44.3 -15.2 -45.7 -14.5 -48.45 -11.95 -49.4 -9.55 -50.3 -7.3 -50.3 -2.65 -50.0 -1.25 -48.6 L-0.2 -47.05 -0.35 -46.55 Q-1.4 -42.7 -6.6 -42.55 -9.75 -42.5 -12.1 -43.4" fill="#97d7d9" fill-rule="evenodd" stroke="none"/>
    <path d="M18.85 -48.45 Q16.3 -47.55 15.6 -44.75 L15.3 -45.55 Q14.35 -50.15 18.6 -51.8 20.95 -52.7 23.2 -52.65 27.8 -52.45 29.25 -51.0 31.2 -49.05 30.6 -46.15 L29.5 -47.65 Q28.15 -49.05 23.45 -49.35 21.3 -49.4 18.85 -48.45" fill="#a5ddde" fill-rule="evenodd" stroke="none"/>
    <path d="M18.7 -42.45 Q16.5 -43.3 15.6 -44.75 16.3 -47.55 18.85 -48.45 21.3 -49.4 23.45 -49.35 28.15 -49.05 29.5 -47.65 L30.6 -46.15 30.45 -45.6 Q29.45 -41.8 24.2 -41.65 21.1 -41.5 18.7 -42.45" fill="#97d7d9" fill-rule="evenodd" stroke="none"/>
    <path d="M18.7 -42.45 Q16.5 -43.3 15.6 -44.75 16.3 -47.55 18.85 -48.45 21.3 -49.4 23.45 -49.35 28.15 -49.05 29.5 -47.65 L30.6 -46.15 30.45 -45.6 Q29.45 -41.8 24.2 -41.65 21.1 -41.5 18.7 -42.45" fill="#97d7d9" fill-rule="evenodd" stroke="none"/>
    <path d="M47.0 -35.3 Q46.15 -39.95 50.3 -41.5 52.85 -42.45 54.95 -42.4 59.6 -42.1 61.0 -40.7 62.9 -38.8 62.3 -35.85 L61.25 -37.4 Q59.85 -38.8 55.2 -39.1 53.1 -39.15 50.55 -38.2 48.0 -37.25 47.3 -34.5 L47.0 -35.3" fill="#a5ddde" fill-rule="evenodd" stroke="none"/>
    <path d="M47.3 -34.5 Q48.0 -37.25 50.55 -38.2 53.1 -39.15 55.2 -39.1 59.85 -38.8 61.25 -37.4 L62.3 -35.85 62.15 -35.35 Q61.15 -31.55 55.9 -31.4 52.8 -31.25 50.4 -32.2 48.15 -33.1 47.3 -34.5" fill="#97d7d9" fill-rule="evenodd" stroke="none"/>
    <path d="M47.3 -34.5 Q48.0 -37.25 50.55 -38.2 53.1 -39.15 55.2 -39.1 59.85 -38.8 61.25 -37.4 L62.3 -35.85 62.15 -35.35 Q61.15 -31.55 55.9 -31.4 52.8 -31.25 50.4 -32.2 48.15 -33.1 47.3 -34.5" fill="#97d7d9" fill-rule="evenodd" stroke="none"/>
    <path d="M-49.65 -20.95 Q-50.0 -21.7 -50.7 -22.5 -52.2 -23.95 -56.75 -24.15 -58.95 -24.2 -61.4 -23.3 -64.05 -22.25 -64.6 -19.55 L-64.95 -20.35 Q-65.8 -25.05 -61.65 -26.6 -59.25 -27.5 -57.0 -27.5 -52.4 -27.2 -50.95 -25.8 -49.05 -23.9 -49.65 -20.95" fill="#a5ddde" fill-rule="evenodd" stroke="none"/>
    <path d="M-61.55 -17.25 Q-63.8 -18.2 -64.6 -19.55 -64.05 -22.25 -61.4 -23.3 -58.95 -24.2 -56.75 -24.15 -52.2 -23.95 -50.7 -22.5 -50.0 -21.7 -49.65 -20.95 L-49.8 -20.4 Q-50.8 -16.6 -56.05 -16.45 -59.35 -16.35 -61.55 -17.25" fill="#97d7d9" fill-rule="evenodd" stroke="none"/>
    <path d="M-61.55 -17.25 Q-63.8 -18.2 -64.6 -19.55 -64.05 -22.25 -61.4 -23.3 -58.95 -24.2 -56.75 -24.15 -52.2 -23.95 -50.7 -22.5 -50.0 -21.7 -49.65 -20.95 L-49.8 -20.4 Q-50.8 -16.6 -56.05 -16.45 -59.35 -16.35 -61.55 -17.25" fill="#97d7d9" fill-rule="evenodd" stroke="none"/>
    <path d="M-35.55 -9.8 Q-33.15 -10.7 -30.9 -10.7 -26.25 -10.4 -24.85 -9.0 -22.85 -7.1 -23.55 -4.15 L-24.6 -5.7 Q-26.05 -7.1 -30.65 -7.4 -32.9 -7.4 -35.3 -6.5 -37.85 -5.5 -38.5 -2.8 L-38.8 -3.55 Q-39.75 -8.2 -35.55 -9.8" fill="#a5ddde" fill-rule="evenodd" stroke="none"/>
    <path d="M-35.4 -0.5 Q-37.65 -1.25 -38.5 -2.8 -37.85 -5.5 -35.3 -6.5 -32.9 -7.4 -30.65 -7.4 -26.05 -7.1 -24.6 -5.7 L-23.55 -4.15 -23.65 -3.6 Q-24.75 0.2 -29.95 0.35 -33.05 0.4 -35.4 -0.5" fill="#97d7d9" fill-rule="evenodd" stroke="none"/>
    <path d="M-35.4 -0.5 Q-37.65 -1.25 -38.5 -2.8 -37.85 -5.5 -35.3 -6.5 -32.9 -7.4 -30.65 -7.4 -26.05 -7.1 -24.6 -5.7 L-23.55 -4.15 -23.65 -3.6 Q-24.75 0.2 -29.95 0.35 -33.05 0.4 -35.4 -0.5" fill="#97d7d9" fill-rule="evenodd" stroke="none"/>
    <path d="M0.85 -5.1 Q5.5 -4.8 6.85 -3.4 8.8 -1.5 8.2 1.45 7.85 0.65 7.1 -0.1 5.7 -1.5 1.1 -1.8 -1.15 -1.8 -3.55 -0.9 -6.15 0.15 -6.8 2.8 L-7.1 2.05 Q-7.95 -2.65 -3.8 -4.2 -1.4 -5.1 0.85 -5.1" fill="#a5ddde" fill-rule="evenodd" stroke="none"/>
    <path d="M1.1 -1.8 Q5.7 -1.5 7.1 -0.1 7.85 0.65 8.2 1.45 L8.05 1.95 Q7.05 5.8 1.8 5.95 -1.35 6.0 -3.7 5.1 -5.95 4.2 -6.8 2.8 -6.15 0.15 -3.55 -0.9 -1.15 -1.8 1.1 -1.8" fill="#97d7d9" fill-rule="evenodd" stroke="none"/>
    <path d="M1.1 -1.8 Q5.7 -1.5 7.1 -0.1 7.85 0.65 8.2 1.45 L8.05 1.95 Q7.05 5.8 1.8 5.95 -1.35 6.0 -3.7 5.1 -5.95 4.2 -6.8 2.8 -6.15 0.15 -3.55 -0.9 -1.15 -1.8 1.1 -1.8" fill="#97d7d9" fill-rule="evenodd" stroke="none"/>
    <path d="M28.15 -4.6 Q25.55 -3.65 24.95 -0.9 L24.65 -1.7 Q23.7 -6.3 27.9 -7.95 30.3 -8.85 32.55 -8.85 37.15 -8.55 38.6 -7.15 40.5 -5.2 39.9 -2.3 L38.85 -3.85 Q37.45 -5.2 32.8 -5.5 30.7 -5.55 28.15 -4.6" fill="#a5ddde" fill-rule="evenodd" stroke="none"/>
    <path d="M28.05 1.4 Q25.75 0.5 24.95 -0.9 25.55 -3.65 28.15 -4.6 30.7 -5.55 32.8 -5.5 37.45 -5.2 38.85 -3.85 L39.9 -2.3 39.8 -1.75 Q38.7 2.05 33.5 2.2 30.35 2.35 28.05 1.4" fill="#97d7d9" fill-rule="evenodd" stroke="none"/>
    <path d="M28.05 1.4 Q25.75 0.5 24.95 -0.9 25.55 -3.65 28.15 -4.6 30.7 -5.55 32.8 -5.5 37.45 -5.2 38.85 -3.85 L39.9 -2.3 39.8 -1.75 Q38.7 2.05 33.5 2.2 30.35 2.35 28.05 1.4" fill="#97d7d9" fill-rule="evenodd" stroke="none"/>
    <path d="M65.1 -12.55 L64.05 -14.1 Q62.6 -15.5 58.0 -15.8 55.75 -15.8 53.35 -14.9 50.75 -13.85 50.1 -11.2 L49.8 -11.95 Q48.95 -16.65 53.1 -18.2 55.5 -19.1 57.75 -19.1 62.4 -18.8 63.8 -17.4 65.7 -15.5 65.1 -12.55" fill="#a5ddde" fill-rule="evenodd" stroke="none"/>
    <path d="M53.2 -8.9 Q51.05 -9.7 50.1 -11.2 50.75 -13.85 53.35 -14.9 55.75 -15.8 58.0 -15.8 62.6 -15.5 64.05 -14.1 L65.1 -12.55 64.95 -12.0 Q63.95 -8.2 58.7 -8.05 55.4 -7.95 53.2 -8.9" fill="#97d7d9" fill-rule="evenodd" stroke="none"/>
    <path d="M53.2 -8.9 Q51.05 -9.7 50.1 -11.2 50.75 -13.85 53.35 -14.9 55.75 -15.8 58.0 -15.8 62.6 -15.5 64.05 -14.1 L65.1 -12.55 64.95 -12.0 Q63.95 -8.2 58.7 -8.05 55.4 -7.95 53.2 -8.9" fill="#97d7d9" fill-rule="evenodd" stroke="none"/>
    <path d="M-7.1 -27.65 Q-5.2 -25.75 -5.8 -22.8 L-6.85 -24.35 Q-8.25 -25.75 -12.9 -26.05 -15.15 -26.05 -17.55 -25.15 -20.1 -24.2 -20.8 -21.45 L-21.1 -22.2 Q-21.95 -26.9 -17.8 -28.45 -15.25 -29.4 -13.15 -29.35 -8.5 -29.05 -7.1 -27.65" fill="#a5ddde" fill-rule="evenodd" stroke="none"/>
    <path d="M-17.7 -19.15 Q-19.95 -20.05 -20.8 -21.45 -20.1 -24.2 -17.55 -25.15 -15.15 -26.05 -12.9 -26.05 -8.25 -25.75 -6.85 -24.35 L-5.8 -22.8 -5.95 -22.3 Q-6.95 -18.45 -12.2 -18.3 -15.35 -18.25 -17.7 -19.15" fill="#97d7d9" fill-rule="evenodd" stroke="none"/>
    <path d="M-17.7 -19.15 Q-19.95 -20.05 -20.8 -21.45 -20.1 -24.2 -17.55 -25.15 -15.15 -26.05 -12.9 -26.05 -8.25 -25.75 -6.85 -24.35 L-5.8 -22.8 -5.95 -22.3 Q-6.95 -18.45 -12.2 -18.3 -15.35 -18.25 -17.7 -19.15" fill="#97d7d9" fill-rule="evenodd" stroke="none"/>
    <path d="M25.0 -24.65 L23.9 -26.2 Q22.55 -27.6 17.85 -27.9 15.7 -27.95 13.25 -27.0 10.7 -26.05 10.0 -23.3 L9.7 -24.1 Q8.75 -28.7 13.0 -30.3 15.45 -31.25 17.6 -31.2 22.3 -30.9 23.65 -29.55 25.6 -27.6 25.0 -24.65" fill="#a5ddde" fill-rule="evenodd" stroke="none"/>
    <path d="M13.1 -21.0 Q10.9 -21.85 10.0 -23.3 10.7 -26.05 13.25 -27.0 15.7 -27.95 17.85 -27.9 22.55 -27.6 23.9 -26.2 L25.0 -24.65 24.85 -24.15 Q23.85 -20.35 18.6 -20.2 15.5 -20.05 13.1 -21.0" fill="#97d7d9" fill-rule="evenodd" stroke="none"/>
    <path d="M13.1 -21.0 Q10.9 -21.85 10.0 -23.3 10.7 -26.05 13.25 -27.0 15.7 -27.95 17.85 -27.9 22.55 -27.6 23.9 -26.2 L25.0 -24.65 24.85 -24.15 Q23.85 -20.35 18.6 -20.2 15.5 -20.05 13.1 -21.0" fill="#97d7d9" fill-rule="evenodd" stroke="none"/>
    <path d="M37.15 -89.3 Q26.7 -91.45 1.95 -92.85 -20.9 -93.15 -46.25 -84.2 -66.2 -77.1 -75.5 -59.25 -84.25 -42.55 -80.3 -23.7 -78.3 -14.15 -67.0 -5.5 -57.8 1.55 -45.05 6.2 -21.0 15.15 11.9 14.2 37.2 13.45 54.45 3.35 71.8 -6.85 77.0 -24.3 86.5 -56.15 64.65 -76.45 54.7 -85.7 37.15 -89.3 M39.85 -92.85 Q58.65 -89.0 69.3 -79.1 92.65 -57.35 82.55 -23.2 77.0 -4.55 58.4 6.35 39.95 17.15 12.8 18.0 -22.4 19.0 -48.2 9.45 -61.85 4.4 -71.7 -3.1 -83.8 -12.35 -85.95 -22.6 -90.2 -42.75 -80.8 -60.7 -70.85 -79.8 -49.5 -87.4 -22.15 -97.05 2.15 -96.65 28.6 -95.2 39.85 -92.85" fill="#dcf2f1" fill-rule="evenodd" stroke="none"/>
  </g>
</svg>
