<?xml version="1.0" encoding="UTF-8" standalone="no"?>
<svg xmlns:ffdec="https://www.free-decompiler.com/flash" xmlns:xlink="http://www.w3.org/1999/xlink" ffdec:objectType="shape" height="101.25px" width="146.25px" xmlns="http://www.w3.org/2000/svg">
  <g transform="matrix(1.0, 0.0, 0.0, 1.0, 71.45, 46.35)">
    <path d="M72.75 -9.7 Q79.9 6.95 62.05 27.65 56.5 34.1 49.1 40.2 L42.8 44.95 Q21.5 57.95 -6.8 53.95 -15.6 52.7 -23.95 49.9 L-30.25 47.5 Q-56.0 34.65 -66.15 16.9 -69.35 11.35 -70.55 6.0 L-71.2 1.75 72.75 -9.7" fill="#eeffef" fill-rule="evenodd" stroke="none"/>
    <path d="M29.25 -42.9 Q42.25 -39.6 52.3 -33.6 62.3 -27.55 67.8 -19.8 73.5 -11.7 73.5 -2.85 73.5 8.85 63.85 18.85 54.5 28.6 38.4 34.4 15.9 22.9 1.05 10.15 -12.35 -1.4 -20.7 -14.35 -27.95 -25.65 -33.2 -41.2 -17.15 -46.35 1.05 -46.35 15.8 -46.35 29.25 -42.9" fill="#d7efd7" fill-rule="evenodd" stroke="none"/>
    <path d="M-33.2 -41.2 Q-27.95 -25.65 -20.7 -14.35 -12.35 -1.4 1.05 10.15 15.9 22.9 38.4 34.4 21.3 40.65 1.05 40.65 -13.7 40.65 -27.15 37.2 -40.2 33.9 -50.2 27.9 -60.25 21.85 -65.75 14.1 -71.45 6.0 -71.45 -2.85 -71.45 -15.1 -60.85 -25.45 -50.6 -35.6 -33.2 -41.2" fill="#cedfce" fill-rule="evenodd" stroke="none"/>
    <path d="M36.3 14.3 Q36.3 22.7 27.15 28.65 18.0 34.55 5.1 34.55 -7.85 34.55 -17.0 28.65 -26.15 22.7 -26.15 14.3 -26.15 5.95 -17.0 0.0 -7.85 -5.9 5.1 -5.9 18.0 -5.9 27.15 0.0 36.3 5.95 36.3 14.3" fill="#eeffef" fill-rule="evenodd" stroke="none"/>
  </g>
</svg>
