<?xml version="1.0" encoding="UTF-8" standalone="no"?>
<svg xmlns:ffdec="https://www.free-decompiler.com/flash" xmlns:xlink="http://www.w3.org/1999/xlink" ffdec:objectType="shape" height="33.95px" width="73.25px" xmlns="http://www.w3.org/2000/svg">
  <g transform="matrix(1.0, 0.0, 0.0, 1.0, 36.6, 16.95)">
    <path d="M4.4 -12.55 Q5.05 -10.8 4.25 -9.5 3.4 -8.1 1.6 -7.95 -3.0 -7.6 -5.8 -4.2 -7.4 -2.25 -8.3 0.1 -9.4 3.05 -12.1 2.15 -12.7 1.95 -12.85 1.3 L-13.75 -2.45 Q-14.3 -4.9 -13.35 -7.4 -12.35 -9.9 -10.8 -11.65 -9.3 -13.45 -5.75 -15.7 -2.2 -18.0 0.75 -16.15 3.7 -14.3 4.4 -12.55" fill="url(#gradient0)" fill-rule="evenodd" stroke="none"/>
    <path d="M14.75 6.95 L15.85 3.25 Q16.6 0.8 18.7 -0.85 20.75 -2.5 23.0 -3.25 25.2 -4.05 29.4 -4.25 33.6 -4.45 35.25 -1.35 36.9 1.7 36.6 3.55 36.3 5.4 34.95 6.15 33.5 6.95 31.9 6.15 27.7 4.15 23.55 5.7 21.2 6.6 19.3 8.2 16.9 10.15 15.0 8.05 14.55 7.55 14.75 6.95" fill="url(#gradient1)" fill-rule="evenodd" stroke="none"/>
    <path d="M-31.35 -1.9 Q-28.55 -5.0 -25.15 -4.0 -21.85 -3.0 -20.75 -1.45 -19.65 0.05 -20.1 1.55 -20.55 3.1 -22.25 3.7 -26.6 5.2 -28.45 9.25 -29.5 11.55 -29.75 14.05 -30.05 17.15 -32.85 17.0 -33.5 16.95 -33.8 16.4 L-35.65 13.0 Q-36.85 10.75 -36.5 8.1 -36.25 5.45 -35.2 3.35 -34.15 1.25 -31.35 -1.9" fill="url(#gradient2)" fill-rule="evenodd" stroke="none"/>
  </g>
  <defs>
    <radialGradient cx="0" cy="0" gradientTransform="matrix(0.032, -0.0145, 0.0081, 0.0179, -4.65, -14.5)" gradientUnits="userSpaceOnUse" id="gradient0" r="819.2" spreadMethod="pad">
      <stop offset="0.0" stop-color="#ffffff" stop-opacity="0.4"/>
      <stop offset="0.49019607843137253" stop-color="#ffffff" stop-opacity="0.0"/>
    </radialGradient>
    <radialGradient cx="0" cy="0" gradientTransform="matrix(0.0349, 0.0034, -0.0019, 0.0195, 29.75, -2.6)" gradientUnits="userSpaceOnUse" id="gradient1" r="819.2" spreadMethod="pad">
      <stop offset="0.0" stop-color="#ffffff" stop-opacity="0.4"/>
      <stop offset="0.49019607843137253" stop-color="#ffffff" stop-opacity="0.0"/>
    </radialGradient>
    <radialGradient cx="0" cy="0" gradientTransform="matrix(0.0271, -0.0223, 0.0125, 0.0152, -30.0, -1.0)" gradientUnits="userSpaceOnUse" id="gradient2" r="819.2" spreadMethod="pad">
      <stop offset="0.0" stop-color="#ffffff" stop-opacity="0.4"/>
      <stop offset="0.49019607843137253" stop-color="#ffffff" stop-opacity="0.0"/>
    </radialGradient>
  </defs>
</svg>
