<?xml version="1.0" encoding="UTF-8" standalone="no"?>
<svg xmlns:ffdec="https://www.free-decompiler.com/flash" xmlns:xlink="http://www.w3.org/1999/xlink" ffdec:objectType="shape" height="89.0px" width="96.9px" xmlns="http://www.w3.org/2000/svg">
  <g transform="matrix(1.0, 0.0, 0.0, 1.0, 48.45, 44.5)">
    <path d="M46.1 -22.4 L45.9 -22.3 46.1 -22.45 46.1 -22.4 M12.2 23.3 L12.25 23.3 12.05 24.4 12.2 23.3" fill="url(#gradient0)" fill-rule="evenodd" stroke="none"/>
    <path d="M45.9 -22.3 L46.1 -22.4 Q47.85 -18.15 48.3 -11.45 L48.3 -11.4 Q48.8 -4.25 47.85 5.65 46.05 24.85 40.85 32.7 37.95 37.05 30.65 39.75 24.25 42.1 19.3 41.6 12.65 41.05 9.1 32.85 1.95 43.8 -2.2 44.25 -12.8 45.35 -21.6 41.4 -29.1 38.1 -32.65 32.7 -42.5 17.7 -45.6 3.9 L-46.9 0.8 Q-52.95 -16.25 -35.7 -30.95 -28.6 -37.05 -19.35 -40.7 -10.25 -44.4 -2.3 -44.5 14.55 -44.8 31.2 -37.55 42.0 -32.9 45.9 -22.3 M12.2 23.3 L12.25 23.1 12.2 21.6 12.05 21.35 11.85 21.05 11.85 20.8 11.85 20.5 11.7 20.2 Q11.25 19.25 10.6 18.55 9.05 15.35 7.15 15.9 5.25 16.35 4.75 19.6 L4.7 19.65 4.7 19.9 4.7 20.7 4.7 22.2 4.7 24.4 4.7 24.6 4.7 24.7 5.75 26.1 6.75 27.6 6.9 27.8 7.35 28.4 7.35 28.65 7.35 28.9 7.5 29.1 7.35 28.95 7.5 29.1 7.6 29.25 7.7 29.5 7.7 29.8 7.7 30.1 7.75 30.35 7.8 30.65 8.1 30.85 8.6 31.1 8.65 31.1 8.75 31.05 9.1 30.85 9.55 30.3 9.6 30.1 Q9.7 29.7 10.5 29.65 L10.9 29.5 10.95 29.3 11.6 27.0 12.1 24.8 12.25 23.3 12.2 23.3" fill="url(#gradient1)" fill-rule="evenodd" stroke="none"/>
  </g>
  <defs>
    <radialGradient cx="0" cy="0" gradientTransform="matrix(0.0724, 0.0, 0.0, 0.0714, -1.4, -9.85)" gradientUnits="userSpaceOnUse" id="gradient0" r="819.2" spreadMethod="pad">
      <stop offset="0.20392156862745098" stop-color="#eefb8e" stop-opacity="0.0"/>
      <stop offset="0.9372549019607843" stop-color="#e2fa3a" stop-opacity="0.19215687"/>
    </radialGradient>
    <radialGradient cx="0" cy="0" gradientTransform="matrix(0.0661, 0.0, 0.0, 0.0714, 4.45, -10.65)" gradientUnits="userSpaceOnUse" id="gradient1" r="819.2" spreadMethod="pad">
      <stop offset="0.20392156862745098" stop-color="#f9d295" stop-opacity="0.0"/>
      <stop offset="0.9372549019607843" stop-color="#fd9c26" stop-opacity="0.2"/>
      <stop offset="1.0" stop-color="#b17003" stop-opacity="0.3019608"/>
    </radialGradient>
  </defs>
</svg>
