<?xml version="1.0" encoding="UTF-8" standalone="no"?>
<svg xmlns:ffdec="https://www.free-decompiler.com/flash" xmlns:xlink="http://www.w3.org/1999/xlink" ffdec:objectType="shape" height="93.4px" width="101.8px" xmlns="http://www.w3.org/2000/svg">
  <g transform="matrix(1.0, 0.0, 0.0, 1.0, 41.0, 43.75)">
    <path d="M58.1 -20.5 L58.25 -20.6 58.3 -20.55 Q60.1 -16.1 60.6 -9.1 61.15 -1.55 60.15 8.9 58.25 29.05 52.75 37.25 49.7 41.85 42.05 44.65 35.3 47.15 30.15 46.65 23.15 46.0 19.45 37.45 11.95 48.95 7.55 49.4 -3.55 50.55 -12.8 46.45 -20.7 42.95 -24.4 37.25 -34.75 21.55 -38.0 7.05 L-39.35 3.75 Q-45.7 -14.1 -27.6 -29.55 -20.15 -35.95 -10.45 -39.8 -0.9 -43.65 7.45 -43.75 25.15 -44.1 42.65 -36.45 53.95 -31.6 58.1 -20.5 M15.95 32.15 L15.6 31.2 15.6 31.45 15.6 31.8 15.85 32.1 15.95 32.15 M21.9 22.9 L21.75 22.6 Q20.9 20.15 18.8 19.75 18.0 19.6 17.0 19.75 L17.0 19.8 16.7 19.9 16.4 19.95 15.8 20.55 15.6 20.8 15.6 21.1 15.6 21.45 15.4 21.7 15.25 22.0 15.25 22.35 15.25 22.6 15.05 22.9 14.95 23.0 14.8 23.2 14.8 23.85 14.8 26.15 14.8 28.5 14.9 28.6 15.05 28.85 15.1 28.9 15.25 29.1 15.25 29.4 15.25 29.7 15.4 30.0 15.6 30.3 15.6 30.55 15.6 31.0 16.0 32.25 16.05 32.35 16.05 32.4 16.35 33.5 16.05 32.5 16.05 32.65 16.05 32.95 16.05 33.25 16.5 33.85 16.5 33.9 16.7 34.15 16.75 34.45 16.8 34.9 16.8 35.05 16.8 35.1 16.8 35.35 17.0 35.5 17.05 35.55 18.1 36.35 19.75 37.1 20.15 37.0 20.45 36.8 20.9 35.35 21.25 33.75 Q21.9 29.4 21.95 24.9 L21.9 22.9" fill="url(#gradient0)" fill-rule="evenodd" stroke="none"/>
  </g>
  <defs>
    <radialGradient cx="0" cy="0" gradientTransform="matrix(0.0674, 0.0, 0.0, 0.0674, 13.05, 6.95)" gradientUnits="userSpaceOnUse" id="gradient0" r="819.2" spreadMethod="pad">
      <stop offset="0.4745098039215686" stop-color="#999999" stop-opacity="0.38039216"/>
      <stop offset="0.8549019607843137" stop-color="#666666" stop-opacity="0.0"/>
    </radialGradient>
  </defs>
</svg>
