<?xml version="1.0" encoding="UTF-8" standalone="no"?>
<svg xmlns:ffdec="https://www.free-decompiler.com/flash" xmlns:xlink="http://www.w3.org/1999/xlink" ffdec:objectType="shape" height="89.0px" width="96.9px" xmlns="http://www.w3.org/2000/svg">
  <g transform="matrix(1.0, 0.0, 0.0, 1.0, 48.45, 44.5)">
    <path d="M25.0 -21.9 Q18.85 -24.15 10.45 -28.7 L10.4 -28.75 10.45 -28.65 Q7.6 -30.5 6.0 -31.05 1.35 -32.65 -3.45 -30.65 L-9.75 -27.15 -8.0 -28.75 -19.65 -22.9 -22.65 -21.75 -27.1 -19.6 Q-30.4 -17.7 -32.5 -15.25 -38.95 -8.05 -36.3 3.75 -33.9 14.8 -25.45 19.35 L-23.9 20.15 -23.9 20.2 Q-27.95 19.4 -32.0 15.85 L-35.15 12.6 Q-37.25 10.1 -38.7 7.1 -44.7 -5.6 -35.7 -15.7 -28.35 -24.05 -17.15 -29.0 -5.8 -34.0 4.95 -33.45 17.7 -32.9 27.55 -28.5 40.0 -22.95 44.0 -12.55 47.5 -3.35 41.65 7.2 L38.6 11.85 Q33.6 18.3 26.15 21.5 31.85 16.95 33.8 14.65 36.7 11.1 38.45 5.35 40.6 -0.7 41.35 -3.85 42.65 -9.45 41.0 -13.0 38.7 -17.65 34.3 -19.7 31.05 -21.2 25.0 -21.9 M48.05 -11.4 L48.3 -11.45 Q48.8 -4.3 47.85 5.65 46.05 24.85 40.85 32.7 37.95 37.05 30.65 39.75 24.25 42.1 19.3 41.6 12.65 41.05 9.1 32.85 1.95 43.8 -2.2 44.25 -12.8 45.35 -21.6 41.4 -29.1 38.1 -32.65 32.7 -42.5 17.7 -45.6 3.9 -39.5 16.45 -21.85 23.15 -2.9 30.4 6.8 31.05 L7.8 31.8 9.4 32.5 9.75 32.4 10.05 32.25 10.5 30.85 Q24.35 28.95 35.85 17.5 48.95 4.4 48.05 -11.4" fill="#ebf5f8" fill-rule="evenodd" stroke="none"/>
    <path d="M10.45 -28.65 L10.9 -27.7 Q13.9 -27.1 16.05 -22.9 18.35 -18.45 20.3 -17.7 22.0 -17.1 26.2 -18.8 29.5 -20.15 31.55 -20.05 28.65 -20.6 25.0 -21.9 31.05 -21.2 34.3 -19.7 38.7 -17.65 41.0 -13.0 42.65 -9.45 41.35 -3.85 40.6 -0.7 38.45 5.35 36.7 11.1 33.8 14.65 31.85 16.95 26.15 21.5 33.6 18.3 38.6 11.85 L38.95 12.1 42.05 7.4 Q46.8 -1.0 46.25 -10.35 45.1 -28.5 30.5 -34.8 15.0 -41.55 -1.0 -41.35 -8.45 -41.25 -16.95 -37.8 -25.65 -34.35 -32.3 -28.6 -48.5 -14.9 -42.75 1.1 -40.4 7.6 -35.15 12.6 L-32.0 15.85 Q-27.95 19.4 -23.9 20.2 L-23.65 20.25 -23.9 20.15 -25.45 19.35 Q-33.9 14.8 -36.3 3.75 -38.95 -8.05 -32.5 -15.25 -30.4 -17.7 -27.1 -19.6 L-26.9 -19.3 -19.8 -21.0 Q-16.25 -21.35 -13.15 -18.6 -13.85 -22.05 -12.3 -24.4 -11.7 -25.35 -9.75 -27.15 L-3.45 -30.65 Q1.35 -32.65 6.0 -31.05 7.6 -30.5 10.45 -28.65 M12.3 23.15 Q10.75 29.1 11.0 29.6 11.25 30.1 14.45 20.1 17.55 15.85 19.85 13.9 L24.8 10.1 Q27.55 8.0 29.0 5.5 31.8 0.85 30.75 -4.6 29.65 -10.65 23.5 -6.5 27.85 -6.55 28.85 -3.3 29.8 -0.55 27.9 3.5 26.0 7.45 22.75 9.95 19.9 12.15 17.25 12.3 L15.8 12.75 Q12.45 13.7 10.8 10.3 9.3 7.2 9.85 2.75 L10.8 -1.9 Q11.0 -3.55 10.4 -5.3 L10.4 -5.35 8.25 -9.6 Q6.05 -14.35 10.0 -19.5 7.95 -17.6 6.0 -9.85 L5.05 -6.9 6.7 -7.2 5.65 -6.15 3.35 -2.65 2.3 -3.2 Q-0.95 -4.8 -4.3 -4.55 -1.1 -3.0 1.95 -0.2 L2.15 0.0 2.05 0.8 Q2.0 1.95 3.9 4.9 5.65 7.6 5.25 9.1 4.25 12.6 -0.75 12.2 L-2.8 11.8 -4.4 11.65 -7.1 11.05 -8.4 10.9 -8.4 10.75 Q-15.4 9.3 -19.3 9.0 -14.15 9.8 -6.6 14.0 -1.25 16.95 1.0 19.55 2.2 21.0 2.45 22.35 L2.5 22.7 2.55 22.7 2.7 22.65 Q3.5 23.85 6.6 30.6 L6.6 30.85 6.8 31.0 6.8 31.05 Q-2.9 30.4 -21.85 23.15 -39.5 16.45 -45.6 3.9 L-46.9 0.8 Q-52.95 -16.25 -35.7 -30.95 -28.6 -37.05 -19.35 -40.7 -10.25 -44.4 -2.3 -44.5 14.55 -44.8 31.2 -37.55 42.0 -32.9 45.9 -22.3 47.7 -17.5 48.05 -11.4 48.95 4.4 35.85 17.5 24.35 28.95 10.5 30.85 L10.8 29.35 Q11.45 25.2 11.5 20.9 L12.1 23.05 12.1 23.1 12.1 23.45 12.3 23.15 M6.6 30.45 L6.3 29.45 6.5 29.7 6.55 30.0 6.6 30.45 M4.6 24.3 Q4.45 21.7 4.7 19.9 L4.7 22.1 4.7 24.35 4.75 24.45 4.6 24.3 M4.85 19.1 Q5.05 18.0 5.45 17.3 L5.45 17.6 5.25 17.85 5.1 18.15 5.1 18.45 5.1 18.7 4.9 19.0 4.85 19.1 M6.5 16.15 L6.75 16.0 7.15 15.9 8.5 16.0 Q7.7 15.85 6.75 16.0 L6.75 16.05 6.5 16.15 M5.0 24.75 L5.1 24.9 5.1 25.2 5.1 25.45 5.25 25.75 5.45 26.05 5.45 26.3 5.45 26.75 Q4.85 24.65 5.0 24.75 M5.8 27.9 L5.85 28.0 5.85 28.05 5.8 27.9" fill="#ffffff" fill-rule="evenodd" stroke="none"/>
    <path d="M10.45 -28.7 L10.45 -28.65 10.4 -28.75 10.45 -28.7 M2.45 22.35 L2.55 22.7 2.5 22.7 2.45 22.35 M5.85 28.15 L5.75 27.8 5.45 26.9 4.6 24.3 4.75 24.45 4.9 24.65 5.0 24.75 Q4.85 24.65 5.45 26.75 L5.8 27.9 5.85 28.05 6.2 29.1 5.85 28.15 M12.1 23.05 L12.3 23.15 12.1 23.45 12.1 23.1 12.1 23.05" fill="#feecbf" fill-rule="evenodd" stroke="none"/>
    <path d="M10.45 -28.65 L10.45 -28.7 Q18.85 -24.15 25.0 -21.9 28.65 -20.6 31.55 -20.05 29.5 -20.15 26.2 -18.8 22.0 -17.1 20.3 -17.7 18.35 -18.45 16.05 -22.9 13.9 -27.1 10.9 -27.7 L10.45 -28.65 M-9.75 -27.15 Q-11.7 -25.35 -12.3 -24.4 -13.85 -22.05 -13.15 -18.6 -16.25 -21.35 -19.8 -21.0 L-26.9 -19.3 -19.65 -22.9 -8.0 -28.75 -9.75 -27.15 M2.45 22.35 Q2.2 21.0 1.0 19.55 -1.25 16.95 -6.6 14.0 -14.15 9.8 -19.3 9.0 -15.4 9.3 -8.4 10.75 L-8.4 10.9 -7.1 11.05 -4.4 11.65 -2.8 11.8 -0.75 12.2 Q4.25 12.6 5.25 9.1 5.65 7.6 3.9 4.9 2.0 1.95 2.05 0.8 L2.15 0.0 1.95 -0.2 Q-1.1 -3.0 -4.3 -4.55 -0.95 -4.8 2.3 -3.2 L3.35 -2.65 5.65 -6.15 6.7 -7.2 5.05 -6.9 6.0 -9.85 Q7.95 -17.6 10.0 -19.5 6.05 -14.35 8.25 -9.6 L10.4 -5.35 10.4 -5.3 Q11.0 -3.55 10.8 -1.9 L9.85 2.75 Q9.3 7.2 10.8 10.3 12.45 13.7 15.8 12.75 L17.25 12.3 Q19.9 12.15 22.75 9.95 26.0 7.45 27.9 3.5 29.8 -0.55 28.85 -3.3 27.85 -6.55 23.5 -6.5 29.65 -10.65 30.75 -4.6 31.8 0.85 29.0 5.5 27.55 8.0 24.8 10.1 L19.85 13.9 Q17.55 15.85 14.45 20.1 11.25 30.1 11.0 29.6 10.75 29.1 12.3 23.15 L12.1 23.05 11.5 20.9 11.45 19.0 11.3 18.7 Q10.5 16.4 8.5 16.0 L7.15 15.9 6.75 16.0 6.5 16.15 6.2 16.2 5.65 16.75 5.45 17.0 5.45 17.3 Q5.05 18.0 4.85 19.1 L4.7 19.3 4.7 19.9 Q4.45 21.7 4.6 24.3 L5.45 26.9 5.45 27.15 5.45 27.45 5.7 27.75 5.75 27.8 5.85 28.15 5.85 28.3 5.85 28.55 5.85 28.85 6.3 29.45 6.6 30.45 6.6 30.55 6.6 30.6 Q3.5 23.85 2.7 22.65 L2.55 22.7 2.45 22.35" fill="#dfeff4" fill-rule="evenodd" stroke="none"/>
    <path d="M-35.15 12.6 Q-40.4 7.6 -42.75 1.1 -48.5 -14.9 -32.3 -28.6 -25.65 -34.35 -16.95 -37.8 -8.45 -41.25 -1.0 -41.35 15.0 -41.55 30.5 -34.8 45.1 -28.5 46.25 -10.35 46.8 -1.0 42.05 7.4 L41.65 7.2 Q47.5 -3.35 44.0 -12.55 40.0 -22.95 27.55 -28.5 17.7 -32.9 4.95 -33.45 -5.8 -34.0 -17.15 -29.0 -28.35 -24.05 -35.7 -15.7 -44.7 -5.6 -38.7 7.1 -37.25 10.1 -35.15 12.6" fill="#f2fafb" fill-rule="evenodd" stroke="none"/>
    <path d="M-23.9 20.15 L-23.65 20.25 -23.9 20.2 -23.9 20.15 M48.3 -11.45 L48.05 -11.4 Q47.7 -17.5 45.9 -22.3 L46.1 -22.45 46.1 -22.4 Q47.85 -18.15 48.3 -11.45" fill="#fff4d8" fill-rule="evenodd" stroke="none"/>
    <path d="M-26.9 -19.3 L-27.1 -19.6 -22.65 -21.75 -19.65 -22.9 -26.9 -19.3 M42.05 7.4 L38.95 12.1 38.6 11.85 41.65 7.2 42.05 7.4" fill="#fff9eb" fill-rule="evenodd" stroke="none"/>
  </g>
</svg>
