<?xml version="1.0" encoding="UTF-8" standalone="no"?>
<svg xmlns:ffdec="https://www.free-decompiler.com/flash" xmlns:xlink="http://www.w3.org/1999/xlink" ffdec:objectType="shape" height="77.5px" width="137.7px" xmlns="http://www.w3.org/2000/svg">
  <g transform="matrix(1.0, 0.0, 0.0, 1.0, 68.85, 38.75)">
    <path d="M19.4 -36.2 Q25.6 -34.2 32.2 -29.3 42.9 -21.4 48.85 -14.45 L50.7 -13.8 Q54.85 -11.85 58.6 -6.2 65.0 3.3 65.3 6.25 65.45 8.1 66.95 11.3 68.55 14.75 68.85 16.15 L68.65 16.2 68.85 16.95 64.95 17.65 Q61.7 20.5 60.15 22.35 57.3 25.55 54.45 30.7 51.7 35.6 48.0 35.65 46.0 35.7 39.15 33.25 L36.6 32.4 36.7 32.55 36.6 32.5 35.3 32.05 29.8 31.15 Q27.1 31.15 23.85 32.2 23.15 32.65 22.45 32.9 L22.75 32.55 20.3 33.5 12.05 36.95 Q8.25 37.95 3.15 35.9 -3.05 32.75 -6.15 31.4 -8.05 30.55 -9.85 30.15 -12.15 29.55 -14.2 29.65 L-16.2 29.85 Q-18.15 30.2 -20.85 31.65 -22.85 32.7 -25.2 34.3 -30.7 38.0 -34.0 38.55 -39.25 39.45 -43.9 36.65 -47.0 34.8 -51.6 29.9 -56.9 24.25 -59.2 22.45 -62.9 19.55 -66.85 18.8 L-67.2 18.85 -67.1 18.75 -68.85 18.55 -66.55 17.1 Q-62.55 10.35 -60.4 1.65 -57.95 -7.95 -57.2 -9.3 -54.9 -13.25 -48.9 -14.2 L-42.15 -20.9 Q-34.2 -28.55 -26.35 -32.45 -12.15 -39.65 4.55 -38.65 13.75 -38.05 19.4 -36.2" fill="url(#gradient0)" fill-rule="evenodd" stroke="none"/>
  </g>
  <defs>
    <radialGradient cx="0" cy="0" gradientTransform="matrix(0.1379, 0.0, 0.0, 0.0505, -1.35, -1.0)" gradientUnits="userSpaceOnUse" id="gradient0" r="819.2" spreadMethod="pad">
      <stop offset="0.20392156862745098" stop-color="#eefb8e" stop-opacity="0.0"/>
      <stop offset="0.9372549019607843" stop-color="#e2fa3a" stop-opacity="0.19215687"/>
    </radialGradient>
  </defs>
</svg>
