<?xml version="1.0" encoding="UTF-8" standalone="no"?>
<svg xmlns:ffdec="https://www.free-decompiler.com/flash" xmlns:xlink="http://www.w3.org/1999/xlink" ffdec:objectType="shape" height="51.1px" width="110.6px" xmlns="http://www.w3.org/2000/svg">
  <g transform="matrix(1.0, 0.0, 0.0, 1.0, 55.3, 25.55)">
    <path d="M-24.2 -21.9 Q-22.3 -25.65 -18.8 -25.55 -15.3 -25.45 -13.85 -24.25 -12.4 -23.05 -12.45 -21.5 -12.5 -19.9 -13.95 -18.85 -17.8 -16.25 -18.5 -11.9 -18.9 -9.4 -18.5 -6.9 -18.0 -3.85 -20.8 -3.3 -21.4 -3.15 -21.85 -3.6 L-24.5 -6.4 Q-26.25 -8.3 -26.6 -10.9 -27.05 -13.6 -26.55 -15.85 -26.1 -18.15 -24.2 -21.9" fill="url(#gradient0)" fill-rule="evenodd" stroke="none"/>
    <path d="M16.5 -20.9 Q17.95 -19.7 17.9 -18.15 17.85 -16.55 16.4 -15.5 12.55 -12.9 11.85 -8.55 11.45 -6.05 11.85 -3.55 12.35 -0.5 9.55 0.05 8.95 0.2 8.5 -0.25 L5.85 -3.05 Q4.1 -4.95 3.75 -7.55 3.3 -10.25 3.8 -12.5 4.25 -14.8 6.15 -18.55 8.05 -22.3 11.55 -22.2 15.05 -22.1 16.5 -20.9" fill="url(#gradient1)" fill-rule="evenodd" stroke="none"/>
    <path d="M38.3 -9.95 Q40.2 -13.7 43.7 -13.6 47.2 -13.5 48.65 -12.3 50.1 -11.1 50.05 -9.55 50.0 -7.95 48.55 -6.9 44.7 -4.3 44.0 0.05 43.6 2.55 44.0 5.05 44.5 8.1 41.7 8.65 41.1 8.8 40.65 8.35 L38.0 5.55 Q36.25 3.65 35.9 1.05 35.45 -1.65 35.95 -3.9 36.4 -6.2 38.3 -9.95" fill="url(#gradient2)" fill-rule="evenodd" stroke="none"/>
    <path d="M-55.05 -5.7 Q-54.6 -8.0 -52.7 -11.75 -50.8 -15.5 -47.3 -15.4 -43.8 -15.3 -42.35 -14.1 -40.9 -12.9 -40.95 -11.35 -41.0 -9.75 -42.45 -8.7 -46.3 -6.1 -47.0 -1.75 -47.4 0.75 -47.0 3.25 -46.5 6.3 -49.3 6.85 -49.9 7.0 -50.35 6.55 L-53.0 3.75 Q-54.75 1.85 -55.1 -0.75 -55.55 -3.45 -55.05 -5.7" fill="url(#gradient3)" fill-rule="evenodd" stroke="none"/>
    <path d="M23.4 12.35 L22.45 15.65 Q21.75 17.8 19.9 19.65 18.0 21.55 16.0 22.7 14.0 23.85 10.2 25.1 6.35 26.3 4.85 24.2 3.3 22.1 3.6 20.55 3.85 18.95 5.05 18.0 6.35 17.0 7.85 17.25 11.65 17.85 15.4 15.55 17.5 14.25 19.25 12.45 21.4 10.2 23.15 11.5 23.5 11.8 23.4 12.35" fill="url(#gradient4)" fill-rule="evenodd" stroke="none"/>
    <path d="M-25.0 12.45 Q-22.85 10.2 -21.1 11.5 -20.75 11.8 -20.85 12.35 L-21.8 15.65 Q-22.5 17.8 -24.35 19.65 -26.25 21.55 -28.25 22.7 -30.25 23.85 -34.05 25.1 -37.9 26.3 -39.4 24.2 -40.95 22.1 -40.65 20.55 -40.4 18.95 -39.2 18.0 -37.9 17.0 -36.4 17.25 -32.6 17.85 -28.85 15.55 -26.75 14.25 -25.0 12.45" fill="url(#gradient5)" fill-rule="evenodd" stroke="none"/>
    <path d="M55.05 7.3 Q55.4 7.6 55.3 8.15 L54.35 11.45 Q53.65 13.6 51.8 15.45 49.9 17.35 47.9 18.5 45.9 19.65 42.1 20.9 38.25 22.1 36.75 20.0 35.2 17.9 35.5 16.35 35.75 14.75 36.95 13.8 38.25 12.8 39.75 13.05 43.55 13.65 47.3 11.35 49.4 10.05 51.15 8.25 53.3 6.0 55.05 7.3" fill="url(#gradient6)" fill-rule="evenodd" stroke="none"/>
  </g>
  <defs>
    <radialGradient cx="0" cy="0" gradientTransform="matrix(0.0204, -0.0285, 0.016, 0.0114, -22.65, -21.4)" gradientUnits="userSpaceOnUse" id="gradient0" r="819.2" spreadMethod="pad">
      <stop offset="0.0" stop-color="#ffffff" stop-opacity="0.4"/>
      <stop offset="0.49019607843137253" stop-color="#ffffff" stop-opacity="0.0"/>
    </radialGradient>
    <radialGradient cx="0" cy="0" gradientTransform="matrix(0.0204, -0.0285, 0.016, 0.0114, 7.7, -18.05)" gradientUnits="userSpaceOnUse" id="gradient1" r="819.2" spreadMethod="pad">
      <stop offset="0.0" stop-color="#ffffff" stop-opacity="0.4"/>
      <stop offset="0.49019607843137253" stop-color="#ffffff" stop-opacity="0.0"/>
    </radialGradient>
    <radialGradient cx="0" cy="0" gradientTransform="matrix(0.0204, -0.0285, 0.016, 0.0114, 39.85, -9.45)" gradientUnits="userSpaceOnUse" id="gradient2" r="819.2" spreadMethod="pad">
      <stop offset="0.0" stop-color="#ffffff" stop-opacity="0.4"/>
      <stop offset="0.49019607843137253" stop-color="#ffffff" stop-opacity="0.0"/>
    </radialGradient>
    <radialGradient cx="0" cy="0" gradientTransform="matrix(0.0204, -0.0285, 0.016, 0.0114, -51.15, -11.25)" gradientUnits="userSpaceOnUse" id="gradient3" r="819.2" spreadMethod="pad">
      <stop offset="0.0" stop-color="#ffffff" stop-opacity="0.4"/>
      <stop offset="0.49019607843137253" stop-color="#ffffff" stop-opacity="0.0"/>
    </radialGradient>
    <radialGradient cx="0" cy="0" gradientTransform="matrix(-0.0317, 0.0059, 0.0015, -0.0164, 9.9, 23.9)" gradientUnits="userSpaceOnUse" id="gradient4" r="819.2" spreadMethod="pad">
      <stop offset="0.0" stop-color="#ffffff" stop-opacity="0.4"/>
      <stop offset="0.49019607843137253" stop-color="#ffffff" stop-opacity="0.0"/>
    </radialGradient>
    <radialGradient cx="0" cy="0" gradientTransform="matrix(-0.0317, 0.0059, 0.0015, -0.0164, -34.35, 23.9)" gradientUnits="userSpaceOnUse" id="gradient5" r="819.2" spreadMethod="pad">
      <stop offset="0.0" stop-color="#ffffff" stop-opacity="0.4"/>
      <stop offset="0.49019607843137253" stop-color="#ffffff" stop-opacity="0.0"/>
    </radialGradient>
    <radialGradient cx="0" cy="0" gradientTransform="matrix(-0.0317, 0.0059, 0.0015, -0.0164, 41.8, 19.7)" gradientUnits="userSpaceOnUse" id="gradient6" r="819.2" spreadMethod="pad">
      <stop offset="0.0" stop-color="#ffffff" stop-opacity="0.4"/>
      <stop offset="0.49019607843137253" stop-color="#ffffff" stop-opacity="0.0"/>
    </radialGradient>
  </defs>
</svg>
