<?xml version="1.0" encoding="UTF-8" standalone="no"?>
<svg xmlns:ffdec="https://www.free-decompiler.com/flash" xmlns:xlink="http://www.w3.org/1999/xlink" ffdec:objectType="shape" height="83.8px" width="148.7px" xmlns="http://www.w3.org/2000/svg">
  <g transform="matrix(1.0, 0.0, 0.0, 1.0, 65.9, 52.5)">
    <path d="M13.35 -52.35 Q23.3 -51.7 29.4 -49.7 36.05 -47.55 43.2 -42.25 54.75 -33.75 61.15 -26.25 L63.2 -25.5 Q67.65 -23.4 71.75 -17.3 78.65 -7.05 78.95 -3.85 79.1 -1.9 80.75 1.6 82.45 5.3 82.8 6.8 L82.55 6.9 82.8 7.7 78.55 8.4 Q75.1 11.55 73.4 13.5 70.3 16.95 67.25 22.55 64.25 27.8 60.3 27.9 58.1 27.95 50.7 25.3 L48.0 24.35 48.05 24.55 47.95 24.5 46.55 23.95 40.6 23.0 Q37.7 23.0 34.15 24.15 L32.7 24.9 33.0 24.55 30.35 25.55 21.45 29.3 Q17.35 30.35 11.85 28.15 5.15 24.75 1.8 23.3 -0.3 22.35 -2.2 21.9 L-6.9 21.35 -9.05 21.6 Q-11.2 22.0 -14.1 23.55 -16.25 24.7 -18.8 26.45 -24.75 30.45 -28.25 31.05 -33.95 32.0 -38.95 28.95 -42.35 26.95 -47.3 21.65 -53.0 15.55 -55.5 13.65 -59.5 10.5 -63.75 9.7 L-64.15 9.75 -64.05 9.65 -65.9 9.45 -63.45 7.85 Q-59.1 0.55 -56.8 -8.85 -54.15 -19.2 -53.35 -20.65 -50.9 -24.95 -44.4 -25.95 L-37.05 -33.2 Q-28.5 -41.45 -20.0 -45.65 -4.7 -53.45 13.35 -52.35" fill="url(#gradient0)" fill-rule="evenodd" stroke="none"/>
  </g>
  <defs>
    <radialGradient cx="0" cy="0" gradientTransform="matrix(0.1237, 0.0, 0.0, 0.0775, 1.85, 3.15)" gradientUnits="userSpaceOnUse" id="gradient0" r="819.2" spreadMethod="pad">
      <stop offset="0.4745098039215686" stop-color="#999999" stop-opacity="0.34117648"/>
      <stop offset="0.8549019607843137" stop-color="#666666" stop-opacity="0.0"/>
    </radialGradient>
  </defs>
</svg>
