<?xml version="1.0" encoding="UTF-8" standalone="no"?>
<svg xmlns:ffdec="https://www.free-decompiler.com/flash" xmlns:xlink="http://www.w3.org/1999/xlink" ffdec:objectType="shape" height="124.65px" width="89.1px" xmlns="http://www.w3.org/2000/svg">
  <g transform="matrix(1.0, 0.0, 0.0, 1.0, 22.45, 62.3)">
    <path d="M2.65 -30.05 L2.9 -30.3 3.15 -30.05 Q3.05 -27.55 3.65 -22.95 L4.15 -16.45 Q4.15 -10.9 5.45 -7.4 5.8 -12.0 7.35 -15.45 L7.65 -15.6 7.8 -15.25 Q6.0 -11.15 5.8 -5.35 L5.55 -5.1 5.3 -5.4 5.35 -6.25 5.1 -6.95 5.05 -6.9 4.7 -6.95 Q3.85 -8.15 3.15 -11.05 L2.35 -13.7 -0.7 -20.1 -2.3 -23.25 -2.25 -23.55 Q-2.0 -23.75 -1.9 -23.45 L-0.3 -20.35 2.8 -13.95 3.65 -11.15 Q4.15 -9.05 4.75 -7.9 3.65 -11.35 3.65 -16.45 L3.15 -22.9 Q2.55 -27.5 2.65 -30.05" fill="#ffffff" fill-rule="evenodd" stroke="none"/>
    <path d="M1.9 -3.55 L1.6 -5.0 1.65 -5.2 4.6 -8.5 4.6 -8.55 4.75 -8.65 51.1 -19.15 51.4 -18.95 66.5 45.85 66.5 45.9 66.55 45.95 66.65 46.2 66.45 46.4 20.8 62.3 20.75 62.35 20.6 62.3 16.05 61.05 15.85 60.85 13.2 48.6 -9.8 53.6 -9.9 53.7 -10.25 53.75 -10.3 53.7 -10.8 53.8 -11.05 53.7 -11.1 53.5 -11.0 53.2 -13.6 51.25 -13.7 50.95 1.9 -3.55 M46.85 -11.6 L58.45 38.2 23.6 50.6 11.35 -3.55 46.85 -11.6 M50.95 -18.6 L5.1 -8.2 20.9 61.75 65.95 45.75 50.95 -18.6 M13.1 48.1 L3.85 5.4 -10.5 53.2 13.1 48.1" fill="#fed184" fill-rule="evenodd" stroke="none"/>
    <path d="M13.1 48.1 L-10.5 53.2 3.85 5.4 13.1 48.1" fill="#dd5a13" fill-rule="evenodd" stroke="none"/>
    <path d="M46.85 -11.6 L11.35 -3.55 23.6 50.6 58.45 38.2 46.85 -11.6 M50.95 -18.6 L65.95 45.75 20.9 61.75 5.1 -8.2 50.95 -18.6" fill="#ff0000" fill-rule="evenodd" stroke="none"/>
    <path d="M13.2 -35.05 Q15.25 -31.7 14.35 -28.75 16.55 -30.15 18.45 -29.65 20.45 -29.15 21.2 -26.8 22.4 -23.2 16.75 -19.25 11.75 -15.75 7.6 -15.45 4.55 -17.85 2.55 -21.6 0.55 -25.3 0.15 -29.4 -0.2 -32.55 1.6 -35.7 3.65 -39.25 7.05 -39.0 11.0 -38.7 13.2 -35.05" fill="#faf02a" fill-rule="evenodd" stroke="none"/>
    <path d="M2.6 -37.5 Q4.5 -39.5 7.1 -39.25 10.85 -39.0 13.1 -35.7 14.85 -33.15 14.85 -30.4 L14.65 -29.15 Q17.0 -30.45 18.85 -29.8 20.65 -29.2 21.45 -26.85 22.1 -24.95 20.65 -22.65 18.8 -19.9 14.45 -17.55 10.45 -15.4 7.6 -15.2 L7.4 -15.25 Q4.35 -17.7 2.35 -21.45 0.35 -25.2 -0.1 -29.4 -0.3 -31.3 0.35 -33.5 1.1 -36.0 2.6 -37.5 M12.7 -35.45 Q10.5 -38.5 7.05 -38.75 4.75 -38.95 2.95 -37.15 0.35 -34.4 0.35 -30.2 L0.4 -29.45 Q0.8 -25.45 2.75 -21.75 4.7 -18.05 7.65 -15.7 10.4 -15.95 14.25 -18.05 18.5 -20.3 20.25 -22.95 21.15 -24.3 21.15 -25.6 L20.95 -26.7 Q20.25 -28.75 18.7 -29.35 16.75 -29.95 14.5 -28.55 L14.2 -28.55 14.15 -28.8 Q15.05 -32.0 12.7 -35.45" fill="#feba35" fill-rule="evenodd" stroke="none"/>
    <path d="M10.15 -18.4 Q6.25 -21.5 5.7 -26.75 5.5 -28.65 6.6 -30.5 7.8 -32.65 9.85 -32.5 12.2 -32.3 13.5 -30.15 14.7 -28.15 14.2 -26.35 15.5 -27.2 16.65 -26.9 17.8 -26.6 18.3 -25.2 19.0 -23.05 15.65 -20.7 12.65 -18.65 10.15 -18.4" fill="#fdf894" fill-rule="evenodd" stroke="none"/>
    <path d="M14.45 -28.4 Q16.55 -29.75 18.2 -29.2 L14.25 -25.75 Q14.6 -27.25 14.45 -28.4" fill="#faf02a" fill-rule="evenodd" stroke="none"/>
    <path d="M7.95 -38.05 Q9.9 -37.5 10.4 -36.85 6.6 -37.9 4.25 -32.9 L2.25 -34.3 Q3.2 -36.65 4.75 -37.55 6.3 -38.45 7.95 -38.05" fill="#ffffff" fill-rule="evenodd" stroke="none"/>
    <path d="M3.35 -31.65 Q2.25 -29.3 2.3 -28.05 0.6 -29.15 1.8 -32.7 L3.35 -31.65" fill="#ffffff" fill-rule="evenodd" stroke="none"/>
    <path d="M0.65 -27.95 Q2.5 -22.65 5.1 -19.65 6.8 -17.65 8.3 -17.15 9.6 -16.75 15.75 -18.85 12.3 -16.6 7.6 -15.8 1.3 -21.05 0.65 -27.95" fill="#faf02a" fill-rule="evenodd" stroke="none"/>
    <path d="M15.95 -27.05 Q17.3 -29.0 18.7 -28.7 20.45 -28.3 20.35 -26.85 19.0 -28.65 15.95 -27.05" fill="#ffffff" fill-rule="evenodd" stroke="none"/>
    <path d="M7.95 -34.25 Q5.15 -31.4 2.9 -30.2 -2.55 -31.6 -7.4 -35.5 -12.15 -39.3 -15.15 -44.55 -17.45 -48.6 -16.85 -53.75 -16.2 -59.8 -11.45 -61.45 -6.0 -63.35 -0.95 -59.7 3.7 -56.4 4.25 -51.9 6.4 -55.1 9.2 -55.5 12.1 -56.0 14.55 -53.3 18.25 -49.15 12.95 -40.6 10.85 -37.25 7.95 -34.25" fill="#faa9d3" fill-rule="evenodd" stroke="none"/>
    <path d="M-1.55 -60.4 Q0.75 -59.0 2.35 -56.8 3.95 -54.65 4.35 -52.45 6.65 -55.6 9.65 -55.85 12.4 -56.0 14.75 -53.45 16.7 -51.15 16.05 -47.45 15.25 -42.7 10.75 -37.05 6.7 -31.95 3.0 -29.95 L2.85 -29.95 Q-2.7 -31.4 -7.5 -35.25 -12.35 -39.1 -15.35 -44.45 -16.7 -46.8 -17.1 -50.15 -17.5 -53.9 -16.45 -56.75 -15.0 -60.45 -11.55 -61.65 -6.45 -63.45 -1.55 -60.4 M2.15 -56.3 Q0.55 -58.55 -1.8 -60.0 -6.55 -62.9 -11.4 -61.2 -14.65 -60.05 -15.95 -56.6 -16.7 -54.7 -16.7 -52.1 -16.7 -47.9 -14.95 -44.65 -12.0 -39.45 -7.25 -35.65 -2.55 -31.9 2.85 -30.45 6.4 -32.4 10.4 -37.45 14.8 -43.05 15.6 -47.55 L15.75 -49.2 Q15.75 -51.55 14.35 -53.1 12.25 -55.5 9.65 -55.35 6.75 -55.1 4.45 -51.8 L4.2 -51.7 4.0 -51.9 Q3.75 -54.05 2.15 -56.3" fill="#f97f92" fill-rule="evenodd" stroke="none"/>
    <path d="M11.55 -49.45 Q13.75 -46.95 10.6 -41.85 7.8 -37.35 4.6 -35.65 -2.35 -37.5 -6.15 -44.25 -7.55 -46.65 -7.2 -49.75 -6.8 -53.3 -3.95 -54.3 -0.75 -55.45 2.3 -53.3 5.05 -51.3 5.4 -48.65 6.7 -50.55 8.4 -50.8 10.1 -51.05 11.55 -49.45" fill="#fcc3e0" fill-rule="evenodd" stroke="none"/>
    <path d="M4.55 -51.55 Q6.6 -54.55 9.1 -54.75 7.65 -52.3 5.8 -47.85 5.4 -50.1 4.55 -51.55" fill="#faa9d3" fill-rule="evenodd" stroke="none"/>
    <path d="M-11.65 -51.65 L-15.15 -52.3 Q-15.25 -56.0 -13.7 -58.15 -12.15 -60.25 -9.7 -60.65 L-5.75 -60.45 Q-11.45 -59.7 -11.65 -51.65" fill="#ffffff" fill-rule="evenodd" stroke="none"/>
    <path d="M-14.85 -49.9 L-12.15 -49.4 Q-12.25 -45.6 -11.45 -43.95 -14.35 -44.45 -14.85 -49.9" fill="#ffffff" fill-rule="evenodd" stroke="none"/>
    <path d="M-2.85 -34.35 Q0.6 -32.65 2.9 -32.9 4.85 -33.1 11.8 -39.5 8.55 -34.45 2.7 -30.65 -8.75 -34.05 -13.6 -42.9 -8.0 -36.9 -2.85 -34.35" fill="#faa9d3" fill-rule="evenodd" stroke="none"/>
    <path d="M7.35 -50.55 Q8.05 -53.95 10.05 -54.35 12.7 -54.9 13.4 -52.85 10.5 -54.45 7.35 -50.55" fill="#ffffff" fill-rule="evenodd" stroke="none"/>
    <path d="M-2.35 -40.45 Q1.2 -39.1 0.65 -32.2 0.15 -26.1 -2.2 -22.7 -5.95 -21.85 -10.1 -22.65 -14.25 -23.5 -17.7 -25.75 -20.4 -27.5 -21.65 -30.85 -23.15 -34.7 -20.8 -37.2 -18.05 -40.05 -13.8 -39.45 -9.95 -38.95 -8.2 -36.35 -7.9 -38.95 -6.3 -40.1 -4.7 -41.35 -2.35 -40.45" fill="#7dcee2" fill-rule="evenodd" stroke="none"/>
    <path d="M0.45 -33.8 Q0.45 -35.65 0.0 -37.25 -0.75 -39.55 -2.45 -40.2 L-5.95 -40.1 Q-7.65 -39.0 -7.95 -36.35 L-8.15 -36.15 Q-8.25 -36.1 -8.4 -36.25 -10.35 -38.95 -14.45 -39.3 -18.2 -39.6 -20.6 -37.05 -22.2 -35.3 -21.9 -32.85 -21.7 -30.85 -20.35 -28.8 -19.1 -27.0 -17.6 -26.0 -14.2 -23.8 -10.1 -22.95 -6.0 -22.15 -2.35 -22.95 -1.25 -24.6 -0.4 -27.65 0.45 -30.9 0.45 -33.8 M-6.2 -40.5 L-2.3 -40.65 Q-0.3 -39.9 0.45 -37.4 1.45 -34.25 0.5 -29.35 -0.4 -24.9 -2.0 -22.55 L-2.15 -22.45 Q-6.0 -21.6 -10.15 -22.4 -14.35 -23.25 -17.85 -25.55 -19.45 -26.6 -20.7 -28.55 -22.15 -30.7 -22.4 -32.8 -22.7 -35.5 -20.95 -37.4 -18.4 -40.1 -14.4 -39.8 -10.5 -39.45 -8.35 -36.9 -7.85 -39.5 -6.2 -40.5" fill="#056aa6" fill-rule="evenodd" stroke="none"/>
    <path d="M-3.0 -37.15 Q-0.85 -36.35 -1.2 -32.25 -1.45 -28.6 -2.9 -26.55 -7.7 -25.5 -12.15 -28.4 -13.75 -29.45 -14.5 -31.45 -15.4 -33.75 -13.95 -35.25 -12.35 -36.95 -9.8 -36.6 -7.5 -36.25 -6.45 -34.75 -6.3 -36.3 -5.35 -37.0 L-3.0 -37.15" fill="#a4ddeb" fill-rule="evenodd" stroke="none"/>
    <path d="M-6.0 -34.35 Q-6.9 -35.6 -7.9 -36.2 -7.6 -38.7 -6.15 -39.6 L-6.0 -34.35" fill="#7dcee2" fill-rule="evenodd" stroke="none"/>
    <path d="M-19.45 -37.3 Q-17.8 -38.45 -17.0 -38.45 -20.25 -36.15 -17.8 -31.2 L-20.15 -30.5 Q-21.4 -32.7 -21.1 -34.5 -20.85 -36.3 -19.45 -37.3" fill="#ffffff" fill-rule="evenodd" stroke="none"/>
    <path d="M-19.2 -29.1 L-17.4 -29.65 Q-16.3 -27.35 -15.3 -26.55 -17.2 -25.95 -19.2 -29.1" fill="#ffffff" fill-rule="evenodd" stroke="none"/>
    <path d="M-7.0 -23.4 Q-4.35 -23.45 -3.05 -24.35 -1.95 -25.1 0.3 -31.2 -0.1 -27.05 -2.45 -22.95 -10.5 -21.4 -16.25 -25.25 -10.95 -23.3 -7.0 -23.4" fill="#7dcee2" fill-rule="evenodd" stroke="none"/>
    <path d="M-5.9 -36.5 Q-6.55 -38.8 -5.45 -39.7 L-2.95 -39.8 Q-5.2 -39.85 -5.9 -36.5" fill="#ffffff" fill-rule="evenodd" stroke="none"/>
  </g>
</svg>
