<?xml version="1.0" encoding="UTF-8" standalone="no"?>
<svg xmlns:ffdec="https://www.free-decompiler.com/flash" xmlns:xlink="http://www.w3.org/1999/xlink" ffdec:objectType="shape" height="71.5px" width="170.35px" xmlns="http://www.w3.org/2000/svg">
  <g transform="matrix(1.0, 0.0, 0.0, 1.0, 85.2, 35.75)">
    <path d="M35.35 -25.75 Q56.1 -16.95 65.9 -4.15 74.7 1.15 82.95 7.5 L85.15 6.85 Q78.4 17.75 46.1 28.95 22.65 37.15 3.4 35.45 L-22.95 33.1 Q-38.6 31.4 -48.9 28.65 -76.8 21.1 -85.2 12.0 L-82.85 12.25 Q-80.75 8.4 -74.75 3.9 -66.45 -2.35 -65.1 -3.65 L-59.05 -9.1 -53.4 -15.1 Q-45.35 -23.15 -36.2 -27.7 -28.2 -31.75 -17.7 -33.9 -7.15 -36.15 1.9 -35.65 9.65 -35.25 19.0 -32.15 24.15 -30.45 35.35 -25.75" fill="url(#gradient0)" fill-rule="evenodd" stroke="none"/>
  </g>
  <defs>
    <radialGradient cx="0" cy="0" gradientTransform="matrix(0.1181, 0.0, 0.0, 0.0498, 1.85, 1.25)" gradientUnits="userSpaceOnUse" id="gradient0" r="819.2" spreadMethod="pad">
      <stop offset="0.20392156862745098" stop-color="#eefb8e" stop-opacity="0.0"/>
      <stop offset="0.9372549019607843" stop-color="#e2fa3a" stop-opacity="0.19215687"/>
    </radialGradient>
  </defs>
</svg>
