<?xml version="1.0" encoding="UTF-8" standalone="no"?>
<svg xmlns:ffdec="https://www.free-decompiler.com/flash" xmlns:xlink="http://www.w3.org/1999/xlink" ffdec:objectType="shape" height="27.45px" width="108.15px" xmlns="http://www.w3.org/2000/svg">
  <g transform="matrix(1.0, 0.0, 0.0, 1.0, 53.75, 14.5)">
    <path d="M-42.3 -8.05 Q-39.0 -7.05 -37.9 -5.5 -36.8 -4.0 -37.25 -2.5 -37.7 -0.95 -39.4 -0.35 -43.75 1.15 -45.6 5.2 -46.65 7.5 -46.9 10.0 -47.2 13.1 -50.0 12.95 -50.65 12.9 -50.95 12.35 L-52.8 8.95 Q-54.0 6.7 -53.65 4.05 -53.4 1.4 -52.35 -0.7 -51.3 -2.8 -48.5 -5.95 -45.7 -9.05 -42.3 -8.05" fill="url(#gradient0)" fill-rule="evenodd" stroke="none"/>
    <path d="M3.75 -5.5 Q-0.85 -5.15 -3.65 -1.75 -5.25 0.2 -6.15 2.55 -7.25 5.5 -9.95 4.6 L-10.7 3.75 -11.6 0.0 Q-12.15 -2.45 -11.2 -4.95 -10.2 -7.45 -8.65 -9.2 -7.15 -11.0 -3.6 -13.25 -0.05 -15.55 2.9 -13.7 5.85 -11.85 6.55 -10.1 7.2 -8.35 6.4 -7.05 5.55 -5.65 3.75 -5.5" fill="url(#gradient1)" fill-rule="evenodd" stroke="none"/>
    <path d="M53.0 -3.15 Q54.65 -0.1 54.35 1.75 54.05 3.6 52.7 4.35 51.25 5.15 49.65 4.35 45.45 2.35 41.3 3.9 38.95 4.8 37.05 6.4 34.65 8.35 32.75 6.25 32.3 5.75 32.5 5.15 L33.6 1.45 Q34.35 -1.0 36.45 -2.65 38.5 -4.3 40.75 -5.05 42.95 -5.85 47.15 -6.05 51.35 -6.25 53.0 -3.15" fill="url(#gradient2)" fill-rule="evenodd" stroke="none"/>
  </g>
  <defs>
    <radialGradient cx="0" cy="0" gradientTransform="matrix(0.0271, -0.0223, 0.0125, 0.0152, -47.15, -5.05)" gradientUnits="userSpaceOnUse" id="gradient0" r="819.2" spreadMethod="pad">
      <stop offset="0.0" stop-color="#ffffff" stop-opacity="0.4"/>
      <stop offset="0.49019607843137253" stop-color="#ffffff" stop-opacity="0.0"/>
    </radialGradient>
    <radialGradient cx="0" cy="0" gradientTransform="matrix(0.032, -0.0145, 0.0081, 0.0179, -2.5, -12.05)" gradientUnits="userSpaceOnUse" id="gradient1" r="819.2" spreadMethod="pad">
      <stop offset="0.0" stop-color="#ffffff" stop-opacity="0.4"/>
      <stop offset="0.49019607843137253" stop-color="#ffffff" stop-opacity="0.0"/>
    </radialGradient>
    <radialGradient cx="0" cy="0" gradientTransform="matrix(0.0349, 0.0034, -0.0019, 0.0195, 47.5, -4.4)" gradientUnits="userSpaceOnUse" id="gradient2" r="819.2" spreadMethod="pad">
      <stop offset="0.0" stop-color="#ffffff" stop-opacity="0.4"/>
      <stop offset="0.49019607843137253" stop-color="#ffffff" stop-opacity="0.0"/>
    </radialGradient>
  </defs>
</svg>
