<?xml version="1.0" encoding="UTF-8" standalone="no"?>
<svg xmlns:ffdec="https://www.free-decompiler.com/flash" xmlns:xlink="http://www.w3.org/1999/xlink" ffdec:objectType="shape" height="71.5px" width="170.35px" xmlns="http://www.w3.org/2000/svg">
  <g transform="matrix(1.0, 0.0, 0.0, 1.0, 85.2, 35.75)">
    <path d="M-59.05 -9.1 L-53.4 -15.1 Q-45.35 -23.15 -36.2 -27.7 -28.2 -31.75 -17.7 -33.9 -7.15 -36.15 1.9 -35.65 9.65 -35.25 19.0 -32.15 24.15 -30.45 35.35 -25.75 56.1 -16.95 65.9 -4.15 54.4 -11.1 41.95 -16.25 21.7 -24.7 1.6 -25.7 -27.15 -27.1 -44.35 -18.6 -52.05 -14.8 -59.05 -9.1 M82.95 7.5 L85.15 6.85 Q78.4 17.75 46.1 28.95 22.65 37.15 3.4 35.45 L-22.95 33.1 Q-38.6 31.4 -48.9 28.65 -76.8 21.1 -85.2 12.0 L-82.85 12.25 -77.4 12.3 Q-73.1 12.05 -69.5 10.95 L-66.75 11.3 -62.45 12.35 Q-61.2 12.75 -59.2 10.8 -57.0 8.65 -56.7 5.35 L-56.45 1.3 -56.3 0.9 -56.25 0.85 -56.0 0.95 Q-52.45 -2.9 -49.55 -4.75 -44.2 -8.15 -38.25 -7.2 -35.65 -6.8 -32.7 -5.6 L-30.8 -4.75 -29.6 -3.7 -26.2 -0.05 Q-22.2 4.55 -20.2 4.55 L-19.4 4.5 Q-16.65 3.9 -14.3 -0.9 L-11.55 -7.35 -9.15 -9.4 -9.2 -9.6 -8.0 -10.3 Q-2.3 -13.6 3.1 -13.55 7.75 -13.5 13.8 -10.25 L16.45 -8.8 16.45 -8.65 18.7 -6.6 21.0 -4.4 Q23.95 -1.55 25.75 -0.95 28.45 -0.05 33.85 -2.15 L34.25 -2.3 36.8 -3.4 44.6 -4.35 Q49.7 -5.0 55.05 -2.55 L59.45 -0.05 61.45 1.15 61.5 1.2 62.35 2.75 62.95 4.9 Q63.65 7.2 64.55 7.75 66.15 8.7 69.0 8.5 L69.2 8.45 74.1 7.85 73.2 7.3 73.55 7.4 75.4 7.8 82.95 7.5 M67.1 4.65 L69.5 5.9 68.5 5.5 67.1 4.65" fill="#fef5f7" fill-rule="evenodd" stroke="none"/>
    <path d="M36.8 -3.4 L38.75 -4.4 35.6 -3.95 Q25.6 -3.05 16.45 -9.95 L16.45 -8.8 13.8 -10.25 Q7.75 -13.5 3.1 -13.55 -2.3 -13.6 -8.0 -10.3 L-9.2 -9.6 -9.15 -9.4 -11.55 -7.35 -10.95 -8.5 -10.5 -9.4 -12.8 -7.4 -17.7 -4.4 Q-19.55 -3.65 -21.3 -3.45 L-22.15 -3.4 Q-23.4 -3.4 -30.15 -5.3 L-30.45 -5.35 -30.95 -5.5 -31.55 -5.7 -31.75 -5.45 -30.8 -4.75 -32.7 -5.6 Q-35.65 -6.8 -38.25 -7.2 -44.2 -8.15 -49.55 -4.75 -52.45 -2.9 -56.0 0.95 L-55.9 0.1 -56.25 0.85 -56.3 0.9 -56.45 1.3 -56.4 0.85 -56.3 -0.55 -56.55 -0.65 -56.9 0.15 -59.4 4.8 -60.1 5.7 Q-61.85 7.7 -64.9 9.0 -67.6 10.15 -71.2 10.8 L-69.5 10.95 Q-73.1 12.05 -77.4 12.3 -73.5 6.75 -63.2 -2.1 -53.85 -10.15 -43.1 -14.7 -33.75 -18.7 -21.4 -20.9 -9.05 -23.1 1.55 -22.65 10.65 -22.25 21.55 -19.15 27.7 -17.4 40.7 -12.7 51.1 -9.0 60.4 -3.85 71.25 2.2 75.4 7.8 L73.55 7.4 73.2 7.3 Q72.2 6.8 71.15 6.45 L69.5 5.9 67.1 4.65 Q65.3 3.35 61.45 1.15 L61.6 1.3 61.5 1.2 61.45 1.15 59.45 -0.05 55.05 -2.55 Q49.7 -5.0 44.6 -4.35 L36.8 -3.4 M-30.4 -5.45 L-30.2 -5.7 -30.9 -5.7 -30.4 -5.45" fill="#fde6e7" fill-rule="evenodd" stroke="none"/>
    <path d="M16.45 -8.8 L16.45 -9.95 Q25.6 -3.05 35.6 -3.95 L38.75 -4.4 36.8 -3.4 34.25 -2.3 33.85 -2.15 Q28.45 -0.05 25.75 -0.95 23.95 -1.55 21.0 -4.4 L18.7 -6.6 16.45 -8.65 16.45 -8.8 M61.5 1.2 L61.6 1.3 61.45 1.15 Q65.3 3.35 67.1 4.65 L68.5 5.5 69.5 5.9 71.15 6.45 Q72.2 6.8 73.2 7.3 L74.1 7.85 69.2 8.45 69.0 8.5 Q66.15 8.7 64.55 7.75 63.65 7.2 62.95 4.9 L62.35 2.75 61.5 1.2 M-69.5 10.95 L-71.2 10.8 Q-67.6 10.15 -64.9 9.0 -61.85 7.7 -60.1 5.7 L-59.4 4.8 -56.9 0.15 -56.55 -0.65 -56.3 -0.55 -56.4 0.85 -56.45 1.3 -56.7 5.35 Q-57.0 8.65 -59.2 10.8 -61.2 12.75 -62.45 12.35 L-66.75 11.3 -69.5 10.95 M-30.8 -4.75 L-31.75 -5.45 -31.55 -5.7 -30.95 -5.5 -30.45 -5.35 -30.15 -5.3 Q-23.4 -3.4 -22.15 -3.4 L-21.3 -3.45 Q-19.55 -3.65 -17.7 -4.4 L-12.8 -7.4 -10.5 -9.4 -10.95 -8.5 -11.55 -7.35 -14.3 -0.9 Q-16.65 3.9 -19.4 4.5 L-20.2 4.55 Q-22.2 4.55 -26.2 -0.05 L-29.6 -3.7 -30.8 -4.75" fill="#f9dfdf" fill-rule="evenodd" stroke="none"/>
    <path d="M65.9 -4.15 Q74.7 1.15 82.95 7.5 L75.4 7.8 Q71.25 2.2 60.4 -3.85 51.1 -9.0 40.7 -12.7 27.7 -17.4 21.55 -19.15 10.65 -22.25 1.55 -22.65 -9.05 -23.1 -21.4 -20.9 -33.75 -18.7 -43.1 -14.7 -53.85 -10.15 -63.2 -2.1 -73.5 6.75 -77.4 12.3 L-82.85 12.25 Q-80.75 8.4 -74.75 3.9 -66.45 -2.35 -65.1 -3.65 L-59.05 -9.1 Q-52.05 -14.8 -44.35 -18.6 -27.15 -27.1 1.6 -25.7 21.7 -24.7 41.95 -16.25 54.4 -11.1 65.9 -4.15" fill="#ffffff" fill-rule="evenodd" stroke="none"/>
    <path d="M-56.25 0.85 L-55.9 0.1 -56.0 0.95 -56.25 0.85 M-30.4 -5.45 L-30.9 -5.7 -30.2 -5.7 -30.4 -5.45" fill="#feecbf" fill-rule="evenodd" stroke="none"/>
  </g>
</svg>
