<?xml version="1.0" encoding="UTF-8" standalone="no"?>
<svg xmlns:ffdec="https://www.free-decompiler.com/flash" xmlns:xlink="http://www.w3.org/1999/xlink" ffdec:objectType="shape" height="90.6px" width="181.6px" xmlns="http://www.w3.org/2000/svg">
  <g transform="matrix(1.0, 0.0, 0.0, 1.0, 91.95, 50.2)">
    <path d="M38.45 -42.4 Q48.05 -46.35 57.25 -42.2 63.9 -39.25 69.25 -32.45 74.55 -25.75 84.25 -21.15 87.8 -19.5 89.65 -17.65 88.85 -11.15 86.75 -4.2 83.05 8.25 74.0 17.5 68.35 23.25 60.7 27.8 40.7 39.45 11.4 40.3 -26.4 41.5 -54.55 31.15 -62.15 28.3 -68.65 24.75 -74.8 21.45 -79.95 17.5 -87.95 11.45 -91.9 5.05 L-91.95 4.9 Q-88.65 1.0 -81.3 -5.65 -76.35 -15.65 -67.3 -19.0 -56.75 -23.0 -53.8 -33.15 -50.8 -43.3 -42.65 -48.35 -36.0 -52.55 -28.9 -47.2 -20.35 -40.7 -9.65 -42.55 L9.4 -45.8 Q14.6 -46.75 19.2 -44.0 28.65 -38.35 38.45 -42.4" fill="#76d8f8" fill-rule="evenodd" stroke="none"/>
  </g>
</svg>
