<?xml version="1.0" encoding="UTF-8" standalone="no"?>
<svg xmlns:ffdec="https://www.free-decompiler.com/flash" xmlns:xlink="http://www.w3.org/1999/xlink" ffdec:objectType="shape" height="74.2px" width="18.3px" xmlns="http://www.w3.org/2000/svg">
  <g transform="matrix(1.0, 0.0, 0.0, 1.0, 9.15, 46.0)">
    <path d="M4.3 -43.95 L4.75 -43.05 Q6.85 -38.85 5.9 -33.85 5.45 -31.55 4.3 -29.6 L1.95 -25.55 Q1.4 -23.4 2.1 -21.35 3.3 -17.6 5.65 -14.8 L6.35 -13.8 Q7.8 -11.45 8.7 -8.8 9.6 -6.25 8.7 -3.55 L7.0 1.1 Q6.0 3.75 4.4 5.9 3.0 7.7 2.85 10.25 L2.8 10.55 Q2.65 13.4 4.15 15.8 5.45 17.8 5.9 20.4 6.35 22.7 5.35 24.6 4.85 25.7 3.8 26.15 3.25 26.3 2.75 26.8 2.0 27.5 1.2 27.5 0.85 28.55 -0.25 28.05 -2.2 27.1 -3.95 25.6 -6.15 23.75 -7.55 20.85 -8.45 18.95 -8.85 16.8 -9.45 13.4 -8.8 10.0 -7.85 5.0 -5.8 0.6 L-2.5 -5.8 Q-0.95 -8.65 -0.4 -11.9 -0.25 -12.9 -0.5 -13.75 -1.8 -17.55 -4.25 -20.2 -5.35 -21.45 -5.75 -23.15 -6.0 -24.3 -5.7 -25.15 -5.8 -27.15 -5.15 -28.9 -3.55 -33.5 -0.65 -36.85 L0.8 -38.85 1.8 -40.6 Q2.7 -42.75 2.35 -45.0 2.3 -45.65 2.65 -45.9 L2.95 -45.95 2.95 -46.0 Q3.8 -45.3 4.3 -43.95 M-4.3 -27.0 L-4.3 -26.9 -4.25 -26.95 -4.3 -27.0" fill="url(#gradient0)" fill-rule="evenodd" stroke="none"/>
  </g>
  <defs>
    <linearGradient gradientTransform="matrix(0.0025, -0.0267, 0.0341, 0.0055, 1.85, -40.9)" gradientUnits="userSpaceOnUse" id="gradient0" spreadMethod="pad" x1="-819.2" x2="819.2">
      <stop offset="0.0" stop-color="#ffffff" stop-opacity="0.0"/>
      <stop offset="0.3058823529411765" stop-color="#ffffff" stop-opacity="0.4"/>
      <stop offset="0.7019607843137254" stop-color="#ffffff" stop-opacity="0.22352941"/>
      <stop offset="1.0" stop-color="#ffffff" stop-opacity="0.0"/>
    </linearGradient>
  </defs>
</svg>
