<?xml version="1.0" encoding="UTF-8" standalone="no"?>
<svg xmlns:ffdec="https://www.free-decompiler.com/flash" xmlns:xlink="http://www.w3.org/1999/xlink" ffdec:objectType="shape" height="233.2px" width="82.35px" xmlns="http://www.w3.org/2000/svg">
  <g transform="matrix(1.0, 0.0, 0.0, 1.0, 41.15, 116.6)">
    <path d="M39.05 116.5 L38.5 116.6 38.45 116.45 39.05 116.5 M-32.7 -115.35 Q-31.8 -116.35 -30.3 -116.5 L-32.7 -115.35" fill="#be3464" fill-rule="evenodd" stroke="none"/>
    <path d="M-30.3 -116.5 L-30.15 -116.6 -30.1 -116.45 -12.95 -56.8 -4.85 -31.55 Q0.95 -13.5 5.35 2.1 17.2 44.1 21.65 58.4 L30.95 87.4 Q36.4 104.3 39.4 116.25 L39.45 116.5 39.05 116.5 38.45 116.45 32.7 115.65 Q24.3 92.4 5.65 32.85 -13.0 -26.75 -28.1 -70.6 -39.05 -103.2 -41.1 -110.25 -41.45 -111.45 -39.85 -112.35 L-36.35 -113.85 -32.7 -115.35 -30.3 -116.5" fill="#870000" fill-rule="evenodd" stroke="none"/>
    <path d="M-30.1 -116.45 L-27.15 -114.0 Q-24.75 -111.7 -24.15 -112.45 L7.95 -2.3 Q27.8 65.35 41.2 112.75 40.35 115.4 39.4 116.25 36.4 104.3 30.95 87.4 L21.65 58.4 Q17.2 44.1 5.35 2.1 0.95 -13.5 -4.85 -31.55 L-12.95 -56.8 -30.1 -116.45" fill="#aa2424" fill-rule="evenodd" stroke="none"/>
    <path d="M-35.25 -108.05 L-31.5 -106.25 Q-31.05 -106.0 -31.1 -105.5 -31.25 -103.7 -33.1 -102.85 L-33.45 -102.1 -33.6 -101.55 -33.55 -101.35 -33.5 -101.15 -33.5 -101.0 Q-31.65 -101.15 -29.85 -100.5 L-29.3 -100.05 Q-29.0 -98.75 -29.75 -97.7 -30.2 -97.05 -30.85 -96.7 L-31.1 -95.95 -31.25 -95.35 -31.0 -95.05 -30.55 -94.6 -29.35 -94.7 Q-28.8 -94.55 -28.4 -94.15 L-28.3 -94.0 -28.25 -93.8 -28.3 -93.6 -28.35 -93.45 Q-32.0 -92.4 -32.3 -95.95 L-32.25 -96.7 -32.25 -97.05 Q-31.2 -97.8 -30.65 -98.75 -30.45 -99.1 -30.5 -99.5 -32.95 -98.65 -34.75 -100.3 -35.45 -102.75 -33.35 -104.3 L-32.3 -105.2 -35.75 -107.05 -36.5 -107.6 Q-36.8 -109.3 -35.55 -110.35 L-34.35 -110.95 Q-33.6 -111.05 -33.25 -110.4 L-33.25 -110.25 -33.3 -110.05 -33.6 -109.75 Q-35.35 -109.8 -35.25 -108.25 L-35.25 -108.05 M-26.5 -75.35 Q-26.8 -77.05 -25.55 -78.1 L-24.35 -78.7 Q-23.6 -78.8 -23.25 -78.15 L-23.25 -78.0 -23.3 -77.8 -23.6 -77.5 Q-25.35 -77.55 -25.25 -76.0 L-25.25 -75.8 -21.5 -74.0 Q-21.05 -73.75 -21.1 -73.25 -21.25 -71.45 -23.1 -70.6 L-23.45 -69.85 -23.6 -69.3 -23.55 -69.1 -23.5 -68.9 -23.5 -68.75 Q-21.65 -68.9 -19.85 -68.25 L-19.3 -67.8 Q-19.0 -66.5 -19.75 -65.45 -20.2 -64.8 -20.85 -64.45 L-21.1 -63.7 -21.25 -63.1 -21.0 -62.8 -20.55 -62.35 -19.35 -62.45 -18.4 -61.9 -18.3 -61.75 -18.25 -61.55 -18.3 -61.35 -18.35 -61.2 Q-22.0 -60.15 -22.3 -63.7 L-22.25 -64.45 -22.25 -64.8 Q-21.2 -65.55 -20.65 -66.5 -20.45 -66.85 -20.5 -67.25 -22.95 -66.4 -24.75 -68.05 -25.45 -70.5 -23.35 -72.05 L-22.3 -72.95 -25.75 -74.8 -26.5 -75.35" fill="#f4f0b3" fill-rule="evenodd" stroke="none"/>
    <path d="M-30.35 -85.1 L-30.45 -85.2 -30.5 -85.2 -30.55 -85.35 Q-29.7 -88.1 -27.3 -89.75 L-26.85 -89.85 -26.4 -89.95 Q-25.85 -89.65 -25.5 -89.1 L-25.2 -88.7 Q-24.9 -88.15 -25.25 -87.6 L-25.3 -87.55 Q-25.4 -87.2 -25.65 -86.9 L-26.05 -86.4 -25.1 -85.65 -24.45 -85.0 Q-24.1 -84.35 -24.25 -83.65 L-24.25 -83.55 -24.45 -83.3 -25.4 -82.6 -25.55 -82.6 -26.45 -82.5 -26.6 -82.5 Q-28.2 -83.1 -29.4 -84.4 L-30.25 -85.1 -30.3 -85.15 -30.35 -85.1" fill="#99cc00" fill-rule="evenodd" stroke="none"/>
  </g>
</svg>
