<?xml version="1.0" encoding="UTF-8" standalone="no"?>
<svg xmlns:ffdec="https://www.free-decompiler.com/flash" xmlns:xlink="http://www.w3.org/1999/xlink" ffdec:objectType="shape" height="130.05px" width="256.5px" xmlns="http://www.w3.org/2000/svg">
  <g transform="matrix(1.0, 0.0, 0.0, 1.0, 128.25, 65.0)">
    <path d="M90.7 46.0 Q53.15 65.05 0.0 65.05 -53.15 65.05 -90.7 46.0 -128.25 26.95 -128.25 0.05 -128.25 -26.9 -90.7 -45.95 -53.15 -65.0 0.0 -65.0 53.15 -65.0 90.7 -45.95 128.25 -26.9 128.25 0.05 128.25 26.95 90.7 46.0" fill="#eeffef" fill-rule="evenodd" stroke="none"/>
    <path d="M-78.35 27.35 Q-97.3 13.9 -97.3 -3.75 -97.3 -25.5 -68.65 -40.8 -40.05 -56.15 0.5 -56.15 41.0 -56.15 69.65 -40.8 L71.6 -39.75 72.0 -39.5 72.4 -39.25 73.55 -38.6 81.45 -33.2 Q88.9 -28.05 90.55 -25.25 L92.4 -22.2 Q88.0 -25.3 82.65 -28.15 54.0 -43.5 13.5 -43.5 -27.05 -43.5 -55.65 -28.15 -84.3 -12.8 -84.3 8.9 -84.3 18.8 -78.35 27.35" fill="#cedfcd" fill-rule="evenodd" stroke="none"/>
    <path d="M92.4 -22.2 L92.4 -22.15 Q98.3 -13.65 98.3 -3.75 98.3 17.95 69.65 33.3 41.0 48.65 0.5 48.65 -40.05 48.65 -68.65 33.3 -74.0 30.45 -78.35 27.35 -84.3 18.8 -84.3 8.9 -84.3 -12.8 -55.65 -28.15 -27.05 -43.5 13.5 -43.5 54.0 -43.5 82.65 -28.15 88.0 -25.3 92.4 -22.2" fill="#d7efd7" fill-rule="evenodd" stroke="none"/>
    <path d="M114.2 5.6 L114.15 5.45 Q113.05 4.6 111.75 4.35 110.25 4.05 108.95 3.35 108.05 2.85 108.45 1.9 109.35 0.0 111.75 0.7 113.2 1.0 114.65 1.75 118.3 3.6 117.15 7.6 116.95 8.3 116.35 8.5 L111.3 10.5 Q112.05 12.05 112.05 13.85 112.05 15.1 111.1 15.75 108.3 17.8 104.8 18.35 104.95 19.9 104.3 21.25 102.9 24.05 99.7 23.25 98.95 23.05 98.95 22.3 98.95 20.25 101.4 20.05 L102.05 16.7 Q102.15 16.3 102.5 16.15 105.55 14.6 108.7 13.8 L108.0 10.05 Q107.9 9.6 108.15 9.25 110.25 6.3 114.2 6.1 L114.2 6.0 114.2 5.8 114.2 5.6 M108.0 -25.15 L107.75 -25.7 107.0 -26.05 Q105.75 -25.3 104.25 -25.7 99.2 -27.15 100.2 -32.5 L100.05 -32.7 99.65 -33.25 99.45 -33.65 98.65 -33.85 98.3 -33.95 Q97.65 -33.5 96.85 -33.5 92.9 -33.35 91.9 -37.3 L91.4 -37.7 91.2 -37.9 90.9 -37.95 89.45 -37.1 Q87.2 -36.3 86.15 -38.15 85.85 -38.65 86.3 -39.05 88.4 -41.0 91.5 -41.3 92.95 -41.05 93.85 -39.7 95.05 -37.9 96.4 -36.55 97.5 -37.75 99.15 -37.25 103.35 -35.95 103.25 -31.8 103.25 -30.85 103.6 -30.0 104.15 -28.95 105.45 -29.2 110.1 -30.1 111.2 -25.75 111.35 -25.0 111.1 -24.35 110.3 -22.05 108.2 -20.6 106.05 -19.05 104.7 -21.0 104.25 -21.65 104.85 -22.05 106.7 -23.45 108.0 -25.15 M-84.8 -39.05 Q-84.35 -38.65 -84.65 -38.15 -85.7 -36.3 -87.95 -37.1 L-89.4 -37.95 -89.7 -37.9 -89.9 -37.7 -90.4 -37.3 Q-91.4 -33.35 -95.35 -33.5 -96.15 -33.5 -96.8 -33.95 L-97.15 -33.85 -97.95 -33.65 -98.15 -33.25 -98.55 -32.7 -98.7 -32.5 Q-97.7 -27.15 -102.75 -25.7 -104.25 -25.3 -105.5 -26.05 L-106.25 -25.7 -106.5 -25.15 Q-105.2 -23.45 -103.35 -22.05 -102.75 -21.65 -103.2 -21.0 -104.55 -19.05 -106.7 -20.6 -108.8 -22.05 -109.6 -24.35 -109.85 -25.0 -109.7 -25.75 -108.6 -30.1 -103.95 -29.2 -102.65 -28.95 -102.1 -30.0 -101.75 -30.85 -101.75 -31.8 -101.85 -35.95 -97.65 -37.25 -96.0 -37.75 -94.9 -36.55 -93.55 -37.9 -92.35 -39.7 -91.45 -41.05 -90.0 -41.3 -86.9 -41.0 -84.8 -39.05 M-98.2 23.25 Q-101.4 24.05 -102.8 21.25 -103.45 19.9 -103.3 18.35 -106.8 17.8 -109.6 15.75 -110.55 15.1 -110.55 13.85 -110.55 12.05 -109.8 10.5 L-114.85 8.5 Q-115.45 8.3 -115.65 7.6 -116.8 3.6 -113.15 1.75 -111.7 1.0 -110.25 0.7 -107.85 0.0 -106.95 1.9 -106.55 2.85 -107.45 3.35 -108.75 4.05 -110.25 4.35 -111.55 4.6 -112.65 5.45 L-112.7 5.6 -112.7 5.8 -112.7 6.0 -112.7 6.1 Q-108.75 6.3 -106.65 9.25 -106.4 9.6 -106.5 10.05 L-107.2 13.8 Q-104.05 14.6 -101.0 16.15 -100.65 16.3 -100.55 16.7 L-99.9 20.05 Q-97.45 20.25 -97.45 22.3 -97.45 23.05 -98.2 23.25" fill="#ffb9b9" fill-rule="evenodd" stroke="none"/>
    <path d="M-103.95 -8.35 L-103.85 -8.25 -103.85 -8.2 -103.85 -8.0 Q-106.45 -4.8 -110.6 -3.85 L-111.25 -3.95 -111.85 -4.1 Q-112.45 -4.8 -112.7 -5.75 L-112.8 -6.45 Q-112.9 -7.35 -112.15 -7.85 L-112.05 -7.9 -111.25 -8.55 -110.45 -9.05 -110.4 -9.1 -111.3 -10.5 -111.8 -11.8 Q-111.85 -12.75 -111.3 -13.65 L-111.2 -13.8 -110.8 -13.95 -109.2 -14.45 -108.95 -14.4 -107.75 -13.95 -107.5 -13.85 Q-105.75 -12.2 -104.8 -9.85 L-104.15 -8.5 -104.05 -8.4 -103.95 -8.35" fill="#99cc00" fill-rule="evenodd" stroke="none"/>
    <path d="M105.45 -8.35 L105.35 -8.25 105.35 -8.2 105.35 -8.0 Q107.95 -4.8 112.1 -3.85 L112.75 -3.95 113.35 -4.1 Q113.95 -4.8 114.2 -5.75 L114.3 -6.45 Q114.4 -7.35 113.65 -7.85 L113.55 -7.9 112.75 -8.55 111.95 -9.05 111.9 -9.1 Q112.5 -9.6 112.8 -10.5 L113.3 -11.8 Q113.35 -12.75 112.8 -13.65 L112.7 -13.8 112.3 -13.95 110.7 -14.45 110.45 -14.4 109.25 -13.95 109.0 -13.85 Q107.25 -12.2 106.3 -9.85 L105.65 -8.5 105.55 -8.4 105.45 -8.35" fill="#99cc00" fill-rule="evenodd" stroke="none"/>
  </g>
</svg>
