<?xml version="1.0" encoding="UTF-8" standalone="no"?>
<svg xmlns:ffdec="https://www.free-decompiler.com/flash" xmlns:xlink="http://www.w3.org/1999/xlink" ffdec:objectType="shape" height="94.55px" width="172.25px" xmlns="http://www.w3.org/2000/svg">
  <g transform="matrix(1.0, 0.0, 0.0, 1.0, 86.1, 47.25)">
    <path d="M86.0 0.7 Q84.45 10.2 78.2 17.8 71.95 25.4 52.6 29.15 34.35 32.65 20.1 43.45 9.5 51.45 -4.65 42.9 -20.6 33.25 -37.45 29.3 -56.0 24.9 -74.1 18.5 -81.5 15.85 -84.1 9.15 -92.2 -11.7 -67.2 -16.8 -62.3 -17.8 -54.9 -23.3 -47.5 -28.8 -43.55 -37.8 L-43.4 -38.15 -42.95 -42.5 -31.85 -45.9 Q-26.9 -47.1 -20.05 -47.25 -0.45 -47.7 18.3 -39.25 32.85 -37.25 51.3 -43.15 70.3 -49.3 68.55 -29.65 65.0 -17.75 74.65 -14.05 87.5 -8.8 86.0 0.7" fill="url(#gradient0)" fill-rule="evenodd" stroke="none"/>
  </g>
  <defs>
    <radialGradient cx="0" cy="0" gradientTransform="matrix(0.1215, 0.0, 0.0, 0.0668, 0.05, 0.0)" gradientUnits="userSpaceOnUse" id="gradient0" r="819.2" spreadMethod="pad">
      <stop offset="0.27058823529411763" stop-color="#bbd0fd" stop-opacity="0.0"/>
      <stop offset="1.0" stop-color="#bfdfff"/>
      <stop offset="1.0" stop-color="#fcd462" stop-opacity="0.73333335"/>
    </radialGradient>
  </defs>
</svg>
