<?xml version="1.0" encoding="UTF-8" standalone="no"?>
<svg xmlns:ffdec="https://www.free-decompiler.com/flash" xmlns:xlink="http://www.w3.org/1999/xlink" ffdec:objectType="shape" height="87.0px" width="95.55px" xmlns="http://www.w3.org/2000/svg">
  <g transform="matrix(1.0, 0.0, 0.0, 1.0, -102.4, -154.85)">
    <path d="M194.5 198.5 Q197.9 202.3 197.35 212.05 196.8 221.15 193.85 225.45 187.5 234.3 174.95 239.85 168.45 242.65 161.65 241.55 155.0 240.4 150.15 235.75 142.85 228.7 139.9 223.2 138.95 221.35 139.65 218.05 L140.7 212.6 194.5 198.5" fill="#ffca9a" fill-rule="evenodd" stroke="none"/>
    <path d="M129.35 201.05 Q128.0 198.45 128.4 193.0 128.75 187.7 130.35 185.3 134.6 178.85 143.8 176.9 162.9 172.8 177.45 190.55 183.6 198.0 181.5 207.35 179.4 216.95 169.95 219.75 160.95 222.4 151.25 219.9 140.95 217.15 135.95 209.8 L129.35 201.05" fill="#ffca9a" fill-rule="evenodd" stroke="none"/>
    <path d="M126.15 183.05 L140.2 190.05 135.55 194.05 Q131.5 197.55 124.55 202.45 127.5 207.95 129.8 218.85 132.2 230.1 131.5 236.25 130.7 243.1 124.3 238.25 L114.8 229.3 Q108.95 224.15 105.3 216.75 101.0 208.0 103.1 201.55 105.0 195.95 112.7 191.1 116.75 188.2 119.7 186.25 125.3 182.55 126.15 183.05" fill="#ffdcae" fill-rule="evenodd" stroke="none"/>
    <path d="M128.9 194.7 L142.55 195.75 Q142.0 196.45 140.05 200.5 137.95 204.6 134.0 210.7 138.15 214.3 143.5 222.25 149.1 230.4 150.55 235.7 152.2 241.35 145.4 239.5 137.2 236.2 134.85 235.4 128.5 233.15 123.2 228.5 116.9 222.9 116.5 217.05 116.2 212.0 120.8 205.5 L124.8 199.4 Q128.05 194.55 128.9 194.7" fill="#ffd4ae" fill-rule="evenodd" stroke="none"/>
    <path d="M197.9 200.65 Q198.45 202.7 193.7 213.25 189.1 223.5 188.05 223.95 L160.95 206.35 Q165.85 197.25 153.7 189.15 149.85 186.6 144.8 184.45 L140.5 182.85 Q138.7 182.5 136.4 181.6 134.0 180.55 132.4 180.25 L128.35 178.65 Q125.75 177.5 124.45 178.05 125.9 184.2 122.55 191.4 119.3 198.45 113.5 201.7 109.25 204.05 107.7 204.05 105.2 204.05 104.55 199.85 103.55 194.0 103.65 183.5 103.65 176.85 107.45 169.45 111.55 161.35 117.35 158.25 120.7 156.5 126.45 155.45 L136.0 155.1 Q141.2 154.7 147.35 156.4 L158.45 159.75 Q169.2 162.8 184.1 177.05 192.3 184.8 194.85 190.1 L197.9 200.65" fill="#ffe3bd" fill-rule="evenodd" stroke="none"/>
  </g>
</svg>
