<?xml version="1.0" encoding="UTF-8" standalone="no"?>
<svg xmlns:ffdec="https://www.free-decompiler.com/flash" xmlns:xlink="http://www.w3.org/1999/xlink" ffdec:objectType="shape" height="51.65px" width="101.7px" xmlns="http://www.w3.org/2000/svg">
  <g transform="matrix(1.0, 0.0, 0.0, 1.0, -97.15, -183.75)">
    <path d="M194.85 189.95 Q202.1 206.9 196.15 219.7 193.3 226.1 188.85 229.05 172.15 238.15 160.85 234.25 157.35 233.05 154.8 230.7 L153.0 228.55 Q142.85 231.85 135.15 227.4 122.05 219.9 120.35 211.6 119.55 207.45 120.55 204.45 121.8 200.55 125.5 201.8 127.3 202.35 130.55 204.45 133.75 206.65 135.7 207.25 141.45 208.95 152.4 206.7 L168.95 203.15 172.05 202.7 Q176.15 202.95 181.05 206.75 L194.85 189.95" fill="#ffe3bd" fill-rule="evenodd" stroke="none"/>
    <path d="M104.45 194.55 L123.4 183.75 Q124.05 195.4 116.75 203.1 112.85 207.25 107.75 208.75 101.85 210.5 97.55 207.6 96.3 206.35 99.05 202.45 103.6 196.2 104.45 194.55" fill="#ffe3bd" fill-rule="evenodd" stroke="none"/>
  </g>
</svg>
