<?xml version="1.0" encoding="UTF-8" standalone="no"?>
<svg xmlns:ffdec="https://www.free-decompiler.com/flash" xmlns:xlink="http://www.w3.org/1999/xlink" ffdec:objectType="shape" height="84.7px" width="101.6px" xmlns="http://www.w3.org/2000/svg">
  <g transform="matrix(1.0, 0.0, 0.0, 1.0, -102.3, -179.4)">
    <path d="M183.05 183.4 Q188.15 183.3 195.15 190.15 201.65 196.55 202.9 201.6 205.45 212.2 201.35 225.35 199.2 232.1 193.9 236.5 188.6 240.75 181.9 241.35 L165.7 240.8 Q163.65 240.3 161.65 237.6 L158.2 233.2 183.05 183.4" fill="#ffca9a" fill-rule="evenodd" stroke="none"/>
    <path d="M142.05 234.15 Q139.2 233.45 135.35 229.6 131.55 225.8 130.8 223.0 128.75 215.55 133.35 207.35 142.85 190.2 165.8 190.95 175.55 191.25 181.2 199.0 187.05 206.9 182.9 215.9 178.95 224.4 170.7 230.05 161.85 236.05 153.0 234.95 L142.05 234.15" fill="#ffca9a" fill-rule="evenodd" stroke="none"/>
    <path d="M126.35 224.75 L140.9 218.75 140.8 224.9 Q140.8 230.2 139.95 238.7 146.0 240.1 155.75 245.6 165.8 251.15 170.0 255.8 174.65 260.9 166.8 262.55 L153.7 263.75 Q145.95 264.8 138.05 262.65 128.55 260.15 125.15 254.3 122.15 249.2 123.55 240.15 L124.5 231.7 Q125.4 225.0 126.35 224.75" fill="#ffdcae" fill-rule="evenodd" stroke="none"/>
    <path d="M136.95 230.35 L146.75 220.75 148.65 225.75 Q150.35 230.0 152.4 237.05 157.8 236.25 167.35 237.45 177.2 238.65 182.15 241.0 187.5 243.5 181.65 247.4 173.75 251.4 171.6 252.65 165.7 256.0 158.7 256.9 150.3 257.95 145.65 254.4 141.6 251.3 139.75 243.55 L137.8 236.5 Q136.3 230.85 136.95 230.35" fill="#ffd4ae" fill-rule="evenodd" stroke="none"/>
    <path d="M195.3 193.1 Q196.95 194.55 198.85 205.95 200.7 217.05 200.1 217.95 L167.75 218.45 Q166.75 208.2 152.05 208.25 147.45 208.3 142.05 209.3 L137.6 210.35 Q135.9 211.1 133.45 211.6 L129.4 212.7 125.15 213.6 Q122.35 214.15 121.5 215.35 126.25 219.6 127.45 227.45 128.7 235.2 125.65 241.1 123.4 245.45 122.15 246.35 120.1 247.7 117.2 244.55 113.05 240.25 107.3 231.45 103.55 225.9 102.6 217.6 101.5 208.65 104.65 202.85 106.45 199.45 110.65 195.45 114.95 191.25 118.4 189.8 122.5 186.55 128.55 184.5 L139.7 181.15 Q150.3 177.65 170.65 181.2 181.8 183.1 186.85 186.05 L195.3 193.1" fill="#ffe3bd" fill-rule="evenodd" stroke="none"/>
  </g>
</svg>
