<?xml version="1.0" encoding="UTF-8" standalone="no"?>
<svg xmlns:ffdec="https://www.free-decompiler.com/flash" xmlns:xlink="http://www.w3.org/1999/xlink" ffdec:objectType="shape" height="76.95px" width="85.85px" xmlns="http://www.w3.org/2000/svg">
  <g transform="matrix(1.0, 0.0, 0.0, 1.0, -114.1, -180.65)">
    <path d="M147.6 253.85 Q144.75 251.0 147.4 248.2 148.7 246.85 152.0 244.85 155.45 242.9 156.8 241.45 160.85 237.05 163.7 226.15 L167.8 209.7 168.75 206.75 Q170.8 203.2 176.4 200.45 L167.4 180.65 Q185.8 181.6 194.65 192.55 199.15 197.95 199.9 203.3 200.65 222.35 192.15 230.75 189.55 233.35 186.3 234.6 L183.55 235.3 Q182.1 245.95 174.7 250.8 162.25 259.3 153.95 257.15 149.85 256.0 147.6 253.85" fill="#ffe3bd" fill-rule="evenodd" stroke="none"/>
    <path d="M114.1 240.25 L123.85 220.65 Q130.9 230.0 129.2 240.5 128.25 246.05 124.8 250.25 120.9 254.95 115.7 254.95 113.95 254.6 114.1 249.8 114.35 242.1 114.1 240.25" fill="#ffe3bd" fill-rule="evenodd" stroke="none"/>
  </g>
</svg>
