<?xml version="1.0" encoding="UTF-8" standalone="no"?>
<svg xmlns:ffdec="https://www.free-decompiler.com/flash" xmlns:xlink="http://www.w3.org/1999/xlink" ffdec:objectType="shape" height="91.15px" width="99.5px" xmlns="http://www.w3.org/2000/svg">
  <g transform="matrix(1.0, 0.0, 0.0, 1.0, -104.4, -172.95)">
    <path d="M183.05 183.4 Q188.15 183.3 195.15 190.15 201.65 196.55 202.9 201.6 205.45 212.2 201.35 225.35 199.2 232.1 193.9 236.5 188.6 240.75 181.9 241.35 L165.7 240.8 Q163.65 240.3 161.65 237.6 L158.2 233.2 183.05 183.4" fill="#ffca9a" fill-rule="evenodd" stroke="none"/>
    <path d="M142.05 234.15 Q139.2 233.45 135.35 229.6 131.55 225.8 130.8 223.0 128.75 215.55 133.35 207.35 142.85 190.2 165.8 190.95 175.55 191.25 181.2 199.0 187.05 206.9 182.9 215.9 178.95 224.4 170.7 230.05 161.85 236.05 153.0 234.95 L142.05 234.15" fill="#ffca9a" fill-rule="evenodd" stroke="none"/>
    <path d="M126.35 224.75 L140.9 218.75 140.8 224.9 Q140.8 230.2 139.95 238.7 146.0 240.1 155.75 245.6 165.8 251.15 170.0 255.8 174.65 260.9 166.8 262.55 L153.7 263.75 Q145.95 264.8 138.05 262.65 128.55 260.15 125.15 254.3 122.15 249.2 123.55 240.15 L124.5 231.7 Q125.4 225.0 126.35 224.75" fill="#ffdcae" fill-rule="evenodd" stroke="none"/>
    <path d="M136.95 230.35 L146.75 220.75 148.65 225.75 Q150.35 230.0 152.4 237.05 157.8 236.25 167.35 237.45 177.2 238.65 182.15 241.0 187.5 243.5 181.65 247.4 173.75 251.4 171.6 252.65 165.7 256.0 158.7 256.9 150.3 257.95 145.65 254.4 141.6 251.3 139.75 243.55 L137.8 236.5 Q136.3 230.85 136.95 230.35" fill="#ffd4ae" fill-rule="evenodd" stroke="none"/>
    <path d="M178.05 174.85 Q180.15 175.25 187.55 184.2 194.7 192.9 194.65 193.95 L166.9 210.55 Q160.85 202.15 148.2 209.55 144.2 211.85 140.05 215.5 L136.7 218.65 133.75 221.75 Q131.8 223.45 130.8 224.75 L127.55 227.65 Q125.4 229.5 125.3 230.95 131.45 232.3 136.45 238.45 141.4 244.6 141.75 251.2 142.0 256.1 141.3 257.5 140.25 259.65 136.15 258.45 130.4 256.75 121.0 252.05 115.0 249.1 110.0 242.4 104.55 235.15 104.4 228.55 104.25 224.75 105.9 219.15 107.55 213.4 109.8 210.4 111.7 205.55 115.95 200.75 L123.9 192.25 Q131.35 183.9 150.75 176.85 161.35 172.9 167.2 172.95 L178.05 174.85" fill="#ffe3bd" fill-rule="evenodd" stroke="none"/>
  </g>
</svg>
