<?xml version="1.0" encoding="UTF-8" standalone="no"?>
<svg xmlns:ffdec="https://www.free-decompiler.com/flash" xmlns:xlink="http://www.w3.org/1999/xlink" ffdec:objectType="shape" height="95.55px" width="68.0px" xmlns="http://www.w3.org/2000/svg">
  <g transform="matrix(1.0, 0.0, 0.0, 1.0, -129.95, -172.65)">
    <path d="M145.6 245.85 Q142.75 243.0 145.4 240.2 146.7 238.85 150.0 236.85 153.45 234.9 154.8 233.45 158.85 229.05 161.7 218.15 L165.8 201.7 166.75 198.75 Q168.8 195.2 174.4 192.45 L165.4 172.65 Q183.8 173.6 192.65 184.55 197.15 189.95 197.9 195.3 198.65 214.35 190.15 222.75 187.55 225.35 184.3 226.6 L181.55 227.3 Q180.1 237.95 172.7 242.8 160.25 251.3 151.95 249.15 147.85 248.0 145.6 245.85" fill="#ffe3bd" fill-rule="evenodd" stroke="none"/>
    <path d="M131.3 256.25 L129.95 234.35 Q140.7 239.0 144.5 248.9 146.45 254.25 145.55 259.55 144.5 265.6 140.0 268.15 138.3 268.75 136.1 264.55 132.45 257.7 131.3 256.25" fill="#ffe3bd" fill-rule="evenodd" stroke="none"/>
  </g>
</svg>
