<?xml version="1.0" encoding="UTF-8" standalone="no"?>
<svg xmlns:ffdec="https://www.free-decompiler.com/flash" xmlns:xlink="http://www.w3.org/1999/xlink" ffdec:objectType="shape" height="450.45px" width="259.05px" xmlns="http://www.w3.org/2000/svg">
  <g transform="matrix(1.0, 0.0, 0.0, 1.0, -200.4, 79.75)">
    <path d="M294.05 202.85 L301.0 198.8 Q310.45 193.35 328.9 195.45 343.8 197.2 356.3 202.25 365.4 205.95 369.75 209.2 375.5 213.45 379.15 220.55 385.65 233.25 385.95 249.6 L386.05 266.15 Q386.4 271.55 385.6 273.05 384.55 275.15 379.9 276.25 L360.35 276.9 340.65 274.9 299.65 272.95 281.85 272.55 Q270.75 272.15 264.3 270.5 264.85 247.95 269.65 231.75 277.25 206.35 294.05 202.85" fill="#16b114" fill-rule="evenodd" stroke="none"/>
    <path d="M312.85 242.0 Q312.85 244.1 311.35 245.65 309.85 247.15 307.75 247.15 305.65 247.15 304.15 245.65 302.65 244.1 302.65 242.0 302.65 239.9 304.15 238.45 305.65 236.95 307.75 236.95 309.85 236.95 311.35 238.45 312.85 239.9 312.85 242.0" fill="#039d0a" fill-rule="evenodd" stroke="none"/>
    <path d="M312.85 256.5 Q312.85 258.6 311.35 260.1 309.85 261.6 307.75 261.6 305.65 261.6 304.15 260.1 302.65 258.6 302.65 256.5 302.65 254.4 304.15 252.9 305.65 251.4 307.75 251.4 309.85 251.4 311.35 252.9 312.85 254.4 312.85 256.5" fill="#039d0a" fill-rule="evenodd" stroke="none"/>
    <path d="M345.3 242.0 Q345.3 244.1 343.8 245.65 342.3 247.15 340.2 247.15 338.1 247.15 336.6 245.65 335.15 244.1 335.15 242.0 335.15 239.9 336.6 238.45 338.1 236.95 340.2 236.95 342.3 236.95 343.8 238.45 345.3 239.9 345.3 242.0" fill="#039d0a" fill-rule="evenodd" stroke="none"/>
    <path d="M345.3 256.5 Q345.3 258.6 343.8 260.1 342.3 261.6 340.2 261.6 338.1 261.6 336.6 260.1 335.15 258.6 335.15 256.5 335.15 254.4 336.6 252.9 338.1 251.4 340.2 251.4 342.3 251.4 343.8 252.9 345.3 254.4 345.3 256.5" fill="#039d0a" fill-rule="evenodd" stroke="none"/>
    <path d="M321.0 228.6 Q317.9 234.65 308.75 237.05 299.9 239.3 293.65 236.25 286.4 232.7 285.35 222.95 284.45 214.45 288.25 207.0 L360.85 205.7 Q369.15 204.1 377.5 220.3 383.3 231.75 384.45 241.55 L386.65 262.05 386.95 267.0 Q386.85 270.0 385.4 271.05 384.6 271.6 380.45 271.7 L375.45 271.45 Q375.35 269.65 375.75 265.5 376.2 261.6 375.95 259.35 L373.85 247.3 Q373.45 244.25 370.1 239.85 366.1 234.65 362.65 236.6 357.75 239.3 353.25 239.2 350.0 239.1 343.05 237.0 341.15 236.45 337.35 232.85 333.7 229.4 331.75 229.1 330.4 228.85 326.55 229.1 L321.0 228.6" fill="#039d0a" fill-rule="evenodd" stroke="none"/>
    <path d="M402.55 270.65 Q406.35 265.65 409.35 264.85 413.0 263.8 419.45 267.3 420.25 267.75 423.0 268.55 425.5 269.45 425.75 270.55 426.25 272.5 424.65 274.2 423.05 275.85 421.15 275.65 421.65 278.25 419.9 279.85 418.05 281.55 415.65 280.3 415.3 284.65 411.5 285.5 407.7 286.35 406.55 281.85 400.45 284.6 398.75 282.9 397.25 281.3 398.9 276.95 400.3 273.3 402.55 270.65" fill="#ffd09b" fill-rule="evenodd" stroke="none"/>
    <path d="M421.15 275.65 Q421.05 273.65 419.85 272.15 424.5 273.55 423.5 275.1 423.05 275.95 421.15 275.65 L421.15 276.3 420.9 275.6 421.15 275.65" fill="#ffbb7e" fill-rule="evenodd" stroke="none"/>
    <path d="M413.15 277.95 Q418.35 277.75 418.55 280.8 L415.65 281.05 Q415.45 283.0 413.8 284.4 412.1 285.8 410.15 285.2 412.25 284.65 413.2 282.3 414.15 280.0 413.15 277.95" fill="#ffbb7e" fill-rule="evenodd" stroke="none"/>
    <path d="M405.85 279.6 Q407.6 282.45 403.85 283.6 L401.5 283.9 Q400.45 283.35 399.35 282.95 402.1 283.95 405.85 279.6" fill="#ffbb7e" fill-rule="evenodd" stroke="none"/>
    <path d="M317.75 360.85 Q318.45 365.05 313.05 367.8 308.25 370.3 300.9 370.65 293.5 370.95 288.2 369.0 282.35 366.75 282.15 362.5 282.0 358.75 287.4 356.1 292.35 353.65 299.45 353.15 306.65 352.65 311.75 354.5 317.45 356.6 317.75 360.85" fill="#000104" fill-rule="evenodd" stroke="none"/>
    <path d="M304.85 352.65 Q304.9 350.85 303.95 340.9 303.3 333.65 304.55 329.45 L309.9 330.2 315.15 329.95 Q316.1 337.85 314.5 354.9 311.95 358.05 308.7 358.05 306.7 358.05 305.55 355.4 L304.85 352.65" fill="#ffd09b" fill-rule="evenodd" stroke="none"/>
    <path d="M335.85 360.85 Q336.2 356.6 341.9 354.5 346.95 352.65 354.15 353.15 361.3 353.65 366.2 356.1 371.65 358.75 371.45 362.5 371.3 366.75 365.45 369.0 360.1 370.95 352.75 370.65 345.35 370.3 340.55 367.8 335.2 365.05 335.85 360.85" fill="#000104" fill-rule="evenodd" stroke="none"/>
    <path d="M348.75 352.65 Q348.15 358.05 344.85 358.05 342.85 358.05 340.75 356.5 L339.05 354.9 Q337.5 337.85 338.45 329.95 342.1 331.1 349.05 329.45 350.35 333.65 349.65 340.9 348.7 351.0 348.75 352.65" fill="#ffd09b" fill-rule="evenodd" stroke="none"/>
    <path d="M291.55 295.55 L324.05 291.95 Q321.05 302.55 322.05 319.3 323.2 339.65 322.4 346.6 319.55 347.15 314.6 346.65 L306.75 346.05 290.35 346.75 Q289.4 337.45 290.55 321.15 291.85 302.8 291.55 295.55" fill="#634301" fill-rule="evenodd" stroke="none"/>
    <path d="M329.1 295.55 L361.55 291.95 Q358.5 302.55 359.5 319.3 360.75 339.75 359.95 346.6 357.1 347.15 352.15 346.65 L344.25 346.05 327.9 346.75 Q326.9 337.4 328.05 321.15 329.4 302.7 329.1 295.55" fill="#634301" fill-rule="evenodd" stroke="none"/>
    <path d="M321.65 220.75 Q318.65 227.0 312.25 231.25 305.4 235.85 298.9 234.95 289.85 233.75 286.05 227.1 282.6 221.0 284.25 211.85 287.35 194.55 303.95 198.8 310.15 200.45 316.05 207.0 322.5 214.25 321.65 220.75" fill="#f90203" fill-rule="evenodd" stroke="none"/>
    <path d="M303.5 199.5 Q305.65 200.3 308.65 200.9 314.3 203.25 320.2 212.7 322.45 216.35 320.05 222.4 317.8 227.8 313.9 231.05 310.2 234.15 304.85 235.1 L294.9 234.7 Q289.8 233.35 287.1 229.95 284.0 226.2 284.6 220.8 287.9 228.4 290.0 230.3 294.1 234.0 302.8 232.05 305.65 231.4 310.6 226.45 316.0 220.95 313.4 218.65 312.15 217.55 307.7 219.4 L302.1 222.15 Q306.55 216.2 312.95 214.15 309.95 211.6 304.9 209.0 L300.35 206.9 Q308.85 206.6 316.35 212.2 314.65 205.45 303.5 199.5" fill="#ca0002" fill-rule="evenodd" stroke="none"/>
    <path d="M330.65 220.75 Q329.7 214.25 336.2 207.0 342.1 200.45 348.3 198.8 364.9 194.55 368.0 211.85 369.65 221.05 366.2 227.1 362.45 233.75 353.3 234.95 346.85 235.85 340.0 231.25 333.6 227.0 330.65 220.75" fill="#f90203" fill-rule="evenodd" stroke="none"/>
    <path d="M349.55 199.05 Q337.6 205.25 335.95 212.2 343.3 206.6 351.9 206.9 344.05 210.1 339.3 214.15 345.7 216.15 350.1 222.15 346.85 220.4 344.55 219.4 340.15 217.55 338.9 218.65 336.25 220.95 341.65 226.45 346.6 231.4 349.45 232.05 358.15 234.0 362.3 230.3 364.45 228.35 367.65 220.8 368.8 231.65 357.4 234.7 L347.4 235.1 Q342.05 234.15 338.35 231.05 334.4 227.8 332.25 222.4 329.75 216.3 332.1 212.7 337.95 203.25 343.6 200.9 344.7 200.4 347.85 199.6 L349.55 199.05" fill="#ca0002" fill-rule="evenodd" stroke="none"/>
    <path d="M320.2 226.7 Q316.1 224.55 315.1 220.35 313.75 214.65 316.85 210.55 319.65 206.85 324.55 205.95 329.55 205.1 333.35 207.55 337.65 210.35 338.35 216.25 339.0 221.3 335.9 224.55 333.15 227.5 328.5 228.1 323.95 228.65 320.2 226.7" fill="#ca0002" fill-rule="evenodd" stroke="none"/>
    <path d="M319.55 224.45 Q316.0 222.6 315.1 218.95 313.9 214.0 316.6 210.45 319.05 207.25 323.35 206.45 327.7 205.65 331.05 207.8 334.8 210.25 335.4 215.35 336.0 219.75 333.3 222.6 330.85 225.15 326.85 225.65 322.85 226.15 319.55 224.45" fill="#f90203" fill-rule="evenodd" stroke="none"/>
    <path d="M209.7 64.4 Q216.4 59.1 224.5 57.6 232.95 56.05 238.2 59.7 244.25 63.85 243.85 73.65 L237.9 94.95 Q232.5 102.6 225.05 104.7 218.2 106.55 211.85 103.4 205.5 100.25 202.5 93.5 199.15 86.15 201.1 77.2 202.65 70.05 209.7 64.4" fill="#ffe3bd" fill-rule="evenodd" stroke="none"/>
    <path d="M216.85 70.0 Q221.0 66.75 226.0 65.8 231.2 64.85 234.45 67.15 238.15 69.7 237.9 75.7 L234.25 88.85 Q230.95 93.55 226.3 94.9 222.05 96.05 218.15 94.1 214.25 92.15 212.4 88.0 210.35 83.45 211.55 77.9 212.5 73.5 216.85 70.0" fill="#ff9a60" fill-rule="evenodd" stroke="none"/>
    <path d="M361.4 1.05 Q373.75 4.05 381.7 8.45 401.35 13.25 411.6 30.9 414.85 36.55 419.95 48.55 425.75 62.3 429.1 68.7 438.0 86.0 439.3 107.2 440.5 126.95 435.05 147.45 424.5 187.25 385.05 204.1 351.75 218.35 310.35 212.65 271.85 207.35 246.75 182.3 218.95 154.55 221.85 114.65 224.55 77.85 252.75 45.15 279.6 13.95 315.4 2.15 336.85 -4.95 361.4 1.05" fill="#ffca9a" fill-rule="evenodd" stroke="none"/>
    <path d="M397.35 32.15 Q400.3 37.8 404.95 49.8 410.35 63.5 413.35 69.95 421.55 87.25 422.7 108.5 423.8 128.25 418.85 148.75 409.25 188.2 372.95 203.2 343.5 215.45 304.35 209.55 268.4 204.2 245.9 181.35 220.35 155.45 223.05 115.85 225.5 79.05 251.4 46.4 276.1 15.25 308.9 3.4 328.6 -3.7 351.15 2.35 362.45 5.25 369.8 9.7 387.85 14.45 397.35 32.15" fill="#ffe3bd" fill-rule="evenodd" stroke="none"/>
    <path d="M312.15 64.75 Q312.15 67.9 309.95 67.9 307.75 67.9 307.75 64.75 307.75 61.65 309.95 61.65 312.15 61.65 312.15 64.75" fill="#2d0a18" fill-rule="evenodd" stroke="none"/>
    <path d="M383.4 67.55 Q375.45 67.1 367.55 71.2 359.8 75.25 355.2 82.15 350.3 89.6 350.8 97.7 351.35 105.75 357.2 112.55 362.9 119.05 371.0 121.5 372.35 121.85 377.8 121.4 382.65 120.95 383.95 122.0 385.45 123.15 387.35 134.15 389.35 146.2 389.95 147.35 L376.95 128.4 352.05 118.95 Q348.25 117.5 344.5 112.05 340.45 106.05 339.5 99.15 336.95 80.55 357.95 70.45 377.95 60.85 390.1 66.4 396.2 69.25 398.2 74.0 392.1 68.05 383.4 67.55" fill="#ffca9a" fill-rule="evenodd" stroke="none"/>
    <path d="M259.6 66.4 Q271.75 60.85 291.75 70.45 312.75 80.55 310.2 99.15 309.25 106.05 305.2 112.05 301.5 117.5 297.65 118.95 L272.75 128.4 259.75 147.35 Q260.3 146.2 262.35 134.15 264.25 123.15 265.75 122.0 267.05 120.95 271.85 121.4 277.35 121.85 278.7 121.5 286.8 119.05 292.5 112.55 298.35 105.75 298.9 97.7 299.45 89.6 294.55 82.15 289.95 75.25 282.15 71.2 274.3 67.1 266.3 67.55 257.6 68.05 251.45 74.0 L253.25 71.3 Q255.85 68.2 259.6 66.4" fill="#ffca9a" fill-rule="evenodd" stroke="none"/>
    <path d="M320.1 122.25 Q306.7 120.55 298.95 115.0 289.35 108.1 290.05 96.35 290.75 85.5 303.85 77.6 316.15 70.1 327.8 71.45 337.55 73.35 348.0 85.2 358.85 97.55 356.25 106.0 353.2 116.05 341.4 120.25 331.6 123.75 320.1 122.25" fill="#ff791e" fill-rule="evenodd" stroke="none"/>
    <path d="M318.65 117.9 Q304.3 115.5 299.7 113.35 289.55 108.55 290.1 97.4 290.6 86.7 303.45 78.15 315.35 70.05 324.5 71.45 332.5 73.45 341.1 83.55 350.45 94.45 348.55 102.7 346.25 112.65 336.0 116.45 328.0 119.4 318.65 117.9" fill="#ff9a00" fill-rule="evenodd" stroke="none"/>
    <path d="M457.4 110.55 Q454.35 117.35 448.05 120.5 441.7 123.65 434.85 121.75 427.35 119.65 421.95 112.05 L416.05 90.7 Q415.65 80.95 421.65 76.8 426.9 73.15 435.4 74.7 443.45 76.2 450.15 81.5 457.2 87.15 458.75 94.3 460.7 103.25 457.4 110.55" fill="#ffe3bd" fill-rule="evenodd" stroke="none"/>
    <path d="M448.3 95.0 Q449.55 100.55 447.5 105.05 445.6 109.2 441.7 111.2 437.75 113.15 433.55 112.0 428.95 110.65 425.6 105.95 L421.95 92.8 Q421.7 86.75 425.45 84.15 428.7 81.95 433.9 82.9 438.85 83.85 443.0 87.1 447.4 90.6 448.3 95.0" fill="#ff9a60" fill-rule="evenodd" stroke="none"/>
    <path d="M303.3 41.05 Q304.75 43.7 295.75 48.95 286.8 54.2 282.2 53.7 280.4 50.6 282.7 47.3 284.75 44.4 289.2 42.15 293.45 40.05 297.5 39.6 301.75 39.15 303.3 41.05" fill="#2d0a18" fill-rule="evenodd" stroke="none"/>
    <path d="M345.7 68.8 Q345.7 65.7 347.85 65.7 350.05 65.7 350.05 68.8 350.05 71.95 347.85 71.95 345.7 71.95 345.7 68.8" fill="#2d0a18" fill-rule="evenodd" stroke="none"/>
    <path d="M354.55 45.05 Q356.1 43.2 360.35 43.65 364.4 44.05 368.65 46.2 373.05 48.45 375.1 51.3 377.45 54.65 375.6 57.75 371.0 58.3 362.05 53.05 353.05 47.7 354.55 45.05" fill="#2d0a18" fill-rule="evenodd" stroke="none"/>
    <path d="M365.75 21.35 Q351.55 24.2 344.25 34.75 341.8 31.75 338.9 32.35 336.4 32.9 332.0 36.5 330.7 23.55 332.85 7.1 321.2 5.3 304.1 12.15 289.5 17.9 278.3 26.55 270.05 32.9 259.9 51.25 254.75 60.55 252.0 64.55 247.3 71.45 242.25 75.35 238.8 69.4 237.9 65.9 236.65 60.85 238.4 55.0 242.4 42.2 253.65 30.3 264.8 18.45 280.9 9.95 317.0 -9.25 357.95 -4.15 393.5 0.3 414.2 38.75 424.55 58.0 427.8 76.35 L421.9 79.9 Q421.85 77.75 419.4 71.45 412.7 73.8 410.45 76.85 410.15 62.8 406.25 49.55 401.25 32.85 392.35 26.55 380.75 18.35 365.75 21.35" fill="#ffca9a" fill-rule="evenodd" stroke="none"/>
    <path d="M327.2 14.95 Q328.0 3.8 339.05 0.6 L372.2 10.05 Q364.5 12.55 356.55 18.9 L342.5 30.05 340.2 26.9 Q338.55 24.85 338.65 22.4 331.85 24.7 331.35 34.25 326.6 23.0 327.2 14.95" fill="#5d0304" fill-rule="evenodd" stroke="none"/>
    <path d="M376.45 13.3 L384.9 1.95 Q395.95 4.25 407.35 16.7 412.45 22.3 424.1 38.9 431.25 49.1 433.1 60.5 435.7 75.85 422.5 77.15 L421.3 68.7 Q420.3 64.15 418.05 61.6 417.4 63.05 415.25 65.8 413.2 68.5 412.55 69.9 414.35 52.5 403.7 35.45 392.85 18.2 376.45 13.3" fill="#5d0304" fill-rule="evenodd" stroke="none"/>
    <path d="M334.3 -7.2 L347.35 0.6 Q339.85 -0.25 314.75 5.7 289.2 11.85 283.3 16.35 272.95 24.45 270.15 27.05 262.85 33.9 257.6 43.15 L250.7 57.7 Q245.85 67.3 241.45 69.0 242.3 67.65 242.8 64.6 243.35 61.15 243.8 60.1 L239.45 59.8 235.15 59.4 Q238.95 44.2 251.65 27.65 264.45 10.95 277.95 4.0 291.25 -2.85 305.4 -6.45 323.75 -11.1 334.3 -7.2" fill="#5d0304" fill-rule="evenodd" stroke="none"/>
    <path d="M336.0 -48.05 Q327.05 -53.35 328.05 -62.35 328.95 -70.5 336.55 -75.85 344.55 -81.45 352.95 -78.4 362.85 -74.85 368.55 -60.0 371.4 -64.7 376.8 -67.95 382.15 -71.1 387.95 -71.8 394.05 -72.55 398.65 -70.15 403.8 -67.55 405.9 -61.65 409.5 -51.6 403.95 -43.05 398.35 -34.35 387.45 -34.7 387.45 -27.95 386.7 -14.25 385.9 1.6 384.95 5.3 382.85 13.7 371.7 16.7 363.45 18.85 351.6 17.85 338.45 16.7 328.65 10.2 317.2 2.6 321.9 -6.75 332.7 -28.15 336.0 -48.05" fill="#f90203" fill-rule="evenodd" stroke="none"/>
    <path d="M394.65 78.45 Q406.45 80.6 410.9 88.8 412.7 92.2 412.5 95.55 412.2 98.8 410.0 100.85 405.95 104.6 395.7 104.9 387.35 105.1 380.6 103.35 374.3 101.65 372.55 97.2 371.05 93.25 373.75 88.55 376.4 83.9 381.8 81.0 387.7 77.9 394.65 78.45" fill="#fca48c" fill-rule="evenodd" stroke="none"/>
    <path d="M256.15 77.3 Q268.0 79.45 272.45 87.65 274.25 91.0 274.0 94.35 273.75 97.6 271.55 99.65 267.5 103.4 257.2 103.7 248.85 103.9 242.05 102.15 235.75 100.45 234.1 96.05 232.55 92.05 235.2 87.35 237.9 82.75 243.35 79.85 249.25 76.75 256.15 77.3" fill="#fca48c" fill-rule="evenodd" stroke="none"/>
    <path d="M262.3 296.4 Q262.2 284.45 262.35 281.55 262.8 273.6 265.05 267.15 L272.8 268.1 Q278.2 268.75 281.9 268.3 L305.4 267.5 328.95 267.2 Q343.55 267.0 352.4 267.5 L363.75 268.8 375.15 270.0 Q383.8 270.45 385.55 271.25 386.9 271.9 386.65 274.8 L385.85 280.8 Q385.1 287.3 385.45 300.7 385.85 313.95 385.05 320.55 364.2 320.45 324.65 321.35 283.45 322.3 264.25 322.3 262.35 318.15 262.2 309.7 L262.3 296.4 M264.25 322.3 L264.3 322.35 264.2 322.3 264.25 322.3" fill="#ebebeb" fill-rule="evenodd" stroke="none"/>
    <path d="M265.4 295.1 Q265.3 284.15 265.45 281.15 265.85 273.65 267.9 267.5 L274.85 268.45 Q279.65 269.0 282.95 268.6 L304.0 267.85 325.05 267.55 Q338.25 267.4 346.0 267.85 L356.2 269.05 366.35 270.2 Q374.1 270.7 375.65 271.45 376.9 272.0 376.65 274.75 L375.95 280.4 Q375.25 286.6 375.6 299.15 375.95 311.75 375.2 317.9 356.6 317.8 321.2 318.65 284.35 319.6 267.25 319.6 265.45 315.75 265.3 307.7 L265.4 295.1 M267.25 319.6 L267.25 319.65 267.1 319.6 267.25 319.6" fill="#ffffff" fill-rule="evenodd" stroke="none"/>
    <path d="M310.7 290.75 Q313.4 291.35 320.35 289.6 326.75 287.95 330.0 289.5 328.0 292.1 324.0 294.4 319.2 296.8 316.95 297.95 322.6 299.0 334.25 296.3 348.0 293.15 351.95 293.05 338.85 299.35 324.0 303.8 306.65 309.0 294.9 308.95 L305.45 301.7 Q311.95 297.25 315.1 293.55 311.85 294.6 294.9 298.25 282.45 300.95 275.25 304.95 278.6 300.75 290.25 295.7 305.0 289.4 307.0 288.15 314.75 283.35 331.25 276.9 L332.8 277.7 Q325.3 279.85 310.7 290.75" fill="#ebebeb" fill-rule="evenodd" stroke="none"/>
    <path d="M406.25 243.8 L412.15 255.15 Q416.6 264.2 414.9 265.6 404.55 274.35 398.95 277.35 384.4 258.65 376.7 243.95 362.0 215.65 380.35 214.85 392.55 214.3 406.25 243.8" fill="#039d0a" fill-rule="evenodd" stroke="none"/>
    <path d="M370.35 229.7 Q370.35 217.9 376.25 217.45 379.3 217.25 383.5 219.5 387.25 221.55 389.85 224.25 395.4 229.95 401.55 241.15 407.05 251.3 409.85 259.65 411.45 264.35 405.9 271.35 403.8 273.95 401.65 275.55 399.55 277.1 398.95 276.45 396.35 273.8 387.2 260.45 379.3 248.9 376.15 243.75 373.1 238.7 372.4 237.0 371.5 234.95 370.35 229.7" fill="#16b114" fill-rule="evenodd" stroke="none"/>
    <path d="M343.9 -77.9 Q350.15 -82.55 358.8 -75.4 365.5 -69.85 369.4 -62.0 370.95 -63.95 376.95 -67.2 383.0 -70.45 385.35 -70.25 380.15 -68.95 372.25 -61.15 365.65 -54.6 362.1 -49.05 362.35 -58.95 358.35 -66.6 353.5 -76.0 343.9 -77.9" fill="#ca0002" fill-rule="evenodd" stroke="none"/>
    <path d="M378.05 -31.25 Q382.25 -31.95 387.85 -34.65 389.45 -30.95 387.85 -14.9 L385.8 5.1 Q385.8 7.35 383.0 10.5 379.5 14.55 373.85 15.6 376.5 13.3 378.9 6.85 381.65 -0.15 382.0 -7.35 383.05 -26.7 367.4 -31.6 L378.05 -31.25" fill="#ca0002" fill-rule="evenodd" stroke="none"/>
    <path d="M333.4 -10.35 Q334.05 -10.2 334.2 -9.65 L334.25 -8.8 334.1 -6.8 Q334.05 -5.45 333.8 -4.95 L332.9 -4.85 332.1 -5.35 332.35 -7.95 332.3 -8.4 332.05 -8.55 328.9 -8.8 Q328.45 -9.25 328.55 -9.85 328.65 -10.55 329.05 -10.8 L333.4 -10.35 M330.65 -6.95 L330.6 -3.7 333.25 -3.0 333.2 -1.85 332.65 -1.25 331.3 -1.55 330.1 -1.75 328.2 -2.1 326.05 -2.2 Q325.75 -2.55 325.8 -3.05 L326.0 -3.9 327.3 -4.05 328.7 -4.0 328.7 -5.65 Q328.7 -6.7 328.85 -7.15 328.95 -7.5 329.75 -7.4 330.65 -7.25 330.65 -6.95" fill="#ffffff" fill-rule="evenodd" stroke="none"/>
    <path d="M343.25 -6.9 L343.2 -5.95 Q343.0 -5.45 342.2 -5.45 L341.65 -5.8 341.15 -6.4 340.75 -7.6 340.6 -8.5 341.0 -9.15 341.7 -9.45 Q342.1 -9.4 342.5 -8.5 L342.95 -7.45 343.25 -6.9 M344.4 -3.4 Q344.55 -2.5 343.8 -2.5 343.3 -2.35 342.8 -2.5 L341.8 -2.6 340.65 -2.85 339.4 -3.1 336.8 -3.35 Q336.2 -3.7 336.25 -4.55 336.35 -5.4 337.3 -5.25 L344.0 -4.45 Q344.4 -4.35 344.4 -3.4 M337.45 -1.05 Q338.55 -2.25 339.9 -2.25 340.9 -2.25 341.4 -1.65 L341.9 -0.2 Q341.9 1.2 340.65 2.4 339.5 3.65 338.3 3.65 337.05 3.65 336.75 2.85 336.4 1.95 336.4 1.5 336.4 0.15 337.45 -1.05 M338.85 1.45 L339.5 0.95 339.85 0.3 339.85 -0.15 Q339.65 -0.35 339.4 -0.15 L338.8 0.25 338.4 0.8 338.4 1.35 Q338.45 1.6 338.85 1.45 M343.25 4.1 Q344.55 3.05 345.7 3.2 346.65 3.3 347.2 4.2 347.75 5.05 347.55 5.8 347.4 6.6 346.15 7.95 344.9 9.3 343.75 9.2 342.45 9.15 342.15 8.15 L341.95 6.6 Q342.1 5.2 343.25 4.1 M344.3 6.9 L345.1 6.35 345.45 5.75 345.45 5.25 345.05 5.3 Q344.55 5.5 344.4 5.7 L344.05 6.25 343.9 6.8 Q343.9 7.15 344.3 6.9 M350.25 -4.9 Q350.95 -4.45 350.65 -3.85 L350.3 -3.0 349.6 -3.1 348.5 -3.2 348.35 -2.7 348.35 -2.05 350.1 -1.7 Q350.6 -1.2 350.55 -0.65 350.5 -0.05 349.95 0.3 L348.9 0.05 348.15 0.0 347.95 0.65 347.9 1.3 Q347.65 1.9 346.75 1.55 345.85 1.35 345.9 0.9 L346.95 -6.85 Q347.3 -7.2 348.05 -7.15 348.8 -7.0 349.05 -6.5 348.75 -5.35 348.9 -5.25 349.05 -5.1 349.5 -5.05 L350.25 -4.9" fill="#ffffff" fill-rule="evenodd" stroke="none"/>
    <path d="M365.2 -3.8 L365.15 -3.0 364.9 -1.75 364.9 -1.5 Q365.4 -1.3 365.95 -1.25 L367.15 -0.7 367.1 0.1 366.6 0.95 364.6 0.6 364.1 3.1 363.05 3.0 Q362.7 2.95 362.35 2.55 L362.35 1.9 362.45 1.4 363.15 -3.85 364.25 -4.1 365.2 -3.8 M359.05 -3.55 L359.3 -2.55 358.75 0.6 358.3 1.55 357.25 1.85 354.15 1.65 Q353.45 1.65 352.95 1.3 352.6 0.95 352.65 0.15 L352.95 -1.65 353.0 -3.55 Q353.4 -4.2 353.7 -4.2 L354.6 -4.3 358.2 -4.1 Q358.9 -4.0 359.05 -3.55 M357.15 -2.15 L356.25 -2.2 355.0 -2.25 354.65 -0.35 355.7 -0.25 356.7 -0.2 356.85 -0.25 356.9 -0.45 357.1 -1.25 357.15 -2.15 M357.65 3.15 Q358.25 3.3 358.4 3.75 L357.95 6.7 358.0 6.9 358.2 6.95 359.85 7.15 361.55 7.45 Q361.75 7.9 361.6 8.5 361.5 9.15 361.1 9.3 L358.2 9.0 356.85 8.85 356.15 8.45 Q355.85 8.2 355.85 7.7 L356.1 5.1 Q356.15 4.1 356.6 3.15 357.05 3.0 357.65 3.15" fill="#ffffff" fill-rule="evenodd" stroke="none"/>
    <path d="M376.65 -4.05 L372.35 -4.55 371.95 -1.85 377.05 -1.1 Q377.4 -0.15 377.0 0.4 376.65 0.95 376.2 0.95 L371.8 0.3 Q370.65 0.25 370.2 -0.15 369.85 -0.5 369.9 -1.5 L370.15 -3.5 370.3 -5.2 Q370.3 -5.95 370.55 -6.3 370.85 -6.75 371.7 -6.65 L374.3 -6.35 377.2 -5.95 Q377.55 -5.8 377.45 -4.85 377.25 -4.0 376.65 -4.05 M369.65 2.55 L376.7 3.4 Q377.05 3.7 376.8 4.6 L376.65 5.4 376.25 5.4 374.35 5.15 374.05 7.95 Q374.05 8.3 373.05 8.3 372.2 8.4 372.05 7.8 L372.25 6.15 372.3 4.85 369.35 4.6 Q368.75 4.5 368.9 3.5 369.1 2.5 369.65 2.55" fill="#ffffff" fill-rule="evenodd" stroke="none"/>
    <path d="M291.7 193.1 Q286.05 189.1 281.6 183.65 273.55 173.95 269.05 161.05 265.65 151.3 261.85 131.45 286.0 146.95 323.95 149.35 364.05 151.8 386.85 136.6 390.0 161.1 375.9 178.55 L376.1 178.25 Q344.55 174.3 327.6 177.5 299.7 179.35 291.7 193.1 M325.8 203.4 L321.9 203.2 Q304.1 201.7 291.8 193.15 309.7 202.6 325.8 203.4" fill="#5d0406" fill-rule="evenodd" stroke="none"/>
    <path d="M291.7 193.1 Q299.7 179.35 327.6 177.5 344.55 174.3 376.1 178.25 L375.9 178.55 Q368.85 189.55 354.9 196.85 341.2 204.1 325.8 203.4 309.7 202.6 291.8 193.15 L291.7 193.1" fill="#c10000" fill-rule="evenodd" stroke="none"/>
    <path d="M293.05 237.7 L296.15 232.05 Q296.6 235.5 293.95 244.6 290.65 255.8 290.25 258.3 288.25 272.35 286.0 278.4 L279.9 278.25 286.2 257.95 Q290.05 245.65 293.05 237.7" fill="#039d0a" fill-rule="evenodd" stroke="none"/>
    <path d="M222.5 249.2 L226.3 248.9 Q233.45 247.2 236.7 249.15 239.4 250.65 241.8 256.5 243.25 259.65 243.65 263.55 244.2 268.15 242.2 269.3 240.15 270.5 235.0 266.25 232.7 270.35 229.3 268.5 225.8 266.7 226.55 262.45 223.9 263.05 222.6 260.95 221.3 258.85 222.5 256.5 220.6 256.3 219.5 254.3 218.4 252.2 219.4 250.45 219.95 249.45 222.5 249.2" fill="#ffd09b" fill-rule="evenodd" stroke="none"/>
    <path d="M220.35 255.45 Q219.7 253.5 224.65 253.5 223.1 254.65 222.45 256.55 L222.75 256.55 222.3 257.15 222.45 256.55 Q220.55 256.15 220.35 255.45" fill="#ffbb7e" fill-rule="evenodd" stroke="none"/>
    <path d="M228.4 264.95 Q228.75 267.5 230.6 268.65 228.6 268.7 227.35 266.85 226.1 265.05 226.5 263.15 L223.65 262.15 Q223.9 261.4 224.8 260.9 226.55 259.85 229.65 260.8 228.1 262.55 228.4 264.95" fill="#ffbb7e" fill-rule="evenodd" stroke="none"/>
    <path d="M241.8 269.2 L239.35 269.6 Q238.5 269.6 237.1 268.7 233.8 266.6 236.25 264.3 238.8 269.55 241.8 269.2" fill="#ffbb7e" fill-rule="evenodd" stroke="none"/>
    <path d="M245.1 229.65 Q266.0 204.7 277.65 208.35 295.2 213.85 273.6 237.4 262.4 249.6 243.5 263.9 239.0 259.75 231.15 248.45 229.9 246.65 236.5 239.0 L245.1 229.65" fill="#039d0a" fill-rule="evenodd" stroke="none"/>
    <path d="M281.55 221.95 Q279.05 226.75 277.65 228.45 L272.3 234.1 257.25 247.3 Q245.0 257.85 241.8 259.75 241.05 260.15 239.4 258.15 237.8 256.1 236.45 253.0 232.85 244.8 235.65 240.65 240.55 233.3 248.5 224.95 257.3 215.75 264.1 211.7 267.35 209.7 271.5 208.8 L279.0 208.6 Q284.6 210.6 281.55 221.95" fill="#16b114" fill-rule="evenodd" stroke="none"/>
  </g>
</svg>
