<?xml version="1.0" encoding="UTF-8" standalone="no"?>
<svg xmlns:ffdec="https://www.free-decompiler.com/flash" xmlns:xlink="http://www.w3.org/1999/xlink" ffdec:objectType="shape" height="82.1px" width="69.95px" xmlns="http://www.w3.org/2000/svg">
  <g transform="matrix(1.0, 0.0, 0.0, 1.0, -189.1, -158.75)">
    <path d="M208.95 162.4 Q215.3 158.65 219.45 158.75 228.15 158.95 237.45 164.9 242.2 167.95 244.5 172.95 246.7 177.9 245.8 183.2 244.35 191.2 242.0 195.6 241.2 197.05 238.7 198.1 235.1 199.55 234.6 199.85 L201.25 170.35 Q202.2 166.35 208.95 162.4" fill="#ffca9a" fill-rule="evenodd" stroke="none"/>
    <path d="M234.75 189.55 Q237.55 197.6 234.9 204.25 L232.0 212.5 Q230.85 214.6 227.05 216.75 223.35 218.9 221.0 218.9 214.85 218.95 209.5 213.7 198.2 202.8 203.5 185.25 205.75 177.75 212.9 175.0 220.25 172.1 226.35 177.2 232.1 181.95 234.75 189.55" fill="#ffca9a" fill-rule="evenodd" stroke="none"/>
    <path d="M221.5 222.7 L219.85 210.2 224.6 211.55 Q228.7 212.65 235.05 215.1 237.4 210.65 243.7 204.25 250.05 197.7 254.5 195.35 259.35 192.85 259.05 199.25 L257.25 209.6 Q256.45 215.8 253.15 221.5 249.3 228.3 244.05 229.75 239.5 231.0 232.8 228.05 L226.45 225.5 Q221.5 223.5 221.5 222.7" fill="#ffdcae" fill-rule="evenodd" stroke="none"/>
    <path d="M250.45 184.65 L252.4 193.5 Q253.75 198.75 253.0 204.35 252.1 211.05 248.35 213.95 245.1 216.4 238.8 216.25 L232.95 216.3 Q228.25 216.25 228.0 215.65 L222.6 206.15 226.85 205.7 236.4 205.1 Q236.85 200.75 239.8 193.65 242.75 186.25 245.6 182.95 248.65 179.35 250.45 184.65" fill="#ffd4ae" fill-rule="evenodd" stroke="none"/>
    <path d="M193.6 172.45 Q194.35 170.85 202.75 167.05 210.95 163.3 211.75 163.6 L218.85 188.5 Q211.1 191.4 214.2 202.75 215.15 206.25 217.1 210.25 L218.85 213.45 220.6 216.4 222.35 219.3 223.9 222.4 Q224.95 224.45 226.0 224.85 228.3 220.3 234.15 217.75 239.9 215.2 245.1 216.3 248.9 217.15 249.85 217.95 251.3 219.2 249.5 222.15 247.0 226.25 241.4 232.5 237.9 236.55 231.7 239.0 224.95 241.7 219.85 240.5 216.9 239.8 212.85 237.35 208.75 234.9 206.95 232.55 203.55 230.05 200.75 225.8 L195.85 217.9 Q190.95 210.4 189.45 193.95 188.6 184.95 189.9 180.4 L193.6 172.45" fill="#ffe3bd" fill-rule="evenodd" stroke="none"/>
  </g>
</svg>
