<?xml version="1.0" encoding="UTF-8" standalone="no"?>
<svg xmlns:ffdec="https://www.free-decompiler.com/flash" xmlns:xlink="http://www.w3.org/1999/xlink" ffdec:objectType="shape" height="64.2px" width="68.6px" xmlns="http://www.w3.org/2000/svg">
  <g transform="matrix(1.0, 0.0, 0.0, 1.0, -189.25, -161.25)">
    <path d="M241.7 212.2 Q238.95 213.85 237.3 211.15 236.55 209.9 235.7 206.9 234.9 203.9 234.0 202.5 231.5 198.5 223.65 194.0 L211.8 187.45 209.7 186.1 Q207.4 183.75 206.4 178.9 L189.25 181.7 Q193.8 167.7 204.05 163.15 209.2 160.75 213.45 161.35 228.4 164.65 233.1 173.0 234.55 175.55 234.85 178.3 L234.8 180.55 Q242.75 183.9 245.0 190.65 248.95 202.0 245.6 207.95 243.85 210.9 241.7 212.2" fill="#ffe3bd" fill-rule="evenodd" stroke="none"/>
    <path d="M246.8 225.45 L229.65 221.9 Q235.4 214.55 243.85 213.7 248.4 213.3 252.3 215.05 256.75 217.15 257.85 221.15 257.9 222.6 254.2 223.45 248.2 224.85 246.8 225.45" fill="#ffe3bd" fill-rule="evenodd" stroke="none"/>
  </g>
</svg>
