<?xml version="1.0" encoding="UTF-8" standalone="no"?>
<svg xmlns:ffdec="https://www.free-decompiler.com/flash" xmlns:xlink="http://www.w3.org/1999/xlink" ffdec:objectType="shape" height="442.05px" width="259.05px" xmlns="http://www.w3.org/2000/svg">
  <g transform="matrix(1.0, 0.0, 0.0, 1.0, -200.4, 71.35)">
    <path d="M294.05 202.85 L301.0 198.8 Q310.45 193.35 328.9 195.45 343.8 197.2 356.3 202.25 365.4 205.95 369.75 209.2 375.5 213.45 379.15 220.55 385.65 233.25 385.95 249.6 L386.05 266.15 Q386.4 271.55 385.6 273.05 384.55 275.15 379.9 276.25 L360.35 276.9 340.65 274.9 299.65 272.95 281.85 272.55 Q270.75 272.15 264.3 270.5 264.85 247.95 269.65 231.75 277.25 206.35 294.05 202.85" fill="#16b114" fill-rule="evenodd" stroke="none"/>
    <path d="M312.85 242.0 Q312.85 244.1 311.35 245.65 309.85 247.15 307.75 247.15 305.65 247.15 304.15 245.65 302.65 244.1 302.65 242.0 302.65 239.9 304.15 238.45 305.65 236.95 307.75 236.95 309.85 236.95 311.35 238.45 312.85 239.9 312.85 242.0" fill="#039d0a" fill-rule="evenodd" stroke="none"/>
    <path d="M312.85 256.5 Q312.85 258.6 311.35 260.1 309.85 261.6 307.75 261.6 305.65 261.6 304.15 260.1 302.65 258.6 302.65 256.5 302.65 254.4 304.15 252.9 305.65 251.4 307.75 251.4 309.85 251.4 311.35 252.9 312.85 254.4 312.85 256.5" fill="#039d0a" fill-rule="evenodd" stroke="none"/>
    <path d="M345.3 242.0 Q345.3 244.1 343.8 245.65 342.3 247.15 340.2 247.15 338.1 247.15 336.6 245.65 335.15 244.1 335.15 242.0 335.15 239.9 336.6 238.45 338.1 236.95 340.2 236.95 342.3 236.95 343.8 238.45 345.3 239.9 345.3 242.0" fill="#039d0a" fill-rule="evenodd" stroke="none"/>
    <path d="M345.3 256.5 Q345.3 258.6 343.8 260.1 342.3 261.6 340.2 261.6 338.1 261.6 336.6 260.1 335.15 258.6 335.15 256.5 335.15 254.4 336.6 252.9 338.1 251.4 340.2 251.4 342.3 251.4 343.8 252.9 345.3 254.4 345.3 256.5" fill="#039d0a" fill-rule="evenodd" stroke="none"/>
    <path d="M321.0 228.6 Q317.9 234.65 308.75 237.05 299.9 239.3 293.65 236.25 286.4 232.7 285.35 222.95 284.45 214.45 288.25 207.0 L360.85 205.7 Q369.15 204.1 377.5 220.3 383.3 231.75 384.45 241.55 L386.65 262.05 386.95 267.0 Q386.85 270.0 385.4 271.05 384.6 271.6 380.45 271.7 L375.45 271.45 Q375.35 269.65 375.75 265.5 376.2 261.6 375.95 259.35 L373.85 247.3 Q373.45 244.25 370.1 239.85 366.1 234.65 362.65 236.6 357.75 239.3 353.25 239.2 350.0 239.1 343.05 237.0 341.15 236.45 337.35 232.85 333.7 229.4 331.75 229.1 330.4 228.85 326.55 229.1 L321.0 228.6" fill="#039d0a" fill-rule="evenodd" stroke="none"/>
    <path d="M402.55 270.65 Q406.35 265.65 409.35 264.85 413.0 263.8 419.45 267.3 420.25 267.75 423.0 268.55 425.5 269.45 425.75 270.55 426.25 272.5 424.65 274.2 423.05 275.85 421.15 275.65 421.65 278.25 419.9 279.85 418.05 281.55 415.65 280.3 415.3 284.65 411.5 285.5 407.7 286.35 406.55 281.85 400.45 284.6 398.75 282.9 397.25 281.3 398.9 276.95 400.3 273.3 402.55 270.65" fill="#ffd09b" fill-rule="evenodd" stroke="none"/>
    <path d="M421.15 275.65 Q421.05 273.65 419.85 272.15 424.5 273.55 423.5 275.1 423.05 275.95 421.15 275.65 L421.15 276.3 420.9 275.6 421.15 275.65" fill="#ffbb7e" fill-rule="evenodd" stroke="none"/>
    <path d="M413.15 277.95 Q418.35 277.75 418.55 280.8 L415.65 281.05 Q415.45 283.0 413.8 284.4 412.1 285.8 410.15 285.2 412.25 284.65 413.2 282.3 414.15 280.0 413.15 277.95" fill="#ffbb7e" fill-rule="evenodd" stroke="none"/>
    <path d="M405.85 279.6 Q407.6 282.45 403.85 283.6 L401.5 283.9 Q400.45 283.35 399.35 282.95 402.1 283.95 405.85 279.6" fill="#ffbb7e" fill-rule="evenodd" stroke="none"/>
    <path d="M317.75 360.85 Q318.45 365.05 313.05 367.8 308.25 370.3 300.9 370.65 293.5 370.95 288.2 369.0 282.35 366.75 282.15 362.5 282.0 358.75 287.4 356.1 292.35 353.65 299.45 353.15 306.65 352.65 311.75 354.5 317.45 356.6 317.75 360.85" fill="#000104" fill-rule="evenodd" stroke="none"/>
    <path d="M304.85 352.65 Q304.9 350.85 303.95 340.9 303.3 333.65 304.55 329.45 L309.9 330.2 315.15 329.95 Q316.1 337.85 314.5 354.9 311.95 358.05 308.7 358.05 306.7 358.05 305.55 355.4 L304.85 352.65" fill="#ffd09b" fill-rule="evenodd" stroke="none"/>
    <path d="M335.85 360.85 Q336.2 356.6 341.9 354.5 346.95 352.65 354.15 353.15 361.3 353.65 366.2 356.1 371.65 358.75 371.45 362.5 371.3 366.75 365.45 369.0 360.1 370.95 352.75 370.65 345.35 370.3 340.55 367.8 335.2 365.05 335.85 360.85" fill="#000104" fill-rule="evenodd" stroke="none"/>
    <path d="M348.75 352.65 Q348.15 358.05 344.85 358.05 342.85 358.05 340.75 356.5 L339.05 354.9 Q337.5 337.85 338.45 329.95 342.1 331.1 349.05 329.45 350.35 333.65 349.65 340.9 348.7 351.0 348.75 352.65" fill="#ffd09b" fill-rule="evenodd" stroke="none"/>
    <path d="M291.55 295.55 L324.05 291.95 Q321.05 302.55 322.05 319.3 323.2 339.65 322.4 346.6 319.55 347.15 314.6 346.65 L306.75 346.05 290.35 346.75 Q289.4 337.45 290.55 321.15 291.85 302.8 291.55 295.55" fill="#634301" fill-rule="evenodd" stroke="none"/>
    <path d="M329.1 295.55 L361.55 291.95 Q358.5 302.55 359.5 319.3 360.75 339.75 359.95 346.6 357.1 347.15 352.15 346.65 L344.25 346.05 327.9 346.75 Q326.9 337.4 328.05 321.15 329.4 302.7 329.1 295.55" fill="#634301" fill-rule="evenodd" stroke="none"/>
    <path d="M321.65 220.75 Q318.65 227.0 312.25 231.25 305.4 235.85 298.9 234.95 289.85 233.75 286.05 227.1 282.6 221.0 284.25 211.85 287.35 194.55 303.95 198.8 310.15 200.45 316.05 207.0 322.5 214.25 321.65 220.75" fill="#f90203" fill-rule="evenodd" stroke="none"/>
    <path d="M303.5 199.5 Q305.65 200.3 308.65 200.9 314.3 203.25 320.2 212.7 322.45 216.35 320.05 222.4 317.8 227.8 313.9 231.05 310.2 234.15 304.85 235.1 L294.9 234.7 Q289.8 233.35 287.1 229.95 284.0 226.2 284.6 220.8 287.9 228.4 290.0 230.3 294.1 234.0 302.8 232.05 305.65 231.4 310.6 226.45 316.0 220.95 313.4 218.65 312.15 217.55 307.7 219.4 L302.1 222.15 Q306.55 216.2 312.95 214.15 309.95 211.6 304.9 209.0 L300.35 206.9 Q308.85 206.6 316.35 212.2 314.65 205.45 303.5 199.5" fill="#ca0002" fill-rule="evenodd" stroke="none"/>
    <path d="M330.65 220.75 Q329.7 214.25 336.2 207.0 342.1 200.45 348.3 198.8 364.9 194.55 368.0 211.85 369.65 221.05 366.2 227.1 362.45 233.75 353.3 234.95 346.85 235.85 340.0 231.25 333.6 227.0 330.65 220.75" fill="#f90203" fill-rule="evenodd" stroke="none"/>
    <path d="M349.55 199.05 Q337.6 205.25 335.95 212.2 343.3 206.6 351.9 206.9 344.05 210.1 339.3 214.15 345.7 216.15 350.1 222.15 346.85 220.4 344.55 219.4 340.15 217.55 338.9 218.65 336.25 220.95 341.65 226.45 346.6 231.4 349.45 232.05 358.15 234.0 362.3 230.3 364.45 228.35 367.65 220.8 368.8 231.65 357.4 234.7 L347.4 235.1 Q342.05 234.15 338.35 231.05 334.4 227.8 332.25 222.4 329.75 216.3 332.1 212.7 337.95 203.25 343.6 200.9 344.7 200.4 347.85 199.6 L349.55 199.05" fill="#ca0002" fill-rule="evenodd" stroke="none"/>
    <path d="M320.2 226.7 Q316.1 224.55 315.1 220.35 313.75 214.65 316.85 210.55 319.65 206.85 324.55 205.95 329.55 205.1 333.35 207.55 337.65 210.35 338.35 216.25 339.0 221.3 335.9 224.55 333.15 227.5 328.5 228.1 323.95 228.65 320.2 226.7" fill="#ca0002" fill-rule="evenodd" stroke="none"/>
    <path d="M319.55 224.45 Q316.0 222.6 315.1 218.95 313.9 214.0 316.6 210.45 319.05 207.25 323.35 206.45 327.7 205.65 331.05 207.8 334.8 210.25 335.4 215.35 336.0 219.75 333.3 222.6 330.85 225.15 326.85 225.65 322.85 226.15 319.55 224.45" fill="#f90203" fill-rule="evenodd" stroke="none"/>
    <path d="M209.7 72.8 Q216.4 67.5 224.5 66.0 232.95 64.45 238.2 68.1 244.25 72.25 243.85 82.05 L237.9 103.35 Q232.5 111.0 225.05 113.1 218.2 114.95 211.85 111.8 205.5 108.65 202.5 101.9 199.15 94.55 201.1 85.6 202.65 78.45 209.7 72.8" fill="#ffe3bd" fill-rule="evenodd" stroke="none"/>
    <path d="M216.85 78.4 Q221.0 75.15 226.0 74.2 231.2 73.25 234.45 75.55 238.15 78.1 237.9 84.1 L234.25 97.25 Q230.95 101.95 226.3 103.3 222.05 104.45 218.15 102.5 214.25 100.55 212.4 96.4 210.35 91.85 211.55 86.3 212.5 81.9 216.85 78.4" fill="#ff9a60" fill-rule="evenodd" stroke="none"/>
    <path d="M361.4 9.1 Q373.75 11.95 381.7 16.1 401.35 20.55 411.6 37.15 414.85 42.45 419.95 53.75 425.75 66.65 429.1 72.65 438.0 88.9 439.3 108.8 440.5 127.35 435.05 146.6 424.5 183.95 385.05 199.8 351.75 213.15 310.35 207.8 271.85 202.8 246.75 179.3 218.95 153.3 221.85 115.8 224.55 81.25 252.75 50.55 279.6 21.25 315.4 10.2 336.85 3.5 361.4 9.1" fill="#ffca9a" fill-rule="evenodd" stroke="none"/>
    <path d="M397.35 38.3 Q400.3 43.65 404.95 54.9 410.35 67.8 413.35 73.8 421.55 90.05 422.7 110.05 423.8 128.55 418.85 147.8 409.25 184.85 372.95 198.95 343.5 210.45 304.35 204.9 268.4 199.9 245.9 178.45 220.35 154.1 223.05 116.95 225.5 82.4 251.4 51.7 276.1 22.45 308.9 11.35 328.6 4.7 351.15 10.35 362.45 13.1 369.8 17.25 387.85 21.75 397.35 38.3" fill="#ffe3bd" fill-rule="evenodd" stroke="none"/>
    <path d="M312.15 73.15 Q312.15 76.3 309.95 76.3 307.75 76.3 307.75 73.15 307.75 70.05 309.95 70.05 312.15 70.05 312.15 73.15" fill="#2d0a18" fill-rule="evenodd" stroke="none"/>
    <path d="M383.4 75.95 Q375.45 75.5 367.55 79.6 359.8 83.65 355.2 90.55 350.3 98.0 350.8 106.1 351.35 114.15 357.2 120.95 362.9 127.45 371.0 129.9 372.35 130.25 377.8 129.8 382.65 129.35 383.95 130.4 385.45 131.55 387.35 142.55 389.35 154.6 389.95 155.75 L376.95 136.8 352.05 127.35 Q348.25 125.9 344.5 120.45 340.45 114.45 339.5 107.55 336.95 88.95 357.95 78.85 377.95 69.25 390.1 74.8 396.2 77.65 398.2 82.4 392.1 76.45 383.4 75.95" fill="#ffca9a" fill-rule="evenodd" stroke="none"/>
    <path d="M259.6 74.8 Q271.75 69.25 291.75 78.85 312.75 88.95 310.2 107.55 309.25 114.45 305.2 120.45 301.5 125.9 297.65 127.35 L272.75 136.8 259.75 155.75 Q260.3 154.6 262.35 142.55 264.25 131.55 265.75 130.4 267.05 129.35 271.85 129.8 277.35 130.25 278.7 129.9 286.8 127.45 292.5 120.95 298.35 114.15 298.9 106.1 299.45 98.0 294.55 90.55 289.95 83.65 282.15 79.6 274.3 75.5 266.3 75.95 257.6 76.45 251.45 82.4 L253.25 79.7 Q255.85 76.6 259.6 74.8" fill="#ffca9a" fill-rule="evenodd" stroke="none"/>
    <path d="M320.1 130.65 Q306.7 128.95 298.95 123.4 289.35 116.5 290.05 104.75 290.75 93.9 303.85 86.0 316.15 78.5 327.8 79.85 337.55 81.75 348.0 93.6 358.85 105.95 356.25 114.4 353.2 124.45 341.4 128.65 331.6 132.15 320.1 130.65" fill="#ff791e" fill-rule="evenodd" stroke="none"/>
    <path d="M318.65 126.3 Q304.3 123.9 299.7 121.75 289.55 116.95 290.1 105.8 290.6 95.1 303.45 86.55 315.35 78.45 324.5 79.85 332.5 81.85 341.1 91.95 350.45 102.85 348.55 111.1 346.25 121.05 336.0 124.85 328.0 127.8 318.65 126.3" fill="#ff9a00" fill-rule="evenodd" stroke="none"/>
    <path d="M457.4 118.95 Q454.35 125.75 448.05 128.9 441.7 132.05 434.85 130.15 427.35 128.05 421.95 120.45 L416.05 99.1 Q415.65 89.35 421.65 85.2 426.9 81.55 435.4 83.1 443.45 84.6 450.15 89.9 457.2 95.55 458.75 102.7 460.7 111.65 457.4 118.95" fill="#ffe3bd" fill-rule="evenodd" stroke="none"/>
    <path d="M448.3 103.4 Q449.55 108.95 447.5 113.45 445.6 117.6 441.7 119.6 437.75 121.55 433.55 120.4 428.95 119.05 425.6 114.35 L421.95 101.2 Q421.7 95.15 425.45 92.55 428.7 90.35 433.9 91.3 438.85 92.25 443.0 95.5 447.4 99.0 448.3 103.4" fill="#ff9a60" fill-rule="evenodd" stroke="none"/>
    <path d="M365.4 47.9 Q366.85 50.55 357.85 55.8 348.9 61.05 344.3 60.55 342.5 57.45 344.8 54.15 346.85 51.25 351.3 49.0 355.55 46.9 359.6 46.45 363.85 46.0 365.4 47.9" fill="#2d0a18" fill-rule="evenodd" stroke="none"/>
    <path d="M345.7 77.2 Q345.7 74.1 347.85 74.1 350.05 74.1 350.05 77.2 350.05 80.35 347.85 80.35 345.7 80.35 345.7 77.2" fill="#2d0a18" fill-rule="evenodd" stroke="none"/>
    <path d="M304.15 46.25 Q305.7 44.4 309.95 44.85 314.0 45.25 318.25 47.4 322.65 49.65 324.7 52.5 327.05 55.85 325.2 58.95 320.6 59.5 311.65 54.25 302.65 48.9 304.15 46.25" fill="#2d0a18" fill-rule="evenodd" stroke="none"/>
    <path d="M365.75 29.75 Q351.55 32.6 344.25 43.15 341.8 40.15 338.9 40.75 336.4 41.3 332.0 44.9 330.7 31.95 332.85 15.5 321.2 13.7 304.1 20.55 289.5 26.3 278.3 34.95 270.05 41.3 259.9 59.65 254.75 68.95 252.0 72.95 247.3 79.85 242.25 83.75 238.8 77.8 237.9 74.3 236.65 69.25 238.4 63.4 242.4 50.6 253.65 38.7 264.8 26.85 280.9 18.35 317.0 -0.85 357.95 4.25 393.5 8.7 414.2 47.15 424.55 66.4 427.8 84.75 L421.9 88.3 Q421.85 86.15 419.4 79.85 412.7 82.2 410.45 85.25 410.15 71.2 406.25 57.95 401.25 41.25 392.35 34.95 380.75 26.75 365.75 29.75" fill="#ffca9a" fill-rule="evenodd" stroke="none"/>
    <path d="M327.2 23.35 Q328.0 12.2 339.05 9.0 L372.2 18.45 Q364.5 20.95 356.55 27.3 L342.5 38.45 340.2 35.3 Q338.55 33.25 338.65 30.8 331.85 33.1 331.35 42.65 326.6 31.4 327.2 23.35" fill="#5d0304" fill-rule="evenodd" stroke="none"/>
    <path d="M376.45 21.7 L384.9 10.35 Q395.95 12.65 407.35 25.1 412.45 30.7 424.1 47.3 431.25 57.5 433.1 68.9 435.7 84.25 422.5 85.55 L421.3 77.1 Q420.3 72.55 418.05 70.0 417.4 71.45 415.25 74.2 413.2 76.9 412.55 78.3 414.35 60.9 403.7 43.85 392.85 26.6 376.45 21.7" fill="#5d0304" fill-rule="evenodd" stroke="none"/>
    <path d="M334.3 1.2 L347.35 9.0 Q339.85 8.15 314.75 14.1 289.2 20.25 283.3 24.75 272.95 32.85 270.15 35.45 262.85 42.3 257.6 51.55 L250.7 66.1 Q245.85 75.7 241.45 77.4 242.3 76.05 242.8 73.0 243.35 69.55 243.8 68.5 L239.45 68.2 235.15 67.8 Q238.95 52.6 251.65 36.05 264.45 19.35 277.95 12.4 291.25 5.55 305.4 1.95 323.75 -2.7 334.3 1.2" fill="#5d0304" fill-rule="evenodd" stroke="none"/>
    <path d="M336.0 -39.65 Q327.05 -44.95 328.05 -53.95 328.95 -62.1 336.55 -67.45 344.55 -73.05 352.95 -70.0 362.85 -66.45 368.55 -51.6 371.4 -56.3 376.8 -59.55 382.15 -62.7 387.95 -63.4 394.05 -64.15 398.65 -61.75 403.8 -59.15 405.9 -53.25 409.5 -43.2 403.95 -34.65 398.35 -25.95 387.45 -26.3 387.45 -19.55 386.7 -5.85 385.9 10.0 384.95 13.7 382.85 22.1 371.7 25.1 363.45 27.25 351.6 26.25 338.45 25.1 328.65 18.6 317.2 11.0 321.9 1.65 332.7 -19.75 336.0 -39.65" fill="#f90203" fill-rule="evenodd" stroke="none"/>
    <path d="M394.65 86.85 Q406.45 89.0 410.9 97.2 412.7 100.6 412.5 103.95 412.2 107.2 410.0 109.25 405.95 113.0 395.7 113.3 387.35 113.5 380.6 111.75 374.3 110.05 372.55 105.6 371.05 101.65 373.75 96.95 376.4 92.3 381.8 89.4 387.7 86.3 394.65 86.85" fill="#fca48c" fill-rule="evenodd" stroke="none"/>
    <path d="M256.15 85.7 Q268.0 87.85 272.45 96.05 274.25 99.4 274.0 102.75 273.75 106.0 271.55 108.05 267.5 111.8 257.2 112.1 248.85 112.3 242.05 110.55 235.75 108.85 234.1 104.45 232.55 100.45 235.2 95.75 237.9 91.15 243.35 88.25 249.25 85.15 256.15 85.7" fill="#fca48c" fill-rule="evenodd" stroke="none"/>
    <path d="M262.3 296.4 Q262.2 284.45 262.35 281.55 262.8 273.6 265.05 267.15 L272.8 268.1 Q278.2 268.75 281.9 268.3 L305.4 267.5 328.95 267.2 Q343.55 267.0 352.4 267.5 L363.75 268.8 375.15 270.0 Q383.8 270.45 385.55 271.25 386.9 271.9 386.65 274.8 L385.85 280.8 Q385.1 287.3 385.45 300.7 385.85 313.95 385.05 320.55 364.2 320.45 324.65 321.35 283.45 322.3 264.25 322.3 262.35 318.15 262.2 309.7 L262.3 296.4 M264.25 322.3 L264.3 322.35 264.2 322.3 264.25 322.3" fill="#ebebeb" fill-rule="evenodd" stroke="none"/>
    <path d="M265.4 295.1 Q265.3 284.15 265.45 281.15 265.85 273.65 267.9 267.5 L274.85 268.45 Q279.65 269.0 282.95 268.6 L304.0 267.85 325.05 267.55 Q338.25 267.4 346.0 267.85 L356.2 269.05 366.35 270.2 Q374.1 270.7 375.65 271.45 376.9 272.0 376.65 274.75 L375.95 280.4 Q375.25 286.6 375.6 299.15 375.95 311.75 375.2 317.9 356.6 317.8 321.2 318.65 284.35 319.6 267.25 319.6 265.45 315.75 265.3 307.7 L265.4 295.1 M267.25 319.6 L267.25 319.65 267.1 319.6 267.25 319.6" fill="#ffffff" fill-rule="evenodd" stroke="none"/>
    <path d="M310.7 290.75 Q313.4 291.35 320.35 289.6 326.75 287.95 330.0 289.5 328.0 292.1 324.0 294.4 319.2 296.8 316.95 297.95 322.6 299.0 334.25 296.3 348.0 293.15 351.95 293.05 338.85 299.35 324.0 303.8 306.65 309.0 294.9 308.95 L305.45 301.7 Q311.95 297.25 315.1 293.55 311.85 294.6 294.9 298.25 282.45 300.95 275.25 304.95 278.6 300.75 290.25 295.7 305.0 289.4 307.0 288.15 314.75 283.35 331.25 276.9 L332.8 277.7 Q325.3 279.85 310.7 290.75" fill="#ebebeb" fill-rule="evenodd" stroke="none"/>
    <path d="M406.25 243.8 L412.15 255.15 Q416.6 264.2 414.9 265.6 404.55 274.35 398.95 277.35 384.4 258.65 376.7 243.95 362.0 215.65 380.35 214.85 392.55 214.3 406.25 243.8" fill="#039d0a" fill-rule="evenodd" stroke="none"/>
    <path d="M370.35 229.7 Q370.35 217.9 376.25 217.45 379.3 217.25 383.5 219.5 387.25 221.55 389.85 224.25 395.4 229.95 401.55 241.15 407.05 251.3 409.85 259.65 411.45 264.35 405.9 271.35 403.8 273.95 401.65 275.55 399.55 277.1 398.95 276.45 396.35 273.8 387.2 260.45 379.3 248.9 376.15 243.75 373.1 238.7 372.4 237.0 371.5 234.95 370.35 229.7" fill="#16b114" fill-rule="evenodd" stroke="none"/>
    <path d="M343.9 -69.5 Q350.15 -74.15 358.8 -67.0 365.5 -61.45 369.4 -53.6 370.95 -55.55 376.95 -58.8 383.0 -62.05 385.35 -61.85 380.15 -60.55 372.25 -52.75 365.65 -46.2 362.1 -40.65 362.35 -50.55 358.35 -58.2 353.5 -67.6 343.9 -69.5" fill="#ca0002" fill-rule="evenodd" stroke="none"/>
    <path d="M387.85 -26.25 Q389.45 -22.55 387.85 -6.5 L385.8 13.5 Q385.8 15.75 383.0 18.9 379.5 22.95 373.85 24.0 376.5 21.7 378.9 15.25 381.65 8.25 382.0 1.05 383.05 -18.3 367.4 -23.2 L378.05 -22.85 Q382.25 -23.55 387.85 -26.25" fill="#ca0002" fill-rule="evenodd" stroke="none"/>
    <path d="M333.4 -1.95 Q334.05 -1.8 334.2 -1.25 L334.25 -0.4 334.1 1.6 Q334.05 2.95 333.8 3.45 L332.9 3.55 332.1 3.05 332.35 0.45 332.3 0.0 332.05 -0.15 328.9 -0.4 Q328.45 -0.85 328.55 -1.45 328.65 -2.15 329.05 -2.4 L333.4 -1.95 M330.65 1.45 L330.6 4.7 333.25 5.4 333.2 6.55 332.65 7.15 331.3 6.85 330.1 6.65 328.2 6.3 326.05 6.2 Q325.75 5.85 325.8 5.35 L326.0 4.5 327.3 4.35 328.7 4.4 328.7 2.75 Q328.7 1.7 328.85 1.25 328.95 0.9 329.75 1.0 330.65 1.15 330.65 1.45" fill="#ffffff" fill-rule="evenodd" stroke="none"/>
    <path d="M343.25 1.5 L343.2 2.45 Q343.0 2.95 342.2 2.95 L341.65 2.6 341.15 2.0 340.75 0.8 340.6 -0.1 341.0 -0.75 341.7 -1.05 Q342.1 -1.0 342.5 -0.1 L342.95 0.95 343.25 1.5 M344.4 5.0 Q344.55 5.9 343.8 5.9 L342.8 5.9 341.8 5.8 340.65 5.55 339.4 5.3 336.8 5.05 Q336.2 4.7 336.25 3.85 336.35 3.0 337.3 3.15 L344.0 3.95 Q344.4 4.05 344.4 5.0 M337.45 7.35 Q338.55 6.15 339.9 6.15 340.9 6.15 341.4 6.75 L341.9 8.2 Q341.9 9.6 340.65 10.8 339.5 12.05 338.3 12.05 337.05 12.05 336.75 11.25 336.4 10.35 336.4 9.9 336.4 8.55 337.45 7.35 M338.85 9.85 L339.5 9.35 339.85 8.7 339.85 8.25 Q339.65 8.05 339.4 8.25 L338.8 8.65 338.4 9.2 338.4 9.75 Q338.45 10.0 338.85 9.85 M343.25 12.5 Q344.55 11.45 345.7 11.6 346.65 11.7 347.2 12.6 347.75 13.45 347.55 14.2 347.4 15.0 346.15 16.35 344.9 17.7 343.75 17.6 342.45 17.55 342.15 16.55 L341.95 15.0 Q342.1 13.6 343.25 12.5 M344.3 15.3 L345.1 14.75 345.45 14.15 345.45 13.65 345.05 13.7 Q344.55 13.9 344.4 14.1 L344.05 14.65 343.9 15.2 Q343.9 15.55 344.3 15.3 M350.25 3.5 Q350.95 3.95 350.65 4.55 L350.3 5.4 349.6 5.3 348.5 5.2 348.35 5.7 348.35 6.35 350.1 6.7 Q350.6 7.2 350.55 7.75 350.5 8.35 349.95 8.7 L348.9 8.45 348.15 8.4 347.95 9.05 347.9 9.7 Q347.65 10.3 346.75 9.95 345.85 9.75 345.9 9.3 L346.95 1.55 Q347.3 1.2 348.05 1.25 348.8 1.4 349.05 1.9 348.75 3.05 348.9 3.15 L349.5 3.35 350.25 3.5" fill="#ffffff" fill-rule="evenodd" stroke="none"/>
    <path d="M365.2 4.6 L365.15 5.4 364.9 6.65 364.9 6.9 365.95 7.15 Q366.75 7.3 367.15 7.7 L367.1 8.5 366.6 9.35 364.6 9.0 364.1 11.5 363.05 11.4 Q362.7 11.35 362.35 10.95 L362.35 10.3 362.45 9.8 363.15 4.55 Q363.65 4.25 364.25 4.3 L365.2 4.6 M359.05 4.85 L359.3 5.85 358.75 9.0 358.3 9.95 357.25 10.25 354.15 10.05 Q353.45 10.05 352.95 9.7 352.6 9.35 352.65 8.55 L352.95 6.75 353.0 4.85 Q353.4 4.2 353.7 4.2 L354.6 4.1 358.2 4.3 Q358.9 4.4 359.05 4.85 M356.85 8.15 L356.9 7.95 357.1 7.15 357.15 6.25 356.25 6.2 355.0 6.15 354.65 8.05 355.7 8.15 356.7 8.2 356.85 8.15 M357.65 11.55 Q358.25 11.7 358.4 12.15 L357.95 15.1 358.0 15.3 358.2 15.35 359.85 15.55 361.55 15.85 Q361.75 16.3 361.6 16.9 361.5 17.55 361.1 17.7 L358.2 17.4 356.85 17.25 356.15 16.85 Q355.85 16.6 355.85 16.1 L356.1 13.5 Q356.15 12.5 356.6 11.55 357.05 11.4 357.65 11.55" fill="#ffffff" fill-rule="evenodd" stroke="none"/>
    <path d="M376.65 4.35 L372.35 3.85 371.95 6.55 377.05 7.3 Q377.4 8.25 377.0 8.8 376.65 9.35 376.2 9.35 L371.8 8.7 Q370.65 8.65 370.2 8.25 369.85 7.9 369.9 6.9 L370.15 4.9 370.3 3.2 Q370.3 2.45 370.55 2.1 370.85 1.65 371.7 1.75 L374.3 2.05 377.2 2.45 Q377.55 2.6 377.45 3.55 377.25 4.4 376.65 4.35 M369.65 10.95 L376.7 11.8 Q377.05 12.1 376.8 13.0 L376.65 13.8 376.25 13.8 374.35 13.55 374.05 16.35 Q374.05 16.7 373.05 16.7 372.2 16.8 372.05 16.2 L372.25 14.55 372.3 13.25 369.35 13.0 Q368.75 12.9 368.9 11.9 369.1 10.9 369.65 10.95" fill="#ffffff" fill-rule="evenodd" stroke="none"/>
    <path d="M293.05 237.7 L296.15 232.05 Q296.6 235.5 293.95 244.6 290.65 255.8 290.25 258.3 288.25 272.35 286.0 278.4 L279.9 278.25 286.2 257.95 Q290.05 245.65 293.05 237.7" fill="#039d0a" fill-rule="evenodd" stroke="none"/>
    <path d="M222.5 249.2 L226.3 248.9 Q233.45 247.2 236.7 249.15 239.4 250.65 241.8 256.5 243.25 259.65 243.65 263.55 244.2 268.15 242.2 269.3 240.15 270.5 235.0 266.25 232.7 270.35 229.3 268.5 225.8 266.7 226.55 262.45 223.9 263.05 222.6 260.95 221.3 258.85 222.5 256.5 220.6 256.3 219.5 254.3 218.4 252.2 219.4 250.45 219.95 249.45 222.5 249.2" fill="#ffd09b" fill-rule="evenodd" stroke="none"/>
    <path d="M220.35 255.45 Q219.7 253.5 224.65 253.5 223.1 254.65 222.45 256.55 L222.75 256.55 222.3 257.15 222.45 256.55 Q220.55 256.15 220.35 255.45" fill="#ffbb7e" fill-rule="evenodd" stroke="none"/>
    <path d="M228.4 264.95 Q228.75 267.5 230.6 268.65 228.6 268.7 227.35 266.85 226.1 265.05 226.5 263.15 L223.65 262.15 Q223.9 261.4 224.8 260.9 226.55 259.85 229.65 260.8 228.1 262.55 228.4 264.95" fill="#ffbb7e" fill-rule="evenodd" stroke="none"/>
    <path d="M241.8 269.2 L239.35 269.6 Q238.5 269.6 237.1 268.7 233.8 266.6 236.25 264.3 238.8 269.55 241.8 269.2" fill="#ffbb7e" fill-rule="evenodd" stroke="none"/>
    <path d="M245.1 229.65 Q266.0 204.7 277.65 208.35 295.2 213.85 273.6 237.4 262.4 249.6 243.5 263.9 239.0 259.75 231.15 248.45 229.9 246.65 236.5 239.0 L245.1 229.65" fill="#039d0a" fill-rule="evenodd" stroke="none"/>
    <path d="M281.55 221.95 Q279.05 226.75 277.65 228.45 L272.3 234.1 257.25 247.3 Q245.0 257.85 241.8 259.75 241.05 260.15 239.4 258.15 237.8 256.1 236.45 253.0 232.85 244.8 235.65 240.65 240.55 233.3 248.5 224.95 257.3 215.75 264.1 211.7 267.35 209.7 271.5 208.8 L279.0 208.6 Q284.6 210.6 281.55 221.95" fill="#16b114" fill-rule="evenodd" stroke="none"/>
  </g>
</svg>
