<?xml version="1.0" encoding="UTF-8" standalone="no"?>
<svg xmlns:ffdec="https://www.free-decompiler.com/flash" xmlns:xlink="http://www.w3.org/1999/xlink" ffdec:objectType="shape" height="175.85px" width="206.95px" xmlns="http://www.w3.org/2000/svg">
  <g transform="matrix(1.0, 0.0, 0.0, 1.0, 111.0, -45.2)">
    <path d="M-35.85 53.2 L-28.9 49.15 Q-19.45 43.7 -1.0 45.8 13.9 47.55 26.4 52.6 35.5 56.3 39.85 59.55 45.6 63.8 49.25 70.9 55.75 83.6 56.05 99.95 L56.15 116.5 Q56.5 121.9 55.7 123.4 54.65 125.5 50.0 126.6 L30.45 127.25 10.75 125.25 -30.25 123.3 -48.05 122.9 Q-59.15 122.5 -65.6 120.85 -65.05 98.3 -60.25 82.1 -52.65 56.7 -35.85 53.2" fill="#16b114" fill-rule="evenodd" stroke="none"/>
    <path d="M-17.05 92.35 Q-17.05 94.45 -18.55 96.0 -20.05 97.5 -22.15 97.5 -24.25 97.5 -25.75 96.0 -27.25 94.45 -27.25 92.35 -27.25 90.25 -25.75 88.8 -24.25 87.3 -22.15 87.3 -20.05 87.3 -18.55 88.8 -17.05 90.25 -17.05 92.35" fill="#039d0a" fill-rule="evenodd" stroke="none"/>
    <path d="M-17.05 106.85 Q-17.05 108.95 -18.55 110.45 -20.05 111.95 -22.15 111.95 -24.25 111.95 -25.75 110.45 -27.25 108.95 -27.25 106.85 -27.25 104.75 -25.75 103.25 -24.25 101.75 -22.15 101.75 -20.05 101.75 -18.55 103.25 -17.05 104.75 -17.05 106.85" fill="#039d0a" fill-rule="evenodd" stroke="none"/>
    <path d="M15.4 92.35 Q15.4 94.45 13.9 96.0 12.4 97.5 10.3 97.5 8.2 97.5 6.7 96.0 5.25 94.45 5.25 92.35 5.25 90.25 6.7 88.8 8.2 87.3 10.3 87.3 12.4 87.3 13.9 88.8 15.4 90.25 15.4 92.35" fill="#039d0a" fill-rule="evenodd" stroke="none"/>
    <path d="M15.4 106.85 Q15.4 108.95 13.9 110.45 12.4 111.95 10.3 111.95 8.2 111.95 6.7 110.45 5.25 108.95 5.25 106.85 5.25 104.75 6.7 103.25 8.2 101.75 10.3 101.75 12.4 101.75 13.9 103.25 15.4 104.75 15.4 106.85" fill="#039d0a" fill-rule="evenodd" stroke="none"/>
    <path d="M-8.9 78.95 Q-12.0 85.0 -21.15 87.4 -30.0 89.65 -36.25 86.6 -43.5 83.05 -44.55 73.3 -45.45 64.8 -41.65 57.35 L30.95 56.05 Q39.25 54.45 47.6 70.65 53.4 82.1 54.55 91.9 L56.75 112.4 57.05 117.35 Q56.95 120.35 55.5 121.4 L50.55 122.05 45.55 121.8 Q45.45 120.0 45.85 115.85 46.3 111.95 46.05 109.7 L43.95 97.65 Q43.55 94.6 40.2 90.2 36.2 85.0 32.75 86.95 27.85 89.65 23.35 89.55 20.1 89.45 13.15 87.35 11.25 86.8 7.45 83.2 3.8 79.75 1.85 79.45 0.5 79.2 -3.35 79.45 L-8.9 78.95" fill="#039d0a" fill-rule="evenodd" stroke="none"/>
    <path d="M72.65 121.0 Q76.45 116.0 79.45 115.2 83.1 114.15 89.55 117.65 L93.1 118.9 Q95.6 119.8 95.85 120.9 96.35 122.85 94.75 124.55 93.15 126.2 91.25 126.0 91.75 128.6 90.0 130.2 88.15 131.9 85.75 130.65 85.4 135.0 81.6 135.85 77.8 136.7 76.65 132.2 70.55 134.95 68.85 133.25 67.35 131.65 69.0 127.3 70.4 123.65 72.65 121.0" fill="#ffd09b" fill-rule="evenodd" stroke="none"/>
    <path d="M91.0 125.95 L91.25 126.0 Q91.15 124.0 89.95 122.5 94.6 123.9 93.6 125.45 93.15 126.3 91.25 126.0 L91.25 126.65 91.0 125.95" fill="#ffbb7e" fill-rule="evenodd" stroke="none"/>
    <path d="M83.25 128.3 Q88.45 128.1 88.65 131.15 L85.75 131.4 Q85.55 133.35 83.9 134.75 82.2 136.15 80.25 135.55 82.35 135.0 83.3 132.65 84.25 130.35 83.25 128.3" fill="#ffbb7e" fill-rule="evenodd" stroke="none"/>
    <path d="M75.95 129.95 Q77.7 132.8 73.95 133.95 L71.6 134.25 69.45 133.3 Q72.2 134.3 75.95 129.95" fill="#ffbb7e" fill-rule="evenodd" stroke="none"/>
    <path d="M-12.15 211.2 Q-11.45 215.4 -16.85 218.15 -21.65 220.65 -29.0 221.0 -36.4 221.3 -41.7 219.35 -47.55 217.1 -47.75 212.85 -47.9 209.1 -42.5 206.45 -37.55 204.0 -30.45 203.5 -23.25 203.0 -18.15 204.85 -12.45 206.95 -12.15 211.2" fill="#000104" fill-rule="evenodd" stroke="none"/>
    <path d="M-25.05 203.0 Q-25.0 201.2 -25.95 191.25 -26.6 184.0 -25.35 179.8 L-20.0 180.55 -14.75 180.3 Q-13.8 188.2 -15.4 205.25 -17.95 208.4 -21.2 208.4 -23.2 208.4 -24.35 205.75 L-25.05 203.0" fill="#ffd09b" fill-rule="evenodd" stroke="none"/>
    <path d="M5.95 211.2 Q6.3 206.95 12.0 204.85 17.05 203.0 24.25 203.5 31.4 204.0 36.3 206.45 41.75 209.1 41.55 212.85 41.4 217.1 35.55 219.35 30.2 221.3 22.85 221.0 15.45 220.65 10.65 218.15 5.3 215.4 5.95 211.2" fill="#000104" fill-rule="evenodd" stroke="none"/>
    <path d="M18.85 203.0 Q18.25 208.4 14.95 208.4 12.95 208.4 10.85 206.85 L9.15 205.25 Q7.6 188.2 8.55 180.3 12.2 181.45 19.15 179.8 20.45 184.0 19.75 191.25 18.8 201.35 18.85 203.0" fill="#ffd09b" fill-rule="evenodd" stroke="none"/>
    <path d="M-38.35 145.9 L-5.85 142.3 Q-8.85 152.9 -7.85 169.65 -6.7 190.0 -7.5 196.95 -10.35 197.5 -15.3 197.0 L-23.15 196.4 -39.55 197.1 Q-40.5 187.8 -39.35 171.5 -38.05 153.15 -38.35 145.9" fill="#634301" fill-rule="evenodd" stroke="none"/>
    <path d="M-0.8 145.9 L31.65 142.3 Q28.6 152.9 29.6 169.65 30.85 190.1 30.05 196.95 27.2 197.5 22.25 197.0 L14.35 196.4 -2.0 197.1 Q-3.0 187.75 -1.85 171.5 -0.5 153.05 -0.8 145.9" fill="#634301" fill-rule="evenodd" stroke="none"/>
    <path d="M-8.25 71.1 Q-11.25 77.35 -17.65 81.6 -24.5 86.2 -31.0 85.3 -40.05 84.1 -43.85 77.45 -47.3 71.35 -45.65 62.2 -42.55 44.9 -25.95 49.15 -19.75 50.8 -13.85 57.35 -7.4 64.6 -8.25 71.1" fill="#f90203" fill-rule="evenodd" stroke="none"/>
    <path d="M-26.4 49.85 L-21.25 51.25 Q-15.6 53.6 -9.7 63.05 -7.45 66.7 -9.85 72.75 -12.1 78.15 -16.0 81.4 -19.7 84.5 -25.05 85.45 L-35.0 85.05 Q-40.1 83.7 -42.8 80.3 -45.9 76.55 -45.3 71.15 -42.0 78.75 -39.9 80.65 -35.8 84.35 -27.1 82.4 -24.25 81.75 -19.3 76.8 -13.9 71.3 -16.5 69.0 -17.75 67.9 -22.2 69.75 L-27.8 72.5 Q-23.35 66.55 -16.95 64.5 -19.95 61.95 -25.0 59.35 L-29.55 57.25 Q-21.05 56.95 -13.55 62.55 -15.25 55.8 -26.4 49.85" fill="#ca0002" fill-rule="evenodd" stroke="none"/>
    <path d="M0.75 71.1 Q-0.2 64.6 6.3 57.35 12.2 50.8 18.4 49.15 35.0 44.9 38.1 62.2 39.75 71.4 36.3 77.45 32.55 84.1 23.4 85.3 16.95 86.2 10.1 81.6 3.7 77.35 0.75 71.1" fill="#f90203" fill-rule="evenodd" stroke="none"/>
    <path d="M19.65 49.4 Q7.7 55.6 6.05 62.55 13.4 56.95 22.0 57.25 14.15 60.45 9.4 64.5 15.8 66.5 20.2 72.5 16.95 70.75 14.65 69.75 10.25 67.9 9.0 69.0 6.35 71.3 11.75 76.8 16.7 81.75 19.55 82.4 28.25 84.35 32.4 80.65 34.55 78.7 37.75 71.15 38.9 82.0 27.5 85.05 L17.5 85.45 Q12.15 84.5 8.45 81.4 4.5 78.15 2.35 72.75 -0.15 66.65 2.2 63.05 8.05 53.6 13.7 51.25 14.8 50.75 17.95 49.95 L19.65 49.4" fill="#ca0002" fill-rule="evenodd" stroke="none"/>
    <path d="M-9.7 77.05 Q-13.8 74.9 -14.8 70.7 -16.15 65.0 -13.05 60.9 -10.25 57.2 -5.35 56.3 -0.35 55.45 3.45 57.9 7.75 60.7 8.45 66.6 9.1 71.65 6.0 74.9 3.25 77.85 -1.4 78.45 -5.95 79.0 -9.7 77.05" fill="#ca0002" fill-rule="evenodd" stroke="none"/>
    <path d="M-10.35 74.8 Q-13.9 72.95 -14.8 69.3 -16.0 64.35 -13.3 60.8 -10.85 57.6 -6.55 56.8 -2.2 56.0 1.15 58.15 4.9 60.6 5.5 65.7 6.1 70.1 3.4 72.95 0.95 75.5 -3.05 76.0 -7.05 76.5 -10.35 74.8" fill="#f90203" fill-rule="evenodd" stroke="none"/>
    <path d="M-64.85 117.5 L-57.1 118.45 Q-51.7 119.1 -48.0 118.65 L-24.5 117.85 -0.95 117.55 Q13.65 117.35 22.5 117.85 L33.85 119.15 45.25 120.35 Q53.9 120.8 55.65 121.6 57.0 122.25 56.75 125.15 L55.95 131.15 Q55.2 137.65 55.55 151.05 55.95 164.3 55.15 170.9 34.3 170.8 -5.25 171.7 -46.45 172.65 -65.65 172.65 -67.55 168.5 -67.7 160.05 L-67.6 146.75 -67.55 131.9 Q-67.1 123.95 -64.85 117.5 M-65.65 172.65 L-65.6 172.7 -65.7 172.65 -65.65 172.65" fill="#ebebeb" fill-rule="evenodd" stroke="none"/>
    <path d="M-36.85 88.05 L-33.75 82.4 Q-33.3 85.85 -35.95 94.95 -39.25 106.15 -39.65 108.65 -41.65 122.7 -43.9 128.75 L-50.0 128.6 -43.7 108.3 Q-39.85 96.0 -36.85 88.05" fill="#039d0a" fill-rule="evenodd" stroke="none"/>
    <path d="M-107.4 99.55 L-103.6 99.25 Q-96.45 97.55 -93.2 99.5 -90.5 101.0 -88.1 106.85 -86.65 110.0 -86.25 113.9 -85.7 118.5 -87.7 119.65 -89.75 120.85 -94.9 116.6 -97.2 120.7 -100.6 118.85 -104.1 117.05 -103.35 112.8 -106.0 113.4 -107.3 111.3 -108.6 109.2 -107.4 106.85 -109.3 106.65 -110.4 104.65 -111.5 102.55 -110.5 100.8 -109.95 99.8 -107.4 99.55" fill="#ffd09b" fill-rule="evenodd" stroke="none"/>
    <path d="M-109.55 105.8 Q-110.2 103.85 -105.25 103.85 -106.8 105.0 -107.45 106.9 L-107.15 106.9 -107.6 107.5 -107.45 106.9 Q-109.35 106.5 -109.55 105.8" fill="#ffbb7e" fill-rule="evenodd" stroke="none"/>
    <path d="M-101.5 115.3 Q-101.15 117.85 -99.3 119.0 -101.3 119.05 -102.55 117.2 -103.8 115.4 -103.4 113.5 L-106.25 112.5 Q-106.0 111.75 -105.1 111.25 -103.35 110.2 -100.25 111.15 -101.8 112.9 -101.5 115.3" fill="#ffbb7e" fill-rule="evenodd" stroke="none"/>
    <path d="M-88.1 119.55 L-90.55 119.95 Q-91.4 119.95 -92.8 119.05 -96.1 116.95 -93.65 114.65 -91.1 119.9 -88.1 119.55" fill="#ffbb7e" fill-rule="evenodd" stroke="none"/>
    <path d="M-84.8 80.0 Q-63.9 55.05 -52.25 58.7 -34.7 64.2 -56.3 87.75 -67.5 99.95 -86.4 114.25 -90.9 110.1 -98.75 98.8 -100.0 97.0 -93.4 89.35 L-84.8 80.0" fill="#039d0a" fill-rule="evenodd" stroke="none"/>
    <path d="M-48.35 72.3 Q-50.85 77.1 -52.25 78.8 -53.35 80.25 -57.6 84.45 L-72.65 97.65 Q-84.9 108.2 -88.1 110.1 -88.85 110.5 -90.5 108.5 -92.1 106.45 -93.45 103.35 -97.05 95.15 -94.25 91.0 -89.35 83.65 -81.4 75.3 -72.6 66.1 -65.8 62.05 -62.55 60.05 -58.4 59.15 L-50.9 58.95 Q-45.3 60.95 -48.35 72.3" fill="#16b114" fill-rule="evenodd" stroke="none"/>
    <path d="M-62.0 117.85 L-55.05 118.8 Q-50.25 119.35 -46.95 118.95 L-25.9 118.2 -4.85 117.9 Q8.35 117.75 16.1 118.2 L26.3 119.4 36.45 120.55 Q44.2 121.05 45.75 121.8 47.0 122.35 46.75 125.1 L46.05 130.75 Q45.35 136.95 45.7 149.5 46.05 162.1 45.3 168.25 26.7 168.15 -8.7 169.0 -45.55 169.95 -62.65 169.95 -64.45 166.1 -64.6 158.05 L-64.5 145.45 -64.45 131.5 Q-64.05 124.0 -62.0 117.85 M-62.65 169.95 L-62.65 170.0 -62.8 169.95 -62.65 169.95" fill="#ffffff" fill-rule="evenodd" stroke="none"/>
    <path d="M-19.2 141.1 Q-16.5 141.7 -9.55 139.95 -3.15 138.3 0.1 139.85 -1.9 142.45 -5.9 144.75 -10.7 147.15 -12.95 148.3 -7.3 149.35 4.35 146.65 18.1 143.5 22.05 143.4 8.95 149.7 -5.9 154.15 -23.25 159.35 -35.0 159.3 -34.05 158.5 -24.45 152.05 -17.95 147.6 -14.8 143.9 -18.05 144.95 -35.0 148.6 -47.45 151.3 -54.65 155.3 -51.3 151.1 -39.65 146.05 -24.9 139.75 -22.9 138.5 -15.15 133.7 1.35 127.25 L2.9 128.05 Q-4.6 130.2 -19.2 141.1" fill="#ebebeb" fill-rule="evenodd" stroke="none"/>
    <path d="M76.35 94.15 L82.25 105.5 Q86.7 114.55 85.0 115.95 74.65 124.7 69.05 127.7 54.5 109.0 46.8 94.3 32.1 66.0 50.45 65.2 62.65 64.65 76.35 94.15" fill="#039d0a" fill-rule="evenodd" stroke="none"/>
    <path d="M40.45 80.05 Q40.45 68.25 46.35 67.8 49.4 67.6 53.6 69.85 57.35 71.9 59.95 74.6 65.5 80.3 71.65 91.5 77.15 101.65 79.95 110.0 81.55 114.7 76.0 121.7 73.9 124.3 71.75 125.9 69.65 127.45 69.05 126.8 66.45 124.15 57.3 110.8 49.4 99.25 46.25 94.1 43.2 89.05 42.5 87.35 41.6 85.3 40.45 80.05" fill="#16b114" fill-rule="evenodd" stroke="none"/>
  </g>
</svg>
