<?xml version="1.0" encoding="UTF-8" standalone="no"?>
<svg xmlns:ffdec="https://www.free-decompiler.com/flash" xmlns:xlink="http://www.w3.org/1999/xlink" ffdec:objectType="shape" height="175.85px" width="205.15px" xmlns="http://www.w3.org/2000/svg">
  <g transform="matrix(1.0, 0.0, 0.0, 1.0, 112.95, -125.0)">
    <path d="M-35.8 133.0 L-28.85 128.95 Q-19.4 123.5 -0.95 125.6 13.95 127.35 26.45 132.4 35.55 136.1 39.9 139.35 45.65 143.6 49.3 150.7 55.8 163.4 56.1 179.75 L56.2 196.3 Q56.55 201.7 55.75 203.2 54.7 205.3 50.05 206.4 L30.5 207.05 10.8 205.05 -30.2 203.1 -48.0 202.7 Q-59.1 202.3 -65.55 200.65 -65.0 178.1 -60.2 161.9 -52.6 136.5 -35.8 133.0" fill="#16b114" fill-rule="evenodd" stroke="none"/>
    <path d="M-17.0 172.15 Q-17.0 174.25 -18.5 175.8 -20.0 177.3 -22.1 177.3 -24.2 177.3 -25.7 175.8 -27.2 174.25 -27.2 172.15 -27.2 170.05 -25.7 168.6 -24.2 167.1 -22.1 167.1 -20.0 167.1 -18.5 168.6 -17.0 170.05 -17.0 172.15" fill="#039d0a" fill-rule="evenodd" stroke="none"/>
    <path d="M-17.0 186.65 Q-17.0 188.75 -18.5 190.25 -20.0 191.75 -22.1 191.75 -24.2 191.75 -25.7 190.25 -27.2 188.75 -27.2 186.65 -27.2 184.55 -25.7 183.05 -24.2 181.55 -22.1 181.55 -20.0 181.55 -18.5 183.05 -17.0 184.55 -17.0 186.65" fill="#039d0a" fill-rule="evenodd" stroke="none"/>
    <path d="M15.45 172.15 Q15.45 174.25 13.95 175.8 12.45 177.3 10.35 177.3 8.25 177.3 6.75 175.8 5.3 174.25 5.3 172.15 5.3 170.05 6.75 168.6 8.25 167.1 10.35 167.1 12.45 167.1 13.95 168.6 15.45 170.05 15.45 172.15" fill="#039d0a" fill-rule="evenodd" stroke="none"/>
    <path d="M15.45 186.65 Q15.45 188.75 13.95 190.25 12.45 191.75 10.35 191.75 8.25 191.75 6.75 190.25 5.3 188.75 5.3 186.65 5.3 184.55 6.75 183.05 8.25 181.55 10.35 181.55 12.45 181.55 13.95 183.05 15.45 184.55 15.45 186.65" fill="#039d0a" fill-rule="evenodd" stroke="none"/>
    <path d="M-8.85 158.75 Q-11.95 164.8 -21.1 167.2 -29.95 169.45 -36.2 166.4 -43.45 162.85 -44.5 153.1 -45.4 144.6 -41.6 137.15 L31.0 135.85 Q39.3 134.25 47.65 150.45 53.45 161.9 54.6 171.7 L56.8 192.2 57.1 197.15 Q57.0 200.15 55.55 201.2 54.75 201.75 50.6 201.85 L45.6 201.6 Q45.5 199.8 45.9 195.65 46.35 191.75 46.1 189.5 L44.0 177.45 Q43.6 174.4 40.25 170.0 36.25 164.8 32.8 166.75 27.9 169.45 23.4 169.35 20.15 169.25 13.2 167.15 11.3 166.6 7.5 163.0 3.85 159.55 1.9 159.25 0.55 159.0 -3.3 159.25 L-8.85 158.75" fill="#039d0a" fill-rule="evenodd" stroke="none"/>
    <path d="M-12.1 291.0 Q-11.4 295.2 -16.8 297.95 -21.6 300.45 -28.95 300.8 -36.35 301.1 -41.65 299.15 -47.5 296.9 -47.7 292.65 -47.85 288.9 -42.45 286.25 -37.5 283.8 -30.4 283.3 -23.2 282.8 -18.1 284.65 -12.4 286.75 -12.1 291.0" fill="#000104" fill-rule="evenodd" stroke="none"/>
    <path d="M-25.0 282.8 Q-24.95 281.0 -25.9 271.05 -26.55 263.8 -25.3 259.6 L-19.95 260.35 -14.7 260.1 Q-13.75 268.0 -15.35 285.05 -17.9 288.2 -21.15 288.2 -23.15 288.2 -24.3 285.55 L-25.0 282.8" fill="#ffd09b" fill-rule="evenodd" stroke="none"/>
    <path d="M6.0 291.0 Q6.35 286.75 12.05 284.65 17.1 282.8 24.3 283.3 31.45 283.8 36.35 286.25 41.8 288.9 41.6 292.65 41.45 296.9 35.6 299.15 30.25 301.1 22.9 300.8 15.5 300.45 10.7 297.95 5.35 295.2 6.0 291.0" fill="#000104" fill-rule="evenodd" stroke="none"/>
    <path d="M18.9 282.8 Q18.3 288.2 15.0 288.2 13.0 288.2 10.9 286.65 L9.2 285.05 Q7.65 268.0 8.6 260.1 12.25 261.25 19.2 259.6 20.5 263.8 19.8 271.05 18.85 281.15 18.9 282.8" fill="#ffd09b" fill-rule="evenodd" stroke="none"/>
    <path d="M-38.3 225.7 L-5.8 222.1 Q-8.8 232.7 -7.8 249.45 -6.65 269.8 -7.45 276.75 -10.3 277.3 -15.25 276.8 L-23.1 276.2 -39.5 276.9 Q-40.45 267.6 -39.3 251.3 -38.0 232.95 -38.3 225.7" fill="#634301" fill-rule="evenodd" stroke="none"/>
    <path d="M-0.75 225.7 L31.7 222.1 Q28.65 232.7 29.65 249.45 30.9 269.9 30.1 276.75 27.25 277.3 22.3 276.8 L14.4 276.2 -1.95 276.9 Q-2.95 267.55 -1.8 251.3 -0.45 232.85 -0.75 225.7" fill="#634301" fill-rule="evenodd" stroke="none"/>
    <path d="M-8.2 150.9 Q-11.2 157.15 -17.6 161.4 -24.45 166.0 -30.95 165.1 -40.0 163.9 -43.8 157.25 -47.25 151.15 -45.6 142.0 -42.5 124.7 -25.9 128.95 -19.7 130.6 -13.8 137.15 -7.35 144.4 -8.2 150.9" fill="#f90203" fill-rule="evenodd" stroke="none"/>
    <path d="M-26.35 129.65 Q-24.2 130.45 -21.2 131.05 -15.55 133.4 -9.65 142.85 -7.4 146.5 -9.8 152.55 -12.05 157.95 -15.95 161.2 -19.65 164.3 -25.0 165.25 L-34.95 164.85 Q-40.05 163.5 -42.75 160.1 -45.85 156.35 -45.25 150.95 -41.95 158.55 -39.85 160.45 -35.75 164.15 -27.05 162.2 -24.2 161.55 -19.25 156.6 -13.85 151.1 -16.45 148.8 -17.7 147.7 -22.15 149.55 -26.8 151.9 -27.75 152.3 -23.3 146.35 -16.9 144.3 -19.9 141.75 -24.95 139.15 L-29.5 137.05 Q-21.0 136.75 -13.5 142.35 -15.2 135.6 -26.35 129.65" fill="#ca0002" fill-rule="evenodd" stroke="none"/>
    <path d="M0.8 150.9 Q-0.15 144.4 6.35 137.15 12.25 130.6 18.45 128.95 35.05 124.7 38.15 142.0 39.8 151.2 36.35 157.25 32.6 163.9 23.45 165.1 17.0 166.0 10.15 161.4 3.75 157.15 0.8 150.9" fill="#f90203" fill-rule="evenodd" stroke="none"/>
    <path d="M19.7 129.2 Q7.75 135.4 6.1 142.35 13.45 136.75 22.05 137.05 14.2 140.25 9.45 144.3 15.85 146.3 20.25 152.3 17.0 150.55 14.7 149.55 10.3 147.7 9.05 148.8 6.4 151.1 11.8 156.6 16.75 161.55 19.6 162.2 28.3 164.15 32.45 160.45 34.6 158.5 37.8 150.95 38.95 161.8 27.55 164.85 L17.55 165.25 Q12.2 164.3 8.5 161.2 4.55 157.95 2.4 152.55 -0.1 146.45 2.25 142.85 8.1 133.4 13.75 131.05 14.85 130.55 18.0 129.75 L19.7 129.2" fill="#ca0002" fill-rule="evenodd" stroke="none"/>
    <path d="M-9.65 156.85 Q-13.75 154.7 -14.75 150.5 -16.1 144.8 -13.0 140.7 -10.2 137.0 -5.3 136.1 -0.3 135.25 3.5 137.7 7.8 140.5 8.5 146.4 9.15 151.45 6.05 154.7 3.3 157.65 -1.35 158.25 -5.9 158.8 -9.65 156.85" fill="#ca0002" fill-rule="evenodd" stroke="none"/>
    <path d="M-10.3 154.6 Q-13.85 152.75 -14.75 149.1 -15.95 144.15 -13.25 140.6 -10.8 137.4 -6.5 136.6 -2.15 135.8 1.2 137.95 4.95 140.4 5.55 145.5 6.15 149.9 3.45 152.75 1.0 155.3 -3.0 155.8 -7.0 156.3 -10.3 154.6" fill="#f90203" fill-rule="evenodd" stroke="none"/>
    <path d="M-64.8 197.3 L-57.05 198.25 Q-51.65 198.9 -47.95 198.45 L-24.45 197.65 -0.9 197.35 Q13.7 197.15 22.55 197.65 L33.9 198.95 45.3 200.15 Q53.95 200.6 55.7 201.4 57.05 202.05 56.8 204.95 L56.0 210.95 Q55.25 217.45 55.6 230.85 56.0 244.1 55.2 250.7 34.35 250.6 -5.2 251.5 -46.4 252.45 -65.6 252.45 -67.5 248.3 -67.65 239.85 L-67.55 226.55 -67.5 211.7 Q-67.05 203.75 -64.8 197.3 M-65.6 252.45 L-65.55 252.5 -65.65 252.45 -65.6 252.45" fill="#ebebeb" fill-rule="evenodd" stroke="none"/>
    <path d="M-61.95 197.65 L-55.0 198.6 Q-50.2 199.15 -46.9 198.75 L-25.85 198.0 -4.8 197.7 Q8.4 197.55 16.15 198.0 L26.35 199.2 36.5 200.35 Q44.25 200.85 45.8 201.6 47.05 202.15 46.8 204.9 L46.1 210.55 Q45.4 216.75 45.75 229.3 46.1 241.9 45.35 248.05 26.75 247.95 -8.65 248.8 -45.5 249.75 -62.6 249.75 -64.4 245.9 -64.55 237.85 L-64.45 225.25 -64.4 211.3 Q-64.0 203.8 -61.95 197.65 M-62.6 249.75 L-62.6 249.8 -62.75 249.75 -62.6 249.75" fill="#ffffff" fill-rule="evenodd" stroke="none"/>
    <path d="M-19.15 220.9 Q-16.45 221.5 -9.5 219.75 -3.1 218.1 0.15 219.65 -1.85 222.25 -5.85 224.55 L-12.9 228.1 Q-7.25 229.15 4.4 226.45 18.15 223.3 22.1 223.2 9.0 229.5 -5.85 233.95 -23.2 239.15 -34.95 239.1 L-24.4 231.85 Q-17.9 227.4 -14.75 223.7 -18.0 224.75 -34.95 228.4 -47.4 231.1 -54.6 235.1 -51.25 230.9 -39.6 225.85 -24.85 219.55 -22.85 218.3 -15.1 213.5 1.4 207.05 L2.95 207.85 Q-4.55 210.0 -19.15 220.9" fill="#ebebeb" fill-rule="evenodd" stroke="none"/>
    <path d="M-36.8 167.85 L-33.7 162.2 Q-33.25 165.65 -35.9 174.75 -39.2 185.95 -39.6 188.45 -41.6 202.5 -43.85 208.55 L-49.95 208.4 -43.65 188.1 Q-39.8 175.8 -36.8 167.85" fill="#039d0a" fill-rule="evenodd" stroke="none"/>
    <path d="M-109.3 180.25 L-105.55 179.95 Q-98.4 178.25 -95.15 180.2 -92.45 181.7 -90.05 187.55 -88.6 190.7 -88.2 194.6 -87.65 199.2 -89.65 200.35 -91.65 201.55 -96.85 197.3 -99.15 201.4 -102.55 199.55 -106.05 197.75 -105.25 193.5 -107.95 194.1 -109.25 192.0 -110.5 189.9 -109.35 187.55 -111.2 187.35 -112.35 185.35 -113.45 183.25 -112.45 181.5 -111.9 180.5 -109.3 180.25" fill="#ffd09b" fill-rule="evenodd" stroke="none"/>
    <path d="M-111.45 186.5 Q-112.15 184.55 -107.2 184.55 -108.75 185.7 -109.35 187.6 L-109.1 187.6 -109.5 188.2 -109.35 187.6 Q-111.3 187.2 -111.45 186.5" fill="#ffbb7e" fill-rule="evenodd" stroke="none"/>
    <path d="M-103.4 196.0 Q-103.1 198.55 -101.25 199.7 -103.25 199.75 -104.5 197.9 -105.75 196.1 -105.35 194.2 L-108.2 193.2 Q-107.95 192.45 -107.05 191.95 -105.25 190.9 -102.2 191.85 -103.75 193.6 -103.4 196.0" fill="#ffbb7e" fill-rule="evenodd" stroke="none"/>
    <path d="M-90.05 200.25 L-92.5 200.65 Q-93.35 200.65 -94.75 199.75 -98.05 197.65 -95.6 195.35 -93.05 200.6 -90.05 200.25" fill="#ffbb7e" fill-rule="evenodd" stroke="none"/>
    <path d="M-86.7 160.7 Q-65.85 135.75 -54.15 139.4 -36.6 144.9 -58.25 168.45 -69.45 180.65 -88.35 194.95 -92.85 190.8 -100.7 179.5 -101.95 177.7 -95.35 170.05 L-86.7 160.7" fill="#039d0a" fill-rule="evenodd" stroke="none"/>
    <path d="M-50.3 153.0 Q-52.75 157.8 -54.2 159.5 L-59.55 165.15 Q-64.05 169.35 -74.6 178.35 -86.85 188.9 -90.0 190.8 -90.75 191.2 -92.4 189.2 -94.0 187.15 -95.4 184.05 -99.0 175.85 -96.2 171.7 -91.3 164.35 -83.35 156.0 -74.55 146.8 -67.75 142.75 -64.5 140.75 -60.35 139.85 L-52.85 139.65 Q-47.25 141.65 -50.3 153.0" fill="#16b114" fill-rule="evenodd" stroke="none"/>
    <path d="M68.9 197.55 Q72.7 192.5 75.7 191.7 79.35 190.65 85.8 194.15 L89.35 195.45 Q91.85 196.3 92.1 197.4 92.6 199.35 91.0 201.05 89.4 202.7 87.55 202.5 88.05 205.1 86.25 206.7 84.45 208.4 82.0 207.15 81.65 211.5 77.85 212.35 74.05 213.25 72.95 208.7 66.8 211.45 65.15 209.75 63.6 208.15 65.25 203.85 66.7 200.2 68.9 197.55" fill="#ffd09b" fill-rule="evenodd" stroke="none"/>
    <path d="M87.25 202.45 L87.55 202.5 Q87.4 200.5 86.2 199.0 90.85 200.4 89.85 201.95 89.4 202.85 87.55 202.5 L87.55 203.15 87.25 202.45" fill="#ffbb7e" fill-rule="evenodd" stroke="none"/>
    <path d="M79.5 204.85 Q84.7 204.6 84.95 207.65 L82.0 207.9 Q81.85 209.85 80.2 211.25 78.45 212.7 76.55 212.05 78.65 211.5 79.55 209.15 80.5 206.85 79.5 204.85" fill="#ffbb7e" fill-rule="evenodd" stroke="none"/>
    <path d="M72.2 206.5 Q74.0 209.3 70.2 210.45 68.7 211.0 67.85 210.75 L65.7 209.8 Q68.45 210.8 72.2 206.5" fill="#ffbb7e" fill-rule="evenodd" stroke="none"/>
    <path d="M72.6 170.65 L78.5 182.0 Q82.95 191.05 81.3 192.45 70.9 201.25 65.3 204.2 50.75 185.55 43.1 170.8 28.35 142.5 46.7 141.75 58.9 141.2 72.6 170.65" fill="#039d0a" fill-rule="evenodd" stroke="none"/>
    <path d="M36.7 156.55 Q36.7 144.8 42.65 144.35 45.65 144.1 49.9 146.4 53.65 148.45 56.25 151.15 61.75 156.85 67.9 168.0 73.45 178.15 76.2 186.5 77.8 191.2 72.25 198.2 70.15 200.8 68.0 202.4 65.9 203.95 65.3 203.35 62.7 200.7 53.6 187.3 45.65 175.75 42.5 170.6 L38.75 163.85 Q37.9 161.8 36.7 156.55" fill="#16b114" fill-rule="evenodd" stroke="none"/>
  </g>
</svg>
