<?xml version="1.0" encoding="UTF-8" standalone="no"?>
<svg xmlns:ffdec="https://www.free-decompiler.com/flash" xmlns:xlink="http://www.w3.org/1999/xlink" ffdec:objectType="shape" height="280.7px" width="259.05px" xmlns="http://www.w3.org/2000/svg">
  <g transform="matrix(1.0, 0.0, 0.0, 1.0, 129.55, 140.35)">
    <path d="M7.45 92.45 L11.0 98.2 11.15 98.8 11.2 100.05 11.2 100.65 11.45 101.2 12.0 102.45 11.9 103.0 11.4 103.7 9.55 103.7 9.05 103.05 Q7.7 101.25 5.95 100.05 L5.8 99.5 Q4.35 97.45 2.55 95.75 L2.1 95.4 1.9 95.25 -5.2 95.4 -7.9 97.35 Q-11.15 99.25 -13.7 102.05 L-14.65 101.85 -15.15 101.45 -15.0 100.9 -14.5 100.25 -14.4 99.6 -14.3 97.2 -14.3 95.4 -12.1 92.0 Q-9.65 88.25 -6.0 86.45 L1.7 86.65 Q5.2 88.9 7.45 92.45 M7.5 96.5 L7.1 96.65 7.55 96.8 7.5 96.5 M-11.95 97.15 L-12.15 96.85 -12.3 97.4 -11.95 97.15" fill="#ffca9a" fill-rule="evenodd" stroke="none"/>
    <path d="M-69.0 95.65 Q-55.5 83.4 -37.2 78.9 -20.05 74.7 -3.45 74.05 13.1 73.35 31.0 80.2 48.85 87.05 61.8 102.65" fill="none" stroke="#330000" stroke-linecap="round" stroke-linejoin="round" stroke-width="2.0"/>
    <path d="M-120.25 3.8 Q-113.55 -1.5 -105.45 -3.0 -97.0 -4.55 -91.75 -0.9 -85.7 3.25 -86.1 13.05 L-92.05 34.35 Q-97.45 42.0 -104.9 44.1 -111.75 45.95 -118.1 42.8 -124.45 39.65 -127.45 32.9 -130.8 25.55 -128.85 16.6 -127.3 9.45 -120.25 3.8" fill="#ffe3bd" fill-rule="evenodd" stroke="none"/>
    <path d="M-113.1 9.4 Q-108.95 6.15 -103.95 5.2 -98.75 4.25 -95.5 6.55 -91.8 9.1 -92.05 15.1 L-95.7 28.25 Q-99.0 32.95 -103.65 34.3 -107.9 35.45 -111.8 33.5 -115.7 31.55 -117.55 27.4 -119.6 22.85 -118.4 17.3 -117.45 12.9 -113.1 9.4" fill="#ff9a60" fill-rule="evenodd" stroke="none"/>
    <path d="M31.45 -59.9 Q43.8 -57.05 51.75 -52.9 71.4 -48.45 81.65 -31.85 84.9 -26.55 90.0 -15.25 95.8 -2.35 99.15 3.65 108.05 19.9 109.35 39.8 110.55 58.35 105.1 77.6 94.55 114.95 55.1 130.8 21.8 144.15 -19.6 138.8 -58.1 133.8 -83.2 110.3 -111.0 84.3 -108.1 46.8 -105.4 12.25 -77.2 -18.45 -50.35 -47.75 -14.55 -58.8 6.9 -65.5 31.45 -59.9" fill="#ffca9a" fill-rule="evenodd" stroke="none"/>
    <path d="M67.4 -30.7 Q70.35 -25.35 75.0 -14.1 80.4 -1.2 83.4 4.8 91.6 21.05 92.75 41.05 93.85 59.55 88.9 78.8 79.3 115.85 43.0 129.95 13.55 141.45 -25.6 135.9 -61.55 130.9 -84.05 109.45 -109.6 85.1 -106.9 47.95 -104.45 13.4 -78.55 -17.3 -53.85 -46.55 -21.05 -57.65 -1.35 -64.3 21.2 -58.65 32.5 -55.9 39.85 -51.75 57.9 -47.25 67.4 -30.7" fill="#ffe3bd" fill-rule="evenodd" stroke="none"/>
    <path d="M60.15 5.85 Q66.25 8.65 68.3 13.4 62.15 7.5 53.45 7.0 45.5 6.5 37.6 10.65 29.85 14.65 25.25 21.6 20.35 29.0 20.85 37.1 21.4 45.1 27.25 51.95 32.95 58.45 41.1 60.9 42.4 61.25 47.9 60.8 52.7 60.35 54.0 61.4 55.5 62.55 57.4 73.55 59.4 85.6 60.0 86.8 L47.0 67.8 22.1 58.35 Q18.3 56.9 14.55 51.45 10.5 45.45 9.55 38.55 7.0 19.95 28.05 9.85 48.0 0.25 60.15 5.85" fill="#ffca9a" fill-rule="evenodd" stroke="none"/>
    <path d="M-70.35 5.8 Q-58.2 0.25 -38.2 9.85 -17.2 19.95 -19.75 38.55 -20.7 45.45 -24.75 51.45 -28.45 56.9 -32.3 58.35 L-57.2 67.8 -70.2 86.75 Q-69.65 85.6 -67.6 73.55 -65.7 62.55 -64.2 61.4 -62.9 60.35 -58.1 60.8 -52.6 61.25 -51.25 60.9 -43.15 58.45 -37.45 51.95 -31.6 45.15 -31.05 37.1 -30.5 29.0 -35.4 21.55 -40.0 14.65 -47.8 10.6 -55.65 6.5 -63.65 6.95 -72.35 7.45 -78.5 13.4 L-76.7 10.7 Q-74.1 7.6 -70.35 5.8" fill="#ffca9a" fill-rule="evenodd" stroke="none"/>
    <path d="M-9.85 61.65 Q-23.25 59.95 -31.0 54.4 -40.6 47.5 -39.9 35.75 -39.2 24.9 -26.1 17.0 -13.8 9.5 -2.15 10.85 7.6 12.75 18.05 24.6 28.9 36.95 26.3 45.4 23.25 55.45 11.45 59.65 1.65 63.15 -9.85 61.65" fill="#ff791e" fill-rule="evenodd" stroke="none"/>
    <path d="M-11.3 57.3 Q-25.65 54.9 -30.25 52.75 -40.4 47.95 -39.85 36.8 -39.35 26.1 -26.5 17.55 -14.6 9.45 -5.45 10.85 2.55 12.85 11.15 22.95 20.5 33.85 18.6 42.1 16.3 52.05 6.05 55.85 -1.95 58.8 -11.3 57.3" fill="#ff9a00" fill-rule="evenodd" stroke="none"/>
    <path d="M127.45 49.95 Q124.4 56.75 118.1 59.9 111.75 63.05 104.9 61.15 97.4 59.05 92.0 51.45 L86.1 30.1 Q85.7 20.35 91.7 16.2 96.95 12.55 105.45 14.1 113.5 15.6 120.2 20.9 127.25 26.55 128.8 33.7 130.75 42.65 127.45 49.95" fill="#ffe3bd" fill-rule="evenodd" stroke="none"/>
    <path d="M118.35 34.4 Q119.6 39.95 117.55 44.45 115.65 48.6 111.75 50.6 107.8 52.55 103.6 51.4 99.0 50.05 95.65 45.35 L92.0 32.2 Q91.75 26.15 95.5 23.55 98.75 21.35 103.95 22.3 108.9 23.25 113.05 26.5 117.45 30.0 118.35 34.4" fill="#ff9a60" fill-rule="evenodd" stroke="none"/>
    <path d="M-14.9 -10.15 Q-15.7 -7.25 -25.75 -9.95 -35.85 -12.5 -38.75 -16.1 -37.8 -19.6 -33.85 -20.3 -30.35 -20.9 -25.6 -19.4 -21.15 -17.85 -17.95 -15.35 -14.65 -12.6 -14.9 -10.15" fill="#2d0a18" fill-rule="evenodd" stroke="none"/>
    <path d="M12.2 -12.35 Q12.6 -14.7 16.55 -16.5 20.25 -18.1 25.0 -18.45 29.95 -18.65 33.2 -17.2 36.85 -15.5 36.8 -11.85 33.1 -9.15 22.75 -9.2 12.3 -9.3 12.2 -12.35" fill="#2d0a18" fill-rule="evenodd" stroke="none"/>
    <path d="M35.8 -39.25 Q21.6 -36.4 14.3 -25.85 11.85 -28.85 8.95 -28.25 6.45 -27.7 2.05 -24.1 0.75 -37.05 2.9 -53.5 -8.75 -55.3 -25.85 -48.45 -40.45 -42.7 -51.65 -34.05 -59.9 -27.7 -70.05 -9.35 -75.2 -0.05 -77.95 3.95 -82.65 10.85 -87.7 14.75 -91.15 8.8 -92.05 5.3 -93.3 0.25 -91.55 -5.6 -87.55 -18.4 -76.3 -30.3 -65.15 -42.15 -49.05 -50.65 -12.95 -69.85 28.0 -64.75 63.55 -60.3 84.25 -21.85 94.6 -2.6 97.85 15.75 L91.95 19.3 Q91.9 17.15 89.45 10.85 82.75 13.2 80.5 16.25 80.2 2.2 76.3 -11.05 71.3 -27.75 62.4 -34.05 50.8 -42.25 35.8 -39.25" fill="#ffca9a" fill-rule="evenodd" stroke="none"/>
    <path d="M-2.75 -45.65 Q-1.95 -56.8 9.1 -60.0 L42.25 -50.55 Q34.55 -48.05 26.6 -41.7 L12.55 -30.55 10.25 -33.7 Q8.6 -35.75 8.7 -38.2 1.9 -35.9 1.4 -26.35 -3.35 -37.6 -2.75 -45.65" fill="#5d0304" fill-rule="evenodd" stroke="none"/>
    <path d="M46.5 -47.3 L54.95 -58.65 Q66.0 -56.35 77.4 -43.9 82.5 -38.3 94.15 -21.7 101.3 -11.5 103.15 -0.1 105.75 15.25 92.55 16.55 L91.35 8.1 Q90.35 3.55 88.1 1.0 L85.3 5.2 Q83.25 7.9 82.6 9.3 84.4 -8.1 73.75 -25.15 62.9 -42.4 46.5 -47.3" fill="#5d0304" fill-rule="evenodd" stroke="none"/>
    <path d="M4.35 -67.8 Q10.9 -63.85 17.4 -60.0 9.9 -60.85 -15.2 -54.9 -40.75 -48.75 -46.65 -44.25 L-59.8 -33.55 Q-67.1 -26.7 -72.35 -17.45 -76.6 -8.1 -79.25 -2.9 -84.1 6.7 -88.5 8.4 -87.65 7.05 -87.15 4.0 L-86.15 -0.5 -90.5 -0.8 -94.8 -1.2 Q-91.0 -16.4 -78.3 -32.95 -65.5 -49.65 -52.0 -56.6 -38.7 -63.45 -24.55 -67.05 -6.2 -71.7 4.35 -67.8" fill="#5d0304" fill-rule="evenodd" stroke="none"/>
    <path d="M6.05 -108.65 Q-2.9 -113.95 -1.9 -122.95 -1.0 -131.1 6.6 -136.45 14.6 -142.05 23.0 -139.0 32.9 -135.45 38.6 -120.6 41.45 -125.3 46.85 -128.55 52.2 -131.7 58.0 -132.4 64.1 -133.15 68.7 -130.75 73.85 -128.15 75.95 -122.25 79.55 -112.2 74.0 -103.65 68.4 -94.95 57.5 -95.3 57.5 -88.55 56.75 -74.85 55.95 -59.0 55.0 -55.3 52.9 -46.9 41.75 -43.9 33.5 -41.75 21.65 -42.75 8.5 -43.9 -1.3 -50.4 -12.75 -58.0 -8.05 -67.35 2.75 -88.75 6.05 -108.65" fill="#f90203" fill-rule="evenodd" stroke="none"/>
    <path d="M64.7 17.85 Q76.5 20.0 80.95 28.2 82.75 31.6 82.55 34.95 82.25 38.2 80.05 40.25 76.0 44.0 65.75 44.3 57.4 44.5 50.65 42.75 44.35 41.05 42.6 36.6 41.1 32.65 43.8 27.95 46.45 23.3 51.85 20.4 57.75 17.3 64.7 17.85" fill="#fca48c" fill-rule="evenodd" stroke="none"/>
    <path d="M-73.8 16.7 Q-61.95 18.85 -57.5 27.05 -55.7 30.4 -55.95 33.75 -56.2 37.0 -58.4 39.05 -62.45 42.8 -72.75 43.1 -81.1 43.3 -87.9 41.55 -94.2 39.85 -95.85 35.45 -97.4 31.45 -94.75 26.75 -92.05 22.15 -86.6 19.25 -80.7 16.15 -73.8 16.7" fill="#fca48c" fill-rule="evenodd" stroke="none"/>
    <path d="M13.95 -138.5 Q20.2 -143.15 28.85 -136.0 35.55 -130.45 39.45 -122.6 41.0 -124.55 47.0 -127.8 53.05 -131.05 55.4 -130.85 50.2 -129.55 42.3 -121.75 35.7 -115.2 32.15 -109.65 32.4 -119.55 28.4 -127.2 23.55 -136.6 13.95 -138.5" fill="#ca0002" fill-rule="evenodd" stroke="none"/>
    <path d="M57.9 -95.25 Q59.5 -91.55 57.9 -75.5 L55.85 -55.5 Q55.85 -53.25 53.05 -50.1 49.55 -46.05 43.9 -45.0 46.55 -47.3 48.95 -53.75 51.7 -60.75 52.05 -67.95 53.1 -87.3 37.45 -92.2 L48.1 -91.85 Q52.3 -92.55 57.9 -95.25" fill="#ca0002" fill-rule="evenodd" stroke="none"/>
    <path d="M3.45 -70.95 Q4.1 -70.8 4.25 -70.25 L4.3 -69.4 4.15 -67.4 Q4.1 -66.05 3.85 -65.55 L2.95 -65.45 Q2.4 -65.5 2.15 -65.95 L2.4 -68.55 2.35 -69.0 2.1 -69.15 -1.05 -69.4 Q-1.5 -69.85 -1.4 -70.45 L-0.9 -71.4 3.45 -70.95 M0.7 -67.55 L0.65 -64.3 3.3 -63.6 3.25 -62.45 2.7 -61.85 1.35 -62.15 0.15 -62.35 -1.75 -62.7 -3.9 -62.8 Q-4.2 -63.15 -4.15 -63.65 L-3.95 -64.5 -2.65 -64.65 -1.25 -64.6 -1.25 -66.25 -1.1 -67.75 Q-1.0 -68.1 -0.2 -68.0 0.7 -67.85 0.7 -67.55" fill="#ffffff" fill-rule="evenodd" stroke="none"/>
    <path d="M13.3 -67.5 L13.25 -66.55 Q13.05 -66.05 12.25 -66.05 L11.7 -66.4 11.2 -67.0 10.8 -68.2 10.65 -69.1 11.05 -69.75 Q11.3 -70.05 11.75 -70.05 12.15 -70.0 12.55 -69.1 L13.0 -68.05 13.3 -67.5 M14.45 -64.0 Q14.6 -63.1 13.85 -63.1 13.35 -62.95 12.85 -63.1 L11.85 -63.2 10.7 -63.45 9.45 -63.7 6.85 -63.95 Q6.25 -64.3 6.3 -65.15 6.4 -66.0 7.35 -65.85 L14.05 -65.05 Q14.45 -64.95 14.45 -64.0 M7.5 -61.65 Q8.6 -62.85 9.95 -62.85 10.95 -62.85 11.45 -62.25 L11.95 -60.8 Q11.95 -59.4 10.7 -58.2 9.55 -56.95 8.35 -56.95 7.1 -56.95 6.8 -57.75 6.45 -58.65 6.45 -59.1 6.45 -60.45 7.5 -61.65 M8.9 -59.15 L9.55 -59.65 9.9 -60.3 9.9 -60.75 Q9.7 -60.95 9.45 -60.75 L8.85 -60.35 8.45 -59.8 8.45 -59.25 Q8.5 -59.0 8.9 -59.15 M13.3 -56.5 Q14.6 -57.55 15.75 -57.4 16.7 -57.3 17.25 -56.4 17.8 -55.55 17.6 -54.8 17.45 -54.0 16.2 -52.65 14.95 -51.3 13.8 -51.4 12.5 -51.45 12.2 -52.45 L12.0 -54.0 Q12.15 -55.4 13.3 -56.5 M14.35 -53.7 L15.15 -54.25 15.5 -54.85 15.5 -55.35 15.1 -55.3 Q14.6 -55.1 14.45 -54.9 L14.1 -54.35 13.95 -53.8 Q13.95 -53.45 14.35 -53.7 M20.3 -65.5 Q21.0 -65.05 20.7 -64.45 L20.35 -63.6 19.65 -63.7 18.55 -63.8 18.4 -63.3 18.4 -62.65 20.15 -62.3 Q20.65 -61.8 20.6 -61.25 20.55 -60.65 20.0 -60.3 L18.95 -60.55 18.2 -60.6 18.0 -59.95 17.95 -59.3 Q17.7 -58.7 16.8 -59.05 15.9 -59.25 15.95 -59.7 L17.0 -67.45 Q17.35 -67.8 18.1 -67.75 18.85 -67.6 19.1 -67.1 18.8 -65.95 18.95 -65.85 L19.55 -65.65 20.3 -65.5" fill="#ffffff" fill-rule="evenodd" stroke="none"/>
    <path d="M35.25 -64.4 L35.2 -63.6 34.95 -62.35 34.95 -62.1 36.0 -61.85 Q36.8 -61.7 37.2 -61.3 L37.15 -60.5 Q37.1 -60.1 36.65 -59.65 L34.65 -60.0 34.15 -57.5 33.1 -57.6 32.4 -58.05 32.4 -58.7 32.5 -59.2 33.2 -64.45 34.3 -64.7 35.25 -64.4 M29.1 -64.15 L29.35 -63.15 28.8 -60.0 28.35 -59.05 Q27.95 -58.75 27.3 -58.75 L24.2 -58.95 Q23.5 -58.95 23.0 -59.3 22.65 -59.65 22.7 -60.45 L23.0 -62.25 23.05 -64.15 23.75 -64.8 24.65 -64.9 28.25 -64.7 29.1 -64.15 M26.3 -62.8 L25.05 -62.85 24.7 -60.95 25.75 -60.85 26.75 -60.8 26.9 -60.85 26.95 -61.05 27.15 -61.85 27.2 -62.75 26.3 -62.8 M27.7 -57.45 Q28.3 -57.3 28.45 -56.85 L28.0 -53.9 28.05 -53.7 28.25 -53.65 29.9 -53.45 31.6 -53.15 Q31.8 -52.7 31.65 -52.1 31.55 -51.45 31.15 -51.3 L28.25 -51.6 26.9 -51.75 26.2 -52.15 Q25.9 -52.4 25.9 -52.9 L26.15 -55.5 Q26.2 -56.5 26.65 -57.45 L27.7 -57.45" fill="#ffffff" fill-rule="evenodd" stroke="none"/>
    <path d="M46.7 -64.65 L42.4 -65.15 42.0 -62.45 47.1 -61.7 Q47.45 -60.75 47.05 -60.2 46.7 -59.65 46.25 -59.65 L41.85 -60.3 Q40.7 -60.35 40.25 -60.75 39.9 -61.1 39.95 -62.1 L40.2 -64.1 40.35 -65.8 Q40.35 -66.55 40.6 -66.9 40.9 -67.35 41.75 -67.25 L44.35 -66.95 47.25 -66.55 Q47.6 -66.4 47.5 -65.45 47.3 -64.6 46.7 -64.65 M39.7 -58.05 L46.75 -57.2 Q47.1 -56.9 46.85 -56.0 L46.7 -55.2 46.3 -55.2 44.4 -55.45 44.1 -52.65 Q44.1 -52.3 43.1 -52.3 42.25 -52.2 42.1 -52.8 L42.3 -54.45 42.35 -55.75 39.4 -56.0 Q38.8 -56.1 38.95 -57.1 39.15 -58.1 39.7 -58.05" fill="#ffffff" fill-rule="evenodd" stroke="none"/>
    <path d="M54.75 107.0 Q54.85 108.0 54.25 108.35 L52.9 108.5 Q46.15 107.65 20.0 96.8 -6.2 85.95 -25.1 91.4 L-25.95 91.65 -26.25 91.7 -26.5 91.8 -26.75 91.85 -27.45 92.05 Q-35.0 94.25 -40.6 96.3 -35.25 88.85 -27.1 85.15 -19.0 81.45 -14.05 80.0 20.3 82.15 34.15 96.3 47.95 110.4 54.75 107.0" fill="#c10000" fill-rule="evenodd" stroke="none"/>
    <path d="M-40.6 96.3 Q-47.85 98.85 -52.05 101.15 -60.1 105.55 -65.1 104.7 -46.15 68.35 -11.15 67.3 23.8 66.25 41.75 87.8 54.3 102.9 54.75 107.0 47.95 110.4 34.15 96.3 20.3 82.15 -14.05 80.0 -19.0 81.45 -27.1 85.15 -35.25 88.85 -40.6 96.3" fill="#5d0406" fill-rule="evenodd" stroke="none"/>
    <path d="M-35.5 -4.5 Q-23.25 -2.7 -14.9 4.55 -24.2 1.1 -32.65 6.2 L-34.7 7.5" fill="none" stroke="#330000" stroke-linecap="round" stroke-linejoin="round" stroke-width="2.0"/>
    <path d="M27.1 -4.5 Q14.85 -2.7 6.5 4.55 15.8 1.1 24.25 6.2 L26.3 7.5" fill="none" stroke="#330000" stroke-linecap="round" stroke-linejoin="round" stroke-width="2.0"/>
  </g>
</svg>
