<?xml version="1.0" encoding="UTF-8" standalone="no"?>
<svg xmlns:ffdec="https://www.free-decompiler.com/flash" xmlns:xlink="http://www.w3.org/1999/xlink" ffdec:objectType="shape" height="77.5px" width="273.0px" xmlns="http://www.w3.org/2000/svg">
  <g transform="matrix(1.0, 0.0, 0.0, 1.0, 175.5, -88.5)">
    <path d="M76.4 103.55 L76.5 104.25 75.65 105.65 75.0 106.25 74.0 106.5 Q72.0 106.3 71.5 104.5 71.15 102.55 73.05 101.8 L74.0 101.5 Q75.75 101.9 76.4 103.55 M65.5 117.0 L66.25 117.75 65.0 119.0 63.75 117.75 64.35 117.15 65.0 117.0 65.5 117.0 M49.0 104.0 L47.75 102.75 48.35 102.15 49.0 102.0 49.5 102.0 50.25 102.75 49.0 104.0 M48.25 121.75 L47.0 123.0 45.75 121.75 46.35 121.15 47.0 121.0 47.5 121.0 48.25 121.75 M64.5 141.25 L63.65 142.65 63.0 143.25 62.0 143.5 Q60.0 143.3 59.5 141.5 59.15 139.55 61.05 138.8 L62.0 138.5 Q63.75 138.9 64.4 140.55 L64.5 141.25 M75.35 144.15 L76.0 144.0 76.5 144.0 77.25 144.75 76.0 146.0 74.75 144.75 75.35 144.15 M27.0 121.5 Q28.75 121.9 29.4 123.55 L29.5 124.25 28.65 125.65 28.0 126.25 27.0 126.5 Q25.0 126.3 24.5 124.5 24.15 122.55 26.05 121.8 L27.0 121.5 M12.5 102.0 L13.25 102.75 12.0 104.0 10.75 102.75 11.35 102.15 12.0 102.0 12.5 102.0 M35.35 146.15 L36.0 146.0 36.5 146.0 37.25 146.75 36.0 148.0 34.75 146.75 35.35 146.15 M97.4 126.55 L97.5 127.25 96.65 128.65 96.0 129.25 Q92.85 130.3 91.5 127.5 91.15 125.55 93.05 124.8 93.5 124.6 94.0 124.5 96.4 124.3 97.4 126.55 M-138.7 90.75 L-139.95 92.0 -141.2 90.75 -140.6 90.15 -139.95 90.0 -139.45 90.0 -138.7 90.75 M-123.6 95.55 L-123.5 96.25 -124.35 97.65 -125.0 98.25 -125.95 98.5 Q-128.0 98.3 -128.45 96.5 -128.85 94.55 -126.95 93.8 L-125.95 93.5 Q-124.25 93.9 -123.6 95.55 M-93.6 90.55 L-93.5 91.25 -94.35 92.65 -95.0 93.25 -96.0 93.5 Q-98.0 93.3 -98.5 91.5 -98.85 89.55 -96.95 88.8 L-96.0 88.5 Q-94.25 88.9 -93.6 90.55 M-109.0 113.0 L-110.25 111.75 -109.65 111.15 -109.0 111.0 -108.5 111.0 -107.75 111.75 -109.0 113.0 M-115.0 124.5 Q-113.25 124.9 -112.6 126.55 L-112.5 127.25 -113.35 128.65 -114.0 129.25 -115.0 129.5 Q-117.0 129.3 -117.5 127.5 -117.85 125.55 -115.95 124.8 L-115.0 124.5 M-94.5 133.0 L-93.9 133.8 Q-93.75 134.1 -93.75 134.5 L-93.9 135.15 -94.5 136.0 -95.75 136.0 Q-97.65 134.9 -96.6 133.5 L-96.0 132.75 -94.5 133.0 M-142.45 113.0 L-141.7 113.75 -142.95 115.0 -144.2 113.75 -143.6 113.15 -142.95 113.0 -142.45 113.0 M-138.95 129.5 Q-137.25 129.9 -136.6 131.55 -136.45 131.85 -136.45 132.25 L-137.35 133.65 -137.95 134.25 -138.95 134.5 Q-141.0 134.3 -141.45 132.5 -141.85 130.55 -139.95 129.8 L-138.95 129.5 M-122.7 157.3 Q-121.7 156.65 -121.0 156.5 -117.95 155.9 -116.6 158.55 L-116.5 159.25 -116.85 159.9 -118.0 161.25 Q-121.8 162.6 -123.5 159.5 -123.85 158.05 -122.7 157.3 M-153.7 164.75 L-154.95 166.0 -156.2 164.75 -155.6 164.15 -154.95 164.0 -154.45 164.0 -153.7 164.75 M-83.75 154.75 L-85.0 156.0 -86.25 154.75 -85.65 154.15 -85.0 154.0 -84.5 154.0 -83.75 154.75 M-67.75 126.75 L-69.0 128.0 -70.25 126.75 -69.65 126.15 -69.0 126.0 -68.5 126.0 -67.75 126.75 M-165.95 105.8 L-164.95 105.5 Q-163.25 105.9 -162.6 107.55 -162.45 107.85 -162.45 108.25 L-163.35 109.65 -163.95 110.25 -164.95 110.5 Q-167.0 110.3 -167.45 108.5 -167.85 106.55 -165.95 105.8 M-165.95 134.0 L-167.2 132.75 -166.6 132.15 -165.95 132.0 -165.45 132.0 -164.7 132.75 -165.95 134.0 M-172.95 143.5 Q-171.25 143.9 -170.6 145.55 -170.45 145.85 -170.45 146.25 L-171.35 147.65 -171.95 148.25 -172.95 148.5 Q-175.0 148.3 -175.45 146.5 -175.85 144.55 -173.95 143.8 L-172.95 143.5" fill="#d9ffff" fill-opacity="0.7607843" fill-rule="evenodd" stroke="none"/>
  </g>
</svg>
