<?xml version="1.0" encoding="UTF-8" standalone="no"?>
<svg xmlns:ffdec="https://www.free-decompiler.com/flash" xmlns:xlink="http://www.w3.org/1999/xlink" ffdec:objectType="shape" height="75.65px" width="67.8px" xmlns="http://www.w3.org/2000/svg">
  <g transform="matrix(1.0, 0.0, 0.0, 1.0, 30.85, 42.35)">
    <path d="M-9.15 -7.05 L0.3 -15.7 Q7.9 -22.3 9.65 -21.05 20.85 -13.35 25.2 -8.7 10.85 10.2 -1.35 21.45 -24.9 42.95 -30.4 25.4 -34.05 13.8 -9.15 -7.05" fill="#039d0a" fill-rule="evenodd" stroke="none"/>
    <path d="M-13.45 31.3 Q-24.85 34.35 -26.8 28.7 -27.8 25.85 -26.7 21.15 -25.7 17.05 -23.75 13.85 -19.7 7.0 -10.45 -1.85 -2.1 -9.8 5.3 -14.65 9.4 -17.4 17.55 -13.85 20.6 -12.5 22.7 -10.85 24.75 -9.2 24.3 -8.5 22.4 -5.25 11.9 7.0 2.75 17.65 -1.4 22.0 L-6.95 27.4 Q-8.7 28.75 -13.45 31.3" fill="#16b114" fill-rule="evenodd" stroke="none"/>
    <path d="M28.05 -28.25 L27.25 -28.3 26.4 -27.75 25.4 -26.5 24.85 -26.0 24.85 -25.85 24.85 -25.7 24.8 -25.6 24.7 -25.4 24.55 -25.15 24.45 -25.0 24.45 -24.6 21.1 -24.5 Q20.25 -24.6 19.9 -25.15 L19.9 -25.3 19.9 -25.6 19.75 -25.85 19.75 -26.0 19.75 -26.75 19.6 -26.9 19.05 -26.75 19.05 -26.6 19.0 -26.15 Q18.55 -25.3 17.75 -24.7 15.05 -23.75 13.35 -25.7 L13.35 -25.8 13.35 -25.95 13.2 -26.1 12.9 -26.15 12.65 -25.9 12.65 -25.6 12.65 -24.05 12.45 -23.9 12.45 -23.75 Q12.4 -23.1 12.15 -22.6 10.85 -21.75 9.3 -21.95 L8.25 -22.4 8.2 -22.5 7.8 -23.2 7.65 -23.1 7.75 -23.65 Q8.65 -27.45 12.2 -29.5 15.75 -31.5 19.0 -31.45 22.2 -31.4 28.05 -28.25 M7.45 -22.1 L7.55 -21.85 7.45 -21.0 7.75 -17.8 8.2 -17.8 Q8.85 -19.05 10.05 -19.95 L9.9 -20.15 13.2 -20.5 14.45 -21.5 14.5 -21.65 14.5 -21.8 14.65 -21.95 14.7 -22.25 14.75 -22.4 Q16.85 -23.4 18.55 -22.05 L20.2 -22.05 20.25 -22.15 20.45 -22.3 21.45 -22.3 22.4 -21.95 Q22.9 -21.6 23.45 -21.4 L23.6 -21.25 24.15 -21.1 24.65 -20.8 24.8 -20.65 23.25 -20.4 20.5 -19.9 20.15 -19.65 18.9 -18.45 18.1 -17.9 18.05 -17.75 17.85 -17.45 17.7 -17.3 17.7 -17.15 17.7 -17.0 17.65 -16.85 17.55 -16.7 17.5 -16.6 17.6 -16.5 18.05 -16.45 18.2 -16.6 18.2 -16.7 18.2 -16.85 18.65 -17.5 Q19.55 -18.4 20.75 -18.9 21.15 -19.05 21.45 -19.4 24.1 -19.7 26.5 -18.85 L26.6 -18.75 26.65 -18.6 27.2 -18.3 27.45 -18.15 28.5 -18.15 28.65 -18.35 28.65 -18.45 28.65 -18.6 28.7 -18.75 28.8 -18.9 28.8 -19.05 28.8 -19.2 28.7 -19.35 Q28.1 -19.4 27.8 -19.9 L26.9 -21.0 26.3 -21.55 26.3 -21.7 26.3 -21.85 26.25 -22.0 25.95 -22.25 25.45 -22.8 25.25 -23.3 25.25 -23.4 25.15 -23.55 25.15 -23.6 25.1 -23.75 24.95 -23.85 24.95 -23.9 Q24.85 -24.5 25.1 -25.05 L25.8 -26.1 26.1 -26.8 26.3 -26.85 26.65 -26.95 27.35 -27.5 27.65 -27.45 27.65 -27.5 27.65 -27.6 28.55 -27.6 31.8 -26.6 31.9 -26.55 32.0 -26.45 32.1 -26.3 34.1 -25.5 35.15 -25.3 35.35 -25.4 35.4 -25.5 35.4 -25.7 35.35 -25.8 35.05 -26.1 35.0 -26.25 34.45 -26.55 34.3 -26.7 33.65 -26.95 33.55 -27.05 33.1 -27.2 Q30.75 -28.15 28.2 -28.25 29.05 -29.4 27.65 -32.5 L26.55 -34.55 24.9 -37.45 Q24.6 -38.1 24.65 -38.8 24.8 -41.4 27.55 -42.0 L29.15 -42.35 Q33.3 -42.4 35.15 -38.95 36.5 -36.35 36.65 -33.35 L36.85 -30.45 Q37.15 -25.6 36.3 -21.05 L36.2 -20.75 Q34.85 -15.55 30.1 -13.0 28.05 -11.9 25.65 -11.5 18.5 -10.35 12.2 -13.1 11.1 -13.25 10.25 -13.95 9.75 -14.4 9.55 -15.0 7.1 -17.25 7.35 -20.8 L7.45 -22.1 M25.25 -24.8 L25.15 -24.75 25.15 -24.65 25.15 -24.5 25.2 -24.45 25.25 -24.8 M27.35 -25.25 L27.3 -25.1 27.45 -24.85 27.45 -25.05 27.55 -25.1 27.5 -25.35 27.45 -25.4 27.35 -25.25 M25.75 -21.65 L25.8 -21.55 25.7 -21.6 25.45 -21.8 25.45 -22.0 25.6 -21.95 25.65 -21.8 25.75 -21.65" fill="#ffe3bd" fill-rule="evenodd" stroke="none"/>
    <path d="M7.65 -23.1 L7.8 -23.2 8.2 -22.5 8.25 -22.4 9.3 -21.95 Q10.85 -21.75 12.15 -22.6 12.4 -23.1 12.45 -23.75 L12.45 -23.9 12.65 -24.05 12.65 -25.6 12.65 -25.9 12.9 -26.15 13.2 -26.1 13.35 -25.95 13.35 -25.8 13.35 -25.7 Q15.05 -23.75 17.75 -24.7 18.55 -25.3 19.0 -26.15 L19.05 -26.6 19.05 -26.75 19.6 -26.9 19.75 -26.75 19.75 -26.0 19.75 -25.85 19.9 -25.6 19.9 -25.3 19.9 -25.15 Q20.25 -24.6 21.1 -24.5 L24.45 -24.6 24.45 -25.0 24.55 -25.15 24.7 -25.4 24.8 -25.6 24.85 -25.7 24.85 -25.85 24.85 -26.0 25.4 -26.5 26.4 -27.75 27.25 -28.3 28.05 -28.25 28.2 -28.25 Q30.75 -28.15 33.1 -27.2 L33.55 -27.05 33.65 -26.95 34.3 -26.7 34.45 -26.55 35.0 -26.25 35.05 -26.1 35.35 -25.8 35.4 -25.7 35.4 -25.5 35.35 -25.4 35.15 -25.3 34.1 -25.5 32.1 -26.3 32.0 -26.45 31.9 -26.55 31.8 -26.6 28.55 -27.6 27.65 -27.6 27.65 -27.5 27.65 -27.45 27.35 -27.5 26.65 -26.95 26.3 -26.85 26.1 -26.8 25.8 -26.1 25.1 -25.05 Q24.85 -24.5 24.95 -23.9 L24.95 -23.85 25.1 -23.75 25.15 -23.6 25.15 -23.55 25.25 -23.4 25.25 -23.3 25.45 -22.8 25.95 -22.25 26.25 -22.0 26.3 -21.85 26.3 -21.7 26.3 -21.55 26.9 -21.0 27.8 -19.9 Q28.1 -19.4 28.7 -19.35 L28.8 -19.2 28.8 -19.05 28.8 -18.9 28.7 -18.75 28.65 -18.6 28.65 -18.45 28.65 -18.35 28.5 -18.15 27.45 -18.15 27.2 -18.3 26.65 -18.6 26.6 -18.75 26.5 -18.85 Q24.1 -19.7 21.45 -19.4 21.15 -19.05 20.75 -18.9 19.55 -18.4 18.65 -17.5 L18.2 -16.85 18.2 -16.7 18.2 -16.6 18.05 -16.45 17.6 -16.5 17.5 -16.6 17.55 -16.7 17.65 -16.85 17.7 -17.0 17.7 -17.15 17.7 -17.3 17.85 -17.45 18.05 -17.75 18.1 -17.9 18.9 -18.45 20.15 -19.65 20.5 -19.9 23.25 -20.4 24.8 -20.65 24.65 -20.8 24.15 -21.1 23.6 -21.25 23.45 -21.4 Q22.9 -21.6 22.4 -21.95 L21.45 -22.3 20.45 -22.3 20.25 -22.15 20.2 -22.05 18.55 -22.05 Q16.85 -23.4 14.75 -22.4 L14.7 -22.25 14.65 -21.95 14.5 -21.8 14.5 -21.65 14.45 -21.5 13.2 -20.5 9.9 -20.15 10.05 -19.95 Q8.85 -19.05 8.2 -17.8 L7.75 -17.8 7.45 -21.0 7.55 -21.85 7.45 -22.1 7.45 -22.15 7.45 -22.85 7.45 -23.0 7.65 -23.1 M25.25 -24.8 L25.2 -24.45 25.15 -24.5 25.15 -24.65 25.15 -24.75 25.25 -24.8 M27.35 -25.25 L27.45 -25.4 27.5 -25.35 27.55 -25.1 27.45 -25.05 27.45 -24.85 27.3 -25.1 27.35 -25.25 M25.75 -21.65 L25.65 -21.8 25.6 -21.95 25.45 -22.0 25.45 -21.8 25.7 -21.6 25.8 -21.55 25.75 -21.65" fill="#ffca9a" fill-rule="evenodd" stroke="none"/>
  </g>
</svg>
