<?xml version="1.0" encoding="UTF-8" standalone="no"?>
<svg xmlns:ffdec="https://www.free-decompiler.com/flash" xmlns:xlink="http://www.w3.org/1999/xlink" ffdec:objectType="shape" height="74.85px" width="58.85px" xmlns="http://www.w3.org/2000/svg">
  <g transform="matrix(1.0, 0.0, 0.0, 1.0, 29.25, 39.95)">
    <path d="M15.65 -20.3 L14.65 -20.2 14.4 -20.7 15.5 -20.4 15.65 -20.3" fill="#039d0a" fill-rule="evenodd" stroke="none"/>
    <path d="M25.45 4.1 L24.8 9.8 23.45 17.4 Q22.8 19.55 20.4 24.3 L18.8 26.2 Q12.45 33.15 8.1 30.1 5.65 28.4 3.75 24.0 2.15 20.05 1.85 16.3 1.15 8.4 3.45 -4.15 4.35 -9.2 5.45 -13.55 L26.7 -10.2 26.7 -10.1 25.45 4.1" fill="#16b114" fill-rule="evenodd" stroke="none"/>
    <path d="M25.45 4.1 L26.7 -10.1 26.7 -10.2 27.15 -10.15 Q26.45 -2.5 25.45 4.1 M5.45 -13.55 Q4.35 -9.2 3.45 -4.15 1.15 8.4 1.85 16.3 2.15 20.05 3.75 24.0 5.65 28.4 8.1 30.1 12.45 33.15 18.8 26.2 12.85 36.65 3.3 29.55 -6.5 22.35 1.45 -9.15 L2.45 -14.05 5.45 -13.55" fill="#039d0a" fill-rule="evenodd" stroke="none"/>
    <path d="M2.05 -13.65 L1.95 -14.25 Q1.45 -18.15 4.05 -21.3 6.6 -24.45 9.7 -25.55 L19.25 -25.85 18.5 -25.55 17.9 -24.75 17.4 -23.2 17.05 -22.6 17.1 -22.45 17.2 -22.3 17.2 -22.15 17.15 -21.9 17.1 -21.6 17.1 -21.5 17.25 -21.1 Q15.8 -20.2 14.1 -19.8 L12.8 -19.95 12.75 -20.1 12.65 -20.4 12.3 -20.6 12.25 -20.75 12.0 -21.4 11.85 -21.5 11.4 -21.15 11.45 -21.0 11.55 -20.65 Q11.4 -19.65 10.95 -18.8 8.75 -16.95 6.45 -18.1 L6.4 -18.25 6.35 -18.4 6.2 -18.45 5.85 -18.45 5.75 -18.1 5.85 -17.8 6.4 -16.35 6.3 -16.15 6.35 -16.0 6.45 -14.85 Q5.55 -13.55 4.0 -13.2 L2.9 -13.25 2.8 -13.3 2.2 -13.8 2.05 -13.65 M19.35 -25.85 Q19.75 -27.2 17.35 -29.65 L15.6 -31.15 Q14.2 -32.1 12.95 -33.25 12.5 -33.75 12.3 -34.45 11.5 -36.9 13.85 -38.45 L15.25 -39.35 Q19.1 -40.9 22.05 -38.3 24.3 -36.35 25.45 -33.65 L26.7 -31.0 Q28.7 -26.6 29.55 -22.05 L29.5 -21.7 Q30.1 -16.4 26.65 -12.3 25.1 -10.6 23.0 -9.3 16.75 -5.7 9.9 -6.0 L7.75 -6.1 6.7 -6.8 Q3.65 -8.0 2.6 -11.4 L2.2 -12.7 2.4 -12.5 2.6 -11.65 4.0 -8.75 4.45 -8.9 Q4.65 -10.35 5.45 -11.65 L5.2 -11.7 Q6.45 -12.85 8.2 -13.25 L9.0 -14.65 9.0 -14.75 8.95 -14.9 9.05 -15.15 8.95 -15.4 8.95 -15.55 Q10.5 -17.25 12.65 -16.65 L14.15 -17.2 14.2 -17.3 14.3 -17.5 15.25 -17.85 16.2 -17.9 16.25 -17.9 17.35 -17.75 17.6 -17.7 18.2 -17.75 18.75 -17.6 18.95 -17.55 17.6 -16.75 Q16.5 -15.95 15.2 -15.3 L14.95 -14.95 14.2 -13.4 13.7 -12.55 13.65 -12.45 13.6 -12.05 13.5 -11.85 13.55 -11.75 13.6 -11.6 13.65 -11.45 13.6 -11.25 13.6 -11.15 Q13.65 -11.05 13.75 -11.1 L14.15 -11.2 14.25 -11.4 14.2 -11.5 14.15 -11.65 14.3 -12.4 Q14.85 -13.6 15.75 -14.45 L16.25 -15.15 Q18.65 -16.4 21.2 -16.45 L21.25 -16.4 21.4 -16.3 22.05 -16.2 22.35 -16.15 23.3 -16.55 23.35 -16.75 23.3 -16.9 23.25 -17.05 23.25 -17.15 23.3 -17.35 23.25 -17.5 23.2 -17.6 23.05 -17.7 Q22.45 -17.55 22.0 -17.95 L20.75 -18.6 20.0 -18.95 19.95 -19.05 19.9 -19.2 19.8 -19.35 19.45 -19.45 Q19.05 -19.55 18.75 -19.8 L18.4 -20.15 18.35 -20.25 18.25 -20.35 18.25 -20.4 18.15 -20.5 17.95 -20.6 Q17.6 -21.2 17.65 -21.75 L17.9 -22.95 18.0 -23.75 18.1 -23.9 18.45 -24.05 18.9 -24.85 19.15 -24.9 19.15 -24.95 19.15 -25.0 19.1 -25.05 19.95 -25.35 23.35 -25.55 23.45 -25.6 23.55 -25.55 23.75 -25.4 25.85 -25.4 27.0 -25.55 27.05 -25.7 27.1 -25.9 27.05 -26.0 26.9 -26.1 26.55 -26.3 26.45 -26.4 25.8 -26.5 25.65 -26.55 24.95 -26.6 24.8 -26.65 24.35 -26.65 Q21.8 -26.7 19.35 -25.85 M17.85 -21.55 L17.8 -21.55 17.85 -21.4 17.9 -21.3 18.0 -21.25 17.85 -21.55 M19.7 -22.75 L19.65 -22.6 19.95 -22.4 19.85 -22.6 19.9 -22.7 19.8 -22.95 19.7 -22.9 19.7 -22.75 M19.45 -18.8 L19.5 -18.75 19.45 -18.75 19.15 -18.85 19.05 -19.05 19.25 -19.05 19.35 -18.9 19.45 -18.8" fill="#ffe3bd" fill-rule="evenodd" stroke="none"/>
    <path d="M2.2 -12.7 L1.95 -13.4 1.9 -13.55 2.05 -13.65 2.2 -13.8 2.8 -13.3 2.9 -13.25 4.0 -13.2 Q5.55 -13.55 6.45 -14.85 L6.35 -16.0 6.3 -16.15 6.4 -16.35 5.85 -17.8 5.75 -18.1 5.85 -18.45 6.2 -18.45 6.35 -18.4 6.4 -18.25 6.45 -18.1 Q8.75 -16.95 10.95 -18.8 11.4 -19.65 11.55 -20.65 L11.45 -21.0 11.4 -21.15 11.85 -21.5 12.0 -21.4 12.25 -20.75 12.3 -20.6 12.65 -20.4 12.75 -20.1 12.8 -19.95 14.1 -19.8 Q15.8 -20.2 17.25 -21.1 L17.1 -21.5 17.1 -21.6 17.15 -21.9 17.2 -22.15 17.2 -22.3 17.1 -22.45 17.05 -22.6 17.4 -23.2 17.9 -24.75 18.5 -25.55 19.25 -25.85 19.35 -25.85 Q21.8 -26.7 24.35 -26.65 L24.8 -26.65 24.95 -26.6 25.65 -26.55 25.8 -26.5 26.45 -26.4 26.55 -26.3 26.9 -26.1 27.05 -26.0 27.1 -25.9 27.05 -25.7 27.0 -25.55 25.85 -25.4 23.75 -25.4 23.55 -25.55 23.45 -25.6 23.35 -25.55 19.95 -25.35 19.1 -25.05 19.15 -25.0 19.15 -24.95 19.15 -24.9 18.9 -24.85 18.45 -24.05 18.1 -23.9 18.0 -23.75 17.9 -22.95 17.65 -21.75 Q17.6 -21.2 17.95 -20.6 L18.15 -20.5 18.25 -20.4 18.25 -20.35 18.35 -20.25 18.4 -20.15 18.75 -19.8 Q19.05 -19.55 19.45 -19.45 L19.8 -19.35 19.9 -19.2 19.95 -19.05 20.0 -18.95 20.75 -18.6 22.0 -17.95 Q22.45 -17.55 23.05 -17.7 L23.2 -17.6 23.25 -17.5 23.3 -17.35 23.25 -17.15 23.25 -17.05 23.3 -16.9 23.35 -16.75 23.3 -16.55 22.35 -16.15 22.05 -16.2 21.4 -16.3 21.25 -16.4 21.2 -16.45 Q18.65 -16.4 16.25 -15.15 L15.75 -14.45 Q14.85 -13.6 14.3 -12.4 L14.15 -11.65 14.2 -11.5 14.25 -11.4 14.15 -11.2 13.75 -11.1 Q13.65 -11.05 13.6 -11.15 L13.6 -11.25 13.65 -11.45 13.6 -11.6 13.55 -11.75 13.5 -11.85 13.6 -12.05 13.65 -12.45 13.7 -12.55 14.2 -13.4 14.95 -14.95 15.2 -15.3 Q16.5 -15.95 17.6 -16.75 L18.95 -17.55 18.75 -17.6 18.2 -17.75 17.6 -17.7 17.35 -17.75 16.25 -17.9 16.2 -17.9 15.25 -17.85 14.3 -17.5 14.2 -17.3 14.15 -17.2 12.65 -16.65 Q10.5 -17.25 8.95 -15.55 L8.95 -15.4 9.05 -15.15 8.95 -14.9 9.0 -14.75 9.0 -14.65 8.2 -13.25 Q6.45 -12.85 5.2 -11.7 L5.45 -11.65 Q4.65 -10.35 4.45 -8.9 L4.0 -8.75 2.6 -11.65 2.4 -12.5 2.2 -12.7 M17.85 -21.55 L18.0 -21.25 17.9 -21.3 17.85 -21.4 17.8 -21.55 17.85 -21.55 M19.7 -22.75 L19.7 -22.9 19.8 -22.95 19.9 -22.7 19.85 -22.6 19.95 -22.4 19.65 -22.6 19.7 -22.75 M19.45 -18.8 L19.35 -18.9 19.25 -19.05 19.05 -19.05 19.15 -18.85 19.45 -18.75 19.5 -18.75 19.45 -18.8" fill="#ffca9a" fill-rule="evenodd" stroke="none"/>
    <path d="M10.55 32.05 L10.65 32.35 2.3 33.4 10.55 32.05 M-20.75 32.75 Q-32.4 29.6 -28.05 18.7 -24.1 8.45 2.7 7.0 L3.75 10.05 Q-8.4 11.1 -15.6 13.8 -19.15 15.05 -22.5 17.65 -26.35 20.55 -27.35 23.45 -29.15 28.4 -20.75 32.75" fill="#039d0a" fill-rule="evenodd" stroke="none"/>
    <path d="M10.55 32.05 L2.3 33.4 -3.4 34.3 -11.1 34.9 -18.6 33.8 -20.75 32.75 Q-29.15 28.4 -27.35 23.45 -26.35 20.55 -22.5 17.65 -19.15 15.05 -15.6 13.8 -8.4 11.1 3.75 10.05 L7.75 22.25 10.55 32.05" fill="#16b114" fill-rule="evenodd" stroke="none"/>
  </g>
</svg>
