<?xml version="1.0" encoding="UTF-8" standalone="no"?>
<svg xmlns:ffdec="https://www.free-decompiler.com/flash" xmlns:xlink="http://www.w3.org/1999/xlink" ffdec:objectType="shape" height="437.2px" width="424.3px" xmlns="http://www.w3.org/2000/svg">
  <g transform="matrix(1.0, 0.0, 0.0, 1.0, 294.75, 136.35)">
    <path d="M-35.8 133.0 L-28.85 128.95 Q-19.4 123.5 -0.95 125.6 13.95 127.35 26.45 132.4 35.55 136.1 39.9 139.35 45.65 143.6 49.3 150.7 55.8 163.4 56.1 179.75 L56.2 196.3 Q56.55 201.7 55.75 203.2 54.7 205.3 50.05 206.4 L30.5 207.05 10.8 205.05 -30.2 203.1 -48.0 202.7 Q-59.1 202.3 -65.55 200.65 -65.0 178.1 -60.2 161.9 -52.6 136.5 -35.8 133.0" fill="#16b114" fill-rule="evenodd" stroke="none"/>
    <path d="M-17.0 172.15 Q-17.0 174.25 -18.5 175.8 -20.0 177.3 -22.1 177.3 -24.2 177.3 -25.7 175.8 -27.2 174.25 -27.2 172.15 -27.2 170.05 -25.7 168.6 -24.2 167.1 -22.1 167.1 -20.0 167.1 -18.5 168.6 -17.0 170.05 -17.0 172.15" fill="#039d0a" fill-rule="evenodd" stroke="none"/>
    <path d="M-17.0 186.65 Q-17.0 188.75 -18.5 190.25 -20.0 191.75 -22.1 191.75 -24.2 191.75 -25.7 190.25 -27.2 188.75 -27.2 186.65 -27.2 184.55 -25.7 183.05 -24.2 181.55 -22.1 181.55 -20.0 181.55 -18.5 183.05 -17.0 184.55 -17.0 186.65" fill="#039d0a" fill-rule="evenodd" stroke="none"/>
    <path d="M15.45 172.15 Q15.45 174.25 13.95 175.8 12.45 177.3 10.35 177.3 8.25 177.3 6.75 175.8 5.3 174.25 5.3 172.15 5.3 170.05 6.75 168.6 8.25 167.1 10.35 167.1 12.45 167.1 13.95 168.6 15.45 170.05 15.45 172.15" fill="#039d0a" fill-rule="evenodd" stroke="none"/>
    <path d="M15.45 186.65 Q15.45 188.75 13.95 190.25 12.45 191.75 10.35 191.75 8.25 191.75 6.75 190.25 5.3 188.75 5.3 186.65 5.3 184.55 6.75 183.05 8.25 181.55 10.35 181.55 12.45 181.55 13.95 183.05 15.45 184.55 15.45 186.65" fill="#039d0a" fill-rule="evenodd" stroke="none"/>
    <path d="M-8.85 158.75 Q-11.95 164.8 -21.1 167.2 -29.95 169.45 -36.2 166.4 -43.45 162.85 -44.5 153.1 -45.4 144.6 -41.6 137.15 L31.0 135.85 Q39.3 134.25 47.65 150.45 53.45 161.9 54.6 171.7 L56.8 192.2 57.1 197.15 Q57.0 200.15 55.55 201.2 54.75 201.75 50.6 201.85 L45.6 201.6 Q45.5 199.8 45.9 195.65 46.35 191.75 46.1 189.5 L44.0 177.45 Q43.6 174.4 40.25 170.0 36.25 164.8 32.8 166.75 27.9 169.45 23.4 169.35 20.15 169.25 13.2 167.15 11.3 166.6 7.5 163.0 3.85 159.55 1.9 159.25 0.55 159.0 -3.3 159.25 L-8.85 158.75" fill="#039d0a" fill-rule="evenodd" stroke="none"/>
    <path d="M-12.1 291.0 Q-11.4 295.2 -16.8 297.95 -21.6 300.45 -28.95 300.8 -36.35 301.1 -41.65 299.15 -47.5 296.9 -47.7 292.65 -47.85 288.9 -42.45 286.25 -37.5 283.8 -30.4 283.3 -23.2 282.8 -18.1 284.65 -12.4 286.75 -12.1 291.0" fill="#000104" fill-rule="evenodd" stroke="none"/>
    <path d="M-25.0 282.8 Q-24.95 281.0 -25.9 271.05 -26.55 263.8 -25.3 259.6 L-19.95 260.35 -14.7 260.1 Q-13.75 268.0 -15.35 285.05 -17.9 288.2 -21.15 288.2 -23.15 288.2 -24.3 285.55 L-25.0 282.8" fill="#ffd09b" fill-rule="evenodd" stroke="none"/>
    <path d="M6.0 291.0 Q6.35 286.75 12.05 284.65 17.1 282.8 24.3 283.3 31.45 283.8 36.35 286.25 41.8 288.9 41.6 292.65 41.45 296.9 35.6 299.15 30.25 301.1 22.9 300.8 15.5 300.45 10.7 297.95 5.35 295.2 6.0 291.0" fill="#000104" fill-rule="evenodd" stroke="none"/>
    <path d="M18.9 282.8 Q18.3 288.2 15.0 288.2 13.0 288.2 10.9 286.65 L9.2 285.05 Q7.65 268.0 8.6 260.1 12.25 261.25 19.2 259.6 20.5 263.8 19.8 271.05 18.85 281.15 18.9 282.8" fill="#ffd09b" fill-rule="evenodd" stroke="none"/>
    <path d="M-38.3 225.7 L-5.8 222.1 Q-8.8 232.7 -7.8 249.45 -6.65 269.8 -7.45 276.75 -10.3 277.3 -15.25 276.8 L-23.1 276.2 -39.5 276.9 Q-40.45 267.6 -39.3 251.3 -38.0 232.95 -38.3 225.7" fill="#634301" fill-rule="evenodd" stroke="none"/>
    <path d="M-0.75 225.7 L31.7 222.1 Q28.65 232.7 29.65 249.45 30.9 269.9 30.1 276.75 27.25 277.3 22.3 276.8 L14.4 276.2 -1.95 276.9 Q-2.95 267.55 -1.8 251.3 -0.45 232.85 -0.75 225.7" fill="#634301" fill-rule="evenodd" stroke="none"/>
    <path d="M-8.2 150.9 Q-11.2 157.15 -17.6 161.4 -24.45 166.0 -30.95 165.1 -40.0 163.9 -43.8 157.25 -47.25 151.15 -45.6 142.0 -42.5 124.7 -25.9 128.95 -19.7 130.6 -13.8 137.15 -7.35 144.4 -8.2 150.9" fill="#f90203" fill-rule="evenodd" stroke="none"/>
    <path d="M-26.35 129.65 Q-24.2 130.45 -21.2 131.05 -15.55 133.4 -9.65 142.85 -7.4 146.5 -9.8 152.55 -12.05 157.95 -15.95 161.2 -19.65 164.3 -25.0 165.25 L-34.95 164.85 Q-40.05 163.5 -42.75 160.1 -45.85 156.35 -45.25 150.95 -41.95 158.55 -39.85 160.45 -35.75 164.15 -27.05 162.2 -24.2 161.55 -19.25 156.6 -13.85 151.1 -16.45 148.8 -17.7 147.7 -22.15 149.55 -26.8 151.9 -27.75 152.3 -23.3 146.35 -16.9 144.3 -19.9 141.75 -24.95 139.15 L-29.5 137.05 Q-21.0 136.75 -13.5 142.35 -15.2 135.6 -26.35 129.65" fill="#ca0002" fill-rule="evenodd" stroke="none"/>
    <path d="M0.8 150.9 Q-0.15 144.4 6.35 137.15 12.25 130.6 18.45 128.95 35.05 124.7 38.15 142.0 39.8 151.2 36.35 157.25 32.6 163.9 23.45 165.1 17.0 166.0 10.15 161.4 3.75 157.15 0.8 150.9" fill="#f90203" fill-rule="evenodd" stroke="none"/>
    <path d="M19.7 129.2 Q7.75 135.4 6.1 142.35 13.45 136.75 22.05 137.05 14.2 140.25 9.45 144.3 15.85 146.3 20.25 152.3 17.0 150.55 14.7 149.55 10.3 147.7 9.05 148.8 6.4 151.1 11.8 156.6 16.75 161.55 19.6 162.2 28.3 164.15 32.45 160.45 34.6 158.5 37.8 150.95 38.95 161.8 27.55 164.85 L17.55 165.25 Q12.2 164.3 8.5 161.2 4.55 157.95 2.4 152.55 -0.1 146.45 2.25 142.85 8.1 133.4 13.75 131.05 14.85 130.55 18.0 129.75 L19.7 129.2" fill="#ca0002" fill-rule="evenodd" stroke="none"/>
    <path d="M-9.65 156.85 Q-13.75 154.7 -14.75 150.5 -16.1 144.8 -13.0 140.7 -10.2 137.0 -5.3 136.1 -0.3 135.25 3.5 137.7 7.8 140.5 8.5 146.4 9.15 151.45 6.05 154.7 3.3 157.65 -1.35 158.25 -5.9 158.8 -9.65 156.85" fill="#ca0002" fill-rule="evenodd" stroke="none"/>
    <path d="M-10.3 154.6 Q-13.85 152.75 -14.75 149.1 -15.95 144.15 -13.25 140.6 -10.8 137.4 -6.5 136.6 -2.15 135.8 1.2 137.95 4.95 140.4 5.55 145.5 6.15 149.9 3.45 152.75 1.0 155.3 -3.0 155.8 -7.0 156.3 -10.3 154.6" fill="#f90203" fill-rule="evenodd" stroke="none"/>
    <path d="M-64.8 197.3 L-57.05 198.25 Q-51.65 198.9 -47.95 198.45 L-24.45 197.65 -0.9 197.35 Q13.7 197.15 22.55 197.65 L33.9 198.95 45.3 200.15 Q53.95 200.6 55.7 201.4 57.05 202.05 56.8 204.95 L56.0 210.95 Q55.25 217.45 55.6 230.85 56.0 244.1 55.2 250.7 34.35 250.6 -5.2 251.5 -46.4 252.45 -65.6 252.45 -67.5 248.3 -67.65 239.85 L-67.55 226.55 -67.5 211.7 Q-67.05 203.75 -64.8 197.3 M-65.6 252.45 L-65.55 252.5 -65.65 252.45 -65.6 252.45" fill="#ebebeb" fill-rule="evenodd" stroke="none"/>
    <path d="M-61.95 197.65 L-55.0 198.6 Q-50.2 199.15 -46.9 198.75 L-25.85 198.0 -4.8 197.7 Q8.4 197.55 16.15 198.0 L26.35 199.2 36.5 200.35 Q44.25 200.85 45.8 201.6 47.05 202.15 46.8 204.9 L46.1 210.55 Q45.4 216.75 45.75 229.3 46.1 241.9 45.35 248.05 26.75 247.95 -8.65 248.8 -45.5 249.75 -62.6 249.75 -64.4 245.9 -64.55 237.85 L-64.45 225.25 -64.4 211.3 Q-64.0 203.8 -61.95 197.65 M-62.6 249.75 L-62.6 249.8 -62.75 249.75 -62.6 249.75" fill="#ffffff" fill-rule="evenodd" stroke="none"/>
    <path d="M-19.15 220.9 Q-16.45 221.5 -9.5 219.75 -3.1 218.1 0.15 219.65 -1.85 222.25 -5.85 224.55 L-12.9 228.1 Q-7.25 229.15 4.4 226.45 18.15 223.3 22.1 223.2 9.0 229.5 -5.85 233.95 -23.2 239.15 -34.95 239.1 L-24.4 231.85 Q-17.9 227.4 -14.75 223.7 -18.0 224.75 -34.95 228.4 -47.4 231.1 -54.6 235.1 -51.25 230.9 -39.6 225.85 -24.85 219.55 -22.85 218.3 -15.1 213.5 1.4 207.05 L2.95 207.85 Q-4.55 210.0 -19.15 220.9" fill="#ebebeb" fill-rule="evenodd" stroke="none"/>
    <path d="M-36.8 167.85 L-33.7 162.2 Q-33.25 165.65 -35.9 174.75 -39.2 185.95 -39.6 188.45 -41.6 202.5 -43.85 208.55 L-49.95 208.4 -43.65 188.1 Q-39.8 175.8 -36.8 167.85" fill="#039d0a" fill-rule="evenodd" stroke="none"/>
    <path d="M-74.6 204.9 L-75.3 201.25 Q-75.5 193.85 -78.25 191.25 -80.35 189.05 -86.65 188.25 -90.05 187.55 -93.9 188.25 -98.5 188.9 -99.15 191.15 -99.8 193.35 -94.3 197.35 -97.65 200.55 -95.0 203.4 -92.4 206.3 -88.5 204.45 -88.3 207.15 -85.95 207.85 -83.65 208.6 -81.6 206.9 -80.95 208.55 -78.75 209.15 -76.45 209.7 -75.0 208.25 -74.15 207.45 -74.6 204.9" fill="#ffd09b" fill-rule="evenodd" stroke="none"/>
    <path d="M-80.05 208.65 Q-78.0 208.7 -79.35 204.0 -80.0 205.8 -81.65 206.9 L-81.75 206.65 -82.2 207.2 -81.65 206.9 Q-80.8 208.6 -80.05 208.65" fill="#ffbb7e" fill-rule="evenodd" stroke="none"/>
    <path d="M-91.35 203.3 Q-93.9 203.65 -95.45 202.15 -95.0 204.05 -92.9 204.85 L-89.1 204.75 -87.4 207.15 Q-86.75 206.75 -86.5 205.75 -85.95 203.8 -87.65 201.1 -88.9 202.95 -91.35 203.3" fill="#ffbb7e" fill-rule="evenodd" stroke="none"/>
    <path d="M-98.95 191.5 L-98.65 194.0 Q-98.45 194.8 -97.2 195.9 -94.3 198.55 -92.7 195.55 -98.45 194.45 -98.95 191.5" fill="#ffbb7e" fill-rule="evenodd" stroke="none"/>
    <path d="M-61.6 178.05 Q-42.85 151.35 -49.45 141.1 -59.25 125.6 -76.45 152.5 -85.3 166.55 -94.25 188.45 -89.0 191.7 -76.1 196.4 -74.05 197.1 -68.35 188.75 L-61.6 178.05" fill="#039d0a" fill-rule="evenodd" stroke="none"/>
    <path d="M-63.55 140.85 Q-67.55 144.5 -68.85 146.3 -70.0 147.75 -72.85 152.95 L-81.8 170.85 Q-88.75 185.4 -89.75 189.0 -89.95 189.85 -87.6 190.85 -85.2 191.95 -81.85 192.4 -73.0 193.8 -69.8 190.05 -63.9 183.4 -57.95 173.55 -51.25 162.65 -49.1 155.05 -48.1 151.4 -48.2 147.15 -48.3 142.35 -50.0 139.9 -53.35 134.95 -63.55 140.85" fill="#16b114" fill-rule="evenodd" stroke="none"/>
    <path d="M68.9 197.55 Q72.7 192.5 75.7 191.7 79.35 190.65 85.8 194.15 L89.35 195.45 Q91.85 196.3 92.1 197.4 92.6 199.35 91.0 201.05 89.4 202.7 87.55 202.5 88.05 205.1 86.25 206.7 84.45 208.4 82.0 207.15 81.65 211.5 77.85 212.35 74.05 213.25 72.95 208.7 66.8 211.45 65.15 209.75 63.6 208.15 65.25 203.85 66.7 200.2 68.9 197.55" fill="#ffd09b" fill-rule="evenodd" stroke="none"/>
    <path d="M87.25 202.45 L87.55 202.5 Q87.4 200.5 86.2 199.0 90.85 200.4 89.85 201.95 89.4 202.85 87.55 202.5 L87.55 203.15 87.25 202.45" fill="#ffbb7e" fill-rule="evenodd" stroke="none"/>
    <path d="M79.5 204.85 Q84.7 204.6 84.95 207.65 L82.0 207.9 Q81.85 209.85 80.2 211.25 78.45 212.7 76.55 212.05 78.65 211.5 79.55 209.15 80.5 206.85 79.5 204.85" fill="#ffbb7e" fill-rule="evenodd" stroke="none"/>
    <path d="M72.2 206.5 Q74.0 209.3 70.2 210.45 68.7 211.0 67.85 210.75 L65.7 209.8 Q68.45 210.8 72.2 206.5" fill="#ffbb7e" fill-rule="evenodd" stroke="none"/>
    <path d="M72.6 170.65 L78.5 182.0 Q82.95 191.05 81.3 192.45 70.9 201.25 65.3 204.2 50.75 185.55 43.1 170.8 28.35 142.5 46.7 141.75 58.9 141.2 72.6 170.65" fill="#039d0a" fill-rule="evenodd" stroke="none"/>
    <path d="M36.7 156.55 Q36.7 144.8 42.65 144.35 45.65 144.1 49.9 146.4 53.65 148.45 56.25 151.15 61.75 156.85 67.9 168.0 73.45 178.15 76.2 186.5 77.8 191.2 72.25 198.2 70.15 200.8 68.0 202.4 65.9 203.95 65.3 203.35 62.7 200.7 53.6 187.3 45.65 175.75 42.5 170.6 L38.75 163.85 Q37.9 161.8 36.7 156.55" fill="#16b114" fill-rule="evenodd" stroke="none"/>
    <path d="M-74.65 188.7 L-75.65 174.2 -76.95 159.25 Q-77.65 152.8 -78.2 150.55 -78.5 149.55 -81.6 149.9 -84.7 150.25 -88.5 151.75 -96.5 154.85 -98.8 159.25 -99.4 160.3 -99.6 161.5 L-100.4 165.8 -100.3 163.65 -99.9 159.25 Q-98.9 151.5 -96.85 151.1 -80.65 148.2 -73.25 148.45 L-71.9 159.25 Q-70.4 172.45 -70.1 183.6 L-74.65 188.7" fill="#039d0a" fill-rule="evenodd" stroke="none"/>
    <path d="M-100.4 165.8 L-99.6 161.5 Q-99.4 160.3 -98.8 159.25 -96.5 154.85 -88.5 151.75 -84.7 150.25 -81.6 149.9 -78.5 149.55 -78.2 150.55 -77.65 152.8 -76.95 159.25 L-75.65 174.2 -74.65 188.7 Q-80.95 195.4 -88.25 201.0 -95.9 197.6 -102.05 192.05 L-102.0 185.7 Q-101.8 174.65 -100.4 165.8" fill="#16b114" fill-rule="evenodd" stroke="none"/>
    <path d="M-71.15 141.0 Q-69.9 141.75 -69.9 143.45 -69.95 145.1 -71.25 148.9 -72.6 152.7 -77.95 155.25 -87.95 156.2 -96.05 155.15 -104.15 154.1 -103.2 148.95 -102.4 144.4 -103.5 143.2 -105.5 140.8 -105.05 139.45 -104.45 137.1 -101.75 136.3 L-100.05 136.05 Q-102.15 137.1 -97.45 137.1 L-97.35 136.9 -97.05 137.1 -96.95 136.25 -97.35 136.9 Q-96.3 133.9 -93.45 133.25 -92.45 133.05 -91.6 133.25 -91.7 133.7 -90.7 134.8 -89.75 135.85 -88.3 134.65 -88.2 135.55 -85.8 133.75 -83.45 131.95 -80.15 133.55 -81.8 131.8 -84.45 132.25 L-85.4 132.5 Q-83.6 131.8 -81.35 132.5 -76.9 133.85 -78.05 139.25 L-78.05 139.3 Q-72.4 139.8 -70.15 142.5 L-71.15 141.0 M-87.4 137.25 L-87.45 137.15 Q-88.05 136.2 -89.35 136.55 -90.0 136.55 -90.25 137.1 L-90.3 137.55 -89.55 137.7 -89.45 137.6 Q-89.0 137.45 -88.6 137.6 L-87.5 137.55 -87.4 137.35 -87.4 137.25 M-95.9 139.3 L-95.85 139.2 -95.8 139.1 -95.8 139.0 -95.8 138.9 -95.85 138.8 -95.9 138.7 -96.0 138.6 Q-96.35 138.25 -96.85 138.3 L-97.25 138.4 Q-98.1 138.6 -98.05 139.3 -97.0 139.75 -95.9 139.3 M-79.75 140.05 L-79.8 140.1 -80.05 140.35 -80.05 140.6 -80.05 140.7 -79.6 140.9 Q-79.1 140.85 -78.75 141.1 L-78.7 141.2 -78.7 141.3 -78.45 141.45 -78.25 141.55 Q-77.8 141.5 -77.85 141.05 -78.0 139.7 -79.6 140.05 L-79.75 140.05" fill="#ffd09b" fill-rule="evenodd" stroke="none"/>
    <path d="M-71.15 141.0 L-70.15 142.5 Q-72.4 139.8 -78.05 139.3 L-78.05 139.25 Q-76.9 138.45 -74.55 138.95 -72.65 139.35 -71.9 140.1 L-71.15 141.0 M-85.4 132.5 L-84.45 132.25 Q-81.8 131.8 -80.15 133.55 -83.45 131.95 -85.8 133.75 -88.2 135.55 -88.3 134.65 -89.75 135.85 -90.7 134.8 -91.7 133.7 -91.6 133.25 L-91.55 133.15 -91.0 133.4 -90.4 133.7 -88.3 134.65 Q-87.25 133.1 -85.4 132.5 M-97.35 136.9 L-96.95 136.25 -97.05 137.1 -97.35 136.9 -97.45 137.1 Q-102.15 137.1 -100.05 136.05 -99.2 135.6 -97.35 136.9 M-95.9 139.3 Q-97.0 139.75 -98.05 139.3 -98.1 138.6 -97.25 138.4 L-96.85 138.3 Q-96.35 138.25 -96.0 138.6 L-95.9 138.7 -95.85 138.8 -95.8 138.9 -95.8 139.0 -95.8 139.1 -95.85 139.2 -95.9 139.3 M-87.4 137.25 L-87.4 137.35 -87.5 137.55 -88.6 137.6 Q-89.0 137.45 -89.45 137.6 L-89.55 137.7 -90.3 137.55 -90.25 137.1 Q-90.0 136.55 -89.35 136.55 -88.05 136.2 -87.45 137.15 L-87.4 137.25 M-79.75 140.05 L-79.6 140.05 Q-78.0 139.7 -77.85 141.05 -77.8 141.5 -78.25 141.55 L-78.45 141.45 -78.7 141.3 -78.7 141.2 -78.75 141.1 Q-79.1 140.85 -79.6 140.9 L-80.05 140.7 -80.05 140.6 -80.05 140.35 -79.8 140.1 -79.75 140.05" fill="#ffbb7e" fill-rule="evenodd" stroke="none"/>
    <path d="M7.5 96.45 L11.05 102.2 11.2 102.8 11.25 104.05 11.25 104.65 11.5 105.2 12.05 106.45 11.95 107.0 11.45 107.7 9.6 107.7 9.1 107.05 Q7.75 105.25 6.0 104.05 L5.85 103.5 Q4.4 101.45 2.6 99.75 L2.15 99.4 Q2.05 99.25 1.95 99.25 L-5.15 99.4 -7.85 101.35 Q-11.1 103.25 -13.65 106.05 L-14.6 105.85 -15.1 105.45 -14.95 104.9 -14.45 104.25 -14.35 103.6 -14.25 101.2 -14.25 99.4 -12.05 96.0 Q-9.6 92.25 -5.95 90.45 L1.75 90.65 Q5.25 92.9 7.5 96.45 M7.15 100.65 L7.6 100.8 7.55 100.5 7.15 100.65 M-12.1 100.85 L-12.25 101.4 -11.9 101.15 -12.1 100.85" fill="#ffca9a" fill-rule="evenodd" stroke="none"/>
    <path d="M-68.95 99.65 Q-55.45 87.4 -37.15 82.9 -20.0 78.7 -3.4 78.05 13.15 77.35 31.05 84.2 48.9 91.05 61.85 106.65" fill="none" stroke="#330000" stroke-linecap="round" stroke-linejoin="round" stroke-width="2.0"/>
    <path d="M-120.2 7.8 Q-113.5 2.5 -105.4 1.0 -96.95 -0.55 -91.7 3.1 -85.65 7.25 -86.05 17.05 L-92.0 38.35 Q-97.4 46.0 -104.85 48.1 -111.7 49.95 -118.05 46.8 -124.4 43.65 -127.4 36.9 -130.75 29.55 -128.8 20.6 -127.25 13.45 -120.2 7.8" fill="#ffe3bd" fill-rule="evenodd" stroke="none"/>
    <path d="M-113.05 13.4 Q-108.9 10.15 -103.9 9.2 -98.7 8.25 -95.45 10.55 -91.75 13.1 -92.0 19.1 L-95.65 32.25 Q-98.95 36.95 -103.6 38.3 -107.85 39.45 -111.75 37.5 -115.65 35.55 -117.5 31.4 -119.55 26.85 -118.35 21.3 -117.4 16.9 -113.05 13.4" fill="#ff9a60" fill-rule="evenodd" stroke="none"/>
    <path d="M31.5 -55.85 Q43.85 -53.05 51.8 -48.9 71.5 -44.45 81.7 -27.85 84.95 -22.55 90.05 -11.25 95.85 1.65 99.2 7.65 108.1 23.9 109.4 43.85 110.6 62.35 105.15 81.6 94.6 118.95 55.15 134.8 21.85 148.15 -19.55 142.8 -58.05 137.8 -83.1 114.35 -110.95 88.25 -108.05 50.8 -105.35 16.25 -77.15 -14.45 -50.3 -43.75 -14.5 -54.8 6.95 -61.5 31.5 -55.85" fill="#ffca9a" fill-rule="evenodd" stroke="none"/>
    <path d="M67.45 -26.7 Q70.4 -21.35 75.05 -10.1 80.45 2.8 83.45 8.8 91.65 25.05 92.8 45.05 93.9 63.55 88.95 82.8 79.35 119.85 43.05 133.95 13.6 145.45 -25.55 139.9 -61.5 134.9 -84.0 113.45 -109.55 89.1 -106.85 51.95 -104.4 17.4 -78.5 -13.3 -53.8 -42.55 -21.0 -53.65 -1.3 -60.3 21.25 -54.65 32.55 -51.9 39.9 -47.75 57.95 -43.25 67.45 -26.7" fill="#ffe3bd" fill-rule="evenodd" stroke="none"/>
    <path d="M-17.75 8.15 Q-17.75 11.3 -19.95 11.3 -22.15 11.3 -22.15 8.15 -22.15 5.05 -19.95 5.05 -17.75 5.05 -17.75 8.15" fill="#2d0a18" fill-rule="evenodd" stroke="none"/>
    <path d="M60.2 9.85 Q66.3 12.65 68.35 17.4 62.2 11.5 53.5 11.0 45.55 10.5 37.65 14.65 29.9 18.65 25.3 25.6 20.4 33.0 20.9 41.1 21.45 49.1 27.3 55.95 33.0 62.45 41.15 64.9 42.45 65.25 47.95 64.8 52.75 64.35 54.05 65.4 55.55 66.55 57.45 77.55 59.45 89.6 60.05 90.8 L47.05 71.8 Q31.65 65.9 22.15 62.35 18.35 60.9 14.6 55.45 10.55 49.45 9.6 42.55 7.05 23.95 28.1 13.85 48.05 4.25 60.2 9.85" fill="#ffca9a" fill-rule="evenodd" stroke="none"/>
    <path d="M-70.3 9.8 Q-58.15 4.25 -38.15 13.85 -17.15 23.95 -19.7 42.55 -20.65 49.45 -24.7 55.45 -28.4 60.9 -32.25 62.35 L-57.15 71.8 -70.15 90.75 Q-69.6 89.6 -67.55 77.55 -65.65 66.55 -64.15 65.4 -62.85 64.35 -58.05 64.8 -52.55 65.25 -51.2 64.9 -43.1 62.45 -37.4 55.95 -31.55 49.15 -31.0 41.1 -30.45 33.0 -35.35 25.55 -39.95 18.65 -47.75 14.6 -55.6 10.5 -63.6 10.95 -72.3 11.45 -78.45 17.4 L-76.65 14.7 Q-74.05 11.6 -70.3 9.8" fill="#ffca9a" fill-rule="evenodd" stroke="none"/>
    <path d="M-9.8 65.65 Q-23.2 63.95 -30.95 58.4 -40.55 51.5 -39.85 39.75 -39.15 28.9 -26.05 21.0 -13.75 13.5 -2.1 14.85 7.65 16.75 18.1 28.6 28.95 40.95 26.35 49.4 23.3 59.45 11.5 63.65 1.7 67.15 -9.8 65.65" fill="#ff791e" fill-rule="evenodd" stroke="none"/>
    <path d="M-11.25 61.3 Q-25.6 58.9 -30.2 56.75 -40.35 51.95 -39.8 40.8 -39.3 30.1 -26.45 21.55 -14.55 13.45 -5.4 14.85 2.6 16.85 11.2 26.95 20.55 37.85 18.65 46.1 16.35 56.05 6.1 59.85 -1.9 62.8 -11.25 61.3" fill="#ff9a00" fill-rule="evenodd" stroke="none"/>
    <path d="M127.5 53.95 Q124.45 60.75 118.15 63.9 111.8 67.05 104.95 65.15 97.45 63.05 92.05 55.45 L86.15 34.1 Q85.75 24.35 91.75 20.2 97.0 16.55 105.5 18.1 113.55 19.6 120.25 24.9 127.3 30.55 128.85 37.7 130.8 46.65 127.5 53.95" fill="#ffe3bd" fill-rule="evenodd" stroke="none"/>
    <path d="M118.4 38.4 Q119.65 43.95 117.6 48.45 115.7 52.6 111.8 54.6 107.85 56.55 103.65 55.4 99.05 54.05 95.7 49.35 L92.05 36.2 Q91.8 30.15 95.55 27.55 98.8 25.35 104.0 26.3 108.95 27.25 113.1 30.5 117.5 34.0 118.4 38.4" fill="#ff9a60" fill-rule="evenodd" stroke="none"/>
    <path d="M-14.85 -4.15 Q-15.65 -1.25 -25.7 -3.95 -35.8 -6.5 -38.7 -10.1 -37.75 -13.6 -33.8 -14.3 -30.3 -14.9 -25.55 -13.4 -21.1 -11.85 -17.9 -9.35 -14.6 -6.6 -14.85 -4.15" fill="#2d0a18" fill-rule="evenodd" stroke="none"/>
    <path d="M15.8 12.2 Q15.8 9.1 17.95 9.1 20.15 9.1 20.15 12.2 20.15 15.35 17.95 15.35 15.8 15.35 15.8 12.2" fill="#2d0a18" fill-rule="evenodd" stroke="none"/>
    <path d="M11.25 -1.35 Q11.65 -3.7 15.6 -5.5 19.3 -7.1 24.05 -7.45 29.0 -7.65 32.25 -6.2 35.9 -4.5 35.85 -0.85 32.15 1.85 21.8 1.8 11.35 1.7 11.25 -1.35" fill="#2d0a18" fill-rule="evenodd" stroke="none"/>
    <path d="M35.85 -35.25 Q21.65 -32.4 14.35 -21.85 11.9 -24.85 9.0 -24.25 6.5 -23.7 2.1 -20.1 0.8 -33.05 2.95 -49.5 -8.7 -51.3 -25.8 -44.45 -40.4 -38.7 -51.6 -30.05 -59.85 -23.7 -70.0 -5.35 -75.15 3.95 -77.9 7.95 -82.6 14.85 -87.65 18.75 -91.1 12.8 -92.0 9.3 -93.25 4.25 -91.5 -1.6 -87.5 -14.4 -76.25 -26.3 -65.1 -38.15 -49.0 -46.65 -12.9 -65.85 28.05 -60.75 63.6 -56.3 84.3 -17.85 94.65 1.4 97.9 19.75 L92.0 23.3 Q91.95 21.15 89.5 14.85 82.8 17.2 80.55 20.25 80.25 6.2 76.35 -7.05 71.35 -23.75 62.45 -30.05 50.85 -38.25 35.85 -35.25" fill="#ffca9a" fill-rule="evenodd" stroke="none"/>
    <path d="M-2.7 -41.65 Q-1.9 -52.8 9.15 -56.0 L42.3 -46.55 Q34.6 -44.05 26.65 -37.7 L12.6 -26.55 10.3 -29.7 Q8.65 -31.75 8.75 -34.2 1.95 -31.9 1.45 -22.35 -3.3 -33.6 -2.7 -41.65" fill="#5d0304" fill-rule="evenodd" stroke="none"/>
    <path d="M46.55 -43.3 L55.0 -54.65 Q66.05 -52.35 77.45 -39.9 82.55 -34.3 94.2 -17.7 101.35 -7.5 103.2 3.9 105.8 19.25 92.6 20.55 L91.4 12.1 Q90.4 7.55 88.15 5.0 87.5 6.45 85.35 9.2 83.3 11.9 82.65 13.3 84.45 -4.1 73.8 -21.15 62.95 -38.4 46.55 -43.3" fill="#5d0304" fill-rule="evenodd" stroke="none"/>
    <path d="M4.4 -63.8 L17.45 -56.0 Q9.95 -56.85 -15.15 -50.9 -40.7 -44.75 -46.6 -40.25 L-59.75 -29.55 Q-67.05 -22.7 -72.3 -13.45 -76.55 -4.1 -79.2 1.1 -84.05 10.7 -88.45 12.4 -87.6 11.05 -87.1 8.0 -86.55 4.55 -86.1 3.5 L-90.45 3.2 -94.75 2.8 Q-90.95 -12.4 -78.25 -28.95 -65.45 -45.65 -51.95 -52.6 -38.65 -59.45 -24.5 -63.05 -6.15 -67.7 4.4 -63.8" fill="#5d0304" fill-rule="evenodd" stroke="none"/>
    <path d="M6.1 -104.65 Q-2.85 -109.95 -1.85 -118.95 -0.95 -127.1 6.65 -132.45 14.65 -138.05 23.05 -135.0 32.95 -131.45 38.65 -116.6 41.5 -121.3 46.9 -124.55 52.25 -127.7 58.05 -128.4 64.15 -129.15 68.75 -126.75 73.9 -124.15 76.0 -118.25 79.6 -108.2 74.05 -99.65 68.45 -90.95 57.55 -91.3 57.55 -84.55 56.8 -70.85 56.0 -55.0 55.05 -51.3 52.95 -42.9 41.8 -39.9 33.55 -37.75 21.7 -38.75 8.55 -39.9 -1.25 -46.4 -12.7 -54.0 -8.0 -63.35 2.8 -84.75 6.1 -104.65" fill="#f90203" fill-rule="evenodd" stroke="none"/>
    <path d="M64.75 21.85 Q76.55 24.0 81.0 32.2 82.8 35.6 82.6 38.95 82.3 42.2 80.1 44.25 76.05 48.0 65.8 48.3 57.45 48.5 50.7 46.75 44.4 45.05 42.65 40.6 41.15 36.65 43.85 31.95 46.5 27.3 51.9 24.4 57.8 21.3 64.75 21.85" fill="#fca48c" fill-rule="evenodd" stroke="none"/>
    <path d="M-57.45 31.05 Q-55.65 34.4 -55.9 37.75 -56.15 41.0 -58.35 43.05 -62.4 46.8 -72.7 47.1 -81.05 47.3 -87.85 45.55 -94.15 43.85 -95.8 39.45 -97.35 35.45 -94.7 30.75 -92.0 26.15 -86.55 23.25 -80.65 20.15 -73.75 20.7 -61.9 22.85 -57.45 31.05" fill="#fca48c" fill-rule="evenodd" stroke="none"/>
    <path d="M14.0 -134.5 Q20.25 -139.15 28.9 -132.0 35.6 -126.45 39.5 -118.6 41.05 -120.55 47.05 -123.8 53.1 -127.05 55.45 -126.85 50.25 -125.55 42.35 -117.75 35.75 -111.2 32.2 -105.65 32.45 -115.55 28.45 -123.2 23.6 -132.6 14.0 -134.5" fill="#ca0002" fill-rule="evenodd" stroke="none"/>
    <path d="M37.5 -88.2 L48.15 -87.85 Q52.35 -88.55 57.95 -91.25 59.55 -87.55 57.95 -71.5 L55.9 -51.5 Q55.9 -49.25 53.1 -46.1 49.6 -42.05 43.95 -41.0 46.6 -43.3 49.0 -49.75 51.75 -56.75 52.1 -63.95 53.15 -83.3 37.5 -88.2" fill="#ca0002" fill-rule="evenodd" stroke="none"/>
    <path d="M3.5 -66.95 Q4.15 -66.8 4.3 -66.25 L4.35 -65.4 4.2 -63.4 Q4.15 -62.05 3.9 -61.55 L3.0 -61.45 Q2.45 -61.5 2.2 -61.95 L2.45 -64.55 2.4 -65.0 2.15 -65.15 -1.0 -65.4 Q-1.45 -65.85 -1.35 -66.45 -1.25 -67.15 -0.85 -67.4 L3.5 -66.95 M0.75 -63.55 L0.7 -60.3 3.35 -59.6 3.3 -58.45 2.75 -57.85 1.4 -58.15 0.2 -58.35 -1.7 -58.7 -3.85 -58.8 Q-4.15 -59.15 -4.1 -59.65 L-3.9 -60.5 -2.6 -60.65 -1.2 -60.6 -1.2 -62.25 -1.05 -63.75 Q-0.95 -64.1 -0.15 -64.0 0.75 -63.85 0.75 -63.55" fill="#ffffff" fill-rule="evenodd" stroke="none"/>
    <path d="M13.35 -63.5 L13.3 -62.55 Q13.1 -62.05 12.3 -62.05 12.05 -62.25 11.75 -62.4 L11.25 -63.0 10.85 -64.2 10.7 -65.1 Q10.7 -65.5 11.1 -65.75 L11.8 -66.05 Q12.2 -66.0 12.6 -65.1 L13.05 -64.05 13.35 -63.5 M14.5 -60.0 Q14.65 -59.1 13.9 -59.1 13.4 -58.95 12.9 -59.1 L11.9 -59.2 10.75 -59.45 9.5 -59.7 6.9 -59.95 Q6.3 -60.3 6.35 -61.15 6.45 -62.0 7.4 -61.85 L14.1 -61.05 Q14.5 -60.95 14.5 -60.0 M8.95 -55.15 L9.6 -55.65 9.95 -56.3 9.95 -56.75 Q9.75 -56.95 9.5 -56.75 L8.9 -56.35 8.5 -55.8 8.5 -55.25 Q8.55 -55.0 8.95 -55.15 M7.55 -57.65 Q8.65 -58.85 10.0 -58.85 11.0 -58.85 11.5 -58.25 L12.0 -56.8 Q12.0 -55.4 10.75 -54.2 9.6 -52.95 8.4 -52.95 7.15 -52.95 6.85 -53.75 6.5 -54.65 6.5 -55.1 6.5 -56.45 7.55 -57.65 M14.4 -49.7 L15.2 -50.25 15.55 -50.85 15.55 -51.35 15.15 -51.3 14.5 -50.9 14.15 -50.35 14.0 -49.8 Q14.0 -49.45 14.4 -49.7 M13.35 -52.5 Q14.65 -53.55 15.8 -53.4 16.75 -53.3 17.3 -52.4 17.85 -51.55 17.65 -50.8 17.5 -50.0 16.25 -48.65 15.0 -47.3 13.85 -47.4 12.55 -47.45 12.25 -48.45 L12.05 -50.0 Q12.2 -51.4 13.35 -52.5 M20.35 -61.5 Q21.05 -61.05 20.75 -60.45 L20.4 -59.6 19.7 -59.7 18.6 -59.8 18.45 -59.3 18.45 -58.65 20.2 -58.3 Q20.7 -57.8 20.65 -57.25 20.6 -56.65 20.05 -56.3 L19.0 -56.55 18.25 -56.6 18.05 -55.95 18.0 -55.3 Q17.75 -54.7 16.85 -55.05 15.95 -55.25 16.0 -55.7 L17.05 -63.45 Q17.4 -63.8 18.15 -63.75 18.9 -63.6 19.15 -63.1 18.85 -61.95 19.0 -61.85 19.15 -61.7 19.6 -61.65 L20.35 -61.5" fill="#ffffff" fill-rule="evenodd" stroke="none"/>
    <path d="M35.3 -60.4 L35.25 -59.6 35.0 -58.35 35.0 -58.1 36.05 -57.85 Q36.85 -57.7 37.25 -57.3 L37.2 -56.5 Q37.15 -56.1 36.7 -55.65 L34.7 -56.0 34.2 -53.5 33.15 -53.6 Q32.8 -53.65 32.45 -54.05 L32.45 -54.7 32.55 -55.2 33.25 -60.45 34.35 -60.7 35.3 -60.4 M29.15 -60.15 L29.4 -59.15 28.85 -56.0 Q28.7 -55.3 28.4 -55.05 28.0 -54.75 27.35 -54.75 L24.25 -54.95 Q23.55 -54.95 23.05 -55.3 22.7 -55.65 22.75 -56.45 L23.05 -58.25 23.1 -60.15 23.8 -60.8 24.7 -60.9 28.3 -60.7 Q29.0 -60.6 29.15 -60.15 M26.35 -58.8 L25.1 -58.85 24.75 -56.95 25.8 -56.85 26.8 -56.8 26.95 -56.85 27.0 -57.05 27.2 -57.85 27.25 -58.75 26.35 -58.8 M27.75 -53.45 L28.5 -52.85 28.05 -49.9 28.1 -49.7 28.3 -49.65 29.95 -49.45 31.65 -49.15 Q31.85 -48.7 31.7 -48.1 31.6 -47.45 31.2 -47.3 L28.3 -47.6 26.95 -47.75 26.25 -48.15 Q25.95 -48.4 25.95 -48.9 L26.2 -51.5 Q26.25 -52.5 26.7 -53.45 L27.75 -53.45" fill="#ffffff" fill-rule="evenodd" stroke="none"/>
    <path d="M46.75 -60.65 L42.45 -61.15 42.05 -58.45 47.15 -57.7 Q47.5 -56.75 47.1 -56.2 46.75 -55.65 46.3 -55.65 L41.9 -56.3 Q40.75 -56.35 40.3 -56.75 39.95 -57.1 40.0 -58.1 L40.25 -60.1 40.4 -61.8 Q40.4 -62.55 40.65 -62.9 40.95 -63.35 41.8 -63.25 L44.4 -62.95 47.3 -62.55 Q47.65 -62.4 47.55 -61.45 47.35 -60.6 46.75 -60.65 M39.75 -54.05 L46.8 -53.2 Q47.15 -52.9 46.9 -52.0 L46.75 -51.2 46.35 -51.2 44.45 -51.45 44.15 -48.65 Q44.15 -48.3 43.15 -48.3 42.3 -48.2 42.15 -48.8 L42.35 -50.45 42.4 -51.75 39.45 -52.0 Q38.85 -52.1 39.0 -53.1 39.2 -54.1 39.75 -54.05" fill="#ffffff" fill-rule="evenodd" stroke="none"/>
    <path d="M-61.35 100.4 Q-52.0 86.45 -33.85 81.9 -16.85 77.55 0.75 80.75 18.45 83.9 32.95 93.6 44.55 101.35 50.45 111.95" fill="none" stroke="#cc3300" stroke-linecap="round" stroke-linejoin="round" stroke-width="3.0"/>
    <path d="M-27.2 112.75 L-27.35 112.15 -27.4 111.55 -27.4 110.95 -27.4 110.35 Q-23.1 101.45 -14.9 95.45 -13.05 94.15 -11.0 93.75 -2.0 93.45 3.2 100.8 L4.0 101.55 4.65 102.7 5.55 104.45 6.2 105.75 6.25 108.75 Q6.35 111.45 5.85 114.1 L5.6 114.75 Q4.65 115.5 3.45 115.2 0.85 114.5 0.2 111.95 -1.1 110.6 -2.65 109.6 L-8.0 106.35 -17.8 106.15 -18.45 106.7 -19.05 107.1 -20.0 107.55 Q-20.3 108.5 -21.1 109.25 -22.95 110.8 -23.8 112.95 L-24.25 113.3 -24.6 113.5 -25.4 113.75 -26.55 113.25 -27.2 112.75" fill="#ffca9a" fill-rule="evenodd" stroke="none"/>
    <path d="M-216.1 -44.9 Q-183.55 -44.9 -160.55 -23.85 -137.5 -2.8 -137.5 27.0 -137.5 43.6 -144.65 57.5 -141.2 74.8 -121.1 69.35 -130.45 83.4 -142.45 82.85 -154.55 82.3 -157.5 77.9 -187.55 98.9 -216.1 98.95 -248.7 98.9 -271.75 77.85 -294.75 56.8 -294.75 27.0 -294.75 -2.8 -271.75 -23.85 -248.7 -44.9 -216.1 -44.9" fill="#eaf4ff" fill-rule="evenodd" stroke="none"/>
  </g>
</svg>
