<?xml version="1.0" encoding="UTF-8" standalone="no"?>
<svg xmlns:ffdec="https://www.free-decompiler.com/flash" xmlns:xlink="http://www.w3.org/1999/xlink" ffdec:objectType="shape" height="445.2px" width="259.05px" xmlns="http://www.w3.org/2000/svg">
  <g transform="matrix(1.0, 0.0, 0.0, 1.0, 129.5, 144.35)">
    <path d="M-35.8 133.0 L-28.85 128.95 Q-19.4 123.5 -0.95 125.6 13.95 127.35 26.45 132.4 35.55 136.1 39.9 139.35 45.65 143.6 49.3 150.7 55.8 163.4 56.1 179.75 L56.2 196.3 Q56.55 201.7 55.75 203.2 54.7 205.3 50.05 206.4 L30.5 207.05 10.8 205.05 -30.2 203.1 -48.0 202.7 Q-59.1 202.3 -65.55 200.65 -65.0 178.1 -60.2 161.9 -52.6 136.5 -35.8 133.0" fill="#16b114" fill-rule="evenodd" stroke="none"/>
    <path d="M-17.0 172.15 Q-17.0 174.25 -18.5 175.8 -20.0 177.3 -22.1 177.3 -24.2 177.3 -25.7 175.8 -27.2 174.25 -27.2 172.15 -27.2 170.05 -25.7 168.6 -24.2 167.1 -22.1 167.1 -20.0 167.1 -18.5 168.6 -17.0 170.05 -17.0 172.15" fill="#039d0a" fill-rule="evenodd" stroke="none"/>
    <path d="M-17.0 186.65 Q-17.0 188.75 -18.5 190.25 -20.0 191.75 -22.1 191.75 -24.2 191.75 -25.7 190.25 -27.2 188.75 -27.2 186.65 -27.2 184.55 -25.7 183.05 -24.2 181.55 -22.1 181.55 -20.0 181.55 -18.5 183.05 -17.0 184.55 -17.0 186.65" fill="#039d0a" fill-rule="evenodd" stroke="none"/>
    <path d="M15.45 172.15 Q15.45 174.25 13.95 175.8 12.45 177.3 10.35 177.3 8.25 177.3 6.75 175.8 5.3 174.25 5.3 172.15 5.3 170.05 6.75 168.6 8.25 167.1 10.35 167.1 12.45 167.1 13.95 168.6 15.45 170.05 15.45 172.15" fill="#039d0a" fill-rule="evenodd" stroke="none"/>
    <path d="M15.45 186.65 Q15.45 188.75 13.95 190.25 12.45 191.75 10.35 191.75 8.25 191.75 6.75 190.25 5.3 188.75 5.3 186.65 5.3 184.55 6.75 183.05 8.25 181.55 10.35 181.55 12.45 181.55 13.95 183.05 15.45 184.55 15.45 186.65" fill="#039d0a" fill-rule="evenodd" stroke="none"/>
    <path d="M-8.85 158.75 Q-11.95 164.8 -21.1 167.2 -29.95 169.45 -36.2 166.4 -43.45 162.85 -44.5 153.1 -45.4 144.6 -41.6 137.15 L31.0 135.85 Q39.3 134.25 47.65 150.45 53.45 161.9 54.6 171.7 L56.8 192.2 57.1 197.15 Q57.0 200.15 55.55 201.2 54.75 201.75 50.6 201.85 L45.6 201.6 Q45.5 199.8 45.9 195.65 46.35 191.75 46.1 189.5 L44.0 177.45 Q43.6 174.4 40.25 170.0 36.25 164.8 32.8 166.75 27.9 169.45 23.4 169.35 20.15 169.25 13.2 167.15 11.3 166.6 7.5 163.0 3.85 159.55 1.9 159.25 0.55 159.0 -3.3 159.25 L-8.85 158.75" fill="#039d0a" fill-rule="evenodd" stroke="none"/>
    <path d="M-12.1 291.0 Q-11.4 295.2 -16.8 297.95 -21.6 300.45 -28.95 300.8 -36.35 301.1 -41.65 299.15 -47.5 296.9 -47.7 292.65 -47.85 288.9 -42.45 286.25 -37.5 283.8 -30.4 283.3 -23.2 282.8 -18.1 284.65 -12.4 286.75 -12.1 291.0" fill="#000104" fill-rule="evenodd" stroke="none"/>
    <path d="M-25.0 282.8 Q-24.95 281.0 -25.9 271.05 -26.55 263.8 -25.3 259.6 L-19.95 260.35 -14.7 260.1 Q-13.75 268.0 -15.35 285.05 -17.9 288.2 -21.15 288.2 -23.15 288.2 -24.3 285.55 L-25.0 282.8" fill="#ffd09b" fill-rule="evenodd" stroke="none"/>
    <path d="M6.0 291.0 Q6.35 286.75 12.05 284.65 17.1 282.8 24.3 283.3 31.45 283.8 36.35 286.25 41.8 288.9 41.6 292.65 41.45 296.9 35.6 299.15 30.25 301.1 22.9 300.8 15.5 300.45 10.7 297.95 5.35 295.2 6.0 291.0" fill="#000104" fill-rule="evenodd" stroke="none"/>
    <path d="M18.9 282.8 Q18.3 288.2 15.0 288.2 13.0 288.2 10.9 286.65 L9.2 285.05 Q7.65 268.0 8.6 260.1 12.25 261.25 19.2 259.6 20.5 263.8 19.8 271.05 18.85 281.15 18.9 282.8" fill="#ffd09b" fill-rule="evenodd" stroke="none"/>
    <path d="M-38.3 225.7 L-5.8 222.1 Q-8.8 232.7 -7.8 249.45 -6.65 269.8 -7.45 276.75 -10.3 277.3 -15.25 276.8 L-23.1 276.2 -39.5 276.9 Q-40.45 267.6 -39.3 251.3 -38.0 232.95 -38.3 225.7" fill="#634301" fill-rule="evenodd" stroke="none"/>
    <path d="M-0.75 225.7 L31.7 222.1 Q28.65 232.7 29.65 249.45 30.9 269.9 30.1 276.75 27.25 277.3 22.3 276.8 L14.4 276.2 -1.95 276.9 Q-2.95 267.55 -1.8 251.3 -0.45 232.85 -0.75 225.7" fill="#634301" fill-rule="evenodd" stroke="none"/>
    <path d="M-8.2 150.9 Q-11.2 157.15 -17.6 161.4 -24.45 166.0 -30.95 165.1 -40.0 163.9 -43.8 157.25 -47.25 151.15 -45.6 142.0 -42.5 124.7 -25.9 128.95 -19.7 130.6 -13.8 137.15 -7.35 144.4 -8.2 150.9" fill="#f90203" fill-rule="evenodd" stroke="none"/>
    <path d="M-26.35 129.65 Q-24.2 130.45 -21.2 131.05 -15.55 133.4 -9.65 142.85 -7.4 146.5 -9.8 152.55 -12.05 157.95 -15.95 161.2 -19.65 164.3 -25.0 165.25 L-34.95 164.85 Q-40.05 163.5 -42.75 160.1 -45.85 156.35 -45.25 150.95 -41.95 158.55 -39.85 160.45 -35.75 164.15 -27.05 162.2 -24.2 161.55 -19.25 156.6 -13.85 151.1 -16.45 148.8 -17.7 147.7 -22.15 149.55 -26.8 151.9 -27.75 152.3 -23.3 146.35 -16.9 144.3 -19.9 141.75 -24.95 139.15 L-29.5 137.05 Q-21.0 136.75 -13.5 142.35 -15.2 135.6 -26.35 129.65" fill="#ca0002" fill-rule="evenodd" stroke="none"/>
    <path d="M0.8 150.9 Q-0.15 144.4 6.35 137.15 12.25 130.6 18.45 128.95 35.05 124.7 38.15 142.0 39.8 151.2 36.35 157.25 32.6 163.9 23.45 165.1 17.0 166.0 10.15 161.4 3.75 157.15 0.8 150.9" fill="#f90203" fill-rule="evenodd" stroke="none"/>
    <path d="M19.7 129.2 Q7.75 135.4 6.1 142.35 13.45 136.75 22.05 137.05 14.2 140.25 9.45 144.3 15.85 146.3 20.25 152.3 17.0 150.55 14.7 149.55 10.3 147.7 9.05 148.8 6.4 151.1 11.8 156.6 16.75 161.55 19.6 162.2 28.3 164.15 32.45 160.45 34.6 158.5 37.8 150.95 38.95 161.8 27.55 164.85 L17.55 165.25 Q12.2 164.3 8.5 161.2 4.55 157.95 2.4 152.55 -0.1 146.45 2.25 142.85 8.1 133.4 13.75 131.05 14.85 130.55 18.0 129.75 L19.7 129.2" fill="#ca0002" fill-rule="evenodd" stroke="none"/>
    <path d="M-9.65 156.85 Q-13.75 154.7 -14.75 150.5 -16.1 144.8 -13.0 140.7 -10.2 137.0 -5.3 136.1 -0.3 135.25 3.5 137.7 7.8 140.5 8.5 146.4 9.15 151.45 6.05 154.7 3.3 157.65 -1.35 158.25 -5.9 158.8 -9.65 156.85" fill="#ca0002" fill-rule="evenodd" stroke="none"/>
    <path d="M-10.3 154.6 Q-13.85 152.75 -14.75 149.1 -15.95 144.15 -13.25 140.6 -10.8 137.4 -6.5 136.6 -2.15 135.8 1.2 137.95 4.95 140.4 5.55 145.5 6.15 149.9 3.45 152.75 1.0 155.3 -3.0 155.8 -7.0 156.3 -10.3 154.6" fill="#f90203" fill-rule="evenodd" stroke="none"/>
    <path d="M-64.8 197.3 L-57.05 198.25 Q-51.65 198.9 -47.95 198.45 L-24.45 197.65 -0.9 197.35 Q13.7 197.15 22.55 197.65 L33.9 198.95 45.3 200.15 Q53.95 200.6 55.7 201.4 57.05 202.05 56.8 204.95 L56.0 210.95 Q55.25 217.45 55.6 230.85 56.0 244.1 55.2 250.7 34.35 250.6 -5.2 251.5 -46.4 252.45 -65.6 252.45 -67.5 248.3 -67.65 239.85 L-67.55 226.55 -67.5 211.7 Q-67.05 203.75 -64.8 197.3 M-65.6 252.45 L-65.55 252.5 -65.65 252.45 -65.6 252.45" fill="#ebebeb" fill-rule="evenodd" stroke="none"/>
    <path d="M-61.95 197.65 L-55.0 198.6 Q-50.2 199.15 -46.9 198.75 L-25.85 198.0 -4.8 197.7 Q8.4 197.55 16.15 198.0 L26.35 199.2 36.5 200.35 Q44.25 200.85 45.8 201.6 47.05 202.15 46.8 204.9 L46.1 210.55 Q45.4 216.75 45.75 229.3 46.1 241.9 45.35 248.05 26.75 247.95 -8.65 248.8 -45.5 249.75 -62.6 249.75 -64.4 245.9 -64.55 237.85 L-64.45 225.25 -64.4 211.3 Q-64.0 203.8 -61.95 197.65 M-62.6 249.75 L-62.6 249.8 -62.75 249.75 -62.6 249.75" fill="#ffffff" fill-rule="evenodd" stroke="none"/>
    <path d="M-19.15 220.9 Q-16.45 221.5 -9.5 219.75 -3.1 218.1 0.15 219.65 -1.85 222.25 -5.85 224.55 L-12.9 228.1 Q-7.25 229.15 4.4 226.45 18.15 223.3 22.1 223.2 9.0 229.5 -5.85 233.95 -23.2 239.15 -34.95 239.1 L-24.4 231.85 Q-17.9 227.4 -14.75 223.7 -18.0 224.75 -34.95 228.4 -47.4 231.1 -54.6 235.1 -51.25 230.9 -39.6 225.85 -24.85 219.55 -22.85 218.3 -15.1 213.5 1.4 207.05 L2.95 207.85 Q-4.55 210.0 -19.15 220.9" fill="#ebebeb" fill-rule="evenodd" stroke="none"/>
    <path d="M-36.8 167.85 L-33.7 162.2 Q-33.25 165.65 -35.9 174.75 -39.2 185.95 -39.6 188.45 -41.6 202.5 -43.85 208.55 L-49.95 208.4 -43.65 188.1 Q-39.8 175.8 -36.8 167.85" fill="#039d0a" fill-rule="evenodd" stroke="none"/>
    <path d="M-111.35 119.15 L-107.6 119.45 Q-100.45 121.15 -97.2 119.2 -94.5 117.7 -92.1 111.85 -90.65 108.7 -90.25 104.8 -89.7 100.2 -91.7 99.05 -93.7 97.85 -98.9 102.1 -101.2 98.0 -104.6 99.85 -108.1 101.65 -107.3 105.9 -110.0 105.3 -111.3 107.4 -112.55 109.5 -111.4 111.85 -113.25 112.05 -114.4 114.05 -115.5 116.15 -114.5 117.9 -113.95 118.9 -111.35 119.15" fill="#ffd09b" fill-rule="evenodd" stroke="none"/>
    <path d="M-113.5 112.9 Q-114.2 114.85 -109.25 114.85 -110.8 113.7 -111.4 111.8 L-111.15 111.8 -111.55 111.2 -111.4 111.8 Q-113.35 112.2 -113.5 112.9" fill="#ffbb7e" fill-rule="evenodd" stroke="none"/>
    <path d="M-105.45 103.4 Q-105.15 100.85 -103.3 99.7 -105.3 99.65 -106.55 101.5 -107.8 103.3 -107.4 105.2 L-110.25 106.2 Q-110.0 106.95 -109.1 107.45 -107.3 108.5 -104.25 107.55 -105.8 105.8 -105.45 103.4" fill="#ffbb7e" fill-rule="evenodd" stroke="none"/>
    <path d="M-92.1 99.15 L-94.55 98.75 Q-95.4 98.75 -96.8 99.65 -100.1 101.75 -97.65 104.05 -95.1 98.8 -92.1 99.15" fill="#ffbb7e" fill-rule="evenodd" stroke="none"/>
    <path d="M-88.75 138.7 Q-67.9 163.65 -56.2 160.0 -38.65 154.5 -60.3 130.95 -71.5 118.75 -90.4 104.45 -94.9 108.6 -102.75 119.9 -104.0 121.7 -97.4 129.35 L-88.75 138.7" fill="#039d0a" fill-rule="evenodd" stroke="none"/>
    <path d="M-52.35 146.4 Q-54.8 141.6 -56.25 139.9 -57.35 138.45 -61.6 134.25 -66.1 130.05 -76.65 121.05 -88.9 110.5 -92.05 108.6 -92.8 108.2 -94.45 110.2 -96.05 112.25 -97.45 115.35 -101.05 123.55 -98.25 127.7 -93.35 135.05 -85.4 143.4 -76.6 152.6 -69.8 156.65 -66.55 158.65 -62.4 159.55 L-54.9 159.75 Q-49.3 157.75 -52.35 146.4" fill="#16b114" fill-rule="evenodd" stroke="none"/>
    <path d="M68.9 197.55 Q72.7 192.5 75.7 191.7 79.35 190.65 85.8 194.15 L89.35 195.45 Q91.85 196.3 92.1 197.4 92.6 199.35 91.0 201.05 89.4 202.7 87.55 202.5 88.05 205.1 86.25 206.7 84.45 208.4 82.0 207.15 81.65 211.5 77.85 212.35 74.05 213.25 72.95 208.7 66.8 211.45 65.15 209.75 63.6 208.15 65.25 203.85 66.7 200.2 68.9 197.55" fill="#ffd09b" fill-rule="evenodd" stroke="none"/>
    <path d="M87.25 202.45 L87.55 202.5 Q87.4 200.5 86.2 199.0 90.85 200.4 89.85 201.95 89.4 202.85 87.55 202.5 L87.55 203.15 87.25 202.45" fill="#ffbb7e" fill-rule="evenodd" stroke="none"/>
    <path d="M79.5 204.85 Q84.7 204.6 84.95 207.65 L82.0 207.9 Q81.85 209.85 80.2 211.25 78.45 212.7 76.55 212.05 78.65 211.5 79.55 209.15 80.5 206.85 79.5 204.85" fill="#ffbb7e" fill-rule="evenodd" stroke="none"/>
    <path d="M72.2 206.5 Q74.0 209.3 70.2 210.45 68.7 211.0 67.85 210.75 L65.7 209.8 Q68.45 210.8 72.2 206.5" fill="#ffbb7e" fill-rule="evenodd" stroke="none"/>
    <path d="M72.6 170.65 L78.5 182.0 Q82.95 191.05 81.3 192.45 70.9 201.25 65.3 204.2 50.75 185.55 43.1 170.8 28.35 142.5 46.7 141.75 58.9 141.2 72.6 170.65" fill="#039d0a" fill-rule="evenodd" stroke="none"/>
    <path d="M36.7 156.55 Q36.7 144.8 42.65 144.35 45.65 144.1 49.9 146.4 53.65 148.45 56.25 151.15 61.75 156.85 67.9 168.0 73.45 178.15 76.2 186.5 77.8 191.2 72.25 198.2 70.15 200.8 68.0 202.4 65.9 203.95 65.3 203.35 62.7 200.7 53.6 187.3 45.65 175.75 42.5 170.6 L38.75 163.85 Q37.9 161.8 36.7 156.55" fill="#16b114" fill-rule="evenodd" stroke="none"/>
    <path d="M7.6 92.8 L7.55 92.5 7.15 92.65 7.6 92.8 M1.95 91.25 L-5.15 91.4 -7.85 93.35 Q-11.1 95.25 -13.65 98.05 L-14.6 97.85 -15.1 97.45 -14.95 96.9 -14.45 96.25 -14.35 95.6 -14.25 93.2 -14.25 91.4 -12.05 88.0 Q-9.6 84.25 -5.95 82.45 L1.75 82.65 Q5.25 84.9 7.5 88.45 L11.05 94.2 11.2 94.8 11.25 96.05 11.25 96.65 11.5 97.2 12.05 98.45 11.95 99.0 11.45 99.7 9.6 99.7 9.1 99.05 Q7.75 97.25 6.0 96.05 L5.85 95.5 Q4.4 93.45 2.6 91.75 L2.15 91.4 Q2.05 91.25 1.95 91.25 M-11.9 93.15 L-12.1 92.85 -12.25 93.4 -11.9 93.15" fill="#ffca9a" fill-rule="evenodd" stroke="none"/>
    <path d="M-68.95 91.65 Q-55.45 79.4 -37.15 74.9 -20.0 70.7 -3.4 70.05 13.15 69.35 31.05 76.2 48.9 83.05 61.85 98.65" fill="none" stroke="#330000" stroke-linecap="round" stroke-linejoin="round" stroke-width="2.0"/>
    <path d="M-120.2 -0.2 Q-113.5 -5.5 -105.4 -7.0 -96.95 -8.55 -91.7 -4.9 -85.65 -0.75 -86.05 9.05 L-92.0 30.35 Q-97.4 38.0 -104.85 40.1 -111.7 41.95 -118.05 38.8 -124.4 35.65 -127.4 28.9 -130.75 21.55 -128.8 12.6 -127.25 5.45 -120.2 -0.2" fill="#ffe3bd" fill-rule="evenodd" stroke="none"/>
    <path d="M-113.05 5.4 Q-108.9 2.15 -103.9 1.2 -98.7 0.25 -95.45 2.55 -91.75 5.1 -92.0 11.1 L-95.65 24.25 Q-98.95 28.95 -103.6 30.3 -107.85 31.45 -111.75 29.5 -115.65 27.55 -117.5 23.4 -119.55 18.85 -118.35 13.3 -117.4 8.9 -113.05 5.4" fill="#ff9a60" fill-rule="evenodd" stroke="none"/>
    <path d="M31.5 -63.85 Q43.85 -61.05 51.8 -56.9 71.5 -52.45 81.7 -35.85 84.95 -30.55 90.05 -19.25 95.85 -6.35 99.2 -0.35 108.1 15.9 109.4 35.85 110.6 54.35 105.15 73.6 94.6 110.95 55.15 126.8 21.85 140.15 -19.55 134.8 -58.05 129.8 -83.1 106.35 -110.95 80.25 -108.05 42.8 -105.35 8.25 -77.15 -22.45 -50.3 -51.75 -14.5 -62.8 6.95 -69.5 31.5 -63.85" fill="#ffca9a" fill-rule="evenodd" stroke="none"/>
    <path d="M67.45 -34.7 Q70.4 -29.35 75.05 -18.1 80.45 -5.2 83.45 0.8 91.65 17.05 92.8 37.05 93.9 55.55 88.95 74.8 79.35 111.85 43.05 125.95 13.6 137.45 -25.55 131.9 -61.5 126.9 -84.0 105.45 -109.55 81.1 -106.85 43.95 -104.4 9.4 -78.5 -21.3 -53.8 -50.55 -21.0 -61.65 -1.3 -68.3 21.25 -62.65 32.55 -59.9 39.9 -55.75 57.95 -51.25 67.45 -34.7" fill="#ffe3bd" fill-rule="evenodd" stroke="none"/>
    <path d="M-17.75 0.15 Q-17.75 3.3 -19.95 3.3 -22.15 3.3 -22.15 0.15 -22.15 -2.95 -19.95 -2.95 -17.75 -2.95 -17.75 0.15" fill="#2d0a18" fill-rule="evenodd" stroke="none"/>
    <path d="M60.2 1.85 Q66.3 4.65 68.35 9.4 62.2 3.5 53.5 3.0 45.55 2.5 37.65 6.65 29.9 10.65 25.3 17.6 20.4 25.0 20.9 33.1 21.45 41.1 27.3 47.95 33.0 54.45 41.15 56.9 42.45 57.25 47.95 56.8 52.75 56.35 54.05 57.4 55.55 58.55 57.45 69.55 59.45 81.6 60.05 82.8 L47.05 63.8 Q31.65 57.9 22.15 54.35 18.35 52.9 14.6 47.45 10.55 41.45 9.6 34.55 7.05 15.95 28.1 5.85 48.05 -3.75 60.2 1.85" fill="#ffca9a" fill-rule="evenodd" stroke="none"/>
    <path d="M-70.3 1.8 Q-58.15 -3.75 -38.15 5.85 -17.15 15.95 -19.7 34.55 -20.65 41.45 -24.7 47.45 -28.4 52.9 -32.25 54.35 L-57.15 63.8 -70.15 82.75 Q-69.6 81.6 -67.55 69.55 -65.65 58.55 -64.15 57.4 -62.85 56.35 -58.05 56.8 -52.55 57.25 -51.2 56.9 -43.1 54.45 -37.4 47.95 -31.55 41.15 -31.0 33.1 -30.45 25.0 -35.35 17.55 -39.95 10.65 -47.75 6.6 -55.6 2.5 -63.6 2.95 -72.3 3.45 -78.45 9.4 L-76.65 6.7 Q-74.05 3.6 -70.3 1.8" fill="#ffca9a" fill-rule="evenodd" stroke="none"/>
    <path d="M-9.8 57.65 Q-23.2 55.95 -30.95 50.4 -40.55 43.5 -39.85 31.75 -39.15 20.9 -26.05 13.0 -13.75 5.5 -2.1 6.85 7.65 8.75 18.1 20.6 28.95 32.95 26.35 41.4 23.3 51.45 11.5 55.65 1.7 59.15 -9.8 57.65" fill="#ff791e" fill-rule="evenodd" stroke="none"/>
    <path d="M-11.25 53.3 Q-25.6 50.9 -30.2 48.75 -40.35 43.95 -39.8 32.8 -39.3 22.1 -26.45 13.55 -14.55 5.45 -5.4 6.85 2.6 8.85 11.2 18.95 20.55 29.85 18.65 38.1 16.35 48.05 6.1 51.85 -1.9 54.8 -11.25 53.3" fill="#ff9a00" fill-rule="evenodd" stroke="none"/>
    <path d="M127.5 45.95 Q124.45 52.75 118.15 55.9 111.8 59.05 104.95 57.15 97.45 55.05 92.05 47.45 L86.15 26.1 Q85.75 16.35 91.75 12.2 97.0 8.55 105.5 10.1 113.55 11.6 120.25 16.9 127.3 22.55 128.85 29.7 130.8 38.65 127.5 45.95" fill="#ffe3bd" fill-rule="evenodd" stroke="none"/>
    <path d="M118.4 30.4 Q119.65 35.95 117.6 40.45 115.7 44.6 111.8 46.6 107.85 48.55 103.65 47.4 99.05 46.05 95.7 41.35 L92.05 28.2 Q91.8 22.15 95.55 19.55 98.8 17.35 104.0 18.3 108.95 19.25 113.1 22.5 117.5 26.0 118.4 30.4" fill="#ff9a60" fill-rule="evenodd" stroke="none"/>
    <path d="M-14.85 -12.15 Q-15.65 -9.25 -25.7 -11.95 -35.8 -14.5 -38.7 -18.1 -37.75 -21.6 -33.8 -22.3 -30.3 -22.9 -25.55 -21.4 -21.1 -19.85 -17.9 -17.35 -14.6 -14.6 -14.85 -12.15" fill="#2d0a18" fill-rule="evenodd" stroke="none"/>
    <path d="M15.8 4.2 Q15.8 1.1 17.95 1.1 20.15 1.1 20.15 4.2 20.15 7.35 17.95 7.35 15.8 7.35 15.8 4.2" fill="#2d0a18" fill-rule="evenodd" stroke="none"/>
    <path d="M11.25 -9.35 Q11.65 -11.7 15.6 -13.5 19.3 -15.1 24.05 -15.45 29.0 -15.65 32.25 -14.2 35.9 -12.5 35.85 -8.85 32.15 -6.15 21.8 -6.2 11.35 -6.3 11.25 -9.35" fill="#2d0a18" fill-rule="evenodd" stroke="none"/>
    <path d="M35.85 -43.25 Q21.65 -40.4 14.35 -29.85 11.9 -32.85 9.0 -32.25 6.5 -31.7 2.1 -28.1 0.8 -41.05 2.95 -57.5 -8.7 -59.3 -25.8 -52.45 -40.4 -46.7 -51.6 -38.05 -59.85 -31.7 -70.0 -13.35 -75.15 -4.05 -77.9 -0.05 -82.6 6.85 -87.65 10.75 -91.1 4.8 -92.0 1.3 -93.25 -3.75 -91.5 -9.6 -87.5 -22.4 -76.25 -34.3 -65.1 -46.15 -49.0 -54.65 -12.9 -73.85 28.05 -68.75 63.6 -64.3 84.3 -25.85 94.65 -6.6 97.9 11.75 L92.0 15.3 Q91.95 13.15 89.5 6.85 82.8 9.2 80.55 12.25 80.25 -1.8 76.35 -15.05 71.35 -31.75 62.45 -38.05 50.85 -46.25 35.85 -43.25" fill="#ffca9a" fill-rule="evenodd" stroke="none"/>
    <path d="M-2.7 -49.65 Q-1.9 -60.8 9.15 -64.0 L42.3 -54.55 Q34.6 -52.05 26.65 -45.7 L12.6 -34.55 10.3 -37.7 Q8.65 -39.75 8.75 -42.2 1.95 -39.9 1.45 -30.35 -3.3 -41.6 -2.7 -49.65" fill="#5d0304" fill-rule="evenodd" stroke="none"/>
    <path d="M46.55 -51.3 L55.0 -62.65 Q66.05 -60.35 77.45 -47.9 82.55 -42.3 94.2 -25.7 101.35 -15.5 103.2 -4.1 105.8 11.25 92.6 12.55 L91.4 4.1 Q90.4 -0.45 88.15 -3.0 87.5 -1.55 85.35 1.2 83.3 3.9 82.65 5.3 84.45 -12.1 73.8 -29.15 62.95 -46.4 46.55 -51.3" fill="#5d0304" fill-rule="evenodd" stroke="none"/>
    <path d="M4.4 -71.8 L17.45 -64.0 Q9.95 -64.85 -15.15 -58.9 -40.7 -52.75 -46.6 -48.25 L-59.75 -37.55 Q-67.05 -30.7 -72.3 -21.45 -76.55 -12.1 -79.2 -6.9 -84.05 2.7 -88.45 4.4 -87.6 3.05 -87.1 0.0 -86.55 -3.45 -86.1 -4.5 L-90.45 -4.8 -94.75 -5.2 Q-90.95 -20.4 -78.25 -36.95 -65.45 -53.65 -51.95 -60.6 -38.65 -67.45 -24.5 -71.05 -6.15 -75.7 4.4 -71.8" fill="#5d0304" fill-rule="evenodd" stroke="none"/>
    <path d="M6.1 -112.65 Q-2.85 -117.95 -1.85 -126.95 -0.95 -135.1 6.65 -140.45 14.65 -146.05 23.05 -143.0 32.95 -139.45 38.65 -124.6 41.5 -129.3 46.9 -132.55 52.25 -135.7 58.05 -136.4 64.15 -137.15 68.75 -134.75 73.9 -132.15 76.0 -126.25 79.6 -116.2 74.05 -107.65 68.45 -98.95 57.55 -99.3 57.55 -92.55 56.8 -78.85 56.0 -63.0 55.05 -59.3 52.95 -50.9 41.8 -47.9 33.55 -45.75 21.7 -46.75 8.55 -47.9 -1.25 -54.4 -12.7 -62.0 -8.0 -71.35 2.8 -92.75 6.1 -112.65" fill="#f90203" fill-rule="evenodd" stroke="none"/>
    <path d="M64.75 13.85 Q76.55 16.0 81.0 24.2 82.8 27.6 82.6 30.95 82.3 34.2 80.1 36.25 76.05 40.0 65.8 40.3 57.45 40.5 50.7 38.75 44.4 37.05 42.65 32.6 41.15 28.65 43.85 23.95 46.5 19.3 51.9 16.4 57.8 13.3 64.75 13.85" fill="#fca48c" fill-rule="evenodd" stroke="none"/>
    <path d="M-73.75 12.7 Q-61.9 14.85 -57.45 23.05 -55.65 26.4 -55.9 29.75 -56.15 33.0 -58.35 35.05 -62.4 38.8 -72.7 39.1 -81.05 39.3 -87.85 37.55 -94.15 35.85 -95.8 31.45 -97.35 27.45 -94.7 22.75 -92.0 18.15 -86.55 15.25 -80.65 12.15 -73.75 12.7" fill="#fca48c" fill-rule="evenodd" stroke="none"/>
    <path d="M14.0 -142.5 Q20.25 -147.15 28.9 -140.0 35.6 -134.45 39.5 -126.6 41.05 -128.55 47.05 -131.8 53.1 -135.05 55.45 -134.85 50.25 -133.55 42.35 -125.75 35.75 -119.2 32.2 -113.65 32.45 -123.55 28.45 -131.2 23.6 -140.6 14.0 -142.5" fill="#ca0002" fill-rule="evenodd" stroke="none"/>
    <path d="M37.5 -96.2 L48.15 -95.85 Q52.35 -96.55 57.95 -99.25 59.55 -95.55 57.95 -79.5 L55.9 -59.5 Q55.9 -57.25 53.1 -54.1 49.6 -50.05 43.95 -49.0 46.6 -51.3 49.0 -57.75 51.75 -64.75 52.1 -71.95 53.15 -91.3 37.5 -96.2" fill="#ca0002" fill-rule="evenodd" stroke="none"/>
    <path d="M3.5 -74.95 Q4.15 -74.8 4.3 -74.25 L4.35 -73.4 4.2 -71.4 Q4.15 -70.05 3.9 -69.55 L3.0 -69.45 Q2.45 -69.5 2.2 -69.95 L2.45 -72.55 2.4 -73.0 2.15 -73.15 -1.0 -73.4 Q-1.45 -73.85 -1.35 -74.45 -1.25 -75.15 -0.85 -75.4 L3.5 -74.95 M0.75 -71.55 L0.7 -68.3 3.35 -67.6 3.3 -66.45 2.75 -65.85 1.4 -66.15 0.2 -66.35 -1.7 -66.7 -3.85 -66.8 Q-4.15 -67.15 -4.1 -67.65 L-3.9 -68.5 -2.6 -68.65 -1.2 -68.6 -1.2 -70.25 -1.05 -71.75 Q-0.95 -72.1 -0.15 -72.0 0.75 -71.85 0.75 -71.55" fill="#ffffff" fill-rule="evenodd" stroke="none"/>
    <path d="M13.35 -71.5 L13.3 -70.55 Q13.1 -70.05 12.3 -70.05 12.05 -70.25 11.75 -70.4 L11.25 -71.0 10.85 -72.2 10.7 -73.1 Q10.7 -73.5 11.1 -73.75 L11.8 -74.05 Q12.2 -74.0 12.6 -73.1 L13.05 -72.05 13.35 -71.5 M14.5 -68.0 Q14.65 -67.1 13.9 -67.1 13.4 -66.95 12.9 -67.1 L11.9 -67.2 10.75 -67.45 9.5 -67.7 6.9 -67.95 Q6.3 -68.3 6.35 -69.15 6.45 -70.0 7.4 -69.85 L14.1 -69.05 Q14.5 -68.95 14.5 -68.0 M7.55 -65.65 Q8.65 -66.85 10.0 -66.85 11.0 -66.85 11.5 -66.25 L12.0 -64.8 Q12.0 -63.4 10.75 -62.2 9.6 -60.95 8.4 -60.95 7.15 -60.95 6.85 -61.75 6.5 -62.65 6.5 -63.1 6.5 -64.45 7.55 -65.65 M8.95 -63.15 L9.6 -63.65 9.95 -64.3 9.95 -64.75 Q9.75 -64.95 9.5 -64.75 L8.9 -64.35 8.5 -63.8 8.5 -63.25 Q8.55 -63.0 8.95 -63.15 M13.35 -60.5 Q14.65 -61.55 15.8 -61.4 16.75 -61.3 17.3 -60.4 17.85 -59.55 17.65 -58.8 17.5 -58.0 16.25 -56.65 15.0 -55.3 13.85 -55.4 12.55 -55.45 12.25 -56.45 L12.05 -58.0 Q12.2 -59.4 13.35 -60.5 M14.4 -57.7 L15.2 -58.25 15.55 -58.85 15.55 -59.35 15.15 -59.3 14.5 -58.9 14.15 -58.35 14.0 -57.8 Q14.0 -57.45 14.4 -57.7 M20.35 -69.5 Q21.05 -69.05 20.75 -68.45 L20.4 -67.6 19.7 -67.7 18.6 -67.8 18.45 -67.3 18.45 -66.65 20.2 -66.3 Q20.7 -65.8 20.65 -65.25 20.6 -64.65 20.05 -64.3 L19.0 -64.55 18.25 -64.6 18.05 -63.95 18.0 -63.3 Q17.75 -62.7 16.85 -63.05 15.95 -63.25 16.0 -63.7 L17.05 -71.45 Q17.4 -71.8 18.15 -71.75 18.9 -71.6 19.15 -71.1 18.85 -69.95 19.0 -69.85 19.15 -69.7 19.6 -69.65 L20.35 -69.5" fill="#ffffff" fill-rule="evenodd" stroke="none"/>
    <path d="M35.3 -68.4 L35.25 -67.6 35.0 -66.35 35.0 -66.1 36.05 -65.85 Q36.85 -65.7 37.25 -65.3 L37.2 -64.5 Q37.15 -64.1 36.7 -63.65 L34.7 -64.0 34.2 -61.5 33.15 -61.6 Q32.8 -61.65 32.45 -62.05 L32.45 -62.7 32.55 -63.2 33.25 -68.45 34.35 -68.7 35.3 -68.4 M29.15 -68.15 L29.4 -67.15 28.85 -64.0 Q28.7 -63.3 28.4 -63.05 28.0 -62.75 27.35 -62.75 L24.25 -62.95 Q23.55 -62.95 23.05 -63.3 22.7 -63.65 22.75 -64.45 L23.05 -66.25 23.1 -68.15 23.8 -68.8 24.7 -68.9 28.3 -68.7 Q29.0 -68.6 29.15 -68.15 M27.0 -65.05 L27.2 -65.85 27.25 -66.75 26.35 -66.8 25.1 -66.85 24.75 -64.95 25.8 -64.85 26.8 -64.8 26.95 -64.85 27.0 -65.05 M27.75 -61.45 L28.5 -60.85 28.05 -57.9 28.1 -57.7 28.3 -57.65 29.95 -57.45 31.65 -57.15 Q31.85 -56.7 31.7 -56.1 31.6 -55.45 31.2 -55.3 L28.3 -55.6 26.95 -55.75 26.25 -56.15 Q25.95 -56.4 25.95 -56.9 L26.2 -59.5 Q26.25 -60.5 26.7 -61.45 L27.75 -61.45" fill="#ffffff" fill-rule="evenodd" stroke="none"/>
    <path d="M46.75 -68.65 L42.45 -69.15 42.05 -66.45 47.15 -65.7 Q47.5 -64.75 47.1 -64.2 46.75 -63.65 46.3 -63.65 L41.9 -64.3 Q40.75 -64.35 40.3 -64.75 39.95 -65.1 40.0 -66.1 L40.25 -68.1 40.4 -69.8 Q40.4 -70.55 40.65 -70.9 40.95 -71.35 41.8 -71.25 L44.4 -70.95 47.3 -70.55 Q47.65 -70.4 47.55 -69.45 47.35 -68.6 46.75 -68.65 M39.75 -62.05 L46.8 -61.2 Q47.15 -60.9 46.9 -60.0 L46.75 -59.2 46.35 -59.2 44.45 -59.45 44.15 -56.65 Q44.15 -56.3 43.15 -56.3 42.3 -56.2 42.15 -56.8 L42.35 -58.45 42.4 -59.75 39.45 -60.0 Q38.85 -60.1 39.0 -61.1 39.2 -62.1 39.75 -62.05" fill="#ffffff" fill-rule="evenodd" stroke="none"/>
    <path d="M-61.35 92.4 Q-52.0 78.45 -33.85 73.9 -16.85 69.55 0.75 72.75 18.45 75.9 32.95 85.6 44.55 93.35 50.45 103.95" fill="none" stroke="#cc3300" stroke-linecap="round" stroke-linejoin="round" stroke-width="3.0"/>
    <path d="M-27.2 104.75 L-27.35 104.15 -27.4 103.55 -27.4 102.95 -27.4 102.35 Q-23.1 93.45 -14.9 87.45 -13.05 86.15 -11.0 85.75 -2.0 85.45 3.2 92.8 L4.0 93.55 4.65 94.7 5.55 96.45 6.2 97.75 6.25 100.75 Q6.35 103.45 5.85 106.1 L5.6 106.75 Q4.65 107.5 3.45 107.2 0.85 106.5 0.2 103.95 -1.1 102.6 -2.65 101.6 L-8.0 98.35 -17.8 98.15 -18.45 98.7 -19.05 99.1 -20.0 99.55 Q-20.3 100.5 -21.1 101.25 -22.95 102.8 -23.8 104.95 L-24.25 105.3 -24.6 105.5 -25.4 105.75 -26.55 105.25 -27.2 104.75" fill="#ffca9a" fill-rule="evenodd" stroke="none"/>
  </g>
</svg>
