<?xml version="1.0" encoding="UTF-8" standalone="no"?>
<svg xmlns:ffdec="https://www.free-decompiler.com/flash" xmlns:xlink="http://www.w3.org/1999/xlink" ffdec:objectType="shape" height="106.55px" width="62.55px" xmlns="http://www.w3.org/2000/svg">
  <g transform="matrix(1.0, 0.0, 0.0, 1.0, 27.85, 96.1)">
    <path d="M-5.2 -30.1 L-3.5 -31.05 Q-1.2 -32.4 3.25 -31.85 6.85 -31.45 9.85 -30.25 12.05 -29.35 13.1 -28.55 14.5 -27.55 15.35 -25.8 16.95 -22.75 17.0 -18.8 L17.05 -14.8 16.95 -13.15 Q16.7 -12.65 15.55 -12.35 L10.85 -12.2 6.05 -12.7 -3.85 -13.15 -8.15 -13.25 -12.35 -13.75 Q-12.25 -19.2 -11.05 -23.1 -9.25 -29.25 -5.2 -30.1" fill="#16b114" fill-rule="evenodd" stroke="none"/>
    <path d="M-0.65 -20.65 Q-0.65 -20.1 -1.0 -19.75 -1.35 -19.4 -1.85 -19.4 -2.4 -19.4 -2.75 -19.75 -3.1 -20.1 -3.1 -20.65 L-2.75 -21.5 Q-2.4 -21.85 -1.85 -21.85 -1.35 -21.85 -1.0 -21.5 -0.65 -21.15 -0.65 -20.65" fill="#039d0a" fill-rule="evenodd" stroke="none"/>
    <path d="M-0.65 -17.15 Q-0.65 -16.6 -1.0 -16.25 -1.35 -15.9 -1.85 -15.9 -2.4 -15.9 -2.75 -16.25 -3.1 -16.6 -3.1 -17.15 L-2.75 -18.0 Q-2.4 -18.35 -1.85 -18.35 -1.35 -18.35 -1.0 -18.0 -0.65 -17.65 -0.65 -17.15" fill="#039d0a" fill-rule="evenodd" stroke="none"/>
    <path d="M7.2 -20.65 Q7.2 -20.1 6.85 -19.75 6.5 -19.4 5.95 -19.4 5.45 -19.4 5.1 -19.75 4.75 -20.1 4.75 -20.65 4.75 -21.15 5.1 -21.5 5.45 -21.85 5.95 -21.85 6.5 -21.85 6.85 -21.5 7.2 -21.15 7.2 -20.65" fill="#039d0a" fill-rule="evenodd" stroke="none"/>
    <path d="M7.2 -17.15 Q7.2 -16.6 6.85 -16.25 6.5 -15.9 5.95 -15.9 5.45 -15.9 5.1 -16.25 4.75 -16.6 4.75 -17.15 4.75 -17.65 5.1 -18.0 5.45 -18.35 5.95 -18.35 6.5 -18.35 6.85 -18.0 7.2 -17.65 7.2 -17.15" fill="#039d0a" fill-rule="evenodd" stroke="none"/>
    <path d="M1.3 -23.85 Q0.55 -22.4 -1.65 -21.85 L-5.3 -22.0 Q-7.05 -22.9 -7.3 -25.25 -7.5 -27.3 -6.6 -29.1 L10.95 -29.4 Q12.95 -29.8 14.95 -25.9 16.35 -23.1 16.65 -20.75 L17.2 -15.8 17.25 -14.6 Q17.25 -13.85 16.9 -13.6 L15.7 -13.45 14.5 -13.5 14.55 -14.95 14.6 -16.45 14.1 -19.35 Q14.0 -20.1 13.2 -21.15 12.2 -22.4 11.4 -21.95 10.2 -21.3 9.1 -21.3 L6.65 -21.85 Q6.2 -22.0 5.25 -22.85 L3.9 -23.75 2.65 -23.75 1.3 -23.85" fill="#039d0a" fill-rule="evenodd" stroke="none"/>
    <path d="M0.55 8.05 Q0.7 9.1 -0.6 9.75 -1.75 10.35 -3.55 10.45 L-6.6 10.05 Q-8.0 9.5 -8.05 8.5 -8.1 7.55 -6.8 6.95 -5.6 6.35 -3.9 6.2 L-0.9 6.55 Q0.45 7.05 0.55 8.05" fill="#000104" fill-rule="evenodd" stroke="none"/>
    <path d="M-2.6 6.1 L-2.8 3.25 Q-2.95 1.5 -2.65 0.5 L-1.35 0.7 -0.1 0.6 Q0.15 2.5 -0.25 6.65 -0.85 7.4 -1.65 7.4 L-2.4 6.75 -2.6 6.1" fill="#ffd09b" fill-rule="evenodd" stroke="none"/>
    <path d="M4.9 8.05 Q5.0 7.05 6.35 6.55 L9.35 6.2 Q11.05 6.35 12.25 6.95 13.55 7.55 13.5 8.5 13.45 9.5 12.05 10.05 L9.0 10.45 Q7.2 10.35 6.05 9.75 4.75 9.1 4.9 8.05" fill="#000104" fill-rule="evenodd" stroke="none"/>
    <path d="M8.0 6.1 Q7.9 7.4 7.1 7.4 6.6 7.4 6.1 7.0 L5.7 6.65 Q5.3 2.5 5.55 0.6 L8.1 0.5 Q8.4 1.5 8.25 3.25 L8.0 6.1" fill="#ffd09b" fill-rule="evenodd" stroke="none"/>
    <path d="M-5.8 -7.7 L2.05 -8.55 Q1.35 -6.0 1.55 -1.95 1.85 2.95 1.65 4.65 L-0.2 4.65 -2.1 4.5 -6.1 4.65 -6.05 -1.5 Q-5.7 -5.95 -5.8 -7.7" fill="#634301" fill-rule="evenodd" stroke="none"/>
    <path d="M3.3 -7.7 L11.1 -8.55 Q10.4 -6.0 10.65 -1.95 10.9 2.95 10.75 4.65 L8.85 4.65 6.95 4.5 3.0 4.65 Q2.75 2.4 3.05 -1.5 L3.3 -7.7" fill="#634301" fill-rule="evenodd" stroke="none"/>
    <path d="M1.5 -25.75 Q0.75 -24.25 -0.8 -23.25 -2.45 -22.1 -4.0 -22.35 -6.2 -22.65 -7.1 -24.25 -7.95 -25.7 -7.55 -27.9 -6.8 -32.1 -2.8 -31.05 -1.3 -30.65 0.15 -29.1 1.7 -27.35 1.5 -25.75" fill="#f90203" fill-rule="evenodd" stroke="none"/>
    <path d="M-2.9 -30.9 L-1.65 -30.55 Q-0.3 -30.0 1.15 -27.7 1.7 -26.8 1.1 -25.35 0.55 -24.05 -0.4 -23.25 -1.3 -22.5 -2.6 -22.3 L-5.0 -22.4 Q-6.2 -22.7 -6.85 -23.55 -7.6 -24.45 -7.45 -25.75 L-6.15 -23.45 Q-5.15 -22.55 -3.05 -23.05 -2.4 -23.2 -1.2 -24.4 0.1 -25.7 -0.5 -26.3 L-1.9 -26.1 -3.25 -25.4 Q-2.15 -26.85 -0.6 -27.35 -1.35 -27.95 -2.55 -28.6 L-3.65 -29.1 Q-1.6 -29.2 0.2 -27.85 -0.2 -29.45 -2.9 -30.9" fill="#ca0002" fill-rule="evenodd" stroke="none"/>
    <path d="M3.65 -25.75 Q3.45 -27.35 5.0 -29.1 6.4 -30.65 7.9 -31.05 11.9 -32.1 12.65 -27.9 13.05 -25.7 12.25 -24.25 11.35 -22.65 9.15 -22.35 7.55 -22.1 5.9 -23.25 4.35 -24.25 3.65 -25.75" fill="#f90203" fill-rule="evenodd" stroke="none"/>
    <path d="M8.25 -31.0 Q5.35 -29.5 4.95 -27.85 6.7 -29.2 8.8 -29.1 L5.75 -27.35 Q7.3 -26.9 8.35 -25.4 L7.0 -26.1 5.65 -26.3 Q5.0 -25.7 6.3 -24.4 7.5 -23.2 8.2 -23.05 10.3 -22.55 11.3 -23.45 L12.6 -25.75 Q12.85 -23.15 10.1 -22.4 L7.7 -22.3 Q6.4 -22.5 5.5 -23.25 4.55 -24.05 4.05 -25.35 3.45 -26.85 4.0 -27.7 5.4 -30.0 6.8 -30.55 L7.8 -30.85 8.25 -31.0" fill="#ca0002" fill-rule="evenodd" stroke="none"/>
    <path d="M1.15 -24.35 Q0.15 -24.85 -0.1 -25.85 -0.45 -27.25 0.3 -28.25 1.0 -29.1 2.2 -29.35 3.4 -29.55 4.3 -28.95 5.35 -28.3 5.5 -26.85 5.65 -25.65 4.95 -24.85 4.25 -24.15 3.15 -24.0 2.05 -23.85 1.15 -24.35" fill="#ca0002" fill-rule="evenodd" stroke="none"/>
    <path d="M0.95 -24.85 Q0.1 -25.3 -0.1 -26.2 -0.4 -27.4 0.25 -28.25 0.85 -29.05 1.9 -29.2 L3.75 -28.9 Q4.65 -28.3 4.8 -27.05 4.95 -26.0 4.3 -25.3 3.7 -24.7 2.75 -24.6 1.75 -24.45 0.95 -24.85" fill="#f90203" fill-rule="evenodd" stroke="none"/>
    <path d="M-12.4 -1.25 L-12.35 -1.2 -12.4 -1.25 Q-12.85 -2.25 -12.9 -4.3 L-12.85 -7.5 -12.85 -11.1 Q-12.75 -13.0 -12.2 -14.55 L-10.3 -14.3 -8.1 -14.3 -2.45 -14.45 3.25 -14.55 8.9 -14.45 11.65 -14.15 14.4 -13.85 16.9 -13.55 Q17.25 -13.4 17.2 -12.7 L17.0 -11.25 Q16.8 -9.7 16.9 -6.45 L16.8 -1.65 2.2 -1.45 -12.4 -1.25" fill="#ebebeb" fill-rule="evenodd" stroke="none"/>
    <path d="M-5.45 -21.65 L-4.7 -23.05 Q-4.55 -22.2 -5.2 -20.0 L-6.15 -16.7 Q-6.65 -13.3 -7.15 -11.85 L-8.6 -11.85 -7.1 -16.75 -5.45 -21.65" fill="#039d0a" fill-rule="evenodd" stroke="none"/>
    <path d="M-11.65 -1.9 L-11.7 -1.9 -11.65 -1.9 Q-12.1 -2.8 -12.15 -4.75 L-12.1 -7.8 -12.1 -11.15 Q-12.0 -13.0 -11.5 -14.45 L-9.8 -14.25 -7.85 -14.2 -2.8 -14.4 2.3 -14.45 7.35 -14.4 9.85 -14.1 12.3 -13.8 14.55 -13.5 Q14.8 -13.4 14.75 -12.7 L14.6 -11.35 14.5 -6.85 14.4 -2.3 1.35 -2.1 -11.65 -1.9" fill="#ffffff" fill-rule="evenodd" stroke="none"/>
    <path d="M-1.15 -8.85 L1.15 -9.15 Q2.7 -9.55 3.5 -9.15 L2.05 -8.0 0.35 -7.1 4.55 -7.5 8.8 -8.3 Q5.65 -6.8 2.05 -5.7 -2.15 -4.45 -5.0 -4.45 L-2.45 -6.2 Q-0.85 -7.3 -0.1 -8.2 L-5.0 -7.05 Q-8.0 -6.4 -9.75 -5.45 -8.9 -6.45 -6.1 -7.65 -2.55 -9.2 -2.05 -9.5 -0.2 -10.65 3.8 -12.2 L4.2 -12.0 Q2.35 -11.5 -1.15 -8.85" fill="#ebebeb" fill-rule="evenodd" stroke="none"/>
    <path d="M-21.0 -37.55 L-20.75 -36.7 Q-19.9 -35.15 -20.15 -34.25 -20.3 -33.55 -21.55 -32.65 -22.15 -32.1 -23.05 -31.75 L-24.5 -31.7 Q-24.9 -32.1 -24.25 -33.6 -25.35 -33.85 -25.1 -34.8 -24.9 -35.7 -23.85 -35.8 -24.15 -36.4 -23.75 -36.8 -23.35 -37.25 -22.75 -37.15 L-22.4 -37.95 Q-22.0 -38.35 -21.5 -38.2 L-21.0 -37.55" fill="#ffd09b" fill-rule="evenodd" stroke="none"/>
    <path d="M-22.75 -37.15 L-22.6 -37.7 Q-22.2 -37.95 -21.9 -36.8 L-22.75 -37.15 -22.75 -37.05 -22.9 -37.15 -22.75 -37.15" fill="#ffbb7e" fill-rule="evenodd" stroke="none"/>
    <path d="M-24.35 -35.2 Q-24.9 -35.0 -25.05 -34.45 -25.2 -34.95 -24.85 -35.35 L-24.05 -35.8 -24.0 -36.5 -23.6 -36.3 Q-23.25 -35.95 -23.3 -35.2 -23.8 -35.45 -24.35 -35.2" fill="#ffbb7e" fill-rule="evenodd" stroke="none"/>
    <path d="M-24.5 -31.8 L-24.75 -32.35 -24.65 -32.95 Q-24.4 -33.85 -23.7 -33.45 -24.75 -32.5 -24.5 -31.8" fill="#ffbb7e" fill-rule="evenodd" stroke="none"/>
    <path d="M-15.05 -33.5 Q-7.9 -30.2 -8.05 -27.25 -8.25 -22.8 -15.1 -26.4 -18.65 -28.25 -23.15 -31.75 -22.45 -33.05 -20.3 -35.6 -19.95 -36.0 -17.8 -34.95 L-15.05 -33.5" fill="#039d0a" fill-rule="evenodd" stroke="none"/>
    <path d="M-11.0 -25.5 L-12.75 -26.0 -14.4 -26.9 -18.4 -29.6 -22.3 -32.4 -22.05 -33.05 -21.05 -34.1 Q-19.35 -35.45 -18.2 -35.05 -16.2 -34.35 -13.75 -33.05 -11.05 -31.55 -9.65 -30.2 L-8.55 -28.65 Q-8.0 -27.65 -8.05 -26.95 -8.15 -25.5 -11.0 -25.5" fill="#16b114" fill-rule="evenodd" stroke="none"/>
    <path d="M28.15 -24.85 Q27.55 -26.25 27.75 -26.95 27.95 -27.85 29.45 -28.8 L30.2 -29.35 Q30.65 -29.8 30.9 -29.7 31.4 -29.55 31.55 -29.0 31.7 -28.5 31.4 -28.15 L32.15 -27.35 Q32.3 -26.75 31.75 -26.4 32.6 -25.8 32.35 -24.9 32.05 -24.0 30.95 -24.35 30.8 -22.7 30.25 -22.55 29.7 -22.45 29.0 -23.3 28.45 -24.05 28.15 -24.85" fill="#ffd09b" fill-rule="evenodd" stroke="none"/>
    <path d="M31.4 -28.15 L31.55 -28.05 31.4 -28.1 31.4 -28.15 30.55 -28.25 Q31.4 -29.1 31.6 -28.7 31.75 -28.5 31.4 -28.15" fill="#ffbb7e" fill-rule="evenodd" stroke="none"/>
    <path d="M30.95 -26.15 Q31.5 -27.25 32.2 -26.95 L31.9 -26.3 32.35 -25.5 Q32.45 -25.0 32.1 -24.65 32.25 -25.2 31.85 -25.7 31.5 -26.1 30.95 -26.15" fill="#ffbb7e" fill-rule="evenodd" stroke="none"/>
    <path d="M30.4 -24.45 Q31.2 -24.45 31.0 -23.5 L30.8 -23.0 30.3 -22.65 Q30.85 -23.15 30.4 -24.45" fill="#ffbb7e" fill-rule="evenodd" stroke="none"/>
    <path d="M22.95 -28.85 L26.05 -28.7 Q28.5 -28.55 28.55 -28.05 29.15 -24.8 29.15 -23.25 L19.45 -22.65 Q11.7 -22.95 13.8 -26.9 15.15 -29.55 22.95 -28.85" fill="#039d0a" fill-rule="evenodd" stroke="none"/>
    <path d="M15.65 -23.05 Q13.2 -24.45 13.85 -25.75 14.15 -26.45 15.15 -27.0 16.0 -27.55 16.9 -27.8 L21.85 -28.2 26.75 -27.65 Q27.9 -27.45 28.65 -25.45 L29.05 -24.05 Q29.1 -23.4 28.95 -23.4 L24.15 -22.85 19.3 -22.6 17.45 -22.6 15.65 -23.05" fill="#16b114" fill-rule="evenodd" stroke="none"/>
    <path d="M5.25 -38.9 L5.2 -38.85 5.3 -38.8 5.25 -38.9 M6.1 -38.5 L6.15 -38.35 6.15 -38.05 6.15 -37.9 6.25 -37.75 6.35 -37.45 6.35 -37.3 6.2 -37.15 5.75 -37.15 5.65 -37.3 4.9 -38.05 4.85 -38.15 4.1 -39.05 3.95 -39.15 3.9 -39.2 2.2 -39.15 1.55 -38.7 0.15 -37.55 -0.1 -37.6 -0.2 -37.7 -0.15 -37.85 -0.05 -38.0 0.0 -38.15 0.0 -38.7 0.0 -39.15 0.55 -40.0 Q1.15 -40.9 2.0 -41.3 L3.85 -41.25 5.25 -39.85 6.1 -38.5 M0.6 -38.75 L0.55 -38.8 0.5 -38.65 0.6 -38.75" fill="#ffca9a" fill-rule="evenodd" stroke="none"/>
    <path d="M-13.2 -39.1 Q-9.95 -42.05 -5.5 -43.15 L2.65 -44.3 Q6.65 -44.5 10.95 -42.85 15.25 -41.15 18.4 -37.4" fill="none" stroke="#330000" stroke-linecap="round" stroke-linejoin="round" stroke-width="2.0"/>
    <path d="M-25.6 -61.3 Q-24.0 -62.6 -22.05 -62.95 -20.0 -63.3 -18.7 -62.45 -17.25 -61.45 -17.35 -59.05 L-18.8 -53.9 Q-20.1 -52.1 -21.9 -51.55 -23.55 -51.1 -25.1 -51.9 -26.6 -52.65 -27.35 -54.25 -28.15 -56.05 -27.7 -58.2 -27.3 -59.95 -25.6 -61.3" fill="#ffe3bd" fill-rule="evenodd" stroke="none"/>
    <path d="M-23.9 -59.95 Q-22.9 -60.75 -21.7 -60.95 -20.4 -61.2 -19.65 -60.65 -18.75 -60.05 -18.8 -58.55 L-19.65 -55.4 Q-20.45 -54.25 -21.6 -53.95 L-23.55 -54.1 Q-24.5 -54.6 -24.95 -55.6 -25.45 -56.7 -25.15 -58.05 -24.95 -59.1 -23.9 -59.95" fill="#ff9a60" fill-rule="evenodd" stroke="none"/>
    <path d="M11.05 -76.7 Q14.0 -76.0 15.95 -75.0 20.7 -73.9 23.15 -69.9 L25.2 -65.9 27.4 -61.35 Q29.55 -57.4 29.85 -52.6 30.15 -48.15 28.8 -43.5 26.25 -34.45 16.75 -30.65 8.7 -27.4 -1.3 -28.7 -10.6 -29.9 -16.65 -35.55 -23.35 -41.85 -22.7 -50.9 -22.0 -59.25 -15.2 -66.7 -8.7 -73.75 -0.1 -76.45 5.1 -78.05 11.05 -76.7" fill="#ffca9a" fill-rule="evenodd" stroke="none"/>
    <path d="M8.6 -76.35 Q11.3 -75.7 13.1 -74.7 17.45 -73.6 19.75 -69.6 L21.6 -65.6 23.6 -61.05 Q25.6 -57.1 25.9 -52.3 26.15 -47.8 24.95 -43.15 22.6 -34.2 13.85 -30.8 6.75 -28.05 -2.7 -29.35 -11.4 -30.6 -16.85 -35.75 -23.0 -41.65 -22.35 -50.6 -21.75 -58.95 -15.5 -66.4 -9.55 -73.45 -1.6 -76.15 3.15 -77.75 8.6 -76.35" fill="#ffe3bd" fill-rule="evenodd" stroke="none"/>
    <path d="M-0.85 -61.2 Q-0.85 -60.45 -1.4 -60.45 -1.9 -60.45 -1.9 -61.2 -1.9 -61.95 -1.4 -61.95 -0.85 -61.95 -0.85 -61.2" fill="#2d0a18" fill-rule="evenodd" stroke="none"/>
    <path d="M18.0 -60.75 Q19.45 -60.1 19.95 -58.95 18.45 -60.35 16.35 -60.5 14.45 -60.6 12.55 -59.6 10.65 -58.65 9.55 -56.95 8.4 -55.2 8.5 -53.2 8.65 -51.3 10.05 -49.65 11.4 -48.05 13.4 -47.45 L15.05 -47.5 16.5 -47.35 Q16.85 -47.05 17.35 -44.4 L17.95 -41.2 14.8 -45.8 8.8 -48.1 Q7.9 -48.45 7.0 -49.75 6.0 -51.2 5.75 -52.85 5.15 -57.35 10.25 -59.8 15.05 -62.1 18.0 -60.75" fill="#ffca9a" fill-rule="evenodd" stroke="none"/>
    <path d="M-13.55 -60.8 Q-10.6 -62.15 -5.8 -59.85 -0.7 -57.4 -1.35 -52.9 -1.55 -51.25 -2.55 -49.8 -3.45 -48.5 -4.35 -48.15 L-10.4 -45.85 -13.5 -41.25 -12.9 -44.45 Q-12.45 -47.1 -12.05 -47.4 L-10.6 -47.55 -8.95 -47.5 Q-7.0 -48.1 -5.6 -49.7 -4.2 -51.3 -4.05 -53.25 -3.95 -55.2 -5.1 -57.0 -6.2 -58.7 -8.1 -59.65 -10.0 -60.65 -11.95 -60.55 -14.05 -60.4 -15.5 -59.0 L-15.1 -59.65 Q-14.45 -60.4 -13.55 -60.8" fill="#ffca9a" fill-rule="evenodd" stroke="none"/>
    <path d="M1.05 -47.35 Q-2.2 -47.75 -4.05 -49.1 -6.35 -50.75 -6.2 -53.6 -6.05 -56.2 -2.85 -58.1 0.1 -59.9 2.9 -59.6 5.3 -59.15 7.8 -56.3 10.4 -53.3 9.8 -51.25 9.05 -48.8 6.2 -47.8 3.85 -46.95 1.05 -47.35" fill="#ff791e" fill-rule="evenodd" stroke="none"/>
    <path d="M0.7 -48.4 Q-2.75 -48.95 -3.85 -49.5 -6.3 -50.65 -6.2 -53.35 -6.05 -55.9 -2.95 -58.0 -0.1 -59.95 2.15 -59.6 4.05 -59.1 6.15 -56.7 8.4 -54.05 7.95 -52.05 7.35 -49.65 4.9 -48.75 2.95 -48.0 0.7 -48.4" fill="#ff9a00" fill-rule="evenodd" stroke="none"/>
    <path d="M34.2 -50.15 Q33.5 -48.5 31.95 -47.75 30.45 -47.0 28.75 -47.45 26.95 -47.95 25.65 -49.8 L24.25 -54.95 Q24.15 -57.3 25.6 -58.3 26.85 -59.2 28.9 -58.8 30.85 -58.45 32.45 -57.15 34.2 -55.8 34.55 -54.1 35.0 -51.9 34.2 -50.15" fill="#ffe3bd" fill-rule="evenodd" stroke="none"/>
    <path d="M32.05 -53.9 Q32.3 -52.6 31.85 -51.5 31.35 -50.5 30.45 -50.0 L28.45 -49.8 Q27.35 -50.15 26.55 -51.25 L25.65 -54.45 Q25.6 -55.9 26.5 -56.55 27.3 -57.05 28.55 -56.85 29.75 -56.6 30.75 -55.8 31.8 -55.0 32.05 -53.9" fill="#ff9a60" fill-rule="evenodd" stroke="none"/>
    <path d="M-0.1 -68.3 L-2.75 -68.25 Q-5.2 -68.9 -5.9 -69.7 -5.7 -70.6 -4.75 -70.75 L-2.75 -70.55 -0.85 -69.55 Q-0.1 -68.9 -0.1 -68.3" fill="#2d0a18" fill-rule="evenodd" stroke="none"/>
    <path d="M7.25 -60.25 Q7.25 -61.0 7.75 -61.0 8.3 -61.0 8.3 -60.25 8.3 -59.5 7.75 -59.5 7.25 -59.5 7.25 -60.25" fill="#2d0a18" fill-rule="evenodd" stroke="none"/>
    <path d="M10.3 -67.8 Q10.4 -68.4 11.3 -68.8 L13.35 -69.3 15.35 -69.0 Q16.25 -68.6 16.2 -67.7 15.35 -67.05 12.85 -67.05 10.3 -67.1 10.3 -67.8" fill="#2d0a18" fill-rule="evenodd" stroke="none"/>
    <path d="M12.1 -71.7 Q8.65 -71.0 6.9 -68.45 6.3 -69.2 5.6 -69.05 5.0 -68.9 3.95 -68.05 3.6 -71.15 4.15 -75.15 1.3 -75.55 -2.8 -73.9 -6.35 -72.55 -9.05 -70.45 -11.05 -68.9 -13.5 -64.5 L-15.4 -61.25 Q-16.5 -59.6 -17.75 -58.65 L-18.8 -60.95 Q-19.1 -62.15 -18.65 -63.55 -17.7 -66.65 -15.0 -69.55 -12.3 -72.4 -8.4 -74.45 0.3 -79.1 10.2 -77.85 18.8 -76.8 23.8 -67.5 26.3 -62.85 27.05 -58.4 L25.65 -57.55 25.05 -59.6 Q23.45 -59.05 22.9 -58.3 22.8 -61.7 21.85 -64.9 20.65 -68.9 18.5 -70.45 15.7 -72.4 12.1 -71.7" fill="#ffca9a" fill-rule="evenodd" stroke="none"/>
    <path d="M2.8 -73.25 Q2.95 -75.95 5.65 -76.7 L13.65 -74.45 Q11.8 -73.8 9.85 -72.3 L6.45 -69.6 5.9 -70.35 Q5.5 -70.85 5.55 -71.45 3.9 -70.9 3.8 -68.6 2.65 -71.3 2.8 -73.25" fill="#5d0304" fill-rule="evenodd" stroke="none"/>
    <path d="M14.65 -73.65 L16.7 -76.4 Q19.4 -75.85 22.15 -72.8 L26.2 -67.45 Q27.9 -65.0 28.35 -62.25 29.0 -58.55 25.8 -58.25 L25.5 -60.25 24.7 -62.0 24.05 -60.95 23.4 -59.95 Q23.85 -64.2 21.25 -68.3 18.65 -72.45 14.65 -73.65" fill="#5d0304" fill-rule="evenodd" stroke="none"/>
    <path d="M4.5 -78.6 L7.65 -76.7 Q5.8 -76.9 -0.25 -75.5 -6.4 -74.0 -7.85 -72.9 L-11.0 -70.35 Q-12.75 -68.65 -14.05 -66.45 L-15.7 -62.95 Q-16.9 -60.6 -17.95 -60.2 L-17.6 -61.25 -17.35 -62.35 -18.4 -62.4 -19.45 -62.5 Q-18.55 -66.2 -15.5 -70.2 -12.4 -74.2 -9.1 -75.9 -5.9 -77.55 -2.5 -78.4 L4.5 -78.6" fill="#5d0304" fill-rule="evenodd" stroke="none"/>
    <path d="M4.9 -88.45 Q2.75 -89.75 3.0 -91.9 3.2 -93.9 5.05 -95.2 6.95 -96.55 9.0 -95.8 11.4 -94.95 12.75 -91.35 13.45 -92.5 14.75 -93.25 16.05 -94.05 17.45 -94.2 18.95 -94.4 20.05 -93.8 21.3 -93.2 21.8 -91.75 22.65 -89.3 21.3 -87.25 19.95 -85.15 17.3 -85.25 L17.15 -80.3 16.7 -75.55 Q16.2 -73.55 13.5 -72.8 L8.65 -72.55 Q5.5 -72.8 3.15 -74.4 0.35 -76.25 1.5 -78.5 4.1 -83.65 4.9 -88.45" fill="#f90203" fill-rule="evenodd" stroke="none"/>
    <path d="M19.05 -57.9 Q21.9 -57.4 23.0 -55.4 23.45 -54.6 23.35 -53.8 23.3 -53.0 22.75 -52.5 21.8 -51.6 19.3 -51.5 L15.65 -51.9 Q14.15 -52.3 13.75 -53.4 13.35 -54.35 14.0 -55.45 14.65 -56.6 15.95 -57.3 17.4 -58.05 19.05 -57.9" fill="#fca48c" fill-rule="evenodd" stroke="none"/>
    <path d="M-14.4 -58.2 Q-11.5 -57.65 -10.45 -55.7 -10.0 -54.85 -10.1 -54.05 -10.15 -53.3 -10.65 -52.8 -11.65 -51.9 -14.15 -51.8 L-17.8 -52.2 Q-19.3 -52.6 -19.7 -53.65 -20.1 -54.6 -19.45 -55.75 -18.8 -56.9 -17.5 -57.55 -16.05 -58.3 -14.4 -58.2" fill="#fca48c" fill-rule="evenodd" stroke="none"/>
    <path d="M6.8 -95.7 Q8.3 -96.8 10.4 -95.05 12.0 -93.75 12.95 -91.85 L14.8 -93.1 Q16.25 -93.85 16.8 -93.85 15.55 -93.5 13.65 -91.65 12.05 -90.05 11.2 -88.7 11.25 -91.1 10.3 -92.95 9.1 -95.2 6.8 -95.7" fill="#ca0002" fill-rule="evenodd" stroke="none"/>
    <path d="M12.5 -84.5 L15.05 -84.4 Q16.05 -84.6 17.4 -85.25 17.8 -84.35 17.4 -80.45 L16.9 -75.65 Q16.9 -75.1 16.25 -74.3 15.4 -73.35 14.05 -73.1 14.7 -73.65 15.25 -75.2 15.9 -76.9 16.0 -78.65 16.25 -83.3 12.5 -84.5" fill="#ca0002" fill-rule="evenodd" stroke="none"/>
    <path d="M4.3 -79.35 L4.45 -79.2 4.5 -79.0 4.45 -78.5 4.35 -78.05 4.15 -78.05 Q4.0 -78.05 3.95 -78.15 L4.0 -78.8 4.0 -78.9 3.95 -78.95 3.2 -79.0 3.1 -79.25 3.2 -79.45 4.3 -79.35 M3.6 -78.55 L3.6 -77.75 4.25 -77.6 4.2 -77.3 4.1 -77.15 3.75 -77.25 3.45 -77.3 3.0 -77.35 2.5 -77.4 Q2.4 -77.45 2.45 -77.6 L2.5 -77.8 2.8 -77.85 3.15 -77.8 3.15 -78.2 3.15 -78.6 3.4 -78.65 3.6 -78.55" fill="#ffffff" fill-rule="evenodd" stroke="none"/>
    <path d="M6.65 -78.55 L6.65 -78.3 Q6.6 -78.2 6.4 -78.2 L6.25 -78.25 6.15 -78.4 6.05 -78.7 6.0 -78.9 6.1 -79.05 6.3 -79.15 6.45 -78.9 6.55 -78.65 6.65 -78.55 M6.95 -77.7 L6.8 -77.45 6.55 -77.45 6.3 -77.5 6.0 -77.55 5.7 -77.6 5.1 -77.65 Q4.95 -77.75 4.95 -77.95 L5.2 -78.15 6.85 -77.95 6.95 -77.7 M5.25 -77.1 L5.85 -77.4 6.2 -77.25 6.3 -76.9 6.0 -76.3 Q5.75 -76.0 5.45 -76.0 5.15 -76.0 5.1 -76.2 L5.0 -76.5 5.25 -77.1 M5.6 -76.5 L5.75 -76.65 5.8 -76.8 5.8 -76.9 5.7 -76.9 5.55 -76.8 5.5 -76.65 5.5 -76.55 Q5.5 -76.45 5.6 -76.5 M6.65 -75.85 L7.25 -76.1 7.6 -75.85 7.7 -75.45 7.35 -74.95 Q7.05 -74.6 6.75 -74.65 L6.4 -74.9 6.35 -75.25 Q6.35 -75.6 6.65 -75.85 M6.9 -75.2 L7.1 -75.3 7.2 -75.45 7.2 -75.6 7.1 -75.55 6.95 -75.5 6.85 -75.35 6.8 -75.2 6.9 -75.2 M8.35 -78.05 L8.45 -77.8 8.35 -77.6 8.2 -77.6 7.9 -77.65 7.9 -77.5 7.9 -77.35 8.3 -77.25 8.4 -77.0 8.25 -76.8 8.0 -76.85 7.85 -76.85 7.8 -76.7 7.75 -76.55 7.5 -76.5 7.3 -76.65 7.55 -78.5 7.8 -78.6 8.05 -78.45 8.0 -78.15 8.15 -78.05 8.35 -78.05" fill="#ffffff" fill-rule="evenodd" stroke="none"/>
    <path d="M11.95 -77.8 L11.95 -77.6 11.85 -77.3 11.85 -77.2 12.15 -77.15 12.4 -77.05 12.4 -76.85 12.3 -76.65 11.8 -76.7 11.7 -76.1 11.45 -76.15 Q11.35 -76.15 11.25 -76.25 L11.25 -76.4 11.3 -76.5 11.45 -77.8 11.75 -77.85 11.95 -77.8 M10.45 -77.7 L10.55 -77.45 10.4 -76.7 10.3 -76.5 Q10.2 -76.4 10.05 -76.4 L9.3 -76.45 9.0 -76.55 8.9 -76.8 9.0 -77.25 9.0 -77.7 9.2 -77.85 9.4 -77.9 10.25 -77.85 10.45 -77.7 M9.95 -76.95 L10.0 -77.15 10.0 -77.4 9.8 -77.4 9.5 -77.4 9.4 -76.95 9.65 -76.9 9.9 -76.9 9.95 -76.9 9.95 -76.95 M10.15 -76.1 L10.3 -75.95 10.2 -75.25 10.2 -75.2 10.25 -75.15 10.65 -75.15 11.05 -75.05 11.1 -74.8 10.95 -74.6 10.25 -74.7 9.95 -74.7 9.75 -74.8 9.7 -75.0 9.75 -75.65 9.85 -76.1 10.15 -76.1" fill="#ffffff" fill-rule="evenodd" stroke="none"/>
    <path d="M14.7 -77.85 L13.7 -77.95 13.6 -77.3 14.8 -77.1 14.8 -76.75 14.6 -76.65 13.55 -76.8 13.15 -76.9 13.1 -77.2 13.15 -77.7 13.2 -78.1 13.25 -78.4 13.5 -78.45 14.15 -78.4 14.85 -78.3 14.9 -78.05 14.7 -77.85 M13.0 -76.25 L14.75 -76.05 14.75 -75.75 14.7 -75.55 14.65 -75.55 14.15 -75.6 14.1 -74.95 13.85 -74.85 Q13.65 -74.85 13.6 -74.95 L13.65 -75.35 13.65 -75.7 12.95 -75.75 Q12.8 -75.75 12.85 -76.0 L13.0 -76.25" fill="#ffffff" fill-rule="evenodd" stroke="none"/>
    <path d="M11.45 -33.4 L11.4 -33.1 11.2 -33.05 Q10.2 -33.25 6.35 -35.85 2.5 -38.5 -0.3 -37.15 L-0.4 -37.1 -0.45 -37.1 -0.5 -37.1 -0.55 -37.05 -0.65 -37.0 -2.55 -36.0 Q-1.8 -37.8 -0.6 -38.7 0.6 -39.6 1.35 -39.95 6.4 -39.4 8.45 -36.0 10.45 -32.6 11.45 -33.4" fill="#c10000" fill-rule="evenodd" stroke="none"/>
    <path d="M-2.55 -36.0 L-4.25 -34.8 Q-5.45 -33.75 -6.15 -33.95 -3.4 -42.75 1.75 -43.0 6.9 -43.25 9.55 -38.05 11.4 -34.4 11.45 -33.4 10.45 -32.6 8.45 -36.0 6.4 -39.4 1.35 -39.95 0.6 -39.6 -0.6 -38.7 -1.8 -37.8 -2.55 -36.0" fill="#5d0406" fill-rule="evenodd" stroke="none"/>
  </g>
</svg>
