<?xml version="1.0" encoding="UTF-8" standalone="no"?>
<svg xmlns:ffdec="https://www.free-decompiler.com/flash" xmlns:xlink="http://www.w3.org/1999/xlink" ffdec:objectType="shape" height="33.15px" width="53.6px" xmlns="http://www.w3.org/2000/svg">
  <g transform="matrix(1.0, 0.0, 0.0, 1.0, -114.25, -53.85)">
    <path d="M167.25 76.8 Q164.0 90.0 150.9 86.1 147.95 85.2 145.7 83.5 L145.6 83.4 125.3 82.3 Q123.35 82.15 122.55 80.25 L122.35 79.6 Q120.1 78.25 118.2 76.05 110.6 67.3 117.7 58.3 120.95 54.05 125.95 53.85 129.55 54.1 132.6 55.85 L133.75 56.25 Q144.15 52.0 154.75 57.4 L156.7 58.4 Q157.8 57.45 159.0 57.25 167.45 59.15 166.75 66.85 168.65 71.05 167.25 76.8" fill="#ffffff" fill-rule="evenodd" stroke="none"/>
  </g>
</svg>
