<?xml version="1.0" encoding="UTF-8" standalone="no"?>
<svg xmlns:ffdec="https://www.free-decompiler.com/flash" xmlns:xlink="http://www.w3.org/1999/xlink" ffdec:objectType="shape" height="31.4px" width="101.8px" xmlns="http://www.w3.org/2000/svg">
  <g transform="matrix(1.0, 0.0, 0.0, 1.0, 81.85, 16.05)">
    <path d="M-80.85 -8.6 L-80.75 -9.8 -80.55 -10.35 -80.5 -10.45 Q-79.9 -12.0 -78.3 -13.2 L-78.25 -13.2 -77.45 -13.75 Q-75.7 -14.8 -73.4 -15.0 L-73.15 -15.0 -72.15 -15.05 -63.65 -15.05 -63.2 -15.05 10.25 -15.05 13.2 -14.7 14.85 -14.1 15.55 -13.75 16.0 -13.45 16.25 -13.25 16.35 -13.2 16.4 -13.2 17.2 -12.5 Q18.15 -11.6 18.55 -10.45 L18.95 -8.6 18.95 7.8 Q18.95 10.05 17.2 11.7 L16.4 12.4 16.35 12.4 16.15 12.55 Q15.2 13.25 14.1 13.65 12.35 14.3 10.25 14.35 L-63.2 14.35 -63.65 14.35 -72.15 14.35 -73.4 14.3 -74.75 14.05 -75.75 13.75 -76.0 13.65 -76.6 13.45 -77.5 12.95 -78.05 12.55 -78.25 12.4 -78.3 12.4 -78.9 11.9 Q-80.9 10.15 -80.85 7.8 L-80.85 -8.6" fill="#ffcc00" fill-rule="evenodd" stroke="none"/>
    <path d="M-78.9 11.9 L-78.3 12.4 -78.25 12.4 -78.05 12.55 -77.5 12.95 -76.6 13.45 -76.0 13.65 -75.75 13.75 -74.75 14.05 -73.4 14.3 -72.15 14.35 -63.65 14.35 -63.2 14.35 10.25 14.35 Q12.35 14.3 14.1 13.65 15.2 13.25 16.15 12.55 L16.35 12.4 16.4 12.4 17.2 11.7 Q18.95 10.05 18.95 7.8 L18.95 -8.6 18.55 -10.45 Q18.15 -11.6 17.2 -12.5" fill="none" stroke="#ff9900" stroke-linecap="round" stroke-linejoin="round" stroke-width="2.0"/>
    <path d="M17.2 -12.5 L16.4 -13.2 16.35 -13.2 16.25 -13.25 16.0 -13.45 15.55 -13.75 14.85 -14.1 13.2 -14.7 10.25 -15.05 -63.2 -15.05 -63.65 -15.05 -72.15 -15.05 -73.15 -15.0 -73.4 -15.0 Q-75.7 -14.8 -77.45 -13.75 L-78.25 -13.2 -78.3 -13.2 Q-79.9 -12.0 -80.5 -10.45 L-80.55 -10.35 -80.75 -9.8 -80.85 -8.6 -80.85 7.8 Q-80.9 10.15 -78.9 11.9" fill="none" stroke="#ffffcc" stroke-linecap="round" stroke-linejoin="round" stroke-width="2.0"/>
  </g>
</svg>
