<?xml version="1.0" encoding="UTF-8" standalone="no"?>
<svg xmlns:ffdec="https://www.free-decompiler.com/flash" xmlns:xlink="http://www.w3.org/1999/xlink" ffdec:objectType="shape" height="23.1px" width="23.1px" xmlns="http://www.w3.org/2000/svg">
  <g transform="matrix(1.0, 0.0, 0.0, 1.0, 11.55, 11.55)">
    <path d="M8.15 -8.2 Q11.55 -4.8 11.55 0.0 11.55 4.8 8.15 8.15 4.8 11.55 0.0 11.55 L-2.15 11.35 Q-5.6 10.75 -8.2 8.15 -11.55 4.8 -11.55 0.0 -11.55 -4.8 -8.2 -8.2 -4.8 -11.55 0.0 -11.55 4.25 -11.55 7.4 -8.85 L8.15 -8.2" fill="url(#gradient0)" fill-rule="evenodd" stroke="none"/>
    <path d="M5.35 -5.35 Q7.55 -3.15 7.55 0.0 7.55 3.15 5.35 5.35 3.15 7.55 0.0 7.55 L-1.4 7.45 Q-3.65 7.05 -5.35 5.35 -7.55 3.15 -7.55 0.0 -7.55 -3.15 -5.35 -5.35 -3.15 -7.55 0.0 -7.55 2.8 -7.55 4.85 -5.8 L5.35 -5.35" fill="url(#gradient1)" fill-rule="evenodd" stroke="none"/>
  </g>
  <defs>
    <radialGradient cx="0" cy="0" gradientTransform="matrix(0.0155, 0.0, 0.0, 0.0155, 0.55, 0.0)" gradientUnits="userSpaceOnUse" id="gradient0" r="819.2" spreadMethod="pad">
      <stop offset="0.7019607843137254" stop-color="#f2f14f" stop-opacity="0.8"/>
      <stop offset="1.0" stop-color="#ffffff" stop-opacity="0.0"/>
    </radialGradient>
    <radialGradient cx="0" cy="0" gradientTransform="matrix(0.0122, 0.0, 0.0, 0.0122, -1.8, -2.15)" gradientUnits="userSpaceOnUse" id="gradient1" r="819.2" spreadMethod="pad">
      <stop offset="0.0" stop-color="#ffffff"/>
      <stop offset="0.7098039215686275" stop-color="#f2f14f"/>
    </radialGradient>
  </defs>
</svg>
