<?xml version="1.0" encoding="UTF-8" standalone="no"?>
<svg xmlns:ffdec="https://www.free-decompiler.com/flash" xmlns:xlink="http://www.w3.org/1999/xlink" ffdec:objectType="shape" height="32.0px" width="77.25px" xmlns="http://www.w3.org/2000/svg">
  <g transform="matrix(1.0, 0.0, 0.0, 1.0, 38.7, 15.3)">
    <path d="M31.7 -15.25 L33.75 -14.95 34.5 -14.65 34.7 -14.55 35.15 -14.25 35.9 -13.75 36.35 -13.3 36.5 -13.15 37.0 -12.6 Q38.55 -10.75 38.55 -8.2 L38.55 9.65 38.45 10.95 38.3 11.6 38.25 11.7 Q37.75 13.35 36.5 14.7 L35.85 15.25 Q34.35 16.45 32.5 16.65 L31.7 16.7 25.05 16.7 24.7 16.7 -31.85 16.7 -34.2 16.3 -35.45 15.65 -36.0 15.25 -36.35 14.95 -36.6 14.7 -36.65 14.7 -36.7 14.7 -37.3 13.9 Q-38.05 12.85 -38.4 11.7 L-38.7 9.65 -38.7 -8.2 Q-38.7 -10.6 -37.3 -12.4 L-36.7 -13.15 -36.65 -13.15 -36.5 -13.3 -34.85 -14.55 Q-33.5 -15.25 -31.85 -15.25 L24.7 -15.25 24.65 -15.3 31.7 -15.25" fill="#ffff66" fill-rule="evenodd" stroke="none"/>
  </g>
</svg>
