<?xml version="1.0" encoding="UTF-8" standalone="no"?>
<svg xmlns:ffdec="https://www.free-decompiler.com/flash" xmlns:xlink="http://www.w3.org/1999/xlink" ffdec:objectType="shape" height="334.25px" width="587.2px" xmlns="http://www.w3.org/2000/svg">
  <g transform="matrix(1.0, 0.0, 0.0, 1.0, 151.2, -78.7)">
    <path d="M367.45 112.7 L368.2 112.45 369.3 113.1 369.1 117.4 374.35 117.15 374.9 117.65 374.4 118.8 368.65 119.15 Q368.1 119.15 367.65 118.7 367.2 118.25 367.2 117.65 L367.45 112.7 M368.4 107.6 L367.85 108.7 358.35 109.25 357.7 108.35 358.15 107.7 367.9 107.1 368.4 107.6 M365.55 104.25 L365.9 104.85 365.4 105.8 360.7 106.15 359.9 105.05 360.3 104.5 365.55 104.25 M370.3 104.4 L370.9 103.9 372.0 104.4 372.0 107.35 372.05 106.85 374.25 107.25 374.5 108.5 373.95 108.9 372.05 108.55 372.05 112.2 370.9 112.75 370.25 112.25 370.3 104.4 M383.2 104.55 L383.6 105.1 383.15 106.15 378.95 106.15 378.15 106.9 377.55 112.4 383.25 111.65 383.85 112.8 383.45 113.35 376.9 114.25 Q376.35 114.3 376.0 113.75 375.65 113.2 375.7 112.55 L376.3 106.15 377.0 106.05 375.8 106.0 375.3 104.95 375.75 104.35 383.2 104.55 M391.95 115.9 Q392.25 115.45 392.85 115.45 393.4 115.45 393.7 115.8 394.05 116.15 394.05 116.7 394.05 117.35 393.7 117.75 393.35 118.15 392.65 118.15 392.1 118.15 391.85 117.8 391.6 117.45 391.6 116.9 391.6 116.35 391.95 115.9 M390.45 109.7 L387.95 109.4 387.8 116.45 386.55 116.8 385.9 116.3 386.5 104.1 387.1 103.6 388.15 104.1 388.0 108.15 388.2 107.7 390.75 108.1 391.0 109.3 390.45 109.7 M364.6 113.7 Q363.95 114.25 363.0 114.25 362.25 114.25 361.6 113.7 361.0 113.15 361.0 112.25 361.0 111.55 361.45 110.8 361.85 110.1 363.1 109.8 L363.25 110.3 Q364.15 110.25 364.7 110.85 365.25 111.45 365.25 112.2 365.25 113.15 364.6 113.7 M348.85 104.25 L349.2 104.85 348.7 105.8 344.0 106.15 343.2 105.05 343.6 104.5 348.85 104.25 M356.0 103.95 L357.25 104.35 356.85 111.5 355.9 112.05 355.1 111.7 355.25 108.7 353.65 109.15 353.5 108.7 353.5 111.95 352.35 112.25 351.7 111.75 351.95 104.55 352.55 104.05 353.65 104.6 353.55 107.35 355.3 107.2 355.4 104.3 356.0 103.95 M348.0 110.85 Q348.55 111.45 348.55 112.2 348.55 113.15 347.9 113.7 347.25 114.25 346.3 114.25 345.55 114.25 344.9 113.7 344.3 113.15 344.3 112.25 344.3 111.55 344.75 110.8 345.15 110.1 346.4 109.8 L346.55 110.3 Q347.45 110.25 348.0 110.85 M353.95 116.2 L353.5 116.4 Q352.75 117.2 353.75 117.7 L354.25 117.6 Q355.25 116.65 353.95 116.2 M351.7 107.6 L351.15 108.7 341.65 109.25 341.0 108.35 341.45 107.7 351.2 107.1 351.7 107.6 M353.95 114.45 L354.05 115.0 Q355.1 114.8 355.75 115.55 356.4 116.25 356.4 117.0 356.4 118.0 355.7 118.6 355.05 119.25 353.75 119.25 352.85 119.25 352.15 118.6 351.5 117.95 351.5 117.1 351.5 116.15 352.1 115.4 352.75 114.6 353.95 114.45 M333.8 117.65 L334.05 112.7 334.8 112.45 335.9 113.1 335.7 117.4 340.95 117.15 341.5 117.65 341.0 118.8 335.25 119.15 Q334.7 119.15 334.25 118.7 333.8 118.25 333.8 117.65 M333.4 104.45 L333.85 105.0 333.5 106.25 330.1 106.4 330.0 108.3 Q330.35 109.55 331.3 110.8 L333.5 112.95 332.95 114.05 332.05 114.0 330.25 112.2 Q329.45 111.2 329.15 110.2 328.9 111.3 328.25 112.3 L326.9 114.1 326.1 114.25 325.35 113.35 327.1 111.0 Q327.95 109.6 328.2 108.25 L328.45 106.4 325.5 106.55 324.9 105.4 325.25 104.75 333.4 104.45 M337.7 103.7 L338.3 104.25 337.85 111.95 337.2 112.5 336.15 111.95 336.5 104.25 337.7 103.7 M362.7 111.4 Q361.9 112.2 362.95 112.65 L363.45 112.6 Q364.4 111.65 363.1 111.2 L362.7 111.4 M346.6 111.45 Q346.35 111.45 346.15 111.65 345.4 112.45 346.45 112.95 L346.9 112.85 Q347.9 111.9 346.6 111.45 M345.0 172.35 L345.4 172.5 345.15 178.0 348.55 177.9 348.5 172.25 345.0 172.35 M350.35 172.7 L350.5 172.1 354.65 172.25 354.7 170.0 355.85 169.7 356.5 170.2 356.25 177.9 355.6 178.4 354.45 177.9 354.55 175.9 354.45 176.4 350.4 176.25 350.4 178.55 349.9 179.35 Q349.4 179.75 348.65 179.75 L344.6 179.8 Q344.05 179.85 343.7 179.3 343.35 178.75 343.4 178.1 L343.7 172.05 344.3 171.85 344.3 170.9 348.6 170.55 Q349.25 170.45 349.8 170.85 350.35 171.25 350.35 172.05 L350.35 172.7 M358.85 183.65 L358.35 184.8 352.6 185.15 Q352.05 185.15 351.6 184.7 351.15 184.25 351.15 183.65 L351.4 178.7 352.15 178.45 353.25 179.1 353.05 183.4 358.3 183.15 358.85 183.65 M354.45 175.0 L354.45 173.9 354.45 173.8 354.45 173.7 354.45 173.6 352.15 173.5 350.4 173.45 350.4 173.5 350.3 173.6 350.3 174.8 350.3 174.9 350.3 175.0 350.3 175.1 354.45 175.0 M324.1 177.1 L324.7 178.0 324.15 178.75 314.7 178.9 314.15 178.2 314.75 177.05 324.1 177.1 M337.05 170.1 L337.65 169.6 338.7 170.1 338.55 174.15 338.75 173.7 341.3 174.1 341.55 175.3 341.0 175.7 338.5 175.4 338.35 182.45 337.1 182.8 336.45 182.3 337.05 170.1 M324.2 170.7 Q324.55 171.25 324.5 171.9 L323.95 176.1 323.2 176.4 322.1 175.7 322.7 171.85 320.35 171.85 319.85 170.55 320.4 170.15 323.1 170.15 Q323.8 170.15 324.2 170.7 M327.55 170.55 L328.7 171.2 328.3 177.9 334.7 176.7 335.15 177.95 334.75 178.55 327.7 179.8 Q327.1 179.85 326.75 179.3 326.4 178.75 326.45 178.1 L326.7 170.85 327.55 170.55 M404.5 175.4 L400.65 175.5 400.3 174.8 400.0 178.55 404.4 178.2 404.5 175.4 M398.85 170.1 L399.65 169.8 400.75 170.5 400.45 173.8 404.6 173.75 404.7 170.4 405.4 169.95 406.55 170.65 406.45 173.85 406.75 174.25 407.15 173.95 410.45 174.2 410.55 170.25 411.7 169.7 412.35 170.2 412.0 183.15 411.35 183.65 410.2 183.15 410.45 175.35 410.35 175.8 406.85 175.6 406.7 174.7 406.3 175.3 406.15 178.2 Q406.15 179.0 405.75 179.45 405.35 179.9 404.5 179.95 L399.5 180.45 Q398.95 180.45 398.6 179.9 398.25 179.35 398.25 178.75 L398.85 170.1 M430.2 169.95 L430.35 170.55 Q431.45 170.45 432.15 171.05 432.85 171.65 432.85 172.6 432.85 173.8 432.05 174.45 431.3 175.05 430.0 175.05 429.2 175.05 428.5 174.4 427.8 173.75 427.8 172.65 427.8 171.8 428.4 171.05 429.0 170.35 430.2 169.95 M426.4 184.95 L426.4 183.45 427.6 182.3 432.95 182.35 433.0 181.5 426.95 181.6 426.4 180.4 427.0 179.9 433.9 179.8 Q434.2 179.8 434.6 180.2 L434.95 181.15 434.85 183.2 433.6 184.0 428.2 183.95 428.2 184.9 434.4 184.75 435.0 185.85 434.55 186.5 427.55 186.55 Q427.0 186.55 426.7 186.0 426.4 185.5 426.4 184.95 M436.0 178.0 L435.45 178.75 426.0 178.9 425.45 178.2 426.05 177.05 435.4 177.1 436.0 178.0 M415.85 183.5 L416.0 179.7 416.8 179.45 417.9 180.05 417.75 183.25 424.35 182.95 424.9 183.5 424.45 184.65 417.05 185.1 Q416.45 185.15 416.15 184.6 415.85 184.1 415.85 183.5 M425.15 178.0 L424.6 178.75 415.15 178.9 414.6 178.2 415.2 177.05 424.55 177.1 425.15 178.0 M416.05 170.25 Q416.55 169.9 417.1 169.9 L424.7 169.85 425.45 170.15 425.15 171.5 417.15 171.5 417.05 172.3 423.75 172.35 424.2 172.85 423.7 173.9 416.9 173.8 416.75 175.0 424.75 174.6 425.35 175.75 424.9 176.3 416.15 176.75 Q415.6 176.8 415.25 176.2 414.85 175.65 414.95 175.0 L415.45 171.15 Q415.55 170.65 416.05 170.25 M324.0 258.7 L324.75 258.45 325.85 259.1 325.65 263.4 330.9 263.15 331.45 263.65 330.95 264.8 325.2 265.15 Q324.65 265.15 324.2 264.7 323.75 264.25 323.75 263.65 L324.0 258.7 M327.1 250.25 L328.25 249.7 328.9 250.25 328.65 258.0 328.05 258.5 327.0 258.0 327.1 250.25 M339.75 250.55 L340.15 251.1 339.7 252.15 335.5 252.15 334.7 252.9 334.1 258.4 339.8 257.65 340.4 258.8 340.0 259.35 333.45 260.25 Q332.9 260.3 332.55 259.75 332.2 259.2 332.25 258.55 L332.85 252.15 333.55 252.05 332.35 252.0 331.85 250.95 332.3 250.35 339.75 250.55 M348.5 261.9 Q348.8 261.45 349.4 261.45 349.95 261.45 350.25 261.8 350.6 262.15 350.6 262.7 L350.25 263.75 Q349.9 264.15 349.2 264.15 348.65 264.15 348.4 263.8 348.15 263.45 348.15 262.9 348.15 262.35 348.5 261.9 M344.55 254.15 L344.75 253.7 347.3 254.1 347.55 255.3 347.0 255.7 344.5 255.4 344.35 262.45 343.1 262.8 342.45 262.3 343.05 250.1 343.65 249.6 344.7 250.1 344.55 254.15 M216.0 146.5 L217.15 147.15 216.85 150.9 223.95 150.8 224.5 151.95 224.1 152.55 216.2 152.8 Q215.65 152.8 215.3 152.25 214.9 151.75 214.95 151.1 L215.15 146.8 216.0 146.5 M209.8 146.9 L211.0 146.35 211.6 146.9 211.15 154.6 210.5 155.15 209.45 154.6 209.8 146.9 M202.8 103.7 L203.45 104.25 202.85 116.95 202.2 117.5 201.15 116.95 201.65 104.25 202.8 103.7 M214.45 106.2 L215.3 105.85 216.2 106.5 214.55 114.2 217.6 114.05 218.0 105.9 218.8 105.45 219.75 106.05 219.35 114.0 220.45 113.95 220.95 114.55 220.35 115.65 219.35 115.7 219.2 117.95 218.3 118.25 217.4 117.9 217.55 115.7 214.3 115.85 Q213.45 115.9 213.1 115.45 212.8 115.0 212.95 114.15 L214.45 106.2 M230.5 112.45 L231.6 113.1 231.4 117.4 236.65 117.15 237.2 117.65 236.7 118.8 230.95 119.15 Q230.4 119.15 229.95 118.7 229.5 118.25 229.5 117.65 L229.75 112.7 230.5 112.45 M228.75 106.15 L224.55 106.15 223.75 106.9 223.15 112.4 228.85 111.65 229.45 112.8 229.05 113.35 222.5 114.25 Q221.95 114.3 221.6 113.75 221.25 113.2 221.3 112.55 L221.9 106.15 222.6 106.05 221.4 106.0 220.9 104.95 221.35 104.35 228.8 104.55 229.2 105.1 228.75 106.15 M233.2 103.9 L234.3 104.4 234.3 107.35 234.35 106.85 236.55 107.25 236.8 108.5 236.25 108.9 234.35 108.55 234.35 112.2 233.2 112.75 232.55 112.25 232.6 104.4 233.2 103.9 M237.1 104.8 L237.65 104.35 244.3 104.75 Q244.85 104.8 245.2 105.3 245.6 105.8 245.5 106.5 L245.5 106.55 248.1 106.6 248.1 103.95 249.3 103.65 249.9 104.15 249.5 115.85 248.85 116.35 247.8 115.8 247.95 111.6 247.9 112.05 245.15 111.6 244.95 110.55 244.45 114.05 243.6 114.35 242.45 113.65 243.55 106.45 237.6 106.05 237.1 104.8 M196.2 107.35 Q196.2 108.6 195.4 109.25 194.65 109.85 193.35 109.85 192.55 109.85 191.85 109.2 191.15 108.5 191.15 107.45 191.15 106.6 191.75 105.85 192.35 105.1 193.55 104.75 L193.7 105.35 Q194.8 105.25 195.5 105.85 196.2 106.45 196.2 107.35 M193.95 107.95 Q194.9 107.05 193.6 106.55 L193.2 106.75 Q192.4 107.6 193.45 108.05 L193.95 107.95 M189.35 116.5 L188.85 115.8 189.45 114.65 198.7 114.95 199.3 115.85 198.75 116.6 189.35 116.5 M202.45 150.8 L202.05 151.0 Q201.25 151.8 202.3 152.3 L202.8 152.2 Q203.75 151.3 202.45 150.8 M179.45 148.15 L178.9 146.95 179.5 146.45 186.7 146.45 Q187.1 146.45 187.55 146.75 187.95 147.1 187.95 147.55 L187.75 150.5 186.75 151.45 181.0 151.45 181.25 153.55 187.5 153.15 188.05 154.3 187.65 154.9 184.2 155.15 183.75 158.75 189.0 158.8 189.5 159.45 188.9 160.6 179.65 160.3 179.05 159.4 179.6 158.65 182.5 158.7 182.05 158.55 182.35 155.3 180.6 155.4 Q180.05 155.45 179.6 154.85 179.2 154.3 179.35 153.7 L179.25 151.1 180.0 149.8 185.85 149.7 186.0 148.2 179.45 148.15 M175.2 146.65 L176.35 146.35 177.0 146.85 176.75 154.55 176.6 154.7 178.05 154.7 178.8 155.6 179.0 158.4 178.25 159.35 174.45 159.25 174.55 160.95 178.45 160.65 179.05 161.8 178.6 162.4 174.0 162.8 Q173.4 162.85 173.05 162.3 172.75 161.75 172.75 161.1 L172.7 158.6 173.5 157.6 177.1 157.65 177.0 156.25 172.85 156.35 172.3 155.2 172.9 154.65 175.25 154.7 174.95 154.55 175.05 152.55 174.95 153.05 170.8 152.9 170.6 152.25 170.45 154.85 Q170.45 155.65 170.05 156.1 169.65 156.55 168.8 156.6 L163.8 157.1 Q163.25 157.1 162.9 156.55 162.55 156.0 162.55 155.4 L163.15 146.75 163.95 146.45 165.05 147.15 164.75 150.45 168.9 150.4 169.0 147.05 169.7 146.6 170.85 147.3 170.8 149.65 171.0 148.75 175.15 148.9 175.2 146.65 M202.15 148.9 L202.3 149.45 Q203.4 149.4 204.1 150.0 204.85 150.65 204.85 151.6 204.85 152.8 204.05 153.4 203.25 154.05 202.0 154.05 201.15 154.05 200.45 153.4 199.7 152.7 199.7 151.65 199.7 150.8 200.35 150.0 200.95 149.25 202.15 148.9 M164.95 152.15 L164.6 151.45 164.3 155.2 168.7 154.85 168.8 152.05 164.95 152.15 M174.75 150.2 L174.75 150.1 172.4 150.0 170.55 149.95 170.55 151.3 170.55 151.4 170.55 151.5 170.8 151.55 174.75 151.5 174.75 150.3 174.75 150.2 M174.5 191.2 L175.55 191.7 175.4 195.75 175.6 195.3 178.15 195.7 178.4 196.9 177.85 197.3 175.35 197.0 175.2 204.05 173.95 204.4 173.3 203.9 173.9 191.7 174.5 191.2 M164.4 193.65 L163.2 193.6 162.7 192.55 163.15 191.95 170.6 192.15 171.0 192.7 170.55 193.75 166.35 193.75 165.55 194.5 164.95 200.0 170.65 199.25 171.25 200.4 170.85 200.95 164.3 201.85 Q163.75 201.9 163.4 201.35 163.05 200.8 163.1 200.15 L163.7 193.75 164.4 193.65 M180.9 194.25 Q180.9 193.4 181.5 192.65 182.1 191.95 183.3 191.55 L183.45 192.15 Q184.55 192.05 185.25 192.65 185.95 193.25 185.95 194.2 185.95 195.4 185.15 196.05 184.4 196.65 183.1 196.65 182.3 196.65 181.6 196.0 180.9 195.35 180.9 194.25 M199.15 193.75 L199.85 193.65 198.65 193.6 198.15 192.55 198.6 191.95 206.05 192.15 206.45 192.7 206.0 193.75 201.8 193.75 201.0 194.5 200.4 200.0 206.1 199.25 206.7 200.4 206.3 200.95 199.75 201.85 Q199.2 201.9 198.85 201.35 198.5 200.8 198.55 200.15 L199.15 193.75 M206.75 159.95 Q207.25 158.95 207.35 157.95 L207.3 155.75 208.0 155.45 208.9 156.0 209.1 157.75 209.75 158.55 210.6 159.3 210.0 160.25 209.3 160.25 208.8 159.75 Q208.55 159.45 208.6 159.2 L208.0 160.95 206.85 162.45 205.6 162.45 205.45 161.75 206.75 159.95 M213.0 156.3 L212.9 158.05 213.55 159.9 214.5 161.45 214.0 162.45 213.25 162.45 212.35 161.2 Q211.95 160.55 211.95 159.9 L211.45 161.2 210.3 162.45 209.05 162.3 208.9 161.6 210.35 160.1 Q210.95 159.25 211.2 158.15 L211.35 155.8 212.1 155.65 213.0 156.3 M237.95 170.2 L238.5 169.75 245.4 170.15 Q245.9 170.2 246.25 170.7 246.65 171.25 246.55 171.9 L245.7 178.8 244.85 179.05 243.75 178.4 244.65 171.85 238.5 171.45 237.95 170.2 M224.9 154.65 L224.35 155.4 214.9 155.55 214.35 154.85 214.95 153.7 224.3 153.75 224.9 154.65 M224.1 159.6 L224.65 160.15 224.2 161.3 216.8 161.75 Q216.2 161.8 215.9 161.25 215.6 160.75 215.6 160.15 L215.75 156.35 216.55 156.1 217.65 156.7 217.5 159.9 224.1 159.6 M237.45 182.2 L238.05 181.0 247.3 181.35 247.9 182.25 247.35 183.0 237.95 182.85 237.45 182.2 M222.1 197.3 L222.1 197.35 225.05 197.3 225.05 195.95 225.05 195.85 222.1 195.85 222.1 197.3 M214.85 193.65 L214.35 192.4 214.9 191.95 221.55 192.35 Q222.1 192.4 222.45 192.9 222.85 193.4 222.75 194.1 L222.75 194.15 225.35 194.2 225.35 191.55 226.55 191.25 227.15 191.75 226.75 203.45 226.1 203.95 225.05 203.4 225.2 199.2 225.15 199.65 222.4 199.2 222.2 198.15 221.7 201.65 220.85 201.95 219.7 201.25 220.8 194.05 214.85 193.65 M209.85 192.0 L210.45 191.5 211.55 192.0 211.55 194.95 211.6 194.45 213.8 194.85 214.05 196.1 213.5 196.5 211.6 196.15 211.6 199.8 210.45 200.35 209.8 199.85 209.85 192.0 M284.25 104.1 L284.85 103.6 285.9 104.1 285.75 108.15 285.95 107.7 288.5 108.1 288.75 109.3 288.2 109.7 285.7 109.4 285.55 116.45 284.3 116.8 283.65 116.3 284.25 104.1 M300.25 103.95 L301.45 103.65 302.05 104.15 301.65 115.85 301.0 116.35 299.95 115.8 300.1 111.6 300.05 112.05 297.3 111.6 297.05 110.35 297.6 109.95 300.15 110.4 300.15 108.05 297.65 108.3 297.3 107.95 297.25 108.85 296.25 109.8 291.5 109.8 291.7 112.9 297.4 112.35 298.0 113.55 297.55 114.1 291.15 114.8 Q290.6 114.85 290.25 114.3 L289.9 113.1 289.7 109.15 290.7 108.2 295.45 108.15 295.55 106.15 289.9 106.1 289.45 104.9 290.05 104.4 296.4 104.45 297.45 105.35 297.35 106.9 297.5 106.55 300.25 106.6 300.25 103.95 M304.45 103.8 L305.1 104.35 304.6 116.1 304.0 116.6 302.9 116.1 303.25 104.35 304.45 103.8 M314.25 104.1 Q314.65 104.45 314.65 104.9 L314.45 107.85 313.45 108.8 307.7 108.8 307.95 110.9 314.2 110.5 314.75 111.65 314.35 112.25 310.9 112.5 310.45 116.1 315.7 116.15 316.2 116.8 315.6 117.95 306.35 117.65 305.75 116.75 306.3 116.0 309.2 116.05 308.75 115.9 309.05 112.65 307.3 112.75 306.3 112.2 Q305.9 111.65 306.05 111.05 L305.95 108.45 306.7 107.15 312.55 107.05 312.7 105.55 306.15 105.5 305.6 104.3 306.2 103.8 313.4 103.8 Q313.8 103.8 314.25 104.1 M229.55 191.4 L230.2 191.95 229.7 203.7 229.1 204.2 228.0 203.7 228.35 191.95 229.55 191.4 M231.05 196.05 L231.8 194.75 237.65 194.65 237.8 193.15 231.25 193.1 230.7 191.9 231.3 191.4 238.5 191.4 239.35 191.7 Q239.75 192.05 239.75 192.5 L239.55 195.45 238.55 196.4 232.8 196.4 233.05 198.5 239.3 198.1 239.85 199.25 239.45 199.85 236.0 200.1 235.55 203.7 240.8 203.75 241.3 204.4 240.7 205.55 231.45 205.25 230.85 204.35 231.4 203.6 234.3 203.65 233.85 203.5 234.15 200.25 232.4 200.35 Q231.85 200.4 231.4 199.8 231.0 199.25 231.15 198.65 L231.05 196.05 M260.95 116.35 L261.0 115.5 254.95 115.6 254.4 114.4 255.0 113.9 261.9 113.8 Q262.2 113.8 262.6 114.2 262.95 114.65 262.95 115.15 L262.85 117.2 261.6 118.0 256.2 117.95 256.2 118.9 262.4 118.75 263.0 119.85 262.55 120.5 255.55 120.55 Q255.0 120.55 254.7 120.0 254.4 119.5 254.4 118.95 L254.4 117.45 255.6 116.3 260.95 116.35 M244.9 109.75 L244.9 109.85 245.55 109.85 246.4 109.85 246.4 109.9 246.4 109.95 248.15 109.95 248.15 109.9 248.15 108.55 248.15 108.45 247.15 108.45 247.15 108.35 245.55 108.3 Q244.9 109.05 244.9 109.75 M252.3 103.8 L252.95 104.35 252.45 116.1 251.85 116.6 250.75 116.1 251.1 104.35 252.3 103.8 M264.0 112.0 L263.45 112.75 254.0 112.9 253.45 112.2 254.05 111.05 263.4 111.1 264.0 112.0 M263.25 108.6 L263.85 109.75 263.4 110.35 255.5 110.65 254.6 110.3 Q254.25 109.9 254.25 109.35 L254.25 107.35 254.95 106.35 261.45 106.15 261.45 105.6 254.45 105.6 253.9 104.4 254.5 103.9 262.5 103.85 263.5 104.9 263.45 106.7 262.65 107.75 256.05 107.95 256.15 108.8 263.25 108.6 M275.65 104.1 L276.2 103.55 277.35 104.0 277.85 106.5 277.4 106.75 280.25 106.85 280.7 107.35 280.3 108.6 277.75 108.5 277.75 109.05 Q278.05 109.95 279.1 110.9 L281.25 112.2 281.05 113.5 280.35 113.75 Q279.25 113.35 278.3 112.6 L276.95 110.9 Q276.7 111.8 275.85 112.6 L273.9 113.95 273.3 113.8 272.7 112.7 274.7 111.15 275.95 109.2 275.95 108.45 272.75 108.4 272.15 107.25 272.5 106.6 276.45 106.7 275.65 104.1 M281.6 172.5 L281.6 172.55 284.2 172.6 284.2 169.95 285.4 169.65 286.0 170.15 285.6 181.85 284.95 182.35 283.9 181.8 284.05 177.6 284.0 178.05 281.25 177.6 281.05 176.55 280.55 180.05 279.7 180.35 278.55 179.65 279.65 172.45 273.7 172.05 273.2 170.8 Q273.5 170.6 273.75 170.35 L280.4 170.75 Q280.95 170.8 281.3 171.3 281.7 171.8 281.6 172.5 M268.7 170.4 L269.3 169.9 270.4 170.4 270.4 173.35 270.45 172.85 272.65 173.25 272.9 174.5 272.35 174.9 270.45 174.55 270.45 178.2 269.3 178.75 268.65 178.25 268.7 170.4 M265.3 171.1 L264.85 172.15 260.65 172.15 259.85 172.9 259.25 178.4 264.95 177.65 265.55 178.8 265.15 179.35 258.6 180.25 Q258.05 180.3 257.7 179.75 257.35 179.2 257.4 178.55 L258.0 172.15 258.7 172.05 257.5 172.0 257.0 170.95 257.45 170.35 264.9 170.55 265.3 171.1 M278.8 191.2 L279.85 191.7 279.7 195.75 279.9 195.3 282.45 195.7 282.7 196.9 282.15 197.3 279.65 197.0 279.5 204.05 278.25 204.4 277.6 203.9 278.2 191.7 278.8 191.2 M267.5 193.6 L267.0 192.55 267.45 191.95 274.9 192.15 275.3 192.7 274.85 193.75 270.65 193.75 269.85 194.5 269.25 200.0 274.95 199.25 275.55 200.4 275.15 200.95 268.6 201.85 267.7 201.35 Q267.35 200.8 267.4 200.15 L268.0 193.75 268.7 193.65 267.5 193.6 M265.85 178.7 L266.6 178.45 267.7 179.1 267.5 183.4 272.75 183.15 273.3 183.65 272.8 184.8 267.05 185.15 266.05 184.7 Q265.6 184.25 265.6 183.65 L265.85 178.7 M281.1 174.3 L281.1 174.35 281.1 175.75 281.1 175.85 284.15 175.8 284.15 175.75 284.15 174.45 284.15 174.35 281.1 174.3 M262.0 192.0 L262.6 191.5 263.7 192.0 263.7 194.95 263.75 194.45 265.95 194.85 266.2 196.1 265.65 196.5 263.75 196.15 263.75 199.8 262.6 200.35 261.95 199.85 262.0 192.0 M249.8 192.4 L250.35 191.95 257.0 192.35 Q257.55 192.4 257.9 192.9 258.3 193.4 258.2 194.1 L257.15 201.65 256.3 201.95 255.15 201.25 256.25 194.05 250.3 193.65 249.8 192.4 M317.5 171.65 L314.6 171.5 314.1 170.25 314.65 169.8 318.15 169.95 Q318.65 170.0 319.15 170.5 319.65 171.05 319.3 171.75 L316.75 176.3 316.05 176.6 314.9 175.9 317.5 171.65 M110.15 92.55 Q110.45 92.1 111.05 92.1 111.6 92.1 111.9 92.45 112.25 92.8 112.25 93.35 L111.9 94.4 Q111.55 94.8 110.85 94.8 110.3 94.8 110.05 94.45 109.8 94.1 109.8 93.55 109.8 93.0 110.15 92.55 M103.35 85.7 L106.05 82.65 Q106.7 81.95 107.45 82.3 108.15 82.7 108.1 83.65 L107.5 94.6 106.25 94.9 105.65 94.5 106.3 84.7 104.4 87.15 103.3 86.65 103.35 85.7 M315.05 184.95 L315.35 181.05 Q315.4 180.45 315.9 180.05 316.45 179.6 316.95 179.6 L323.35 179.6 323.75 180.2 323.2 181.4 317.15 181.4 317.0 182.35 322.5 182.25 323.0 182.75 322.45 183.8 316.95 183.8 316.85 184.9 322.95 184.45 323.55 185.65 323.1 186.2 316.25 186.65 315.35 186.1 Q315.0 185.55 315.05 184.95 M301.6 170.1 L302.2 169.6 303.25 170.1 303.1 174.15 303.3 173.7 305.85 174.1 306.1 175.3 305.55 175.7 303.05 175.4 302.9 182.45 301.65 182.8 301.0 182.3 301.6 170.1 M289.9 170.8 L290.45 170.35 297.1 170.75 Q297.65 170.8 298.0 171.3 298.4 171.8 298.3 172.5 L297.25 180.05 296.4 180.35 295.25 179.65 296.35 172.45 290.4 172.05 289.9 170.8 M287.2 170.35 L288.4 169.8 289.05 170.35 288.55 182.1 287.95 182.6 286.85 182.1 287.2 170.35 M148.75 152.5 L148.85 152.35 148.9 152.25 148.9 150.95 148.9 150.85 147.2 150.8 147.2 150.85 146.1 151.05 146.05 151.1 146.05 152.4 146.05 152.5 148.75 152.5 M108.9 149.05 Q109.65 149.95 109.65 151.4 109.65 152.65 107.9 155.1 106.15 157.6 104.4 158.9 L109.35 158.9 109.75 160.0 109.35 160.65 103.85 160.65 Q102.75 160.8 102.3 160.15 101.8 159.55 102.5 158.8 L105.55 155.4 Q107.65 152.95 107.65 151.45 107.65 150.7 107.35 150.3 107.05 149.95 106.45 149.95 105.9 149.95 105.2 150.55 104.5 151.2 104.45 152.15 L103.7 152.55 102.6 151.85 Q103.0 150.3 103.95 149.25 104.95 148.2 106.45 148.2 108.15 148.2 108.9 149.05 M112.25 159.35 L111.9 160.4 Q111.55 160.8 110.85 160.8 110.3 160.8 110.05 160.45 109.8 160.1 109.8 159.55 109.8 159.0 110.15 158.55 110.45 158.1 111.05 158.1 111.6 158.1 111.9 158.45 112.25 158.8 112.25 159.35 M151.95 147.0 L153.15 146.45 153.8 147.0 153.3 158.75 152.7 159.25 151.6 158.75 151.95 147.0 M137.95 147.45 L138.5 147.0 145.15 147.4 Q145.7 147.45 146.05 147.95 146.45 148.45 146.35 149.15 L146.35 149.2 148.95 149.25 148.95 146.6 150.15 146.3 150.75 146.8 150.35 158.5 149.7 159.0 148.65 158.45 148.8 154.25 148.75 154.7 146.0 154.25 145.8 153.2 145.3 156.7 144.45 157.0 143.3 156.3 144.4 149.1 138.45 148.7 137.95 147.45 M121.75 147.6 L122.2 147.0 129.65 147.2 130.05 147.75 129.6 148.8 125.4 148.8 124.6 149.55 124.0 155.05 129.7 154.3 130.3 155.45 129.9 156.0 123.35 156.9 Q122.8 156.95 122.45 156.4 122.1 155.85 122.15 155.2 L122.75 148.8 123.45 148.7 122.25 148.65 121.75 147.6 M133.45 147.05 L134.05 146.55 135.15 147.05 135.15 150.0 135.2 149.5 137.4 149.9 137.65 151.15 137.1 151.55 135.2 151.2 135.2 154.85 134.05 155.4 133.4 154.9 133.45 147.05 M132.45 155.75 L132.25 160.05 137.5 159.8 138.05 160.3 137.55 161.45 131.8 161.8 Q131.25 161.8 130.8 161.35 130.35 160.9 130.35 160.3 L130.6 155.35 131.35 155.1 132.45 155.75 M138.25 193.7 L137.8 192.5 138.4 192.0 144.75 192.05 145.8 192.95 145.6 196.45 144.6 197.4 139.85 197.4 140.05 200.5 145.75 199.95 146.35 201.15 145.9 201.7 139.5 202.4 Q138.95 202.45 138.6 201.9 L138.25 200.7 138.05 196.75 139.05 195.8 143.8 195.75 143.9 193.75 138.25 193.7 M127.35 197.2 Q126.95 196.7 127.0 196.05 L127.2 191.75 128.05 191.45 129.2 192.1 128.9 195.85 136.0 195.75 136.55 196.9 136.15 197.5 128.25 197.75 Q127.7 197.75 127.35 197.2 M136.25 200.35 L132.9 200.3 133.35 200.45 133.05 201.45 134.85 201.4 Q135.15 201.4 135.55 201.8 L135.9 202.75 135.8 204.8 134.55 205.6 129.15 205.55 129.15 206.5 135.35 206.35 135.95 207.45 135.5 208.1 128.5 208.15 Q127.95 208.15 127.65 207.6 127.35 207.1 127.35 206.55 L127.35 205.05 128.55 203.9 133.9 203.95 133.95 203.1 127.9 203.2 127.35 202.0 127.95 201.5 131.25 201.45 131.8 200.25 127.05 200.2 126.55 199.55 127.15 198.55 136.2 198.7 136.8 199.6 136.25 200.35 M151.05 191.3 L151.7 191.8 151.35 204.75 150.7 205.25 149.55 204.75 149.8 196.95 149.7 197.4 146.2 197.2 145.95 195.95 146.5 195.55 149.8 195.8 149.9 191.85 Q150.5 191.6 151.05 191.3 M110.15 238.55 Q110.45 238.1 111.05 238.1 111.6 238.1 111.9 238.45 112.25 238.8 112.25 239.35 L111.9 240.4 Q111.55 240.8 110.85 240.8 110.3 240.8 110.05 240.45 109.8 240.1 109.8 239.55 109.8 239.0 110.15 238.55 M106.4 227.95 Q107.95 227.95 108.65 228.65 109.3 229.3 109.3 230.85 109.3 231.8 108.3 232.7 107.3 233.55 106.65 233.6 107.55 233.6 108.4 234.3 109.3 235.05 109.3 236.25 109.3 238.05 107.45 239.5 105.6 241.0 103.5 241.0 L102.95 240.3 103.2 239.45 Q104.7 239.45 106.15 238.5 107.6 237.5 107.6 236.35 107.6 235.65 106.85 235.2 L104.6 235.15 103.9 234.55 104.2 233.5 106.5 232.3 Q107.6 231.65 107.6 230.8 L107.3 230.0 Q107.0 229.7 106.45 229.7 L105.15 230.05 103.45 231.15 102.4 230.6 102.45 229.85 Q103.1 229.2 104.3 228.55 105.55 227.95 106.4 227.95 M284.55 203.05 Q285.1 203.05 285.4 203.4 L285.75 204.3 Q285.75 204.95 285.4 205.35 285.05 205.75 284.35 205.75 283.8 205.75 283.55 205.4 283.3 205.05 283.3 204.5 283.3 203.95 283.65 203.5 283.95 203.05 284.55 203.05 M266.6 205.25 L266.1 206.4 260.35 206.75 Q259.8 206.75 259.35 206.3 258.9 205.85 258.9 205.25 L259.15 200.3 259.9 200.05 261.0 200.7 260.8 205.0 266.05 204.75 266.6 205.25 M268.7 250.25 L269.85 249.7 270.5 250.25 269.9 262.95 269.3 263.5 268.2 262.95 268.7 250.25 M281.25 250.8 L281.8 250.35 288.45 250.75 Q289.0 250.8 289.35 251.3 L289.7 252.25 289.7 252.1 293.85 252.25 293.9 250.0 295.05 249.7 295.7 250.2 295.45 257.9 295.3 258.05 296.75 258.05 297.5 258.95 297.7 261.75 296.95 262.7 293.15 262.6 293.25 264.3 297.15 264.0 297.75 265.15 297.3 265.75 292.7 266.15 Q292.1 266.2 291.75 265.65 291.45 265.1 291.45 264.45 L291.4 261.95 292.2 260.95 295.8 261.0 295.7 259.6 291.55 259.7 291.0 258.55 291.6 258.0 293.95 258.05 293.65 257.9 293.75 255.9 293.65 256.4 289.5 256.25 289.25 255.45 288.6 260.05 287.75 260.35 286.6 259.65 287.7 252.45 281.75 252.05 281.25 250.8 M260.8 252.25 L260.95 252.8 Q262.05 252.75 262.75 253.35 263.5 254.0 263.5 254.95 263.5 256.15 262.7 256.75 261.9 257.4 260.65 257.4 259.8 257.4 259.1 256.75 258.35 256.05 258.35 255.0 258.35 254.15 259.0 253.35 259.6 252.6 260.8 252.25 M306.65 250.45 L307.1 251.0 306.75 252.25 303.35 252.4 303.25 254.3 Q303.6 255.55 304.55 256.8 L306.75 258.95 306.2 260.05 305.3 260.0 303.5 258.2 Q302.7 257.2 302.4 256.2 302.15 257.3 301.5 258.3 L300.15 260.1 299.35 260.25 298.6 259.35 300.35 257.0 Q301.2 255.6 301.45 254.25 L301.7 252.4 298.75 252.55 298.15 251.4 298.5 250.75 306.65 250.45 M310.2 250.6 L311.4 250.0 312.0 250.55 312.1 258.25 311.45 258.75 310.4 258.25 310.35 255.3 310.3 255.8 306.6 255.55 306.4 254.3 306.9 253.9 310.3 254.1 310.2 250.6 M322.75 250.4 L323.15 251.0 322.8 252.05 316.8 251.95 317.5 252.25 316.5 254.7 322.45 254.25 323.0 255.45 322.6 256.0 318.95 256.3 318.55 259.45 322.55 259.35 323.0 259.9 322.5 261.1 315.2 261.25 314.65 260.15 315.2 259.6 317.4 259.55 316.9 259.35 317.3 256.45 315.9 256.55 Q315.3 256.6 314.85 256.0 314.45 255.45 314.65 254.85 L315.7 251.95 314.75 251.85 314.25 250.85 314.75 250.25 322.75 250.4 M251.55 259.4 L252.1 258.95 253.25 259.5 253.2 261.9 Q253.65 262.95 254.55 263.55 L256.5 264.55 256.6 265.45 255.4 266.05 253.65 265.0 Q252.85 264.45 252.45 263.7 L251.0 265.3 249.05 266.5 247.95 266.0 247.75 265.3 250.1 263.85 Q251.1 263.1 251.55 261.9 L251.55 259.4 M243.05 258.0 L246.45 257.9 246.4 252.25 242.9 252.35 243.3 252.5 243.05 258.0 M246.5 250.55 Q247.15 250.45 247.7 250.85 248.25 251.25 248.25 252.05 L248.3 258.55 247.8 259.35 Q247.3 259.75 246.55 259.75 L242.5 259.8 Q241.95 259.85 241.6 259.3 241.25 258.75 241.3 258.1 L241.6 252.05 242.2 251.85 242.2 250.9 246.5 250.55 M260.9 253.95 L260.45 254.15 Q259.65 255.0 260.7 255.45 L261.2 255.35 Q262.15 254.45 260.9 253.95 M253.85 250.4 L253.85 253.35 253.9 252.85 256.1 253.25 256.35 254.5 255.8 254.9 253.9 254.55 253.9 258.2 Q253.35 258.5 252.75 258.75 L252.1 258.25 252.15 250.4 252.75 249.9 253.85 250.4 M310.6 261.0 Q311.65 260.8 312.3 261.55 312.95 262.25 312.95 263.0 312.95 264.0 312.25 264.6 311.6 265.25 310.3 265.25 309.4 265.25 308.7 264.6 308.05 263.95 308.05 263.1 308.05 262.15 308.65 261.4 309.3 260.6 310.5 260.45 L310.6 261.0 M214.45 205.25 L213.95 206.4 208.2 206.75 Q207.65 206.75 207.2 206.3 206.75 205.85 206.75 205.25 L207.0 200.3 207.75 200.05 208.85 200.7 208.65 205.0 213.9 204.75 214.45 205.25 M289.4 253.2 L289.4 253.25 289.4 254.65 289.4 254.75 293.4 254.7 293.4 254.65 293.4 253.35 293.4 253.25 289.4 253.2 M310.2 262.3 L309.75 262.5 Q309.0 263.35 310.0 263.8 L310.5 263.7 Q311.5 262.8 310.2 262.3 M187.05 202.55 L187.4 203.45 187.7 206.55 187.35 207.5 186.5 207.95 181.35 207.95 Q180.8 207.95 180.45 207.4 180.05 206.85 180.15 206.2 L180.5 203.1 181.4 202.8 181.55 202.05 186.05 202.1 Q186.75 202.1 187.05 202.55 M189.1 199.6 L188.55 200.35 179.1 200.5 178.55 199.8 179.15 198.65 188.5 198.7 189.1 199.6 M185.9 206.25 L185.75 203.65 182.0 203.75 181.9 206.2 185.9 206.25 M178.1 249.65 L178.75 250.15 178.25 262.05 177.6 262.6 176.55 262.05 176.8 255.65 173.9 255.45 173.7 254.25 174.2 253.8 176.85 253.95 176.9 250.2 178.1 249.65 M180.15 250.1 L181.3 249.55 181.95 250.05 181.45 262.25 180.8 262.75 179.75 262.25 180.15 250.1 M201.85 262.3 L202.45 250.1 203.05 249.6 204.1 250.1 203.95 254.15 204.15 253.7 206.7 254.1 206.95 255.3 206.4 255.7 203.9 255.4 203.75 262.45 202.5 262.8 201.85 262.3 M194.5 256.7 L194.55 256.7 194.5 256.8 194.5 256.7 M193.4 253.2 L193.4 253.3 193.3 254.35 193.25 254.3 193.25 253.9 192.95 255.1 192.85 256.6 192.85 257.6 195.25 257.6 195.15 253.1 195.15 252.2 195.15 252.1 193.65 252.1 193.55 252.5 193.45 252.95 193.4 253.2 M199.95 250.65 L200.45 251.1 200.2 252.3 197.7 252.15 197.65 257.95 199.7 257.7 200.3 258.8 200.0 259.45 197.0 259.8 Q196.45 259.85 196.05 259.3 L195.8 258.55 195.4 259.0 191.8 259.8 Q191.2 259.95 190.75 259.35 190.35 258.75 190.5 258.05 L191.7 252.2 191.1 252.1 190.6 251.1 191.05 250.45 195.1 250.7 195.45 251.15 195.4 251.05 195.9 250.45 199.95 250.65 M172.2 256.75 Q171.4 257.4 170.15 257.4 169.3 257.4 168.6 256.75 167.85 256.05 167.85 255.0 167.85 254.15 168.5 253.35 169.1 252.6 170.3 252.25 L170.45 252.8 Q171.55 252.75 172.25 253.35 173.0 254.0 173.0 254.95 173.0 256.15 172.2 256.75 M214.6 250.45 L215.65 251.35 215.45 254.85 214.45 255.8 209.7 255.8 209.9 258.9 215.6 258.35 216.2 259.55 215.75 260.1 209.35 260.8 Q208.8 260.85 208.45 260.3 208.15 259.75 208.1 259.1 L207.9 255.15 208.9 254.2 213.65 254.15 213.75 252.15 208.1 252.1 207.65 250.9 208.25 250.4 214.6 250.45 M223.4 254.1 L223.65 255.3 223.1 255.7 220.6 255.4 220.45 262.45 219.2 262.8 218.55 262.3 219.15 250.1 219.75 249.6 220.8 250.1 220.65 254.15 220.85 253.7 223.4 254.1 M170.4 255.55 Q171.4 254.65 170.1 254.15 169.85 254.15 169.7 254.35 168.9 255.15 169.95 255.65 L170.4 255.55" fill="#9744bf" fill-rule="evenodd" stroke="none"/>
    <path d="M403.75 78.75 L404.45 79.35 403.8 93.5 403.1 94.05 401.9 93.45 402.45 79.35 403.75 78.75 M398.1 80.5 Q398.5 81.1 398.4 81.85 L397.2 90.25 396.25 90.55 395.0 89.8 396.25 81.75 389.65 81.35 389.1 79.95 389.7 79.5 397.1 79.9 Q397.65 79.95 398.1 80.5 M384.25 88.5 L383.05 87.9 383.5 79.35 384.8 78.75 385.5 79.35 384.95 87.95 384.25 88.5 M383.65 90.9 L380.1 90.95 379.4 89.65 379.8 88.95 388.35 88.95 388.9 89.5 388.45 90.95 385.8 90.95 385.65 92.65 Q385.95 93.35 386.8 93.75 L388.9 94.3 388.65 95.7 387.75 96.05 385.85 95.4 Q385.0 94.95 384.6 94.25 L383.2 95.8 Q382.15 96.6 380.9 97.05 L379.75 96.55 379.45 95.75 381.8 94.45 383.4 92.85 383.65 90.9 M373.0 85.2 L372.65 84.45 372.3 88.55 377.2 88.15 377.3 85.05 373.0 85.2 M379.9 83.9 L379.35 85.0 379.15 88.2 Q379.15 89.05 378.7 89.55 378.25 90.05 377.35 90.15 L371.8 90.65 Q371.1 90.7 370.75 90.1 370.35 89.45 370.4 88.8 L371.0 79.15 371.9 78.85 373.15 79.65 372.8 83.3 377.45 83.25 377.5 79.5 378.3 79.0 379.6 79.8 379.5 83.35 379.9 83.9 M364.35 96.0 L363.15 95.35 363.95 91.5 358.65 91.45 358.1 90.7 358.75 89.4 368.85 89.75 369.5 90.75 368.9 91.6 365.15 91.5 365.65 91.7 365.0 95.7 364.35 96.0 M350.7 88.5 L351.9 89.2 351.7 93.95 357.5 93.65 358.1 94.25 357.6 95.55 351.2 95.9 350.1 95.45 Q349.55 94.95 349.6 94.2 L349.85 88.75 350.7 88.5 M355.0 82.25 L357.45 82.7 357.7 84.05 357.1 84.5 355.0 84.15 355.0 88.2 353.65 88.8 352.95 88.25 353.0 79.5 353.7 78.95 354.9 79.55 354.95 82.8 355.0 82.25 M357.75 80.25 L358.25 79.6 367.55 79.7 368.1 80.35 367.55 81.55 360.55 81.5 361.3 81.8 360.25 86.25 367.4 85.75 368.05 87.0 367.55 87.65 359.55 88.35 Q358.9 88.4 358.45 87.75 358.0 87.15 358.15 86.4 L359.35 81.5 358.3 81.4 357.75 80.25 M338.05 94.25 L336.6 97.6 335.75 97.75 335.15 97.2 335.95 93.65 336.8 93.4 338.05 94.25 M329.95 79.35 L331.25 78.75 331.95 79.35 331.3 93.5 330.6 94.05 329.4 93.45 329.95 79.35 M325.6 80.5 Q326.0 81.1 325.9 81.85 L324.7 90.25 323.75 90.55 322.5 89.8 323.75 81.75 317.15 81.35 316.6 79.95 317.2 79.5 324.6 79.9 Q325.15 79.95 325.6 80.5 M341.3 81.35 L341.95 81.15 342.0 80.05 346.75 79.7 Q347.5 79.6 348.1 80.05 348.7 80.45 348.7 81.35 L348.75 88.55 Q348.75 89.0 348.2 89.45 347.65 89.9 346.8 89.9 L342.3 90.0 Q341.7 90.05 341.3 89.4 340.9 88.8 340.95 88.1 L341.3 81.35 M342.7 81.7 L343.2 81.85 342.9 87.95 346.7 87.9 346.6 81.55 342.7 81.7 M410.55 94.25 L409.1 97.6 408.25 97.75 407.65 97.2 408.45 93.65 409.3 93.4 410.55 94.25 M402.6 145.95 L403.2 145.5 410.6 145.9 Q411.15 145.95 411.6 146.5 412.0 147.1 411.9 147.85 L411.9 147.9 414.75 147.95 414.8 145.05 416.15 144.7 416.8 145.25 416.35 158.2 415.65 158.8 414.45 158.2 414.6 153.5 414.55 154.05 411.5 153.5 411.3 152.3 410.7 156.25 409.75 156.55 408.5 155.8 409.75 147.75 403.15 147.35 402.6 145.95 M398.1 144.95 L399.3 145.55 399.35 148.8 399.4 148.25 401.85 148.7 402.1 150.05 401.5 150.5 399.4 150.15 399.4 154.2 398.05 154.8 397.35 154.25 397.4 145.5 398.1 144.95 M384.95 145.5 L393.2 145.7 393.65 146.3 393.15 147.5 388.5 147.5 387.55 148.3 386.95 154.4 393.3 153.55 393.95 154.85 393.45 155.5 386.25 156.5 Q385.6 156.5 385.2 155.9 384.8 155.3 384.85 154.55 L385.55 147.45 386.3 147.35 385.0 147.3 384.4 146.15 384.95 145.5 M372.25 145.85 Q372.65 146.45 372.55 147.2 L371.6 154.8 370.65 155.15 369.4 154.4 370.4 147.15 363.55 146.65 363.0 145.25 363.6 144.8 371.25 145.25 Q371.8 145.3 372.25 145.85 M362.45 158.6 L363.1 157.3 373.35 157.65 374.0 158.65 373.45 159.5 363.0 159.35 362.45 158.6 M350.1 144.7 L350.85 145.3 350.45 159.7 349.75 160.25 348.45 159.65 348.75 151.0 348.6 151.55 344.7 151.3 344.45 149.9 345.05 149.45 348.75 149.75 348.8 145.35 350.1 144.7 M339.7 144.8 L340.7 145.65 340.6 149.6 Q340.8 150.7 342.0 151.85 343.25 153.0 344.4 153.75 L343.75 155.15 342.8 155.1 341.05 153.45 Q340.1 152.6 339.65 151.55 L338.6 154.05 337.0 156.35 335.6 156.05 335.4 155.3 337.3 152.65 Q338.25 151.1 338.65 149.45 L338.9 145.2 339.7 144.8 M324.7 145.35 L325.1 146.0 324.6 147.1 319.35 147.45 318.45 146.2 318.9 145.6 324.7 145.35 M328.2 145.7 L328.9 145.15 330.1 145.7 329.95 149.75 330.0 149.2 332.0 149.6 332.05 145.15 332.7 144.75 334.05 145.25 333.8 158.9 332.75 159.45 331.85 159.1 332.0 151.15 330.0 151.1 329.85 158.9 328.4 159.25 327.7 158.65 328.2 145.7 M327.9 149.1 L327.3 150.25 316.75 150.95 316.05 149.95 316.55 149.2 327.35 148.5 327.9 149.1 M396.3 155.2 L396.1 159.95 401.9 159.65 402.5 160.25 402.0 161.55 395.6 161.9 Q395.0 161.9 394.5 161.45 393.95 160.95 394.0 160.2 L394.25 154.75 395.1 154.5 396.3 155.2 M429.2 158.8 L429.25 157.8 422.55 157.95 421.95 156.6 422.6 156.05 430.25 155.95 Q430.6 155.95 431.0 156.45 431.45 156.9 431.4 157.45 L431.35 159.75 429.95 160.6 423.95 160.55 423.95 161.6 430.85 161.45 431.5 162.7 431.0 163.4 423.2 163.45 Q422.6 163.45 422.3 162.85 421.95 162.3 421.95 161.7 L421.95 160.0 423.3 158.75 429.2 158.8 M431.95 152.95 L432.6 153.95 432.0 154.8 421.45 154.95 420.9 154.2 421.55 152.9 431.95 152.95 M419.45 144.85 L420.15 145.45 419.65 158.55 418.95 159.1 417.75 158.5 418.15 145.5 419.45 144.85 M422.0 146.85 L421.4 145.5 422.05 144.95 430.95 144.9 432.0 146.05 432.0 148.1 431.15 149.25 423.75 149.45 423.85 150.4 431.75 150.2 432.4 151.45 431.95 152.1 423.15 152.45 Q422.55 152.5 422.15 152.1 421.8 151.65 421.8 151.0 L421.75 148.8 422.55 147.7 429.75 147.5 429.8 146.85 422.0 146.85 M414.55 150.05 L414.55 149.95 411.45 149.95 411.45 151.4 411.45 151.45 414.55 151.45 414.55 151.4 414.55 150.05 M407.75 228.05 L407.35 228.25 Q406.55 229.1 407.6 229.55 L408.05 229.45 Q409.05 228.55 407.75 228.05 M422.7 225.55 L423.9 226.55 423.65 230.5 422.55 231.5 417.25 231.55 417.45 235.0 423.85 234.35 424.5 235.65 424.0 236.3 416.9 237.05 Q416.25 237.1 415.9 236.5 415.55 235.9 415.5 235.2 L415.25 230.75 416.35 229.75 421.65 229.7 421.75 227.5 415.5 227.4 415.0 226.1 415.65 225.5 422.7 225.55 M407.45 225.9 L407.6 226.55 Q408.85 226.5 409.6 227.15 410.4 227.75 410.4 228.8 410.4 230.2 409.55 230.9 408.7 231.6 407.25 231.6 406.35 231.6 405.55 230.85 404.75 230.1 404.75 228.9 404.75 227.95 405.45 227.15 406.1 226.3 407.45 225.9 M382.5 240.05 L382.65 235.85 383.5 235.55 384.7 236.25 384.55 239.8 391.9 239.45 392.55 240.05 392.0 241.35 383.8 241.85 Q383.15 241.9 382.8 241.3 382.45 240.75 382.5 240.05 M365.65 227.65 L365.45 228.85 364.8 233.6 366.05 233.65 366.9 233.75 Q367.35 233.85 367.55 232.65 L367.85 229.25 Q368.0 227.0 367.2 227.3 L365.95 227.6 365.65 227.65 M373.0 225.8 L373.55 226.3 373.25 227.65 370.5 227.5 370.6 233.75 370.45 233.9 372.7 233.6 373.4 234.85 373.05 235.6 369.75 236.0 Q369.1 236.05 368.7 235.4 L368.35 234.6 367.95 235.1 363.95 235.95 Q363.25 236.1 362.8 235.45 362.35 234.8 362.5 234.05 L363.8 227.5 363.15 227.4 362.6 226.25 363.1 225.6 367.6 225.85 368.0 226.3 367.95 226.25 368.5 225.55 373.0 225.8 M381.65 234.95 L381.1 234.2 381.75 232.9 392.15 232.95 392.8 233.95 392.2 234.8 381.65 234.95 M375.75 225.15 L376.45 224.6 377.65 225.2 377.45 229.7 377.65 229.15 380.5 229.6 380.75 230.95 380.15 231.45 377.4 231.05 377.25 238.95 375.8 239.3 375.1 238.7 375.75 225.15 M381.95 228.8 L382.75 227.7 389.95 227.5 390.0 226.85 382.2 226.85 381.6 225.5 382.25 224.95 391.15 224.9 392.2 226.05 392.2 228.1 391.35 229.25 383.95 229.45 384.05 230.4 391.95 230.2 392.6 231.45 392.15 232.1 383.35 232.45 382.35 232.1 Q382.0 231.65 382.0 231.0 L381.95 228.8 M428.15 225.35 L429.45 224.75 430.15 225.35 429.5 239.5 428.8 240.05 427.6 239.45 428.15 225.35 M410.35 235.3 L411.4 236.1 410.55 238.6 413.25 238.55 413.8 239.3 413.15 240.6 402.9 240.25 402.25 239.25 402.85 238.4 404.95 238.45 404.6 235.85 405.9 235.45 406.8 235.75 406.6 238.5 409.3 238.55 408.8 238.35 409.5 235.5 410.35 235.3 M339.95 228.2 Q341.15 228.15 341.95 228.8 342.75 229.5 342.75 230.55 342.75 231.9 341.9 232.6 341.0 233.3 339.6 233.3 338.65 233.3 337.85 232.55 337.05 231.8 337.05 230.6 337.05 229.65 337.75 228.8 338.45 227.95 339.8 227.55 L339.95 228.2 M330.45 240.15 L330.9 240.05 Q331.9 239.15 330.6 238.65 330.35 238.65 330.15 238.85 329.4 239.65 330.45 240.15 M343.55 229.8 L344.15 229.3 347.05 229.45 347.15 225.3 348.45 224.7 349.15 225.25 348.6 238.5 347.9 239.05 346.7 238.5 347.0 231.35 343.8 231.15 343.55 229.8 M339.85 229.85 L339.45 230.05 Q338.65 230.85 339.7 231.35 L340.15 231.25 Q341.15 230.3 339.85 229.85 M334.35 230.25 L335.05 230.9 334.55 232.2 331.6 232.25 331.6 234.15 330.25 234.5 329.6 233.95 329.9 225.7 330.6 225.15 Q331.2 225.45 331.8 225.7 L331.7 227.95 331.75 227.45 334.65 227.9 334.95 229.25 334.3 229.7 331.65 229.3 331.65 230.65 334.35 230.25 M333.1 239.5 Q333.1 240.65 332.4 241.3 331.65 242.0 330.15 242.0 329.15 242.0 328.4 241.25 327.65 240.55 327.65 239.6 327.65 238.55 328.35 237.7 329.05 236.9 330.4 236.7 L330.55 237.3 Q331.7 237.1 332.4 237.9 333.1 238.65 333.1 239.5 M350.7 225.2 L352.0 224.55 352.7 225.15 352.15 238.7 351.45 239.25 350.3 238.65 350.7 225.2 M224.3 97.6 L223.45 97.75 222.85 97.2 223.65 93.65 224.5 93.4 225.75 94.25 224.3 97.6 M213.3 80.5 Q213.7 81.1 213.6 81.85 L212.4 90.25 211.45 90.55 210.2 89.8 211.45 81.75 204.85 81.35 204.3 79.95 204.9 79.5 212.3 79.9 213.3 80.5 M218.95 78.75 L219.65 79.35 219.0 93.5 218.3 94.05 217.1 93.45 217.65 79.35 218.95 78.75 M200.0 92.8 L200.05 91.8 193.35 91.95 192.75 90.6 193.4 90.05 201.05 89.95 Q201.4 89.95 201.8 90.45 202.25 90.9 202.2 91.45 L202.15 93.75 200.75 94.6 194.75 94.55 194.75 95.6 201.65 95.45 202.3 96.7 201.8 97.4 194.0 97.45 Q193.4 97.45 193.1 96.85 192.75 96.3 192.75 95.7 L192.75 94.0 194.1 92.75 200.0 92.8 M183.75 88.75 L184.6 88.5 185.8 89.2 185.6 93.95 191.4 93.65 192.0 94.25 191.5 95.55 185.1 95.9 Q184.5 95.9 184.0 95.45 183.45 94.95 183.5 94.2 L183.75 88.75 M191.7 88.2 L192.35 86.9 202.75 86.95 203.4 87.95 202.8 88.8 192.25 88.95 191.7 88.2 M186.9 79.5 L187.6 78.95 188.8 79.55 188.85 82.8 188.9 82.25 191.35 82.7 191.6 84.05 191.0 84.5 188.9 84.15 188.9 88.2 187.55 88.8 186.85 88.25 186.9 79.5 M193.45 81.25 L192.4 81.15 191.85 80.0 192.4 79.35 202.6 79.45 203.0 80.1 202.65 81.3 194.65 81.25 195.45 81.55 194.4 84.25 202.25 83.75 202.9 85.05 202.4 85.65 193.75 86.35 Q193.05 86.4 192.55 85.75 192.05 85.1 192.3 84.5 L193.45 81.25 M162.55 87.45 L163.05 88.0 162.45 89.35 152.65 89.55 152.05 88.35 152.6 87.7 156.95 87.6 156.6 84.65 157.3 84.25 158.55 84.75 158.85 87.5 162.55 87.45 M163.7 84.35 L163.15 85.7 162.35 85.95 Q160.95 85.55 159.45 84.6 157.95 83.65 157.5 82.6 L155.85 84.9 Q154.85 85.85 153.6 86.45 L152.3 85.9 152.15 85.15 154.85 83.2 Q156.3 81.9 156.55 80.65 L156.7 79.1 157.5 78.7 158.5 79.55 158.45 80.65 Q158.85 81.9 160.45 82.85 162.1 83.8 163.7 84.35 M176.6 81.7 L177.1 81.85 176.8 87.95 180.6 87.9 180.5 81.55 176.6 81.7 M175.9 80.05 L180.65 79.7 Q181.4 79.6 182.0 80.05 182.6 80.45 182.6 81.35 L182.65 88.55 182.1 89.45 180.7 89.9 176.2 90.0 Q175.6 90.05 175.2 89.4 174.8 88.8 174.85 88.1 L175.2 81.35 175.85 81.15 175.9 80.05 M304.0 88.2 L304.65 86.9 315.05 86.95 315.7 87.95 315.1 88.8 304.55 88.95 304.0 88.2 M312.3 92.8 L312.35 91.8 305.65 91.95 305.05 90.6 305.7 90.05 313.35 89.95 Q313.7 89.95 314.1 90.45 314.55 90.9 314.5 91.45 L314.45 93.75 313.05 94.6 307.05 94.55 307.05 95.6 313.95 95.45 314.6 96.7 314.1 97.4 306.3 97.45 Q305.7 97.45 305.4 96.85 305.05 96.3 305.05 95.7 L305.05 94.0 306.4 92.75 312.3 92.8 M314.9 79.45 L315.3 80.1 314.95 81.3 306.95 81.25 307.75 81.55 306.7 84.25 314.55 83.75 315.2 85.05 314.7 85.65 306.05 86.35 Q305.35 86.4 304.85 85.75 304.35 85.1 304.6 84.5 L305.75 81.25 304.7 81.15 304.15 80.0 304.7 79.35 314.9 79.45 M296.9 88.5 L298.1 89.2 297.9 93.95 303.7 93.65 304.3 94.25 303.8 95.55 297.4 95.9 Q296.8 95.9 296.3 95.45 295.75 94.95 295.8 94.2 L296.05 88.75 296.9 88.5 M292.8 81.55 L288.9 81.7 289.4 81.85 289.1 87.95 292.9 87.9 292.8 81.55 M301.2 82.25 L303.65 82.7 303.9 84.05 303.3 84.5 301.2 84.15 301.2 88.2 299.85 88.8 299.15 88.25 299.2 79.5 299.9 78.95 301.1 79.55 301.15 82.8 301.2 82.25 M294.3 80.05 Q294.9 80.45 294.9 81.35 L294.95 88.55 Q294.95 89.0 294.4 89.45 L293.0 89.9 288.5 90.0 Q287.9 90.05 287.5 89.4 287.1 88.8 287.15 88.1 L287.5 81.35 288.15 81.15 288.2 80.05 292.95 79.7 Q293.7 79.6 294.3 80.05 M276.8 79.75 L277.4 80.4 276.8 81.7 274.85 81.7 275.75 81.9 274.55 88.35 276.4 88.35 277.1 89.55 276.6 90.25 267.55 90.3 266.75 89.25 267.1 88.35 268.85 88.35 268.45 83.25 269.5 82.15 270.45 82.6 270.55 88.35 272.75 88.35 273.65 81.65 267.7 81.5 267.15 80.4 267.65 79.7 276.8 79.75 M280.35 79.35 L281.65 78.75 282.35 79.35 281.7 93.5 281.0 94.05 279.8 93.45 280.35 79.35 M243.3 87.9 L243.2 81.55 239.3 81.7 239.8 81.85 239.5 87.95 243.3 87.9 M261.75 91.5 L262.25 91.7 261.6 95.7 260.95 96.0 259.75 95.35 260.55 91.5 255.25 91.45 254.7 90.7 255.35 89.4 265.45 89.75 266.1 90.75 265.5 91.6 261.75 91.5 M246.45 88.75 L247.3 88.5 248.5 89.2 248.3 93.95 254.1 93.65 254.7 94.25 254.2 95.55 247.8 95.9 246.7 95.45 Q246.15 94.95 246.2 94.2 L246.45 88.75 M243.35 79.7 Q244.1 79.6 244.7 80.05 245.3 80.45 245.3 81.35 L245.35 88.55 Q245.35 89.0 244.8 89.45 L243.4 89.9 238.9 90.0 Q238.3 90.05 237.9 89.4 237.5 88.8 237.55 88.1 L237.9 81.35 238.55 81.15 238.6 80.05 243.35 79.7 M257.15 81.5 L257.9 81.8 256.85 86.25 264.0 85.75 264.65 87.0 264.15 87.65 256.15 88.35 Q255.5 88.4 255.05 87.75 254.6 87.15 254.75 86.4 L255.95 81.5 254.9 81.4 254.35 80.25 254.85 79.6 264.15 79.7 264.7 80.35 264.15 81.55 257.15 81.5 M254.05 82.7 L254.3 84.05 253.7 84.5 251.6 84.15 251.6 88.2 250.25 88.8 249.55 88.25 249.6 79.5 250.3 78.95 251.5 79.55 251.55 82.8 251.6 82.25 254.05 82.7 M241.5 145.0 L242.8 145.8 242.7 149.35 243.0 149.8 243.45 149.45 247.15 149.75 247.2 145.35 248.5 144.7 249.25 145.3 248.85 159.7 248.15 160.25 246.85 159.65 247.15 151.0 247.0 151.55 243.1 151.3 242.95 150.3 242.55 151.0 242.35 154.2 Q242.35 155.05 241.9 155.55 241.45 156.05 240.55 156.15 L235.0 156.65 Q234.3 156.7 233.95 156.1 233.55 155.45 233.6 154.8 L234.2 145.15 235.1 144.85 236.35 145.65 236.0 149.3 240.65 149.25 240.7 145.5 241.5 145.0 M185.25 102.1 L185.95 102.7 185.3 116.85 184.6 117.4 183.4 116.8 183.95 102.7 185.25 102.1 M162.75 105.85 L163.3 106.45 162.7 107.6 152.15 108.3 151.45 107.3 151.95 106.55 162.75 105.85 M164.85 102.5 L165.55 101.95 166.75 102.55 166.55 107.05 166.75 106.5 169.6 106.95 169.85 108.3 169.25 108.8 166.5 108.4 166.35 116.3 164.9 116.65 164.2 116.05 164.85 102.5 M178.6 103.25 Q179.15 103.3 179.6 103.85 180.0 104.45 179.9 105.2 L178.7 113.6 177.75 113.9 176.5 113.15 177.75 105.1 171.15 104.7 170.6 103.3 171.2 102.85 178.6 103.25 M199.25 171.85 L199.8 172.45 199.2 173.6 188.65 174.3 187.95 173.3 188.45 172.55 199.25 171.85 M191.25 170.8 L190.35 169.55 190.8 168.95 196.6 168.7 197.0 169.35 196.5 170.45 191.25 170.8 M174.15 168.7 L175.45 168.1 176.15 168.7 175.5 182.85 174.8 183.4 173.6 182.8 174.15 168.7 M162.35 173.1 L167.65 173.05 167.75 170.85 161.5 170.75 161.0 169.45 161.65 168.85 168.7 168.9 169.9 169.9 169.65 173.85 168.55 174.85 163.25 174.9 163.45 178.35 169.85 177.7 170.5 179.0 170.0 179.65 162.9 180.4 Q162.25 180.45 161.9 179.85 161.55 179.25 161.5 178.55 L161.25 174.1 162.35 173.1 M199.6 177.85 L200.8 178.55 200.6 183.3 206.4 183.0 207.0 183.6 206.5 184.9 200.1 185.25 199.0 184.8 Q198.45 184.3 198.5 183.55 L198.75 178.1 199.6 177.85 M196.35 177.55 Q196.35 178.6 195.6 179.2 194.85 179.8 193.8 179.8 193.0 179.8 192.3 179.2 191.55 178.6 191.55 177.6 191.55 176.8 192.05 176.0 192.55 175.2 193.9 174.85 L194.05 175.4 Q195.1 175.35 195.7 176.05 196.35 176.7 196.35 177.55 M240.4 154.15 L240.5 151.05 236.2 151.2 235.85 150.45 235.5 154.55 240.4 154.15 M201.85 177.6 L201.9 168.85 202.6 168.3 203.8 168.9 203.85 172.15 203.9 171.6 206.35 172.05 206.6 173.4 206.0 173.85 203.9 173.5 203.9 177.55 202.55 178.15 201.85 177.6 M220.75 167.95 L221.95 168.55 221.75 173.05 221.95 172.5 224.8 172.95 225.05 174.3 224.45 174.8 221.7 174.4 221.55 182.3 220.1 182.65 219.4 182.05 220.05 168.5 220.75 167.95 M211.7 170.85 L210.75 171.65 210.15 177.75 216.5 176.9 217.15 178.2 216.65 178.85 209.45 179.85 Q208.8 179.85 208.4 179.25 208.0 178.65 208.05 177.9 L208.75 170.8 209.5 170.7 208.2 170.65 207.6 169.5 208.15 168.85 216.4 169.05 216.85 169.65 216.35 170.85 211.7 170.85 M226.25 181.65 Q226.6 181.15 227.25 181.15 227.85 181.15 228.25 181.55 L228.6 182.55 Q228.6 183.25 228.2 183.7 227.8 184.1 227.05 184.1 226.45 184.1 226.15 183.75 225.85 183.35 225.85 182.75 225.85 182.15 226.25 181.65 M290.35 148.2 Q291.55 148.15 292.35 148.8 293.15 149.5 293.15 150.55 293.15 151.9 292.3 152.6 291.4 153.3 290.0 153.3 289.05 153.3 288.25 152.55 287.45 151.8 287.45 150.6 287.45 149.65 288.15 148.8 288.85 147.95 290.2 147.55 L290.35 148.2 M309.1 147.45 L308.7 147.65 Q307.9 148.5 308.95 148.95 L309.45 148.9 Q310.4 147.95 309.1 147.45 M300.25 144.75 L300.95 145.35 300.3 159.5 299.6 160.05 298.4 159.45 298.95 145.35 300.25 144.75 M309.15 145.0 L309.3 145.65 Q310.55 145.6 311.3 146.25 312.1 146.9 312.1 147.95 312.1 149.3 311.25 150.0 310.4 150.7 308.95 150.7 308.05 150.7 307.25 149.95 306.45 149.2 306.45 148.0 306.45 147.05 307.15 146.25 307.8 145.45 309.15 145.0 M269.35 147.05 L268.95 147.25 Q268.15 148.05 269.2 148.55 L269.7 148.45 Q270.65 147.55 269.35 147.05 M254.65 144.95 L263.1 144.9 263.9 145.25 263.6 146.75 254.75 146.7 254.6 147.65 262.05 147.7 262.55 148.25 262.0 149.4 254.45 149.3 254.25 150.6 263.15 150.15 263.85 151.45 263.35 152.05 253.6 152.6 Q253.0 152.6 252.6 152.0 252.15 151.35 252.25 150.65 L252.85 146.35 Q252.9 145.8 253.5 145.35 254.05 144.95 254.65 144.95 M269.35 145.0 L269.5 145.65 Q270.75 145.6 271.5 146.25 272.3 146.9 272.3 147.95 272.3 149.3 271.45 150.0 270.6 150.7 269.15 150.7 268.25 150.7 267.45 149.95 266.65 149.2 266.65 148.0 266.65 147.05 267.35 146.25 268.0 145.45 269.35 145.0 M274.6 157.45 L274.55 159.75 273.15 160.6 267.15 160.55 267.15 161.6 274.05 161.45 274.7 162.7 274.2 163.4 266.4 163.45 Q265.8 163.45 265.5 162.85 265.15 162.3 265.15 161.7 L265.15 160.0 266.5 158.75 272.4 158.8 272.45 157.8 265.75 157.95 265.15 156.6 265.8 156.05 273.45 155.95 Q273.8 155.95 274.2 156.45 274.65 156.9 274.6 157.45 M275.8 153.95 L275.2 154.8 264.65 154.95 264.1 154.2 264.75 152.9 275.15 152.95 275.8 153.95 M251.9 154.2 L252.55 152.9 262.95 152.95 263.6 153.95 263.0 154.8 252.45 154.95 251.9 154.2 M253.3 160.05 L253.45 155.85 254.3 155.55 255.5 156.25 255.35 159.8 262.7 159.45 263.35 160.05 262.8 161.35 254.6 161.85 Q253.95 161.9 253.6 161.3 253.25 160.75 253.3 160.05 M322.2 153.3 Q321.95 153.3 321.75 153.5 321.0 154.35 322.0 154.8 L322.5 154.7 Q323.5 153.8 322.2 153.3 M320.15 152.65 Q320.65 151.85 322.0 151.5 L322.15 152.05 Q323.2 152.0 323.8 152.7 324.45 153.35 324.45 154.2 324.45 155.25 323.7 155.85 322.95 156.45 321.9 156.45 321.1 156.45 320.4 155.85 319.65 155.25 319.65 154.25 319.65 153.45 320.15 152.65 M314.6 153.75 L315.2 154.55 314.5 155.45 304.7 155.45 304.0 154.45 304.6 153.6 306.75 153.7 306.65 151.15 307.25 150.6 308.65 150.8 308.4 153.7 311.05 153.75 310.55 153.55 311.55 150.7 312.45 150.4 313.55 151.2 312.3 153.8 314.6 153.75 M307.55 157.8 Q308.3 157.0 309.5 156.95 L309.65 157.4 Q310.8 157.3 311.6 158.05 312.35 158.8 312.35 159.8 312.35 160.95 311.55 161.6 310.75 162.25 309.45 162.25 308.35 162.25 307.6 161.5 306.85 160.7 306.85 159.8 306.85 158.6 307.55 157.8 M309.35 158.8 L308.95 159.0 Q308.15 159.85 309.2 160.3 L309.65 160.2 Q310.65 159.3 309.35 158.8 M290.25 149.8 L289.85 150.0 Q289.05 150.8 290.1 151.3 L290.55 151.2 Q291.55 150.3 290.25 149.8 M160.5 103.35 L160.0 104.45 154.75 104.8 153.85 103.55 154.3 102.95 160.1 102.7 160.5 103.35 M160.5 89.95 Q161.3 89.95 161.7 90.5 162.05 91.0 162.0 91.75 L161.65 96.95 160.75 97.2 Q160.15 96.9 159.55 96.55 L159.9 91.8 153.3 91.7 152.75 90.3 153.35 89.85 160.5 89.95 M131.75 88.75 L132.6 88.5 133.8 89.2 133.6 93.95 139.4 93.65 140.0 94.25 139.5 95.55 133.1 95.9 Q132.5 95.9 132.0 95.45 131.45 94.95 131.5 94.2 L131.75 88.75 M140.0 90.7 L140.65 89.4 150.75 89.75 151.4 90.75 150.8 91.6 147.05 91.5 147.55 91.7 146.9 95.7 146.25 96.0 145.05 95.35 145.85 91.5 140.55 91.45 140.0 90.7 M123.2 81.35 L123.85 81.15 123.9 80.05 128.65 79.7 Q129.4 79.6 130.0 80.05 130.6 80.45 130.6 81.35 L130.65 88.55 Q130.65 89.0 130.1 89.45 129.55 89.9 128.7 89.9 L124.2 90.0 Q123.6 90.05 123.2 89.4 122.8 88.8 122.85 88.1 L123.2 81.35 M128.5 81.55 L124.6 81.7 125.1 81.85 124.8 87.95 128.6 87.9 128.5 81.55 M134.9 79.5 L135.6 78.95 136.8 79.55 136.85 82.8 136.9 82.25 139.35 82.7 139.6 84.05 139.0 84.5 136.9 84.15 136.9 88.2 135.55 88.8 134.85 88.25 134.9 79.5 M139.65 80.25 L140.15 79.6 149.45 79.7 150.0 80.35 149.45 81.55 142.45 81.5 143.2 81.8 142.15 86.25 149.3 85.75 149.95 87.0 149.45 87.65 141.45 88.35 Q140.8 88.4 140.35 87.75 139.9 87.15 140.05 86.4 L141.25 81.5 140.2 81.4 139.65 80.25 M157.55 109.4 Q158.6 109.35 159.2 110.05 159.85 110.7 159.85 111.55 159.85 112.6 159.1 113.2 158.35 113.8 157.3 113.8 156.5 113.8 155.8 113.2 155.05 112.6 155.05 111.6 155.05 110.8 155.55 110.0 156.05 109.2 157.4 108.85 L157.55 109.4 M142.3 103.9 L142.05 107.85 140.95 108.85 135.65 108.9 135.85 112.35 142.25 111.7 142.9 113.0 142.4 113.65 135.3 114.4 Q134.65 114.45 134.3 113.85 133.95 113.25 133.9 112.55 L133.65 108.1 134.75 107.1 140.05 107.05 140.15 104.85 133.9 104.75 133.4 103.45 134.05 102.85 141.1 102.9 142.3 103.9 M146.55 102.7 L147.85 102.1 148.55 102.7 147.9 116.85 147.2 117.4 146.0 116.8 146.55 102.7 M126.0 103.9 Q127.25 103.85 128.0 104.5 128.8 105.1 128.8 106.15 128.8 107.55 127.95 108.25 127.1 108.95 125.65 108.95 124.75 108.95 123.95 108.2 123.15 107.45 123.15 106.25 123.15 105.3 123.85 104.5 124.5 103.65 125.85 103.25 L126.0 103.9 M128.75 112.65 L129.8 113.45 128.95 115.95 131.65 115.9 132.2 116.65 131.55 117.95 121.3 117.6 120.65 116.6 121.25 115.75 123.35 115.8 123.0 113.2 124.3 112.8 125.2 113.1 125.0 115.85 127.7 115.9 127.2 115.7 127.9 112.85 128.75 112.65 M125.7 105.55 L125.3 105.75 Q124.5 106.55 125.55 107.05 L126.05 106.95 Q127.0 106.05 125.7 105.55 M149.55 170.4 L150.2 170.25 150.25 169.15 155.7 168.5 Q156.4 168.4 157.0 168.85 157.6 169.3 157.65 170.0 L157.95 176.35 Q158.0 176.95 157.4 177.4 156.8 177.85 156.0 177.9 L150.1 178.05 Q149.5 178.1 149.05 177.45 148.65 176.8 148.75 176.1 L149.55 170.4 M151.0 170.75 L151.65 170.95 150.9 175.9 155.85 175.85 155.55 170.35 151.0 170.75 M144.75 172.5 L147.6 172.95 147.85 174.3 147.25 174.8 144.5 174.4 144.35 182.3 142.9 182.65 142.2 182.05 142.85 168.5 143.55 167.95 144.75 168.55 144.55 173.05 144.75 172.5 M137.0 170.9 L133.1 171.05 133.6 171.2 133.3 177.3 137.1 177.25 137.0 170.9 M132.4 169.4 L137.15 169.05 Q137.9 168.95 138.5 169.4 139.1 169.8 139.1 170.7 L139.15 177.9 Q139.15 178.35 138.6 178.8 L137.2 179.25 132.7 179.35 Q132.1 179.4 131.7 178.75 131.3 178.15 131.35 177.45 L131.7 170.7 132.35 170.5 132.4 169.4 M153.55 184.7 L154.35 180.85 149.05 180.8 148.5 180.05 149.15 178.75 159.25 179.1 159.9 180.1 159.3 180.95 155.55 180.85 156.05 181.05 155.4 185.05 154.75 185.35 153.55 184.7 M160.4 236.05 L160.95 235.6 162.1 236.15 162.05 238.55 Q162.5 239.6 163.4 240.2 L165.35 241.2 165.45 242.1 164.25 242.7 162.5 241.65 Q161.7 241.1 161.3 240.35 L159.85 241.95 157.9 243.15 156.8 242.65 156.6 241.95 158.95 240.5 Q159.95 239.75 160.4 238.55 L160.4 236.05 M161.0 227.05 L161.6 226.55 162.7 227.05 162.7 230.0 162.75 229.5 164.95 229.9 165.2 231.15 164.65 231.55 162.75 231.2 162.75 234.85 161.6 235.4 160.95 234.9 161.0 227.05 M155.3 234.55 L155.25 228.9 151.75 229.0 152.15 229.15 151.9 234.65 155.3 234.55 M156.55 227.5 Q157.1 227.9 157.1 228.7 L157.15 235.2 Q157.15 235.6 156.65 236.0 156.15 236.4 155.4 236.4 L151.35 236.45 Q150.8 236.5 150.45 235.95 150.1 235.4 150.15 234.75 L150.45 228.7 151.05 228.5 151.05 227.55 155.35 227.2 Q156.0 227.1 156.55 227.5 M138.4 237.8 L137.9 237.1 138.5 235.95 147.55 236.25 148.15 237.15 147.6 237.9 144.25 237.85 144.7 238.05 144.1 241.6 143.5 241.9 142.45 241.3 143.15 237.8 138.4 237.8 M130.35 240.3 L130.6 235.35 131.35 235.1 132.45 235.75 132.25 240.05 137.5 239.8 138.05 240.3 137.55 241.45 131.8 241.8 Q131.25 241.8 130.8 241.35 130.35 240.9 130.35 240.3 M124.2 229.0 L124.6 229.15 124.35 234.65 127.75 234.55 127.7 228.9 124.2 229.0 M129.0 227.5 Q129.55 227.9 129.55 228.7 L129.6 235.2 Q129.6 235.6 129.1 236.0 128.6 236.4 127.85 236.4 L123.8 236.45 Q123.25 236.5 122.9 235.95 122.55 235.4 122.6 234.75 L122.9 228.7 123.5 228.5 123.5 227.55 127.8 227.2 Q128.45 227.1 129.0 227.5 M133.45 227.05 L134.05 226.55 135.15 227.05 135.15 230.0 135.2 229.5 137.4 229.9 137.65 231.15 137.1 231.55 135.2 231.2 135.2 234.85 134.05 235.4 133.4 234.9 133.45 227.05 M137.55 227.75 L138.05 227.15 146.4 227.25 146.9 227.8 146.4 228.9 140.1 228.85 140.8 229.15 139.8 233.1 146.25 232.65 146.85 233.8 146.4 234.35 139.2 235.0 Q138.6 235.0 138.2 234.5 137.8 233.9 137.95 233.25 L139.0 228.85 138.05 228.75 137.55 227.75 M123.6 254.55 L123.25 253.8 122.9 257.9 127.8 257.5 127.9 254.4 123.6 254.55 M138.95 252.05 L139.2 253.4 138.6 253.85 136.5 253.5 136.5 257.55 135.15 258.15 134.45 257.6 134.5 248.85 135.2 248.3 136.4 248.9 136.45 252.15 136.5 251.6 138.95 252.05 M155.7 261.15 L152.4 261.25 152.15 260.5 152.05 262.95 155.65 262.75 155.7 261.15 M146.6 254.4 L142.3 254.55 141.95 253.8 141.6 257.9 146.5 257.5 146.6 254.4 M152.5 257.8 L152.3 259.5 155.75 259.5 155.75 257.6 156.5 257.15 157.75 257.95 157.75 263.2 157.35 264.15 Q156.95 264.65 156.5 264.7 L151.5 264.9 Q150.9 264.95 150.5 264.35 150.1 263.7 150.15 263.05 L150.4 257.35 151.3 257.0 152.5 257.8 M154.6 248.45 L155.3 249.0 155.35 257.6 154.65 258.15 153.5 257.6 153.45 254.3 153.4 254.85 149.3 254.6 149.1 253.45 148.65 254.35 148.45 257.55 Q148.45 258.4 148.0 258.9 147.55 259.4 146.65 259.5 L141.1 260.0 Q140.4 260.05 140.05 259.45 139.65 258.8 139.7 258.15 L140.3 248.5 141.2 248.2 142.45 249.0 142.1 252.65 146.75 252.6 146.8 248.85 147.6 248.35 148.9 249.15 148.8 252.7 149.15 253.15 149.6 252.75 153.4 252.95 153.3 249.05 154.6 248.45 M121.35 259.45 Q120.95 258.8 121.0 258.15 L121.6 248.5 122.5 248.2 123.75 249.0 123.4 252.65 128.05 252.6 128.1 248.85 128.9 248.35 130.2 249.15 130.1 252.7 130.5 253.25 129.95 254.35 129.75 257.55 Q129.75 258.4 129.3 258.9 128.85 259.4 127.95 259.5 L122.4 260.0 Q121.7 260.05 121.35 259.45 M137.6 262.85 Q137.6 264.0 136.9 264.65 136.15 265.35 134.65 265.35 133.65 265.35 132.9 264.6 132.15 263.9 132.15 262.95 132.15 261.9 132.85 261.05 133.55 260.25 134.9 260.05 L135.05 260.65 Q136.2 260.45 136.9 261.25 137.6 262.0 137.6 262.85 M134.85 261.9 L134.45 262.1 Q133.65 262.9 134.7 263.4 L135.15 263.3 Q136.15 262.4 134.85 261.9 M292.5 243.6 L291.65 243.75 291.05 243.2 291.85 239.65 292.7 239.4 293.95 240.25 292.5 243.6 M285.85 225.35 L287.15 224.75 287.85 225.35 287.2 239.5 286.5 240.05 285.3 239.45 285.85 225.35 M321.1 227.55 L321.25 228.2 Q322.45 228.15 323.25 228.8 324.05 229.5 324.05 230.55 324.05 231.9 323.2 232.6 322.3 233.3 320.9 233.3 319.95 233.3 319.15 232.55 318.35 231.8 318.35 230.6 318.35 229.65 319.05 228.8 319.75 227.95 321.1 227.55 M306.7 227.4 L307.35 227.6 306.6 232.55 311.55 232.5 311.25 227.0 306.7 227.4 M311.4 225.15 Q312.1 225.05 312.7 225.5 313.3 225.95 313.35 226.65 L313.65 233.0 Q313.7 233.6 313.1 234.05 312.5 234.5 311.7 234.55 L309.7 234.6 309.25 238.5 315.05 238.55 315.65 239.3 315.0 240.6 304.7 240.25 304.05 239.25 304.65 238.4 307.9 238.45 307.4 238.3 307.75 234.65 305.8 234.7 Q305.2 234.75 304.75 234.1 304.35 233.45 304.45 232.75 L305.25 227.05 305.9 226.9 305.95 225.8 311.4 225.15 M321.2 229.8 Q320.95 229.85 320.75 230.0 320.0 230.85 321.0 231.3 L321.5 231.2 Q322.5 230.3 321.2 229.8 M282.3 227.7 L280.35 227.7 281.25 227.9 280.05 234.35 281.9 234.35 282.6 235.55 282.1 236.25 273.05 236.3 272.25 235.25 272.6 234.35 274.35 234.35 273.95 229.25 275.0 228.15 275.95 228.6 276.05 234.35 278.25 234.35 279.15 227.65 273.2 227.5 272.65 226.4 273.15 225.7 282.3 225.75 282.9 226.4 282.3 227.7 M260.2 236.7 L260.85 235.4 270.95 235.75 271.6 236.75 271.0 237.6 267.25 237.5 267.75 237.7 267.1 241.7 266.45 242.0 265.25 241.35 266.05 237.5 260.75 237.45 260.2 236.7 M251.95 234.75 L252.8 234.5 254.0 235.2 253.8 239.95 259.6 239.65 260.2 240.25 259.7 241.55 253.3 241.9 252.2 241.45 Q251.65 240.95 251.7 240.2 L251.95 234.75 M244.8 227.7 L245.3 227.85 245.0 233.95 248.8 233.9 248.7 227.55 244.8 227.7 M250.2 226.05 Q250.8 226.45 250.8 227.35 L250.85 234.55 Q250.85 235.0 250.3 235.45 L248.9 235.9 244.4 236.0 Q243.8 236.05 243.4 235.4 243.0 234.8 243.05 234.1 L243.4 227.35 244.05 227.15 244.1 226.05 248.85 225.7 Q249.6 225.6 250.2 226.05 M255.1 225.5 L255.8 224.95 257.0 225.55 257.05 228.8 257.1 228.25 259.55 228.7 259.8 230.05 259.2 230.5 257.1 230.15 257.1 234.2 255.75 234.8 255.05 234.25 255.1 225.5 M261.45 227.5 L260.4 227.4 259.85 226.25 260.35 225.6 269.65 225.7 270.2 226.35 269.65 227.55 262.65 227.5 263.4 227.8 262.35 232.25 269.5 231.75 270.15 233.0 269.65 233.65 261.65 234.35 Q261.0 234.4 260.55 233.75 260.1 233.15 260.25 232.4 L261.45 227.5 M230.0 239.4 L231.25 240.25 229.8 243.6 228.95 243.75 228.35 243.2 229.15 239.65 230.0 239.4 M217.3 237.7 L216.75 236.3 217.35 235.85 224.5 235.95 Q225.3 235.95 225.7 236.5 226.05 237.0 226.0 237.75 L225.65 242.95 224.75 243.2 223.55 242.55 223.9 237.8 217.3 237.7 M203.4 239.65 L204.0 240.25 203.5 241.55 197.1 241.9 Q196.5 241.9 196.0 241.45 195.45 240.95 195.5 240.2 L195.75 234.75 196.6 234.5 197.8 235.2 197.6 239.95 203.4 239.65 M211.05 237.5 L211.55 237.7 210.9 241.7 210.25 242.0 209.05 241.35 209.85 237.5 204.55 237.45 204.0 236.7 204.65 235.4 214.75 235.75 215.4 236.75 214.8 237.6 211.05 237.5 M203.6 230.05 L203.0 230.5 200.9 230.15 200.9 234.2 199.55 234.8 198.85 234.25 198.9 225.5 199.6 224.95 200.8 225.55 200.85 228.8 200.9 228.25 203.35 228.7 203.6 230.05 M216.05 234.35 L216.6 233.7 220.95 233.6 220.6 230.65 221.3 230.25 222.55 230.75 222.85 233.5 226.55 233.45 227.05 234.0 226.45 235.35 216.65 235.55 216.05 234.35 M213.45 225.7 L214.0 226.35 213.45 227.55 206.45 227.5 207.2 227.8 206.15 232.25 213.3 231.75 213.95 233.0 213.45 233.65 205.45 234.35 Q204.8 234.4 204.35 233.75 203.9 233.15 204.05 232.4 L205.25 227.5 204.2 227.4 203.65 226.25 204.15 225.6 213.45 225.7 M220.55 226.65 L220.7 225.1 221.5 224.7 222.5 225.55 222.45 226.65 Q222.85 227.9 224.45 228.85 226.1 229.8 227.7 230.35 L227.15 231.7 226.35 231.95 Q224.95 231.55 223.45 230.6 221.95 229.65 221.5 228.6 L219.85 230.9 Q218.85 231.85 217.6 232.45 L216.3 231.9 216.15 231.15 218.85 229.2 Q220.3 227.9 220.55 226.65 M169.95 228.15 L169.55 228.35 Q168.75 229.15 169.8 229.65 L170.3 229.55 Q171.25 228.65 169.95 228.15 M175.1 233.75 L175.7 234.65 175.15 235.4 165.7 235.55 165.15 234.85 165.75 233.7 175.1 233.75 M169.9 226.6 L170.05 227.2 Q171.15 227.1 171.85 227.7 172.55 228.3 172.55 229.25 172.55 230.45 171.75 231.1 171.0 231.7 169.7 231.7 168.9 231.7 168.2 231.05 167.5 230.4 167.5 229.3 167.5 228.45 168.1 227.7 168.7 227.0 169.9 226.6 M192.6 233.9 L192.5 227.55 188.6 227.7 189.1 227.85 188.8 233.95 192.6 233.9 M192.65 225.7 Q193.4 225.6 194.0 226.05 194.6 226.45 194.6 227.35 L194.65 234.55 Q194.65 235.0 194.1 235.45 L192.7 235.9 188.2 236.0 Q187.6 236.05 187.2 235.4 186.8 234.8 186.85 234.1 L187.2 227.35 187.85 227.15 187.9 226.05 192.65 225.7 M168.45 236.7 L168.3 239.9 174.9 239.6 175.45 240.15 175.0 241.3 167.6 241.75 Q167.0 241.8 166.7 241.25 166.4 240.75 166.4 240.15 L166.55 236.35 167.35 236.1 168.45 236.7" fill="#a63ea2" fill-rule="evenodd" stroke="none"/>
    <path d="M-141.85 393.7 Q-128.65 396.75 -134.05 408.6 -135.85 412.7 -140.4 412.9 -151.85 413.45 -151.15 402.25 -150.8 396.95 -146.0 394.9 -143.75 393.9 -141.85 393.7" fill="#945029" fill-rule="evenodd" stroke="none"/>
  </g>
</svg>
