<?xml version="1.0" encoding="UTF-8" standalone="no"?>
<svg xmlns:ffdec="https://www.free-decompiler.com/flash" xmlns:xlink="http://www.w3.org/1999/xlink" ffdec:objectType="shape" height="23.1px" width="23.1px" xmlns="http://www.w3.org/2000/svg">
  <g transform="matrix(1.0, 0.0, 0.0, 1.0, 12.05, 11.8)">
    <path d="M6.9 -9.1 L7.65 -8.45 Q11.05 -5.05 11.05 -0.25 11.05 4.55 7.65 7.9 4.3 11.3 -0.5 11.3 L-2.65 11.15 Q-6.1 10.45 -8.7 7.9 -12.05 4.55 -12.05 -0.25 -12.05 -5.05 -8.7 -8.45 -5.3 -11.8 -0.5 -11.8 3.75 -11.8 6.9 -9.1" fill="url(#gradient0)" fill-rule="evenodd" stroke="none"/>
    <path d="M5.35 -5.35 Q7.55 -3.15 7.55 0.0 7.55 3.15 5.35 5.35 3.15 7.55 0.0 7.55 L-1.4 7.45 Q-3.65 7.05 -5.35 5.35 -7.55 3.15 -7.55 0.0 -7.55 -3.15 -5.35 -5.35 -3.15 -7.55 0.0 -7.55 2.8 -7.55 4.85 -5.8 L5.35 -5.35" fill="url(#gradient1)" fill-rule="evenodd" stroke="none"/>
  </g>
  <defs>
    <radialGradient cx="0" cy="0" gradientTransform="matrix(0.0158, 0.0, 0.0, 0.0158, 0.05, 0.0)" gradientUnits="userSpaceOnUse" id="gradient0" r="819.2" spreadMethod="pad">
      <stop offset="0.5450980392156862" stop-color="#ff623c" stop-opacity="0.8"/>
      <stop offset="1.0" stop-color="#ffffff" stop-opacity="0.0"/>
    </radialGradient>
    <radialGradient cx="0" cy="0" gradientTransform="matrix(0.0122, 0.0, 0.0, 0.0122, -1.8, -2.15)" gradientUnits="userSpaceOnUse" id="gradient1" r="819.2" spreadMethod="pad">
      <stop offset="0.0" stop-color="#ffffff"/>
      <stop offset="0.7098039215686275" stop-color="#ff623c"/>
    </radialGradient>
  </defs>
</svg>
