<?xml version="1.0" encoding="UTF-8" standalone="no"?>
<svg xmlns:ffdec="https://www.free-decompiler.com/flash" xmlns:xlink="http://www.w3.org/1999/xlink" ffdec:objectType="shape" height="210.05px" width="93.0px" xmlns="http://www.w3.org/2000/svg">
  <g transform="matrix(1.0, 0.0, 0.0, 1.0, 53.8, 104.45)">
    <path d="M-39.55 93.15 Q-37.55 91.1 -34.75 91.1 L24.25 91.1 Q27.05 91.1 29.05 93.15 31.0 95.2 31.05 98.1 31.0 101.0 29.05 103.05 27.05 105.1 24.25 105.1 L-34.75 105.1 Q-37.55 105.1 -39.55 103.05 -41.55 101.0 -41.5 98.1 -41.55 95.2 -39.55 93.15" fill="#009900" fill-rule="evenodd" stroke="none"/>
    <path d="M-39.55 93.15 Q-41.55 95.2 -41.5 98.1 -41.55 101.0 -39.55 103.05 -37.55 105.1 -34.75 105.1 L24.25 105.1 Q27.05 105.1 29.05 103.05 31.0 101.0 31.05 98.1 31.0 95.2 29.05 93.15 27.05 91.1 24.25 91.1 L-34.75 91.1 Q-37.55 91.1 -39.55 93.15 Z" fill="none" stroke="#006600" stroke-linecap="round" stroke-linejoin="round" stroke-width="1.0"/>
    <path d="M38.5 -94.85 Q37.9 -94.15 37.0 -94.1 L-51.6 -94.1 Q-52.55 -94.15 -53.2 -94.85 -53.85 -95.55 -53.8 -96.6 L-53.8 -96.65 Q-53.85 -97.7 -53.2 -98.45 -52.55 -99.15 -51.6 -99.1 L37.0 -99.1 Q37.9 -99.15 38.5 -98.45 39.15 -97.7 39.2 -96.65 L39.2 -96.6 Q39.15 -95.55 38.5 -94.85" fill="#fed865" fill-rule="evenodd" stroke="none"/>
    <path d="M-39.55 -101.9 Q-37.55 -103.95 -34.75 -103.95 L24.25 -103.95 Q27.05 -103.95 29.05 -101.9 31.0 -99.85 31.05 -96.95 31.0 -94.05 29.05 -92.0 27.05 -89.95 24.25 -89.95 L-34.75 -89.95 Q-37.55 -89.95 -39.55 -92.0 -41.55 -94.05 -41.5 -96.95 -41.55 -99.85 -39.55 -101.9" fill="#009900" fill-rule="evenodd" stroke="none"/>
    <path d="M-39.55 -101.9 Q-41.55 -99.85 -41.5 -96.95 -41.55 -94.05 -39.55 -92.0 -37.55 -89.95 -34.75 -89.95 L24.25 -89.95 Q27.05 -89.95 29.05 -92.0 31.0 -94.05 31.05 -96.95 31.0 -99.85 29.05 -101.9 27.05 -103.95 24.25 -103.95 L-34.75 -103.95 Q-37.55 -103.95 -39.55 -101.9 Z" fill="none" stroke="#006600" stroke-linecap="round" stroke-linejoin="round" stroke-width="1.0"/>
  </g>
</svg>
