<?xml version="1.0" encoding="UTF-8" standalone="no"?>
<svg xmlns:ffdec="https://www.free-decompiler.com/flash" xmlns:xlink="http://www.w3.org/1999/xlink" ffdec:objectType="shape" height="45.2px" width="20.65px" xmlns="http://www.w3.org/2000/svg">
  <g transform="matrix(1.0, 0.0, 0.0, 1.0, 9.8, 22.3)">
    <path d="M-5.4 -14.95 Q-7.1 -15.0 -9.1 -17.1 -9.6 -19.1 -8.3 -20.65 L-6.9 -21.95 -6.4 -22.05 -5.15 -22.15 -5.1 -22.3 Q-2.0 -21.6 -1.75 -18.45 L-1.75 -17.7 Q-2.75 -16.0 -3.85 -15.3 L-4.75 -14.95 -5.4 -14.95" fill="#fed865" fill-rule="evenodd" stroke="none"/>
    <path d="M-3.85 -15.3 Q5.45 -2.3 7.55 15.7 M-4.75 -14.95 Q0.25 1.7 1.35 17.2 M-5.4 -14.95 Q-4.45 3.25 -5.0 21.65" fill="none" stroke="#ffcc00" stroke-linecap="round" stroke-linejoin="round" stroke-width="2.0"/>
    <path d="M-5.65 -14.5 Q-7.35 -14.4 -9.55 -16.35 -10.2 -18.25 -9.1 -19.95 L-7.8 -21.35 -7.3 -21.5 -6.1 -21.7 -6.05 -21.85 Q-2.9 -21.45 -2.35 -18.35 L-2.3 -17.6 Q-3.1 -15.8 -4.2 -15.0 -4.6 -14.75 -5.05 -14.6 L-5.65 -14.5" fill="#ffff99" fill-rule="evenodd" stroke="none"/>
    <path d="M-4.2 -15.0 Q6.2 -2.85 9.85 14.9 M-5.05 -14.6 Q1.4 1.6 3.85 16.9 M-5.65 -14.5 Q-3.15 3.55 -2.1 21.9" fill="none" stroke="#ffff99" stroke-linecap="round" stroke-linejoin="round" stroke-width="2.0"/>
  </g>
</svg>
