<?xml version="1.0" encoding="UTF-8" standalone="no"?>
<svg xmlns:ffdec="https://www.free-decompiler.com/flash" xmlns:xlink="http://www.w3.org/1999/xlink" ffdec:objectType="shape" height="210.1px" width="72.55px" xmlns="http://www.w3.org/2000/svg">
  <g transform="matrix(1.0, 0.0, 0.0, 1.0, 41.5, 105.0)">
    <path d="M27.8 -102.95 Q26.2 -103.95 24.25 -103.95 L-34.75 -103.95 -37.35 -103.45 -37.35 -105.0 27.8 -105.0 27.8 -102.95 M-37.35 -90.45 Q-36.15 -89.95 -34.75 -89.95 L-30.5 -89.95 -30.5 91.1 -34.75 91.1 Q-36.15 91.1 -37.35 91.6 L-37.35 -90.45 M19.5 -89.95 L24.25 -89.95 Q26.2 -89.95 27.8 -90.95 L27.8 92.1 Q26.2 91.1 24.25 91.1 L19.5 91.1 19.5 -89.95 M-37.35 104.6 L-35.8 105.05 -37.35 105.05 -37.35 104.6 M25.3 105.05 Q26.65 104.85 27.8 104.1 L27.8 105.05 25.3 105.05" fill="#fecf45" fill-rule="evenodd" stroke="none"/>
    <path d="M-37.35 -103.45 L-34.75 -103.95 24.25 -103.95 Q26.2 -103.95 27.8 -102.95 L29.05 -101.9 Q31.05 -99.85 31.05 -96.95 31.05 -94.05 29.05 -92.0 L27.8 -90.95 Q26.2 -89.95 24.25 -89.95 L19.5 -89.95 -30.5 -89.95 -34.75 -89.95 Q-36.15 -89.95 -37.35 -90.45 -38.55 -90.95 -39.55 -92.0 -41.55 -94.05 -41.5 -96.95 -41.55 -99.85 -39.55 -101.9 -38.55 -102.95 -37.35 -103.45 M-37.35 91.6 Q-36.15 91.1 -34.75 91.1 L-30.5 91.1 19.5 91.1 24.25 91.1 Q26.2 91.1 27.8 92.1 L29.05 93.15 Q31.05 95.2 31.05 98.1 31.05 101.0 29.05 103.05 L27.8 104.1 Q26.65 104.85 25.3 105.05 L24.25 105.1 -34.75 105.1 -35.8 105.05 -37.35 104.6 Q-38.55 104.1 -39.55 103.05 -41.55 101.0 -41.5 98.1 -41.55 95.2 -39.55 93.15 -38.55 92.1 -37.35 91.6" fill="#009900" fill-rule="evenodd" stroke="none"/>
  </g>
</svg>
