<?xml version="1.0" encoding="UTF-8" standalone="no"?>
<svg xmlns:ffdec="https://www.free-decompiler.com/flash" xmlns:xlink="http://www.w3.org/1999/xlink" ffdec:objectType="shape" height="78.95px" width="78.9px" xmlns="http://www.w3.org/2000/svg">
  <g transform="matrix(1.0, 0.0, 0.0, 1.0, 39.45, 39.45)">
    <path d="M25.05 -25.05 Q14.65 -35.45 0.0 -35.45 -14.65 -35.45 -25.05 -25.05 -35.45 -14.65 -35.45 0.0 -35.45 14.65 -25.05 25.1 -14.65 35.5 0.0 35.5 14.65 35.5 25.05 25.1 35.45 14.65 35.45 0.0 35.45 -14.65 25.05 -25.05 M27.9 -27.9 Q33.25 -22.55 36.1 -16.2 39.45 -8.8 39.45 0.0 39.45 8.8 36.1 16.2 33.25 22.55 27.9 27.9 16.3 39.5 0.0 39.5 -16.3 39.5 -27.9 27.9 -39.45 16.3 -39.45 0.0 -39.45 -16.3 -27.9 -27.9 -16.3 -39.45 0.0 -39.45 16.3 -39.45 27.9 -27.9 M7.0 -32.0 L9.25 -31.35 Q21.7 -27.75 27.6 -17.25 30.55 -11.95 31.0 -7.3 L31.15 -5.4 1.5 -5.4 1.5 -1.9 32.25 -1.9 32.25 1.6 1.5 1.6 1.5 5.1 31.15 5.1 31.0 7.0 Q30.55 11.65 27.6 16.9 21.7 27.4 9.25 31.0 L7.0 31.65 7.0 14.1 19.25 14.1 19.25 17.6 10.5 17.6 10.5 26.9 Q24.1 21.9 27.2 8.6 L1.5 8.6 1.5 32.35 -2.0 32.35 -2.0 8.6 -27.1 8.6 Q-24.25 21.4 -10.5 26.45 L-10.5 17.6 -18.25 17.6 -18.25 14.1 -7.0 14.1 -7.0 31.05 -9.15 30.55 Q-14.05 29.35 -19.15 25.8 -29.35 18.75 -31.25 5.1 L-2.0 5.1 -2.0 1.6 -32.25 1.6 -32.25 -1.9 -2.0 -1.9 -2.0 -5.4 -31.5 -5.4 -30.95 -7.6 Q-27.65 -20.25 -18.3 -26.75 -13.55 -30.05 -9.05 -30.9 L-7.0 -31.25 -7.0 -14.4 -18.25 -14.4 -18.25 -17.9 -10.5 -17.9 -10.5 -26.85 Q-22.4 -22.75 -26.9 -8.9 L-2.0 -8.9 -2.0 -32.15 1.5 -32.15 1.5 -8.9 27.2 -8.9 Q24.15 -22.2 10.5 -27.2 L10.5 -17.95 18.8 -17.95 18.7 -14.9 18.5 -14.9 14.65 -14.9 10.75 -14.9 7.0 -14.8 7.0 -32.0" fill="#9744bf" fill-rule="evenodd" stroke="none"/>
  </g>
</svg>
