<?xml version="1.0" encoding="UTF-8" standalone="no"?>
<svg xmlns:ffdec="https://www.free-decompiler.com/flash" xmlns:xlink="http://www.w3.org/1999/xlink" ffdec:objectType="shape" height="50.5px" width="55.7px" xmlns="http://www.w3.org/2000/svg">
  <g transform="matrix(1.0, 0.0, 0.0, 1.0, 26.45, 20.35)">
    <path d="M12.4 21.4 L11.3 21.9 12.55 20.75 12.4 21.4 M-8.3 20.95 L-9.4 20.4 Q-12.55 18.8 -14.85 16.45 -17.7 13.5 -18.2 10.25 -19.15 3.8 -16.95 -1.9 -14.65 -8.0 -9.65 -10.4 -3.35 -13.5 2.35 -13.35 L3.05 -13.3 Q4.45 -12.0 6.8 -11.7 9.85 -10.15 11.5 -7.55 12.5 -5.95 13.1 -4.2 15.75 3.4 13.0 11.25 12.75 11.85 12.65 12.4 11.2 17.85 5.9 19.9 2.85 21.05 -0.45 20.9 L-3.3 20.85 -8.3 20.95 M18.4 -3.0 L18.25 -2.75 Q17.8 -4.8 16.95 -6.7 L18.4 -3.0" fill="#ffff99" fill-rule="evenodd" stroke="none"/>
    <path d="M11.15 -12.15 L11.75 -11.95 11.2 -11.95 11.15 -12.15" fill="#ffff33" fill-rule="evenodd" stroke="none"/>
    <path d="M16.05 18.95 L15.5 19.45 12.4 21.4 12.55 20.75 11.3 21.9 9.95 22.35 9.75 22.4 5.95 23.1 4.85 23.15 -2.8 22.7 -6.85 21.55 -7.95 21.1 -8.3 20.95 -3.3 20.85 -0.45 20.9 Q2.85 21.05 5.9 19.9 11.2 17.85 12.65 12.4 12.75 11.85 13.0 11.25 15.75 3.4 13.1 -4.2 12.5 -5.95 11.5 -7.55 9.85 -10.15 6.8 -11.7 4.45 -12.0 3.05 -13.3 L5.2 -13.1 11.15 -12.15 11.2 -11.95 11.75 -11.95 11.8 -11.95 12.2 -11.85 13.15 -11.25 17.2 -8.7 18.0 -7.75 19.5 -5.55 Q20.45 -3.85 21.05 -1.9 22.1 1.75 21.7 6.15 L21.1 10.05 20.35 12.55 20.2 13.0 18.7 15.95 18.05 16.8 17.25 17.75 16.05 18.95 M18.4 -3.0 L16.95 -6.7 Q17.8 -4.8 18.25 -2.75 L18.4 -3.0" fill="#ffff00" fill-rule="evenodd" stroke="none"/>
    <path d="M16.2 19.05 L16.05 18.95 17.25 17.75 18.05 16.8 17.45 17.85 17.35 17.95 16.2 19.05" fill="#ff6600" fill-rule="evenodd" stroke="none"/>
    <path d="M-6.95 28.95 L-0.65 28.85 8.7 27.8 Q15.75 26.4 20.15 20.65 L21.1 19.5 Q23.8 14.2 24.0 14.7 24.15 15.2 25.05 10.55 25.95 5.95 25.2 0.15 24.45 -5.7 24.5 -3.95 L24.1 -5.8 Q22.15 -13.3 14.95 -16.6 L13.0 -17.35 8.8 -19.0 Q8.15 -19.3 7.95 -19.85 L14.55 -18.7 Q20.55 -17.0 24.0 -12.65 27.25 -8.55 28.5 -3.4 30.1 3.4 28.25 11.95 26.45 20.15 20.5 25.0 16.55 28.15 11.35 29.4 L5.8 30.1 -4.75 29.45 -6.95 28.95 M16.2 19.05 L12.95 21.75 Q9.3 24.55 4.55 25.05 L-5.4 24.55 Q-13.8 22.85 -17.6 15.65 -19.55 12.0 -19.85 7.95 -20.35 1.85 -18.55 -3.65 L-18.3 -4.15 Q-14.45 -11.45 -6.9 -14.6 -4.05 -15.85 -1.1 -15.9 5.65 -15.6 11.65 -12.65 12.85 -12.1 13.15 -11.25 L12.2 -11.85 11.8 -11.95 11.75 -11.95 11.15 -12.15 5.2 -13.1 3.05 -13.3 2.35 -13.35 Q-3.35 -13.5 -9.65 -10.4 -14.65 -8.0 -16.95 -1.9 -19.15 3.8 -18.2 10.25 -17.7 13.5 -14.85 16.45 -12.55 18.8 -9.4 20.4 L-8.3 20.95 -7.95 21.1 -6.85 21.55 -2.8 22.7 4.85 23.15 5.95 23.1 9.75 22.4 9.95 22.35 11.3 21.9 12.4 21.4 15.5 19.45 16.05 18.95 16.2 19.05" fill="#006600" fill-rule="evenodd" stroke="none"/>
    <path d="M-21.25 21.0 Q-23.9 16.45 -24.85 11.15 -25.2 9.3 -25.2 7.35 -25.05 1.35 -22.85 -4.2 -19.85 -11.9 -12.35 -15.45 -11.05 -16.1 -9.65 -16.4 L-5.5 -17.6 Q-2.4 -18.65 0.85 -18.95 L6.5 -19.45 7.8 -19.85 7.95 -19.85 Q8.15 -19.3 8.8 -19.0 L13.0 -17.35 14.95 -16.6 Q22.15 -13.3 24.1 -5.8 L24.5 -3.95 Q24.45 -5.7 25.2 0.15 25.95 5.95 25.05 10.55 24.15 15.2 24.0 14.7 23.8 14.2 21.1 19.5 L20.15 20.65 Q15.75 26.4 8.7 27.8 L-0.65 28.85 -6.95 28.95 Q-10.5 28.05 -13.85 26.35 -18.15 24.2 -21.25 21.0 M13.15 -11.25 Q12.85 -12.1 11.65 -12.65 5.65 -15.6 -1.1 -15.9 -4.05 -15.85 -6.9 -14.6 -14.45 -11.45 -18.3 -4.15 L-18.55 -3.65 Q-20.35 1.85 -19.85 7.95 -19.55 12.0 -17.6 15.65 -13.8 22.85 -5.4 24.55 L4.55 25.05 Q9.3 24.55 12.95 21.75 L16.2 19.05 17.35 17.95 17.45 17.85 18.05 16.8 18.7 15.95 20.2 13.0 20.35 12.55 21.1 10.05 21.7 6.15 Q22.1 1.75 21.05 -1.9 20.45 -3.85 19.5 -5.55 L18.0 -7.75 17.2 -8.7 13.15 -11.25" fill="#339900" fill-rule="evenodd" stroke="none"/>
    <path d="M7.8 -19.85 L6.5 -19.45 0.85 -18.95 Q-2.4 -18.65 -5.5 -17.6 L-9.65 -16.4 Q-11.05 -16.1 -12.35 -15.45 -19.85 -11.9 -22.85 -4.2 -25.05 1.35 -25.2 7.35 -25.2 9.3 -24.85 11.15 -23.9 16.45 -21.25 21.0 L-21.4 20.8 Q-25.35 16.75 -26.05 12.25 -27.4 3.35 -24.35 -4.55 -21.15 -12.95 -14.25 -16.3 -5.55 -20.5 2.35 -20.35 L7.8 -19.85" fill="#00cc00" fill-rule="evenodd" stroke="none"/>
    <path d="M-5.05 11.45 L-5.7 -7.05 Q-1.85 -4.65 0.9 -2.45 3.7 -0.25 12.35 4.85 9.1 6.15 4.15 9.45 -0.8 12.7 -4.75 16.9 L-5.05 11.45" fill="#cc0000" fill-rule="evenodd" stroke="none"/>
  </g>
</svg>
